%TF.GenerationSoftware,KiCad,Pcbnew,8.0.4*%
%TF.CreationDate,2024-09-27T18:26:47+01:00*%
%TF.ProjectId,EuroRackPanel-6HP-30mm,4575726f-5261-4636-9b50-616e656c2d36,rev?*%
%TF.SameCoordinates,Original*%
%TF.FileFunction,Legend,Bot*%
%TF.FilePolarity,Positive*%
%FSLAX46Y46*%
G04 Gerber Fmt 4.6, Leading zero omitted, Abs format (unit mm)*
G04 Created by KiCad (PCBNEW 8.0.4) date 2024-09-27 18:26:47*
%MOMM*%
%LPD*%
G01*
G04 APERTURE LIST*
%ADD10C,0.100000*%
%ADD11C,0.150000*%
G04 APERTURE END LIST*
D10*
X51000000Y-56000000D02*
X79000000Y-56000000D01*
X65000000Y-56000000D02*
X65000000Y-172500000D01*
X51000000Y-172500000D02*
X79000000Y-172500000D01*
D11*
X54333332Y-57954819D02*
X53999999Y-58954819D01*
X53999999Y-58954819D02*
X53666666Y-57954819D01*
X52761904Y-58859580D02*
X52809523Y-58907200D01*
X52809523Y-58907200D02*
X52952380Y-58954819D01*
X52952380Y-58954819D02*
X53047618Y-58954819D01*
X53047618Y-58954819D02*
X53190475Y-58907200D01*
X53190475Y-58907200D02*
X53285713Y-58811961D01*
X53285713Y-58811961D02*
X53333332Y-58716723D01*
X53333332Y-58716723D02*
X53380951Y-58526247D01*
X53380951Y-58526247D02*
X53380951Y-58383390D01*
X53380951Y-58383390D02*
X53333332Y-58192914D01*
X53333332Y-58192914D02*
X53285713Y-58097676D01*
X53285713Y-58097676D02*
X53190475Y-58002438D01*
X53190475Y-58002438D02*
X53047618Y-57954819D01*
X53047618Y-57954819D02*
X52952380Y-57954819D01*
X52952380Y-57954819D02*
X52809523Y-58002438D01*
X52809523Y-58002438D02*
X52761904Y-58050057D01*
X51761904Y-58859580D02*
X51809523Y-58907200D01*
X51809523Y-58907200D02*
X51952380Y-58954819D01*
X51952380Y-58954819D02*
X52047618Y-58954819D01*
X52047618Y-58954819D02*
X52190475Y-58907200D01*
X52190475Y-58907200D02*
X52285713Y-58811961D01*
X52285713Y-58811961D02*
X52333332Y-58716723D01*
X52333332Y-58716723D02*
X52380951Y-58526247D01*
X52380951Y-58526247D02*
X52380951Y-58383390D01*
X52380951Y-58383390D02*
X52333332Y-58192914D01*
X52333332Y-58192914D02*
X52285713Y-58097676D01*
X52285713Y-58097676D02*
X52190475Y-58002438D01*
X52190475Y-58002438D02*
X52047618Y-57954819D01*
X52047618Y-57954819D02*
X51952380Y-57954819D01*
X51952380Y-57954819D02*
X51809523Y-58002438D01*
X51809523Y-58002438D02*
X51761904Y-58050057D01*
X77761904Y-58002438D02*
X77857142Y-57954819D01*
X77857142Y-57954819D02*
X77999999Y-57954819D01*
X77999999Y-57954819D02*
X78142856Y-58002438D01*
X78142856Y-58002438D02*
X78238094Y-58097676D01*
X78238094Y-58097676D02*
X78285713Y-58192914D01*
X78285713Y-58192914D02*
X78333332Y-58383390D01*
X78333332Y-58383390D02*
X78333332Y-58526247D01*
X78333332Y-58526247D02*
X78285713Y-58716723D01*
X78285713Y-58716723D02*
X78238094Y-58811961D01*
X78238094Y-58811961D02*
X78142856Y-58907200D01*
X78142856Y-58907200D02*
X77999999Y-58954819D01*
X77999999Y-58954819D02*
X77904761Y-58954819D01*
X77904761Y-58954819D02*
X77761904Y-58907200D01*
X77761904Y-58907200D02*
X77714285Y-58859580D01*
X77714285Y-58859580D02*
X77714285Y-58526247D01*
X77714285Y-58526247D02*
X77904761Y-58526247D01*
X77285713Y-58954819D02*
X77285713Y-57954819D01*
X77285713Y-57954819D02*
X76714285Y-58954819D01*
X76714285Y-58954819D02*
X76714285Y-57954819D01*
X76238094Y-58954819D02*
X76238094Y-57954819D01*
X76238094Y-57954819D02*
X75999999Y-57954819D01*
X75999999Y-57954819D02*
X75857142Y-58002438D01*
X75857142Y-58002438D02*
X75761904Y-58097676D01*
X75761904Y-58097676D02*
X75714285Y-58192914D01*
X75714285Y-58192914D02*
X75666666Y-58383390D01*
X75666666Y-58383390D02*
X75666666Y-58526247D01*
X75666666Y-58526247D02*
X75714285Y-58716723D01*
X75714285Y-58716723D02*
X75761904Y-58811961D01*
X75761904Y-58811961D02*
X75857142Y-58907200D01*
X75857142Y-58907200D02*
X75999999Y-58954819D01*
X75999999Y-58954819D02*
X76238094Y-58954819D01*
M02*
