%TF.GenerationSoftware,KiCad,Pcbnew,8.0.4*%
%TF.CreationDate,2024-09-27T18:26:46+01:00*%
%TF.ProjectId,EuroRackPanel-6HP-30mm,4575726f-5261-4636-9b50-616e656c2d36,rev?*%
%TF.SameCoordinates,Original*%
%TF.FileFunction,Copper,L2,Bot*%
%TF.FilePolarity,Positive*%
%FSLAX46Y46*%
G04 Gerber Fmt 4.6, Leading zero omitted, Abs format (unit mm)*
G04 Created by KiCad (PCBNEW 8.0.4) date 2024-09-27 18:26:46*
%MOMM*%
%LPD*%
G01*
G04 APERTURE LIST*
%TA.AperFunction,SMDPad,CuDef*%
%ADD10R,2.000000X80.000000*%
%TD*%
%TA.AperFunction,SMDPad,CuDef*%
%ADD11R,2.000000X110.000000*%
%TD*%
G04 APERTURE END LIST*
D10*
%TO.P,J1,1,Pin_1*%
%TO.N,VCC*%
X53000000Y-100000000D03*
%TD*%
D11*
%TO.P,J2,1,Pin_1*%
%TO.N,GND*%
X77000000Y-115000000D03*
%TD*%
%TA.AperFunction,Conductor*%
%TO.N,GND*%
G36*
X79442539Y-50520185D02*
G01*
X79488294Y-50572989D01*
X79499500Y-50624500D01*
X79499500Y-177875500D01*
X79479815Y-177942539D01*
X79427011Y-177988294D01*
X79375500Y-177999500D01*
X50624500Y-177999500D01*
X50557461Y-177979815D01*
X50511706Y-177927011D01*
X50500500Y-177875500D01*
X50500500Y-175378711D01*
X70549500Y-175378711D01*
X70549500Y-175621288D01*
X70581161Y-175861785D01*
X70643947Y-176096104D01*
X70736773Y-176320205D01*
X70736776Y-176320212D01*
X70858064Y-176530289D01*
X70858066Y-176530292D01*
X70858067Y-176530293D01*
X71005733Y-176722736D01*
X71005739Y-176722743D01*
X71177256Y-176894260D01*
X71177262Y-176894265D01*
X71369711Y-177041936D01*
X71579788Y-177163224D01*
X71803900Y-177256054D01*
X72038211Y-177318838D01*
X72218586Y-177342584D01*
X72278711Y-177350500D01*
X72278712Y-177350500D01*
X75721289Y-177350500D01*
X75769388Y-177344167D01*
X75961789Y-177318838D01*
X76196100Y-177256054D01*
X76420212Y-177163224D01*
X76630289Y-177041936D01*
X76822738Y-176894265D01*
X76994265Y-176722738D01*
X77141936Y-176530289D01*
X77263224Y-176320212D01*
X77356054Y-176096100D01*
X77418838Y-175861789D01*
X77450500Y-175621288D01*
X77450500Y-175378712D01*
X77418838Y-175138211D01*
X77356054Y-174903900D01*
X77263224Y-174679788D01*
X77141936Y-174469711D01*
X76994265Y-174277262D01*
X76994260Y-174277256D01*
X76822743Y-174105739D01*
X76822736Y-174105733D01*
X76630293Y-173958067D01*
X76630292Y-173958066D01*
X76630289Y-173958064D01*
X76420212Y-173836776D01*
X76420205Y-173836773D01*
X76196104Y-173743947D01*
X75961785Y-173681161D01*
X75721289Y-173649500D01*
X75721288Y-173649500D01*
X72278712Y-173649500D01*
X72278711Y-173649500D01*
X72038214Y-173681161D01*
X71803895Y-173743947D01*
X71579794Y-173836773D01*
X71579785Y-173836777D01*
X71369706Y-173958067D01*
X71177263Y-174105733D01*
X71177256Y-174105739D01*
X71005739Y-174277256D01*
X71005733Y-174277263D01*
X70858067Y-174469706D01*
X70736777Y-174679785D01*
X70736773Y-174679794D01*
X70643947Y-174903895D01*
X70581161Y-175138214D01*
X70549500Y-175378711D01*
X50500500Y-175378711D01*
X50500500Y-59952135D01*
X51499500Y-59952135D01*
X51499500Y-140047870D01*
X51499501Y-140047876D01*
X51505908Y-140107483D01*
X51556202Y-140242328D01*
X51556206Y-140242335D01*
X51642452Y-140357544D01*
X51642455Y-140357547D01*
X51757664Y-140443793D01*
X51757671Y-140443797D01*
X51892517Y-140494091D01*
X51892516Y-140494091D01*
X51899444Y-140494835D01*
X51952127Y-140500500D01*
X54047872Y-140500499D01*
X54107483Y-140494091D01*
X54242331Y-140443796D01*
X54357546Y-140357546D01*
X54443796Y-140242331D01*
X54494091Y-140107483D01*
X54500500Y-140047873D01*
X54500499Y-59952128D01*
X54494091Y-59892517D01*
X54443796Y-59757669D01*
X54443795Y-59757668D01*
X54443793Y-59757664D01*
X54357547Y-59642455D01*
X54357544Y-59642452D01*
X54242335Y-59556206D01*
X54242328Y-59556202D01*
X54107482Y-59505908D01*
X54107483Y-59505908D01*
X54047883Y-59499501D01*
X54047881Y-59499500D01*
X54047873Y-59499500D01*
X54047864Y-59499500D01*
X51952129Y-59499500D01*
X51952123Y-59499501D01*
X51892516Y-59505908D01*
X51757671Y-59556202D01*
X51757664Y-59556206D01*
X51642455Y-59642452D01*
X51642452Y-59642455D01*
X51556206Y-59757664D01*
X51556202Y-59757671D01*
X51505908Y-59892517D01*
X51499501Y-59952116D01*
X51499501Y-59952123D01*
X51499500Y-59952135D01*
X50500500Y-59952135D01*
X50500500Y-52878711D01*
X52549500Y-52878711D01*
X52549500Y-53121288D01*
X52581161Y-53361785D01*
X52643947Y-53596104D01*
X52736773Y-53820205D01*
X52736776Y-53820212D01*
X52858064Y-54030289D01*
X52858066Y-54030292D01*
X52858067Y-54030293D01*
X53005733Y-54222736D01*
X53005739Y-54222743D01*
X53177256Y-54394260D01*
X53177262Y-54394265D01*
X53369711Y-54541936D01*
X53579788Y-54663224D01*
X53803900Y-54756054D01*
X54038211Y-54818838D01*
X54218586Y-54842584D01*
X54278711Y-54850500D01*
X54278712Y-54850500D01*
X57721289Y-54850500D01*
X57769388Y-54844167D01*
X57961789Y-54818838D01*
X58196100Y-54756054D01*
X58420212Y-54663224D01*
X58630289Y-54541936D01*
X58822738Y-54394265D01*
X58994265Y-54222738D01*
X59141936Y-54030289D01*
X59263224Y-53820212D01*
X59356054Y-53596100D01*
X59418838Y-53361789D01*
X59450500Y-53121288D01*
X59450500Y-52878712D01*
X59418838Y-52638211D01*
X59356054Y-52403900D01*
X59263224Y-52179788D01*
X59141936Y-51969711D01*
X58994265Y-51777262D01*
X58994260Y-51777256D01*
X58822743Y-51605739D01*
X58822736Y-51605733D01*
X58630293Y-51458067D01*
X58630292Y-51458066D01*
X58630289Y-51458064D01*
X58420212Y-51336776D01*
X58420205Y-51336773D01*
X58196104Y-51243947D01*
X57961785Y-51181161D01*
X57721289Y-51149500D01*
X57721288Y-51149500D01*
X54278712Y-51149500D01*
X54278711Y-51149500D01*
X54038214Y-51181161D01*
X53803895Y-51243947D01*
X53579794Y-51336773D01*
X53579785Y-51336777D01*
X53369706Y-51458067D01*
X53177263Y-51605733D01*
X53177256Y-51605739D01*
X53005739Y-51777256D01*
X53005733Y-51777263D01*
X52858067Y-51969706D01*
X52736777Y-52179785D01*
X52736773Y-52179794D01*
X52643947Y-52403895D01*
X52581161Y-52638214D01*
X52549500Y-52878711D01*
X50500500Y-52878711D01*
X50500500Y-50624500D01*
X50520185Y-50557461D01*
X50572989Y-50511706D01*
X50624500Y-50500500D01*
X79375500Y-50500500D01*
X79442539Y-50520185D01*
G37*
%TD.AperFunction*%
%TD*%
M02*
