%TF.GenerationSoftware,KiCad,Pcbnew,8.0.7*%
%TF.CreationDate,2025-02-20T21:39:26+00:00*%
%TF.ProjectId,RPi-MiniDexed-EuroRack,5250692d-4d69-46e6-9944-657865642d45,rev?*%
%TF.SameCoordinates,Original*%
%TF.FileFunction,Copper,L2,Bot*%
%TF.FilePolarity,Positive*%
%FSLAX46Y46*%
G04 Gerber Fmt 4.6, Leading zero omitted, Abs format (unit mm)*
G04 Created by KiCad (PCBNEW 8.0.7) date 2025-02-20 21:39:26*
%MOMM*%
%LPD*%
G01*
G04 APERTURE LIST*
G04 Aperture macros list*
%AMRoundRect*
0 Rectangle with rounded corners*
0 $1 Rounding radius*
0 $2 $3 $4 $5 $6 $7 $8 $9 X,Y pos of 4 corners*
0 Add a 4 corners polygon primitive as box body*
4,1,4,$2,$3,$4,$5,$6,$7,$8,$9,$2,$3,0*
0 Add four circle primitives for the rounded corners*
1,1,$1+$1,$2,$3*
1,1,$1+$1,$4,$5*
1,1,$1+$1,$6,$7*
1,1,$1+$1,$8,$9*
0 Add four rect primitives between the rounded corners*
20,1,$1+$1,$2,$3,$4,$5,0*
20,1,$1+$1,$4,$5,$6,$7,0*
20,1,$1+$1,$6,$7,$8,$9,0*
20,1,$1+$1,$8,$9,$2,$3,0*%
G04 Aperture macros list end*
%TA.AperFunction,ComponentPad*%
%ADD10R,1.700000X1.700000*%
%TD*%
%TA.AperFunction,ComponentPad*%
%ADD11O,1.700000X1.700000*%
%TD*%
%TA.AperFunction,ComponentPad*%
%ADD12O,2.000000X1.905000*%
%TD*%
%TA.AperFunction,ComponentPad*%
%ADD13R,2.000000X1.905000*%
%TD*%
%TA.AperFunction,ComponentPad*%
%ADD14R,1.600000X1.600000*%
%TD*%
%TA.AperFunction,ComponentPad*%
%ADD15O,1.600000X1.600000*%
%TD*%
%TA.AperFunction,ComponentPad*%
%ADD16O,2.000000X2.000000*%
%TD*%
%TA.AperFunction,ComponentPad*%
%ADD17C,2.000000*%
%TD*%
%TA.AperFunction,ComponentPad*%
%ADD18C,3.200000*%
%TD*%
%TA.AperFunction,ComponentPad*%
%ADD19C,1.600000*%
%TD*%
%TA.AperFunction,ComponentPad*%
%ADD20O,2.200000X2.200000*%
%TD*%
%TA.AperFunction,ComponentPad*%
%ADD21R,2.200000X2.200000*%
%TD*%
%TA.AperFunction,ComponentPad*%
%ADD22RoundRect,0.250000X0.600000X-0.600000X0.600000X0.600000X-0.600000X0.600000X-0.600000X-0.600000X0*%
%TD*%
%TA.AperFunction,ComponentPad*%
%ADD23C,1.700000*%
%TD*%
%TA.AperFunction,ViaPad*%
%ADD24C,0.600000*%
%TD*%
%TA.AperFunction,Conductor*%
%ADD25C,0.250000*%
%TD*%
%TA.AperFunction,Conductor*%
%ADD26C,0.800000*%
%TD*%
%TA.AperFunction,Conductor*%
%ADD27C,0.400000*%
%TD*%
G04 APERTURE END LIST*
D10*
%TO.P,J9,1,Pin_1*%
%TO.N,GND*%
X53350000Y-134625000D03*
D11*
%TO.P,J9,2,Pin_2*%
%TO.N,+5V*%
X53350000Y-132085000D03*
%TO.P,J9,3,Pin_3*%
%TO.N,+12V*%
X53350000Y-129545000D03*
%TD*%
D12*
%TO.P,U2,3,OUT*%
%TO.N,+5V*%
X55500000Y-124580000D03*
%TO.P,U2,2,GND*%
%TO.N,GND*%
X55500000Y-122040000D03*
D13*
%TO.P,U2,1,IN*%
%TO.N,+12V*%
X55500000Y-119500000D03*
%TD*%
%TO.P,U3,1,IN*%
%TO.N,+12V*%
X55500000Y-119500000D03*
D12*
%TO.P,U3,2,GND*%
%TO.N,GND*%
X55500000Y-122040000D03*
%TO.P,U3,3,OUT*%
%TO.N,+5V*%
X55500000Y-124580000D03*
%TD*%
D14*
%TO.P,U1,1*%
%TO.N,Net-(D1-K)*%
X77200000Y-63200000D03*
D15*
%TO.P,U1,2*%
%TO.N,Net-(D1-A)*%
X77200000Y-65740000D03*
%TO.P,U1,3*%
%TO.N,unconnected-(U1-Pad3)*%
X77200000Y-68280000D03*
%TO.P,U1,4*%
%TO.N,/GPIO15(RXD0)*%
X84820000Y-68280000D03*
%TO.P,U1,5*%
%TO.N,GND*%
X84820000Y-65740000D03*
%TO.P,U1,6*%
%TO.N,+3V3*%
X84820000Y-63200000D03*
%TD*%
D16*
%TO.P,SW1,A,A*%
%TO.N,/GPIO9(SPI0_MISO)*%
X72540000Y-84750000D03*
D17*
%TO.P,SW1,B,B*%
%TO.N,/GPIO10(SPI0_MOSI)*%
X67540000Y-84750000D03*
%TO.P,SW1,C,C*%
%TO.N,GND*%
X70040000Y-84750000D03*
D18*
%TO.P,SW1,MP*%
%TO.N,N/C*%
X75640000Y-92250000D03*
X64440000Y-92250000D03*
D17*
%TO.P,SW1,S1,S1*%
%TO.N,/GPIO11(SPI0_SCK)*%
X67540000Y-99250000D03*
%TO.P,SW1,S2,S2*%
%TO.N,GND*%
X72540000Y-99250000D03*
%TD*%
D19*
%TO.P,C7,1*%
%TO.N,GND*%
X65750000Y-63750000D03*
%TO.P,C7,2*%
%TO.N,/GPIO6*%
X65750000Y-68750000D03*
%TD*%
%TO.P,C2,1*%
%TO.N,/GPIO9(SPI0_MISO)*%
X68500000Y-68750000D03*
%TO.P,C2,2*%
%TO.N,GND*%
X68500000Y-63750000D03*
%TD*%
%TO.P,C5,1*%
%TO.N,GND*%
X73750000Y-102500000D03*
%TO.P,C5,2*%
%TO.N,+5V*%
X68750000Y-102500000D03*
%TD*%
D10*
%TO.P,J2,1,Pin_1*%
%TO.N,GND*%
X53486000Y-67560000D03*
D11*
%TO.P,J2,2,Pin_2*%
%TO.N,+5V*%
X53486000Y-65020000D03*
%TO.P,J2,3,Pin_3*%
%TO.N,/GPIO3(SCL1)*%
X53486000Y-62480000D03*
%TO.P,J2,4,Pin_4*%
%TO.N,/GPIO2(SDA1)*%
X53486000Y-59940000D03*
%TD*%
D10*
%TO.P,J7,1,Pin_1*%
%TO.N,Net-(J7-Pin_1)*%
X87500000Y-123525000D03*
D11*
%TO.P,J7,2,Pin_2*%
%TO.N,Net-(D1-A)*%
X87500000Y-120985000D03*
%TD*%
D19*
%TO.P,C1,1*%
%TO.N,+3V3*%
X84750000Y-60250000D03*
%TO.P,C1,2*%
%TO.N,GND*%
X79750000Y-60250000D03*
%TD*%
%TO.P,R2,1*%
%TO.N,+3V3*%
X88250000Y-63250000D03*
D15*
%TO.P,R2,2*%
%TO.N,/GPIO15(RXD0)*%
X88250000Y-70870000D03*
%TD*%
D19*
%TO.P,C4,1*%
%TO.N,/GPIO11(SPI0_SCK)*%
X73850000Y-68750000D03*
%TO.P,C4,2*%
%TO.N,GND*%
X73850000Y-63750000D03*
%TD*%
D10*
%TO.P,J6,1,Pin_1*%
%TO.N,Net-(J6-Pin_1)*%
X87500000Y-127750000D03*
D11*
%TO.P,J6,2,Pin_2*%
%TO.N,Net-(A1-LOUT)*%
X87500000Y-130290000D03*
%TO.P,J6,3,Pin_3*%
%TO.N,Net-(A1-ROUT)*%
X87500000Y-132830000D03*
%TD*%
D19*
%TO.P,C6,1*%
%TO.N,GND*%
X63250000Y-63750000D03*
%TO.P,C6,2*%
%TO.N,/GPIO5*%
X63250000Y-68750000D03*
%TD*%
%TO.P,R1,1*%
%TO.N,Net-(J7-Pin_1)*%
X87500000Y-83620000D03*
D15*
%TO.P,R1,2*%
%TO.N,Net-(D1-K)*%
X87500000Y-76000000D03*
%TD*%
D19*
%TO.P,C3,1*%
%TO.N,/GPIO10(SPI0_MOSI)*%
X71250000Y-68750000D03*
%TO.P,C3,2*%
%TO.N,GND*%
X71250000Y-63750000D03*
%TD*%
D17*
%TO.P,SW3,1,1*%
%TO.N,GND*%
X76750000Y-74000000D03*
X76750000Y-80500000D03*
%TO.P,SW3,2,2*%
%TO.N,/GPIO6*%
X72250000Y-74000000D03*
X72250000Y-80500000D03*
%TD*%
%TO.P,SW2,1,1*%
%TO.N,GND*%
X67750000Y-74000000D03*
X67750000Y-80500000D03*
%TO.P,SW2,2,2*%
%TO.N,/GPIO5*%
X63250000Y-74000000D03*
X63250000Y-80500000D03*
%TD*%
D14*
%TO.P,D1,1,K*%
%TO.N,Net-(D1-K)*%
X87560000Y-73500000D03*
D15*
%TO.P,D1,2,A*%
%TO.N,Net-(D1-A)*%
X79940000Y-73500000D03*
%TD*%
D20*
%TO.P,D2,2,A*%
%TO.N,Net-(D2-A)*%
X78450000Y-126305000D03*
D21*
%TO.P,D2,1,K*%
%TO.N,+12V*%
X78450000Y-116145000D03*
%TD*%
D10*
%TO.P,P1,1,Pin_1*%
%TO.N,+3V3*%
X59770000Y-106630000D03*
D11*
%TO.P,P1,2,Pin_2*%
%TO.N,+5V*%
X57230000Y-106630000D03*
%TO.P,P1,3,Pin_3*%
%TO.N,/GPIO2(SDA1)*%
X59770000Y-104090000D03*
%TO.P,P1,4,Pin_4*%
%TO.N,+5V*%
X57230000Y-104090000D03*
%TO.P,P1,5,Pin_5*%
%TO.N,/GPIO3(SCL1)*%
X59770000Y-101550000D03*
%TO.P,P1,6,Pin_6*%
%TO.N,GND*%
X57230000Y-101550000D03*
%TO.P,P1,7,Pin_7*%
%TO.N,/GPIO4(GCLK)*%
X59770000Y-99010000D03*
%TO.P,P1,8,Pin_8*%
%TO.N,/GPIO14(TXD0)*%
X57230000Y-99010000D03*
%TO.P,P1,9,Pin_9*%
%TO.N,GND*%
X59770000Y-96470000D03*
%TO.P,P1,10,Pin_10*%
%TO.N,/GPIO15(RXD0)*%
X57230000Y-96470000D03*
%TO.P,P1,11,Pin_11*%
%TO.N,/GPIO17(GEN0)*%
X59770000Y-93930000D03*
%TO.P,P1,12,Pin_12*%
%TO.N,/GPIO18(GEN1)(PWM0)*%
X57230000Y-93930000D03*
%TO.P,P1,13,Pin_13*%
%TO.N,/GPIO27(GEN2)*%
X59770000Y-91390000D03*
%TO.P,P1,14,Pin_14*%
%TO.N,GND*%
X57230000Y-91390000D03*
%TO.P,P1,15,Pin_15*%
%TO.N,/GPIO22(GEN3)*%
X59770000Y-88850000D03*
%TO.P,P1,16,Pin_16*%
%TO.N,/GPIO23(GEN4)*%
X57230000Y-88850000D03*
%TO.P,P1,17,Pin_17*%
%TO.N,+3V3*%
X59770000Y-86310000D03*
%TO.P,P1,18,Pin_18*%
%TO.N,/GPIO24(GEN5)*%
X57230000Y-86310000D03*
%TO.P,P1,19,Pin_19*%
%TO.N,/GPIO10(SPI0_MOSI)*%
X59770000Y-83770000D03*
%TO.P,P1,20,Pin_20*%
%TO.N,GND*%
X57230000Y-83770000D03*
%TO.P,P1,21,Pin_21*%
%TO.N,/GPIO9(SPI0_MISO)*%
X59770000Y-81230000D03*
%TO.P,P1,22,Pin_22*%
%TO.N,/GPIO25(GEN6)*%
X57230000Y-81230000D03*
%TO.P,P1,23,Pin_23*%
%TO.N,/GPIO11(SPI0_SCK)*%
X59770000Y-78690000D03*
%TO.P,P1,24,Pin_24*%
%TO.N,/GPIO8(SPI0_CE_N)*%
X57230000Y-78690000D03*
%TO.P,P1,25,Pin_25*%
%TO.N,GND*%
X59770000Y-76150000D03*
%TO.P,P1,26,Pin_26*%
%TO.N,/GPIO7(SPI1_CE_N)*%
X57230000Y-76150000D03*
%TO.P,P1,27,Pin_27*%
%TO.N,/ID_SD*%
X59770000Y-73610000D03*
%TO.P,P1,28,Pin_28*%
%TO.N,/ID_SC*%
X57230000Y-73610000D03*
%TO.P,P1,29,Pin_29*%
%TO.N,/GPIO5*%
X59770000Y-71070000D03*
%TO.P,P1,30,Pin_30*%
%TO.N,GND*%
X57230000Y-71070000D03*
%TO.P,P1,31,Pin_31*%
%TO.N,/GPIO6*%
X59770000Y-68530000D03*
%TO.P,P1,32,Pin_32*%
%TO.N,/GPIO12(PWM0)*%
X57230000Y-68530000D03*
%TO.P,P1,33,Pin_33*%
%TO.N,/GPIO13(PWM1)*%
X59770000Y-65990000D03*
%TO.P,P1,34,Pin_34*%
%TO.N,GND*%
X57230000Y-65990000D03*
%TO.P,P1,35,Pin_35*%
%TO.N,/GPIO19(SPI1_MISO)*%
X59770000Y-63450000D03*
%TO.P,P1,36,Pin_36*%
%TO.N,/GPIO16*%
X57230000Y-63450000D03*
%TO.P,P1,37,Pin_37*%
%TO.N,/GPIO26*%
X59770000Y-60910000D03*
%TO.P,P1,38,Pin_38*%
%TO.N,/GPIO20(SPI1_MOSI)*%
X57230000Y-60910000D03*
%TO.P,P1,39,Pin_39*%
%TO.N,GND*%
X59770000Y-58370000D03*
%TO.P,P1,40,Pin_40*%
%TO.N,/GPIO21(SPI1_SCK)*%
X57230000Y-58370000D03*
%TD*%
D14*
%TO.P,C9,1*%
%TO.N,+5V*%
X74750000Y-110750000D03*
D19*
%TO.P,C9,2*%
%TO.N,GND*%
X72250000Y-110750000D03*
%TD*%
D22*
%TO.P,J8,1,Pin_1*%
%TO.N,unconnected-(J8-Pin_1-Pad1)*%
X78870000Y-134000000D03*
D23*
%TO.P,J8,2,Pin_2*%
%TO.N,unconnected-(J8-Pin_2-Pad2)*%
X78870000Y-131460000D03*
%TO.P,J8,3,Pin_3*%
%TO.N,unconnected-(J8-Pin_3-Pad3)*%
X76330000Y-134000000D03*
%TO.P,J8,4,Pin_4*%
%TO.N,unconnected-(J8-Pin_4-Pad4)*%
X76330000Y-131460000D03*
%TO.P,J8,5,Pin_5*%
%TO.N,unconnected-(J8-Pin_5-Pad5)*%
X73790000Y-134000000D03*
%TO.P,J8,6,Pin_6*%
%TO.N,unconnected-(J8-Pin_6-Pad6)*%
X73790000Y-131460000D03*
%TO.P,J8,7,Pin_7*%
%TO.N,GND*%
X71250000Y-134000000D03*
%TO.P,J8,8,Pin_8*%
X71250000Y-131460000D03*
%TO.P,J8,9,Pin_9*%
%TO.N,Net-(D2-A)*%
X68710000Y-134000000D03*
%TO.P,J8,10,Pin_10*%
X68710000Y-131460000D03*
%TO.P,J8,11,Pin_11*%
%TO.N,unconnected-(J8-Pin_11-Pad11)*%
X66170000Y-134000000D03*
%TO.P,J8,12,Pin_12*%
%TO.N,unconnected-(J8-Pin_12-Pad12)*%
X66170000Y-131460000D03*
%TO.P,J8,13,Pin_13*%
%TO.N,unconnected-(J8-Pin_13-Pad13)*%
X63630000Y-134000000D03*
%TO.P,J8,14,Pin_14*%
%TO.N,unconnected-(J8-Pin_14-Pad14)*%
X63630000Y-131460000D03*
%TO.P,J8,15,Pin_15*%
%TO.N,unconnected-(J8-Pin_15-Pad15)*%
X61090000Y-134000000D03*
%TO.P,J8,16,Pin_16*%
%TO.N,unconnected-(J8-Pin_16-Pad16)*%
X61090000Y-131460000D03*
%TD*%
D19*
%TO.P,C10,1*%
%TO.N,+5V*%
X81875000Y-119200000D03*
%TO.P,C10,2*%
%TO.N,GND*%
X81875000Y-124200000D03*
%TD*%
D14*
%TO.P,C8,1*%
%TO.N,+12V*%
X64750000Y-110750000D03*
D19*
%TO.P,C8,2*%
%TO.N,GND*%
X67250000Y-110750000D03*
%TD*%
D23*
%TO.P,A1,1,SCK*%
%TO.N,GND*%
X81350000Y-105055000D03*
%TO.P,A1,2,BCK*%
%TO.N,/GPIO18(GEN1)(PWM0)*%
X78810000Y-105055000D03*
%TO.P,A1,3,DIN*%
%TO.N,/GPIO21(SPI1_SCK)*%
X76270000Y-105055000D03*
%TO.P,A1,4,LCK*%
%TO.N,/GPIO19(SPI1_MISO)*%
X73730000Y-105055000D03*
%TO.P,A1,5,GND*%
%TO.N,GND*%
X71190000Y-105055000D03*
%TO.P,A1,6,VIN*%
%TO.N,+5V*%
X68650000Y-105055000D03*
%TO.P,A1,7,LOUT*%
%TO.N,Net-(A1-LOUT)*%
X81985000Y-78385000D03*
%TO.P,A1,8,AGND*%
%TO.N,Net-(J6-Pin_1)*%
X81985000Y-80925000D03*
%TO.P,A1,9,ROUT*%
%TO.N,Net-(A1-ROUT)*%
X81985000Y-83465000D03*
%TO.P,A1,10,AGND*%
%TO.N,unconnected-(A1-AGND-Pad10)*%
X81985000Y-86005000D03*
%TO.P,A1,11,A3V3*%
%TO.N,unconnected-(A1-A3V3-Pad11)*%
X81985000Y-88545000D03*
%TO.P,A1,12,FMT*%
%TO.N,unconnected-(A1-FMT-Pad12)*%
X81985000Y-91085000D03*
%TO.P,A1,13,XSMT*%
%TO.N,unconnected-(A1-XSMT-Pad13)*%
X81985000Y-93625000D03*
%TO.P,A1,14,DEMP*%
%TO.N,unconnected-(A1-DEMP-Pad14)*%
X81985000Y-96165000D03*
%TO.P,A1,15,FLT*%
%TO.N,unconnected-(A1-FLT-Pad15)*%
X81985000Y-98705000D03*
%TD*%
D24*
%TO.N,/GPIO19(SPI1_MISO)*%
X75500000Y-98250000D03*
%TO.N,/GPIO21(SPI1_SCK)*%
X76250000Y-96250000D03*
%TO.N,/GPIO15(RXD0)*%
X80000000Y-76500000D03*
%TD*%
D25*
%TO.N,/GPIO19(SPI1_MISO)*%
X75500000Y-98250000D02*
X75500000Y-103285000D01*
X75500000Y-103285000D02*
X73730000Y-105055000D01*
%TO.N,/GPIO21(SPI1_SCK)*%
X76270000Y-96270000D02*
X76270000Y-105055000D01*
X76250000Y-96250000D02*
X76270000Y-96270000D01*
D26*
%TO.N,+5V*%
X57230000Y-104090000D02*
X57230000Y-106630000D01*
D27*
%TO.N,+3V3*%
X59770000Y-106630000D02*
X59770000Y-106730000D01*
D25*
%TO.N,/GPIO15(RXD0)*%
X84820000Y-71680000D02*
X84820000Y-68280000D01*
X80000000Y-76500000D02*
X84820000Y-71680000D01*
%TD*%
%TA.AperFunction,Conductor*%
%TO.N,GND*%
G36*
X71650000Y-132658915D02*
G01*
X71667560Y-132682965D01*
X71673857Y-132662135D01*
X71725232Y-132617618D01*
X71877387Y-132546666D01*
X72056554Y-132421212D01*
X72211212Y-132266554D01*
X72336665Y-132087389D01*
X72352172Y-132054135D01*
X72398345Y-132001695D01*
X72465538Y-131982543D01*
X72532419Y-132002758D01*
X72576936Y-132054133D01*
X72591330Y-132085000D01*
X72615965Y-132137830D01*
X72615967Y-132137834D01*
X72724281Y-132292521D01*
X72751501Y-132331396D01*
X72751506Y-132331402D01*
X72918597Y-132498493D01*
X72918603Y-132498498D01*
X73104158Y-132628425D01*
X73147783Y-132683002D01*
X73154977Y-132752500D01*
X73123454Y-132814855D01*
X73104158Y-132831575D01*
X72918597Y-132961505D01*
X72751505Y-133128597D01*
X72615966Y-133322168D01*
X72576936Y-133405867D01*
X72530763Y-133458306D01*
X72463569Y-133477457D01*
X72396688Y-133457241D01*
X72352171Y-133405864D01*
X72336665Y-133372611D01*
X72336664Y-133372608D01*
X72211216Y-133193450D01*
X72211211Y-133193444D01*
X72056554Y-133038787D01*
X71877387Y-132913333D01*
X71725232Y-132842382D01*
X71672793Y-132796210D01*
X71666417Y-132773843D01*
X71650000Y-132803076D01*
X71650000Y-133692894D01*
X71557007Y-133599901D01*
X71442993Y-133534075D01*
X71315826Y-133500000D01*
X71184174Y-133500000D01*
X71057007Y-133534075D01*
X70942993Y-133599901D01*
X70850000Y-133692894D01*
X70850000Y-132801083D01*
X70832439Y-132777032D01*
X70826142Y-132797865D01*
X70774767Y-132842382D01*
X70622612Y-132913333D01*
X70622608Y-132913335D01*
X70443450Y-133038783D01*
X70443444Y-133038788D01*
X70288788Y-133193444D01*
X70288783Y-133193450D01*
X70163335Y-133372608D01*
X70163333Y-133372612D01*
X70147827Y-133405866D01*
X70101654Y-133458305D01*
X70034461Y-133477457D01*
X69967580Y-133457241D01*
X69923063Y-133405866D01*
X69884035Y-133322171D01*
X69884034Y-133322169D01*
X69748494Y-133128597D01*
X69581402Y-132961506D01*
X69581396Y-132961501D01*
X69395842Y-132831575D01*
X69352217Y-132776998D01*
X69345023Y-132707500D01*
X69376546Y-132645145D01*
X69395842Y-132628425D01*
X69509752Y-132548664D01*
X69581401Y-132498495D01*
X69748495Y-132331401D01*
X69884035Y-132137830D01*
X69923064Y-132054130D01*
X69969233Y-132001695D01*
X70036427Y-131982543D01*
X70103308Y-132002758D01*
X70147825Y-132054133D01*
X70163330Y-132087382D01*
X70163332Y-132087386D01*
X70288787Y-132266554D01*
X70443445Y-132421212D01*
X70622612Y-132546667D01*
X70774767Y-132617618D01*
X70827206Y-132663790D01*
X70833580Y-132686155D01*
X70850000Y-132656919D01*
X70850000Y-131767106D01*
X70942993Y-131860099D01*
X71057007Y-131925925D01*
X71184174Y-131960000D01*
X71315826Y-131960000D01*
X71442993Y-131925925D01*
X71557007Y-131860099D01*
X71650000Y-131767106D01*
X71650000Y-132658915D01*
G37*
%TD.AperFunction*%
%TA.AperFunction,Conductor*%
G36*
X55750000Y-123003000D02*
G01*
X55730315Y-123070039D01*
X55677511Y-123115794D01*
X55626000Y-123127000D01*
X55374000Y-123127000D01*
X55306961Y-123107315D01*
X55261206Y-123054511D01*
X55250000Y-123003000D01*
X55250000Y-122530747D01*
X55287708Y-122552518D01*
X55427591Y-122590000D01*
X55572409Y-122590000D01*
X55712292Y-122552518D01*
X55750000Y-122530747D01*
X55750000Y-123003000D01*
G37*
%TD.AperFunction*%
%TA.AperFunction,Conductor*%
G36*
X89442539Y-50520185D02*
G01*
X89488294Y-50572989D01*
X89499500Y-50624500D01*
X89499500Y-62373839D01*
X89479815Y-62440878D01*
X89427011Y-62486633D01*
X89357853Y-62496577D01*
X89294297Y-62467552D01*
X89273925Y-62444962D01*
X89250045Y-62410858D01*
X89089141Y-62249954D01*
X88902734Y-62119432D01*
X88902732Y-62119431D01*
X88696497Y-62023261D01*
X88696488Y-62023258D01*
X88476697Y-61964366D01*
X88476693Y-61964365D01*
X88476692Y-61964365D01*
X88476691Y-61964364D01*
X88476686Y-61964364D01*
X88250002Y-61944532D01*
X88249998Y-61944532D01*
X88023313Y-61964364D01*
X88023302Y-61964366D01*
X87803511Y-62023258D01*
X87803502Y-62023261D01*
X87597267Y-62119431D01*
X87597265Y-62119432D01*
X87410858Y-62249954D01*
X87249954Y-62410858D01*
X87119432Y-62597265D01*
X87119431Y-62597267D01*
X87023261Y-62803502D01*
X87023258Y-62803511D01*
X86964366Y-63023302D01*
X86964364Y-63023313D01*
X86944532Y-63249998D01*
X86944532Y-63250001D01*
X86964364Y-63476686D01*
X86964366Y-63476697D01*
X87023258Y-63696488D01*
X87023261Y-63696497D01*
X87119431Y-63902732D01*
X87119432Y-63902734D01*
X87249954Y-64089141D01*
X87410858Y-64250045D01*
X87410861Y-64250047D01*
X87597266Y-64380568D01*
X87803504Y-64476739D01*
X88023308Y-64535635D01*
X88185230Y-64549801D01*
X88249998Y-64555468D01*
X88250000Y-64555468D01*
X88250002Y-64555468D01*
X88306673Y-64550509D01*
X88476692Y-64535635D01*
X88696496Y-64476739D01*
X88902734Y-64380568D01*
X89089139Y-64250047D01*
X89250047Y-64089139D01*
X89273925Y-64055036D01*
X89328500Y-64011412D01*
X89397999Y-64004218D01*
X89460354Y-64035740D01*
X89495768Y-64095969D01*
X89499500Y-64126160D01*
X89499500Y-69993839D01*
X89479815Y-70060878D01*
X89427011Y-70106633D01*
X89357853Y-70116577D01*
X89294297Y-70087552D01*
X89273925Y-70064962D01*
X89250045Y-70030858D01*
X89089141Y-69869954D01*
X88902734Y-69739432D01*
X88902732Y-69739431D01*
X88696497Y-69643261D01*
X88696488Y-69643258D01*
X88476697Y-69584366D01*
X88476693Y-69584365D01*
X88476692Y-69584365D01*
X88476691Y-69584364D01*
X88476686Y-69584364D01*
X88250002Y-69564532D01*
X88249998Y-69564532D01*
X88023313Y-69584364D01*
X88023302Y-69584366D01*
X87803511Y-69643258D01*
X87803502Y-69643261D01*
X87597267Y-69739431D01*
X87597265Y-69739432D01*
X87410858Y-69869954D01*
X87249954Y-70030858D01*
X87119432Y-70217265D01*
X87119431Y-70217267D01*
X87023261Y-70423502D01*
X87023258Y-70423511D01*
X86964366Y-70643302D01*
X86964364Y-70643313D01*
X86944532Y-70869998D01*
X86944532Y-70870001D01*
X86964364Y-71096686D01*
X86964366Y-71096697D01*
X87023258Y-71316488D01*
X87023261Y-71316497D01*
X87119431Y-71522732D01*
X87119432Y-71522734D01*
X87249954Y-71709141D01*
X87410858Y-71870045D01*
X87410861Y-71870047D01*
X87512767Y-71941402D01*
X87559216Y-71973925D01*
X87602841Y-72028501D01*
X87610035Y-72098000D01*
X87578513Y-72160354D01*
X87518283Y-72195769D01*
X87488093Y-72199500D01*
X86712129Y-72199500D01*
X86712123Y-72199501D01*
X86652516Y-72205908D01*
X86517671Y-72256202D01*
X86517664Y-72256206D01*
X86402455Y-72342452D01*
X86402452Y-72342455D01*
X86316206Y-72457664D01*
X86316202Y-72457671D01*
X86265908Y-72592517D01*
X86259501Y-72652116D01*
X86259501Y-72652123D01*
X86259500Y-72652135D01*
X86259500Y-74347870D01*
X86259501Y-74347876D01*
X86265908Y-74407483D01*
X86316202Y-74542328D01*
X86316206Y-74542335D01*
X86402452Y-74657544D01*
X86402455Y-74657547D01*
X86517664Y-74743793D01*
X86517673Y-74743798D01*
X86628743Y-74785224D01*
X86684677Y-74827095D01*
X86709095Y-74892559D01*
X86694244Y-74960832D01*
X86663849Y-74995096D01*
X86665006Y-74996474D01*
X86660861Y-74999951D01*
X86499954Y-75160858D01*
X86369432Y-75347265D01*
X86369431Y-75347267D01*
X86273261Y-75553502D01*
X86273258Y-75553511D01*
X86214366Y-75773302D01*
X86214364Y-75773313D01*
X86194532Y-75999998D01*
X86194532Y-76000001D01*
X86214364Y-76226686D01*
X86214366Y-76226697D01*
X86273258Y-76446488D01*
X86273261Y-76446497D01*
X86369431Y-76652732D01*
X86369432Y-76652734D01*
X86499954Y-76839141D01*
X86660858Y-77000045D01*
X86660861Y-77000047D01*
X86847266Y-77130568D01*
X87053504Y-77226739D01*
X87053509Y-77226740D01*
X87053511Y-77226741D01*
X87090556Y-77236667D01*
X87273308Y-77285635D01*
X87435230Y-77299801D01*
X87499998Y-77305468D01*
X87500000Y-77305468D01*
X87500002Y-77305468D01*
X87556673Y-77300509D01*
X87726692Y-77285635D01*
X87946496Y-77226739D01*
X88152734Y-77130568D01*
X88339139Y-77000047D01*
X88500047Y-76839139D01*
X88630568Y-76652734D01*
X88726739Y-76446496D01*
X88785635Y-76226692D01*
X88805468Y-76000000D01*
X88785635Y-75773308D01*
X88726739Y-75553504D01*
X88630568Y-75347266D01*
X88500047Y-75160861D01*
X88500045Y-75160858D01*
X88348986Y-75009799D01*
X88315501Y-74948476D01*
X88320485Y-74878784D01*
X88362357Y-74822851D01*
X88423414Y-74798828D01*
X88467483Y-74794091D01*
X88602331Y-74743796D01*
X88717546Y-74657546D01*
X88803796Y-74542331D01*
X88854091Y-74407483D01*
X88860500Y-74347873D01*
X88860499Y-72652128D01*
X88854091Y-72592517D01*
X88846254Y-72571506D01*
X88803797Y-72457671D01*
X88803793Y-72457664D01*
X88717547Y-72342455D01*
X88673017Y-72309119D01*
X88631146Y-72253184D01*
X88626163Y-72183493D01*
X88659649Y-72122170D01*
X88694924Y-72097471D01*
X88696490Y-72096740D01*
X88696496Y-72096739D01*
X88902734Y-72000568D01*
X89089139Y-71870047D01*
X89250047Y-71709139D01*
X89273925Y-71675036D01*
X89328500Y-71631412D01*
X89397999Y-71624218D01*
X89460354Y-71655740D01*
X89495768Y-71715969D01*
X89499500Y-71746160D01*
X89499500Y-137375500D01*
X89479815Y-137442539D01*
X89427011Y-137488294D01*
X89375500Y-137499500D01*
X50624500Y-137499500D01*
X50557461Y-137479815D01*
X50511706Y-137427011D01*
X50500500Y-137375500D01*
X50500500Y-129544999D01*
X51994341Y-129544999D01*
X51994341Y-129545000D01*
X52014936Y-129780403D01*
X52014938Y-129780413D01*
X52076094Y-130008655D01*
X52076096Y-130008659D01*
X52076097Y-130008663D01*
X52097516Y-130054596D01*
X52175965Y-130222830D01*
X52175967Y-130222834D01*
X52311501Y-130416395D01*
X52311506Y-130416402D01*
X52478597Y-130583493D01*
X52478603Y-130583498D01*
X52664158Y-130713425D01*
X52707783Y-130768002D01*
X52714977Y-130837500D01*
X52683454Y-130899855D01*
X52664158Y-130916575D01*
X52478597Y-131046505D01*
X52311505Y-131213597D01*
X52175965Y-131407169D01*
X52175964Y-131407171D01*
X52076098Y-131621335D01*
X52076094Y-131621344D01*
X52014938Y-131849586D01*
X52014936Y-131849596D01*
X51994341Y-132084999D01*
X51994341Y-132085000D01*
X52014936Y-132320403D01*
X52014938Y-132320413D01*
X52076094Y-132548655D01*
X52076096Y-132548659D01*
X52076097Y-132548663D01*
X52140211Y-132686155D01*
X52175965Y-132762830D01*
X52175967Y-132762834D01*
X52231668Y-132842382D01*
X52311505Y-132956401D01*
X52478599Y-133123495D01*
X52478601Y-133123496D01*
X52478603Y-133123498D01*
X52518260Y-133151266D01*
X52561885Y-133205842D01*
X52569079Y-133275341D01*
X52537556Y-133337696D01*
X52477327Y-133373110D01*
X52466534Y-133375314D01*
X52374855Y-133389833D01*
X52374844Y-133389837D01*
X52261958Y-133447356D01*
X52261949Y-133447363D01*
X52172363Y-133536949D01*
X52172360Y-133536953D01*
X52114833Y-133649855D01*
X52100000Y-133743513D01*
X52100000Y-134375000D01*
X52916988Y-134375000D01*
X52884075Y-134432007D01*
X52850000Y-134559174D01*
X52850000Y-134690826D01*
X52884075Y-134817993D01*
X52916988Y-134875000D01*
X52100001Y-134875000D01*
X52100001Y-135506479D01*
X52114835Y-135600149D01*
X52114837Y-135600155D01*
X52172356Y-135713041D01*
X52172363Y-135713050D01*
X52261949Y-135802636D01*
X52261953Y-135802639D01*
X52374855Y-135860166D01*
X52468514Y-135874999D01*
X53099999Y-135874999D01*
X53100000Y-135874998D01*
X53100000Y-135058012D01*
X53157007Y-135090925D01*
X53284174Y-135125000D01*
X53415826Y-135125000D01*
X53542993Y-135090925D01*
X53600000Y-135058012D01*
X53600000Y-135874999D01*
X54231479Y-135874999D01*
X54325149Y-135860164D01*
X54325155Y-135860162D01*
X54438041Y-135802643D01*
X54438050Y-135802636D01*
X54527636Y-135713050D01*
X54527639Y-135713046D01*
X54585166Y-135600144D01*
X54600000Y-135506486D01*
X54600000Y-134875000D01*
X53783012Y-134875000D01*
X53815925Y-134817993D01*
X53850000Y-134690826D01*
X53850000Y-134559174D01*
X53815925Y-134432007D01*
X53783012Y-134375000D01*
X54599999Y-134375000D01*
X54599999Y-133743520D01*
X54585164Y-133649850D01*
X54585162Y-133649844D01*
X54527643Y-133536958D01*
X54527636Y-133536949D01*
X54438050Y-133447363D01*
X54438046Y-133447360D01*
X54325144Y-133389833D01*
X54233466Y-133375313D01*
X54170331Y-133345383D01*
X54133400Y-133286072D01*
X54134398Y-133216209D01*
X54173008Y-133157977D01*
X54181733Y-133151270D01*
X54221401Y-133123495D01*
X54388495Y-132956401D01*
X54524035Y-132762830D01*
X54623903Y-132548663D01*
X54685063Y-132320408D01*
X54705659Y-132085000D01*
X54685063Y-131849592D01*
X54623903Y-131621337D01*
X54548669Y-131459999D01*
X59734341Y-131459999D01*
X59734341Y-131460000D01*
X59754936Y-131695403D01*
X59754938Y-131695413D01*
X59816094Y-131923655D01*
X59816096Y-131923659D01*
X59816097Y-131923663D01*
X59891330Y-132085000D01*
X59915965Y-132137830D01*
X59915967Y-132137834D01*
X60024281Y-132292521D01*
X60051501Y-132331396D01*
X60051506Y-132331402D01*
X60218597Y-132498493D01*
X60218603Y-132498498D01*
X60404158Y-132628425D01*
X60447783Y-132683002D01*
X60454977Y-132752500D01*
X60423454Y-132814855D01*
X60404158Y-132831575D01*
X60218597Y-132961505D01*
X60051505Y-133128597D01*
X59915965Y-133322169D01*
X59915964Y-133322171D01*
X59816098Y-133536335D01*
X59816094Y-133536344D01*
X59754938Y-133764586D01*
X59754936Y-133764596D01*
X59734341Y-133999999D01*
X59734341Y-134000000D01*
X59754936Y-134235403D01*
X59754938Y-134235413D01*
X59816094Y-134463655D01*
X59816096Y-134463659D01*
X59816097Y-134463663D01*
X59876937Y-134594134D01*
X59915965Y-134677830D01*
X59915967Y-134677834D01*
X60014108Y-134817993D01*
X60051505Y-134871401D01*
X60218599Y-135038495D01*
X60261675Y-135068657D01*
X60412165Y-135174032D01*
X60412167Y-135174033D01*
X60412170Y-135174035D01*
X60626337Y-135273903D01*
X60854592Y-135335063D01*
X61031034Y-135350500D01*
X61089999Y-135355659D01*
X61090000Y-135355659D01*
X61090001Y-135355659D01*
X61148966Y-135350500D01*
X61325408Y-135335063D01*
X61553663Y-135273903D01*
X61767830Y-135174035D01*
X61961401Y-135038495D01*
X62128495Y-134871401D01*
X62258425Y-134685842D01*
X62313002Y-134642217D01*
X62382500Y-134635023D01*
X62444855Y-134666546D01*
X62461575Y-134685842D01*
X62591500Y-134871395D01*
X62591505Y-134871401D01*
X62758599Y-135038495D01*
X62801675Y-135068657D01*
X62952165Y-135174032D01*
X62952167Y-135174033D01*
X62952170Y-135174035D01*
X63166337Y-135273903D01*
X63394592Y-135335063D01*
X63571034Y-135350500D01*
X63629999Y-135355659D01*
X63630000Y-135355659D01*
X63630001Y-135355659D01*
X63688966Y-135350500D01*
X63865408Y-135335063D01*
X64093663Y-135273903D01*
X64307830Y-135174035D01*
X64501401Y-135038495D01*
X64668495Y-134871401D01*
X64798425Y-134685842D01*
X64853002Y-134642217D01*
X64922500Y-134635023D01*
X64984855Y-134666546D01*
X65001575Y-134685842D01*
X65131500Y-134871395D01*
X65131505Y-134871401D01*
X65298599Y-135038495D01*
X65341675Y-135068657D01*
X65492165Y-135174032D01*
X65492167Y-135174033D01*
X65492170Y-135174035D01*
X65706337Y-135273903D01*
X65934592Y-135335063D01*
X66111034Y-135350500D01*
X66169999Y-135355659D01*
X66170000Y-135355659D01*
X66170001Y-135355659D01*
X66228966Y-135350500D01*
X66405408Y-135335063D01*
X66633663Y-135273903D01*
X66847830Y-135174035D01*
X67041401Y-135038495D01*
X67208495Y-134871401D01*
X67338425Y-134685842D01*
X67393002Y-134642217D01*
X67462500Y-134635023D01*
X67524855Y-134666546D01*
X67541575Y-134685842D01*
X67671500Y-134871395D01*
X67671505Y-134871401D01*
X67838599Y-135038495D01*
X67881675Y-135068657D01*
X68032165Y-135174032D01*
X68032167Y-135174033D01*
X68032170Y-135174035D01*
X68246337Y-135273903D01*
X68474592Y-135335063D01*
X68651034Y-135350500D01*
X68709999Y-135355659D01*
X68710000Y-135355659D01*
X68710001Y-135355659D01*
X68768966Y-135350500D01*
X68945408Y-135335063D01*
X69173663Y-135273903D01*
X69387830Y-135174035D01*
X69581401Y-135038495D01*
X69748495Y-134871401D01*
X69884035Y-134677830D01*
X69923064Y-134594130D01*
X69969233Y-134541695D01*
X70036427Y-134522543D01*
X70103308Y-134542758D01*
X70147825Y-134594133D01*
X70163330Y-134627382D01*
X70163332Y-134627386D01*
X70288787Y-134806554D01*
X70443445Y-134961212D01*
X70622612Y-135086667D01*
X70820835Y-135179100D01*
X70820837Y-135179101D01*
X70850000Y-135186914D01*
X70850000Y-134307106D01*
X70942993Y-134400099D01*
X71057007Y-134465925D01*
X71184174Y-134500000D01*
X71315826Y-134500000D01*
X71442993Y-134465925D01*
X71557007Y-134400099D01*
X71650000Y-134307106D01*
X71650000Y-135186914D01*
X71679162Y-135179101D01*
X71679164Y-135179100D01*
X71877387Y-135086667D01*
X72056554Y-134961212D01*
X72211212Y-134806554D01*
X72336665Y-134627389D01*
X72352172Y-134594135D01*
X72398345Y-134541695D01*
X72465538Y-134522543D01*
X72532419Y-134542758D01*
X72576937Y-134594134D01*
X72615965Y-134677830D01*
X72615967Y-134677834D01*
X72714108Y-134817993D01*
X72751505Y-134871401D01*
X72918599Y-135038495D01*
X72961675Y-135068657D01*
X73112165Y-135174032D01*
X73112167Y-135174033D01*
X73112170Y-135174035D01*
X73326337Y-135273903D01*
X73554592Y-135335063D01*
X73731034Y-135350500D01*
X73789999Y-135355659D01*
X73790000Y-135355659D01*
X73790001Y-135355659D01*
X73848966Y-135350500D01*
X74025408Y-135335063D01*
X74253663Y-135273903D01*
X74467830Y-135174035D01*
X74661401Y-135038495D01*
X74828495Y-134871401D01*
X74958425Y-134685842D01*
X75013002Y-134642217D01*
X75082500Y-134635023D01*
X75144855Y-134666546D01*
X75161575Y-134685842D01*
X75291500Y-134871395D01*
X75291505Y-134871401D01*
X75458599Y-135038495D01*
X75501675Y-135068657D01*
X75652165Y-135174032D01*
X75652167Y-135174033D01*
X75652170Y-135174035D01*
X75866337Y-135273903D01*
X76094592Y-135335063D01*
X76271034Y-135350500D01*
X76329999Y-135355659D01*
X76330000Y-135355659D01*
X76330001Y-135355659D01*
X76388966Y-135350500D01*
X76565408Y-135335063D01*
X76793663Y-135273903D01*
X77007830Y-135174035D01*
X77201401Y-135038495D01*
X77368495Y-134871401D01*
X77368504Y-134871388D01*
X77369636Y-134870040D01*
X77370293Y-134869602D01*
X77372323Y-134867573D01*
X77372730Y-134867980D01*
X77427805Y-134831334D01*
X77497666Y-134830220D01*
X77557038Y-134867053D01*
X77582335Y-134910733D01*
X77585186Y-134919334D01*
X77677288Y-135068656D01*
X77801344Y-135192712D01*
X77950666Y-135284814D01*
X78117203Y-135339999D01*
X78219991Y-135350500D01*
X79520008Y-135350499D01*
X79622797Y-135339999D01*
X79789334Y-135284814D01*
X79938656Y-135192712D01*
X80062712Y-135068656D01*
X80154814Y-134919334D01*
X80209999Y-134752797D01*
X80220500Y-134650009D01*
X80220499Y-133349992D01*
X80209999Y-133247203D01*
X80154814Y-133080666D01*
X80062712Y-132931344D01*
X79938656Y-132807288D01*
X79845888Y-132750069D01*
X79789336Y-132715187D01*
X79789331Y-132715185D01*
X79789215Y-132715146D01*
X79780733Y-132712336D01*
X79723290Y-132672564D01*
X79696467Y-132608048D01*
X79708782Y-132539272D01*
X79737767Y-132502517D01*
X79737573Y-132502323D01*
X79739219Y-132500676D01*
X79740040Y-132499636D01*
X79741388Y-132498504D01*
X79741401Y-132498495D01*
X79908495Y-132331401D01*
X80044035Y-132137830D01*
X80143903Y-131923663D01*
X80205063Y-131695408D01*
X80225659Y-131460000D01*
X80205063Y-131224592D01*
X80143903Y-130996337D01*
X80044035Y-130782171D01*
X80038425Y-130774158D01*
X79908494Y-130588597D01*
X79741402Y-130421506D01*
X79741395Y-130421501D01*
X79553592Y-130289999D01*
X86144341Y-130289999D01*
X86144341Y-130290000D01*
X86164936Y-130525403D01*
X86164938Y-130525413D01*
X86226094Y-130753655D01*
X86226096Y-130753659D01*
X86226097Y-130753663D01*
X86278419Y-130865867D01*
X86325965Y-130967830D01*
X86325967Y-130967834D01*
X86461501Y-131161395D01*
X86461506Y-131161402D01*
X86628597Y-131328493D01*
X86628603Y-131328498D01*
X86814158Y-131458425D01*
X86857783Y-131513002D01*
X86864977Y-131582500D01*
X86833454Y-131644855D01*
X86814158Y-131661575D01*
X86628597Y-131791505D01*
X86461505Y-131958597D01*
X86325965Y-132152169D01*
X86325964Y-132152171D01*
X86226098Y-132366335D01*
X86226094Y-132366344D01*
X86164938Y-132594586D01*
X86164936Y-132594596D01*
X86144341Y-132829999D01*
X86144341Y-132830000D01*
X86164936Y-133065403D01*
X86164938Y-133065413D01*
X86226094Y-133293655D01*
X86226096Y-133293659D01*
X86226097Y-133293663D01*
X86297767Y-133447360D01*
X86325965Y-133507830D01*
X86325967Y-133507834D01*
X86390434Y-133599901D01*
X86461505Y-133701401D01*
X86628599Y-133868495D01*
X86722398Y-133934174D01*
X86822165Y-134004032D01*
X86822167Y-134004033D01*
X86822170Y-134004035D01*
X87036337Y-134103903D01*
X87264592Y-134165063D01*
X87452918Y-134181539D01*
X87499999Y-134185659D01*
X87500000Y-134185659D01*
X87500001Y-134185659D01*
X87539234Y-134182226D01*
X87735408Y-134165063D01*
X87963663Y-134103903D01*
X88177830Y-134004035D01*
X88371401Y-133868495D01*
X88538495Y-133701401D01*
X88674035Y-133507830D01*
X88773903Y-133293663D01*
X88835063Y-133065408D01*
X88855659Y-132830000D01*
X88852847Y-132797865D01*
X88845614Y-132715184D01*
X88835063Y-132594592D01*
X88773903Y-132366337D01*
X88674035Y-132152171D01*
X88669604Y-132145842D01*
X88538494Y-131958597D01*
X88371402Y-131791506D01*
X88371396Y-131791501D01*
X88185842Y-131661575D01*
X88142217Y-131606998D01*
X88135023Y-131537500D01*
X88166546Y-131475145D01*
X88185842Y-131458425D01*
X88259043Y-131407169D01*
X88371401Y-131328495D01*
X88538495Y-131161401D01*
X88674035Y-130967830D01*
X88773903Y-130753663D01*
X88835063Y-130525408D01*
X88855659Y-130290000D01*
X88854862Y-130280896D01*
X88849782Y-130222830D01*
X88835063Y-130054592D01*
X88773903Y-129826337D01*
X88674035Y-129612171D01*
X88538495Y-129418599D01*
X88416567Y-129296671D01*
X88383084Y-129235351D01*
X88388068Y-129165659D01*
X88429939Y-129109725D01*
X88460915Y-129092810D01*
X88592331Y-129043796D01*
X88707546Y-128957546D01*
X88793796Y-128842331D01*
X88844091Y-128707483D01*
X88850500Y-128647873D01*
X88850499Y-126852128D01*
X88844091Y-126792517D01*
X88793796Y-126657669D01*
X88793795Y-126657668D01*
X88793793Y-126657664D01*
X88707547Y-126542455D01*
X88707544Y-126542452D01*
X88592335Y-126456206D01*
X88592328Y-126456202D01*
X88457482Y-126405908D01*
X88457483Y-126405908D01*
X88397883Y-126399501D01*
X88397881Y-126399500D01*
X88397873Y-126399500D01*
X88397864Y-126399500D01*
X86602129Y-126399500D01*
X86602123Y-126399501D01*
X86542516Y-126405908D01*
X86407671Y-126456202D01*
X86407664Y-126456206D01*
X86292455Y-126542452D01*
X86292452Y-126542455D01*
X86206206Y-126657664D01*
X86206202Y-126657671D01*
X86155908Y-126792517D01*
X86149501Y-126852116D01*
X86149501Y-126852123D01*
X86149500Y-126852135D01*
X86149500Y-128647870D01*
X86149501Y-128647876D01*
X86155908Y-128707483D01*
X86206202Y-128842328D01*
X86206206Y-128842335D01*
X86292452Y-128957544D01*
X86292455Y-128957547D01*
X86407664Y-129043793D01*
X86407671Y-129043797D01*
X86539081Y-129092810D01*
X86595015Y-129134681D01*
X86619432Y-129200145D01*
X86604580Y-129268418D01*
X86583430Y-129296673D01*
X86461503Y-129418600D01*
X86325965Y-129612169D01*
X86325964Y-129612171D01*
X86226098Y-129826335D01*
X86226094Y-129826344D01*
X86164938Y-130054586D01*
X86164936Y-130054596D01*
X86144341Y-130289999D01*
X79553592Y-130289999D01*
X79547834Y-130285967D01*
X79547830Y-130285965D01*
X79547828Y-130285964D01*
X79333663Y-130186097D01*
X79333659Y-130186096D01*
X79333655Y-130186094D01*
X79105413Y-130124938D01*
X79105403Y-130124936D01*
X78870001Y-130104341D01*
X78869999Y-130104341D01*
X78634596Y-130124936D01*
X78634586Y-130124938D01*
X78406344Y-130186094D01*
X78406335Y-130186098D01*
X78192171Y-130285964D01*
X78192169Y-130285965D01*
X77998597Y-130421505D01*
X77831505Y-130588597D01*
X77701575Y-130774158D01*
X77646998Y-130817783D01*
X77577500Y-130824977D01*
X77515145Y-130793454D01*
X77498425Y-130774158D01*
X77368494Y-130588597D01*
X77201402Y-130421506D01*
X77201395Y-130421501D01*
X77007834Y-130285967D01*
X77007830Y-130285965D01*
X77007828Y-130285964D01*
X76793663Y-130186097D01*
X76793659Y-130186096D01*
X76793655Y-130186094D01*
X76565413Y-130124938D01*
X76565403Y-130124936D01*
X76330001Y-130104341D01*
X76329999Y-130104341D01*
X76094596Y-130124936D01*
X76094586Y-130124938D01*
X75866344Y-130186094D01*
X75866335Y-130186098D01*
X75652171Y-130285964D01*
X75652169Y-130285965D01*
X75458597Y-130421505D01*
X75291505Y-130588597D01*
X75161575Y-130774158D01*
X75106998Y-130817783D01*
X75037500Y-130824977D01*
X74975145Y-130793454D01*
X74958425Y-130774158D01*
X74828494Y-130588597D01*
X74661402Y-130421506D01*
X74661395Y-130421501D01*
X74467834Y-130285967D01*
X74467830Y-130285965D01*
X74467828Y-130285964D01*
X74253663Y-130186097D01*
X74253659Y-130186096D01*
X74253655Y-130186094D01*
X74025413Y-130124938D01*
X74025403Y-130124936D01*
X73790001Y-130104341D01*
X73789999Y-130104341D01*
X73554596Y-130124936D01*
X73554586Y-130124938D01*
X73326344Y-130186094D01*
X73326335Y-130186098D01*
X73112171Y-130285964D01*
X73112169Y-130285965D01*
X72918597Y-130421505D01*
X72751505Y-130588597D01*
X72615966Y-130782168D01*
X72576936Y-130865867D01*
X72530763Y-130918306D01*
X72463569Y-130937457D01*
X72396688Y-130917241D01*
X72352171Y-130865864D01*
X72336665Y-130832611D01*
X72336664Y-130832608D01*
X72211216Y-130653450D01*
X72211211Y-130653444D01*
X72056554Y-130498787D01*
X71877387Y-130373333D01*
X71679157Y-130280896D01*
X71650000Y-130273083D01*
X71650000Y-131152894D01*
X71557007Y-131059901D01*
X71442993Y-130994075D01*
X71315826Y-130960000D01*
X71184174Y-130960000D01*
X71057007Y-130994075D01*
X70942993Y-131059901D01*
X70850000Y-131152894D01*
X70850000Y-130273084D01*
X70849999Y-130273083D01*
X70820842Y-130280896D01*
X70622612Y-130373333D01*
X70622608Y-130373335D01*
X70443450Y-130498783D01*
X70443444Y-130498788D01*
X70288788Y-130653444D01*
X70288783Y-130653450D01*
X70163335Y-130832608D01*
X70163333Y-130832612D01*
X70147827Y-130865866D01*
X70101654Y-130918305D01*
X70034461Y-130937457D01*
X69967580Y-130917241D01*
X69923063Y-130865866D01*
X69884035Y-130782171D01*
X69884034Y-130782169D01*
X69748494Y-130588597D01*
X69581402Y-130421506D01*
X69581395Y-130421501D01*
X69387834Y-130285967D01*
X69387830Y-130285965D01*
X69387828Y-130285964D01*
X69173663Y-130186097D01*
X69173659Y-130186096D01*
X69173655Y-130186094D01*
X68945413Y-130124938D01*
X68945403Y-130124936D01*
X68710001Y-130104341D01*
X68709999Y-130104341D01*
X68474596Y-130124936D01*
X68474586Y-130124938D01*
X68246344Y-130186094D01*
X68246335Y-130186098D01*
X68032171Y-130285964D01*
X68032169Y-130285965D01*
X67838597Y-130421505D01*
X67671505Y-130588597D01*
X67541575Y-130774158D01*
X67486998Y-130817783D01*
X67417500Y-130824977D01*
X67355145Y-130793454D01*
X67338425Y-130774158D01*
X67208494Y-130588597D01*
X67041402Y-130421506D01*
X67041395Y-130421501D01*
X66847834Y-130285967D01*
X66847830Y-130285965D01*
X66847828Y-130285964D01*
X66633663Y-130186097D01*
X66633659Y-130186096D01*
X66633655Y-130186094D01*
X66405413Y-130124938D01*
X66405403Y-130124936D01*
X66170001Y-130104341D01*
X66169999Y-130104341D01*
X65934596Y-130124936D01*
X65934586Y-130124938D01*
X65706344Y-130186094D01*
X65706335Y-130186098D01*
X65492171Y-130285964D01*
X65492169Y-130285965D01*
X65298597Y-130421505D01*
X65131505Y-130588597D01*
X65001575Y-130774158D01*
X64946998Y-130817783D01*
X64877500Y-130824977D01*
X64815145Y-130793454D01*
X64798425Y-130774158D01*
X64668494Y-130588597D01*
X64501402Y-130421506D01*
X64501395Y-130421501D01*
X64307834Y-130285967D01*
X64307830Y-130285965D01*
X64307828Y-130285964D01*
X64093663Y-130186097D01*
X64093659Y-130186096D01*
X64093655Y-130186094D01*
X63865413Y-130124938D01*
X63865403Y-130124936D01*
X63630001Y-130104341D01*
X63629999Y-130104341D01*
X63394596Y-130124936D01*
X63394586Y-130124938D01*
X63166344Y-130186094D01*
X63166335Y-130186098D01*
X62952171Y-130285964D01*
X62952169Y-130285965D01*
X62758597Y-130421505D01*
X62591505Y-130588597D01*
X62461575Y-130774158D01*
X62406998Y-130817783D01*
X62337500Y-130824977D01*
X62275145Y-130793454D01*
X62258425Y-130774158D01*
X62128494Y-130588597D01*
X61961402Y-130421506D01*
X61961395Y-130421501D01*
X61767834Y-130285967D01*
X61767830Y-130285965D01*
X61767828Y-130285964D01*
X61553663Y-130186097D01*
X61553659Y-130186096D01*
X61553655Y-130186094D01*
X61325413Y-130124938D01*
X61325403Y-130124936D01*
X61090001Y-130104341D01*
X61089999Y-130104341D01*
X60854596Y-130124936D01*
X60854586Y-130124938D01*
X60626344Y-130186094D01*
X60626335Y-130186098D01*
X60412171Y-130285964D01*
X60412169Y-130285965D01*
X60218597Y-130421505D01*
X60051505Y-130588597D01*
X59915965Y-130782169D01*
X59915964Y-130782171D01*
X59816098Y-130996335D01*
X59816094Y-130996344D01*
X59754938Y-131224586D01*
X59754936Y-131224596D01*
X59734341Y-131459999D01*
X54548669Y-131459999D01*
X54524035Y-131407171D01*
X54514935Y-131394174D01*
X54388494Y-131213597D01*
X54221402Y-131046506D01*
X54221396Y-131046501D01*
X54035842Y-130916575D01*
X53992217Y-130861998D01*
X53985023Y-130792500D01*
X54016546Y-130730145D01*
X54035842Y-130713425D01*
X54121495Y-130653450D01*
X54221401Y-130583495D01*
X54388495Y-130416401D01*
X54524035Y-130222830D01*
X54623903Y-130008663D01*
X54685063Y-129780408D01*
X54705659Y-129545000D01*
X54685063Y-129309592D01*
X54633181Y-129115965D01*
X54623905Y-129081344D01*
X54623904Y-129081343D01*
X54623903Y-129081337D01*
X54524035Y-128867171D01*
X54388495Y-128673599D01*
X54388494Y-128673597D01*
X54221402Y-128506506D01*
X54221395Y-128506501D01*
X54027834Y-128370967D01*
X54027830Y-128370965D01*
X54027828Y-128370964D01*
X53813663Y-128271097D01*
X53813659Y-128271096D01*
X53813655Y-128271094D01*
X53585413Y-128209938D01*
X53585403Y-128209936D01*
X53350001Y-128189341D01*
X53349999Y-128189341D01*
X53114596Y-128209936D01*
X53114586Y-128209938D01*
X52886344Y-128271094D01*
X52886335Y-128271098D01*
X52672171Y-128370964D01*
X52672169Y-128370965D01*
X52478597Y-128506505D01*
X52311505Y-128673597D01*
X52175965Y-128867169D01*
X52175964Y-128867171D01*
X52076098Y-129081335D01*
X52076094Y-129081344D01*
X52014938Y-129309586D01*
X52014936Y-129309596D01*
X51994341Y-129544999D01*
X50500500Y-129544999D01*
X50500500Y-126305000D01*
X76844551Y-126305000D01*
X76864317Y-126556151D01*
X76923126Y-126801110D01*
X77019533Y-127033859D01*
X77151160Y-127248653D01*
X77151161Y-127248656D01*
X77151164Y-127248659D01*
X77314776Y-127440224D01*
X77463066Y-127566875D01*
X77506343Y-127603838D01*
X77506346Y-127603839D01*
X77721140Y-127735466D01*
X77953889Y-127831873D01*
X78198852Y-127890683D01*
X78450000Y-127910449D01*
X78701148Y-127890683D01*
X78946111Y-127831873D01*
X79178859Y-127735466D01*
X79393659Y-127603836D01*
X79585224Y-127440224D01*
X79748836Y-127248659D01*
X79880466Y-127033859D01*
X79976873Y-126801111D01*
X80035683Y-126556148D01*
X80055449Y-126305000D01*
X80035683Y-126053852D01*
X79976873Y-125808889D01*
X79880466Y-125576141D01*
X79880466Y-125576140D01*
X79748839Y-125361346D01*
X79748838Y-125361343D01*
X79678338Y-125278799D01*
X79585224Y-125169776D01*
X79458571Y-125061604D01*
X79393656Y-125006161D01*
X79393653Y-125006160D01*
X79178859Y-124874533D01*
X78946110Y-124778126D01*
X78701151Y-124719317D01*
X78450000Y-124699551D01*
X78198848Y-124719317D01*
X77953889Y-124778126D01*
X77721140Y-124874533D01*
X77506346Y-125006160D01*
X77506343Y-125006161D01*
X77314776Y-125169776D01*
X77151161Y-125361343D01*
X77151160Y-125361346D01*
X77019533Y-125576140D01*
X76923126Y-125808889D01*
X76864317Y-126053848D01*
X76844551Y-126305000D01*
X50500500Y-126305000D01*
X50500500Y-118499635D01*
X53999500Y-118499635D01*
X53999500Y-120500370D01*
X53999501Y-120500376D01*
X54005908Y-120559983D01*
X54056202Y-120694828D01*
X54056206Y-120694835D01*
X54142452Y-120810044D01*
X54142455Y-120810047D01*
X54257664Y-120896293D01*
X54257671Y-120896297D01*
X54387023Y-120944542D01*
X54442957Y-120986413D01*
X54467374Y-121051877D01*
X54452523Y-121120150D01*
X54431374Y-121148402D01*
X54420875Y-121158901D01*
X54420873Y-121158904D01*
X54295738Y-121331135D01*
X54199087Y-121520822D01*
X54133303Y-121723284D01*
X54133303Y-121723287D01*
X54122737Y-121790000D01*
X55009252Y-121790000D01*
X54987482Y-121827708D01*
X54950000Y-121967591D01*
X54950000Y-122112409D01*
X54987482Y-122252292D01*
X55009252Y-122290000D01*
X54122737Y-122290000D01*
X54133303Y-122356712D01*
X54133303Y-122356715D01*
X54199087Y-122559177D01*
X54295738Y-122748864D01*
X54420873Y-122921095D01*
X54420873Y-122921096D01*
X54571404Y-123071627D01*
X54675928Y-123147569D01*
X54718593Y-123202900D01*
X54724572Y-123272513D01*
X54691966Y-123334308D01*
X54675928Y-123348205D01*
X54505932Y-123471715D01*
X54344216Y-123633431D01*
X54344216Y-123633432D01*
X54344214Y-123633434D01*
X54290820Y-123706924D01*
X54209783Y-123818461D01*
X54105950Y-124022244D01*
X54035278Y-124239750D01*
X54035278Y-124239753D01*
X54035278Y-124239755D01*
X53999500Y-124465646D01*
X53999500Y-124694354D01*
X54017389Y-124807299D01*
X54035278Y-124920246D01*
X54035278Y-124920249D01*
X54105950Y-125137755D01*
X54105952Y-125137758D01*
X54209783Y-125341538D01*
X54344214Y-125526566D01*
X54505934Y-125688286D01*
X54690962Y-125822717D01*
X54894742Y-125926548D01*
X54894744Y-125926549D01*
X55112251Y-125997221D01*
X55112252Y-125997221D01*
X55112255Y-125997222D01*
X55338146Y-126033000D01*
X55338147Y-126033000D01*
X55661853Y-126033000D01*
X55661854Y-126033000D01*
X55887745Y-125997222D01*
X55887748Y-125997221D01*
X55887749Y-125997221D01*
X56105255Y-125926549D01*
X56105255Y-125926548D01*
X56105258Y-125926548D01*
X56309038Y-125822717D01*
X56494066Y-125688286D01*
X56655786Y-125526566D01*
X56790217Y-125341538D01*
X56894048Y-125137758D01*
X56894049Y-125137755D01*
X56964721Y-124920249D01*
X56964721Y-124920248D01*
X56964722Y-124920245D01*
X57000500Y-124694354D01*
X57000500Y-124465646D01*
X56964722Y-124239755D01*
X56964721Y-124239751D01*
X56964721Y-124239750D01*
X56951805Y-124199999D01*
X80669859Y-124199999D01*
X80669859Y-124200000D01*
X80690378Y-124421439D01*
X80751240Y-124635350D01*
X80850364Y-124834419D01*
X80850366Y-124834421D01*
X80866138Y-124855306D01*
X81475000Y-124246445D01*
X81475000Y-124252661D01*
X81502259Y-124354394D01*
X81554920Y-124445606D01*
X81629394Y-124520080D01*
X81720606Y-124572741D01*
X81822339Y-124600000D01*
X81828554Y-124600000D01*
X81221671Y-125206880D01*
X81337823Y-125278798D01*
X81337824Y-125278799D01*
X81545195Y-125359134D01*
X81763807Y-125400000D01*
X81986193Y-125400000D01*
X82204804Y-125359134D01*
X82412177Y-125278798D01*
X82412178Y-125278797D01*
X82528327Y-125206880D01*
X81921447Y-124600000D01*
X81927661Y-124600000D01*
X82029394Y-124572741D01*
X82120606Y-124520080D01*
X82195080Y-124445606D01*
X82247741Y-124354394D01*
X82275000Y-124252661D01*
X82275000Y-124246446D01*
X82883860Y-124855306D01*
X82883861Y-124855306D01*
X82899631Y-124834425D01*
X82899632Y-124834422D01*
X82998759Y-124635350D01*
X83059621Y-124421439D01*
X83080141Y-124200000D01*
X83080141Y-124199999D01*
X83059621Y-123978560D01*
X82998759Y-123764649D01*
X82899633Y-123565577D01*
X82899631Y-123565574D01*
X82883860Y-123544691D01*
X82275000Y-124153552D01*
X82275000Y-124147339D01*
X82247741Y-124045606D01*
X82195080Y-123954394D01*
X82120606Y-123879920D01*
X82029394Y-123827259D01*
X81927661Y-123800000D01*
X81921447Y-123800000D01*
X82528327Y-123193118D01*
X82528326Y-123193117D01*
X82412181Y-123121203D01*
X82412175Y-123121200D01*
X82204804Y-123040865D01*
X81986193Y-123000000D01*
X81763807Y-123000000D01*
X81545195Y-123040865D01*
X81337824Y-123121200D01*
X81337818Y-123121204D01*
X81221672Y-123193117D01*
X81221671Y-123193118D01*
X81828554Y-123800000D01*
X81822339Y-123800000D01*
X81720606Y-123827259D01*
X81629394Y-123879920D01*
X81554920Y-123954394D01*
X81502259Y-124045606D01*
X81475000Y-124147339D01*
X81475000Y-124153553D01*
X80866138Y-123544691D01*
X80866137Y-123544691D01*
X80850369Y-123565571D01*
X80751240Y-123764649D01*
X80690378Y-123978560D01*
X80669859Y-124199999D01*
X56951805Y-124199999D01*
X56894049Y-124022244D01*
X56821531Y-123879920D01*
X56790217Y-123818462D01*
X56655786Y-123633434D01*
X56494066Y-123471714D01*
X56324071Y-123348205D01*
X56281406Y-123292875D01*
X56275427Y-123223261D01*
X56308033Y-123161466D01*
X56324071Y-123147569D01*
X56428596Y-123071626D01*
X56579126Y-122921096D01*
X56579126Y-122921095D01*
X56704261Y-122748864D01*
X56800912Y-122559177D01*
X56866696Y-122356715D01*
X56866696Y-122356712D01*
X56877263Y-122290000D01*
X55990748Y-122290000D01*
X56012518Y-122252292D01*
X56050000Y-122112409D01*
X56050000Y-121967591D01*
X56034266Y-121908872D01*
X70159500Y-121908872D01*
X70159500Y-122171127D01*
X70178766Y-122317455D01*
X70193730Y-122431116D01*
X70246253Y-122627135D01*
X70261602Y-122684418D01*
X70261605Y-122684428D01*
X70361953Y-122926690D01*
X70361958Y-122926700D01*
X70493075Y-123153803D01*
X70652718Y-123361851D01*
X70652726Y-123361860D01*
X70838140Y-123547274D01*
X70838148Y-123547281D01*
X70838149Y-123547282D01*
X70861991Y-123565577D01*
X71046196Y-123706924D01*
X71273299Y-123838041D01*
X71273309Y-123838046D01*
X71515571Y-123938394D01*
X71515581Y-123938398D01*
X71768884Y-124006270D01*
X72028880Y-124040500D01*
X72028887Y-124040500D01*
X72291113Y-124040500D01*
X72291120Y-124040500D01*
X72551116Y-124006270D01*
X72804419Y-123938398D01*
X72981340Y-123865114D01*
X73046690Y-123838046D01*
X73046691Y-123838045D01*
X73046697Y-123838043D01*
X73273803Y-123706924D01*
X73481851Y-123547282D01*
X73481855Y-123547277D01*
X73481860Y-123547274D01*
X73667274Y-123361860D01*
X73667277Y-123361855D01*
X73667282Y-123361851D01*
X73826924Y-123153803D01*
X73958043Y-122926697D01*
X73960364Y-122921095D01*
X74058394Y-122684428D01*
X74058398Y-122684419D01*
X74126270Y-122431116D01*
X74160500Y-122171120D01*
X74160500Y-121908880D01*
X74126270Y-121648884D01*
X74058398Y-121395581D01*
X73985837Y-121220403D01*
X73958046Y-121153309D01*
X73958041Y-121153299D01*
X73860874Y-120984999D01*
X86144341Y-120984999D01*
X86144341Y-120985000D01*
X86164936Y-121220403D01*
X86164938Y-121220413D01*
X86226094Y-121448655D01*
X86226096Y-121448659D01*
X86226097Y-121448663D01*
X86262851Y-121527482D01*
X86325965Y-121662830D01*
X86325967Y-121662834D01*
X86368295Y-121723284D01*
X86461501Y-121856396D01*
X86461506Y-121856402D01*
X86583430Y-121978326D01*
X86616915Y-122039649D01*
X86611931Y-122109341D01*
X86570059Y-122165274D01*
X86539083Y-122182189D01*
X86407669Y-122231203D01*
X86407664Y-122231206D01*
X86292455Y-122317452D01*
X86292452Y-122317455D01*
X86206206Y-122432664D01*
X86206202Y-122432671D01*
X86155908Y-122567517D01*
X86149501Y-122627116D01*
X86149501Y-122627123D01*
X86149500Y-122627135D01*
X86149500Y-124422870D01*
X86149501Y-124422876D01*
X86155908Y-124482483D01*
X86206202Y-124617328D01*
X86206206Y-124617335D01*
X86292452Y-124732544D01*
X86292455Y-124732547D01*
X86407664Y-124818793D01*
X86407671Y-124818797D01*
X86542517Y-124869091D01*
X86542516Y-124869091D01*
X86549444Y-124869835D01*
X86602127Y-124875500D01*
X88397872Y-124875499D01*
X88457483Y-124869091D01*
X88592331Y-124818796D01*
X88707546Y-124732546D01*
X88793796Y-124617331D01*
X88844091Y-124482483D01*
X88850500Y-124422873D01*
X88850499Y-122627128D01*
X88844091Y-122567517D01*
X88840980Y-122559177D01*
X88793797Y-122432671D01*
X88793793Y-122432664D01*
X88707547Y-122317455D01*
X88707544Y-122317452D01*
X88592335Y-122231206D01*
X88592328Y-122231202D01*
X88460917Y-122182189D01*
X88404983Y-122140318D01*
X88380566Y-122074853D01*
X88395418Y-122006580D01*
X88416563Y-121978332D01*
X88538495Y-121856401D01*
X88674035Y-121662830D01*
X88773903Y-121448663D01*
X88835063Y-121220408D01*
X88855659Y-120985000D01*
X88835063Y-120749592D01*
X88776955Y-120532726D01*
X88773905Y-120521344D01*
X88773904Y-120521343D01*
X88773903Y-120521337D01*
X88674035Y-120307171D01*
X88599027Y-120200047D01*
X88538494Y-120113597D01*
X88371402Y-119946506D01*
X88371395Y-119946501D01*
X88177834Y-119810967D01*
X88177830Y-119810965D01*
X88177828Y-119810964D01*
X87963663Y-119711097D01*
X87963659Y-119711096D01*
X87963655Y-119711094D01*
X87735413Y-119649938D01*
X87735403Y-119649936D01*
X87500001Y-119629341D01*
X87499999Y-119629341D01*
X87264596Y-119649936D01*
X87264586Y-119649938D01*
X87036344Y-119711094D01*
X87036335Y-119711098D01*
X86822171Y-119810964D01*
X86822169Y-119810965D01*
X86628597Y-119946505D01*
X86461505Y-120113597D01*
X86325965Y-120307169D01*
X86325964Y-120307171D01*
X86226098Y-120521335D01*
X86226094Y-120521344D01*
X86164938Y-120749586D01*
X86164936Y-120749596D01*
X86144341Y-120984999D01*
X73860874Y-120984999D01*
X73826924Y-120926196D01*
X73667281Y-120718148D01*
X73667274Y-120718140D01*
X73481860Y-120532726D01*
X73481851Y-120532718D01*
X73273803Y-120373075D01*
X73046700Y-120241958D01*
X73046690Y-120241953D01*
X72804428Y-120141605D01*
X72804421Y-120141603D01*
X72804419Y-120141602D01*
X72551116Y-120073730D01*
X72493339Y-120066123D01*
X72291127Y-120039500D01*
X72291120Y-120039500D01*
X72028880Y-120039500D01*
X72028872Y-120039500D01*
X71797772Y-120069926D01*
X71768884Y-120073730D01*
X71515581Y-120141602D01*
X71515571Y-120141605D01*
X71273309Y-120241953D01*
X71273299Y-120241958D01*
X71046196Y-120373075D01*
X70838148Y-120532718D01*
X70652718Y-120718148D01*
X70493075Y-120926196D01*
X70361958Y-121153299D01*
X70361953Y-121153309D01*
X70261605Y-121395571D01*
X70261602Y-121395581D01*
X70226260Y-121527482D01*
X70193730Y-121648885D01*
X70159500Y-121908872D01*
X56034266Y-121908872D01*
X56012518Y-121827708D01*
X55990748Y-121790000D01*
X56877263Y-121790000D01*
X56866696Y-121723287D01*
X56866696Y-121723284D01*
X56800912Y-121520822D01*
X56704261Y-121331135D01*
X56579126Y-121158904D01*
X56579126Y-121158903D01*
X56568628Y-121148405D01*
X56535143Y-121087082D01*
X56540127Y-121017390D01*
X56581999Y-120961457D01*
X56612974Y-120944542D01*
X56742331Y-120896296D01*
X56857546Y-120810046D01*
X56943796Y-120694831D01*
X56994091Y-120559983D01*
X57000500Y-120500373D01*
X57000499Y-119199998D01*
X80569532Y-119199998D01*
X80569532Y-119200001D01*
X80589364Y-119426686D01*
X80589366Y-119426697D01*
X80648258Y-119646488D01*
X80648261Y-119646497D01*
X80744431Y-119852732D01*
X80744432Y-119852734D01*
X80874954Y-120039141D01*
X81035858Y-120200045D01*
X81035861Y-120200047D01*
X81222266Y-120330568D01*
X81428504Y-120426739D01*
X81648308Y-120485635D01*
X81810230Y-120499801D01*
X81874998Y-120505468D01*
X81875000Y-120505468D01*
X81875002Y-120505468D01*
X81933339Y-120500364D01*
X82101692Y-120485635D01*
X82321496Y-120426739D01*
X82527734Y-120330568D01*
X82714139Y-120200047D01*
X82875047Y-120039139D01*
X83005568Y-119852734D01*
X83101739Y-119646496D01*
X83160635Y-119426692D01*
X83180468Y-119200000D01*
X83160635Y-118973308D01*
X83101739Y-118753504D01*
X83005568Y-118547266D01*
X82875047Y-118360861D01*
X82875045Y-118360858D01*
X82714141Y-118199954D01*
X82527734Y-118069432D01*
X82527732Y-118069431D01*
X82321497Y-117973261D01*
X82321488Y-117973258D01*
X82101697Y-117914366D01*
X82101693Y-117914365D01*
X82101692Y-117914365D01*
X82101691Y-117914364D01*
X82101686Y-117914364D01*
X81875002Y-117894532D01*
X81874998Y-117894532D01*
X81648313Y-117914364D01*
X81648302Y-117914366D01*
X81428511Y-117973258D01*
X81428502Y-117973261D01*
X81222267Y-118069431D01*
X81222265Y-118069432D01*
X81035858Y-118199954D01*
X80874954Y-118360858D01*
X80744432Y-118547265D01*
X80744431Y-118547267D01*
X80648261Y-118753502D01*
X80648258Y-118753511D01*
X80589366Y-118973302D01*
X80589364Y-118973313D01*
X80569532Y-119199998D01*
X57000499Y-119199998D01*
X57000499Y-118499628D01*
X56994091Y-118440017D01*
X56943796Y-118305169D01*
X56943795Y-118305168D01*
X56943793Y-118305164D01*
X56857547Y-118189955D01*
X56857544Y-118189952D01*
X56742335Y-118103706D01*
X56742328Y-118103702D01*
X56607482Y-118053408D01*
X56607483Y-118053408D01*
X56547883Y-118047001D01*
X56547881Y-118047000D01*
X56547873Y-118047000D01*
X56547864Y-118047000D01*
X54452129Y-118047000D01*
X54452123Y-118047001D01*
X54392516Y-118053408D01*
X54257671Y-118103702D01*
X54257664Y-118103706D01*
X54142455Y-118189952D01*
X54142452Y-118189955D01*
X54056206Y-118305164D01*
X54056202Y-118305171D01*
X54005908Y-118440017D01*
X53999501Y-118499616D01*
X53999501Y-118499623D01*
X53999500Y-118499635D01*
X50500500Y-118499635D01*
X50500500Y-114997135D01*
X76849500Y-114997135D01*
X76849500Y-117292870D01*
X76849501Y-117292876D01*
X76855908Y-117352483D01*
X76906202Y-117487328D01*
X76906206Y-117487335D01*
X76992452Y-117602544D01*
X76992455Y-117602547D01*
X77107664Y-117688793D01*
X77107671Y-117688797D01*
X77242517Y-117739091D01*
X77242516Y-117739091D01*
X77249444Y-117739835D01*
X77302127Y-117745500D01*
X79597872Y-117745499D01*
X79657483Y-117739091D01*
X79792331Y-117688796D01*
X79907546Y-117602546D01*
X79993796Y-117487331D01*
X80044091Y-117352483D01*
X80050500Y-117292873D01*
X80050499Y-114997128D01*
X80044091Y-114937517D01*
X79993796Y-114802669D01*
X79993795Y-114802668D01*
X79993793Y-114802664D01*
X79907547Y-114687455D01*
X79907544Y-114687452D01*
X79792335Y-114601206D01*
X79792328Y-114601202D01*
X79657482Y-114550908D01*
X79657483Y-114550908D01*
X79597883Y-114544501D01*
X79597881Y-114544500D01*
X79597873Y-114544500D01*
X79597864Y-114544500D01*
X77302129Y-114544500D01*
X77302123Y-114544501D01*
X77242516Y-114550908D01*
X77107671Y-114601202D01*
X77107664Y-114601206D01*
X76992455Y-114687452D01*
X76992452Y-114687455D01*
X76906206Y-114802664D01*
X76906202Y-114802671D01*
X76855908Y-114937517D01*
X76849501Y-114997116D01*
X76849501Y-114997123D01*
X76849500Y-114997135D01*
X50500500Y-114997135D01*
X50500500Y-111374038D01*
X56899500Y-111374038D01*
X56899500Y-111625962D01*
X56938910Y-111874785D01*
X57016760Y-112114383D01*
X57131132Y-112338848D01*
X57279201Y-112542649D01*
X57279205Y-112542654D01*
X57457345Y-112720794D01*
X57457350Y-112720798D01*
X57635117Y-112849952D01*
X57661155Y-112868870D01*
X57804184Y-112941747D01*
X57885616Y-112983239D01*
X57885618Y-112983239D01*
X57885621Y-112983241D01*
X58125215Y-113061090D01*
X58374038Y-113100500D01*
X58374039Y-113100500D01*
X58625961Y-113100500D01*
X58625962Y-113100500D01*
X58874785Y-113061090D01*
X59114379Y-112983241D01*
X59338845Y-112868870D01*
X59542656Y-112720793D01*
X59720793Y-112542656D01*
X59868870Y-112338845D01*
X59983241Y-112114379D01*
X60061090Y-111874785D01*
X60100500Y-111625962D01*
X60100500Y-111374038D01*
X60061090Y-111125215D01*
X59983241Y-110885621D01*
X59983239Y-110885618D01*
X59983239Y-110885616D01*
X59940971Y-110802661D01*
X59868870Y-110661155D01*
X59821246Y-110595606D01*
X59720798Y-110457350D01*
X59720794Y-110457345D01*
X59542654Y-110279205D01*
X59542649Y-110279201D01*
X59338848Y-110131132D01*
X59338847Y-110131131D01*
X59338845Y-110131130D01*
X59258062Y-110089969D01*
X59114383Y-110016760D01*
X58874785Y-109938910D01*
X58642599Y-109902135D01*
X63449500Y-109902135D01*
X63449500Y-111597870D01*
X63449501Y-111597876D01*
X63455908Y-111657483D01*
X63506202Y-111792328D01*
X63506206Y-111792335D01*
X63592452Y-111907544D01*
X63592455Y-111907547D01*
X63707664Y-111993793D01*
X63707671Y-111993797D01*
X63842517Y-112044091D01*
X63842516Y-112044091D01*
X63849444Y-112044835D01*
X63902127Y-112050500D01*
X65597872Y-112050499D01*
X65657483Y-112044091D01*
X65792331Y-111993796D01*
X65907546Y-111907546D01*
X65993796Y-111792331D01*
X66044091Y-111657483D01*
X66050500Y-111597873D01*
X66050499Y-111522822D01*
X66070183Y-111455786D01*
X66122986Y-111410030D01*
X66192144Y-111400086D01*
X66196847Y-111402233D01*
X66241137Y-111405307D01*
X66850000Y-110796445D01*
X66850000Y-110802661D01*
X66877259Y-110904394D01*
X66929920Y-110995606D01*
X67004394Y-111070080D01*
X67095606Y-111122741D01*
X67197339Y-111150000D01*
X67203554Y-111150000D01*
X66596671Y-111756880D01*
X66712823Y-111828798D01*
X66712824Y-111828799D01*
X66920195Y-111909134D01*
X67138807Y-111950000D01*
X67361193Y-111950000D01*
X67579804Y-111909134D01*
X67787177Y-111828798D01*
X67787178Y-111828797D01*
X67903327Y-111756880D01*
X67296447Y-111150000D01*
X67302661Y-111150000D01*
X67404394Y-111122741D01*
X67495606Y-111070080D01*
X67570080Y-110995606D01*
X67622741Y-110904394D01*
X67650000Y-110802661D01*
X67650000Y-110796446D01*
X68258860Y-111405306D01*
X68258861Y-111405306D01*
X68274631Y-111384425D01*
X68274632Y-111384422D01*
X68373759Y-111185350D01*
X68434621Y-110971439D01*
X68455141Y-110750000D01*
X68455141Y-110749999D01*
X71044859Y-110749999D01*
X71044859Y-110750000D01*
X71065378Y-110971439D01*
X71126240Y-111185350D01*
X71225364Y-111384419D01*
X71225366Y-111384421D01*
X71241138Y-111405306D01*
X71850000Y-110796445D01*
X71850000Y-110802661D01*
X71877259Y-110904394D01*
X71929920Y-110995606D01*
X72004394Y-111070080D01*
X72095606Y-111122741D01*
X72197339Y-111150000D01*
X72203554Y-111150000D01*
X71596671Y-111756880D01*
X71712823Y-111828798D01*
X71712824Y-111828799D01*
X71920195Y-111909134D01*
X72138807Y-111950000D01*
X72361193Y-111950000D01*
X72579804Y-111909134D01*
X72787177Y-111828798D01*
X72787178Y-111828797D01*
X72903327Y-111756880D01*
X72296447Y-111150000D01*
X72302661Y-111150000D01*
X72404394Y-111122741D01*
X72495606Y-111070080D01*
X72570080Y-110995606D01*
X72622741Y-110904394D01*
X72650000Y-110802661D01*
X72650000Y-110796446D01*
X73258860Y-111405306D01*
X73315196Y-111401398D01*
X73315394Y-111404255D01*
X73352341Y-111401761D01*
X73413530Y-111435490D01*
X73446770Y-111496946D01*
X73449500Y-111522819D01*
X73449500Y-111597869D01*
X73449501Y-111597876D01*
X73455908Y-111657483D01*
X73506202Y-111792328D01*
X73506206Y-111792335D01*
X73592452Y-111907544D01*
X73592455Y-111907547D01*
X73707664Y-111993793D01*
X73707671Y-111993797D01*
X73842517Y-112044091D01*
X73842516Y-112044091D01*
X73849444Y-112044835D01*
X73902127Y-112050500D01*
X75597872Y-112050499D01*
X75657483Y-112044091D01*
X75792331Y-111993796D01*
X75907546Y-111907546D01*
X75993796Y-111792331D01*
X76044091Y-111657483D01*
X76050500Y-111597873D01*
X76050500Y-111374038D01*
X79899500Y-111374038D01*
X79899500Y-111625962D01*
X79938910Y-111874785D01*
X80016760Y-112114383D01*
X80131132Y-112338848D01*
X80279201Y-112542649D01*
X80279205Y-112542654D01*
X80457345Y-112720794D01*
X80457350Y-112720798D01*
X80635117Y-112849952D01*
X80661155Y-112868870D01*
X80804184Y-112941747D01*
X80885616Y-112983239D01*
X80885618Y-112983239D01*
X80885621Y-112983241D01*
X81125215Y-113061090D01*
X81374038Y-113100500D01*
X81374039Y-113100500D01*
X81625961Y-113100500D01*
X81625962Y-113100500D01*
X81874785Y-113061090D01*
X82114379Y-112983241D01*
X82338845Y-112868870D01*
X82542656Y-112720793D01*
X82720793Y-112542656D01*
X82868870Y-112338845D01*
X82983241Y-112114379D01*
X83061090Y-111874785D01*
X83100500Y-111625962D01*
X83100500Y-111374038D01*
X83061090Y-111125215D01*
X82983241Y-110885621D01*
X82983239Y-110885618D01*
X82983239Y-110885616D01*
X82940971Y-110802661D01*
X82868870Y-110661155D01*
X82821246Y-110595606D01*
X82720798Y-110457350D01*
X82720794Y-110457345D01*
X82542654Y-110279205D01*
X82542649Y-110279201D01*
X82338848Y-110131132D01*
X82338847Y-110131131D01*
X82338845Y-110131130D01*
X82258062Y-110089969D01*
X82114383Y-110016760D01*
X81874785Y-109938910D01*
X81625962Y-109899500D01*
X81374038Y-109899500D01*
X81249626Y-109919205D01*
X81125214Y-109938910D01*
X80885616Y-110016760D01*
X80661151Y-110131132D01*
X80457350Y-110279201D01*
X80457345Y-110279205D01*
X80279205Y-110457345D01*
X80279201Y-110457350D01*
X80131132Y-110661151D01*
X80016760Y-110885616D01*
X79956824Y-111070080D01*
X79938910Y-111125215D01*
X79899500Y-111374038D01*
X76050500Y-111374038D01*
X76050499Y-109902128D01*
X76044091Y-109842517D01*
X76007017Y-109743117D01*
X75993797Y-109707671D01*
X75993793Y-109707664D01*
X75907547Y-109592455D01*
X75907544Y-109592452D01*
X75792335Y-109506206D01*
X75792328Y-109506202D01*
X75657482Y-109455908D01*
X75657483Y-109455908D01*
X75597883Y-109449501D01*
X75597881Y-109449500D01*
X75597873Y-109449500D01*
X75597864Y-109449500D01*
X73902129Y-109449500D01*
X73902123Y-109449501D01*
X73842516Y-109455908D01*
X73707671Y-109506202D01*
X73707664Y-109506206D01*
X73592455Y-109592452D01*
X73592452Y-109592455D01*
X73506206Y-109707664D01*
X73506202Y-109707671D01*
X73455908Y-109842517D01*
X73449782Y-109899500D01*
X73449501Y-109902123D01*
X73449500Y-109902135D01*
X73449500Y-109977175D01*
X73429815Y-110044214D01*
X73377011Y-110089969D01*
X73307853Y-110099913D01*
X73303149Y-110097765D01*
X73258860Y-110094691D01*
X72650000Y-110703552D01*
X72650000Y-110697339D01*
X72622741Y-110595606D01*
X72570080Y-110504394D01*
X72495606Y-110429920D01*
X72404394Y-110377259D01*
X72302661Y-110350000D01*
X72296447Y-110350000D01*
X72903327Y-109743118D01*
X72903326Y-109743117D01*
X72787181Y-109671203D01*
X72787175Y-109671200D01*
X72579804Y-109590865D01*
X72361193Y-109550000D01*
X72138807Y-109550000D01*
X71920195Y-109590865D01*
X71712824Y-109671200D01*
X71712818Y-109671204D01*
X71596672Y-109743117D01*
X71596671Y-109743118D01*
X72203554Y-110350000D01*
X72197339Y-110350000D01*
X72095606Y-110377259D01*
X72004394Y-110429920D01*
X71929920Y-110504394D01*
X71877259Y-110595606D01*
X71850000Y-110697339D01*
X71850000Y-110703553D01*
X71241138Y-110094691D01*
X71241137Y-110094691D01*
X71225369Y-110115571D01*
X71126240Y-110314649D01*
X71065378Y-110528560D01*
X71044859Y-110749999D01*
X68455141Y-110749999D01*
X68434621Y-110528560D01*
X68373759Y-110314649D01*
X68274633Y-110115577D01*
X68274631Y-110115574D01*
X68258860Y-110094691D01*
X67650000Y-110703552D01*
X67650000Y-110697339D01*
X67622741Y-110595606D01*
X67570080Y-110504394D01*
X67495606Y-110429920D01*
X67404394Y-110377259D01*
X67302661Y-110350000D01*
X67296447Y-110350000D01*
X67903327Y-109743118D01*
X67903326Y-109743117D01*
X67787181Y-109671203D01*
X67787175Y-109671200D01*
X67579804Y-109590865D01*
X67361193Y-109550000D01*
X67138807Y-109550000D01*
X66920195Y-109590865D01*
X66712824Y-109671200D01*
X66712818Y-109671204D01*
X66596672Y-109743117D01*
X66596671Y-109743118D01*
X67203554Y-110350000D01*
X67197339Y-110350000D01*
X67095606Y-110377259D01*
X67004394Y-110429920D01*
X66929920Y-110504394D01*
X66877259Y-110595606D01*
X66850000Y-110697339D01*
X66850000Y-110703553D01*
X66241138Y-110094691D01*
X66184802Y-110098602D01*
X66184603Y-110095738D01*
X66147623Y-110098224D01*
X66086444Y-110064478D01*
X66053221Y-110003012D01*
X66050499Y-109977172D01*
X66050499Y-109902129D01*
X66050498Y-109902123D01*
X66050497Y-109902116D01*
X66044091Y-109842517D01*
X66007017Y-109743117D01*
X65993797Y-109707671D01*
X65993793Y-109707664D01*
X65907547Y-109592455D01*
X65907544Y-109592452D01*
X65792335Y-109506206D01*
X65792328Y-109506202D01*
X65657482Y-109455908D01*
X65657483Y-109455908D01*
X65597883Y-109449501D01*
X65597881Y-109449500D01*
X65597873Y-109449500D01*
X65597864Y-109449500D01*
X63902129Y-109449500D01*
X63902123Y-109449501D01*
X63842516Y-109455908D01*
X63707671Y-109506202D01*
X63707664Y-109506206D01*
X63592455Y-109592452D01*
X63592452Y-109592455D01*
X63506206Y-109707664D01*
X63506202Y-109707671D01*
X63455908Y-109842517D01*
X63449782Y-109899500D01*
X63449501Y-109902123D01*
X63449500Y-109902135D01*
X58642599Y-109902135D01*
X58625962Y-109899500D01*
X58374038Y-109899500D01*
X58249626Y-109919205D01*
X58125214Y-109938910D01*
X57885616Y-110016760D01*
X57661151Y-110131132D01*
X57457350Y-110279201D01*
X57457345Y-110279205D01*
X57279205Y-110457345D01*
X57279201Y-110457350D01*
X57131132Y-110661151D01*
X57016760Y-110885616D01*
X56956824Y-111070080D01*
X56938910Y-111125215D01*
X56899500Y-111374038D01*
X50500500Y-111374038D01*
X50500500Y-59939999D01*
X52130341Y-59939999D01*
X52130341Y-59940000D01*
X52150936Y-60175403D01*
X52150938Y-60175413D01*
X52212094Y-60403655D01*
X52212096Y-60403659D01*
X52212097Y-60403663D01*
X52254971Y-60495606D01*
X52311965Y-60617830D01*
X52311967Y-60617834D01*
X52447501Y-60811395D01*
X52447506Y-60811402D01*
X52614597Y-60978493D01*
X52614603Y-60978498D01*
X52800158Y-61108425D01*
X52843783Y-61163002D01*
X52850977Y-61232500D01*
X52819454Y-61294855D01*
X52800158Y-61311575D01*
X52614597Y-61441505D01*
X52447505Y-61608597D01*
X52311965Y-61802169D01*
X52311964Y-61802171D01*
X52212098Y-62016335D01*
X52212094Y-62016344D01*
X52150938Y-62244586D01*
X52150936Y-62244596D01*
X52130341Y-62479999D01*
X52130341Y-62480000D01*
X52150936Y-62715403D01*
X52150938Y-62715413D01*
X52212094Y-62943655D01*
X52212096Y-62943659D01*
X52212097Y-62943663D01*
X52249239Y-63023313D01*
X52311965Y-63157830D01*
X52311967Y-63157834D01*
X52447501Y-63351395D01*
X52447506Y-63351402D01*
X52614597Y-63518493D01*
X52614603Y-63518498D01*
X52800158Y-63648425D01*
X52843783Y-63703002D01*
X52850977Y-63772500D01*
X52819454Y-63834855D01*
X52800158Y-63851575D01*
X52614597Y-63981505D01*
X52447505Y-64148597D01*
X52311965Y-64342169D01*
X52311964Y-64342171D01*
X52212098Y-64556335D01*
X52212094Y-64556344D01*
X52150938Y-64784586D01*
X52150936Y-64784596D01*
X52130341Y-65019999D01*
X52130341Y-65020000D01*
X52150936Y-65255403D01*
X52150938Y-65255413D01*
X52212094Y-65483655D01*
X52212096Y-65483659D01*
X52212097Y-65483663D01*
X52248090Y-65560849D01*
X52311965Y-65697830D01*
X52311967Y-65697834D01*
X52392250Y-65812489D01*
X52447505Y-65891401D01*
X52614599Y-66058495D01*
X52614601Y-66058496D01*
X52614603Y-66058498D01*
X52654260Y-66086266D01*
X52697885Y-66140842D01*
X52705079Y-66210341D01*
X52673556Y-66272696D01*
X52613327Y-66308110D01*
X52602534Y-66310314D01*
X52510855Y-66324833D01*
X52510844Y-66324837D01*
X52397958Y-66382356D01*
X52397949Y-66382363D01*
X52308363Y-66471949D01*
X52308360Y-66471953D01*
X52250833Y-66584855D01*
X52236000Y-66678513D01*
X52236000Y-67310000D01*
X53052988Y-67310000D01*
X53020075Y-67367007D01*
X52986000Y-67494174D01*
X52986000Y-67625826D01*
X53020075Y-67752993D01*
X53052988Y-67810000D01*
X52236001Y-67810000D01*
X52236001Y-68441479D01*
X52250835Y-68535149D01*
X52250837Y-68535155D01*
X52308356Y-68648041D01*
X52308363Y-68648050D01*
X52397949Y-68737636D01*
X52397953Y-68737639D01*
X52510855Y-68795166D01*
X52604514Y-68809999D01*
X53235999Y-68809999D01*
X53236000Y-68809998D01*
X53236000Y-67993012D01*
X53293007Y-68025925D01*
X53420174Y-68060000D01*
X53551826Y-68060000D01*
X53678993Y-68025925D01*
X53736000Y-67993012D01*
X53736000Y-68809999D01*
X54367479Y-68809999D01*
X54461149Y-68795164D01*
X54461155Y-68795162D01*
X54574041Y-68737643D01*
X54574050Y-68737636D01*
X54663636Y-68648050D01*
X54663639Y-68648046D01*
X54721166Y-68535144D01*
X54736000Y-68441486D01*
X54736000Y-67810000D01*
X53919012Y-67810000D01*
X53951925Y-67752993D01*
X53986000Y-67625826D01*
X53986000Y-67494174D01*
X53951925Y-67367007D01*
X53919012Y-67310000D01*
X54735999Y-67310000D01*
X54735999Y-66678520D01*
X54721164Y-66584850D01*
X54721162Y-66584844D01*
X54663643Y-66471958D01*
X54663636Y-66471949D01*
X54574050Y-66382363D01*
X54574046Y-66382360D01*
X54461144Y-66324833D01*
X54369466Y-66310313D01*
X54306331Y-66280383D01*
X54269400Y-66221072D01*
X54270398Y-66151209D01*
X54309008Y-66092977D01*
X54317733Y-66086270D01*
X54357401Y-66058495D01*
X54524495Y-65891401D01*
X54660035Y-65697830D01*
X54759903Y-65483663D01*
X54821063Y-65255408D01*
X54841659Y-65020000D01*
X54821063Y-64784592D01*
X54771099Y-64598120D01*
X54759905Y-64556344D01*
X54759904Y-64556343D01*
X54759903Y-64556337D01*
X54660035Y-64342171D01*
X54645493Y-64321402D01*
X54524494Y-64148597D01*
X54357402Y-63981506D01*
X54357396Y-63981501D01*
X54171842Y-63851575D01*
X54128217Y-63796998D01*
X54121023Y-63727500D01*
X54152546Y-63665145D01*
X54171842Y-63648425D01*
X54224505Y-63611550D01*
X54357401Y-63518495D01*
X54524495Y-63351401D01*
X54660035Y-63157830D01*
X54759903Y-62943663D01*
X54821063Y-62715408D01*
X54841659Y-62480000D01*
X54821063Y-62244592D01*
X54761758Y-62023261D01*
X54759905Y-62016344D01*
X54759904Y-62016343D01*
X54759903Y-62016337D01*
X54660035Y-61802171D01*
X54645493Y-61781402D01*
X54524494Y-61608597D01*
X54357402Y-61441506D01*
X54357396Y-61441501D01*
X54171842Y-61311575D01*
X54128217Y-61256998D01*
X54121023Y-61187500D01*
X54152546Y-61125145D01*
X54171842Y-61108425D01*
X54199385Y-61089139D01*
X54357401Y-60978495D01*
X54524495Y-60811401D01*
X54660035Y-60617830D01*
X54759903Y-60403663D01*
X54821063Y-60175408D01*
X54841659Y-59940000D01*
X54821063Y-59704592D01*
X54759903Y-59476337D01*
X54660035Y-59262171D01*
X54646694Y-59243117D01*
X54524494Y-59068597D01*
X54357402Y-58901506D01*
X54357395Y-58901501D01*
X54163834Y-58765967D01*
X54163830Y-58765965D01*
X54163828Y-58765964D01*
X53949663Y-58666097D01*
X53949659Y-58666096D01*
X53949655Y-58666094D01*
X53721413Y-58604938D01*
X53721403Y-58604936D01*
X53486001Y-58584341D01*
X53485999Y-58584341D01*
X53250596Y-58604936D01*
X53250586Y-58604938D01*
X53022344Y-58666094D01*
X53022335Y-58666098D01*
X52808171Y-58765964D01*
X52808169Y-58765965D01*
X52614597Y-58901505D01*
X52447505Y-59068597D01*
X52311965Y-59262169D01*
X52311964Y-59262171D01*
X52212098Y-59476335D01*
X52212094Y-59476344D01*
X52150938Y-59704586D01*
X52150936Y-59704596D01*
X52130341Y-59939999D01*
X50500500Y-59939999D01*
X50500500Y-58369999D01*
X55874341Y-58369999D01*
X55874341Y-58370000D01*
X55894936Y-58605403D01*
X55894938Y-58605413D01*
X55956094Y-58833655D01*
X55956096Y-58833659D01*
X55956097Y-58833663D01*
X56016937Y-58964135D01*
X56055965Y-59047830D01*
X56055967Y-59047834D01*
X56191501Y-59241395D01*
X56191506Y-59241402D01*
X56358597Y-59408493D01*
X56358603Y-59408498D01*
X56544158Y-59538425D01*
X56587783Y-59593002D01*
X56594977Y-59662500D01*
X56563454Y-59724855D01*
X56544158Y-59741575D01*
X56358597Y-59871505D01*
X56191505Y-60038597D01*
X56055965Y-60232169D01*
X56055964Y-60232171D01*
X55956098Y-60446335D01*
X55956094Y-60446344D01*
X55894938Y-60674586D01*
X55894936Y-60674596D01*
X55874341Y-60909999D01*
X55874341Y-60910000D01*
X55894936Y-61145403D01*
X55894938Y-61145413D01*
X55956094Y-61373655D01*
X55956096Y-61373659D01*
X55956097Y-61373663D01*
X56004163Y-61476741D01*
X56055965Y-61587830D01*
X56055967Y-61587834D01*
X56164281Y-61742521D01*
X56191501Y-61781396D01*
X56191506Y-61781402D01*
X56358597Y-61948493D01*
X56358603Y-61948498D01*
X56544158Y-62078425D01*
X56587783Y-62133002D01*
X56594977Y-62202500D01*
X56563454Y-62264855D01*
X56544158Y-62281575D01*
X56358597Y-62411505D01*
X56191505Y-62578597D01*
X56055965Y-62772169D01*
X56055964Y-62772171D01*
X55956098Y-62986335D01*
X55956094Y-62986344D01*
X55894938Y-63214586D01*
X55894936Y-63214596D01*
X55874341Y-63449999D01*
X55874341Y-63450000D01*
X55894936Y-63685403D01*
X55894938Y-63685413D01*
X55956094Y-63913655D01*
X55956096Y-63913659D01*
X55956097Y-63913663D01*
X56039358Y-64092217D01*
X56055965Y-64127830D01*
X56055967Y-64127834D01*
X56136142Y-64242335D01*
X56191505Y-64321401D01*
X56358599Y-64488495D01*
X56421233Y-64532352D01*
X56552165Y-64624032D01*
X56552167Y-64624033D01*
X56552170Y-64624035D01*
X56635866Y-64663063D01*
X56688305Y-64709235D01*
X56707457Y-64776429D01*
X56687241Y-64843310D01*
X56635866Y-64887827D01*
X56602612Y-64903333D01*
X56602608Y-64903335D01*
X56423450Y-65028783D01*
X56423444Y-65028788D01*
X56268788Y-65183444D01*
X56268783Y-65183450D01*
X56143335Y-65362608D01*
X56143333Y-65362612D01*
X56050898Y-65560840D01*
X56050894Y-65560849D01*
X56002891Y-65739999D01*
X56002892Y-65740000D01*
X56796988Y-65740000D01*
X56764075Y-65797007D01*
X56730000Y-65924174D01*
X56730000Y-66055826D01*
X56764075Y-66182993D01*
X56796988Y-66240000D01*
X56002892Y-66240000D01*
X56050894Y-66419150D01*
X56050898Y-66419159D01*
X56143333Y-66617387D01*
X56268787Y-66796554D01*
X56423445Y-66951212D01*
X56602612Y-67076667D01*
X56635865Y-67092173D01*
X56688304Y-67138346D01*
X56707456Y-67205539D01*
X56687240Y-67272420D01*
X56635865Y-67316937D01*
X56552171Y-67355964D01*
X56552169Y-67355965D01*
X56358597Y-67491505D01*
X56191505Y-67658597D01*
X56055965Y-67852169D01*
X56055964Y-67852171D01*
X55956098Y-68066335D01*
X55956094Y-68066344D01*
X55894938Y-68294586D01*
X55894936Y-68294596D01*
X55874341Y-68529999D01*
X55874341Y-68530000D01*
X55894936Y-68765403D01*
X55894938Y-68765413D01*
X55956094Y-68993655D01*
X55956096Y-68993659D01*
X55956097Y-68993663D01*
X55983661Y-69052774D01*
X56055965Y-69207830D01*
X56055967Y-69207834D01*
X56145134Y-69335176D01*
X56191505Y-69401401D01*
X56358599Y-69568495D01*
X56382839Y-69585468D01*
X56552165Y-69704032D01*
X56552167Y-69704033D01*
X56552170Y-69704035D01*
X56635866Y-69743063D01*
X56688305Y-69789235D01*
X56707457Y-69856429D01*
X56687241Y-69923310D01*
X56635866Y-69967827D01*
X56602612Y-69983333D01*
X56602608Y-69983335D01*
X56423450Y-70108783D01*
X56423444Y-70108788D01*
X56268788Y-70263444D01*
X56268783Y-70263450D01*
X56143335Y-70442608D01*
X56143333Y-70442612D01*
X56050898Y-70640840D01*
X56050894Y-70640849D01*
X56002891Y-70819999D01*
X56002892Y-70820000D01*
X56796988Y-70820000D01*
X56764075Y-70877007D01*
X56730000Y-71004174D01*
X56730000Y-71135826D01*
X56764075Y-71262993D01*
X56796988Y-71320000D01*
X56002892Y-71320000D01*
X56050894Y-71499150D01*
X56050898Y-71499159D01*
X56143333Y-71697387D01*
X56268787Y-71876554D01*
X56423445Y-72031212D01*
X56602612Y-72156667D01*
X56635865Y-72172173D01*
X56688304Y-72218346D01*
X56707456Y-72285539D01*
X56687240Y-72352420D01*
X56635865Y-72396937D01*
X56552171Y-72435964D01*
X56552169Y-72435965D01*
X56358597Y-72571505D01*
X56191505Y-72738597D01*
X56055965Y-72932169D01*
X56055964Y-72932171D01*
X55956098Y-73146335D01*
X55956094Y-73146344D01*
X55894938Y-73374586D01*
X55894936Y-73374596D01*
X55874341Y-73609999D01*
X55874341Y-73610000D01*
X55894936Y-73845403D01*
X55894938Y-73845413D01*
X55956094Y-74073655D01*
X55956096Y-74073659D01*
X55956097Y-74073663D01*
X56037310Y-74247824D01*
X56055965Y-74287830D01*
X56055967Y-74287834D01*
X56120240Y-74379624D01*
X56191501Y-74481396D01*
X56191506Y-74481402D01*
X56358597Y-74648493D01*
X56358603Y-74648498D01*
X56544158Y-74778425D01*
X56587783Y-74833002D01*
X56594977Y-74902500D01*
X56563454Y-74964855D01*
X56544158Y-74981575D01*
X56358597Y-75111505D01*
X56191505Y-75278597D01*
X56055965Y-75472169D01*
X56055964Y-75472171D01*
X55956098Y-75686335D01*
X55956094Y-75686344D01*
X55894938Y-75914586D01*
X55894936Y-75914596D01*
X55874341Y-76149999D01*
X55874341Y-76150000D01*
X55894936Y-76385403D01*
X55894938Y-76385413D01*
X55956094Y-76613655D01*
X55956096Y-76613659D01*
X55956097Y-76613663D01*
X56016937Y-76744135D01*
X56055965Y-76827830D01*
X56055967Y-76827834D01*
X56191501Y-77021395D01*
X56191506Y-77021402D01*
X56358597Y-77188493D01*
X56358603Y-77188498D01*
X56544158Y-77318425D01*
X56587783Y-77373002D01*
X56594977Y-77442500D01*
X56563454Y-77504855D01*
X56544158Y-77521575D01*
X56358597Y-77651505D01*
X56191505Y-77818597D01*
X56055965Y-78012169D01*
X56055964Y-78012171D01*
X55956098Y-78226335D01*
X55956094Y-78226344D01*
X55894938Y-78454586D01*
X55894936Y-78454596D01*
X55874341Y-78689999D01*
X55874341Y-78690000D01*
X55894936Y-78925403D01*
X55894938Y-78925413D01*
X55956094Y-79153655D01*
X55956096Y-79153659D01*
X55956097Y-79153663D01*
X56050703Y-79356546D01*
X56055965Y-79367830D01*
X56055967Y-79367834D01*
X56094942Y-79423495D01*
X56191501Y-79561396D01*
X56191506Y-79561402D01*
X56358597Y-79728493D01*
X56358603Y-79728498D01*
X56544158Y-79858425D01*
X56587783Y-79913002D01*
X56594977Y-79982500D01*
X56563454Y-80044855D01*
X56544158Y-80061575D01*
X56358597Y-80191505D01*
X56191505Y-80358597D01*
X56055965Y-80552169D01*
X56055964Y-80552171D01*
X55956098Y-80766335D01*
X55956094Y-80766344D01*
X55894938Y-80994586D01*
X55894936Y-80994596D01*
X55874341Y-81229999D01*
X55874341Y-81230000D01*
X55894936Y-81465403D01*
X55894938Y-81465413D01*
X55956094Y-81693655D01*
X55956096Y-81693659D01*
X55956097Y-81693663D01*
X55960000Y-81702032D01*
X56055965Y-81907830D01*
X56055967Y-81907834D01*
X56094942Y-81963495D01*
X56191505Y-82101401D01*
X56358599Y-82268495D01*
X56424347Y-82314532D01*
X56552165Y-82404032D01*
X56552167Y-82404033D01*
X56552170Y-82404035D01*
X56635866Y-82443063D01*
X56688305Y-82489235D01*
X56707457Y-82556429D01*
X56687241Y-82623310D01*
X56635866Y-82667827D01*
X56602612Y-82683333D01*
X56602608Y-82683335D01*
X56423450Y-82808783D01*
X56423444Y-82808788D01*
X56268788Y-82963444D01*
X56268783Y-82963450D01*
X56143335Y-83142608D01*
X56143333Y-83142612D01*
X56050898Y-83340840D01*
X56050894Y-83340849D01*
X56002891Y-83519999D01*
X56002892Y-83520000D01*
X56796988Y-83520000D01*
X56764075Y-83577007D01*
X56730000Y-83704174D01*
X56730000Y-83835826D01*
X56764075Y-83962993D01*
X56796988Y-84020000D01*
X56002892Y-84020000D01*
X56050894Y-84199150D01*
X56050898Y-84199159D01*
X56143333Y-84397387D01*
X56268787Y-84576554D01*
X56423445Y-84731212D01*
X56602612Y-84856667D01*
X56635865Y-84872173D01*
X56688304Y-84918346D01*
X56707456Y-84985539D01*
X56687240Y-85052420D01*
X56635865Y-85096937D01*
X56552171Y-85135964D01*
X56552169Y-85135965D01*
X56358597Y-85271505D01*
X56191505Y-85438597D01*
X56055965Y-85632169D01*
X56055964Y-85632171D01*
X55956098Y-85846335D01*
X55956094Y-85846344D01*
X55894938Y-86074586D01*
X55894936Y-86074596D01*
X55874341Y-86309999D01*
X55874341Y-86310000D01*
X55894936Y-86545403D01*
X55894938Y-86545413D01*
X55956094Y-86773655D01*
X55956096Y-86773659D01*
X55956097Y-86773663D01*
X55960000Y-86782032D01*
X56055965Y-86987830D01*
X56055967Y-86987834D01*
X56094942Y-87043495D01*
X56191501Y-87181396D01*
X56191506Y-87181402D01*
X56358597Y-87348493D01*
X56358603Y-87348498D01*
X56544158Y-87478425D01*
X56587783Y-87533002D01*
X56594977Y-87602500D01*
X56563454Y-87664855D01*
X56544158Y-87681575D01*
X56358597Y-87811505D01*
X56191505Y-87978597D01*
X56055965Y-88172169D01*
X56055964Y-88172171D01*
X55956098Y-88386335D01*
X55956094Y-88386344D01*
X55894938Y-88614586D01*
X55894936Y-88614596D01*
X55874341Y-88849999D01*
X55874341Y-88850000D01*
X55894936Y-89085403D01*
X55894938Y-89085413D01*
X55956094Y-89313655D01*
X55956096Y-89313659D01*
X55956097Y-89313663D01*
X55960000Y-89322032D01*
X56055965Y-89527830D01*
X56055967Y-89527834D01*
X56094942Y-89583495D01*
X56191505Y-89721401D01*
X56358599Y-89888495D01*
X56455384Y-89956265D01*
X56552165Y-90024032D01*
X56552167Y-90024033D01*
X56552170Y-90024035D01*
X56635866Y-90063063D01*
X56688305Y-90109235D01*
X56707457Y-90176429D01*
X56687241Y-90243310D01*
X56635866Y-90287827D01*
X56602612Y-90303333D01*
X56602608Y-90303335D01*
X56423450Y-90428783D01*
X56423444Y-90428788D01*
X56268788Y-90583444D01*
X56268783Y-90583450D01*
X56143335Y-90762608D01*
X56143333Y-90762612D01*
X56050898Y-90960840D01*
X56050894Y-90960849D01*
X56002891Y-91139999D01*
X56002892Y-91140000D01*
X56796988Y-91140000D01*
X56764075Y-91197007D01*
X56730000Y-91324174D01*
X56730000Y-91455826D01*
X56764075Y-91582993D01*
X56796988Y-91640000D01*
X56002892Y-91640000D01*
X56050894Y-91819150D01*
X56050898Y-91819159D01*
X56143333Y-92017387D01*
X56268787Y-92196554D01*
X56423445Y-92351212D01*
X56602612Y-92476667D01*
X56635865Y-92492173D01*
X56688304Y-92538346D01*
X56707456Y-92605539D01*
X56687240Y-92672420D01*
X56635865Y-92716937D01*
X56552171Y-92755964D01*
X56552169Y-92755965D01*
X56358597Y-92891505D01*
X56191505Y-93058597D01*
X56055965Y-93252169D01*
X56055964Y-93252171D01*
X55956098Y-93466335D01*
X55956094Y-93466344D01*
X55894938Y-93694586D01*
X55894936Y-93694596D01*
X55874341Y-93929999D01*
X55874341Y-93930000D01*
X55894936Y-94165403D01*
X55894938Y-94165413D01*
X55956094Y-94393655D01*
X55956096Y-94393659D01*
X55956097Y-94393663D01*
X55960000Y-94402032D01*
X56055965Y-94607830D01*
X56055967Y-94607834D01*
X56094942Y-94663495D01*
X56191501Y-94801396D01*
X56191506Y-94801402D01*
X56358597Y-94968493D01*
X56358603Y-94968498D01*
X56544158Y-95098425D01*
X56587783Y-95153002D01*
X56594977Y-95222500D01*
X56563454Y-95284855D01*
X56544158Y-95301575D01*
X56358597Y-95431505D01*
X56191505Y-95598597D01*
X56055965Y-95792169D01*
X56055964Y-95792171D01*
X55956098Y-96006335D01*
X55956094Y-96006344D01*
X55894938Y-96234586D01*
X55894936Y-96234596D01*
X55874341Y-96469999D01*
X55874341Y-96470000D01*
X55894936Y-96705403D01*
X55894938Y-96705413D01*
X55956094Y-96933655D01*
X55956096Y-96933659D01*
X55956097Y-96933663D01*
X56016937Y-97064135D01*
X56055965Y-97147830D01*
X56055967Y-97147834D01*
X56191501Y-97341395D01*
X56191506Y-97341402D01*
X56358597Y-97508493D01*
X56358603Y-97508498D01*
X56544158Y-97638425D01*
X56587783Y-97693002D01*
X56594977Y-97762500D01*
X56563454Y-97824855D01*
X56544158Y-97841575D01*
X56358597Y-97971505D01*
X56191505Y-98138597D01*
X56055965Y-98332169D01*
X56055964Y-98332171D01*
X55956098Y-98546335D01*
X55956094Y-98546344D01*
X55894938Y-98774586D01*
X55894936Y-98774596D01*
X55874341Y-99009999D01*
X55874341Y-99010000D01*
X55894936Y-99245403D01*
X55894938Y-99245413D01*
X55956094Y-99473655D01*
X55956096Y-99473659D01*
X55956097Y-99473663D01*
X55994961Y-99557007D01*
X56055965Y-99687830D01*
X56055967Y-99687834D01*
X56164281Y-99842521D01*
X56191505Y-99881401D01*
X56358599Y-100048495D01*
X56455384Y-100116265D01*
X56552165Y-100184032D01*
X56552167Y-100184033D01*
X56552170Y-100184035D01*
X56635866Y-100223063D01*
X56688305Y-100269235D01*
X56707457Y-100336429D01*
X56687241Y-100403310D01*
X56635866Y-100447827D01*
X56602612Y-100463333D01*
X56602608Y-100463335D01*
X56423450Y-100588783D01*
X56423444Y-100588788D01*
X56268788Y-100743444D01*
X56268783Y-100743450D01*
X56143335Y-100922608D01*
X56143333Y-100922612D01*
X56050898Y-101120840D01*
X56050894Y-101120849D01*
X56002891Y-101299999D01*
X56002892Y-101300000D01*
X56796988Y-101300000D01*
X56764075Y-101357007D01*
X56730000Y-101484174D01*
X56730000Y-101615826D01*
X56764075Y-101742993D01*
X56796988Y-101800000D01*
X56002892Y-101800000D01*
X56050894Y-101979150D01*
X56050898Y-101979159D01*
X56143333Y-102177387D01*
X56268787Y-102356554D01*
X56423445Y-102511212D01*
X56602612Y-102636667D01*
X56635865Y-102652173D01*
X56688304Y-102698346D01*
X56707456Y-102765539D01*
X56687240Y-102832420D01*
X56635865Y-102876937D01*
X56552171Y-102915964D01*
X56552169Y-102915965D01*
X56358597Y-103051505D01*
X56191505Y-103218597D01*
X56055965Y-103412169D01*
X56055964Y-103412171D01*
X55956098Y-103626335D01*
X55956094Y-103626344D01*
X55894938Y-103854586D01*
X55894936Y-103854596D01*
X55874341Y-104089999D01*
X55874341Y-104090000D01*
X55894936Y-104325403D01*
X55894938Y-104325413D01*
X55956094Y-104553655D01*
X55956096Y-104553659D01*
X55956097Y-104553663D01*
X55960000Y-104562032D01*
X56055965Y-104767830D01*
X56055967Y-104767834D01*
X56164281Y-104922521D01*
X56191501Y-104961396D01*
X56191506Y-104961402D01*
X56293181Y-105063077D01*
X56326666Y-105124400D01*
X56329500Y-105150758D01*
X56329500Y-105569241D01*
X56309815Y-105636280D01*
X56293181Y-105656922D01*
X56191505Y-105758597D01*
X56055965Y-105952169D01*
X56055964Y-105952171D01*
X55956098Y-106166335D01*
X55956094Y-106166344D01*
X55894938Y-106394586D01*
X55894936Y-106394596D01*
X55874341Y-106629999D01*
X55874341Y-106630000D01*
X55894936Y-106865403D01*
X55894938Y-106865413D01*
X55956094Y-107093655D01*
X55956096Y-107093659D01*
X55956097Y-107093663D01*
X56040499Y-107274663D01*
X56055965Y-107307830D01*
X56055967Y-107307834D01*
X56164281Y-107462521D01*
X56191505Y-107501401D01*
X56358599Y-107668495D01*
X56455384Y-107736265D01*
X56552165Y-107804032D01*
X56552167Y-107804033D01*
X56552170Y-107804035D01*
X56766337Y-107903903D01*
X56994592Y-107965063D01*
X57171034Y-107980500D01*
X57229999Y-107985659D01*
X57230000Y-107985659D01*
X57230001Y-107985659D01*
X57288966Y-107980500D01*
X57465408Y-107965063D01*
X57693663Y-107903903D01*
X57907830Y-107804035D01*
X58101401Y-107668495D01*
X58223329Y-107546566D01*
X58284648Y-107513084D01*
X58354340Y-107518068D01*
X58410274Y-107559939D01*
X58427189Y-107590917D01*
X58476202Y-107722328D01*
X58476206Y-107722335D01*
X58562452Y-107837544D01*
X58562455Y-107837547D01*
X58677664Y-107923793D01*
X58677671Y-107923797D01*
X58812517Y-107974091D01*
X58812516Y-107974091D01*
X58819444Y-107974835D01*
X58872127Y-107980500D01*
X60667872Y-107980499D01*
X60727483Y-107974091D01*
X60862331Y-107923796D01*
X60977546Y-107837546D01*
X61063796Y-107722331D01*
X61114091Y-107587483D01*
X61120500Y-107527873D01*
X61120499Y-105732128D01*
X61114091Y-105672517D01*
X61112810Y-105669083D01*
X61063797Y-105537671D01*
X61063793Y-105537664D01*
X60977547Y-105422455D01*
X60977544Y-105422452D01*
X60862335Y-105336206D01*
X60862328Y-105336202D01*
X60730917Y-105287189D01*
X60674983Y-105245318D01*
X60650566Y-105179853D01*
X60665418Y-105111580D01*
X60686563Y-105083332D01*
X60714896Y-105054999D01*
X67294341Y-105054999D01*
X67294341Y-105055000D01*
X67314936Y-105290403D01*
X67314938Y-105290413D01*
X67376094Y-105518655D01*
X67376096Y-105518659D01*
X67376097Y-105518663D01*
X67446239Y-105669083D01*
X67475965Y-105732830D01*
X67475967Y-105732834D01*
X67584281Y-105887521D01*
X67611505Y-105926401D01*
X67778599Y-106093495D01*
X67847394Y-106141666D01*
X67972165Y-106229032D01*
X67972167Y-106229033D01*
X67972170Y-106229035D01*
X68186337Y-106328903D01*
X68414592Y-106390063D01*
X68602918Y-106406539D01*
X68649999Y-106410659D01*
X68650000Y-106410659D01*
X68650001Y-106410659D01*
X68689234Y-106407226D01*
X68885408Y-106390063D01*
X69113663Y-106328903D01*
X69327830Y-106229035D01*
X69521401Y-106093495D01*
X69688495Y-105926401D01*
X69824035Y-105732830D01*
X69863064Y-105649130D01*
X69909233Y-105596695D01*
X69976427Y-105577543D01*
X70043308Y-105597758D01*
X70087825Y-105649133D01*
X70103330Y-105682382D01*
X70103332Y-105682386D01*
X70146874Y-105744571D01*
X70707037Y-105184408D01*
X70724075Y-105247993D01*
X70789901Y-105362007D01*
X70882993Y-105455099D01*
X70997007Y-105520925D01*
X71060590Y-105537962D01*
X70500427Y-106098124D01*
X70562612Y-106141666D01*
X70760840Y-106234101D01*
X70760849Y-106234105D01*
X70972105Y-106290710D01*
X70972115Y-106290712D01*
X71189999Y-106309775D01*
X71190001Y-106309775D01*
X71407884Y-106290712D01*
X71407894Y-106290710D01*
X71619150Y-106234105D01*
X71619164Y-106234100D01*
X71817383Y-106141669D01*
X71817385Y-106141668D01*
X71879571Y-106098124D01*
X71319410Y-105537962D01*
X71382993Y-105520925D01*
X71497007Y-105455099D01*
X71590099Y-105362007D01*
X71655925Y-105247993D01*
X71672962Y-105184409D01*
X72233124Y-105744570D01*
X72276667Y-105682387D01*
X72292172Y-105649136D01*
X72338343Y-105596696D01*
X72405537Y-105577543D01*
X72472418Y-105597758D01*
X72516936Y-105649133D01*
X72526239Y-105669083D01*
X72555965Y-105732830D01*
X72555967Y-105732834D01*
X72664281Y-105887521D01*
X72691505Y-105926401D01*
X72858599Y-106093495D01*
X72927394Y-106141666D01*
X73052165Y-106229032D01*
X73052167Y-106229033D01*
X73052170Y-106229035D01*
X73266337Y-106328903D01*
X73494592Y-106390063D01*
X73682918Y-106406539D01*
X73729999Y-106410659D01*
X73730000Y-106410659D01*
X73730001Y-106410659D01*
X73769234Y-106407226D01*
X73965408Y-106390063D01*
X74193663Y-106328903D01*
X74407830Y-106229035D01*
X74601401Y-106093495D01*
X74768495Y-105926401D01*
X74898425Y-105740842D01*
X74953002Y-105697217D01*
X75022500Y-105690023D01*
X75084855Y-105721546D01*
X75101575Y-105740842D01*
X75231500Y-105926395D01*
X75231505Y-105926401D01*
X75398599Y-106093495D01*
X75467394Y-106141666D01*
X75592165Y-106229032D01*
X75592167Y-106229033D01*
X75592170Y-106229035D01*
X75806337Y-106328903D01*
X76034592Y-106390063D01*
X76222918Y-106406539D01*
X76269999Y-106410659D01*
X76270000Y-106410659D01*
X76270001Y-106410659D01*
X76309234Y-106407226D01*
X76505408Y-106390063D01*
X76733663Y-106328903D01*
X76947830Y-106229035D01*
X77141401Y-106093495D01*
X77308495Y-105926401D01*
X77438425Y-105740842D01*
X77493002Y-105697217D01*
X77562500Y-105690023D01*
X77624855Y-105721546D01*
X77641575Y-105740842D01*
X77771500Y-105926395D01*
X77771505Y-105926401D01*
X77938599Y-106093495D01*
X78007394Y-106141666D01*
X78132165Y-106229032D01*
X78132167Y-106229033D01*
X78132170Y-106229035D01*
X78346337Y-106328903D01*
X78574592Y-106390063D01*
X78762918Y-106406539D01*
X78809999Y-106410659D01*
X78810000Y-106410659D01*
X78810001Y-106410659D01*
X78849234Y-106407226D01*
X79045408Y-106390063D01*
X79273663Y-106328903D01*
X79487830Y-106229035D01*
X79681401Y-106093495D01*
X79848495Y-105926401D01*
X79984035Y-105732830D01*
X80023064Y-105649130D01*
X80069233Y-105596695D01*
X80136427Y-105577543D01*
X80203308Y-105597758D01*
X80247825Y-105649133D01*
X80263330Y-105682382D01*
X80263332Y-105682386D01*
X80306874Y-105744571D01*
X80867037Y-105184408D01*
X80884075Y-105247993D01*
X80949901Y-105362007D01*
X81042993Y-105455099D01*
X81157007Y-105520925D01*
X81220590Y-105537962D01*
X80660427Y-106098124D01*
X80722612Y-106141666D01*
X80920840Y-106234101D01*
X80920849Y-106234105D01*
X81132105Y-106290710D01*
X81132115Y-106290712D01*
X81349999Y-106309775D01*
X81350001Y-106309775D01*
X81567884Y-106290712D01*
X81567894Y-106290710D01*
X81779150Y-106234105D01*
X81779164Y-106234100D01*
X81977383Y-106141669D01*
X81977385Y-106141668D01*
X82039571Y-106098124D01*
X81479410Y-105537962D01*
X81542993Y-105520925D01*
X81657007Y-105455099D01*
X81750099Y-105362007D01*
X81815925Y-105247993D01*
X81832962Y-105184409D01*
X82393124Y-105744570D01*
X82436668Y-105682385D01*
X82436669Y-105682383D01*
X82529100Y-105484164D01*
X82529105Y-105484150D01*
X82585710Y-105272894D01*
X82585712Y-105272884D01*
X82604775Y-105055000D01*
X82604775Y-105054999D01*
X82585712Y-104837115D01*
X82585710Y-104837105D01*
X82529105Y-104625849D01*
X82529101Y-104625840D01*
X82436668Y-104427615D01*
X82393123Y-104365428D01*
X81832962Y-104925589D01*
X81815925Y-104862007D01*
X81750099Y-104747993D01*
X81657007Y-104654901D01*
X81542993Y-104589075D01*
X81479409Y-104572037D01*
X82039571Y-104011874D01*
X81977387Y-103968333D01*
X81779159Y-103875898D01*
X81779150Y-103875894D01*
X81567894Y-103819289D01*
X81567884Y-103819287D01*
X81350001Y-103800225D01*
X81349999Y-103800225D01*
X81132115Y-103819287D01*
X81132105Y-103819289D01*
X80920849Y-103875894D01*
X80920840Y-103875898D01*
X80722614Y-103968332D01*
X80722612Y-103968333D01*
X80660428Y-104011875D01*
X80660427Y-104011875D01*
X81220590Y-104572037D01*
X81157007Y-104589075D01*
X81042993Y-104654901D01*
X80949901Y-104747993D01*
X80884075Y-104862007D01*
X80867037Y-104925590D01*
X80306875Y-104365427D01*
X80306875Y-104365428D01*
X80263333Y-104427612D01*
X80263332Y-104427614D01*
X80247827Y-104460866D01*
X80201654Y-104513305D01*
X80134461Y-104532457D01*
X80067580Y-104512241D01*
X80023063Y-104460866D01*
X79984035Y-104377171D01*
X79984034Y-104377169D01*
X79848494Y-104183597D01*
X79681402Y-104016506D01*
X79681395Y-104016501D01*
X79674788Y-104011875D01*
X79642521Y-103989281D01*
X79487834Y-103880967D01*
X79487830Y-103880965D01*
X79435500Y-103856563D01*
X79273663Y-103781097D01*
X79273659Y-103781096D01*
X79273655Y-103781094D01*
X79045413Y-103719938D01*
X79045403Y-103719936D01*
X78810001Y-103699341D01*
X78809999Y-103699341D01*
X78574596Y-103719936D01*
X78574586Y-103719938D01*
X78346344Y-103781094D01*
X78346335Y-103781098D01*
X78132171Y-103880964D01*
X78132169Y-103880965D01*
X77938597Y-104016505D01*
X77771505Y-104183597D01*
X77641575Y-104369158D01*
X77586998Y-104412783D01*
X77517500Y-104419977D01*
X77455145Y-104388454D01*
X77438425Y-104369158D01*
X77308494Y-104183597D01*
X77141402Y-104016506D01*
X77141401Y-104016505D01*
X76948376Y-103881347D01*
X76904751Y-103826770D01*
X76895500Y-103779772D01*
X76895500Y-96763025D01*
X76914506Y-96697053D01*
X76945635Y-96647511D01*
X76975789Y-96599522D01*
X77035368Y-96429255D01*
X77038618Y-96400413D01*
X77055565Y-96250003D01*
X77055565Y-96249996D01*
X77035369Y-96070750D01*
X77035368Y-96070745D01*
X77000116Y-95970000D01*
X76975789Y-95900478D01*
X76879816Y-95747738D01*
X76752262Y-95620184D01*
X76717907Y-95598597D01*
X76599523Y-95524211D01*
X76429254Y-95464631D01*
X76429249Y-95464630D01*
X76250004Y-95444435D01*
X76249996Y-95444435D01*
X76070750Y-95464630D01*
X76070745Y-95464631D01*
X75900476Y-95524211D01*
X75747737Y-95620184D01*
X75620184Y-95747737D01*
X75524211Y-95900476D01*
X75464631Y-96070745D01*
X75464630Y-96070750D01*
X75444435Y-96249996D01*
X75444435Y-96250003D01*
X75464630Y-96429249D01*
X75464631Y-96429254D01*
X75524211Y-96599523D01*
X75623889Y-96758158D01*
X75621790Y-96759476D01*
X75643854Y-96813498D01*
X75644500Y-96826142D01*
X75644500Y-97321960D01*
X75624815Y-97388999D01*
X75572011Y-97434754D01*
X75506618Y-97445180D01*
X75500005Y-97444435D01*
X75499996Y-97444435D01*
X75320750Y-97464630D01*
X75320745Y-97464631D01*
X75150476Y-97524211D01*
X74997737Y-97620184D01*
X74870184Y-97747737D01*
X74774211Y-97900476D01*
X74714631Y-98070745D01*
X74714630Y-98070750D01*
X74694435Y-98249996D01*
X74694435Y-98250003D01*
X74714630Y-98429249D01*
X74714631Y-98429254D01*
X74774211Y-98599524D01*
X74855493Y-98728881D01*
X74874500Y-98794854D01*
X74874500Y-101719813D01*
X74854815Y-101786852D01*
X74802011Y-101832607D01*
X74764054Y-101839497D01*
X74150000Y-102453553D01*
X74150000Y-102447339D01*
X74122741Y-102345606D01*
X74070080Y-102254394D01*
X73995606Y-102179920D01*
X73904394Y-102127259D01*
X73802661Y-102100000D01*
X73796447Y-102100000D01*
X74403327Y-101493118D01*
X74403326Y-101493117D01*
X74287181Y-101421203D01*
X74287175Y-101421200D01*
X74079804Y-101340865D01*
X73861193Y-101300000D01*
X73638807Y-101300000D01*
X73420195Y-101340865D01*
X73212824Y-101421200D01*
X73212818Y-101421204D01*
X73096672Y-101493117D01*
X73096671Y-101493118D01*
X73703554Y-102100000D01*
X73697339Y-102100000D01*
X73595606Y-102127259D01*
X73504394Y-102179920D01*
X73429920Y-102254394D01*
X73377259Y-102345606D01*
X73350000Y-102447339D01*
X73350000Y-102453553D01*
X72741138Y-101844691D01*
X72741137Y-101844691D01*
X72725369Y-101865571D01*
X72626240Y-102064649D01*
X72565378Y-102278560D01*
X72544859Y-102499999D01*
X72544859Y-102500000D01*
X72565378Y-102721439D01*
X72626240Y-102935350D01*
X72725364Y-103134419D01*
X72725366Y-103134421D01*
X72741138Y-103155306D01*
X73350000Y-102546445D01*
X73350000Y-102552661D01*
X73377259Y-102654394D01*
X73429920Y-102745606D01*
X73504394Y-102820080D01*
X73595606Y-102872741D01*
X73697339Y-102900000D01*
X73703553Y-102900000D01*
X73096671Y-103506880D01*
X73212823Y-103578798D01*
X73217959Y-103581356D01*
X73216743Y-103583797D01*
X73263020Y-103619196D01*
X73286755Y-103684911D01*
X73271195Y-103753026D01*
X73221278Y-103801915D01*
X73215391Y-103804853D01*
X73052171Y-103880964D01*
X73052169Y-103880965D01*
X72858597Y-104016505D01*
X72691505Y-104183597D01*
X72555965Y-104377169D01*
X72555964Y-104377171D01*
X72516937Y-104460865D01*
X72470764Y-104513304D01*
X72403571Y-104532456D01*
X72336689Y-104512240D01*
X72292173Y-104460865D01*
X72276668Y-104427615D01*
X72233123Y-104365428D01*
X71672962Y-104925589D01*
X71655925Y-104862007D01*
X71590099Y-104747993D01*
X71497007Y-104654901D01*
X71382993Y-104589075D01*
X71319409Y-104572037D01*
X71879571Y-104011874D01*
X71817387Y-103968333D01*
X71619159Y-103875898D01*
X71619150Y-103875894D01*
X71407894Y-103819289D01*
X71407884Y-103819287D01*
X71190001Y-103800225D01*
X71189999Y-103800225D01*
X70972115Y-103819287D01*
X70972105Y-103819289D01*
X70760849Y-103875894D01*
X70760840Y-103875898D01*
X70562614Y-103968332D01*
X70562612Y-103968333D01*
X70500428Y-104011875D01*
X70500427Y-104011875D01*
X71060590Y-104572037D01*
X70997007Y-104589075D01*
X70882993Y-104654901D01*
X70789901Y-104747993D01*
X70724075Y-104862007D01*
X70707037Y-104925590D01*
X70146875Y-104365427D01*
X70146875Y-104365428D01*
X70103333Y-104427612D01*
X70103332Y-104427614D01*
X70087827Y-104460866D01*
X70041654Y-104513305D01*
X69974461Y-104532457D01*
X69907580Y-104512241D01*
X69863063Y-104460866D01*
X69824035Y-104377171D01*
X69824034Y-104377169D01*
X69688494Y-104183597D01*
X69521402Y-104016506D01*
X69521395Y-104016501D01*
X69514788Y-104011875D01*
X69327833Y-103880967D01*
X69327823Y-103880960D01*
X69327657Y-103880864D01*
X69327598Y-103880802D01*
X69323396Y-103877860D01*
X69323987Y-103877015D01*
X69279444Y-103830294D01*
X69266225Y-103761687D01*
X69292197Y-103696823D01*
X69337253Y-103661102D01*
X69402734Y-103630568D01*
X69589139Y-103500047D01*
X69750047Y-103339139D01*
X69880568Y-103152734D01*
X69976739Y-102946496D01*
X70035635Y-102726692D01*
X70055468Y-102500000D01*
X70035635Y-102273308D01*
X69986972Y-102091695D01*
X69976741Y-102053511D01*
X69976738Y-102053502D01*
X69975105Y-102050000D01*
X69880568Y-101847266D01*
X69750047Y-101660861D01*
X69750045Y-101660858D01*
X69589141Y-101499954D01*
X69402734Y-101369432D01*
X69402732Y-101369431D01*
X69196497Y-101273261D01*
X69196488Y-101273258D01*
X68976697Y-101214366D01*
X68976693Y-101214365D01*
X68976692Y-101214365D01*
X68976691Y-101214364D01*
X68976686Y-101214364D01*
X68750002Y-101194532D01*
X68749998Y-101194532D01*
X68523313Y-101214364D01*
X68523302Y-101214366D01*
X68303511Y-101273258D01*
X68303502Y-101273261D01*
X68097267Y-101369431D01*
X68097265Y-101369432D01*
X67910858Y-101499954D01*
X67749954Y-101660858D01*
X67619432Y-101847265D01*
X67619431Y-101847267D01*
X67523261Y-102053502D01*
X67523258Y-102053511D01*
X67464366Y-102273302D01*
X67464364Y-102273313D01*
X67444532Y-102499998D01*
X67444532Y-102500001D01*
X67464364Y-102726686D01*
X67464366Y-102726697D01*
X67523258Y-102946488D01*
X67523261Y-102946497D01*
X67619431Y-103152732D01*
X67619432Y-103152734D01*
X67749954Y-103339141D01*
X67910858Y-103500045D01*
X67910861Y-103500047D01*
X68085980Y-103622666D01*
X68129605Y-103677241D01*
X68136799Y-103746740D01*
X68105277Y-103809094D01*
X68067263Y-103836622D01*
X67972168Y-103880966D01*
X67778597Y-104016505D01*
X67611505Y-104183597D01*
X67475965Y-104377169D01*
X67475964Y-104377171D01*
X67376098Y-104591335D01*
X67376094Y-104591344D01*
X67314938Y-104819586D01*
X67314936Y-104819596D01*
X67294341Y-105054999D01*
X60714896Y-105054999D01*
X60808495Y-104961401D01*
X60944035Y-104767830D01*
X61043903Y-104553663D01*
X61105063Y-104325408D01*
X61125659Y-104090000D01*
X61105063Y-103854592D01*
X61043903Y-103626337D01*
X60944035Y-103412171D01*
X60938425Y-103404158D01*
X60808494Y-103218597D01*
X60641402Y-103051506D01*
X60641396Y-103051501D01*
X60455842Y-102921575D01*
X60412217Y-102866998D01*
X60405023Y-102797500D01*
X60436546Y-102735145D01*
X60455842Y-102718425D01*
X60515321Y-102676777D01*
X60641401Y-102588495D01*
X60808495Y-102421401D01*
X60944035Y-102227830D01*
X61043903Y-102013663D01*
X61105063Y-101785408D01*
X61125659Y-101550000D01*
X61105063Y-101314592D01*
X61043903Y-101086337D01*
X60944035Y-100872171D01*
X60858841Y-100750500D01*
X60808494Y-100678597D01*
X60641402Y-100511506D01*
X60641396Y-100511501D01*
X60455842Y-100381575D01*
X60412217Y-100326998D01*
X60405023Y-100257500D01*
X60436546Y-100195145D01*
X60455842Y-100178425D01*
X60478026Y-100162891D01*
X60641401Y-100048495D01*
X60808495Y-99881401D01*
X60944035Y-99687830D01*
X61043903Y-99473663D01*
X61103834Y-99249994D01*
X66034357Y-99249994D01*
X66034357Y-99250005D01*
X66054890Y-99497812D01*
X66054892Y-99497824D01*
X66115936Y-99738881D01*
X66215826Y-99966606D01*
X66351833Y-100174782D01*
X66360348Y-100184032D01*
X66520256Y-100357738D01*
X66716491Y-100510474D01*
X66935190Y-100628828D01*
X67170386Y-100709571D01*
X67415665Y-100750500D01*
X67664335Y-100750500D01*
X67909614Y-100709571D01*
X68144810Y-100628828D01*
X68363509Y-100510474D01*
X68559744Y-100357738D01*
X68728164Y-100174785D01*
X68864173Y-99966607D01*
X68964063Y-99738881D01*
X69025108Y-99497821D01*
X69025109Y-99497812D01*
X69045643Y-99250005D01*
X69045643Y-99249994D01*
X71135202Y-99249994D01*
X71135202Y-99250005D01*
X71154361Y-99481218D01*
X71211317Y-99706135D01*
X71304516Y-99918609D01*
X71388811Y-100047633D01*
X72057037Y-99379408D01*
X72074075Y-99442993D01*
X72139901Y-99557007D01*
X72232993Y-99650099D01*
X72347007Y-99715925D01*
X72410590Y-99732962D01*
X71741201Y-100402351D01*
X71771649Y-100426050D01*
X71975697Y-100536476D01*
X71975706Y-100536479D01*
X72195139Y-100611811D01*
X72423993Y-100650000D01*
X72656007Y-100650000D01*
X72884860Y-100611811D01*
X73104293Y-100536479D01*
X73104301Y-100536476D01*
X73308355Y-100426047D01*
X73338797Y-100402351D01*
X73338798Y-100402350D01*
X72669410Y-99732962D01*
X72732993Y-99715925D01*
X72847007Y-99650099D01*
X72940099Y-99557007D01*
X73005925Y-99442993D01*
X73022962Y-99379410D01*
X73691186Y-100047634D01*
X73775484Y-99918606D01*
X73868682Y-99706135D01*
X73925638Y-99481218D01*
X73944798Y-99250005D01*
X73944798Y-99249994D01*
X73925638Y-99018781D01*
X73868682Y-98793864D01*
X73775483Y-98581390D01*
X73691186Y-98452364D01*
X73022962Y-99120589D01*
X73005925Y-99057007D01*
X72940099Y-98942993D01*
X72847007Y-98849901D01*
X72732993Y-98784075D01*
X72669409Y-98767037D01*
X73338797Y-98097647D01*
X73338797Y-98097645D01*
X73308360Y-98073955D01*
X73308354Y-98073951D01*
X73104302Y-97963523D01*
X73104293Y-97963520D01*
X72884860Y-97888188D01*
X72656007Y-97850000D01*
X72423993Y-97850000D01*
X72195139Y-97888188D01*
X71975706Y-97963520D01*
X71975697Y-97963523D01*
X71771650Y-98073949D01*
X71741200Y-98097647D01*
X72410591Y-98767037D01*
X72347007Y-98784075D01*
X72232993Y-98849901D01*
X72139901Y-98942993D01*
X72074075Y-99057007D01*
X72057037Y-99120590D01*
X71388812Y-98452365D01*
X71304516Y-98581391D01*
X71304514Y-98581395D01*
X71211317Y-98793864D01*
X71154361Y-99018781D01*
X71135202Y-99249994D01*
X69045643Y-99249994D01*
X69025109Y-99002187D01*
X69025107Y-99002175D01*
X68964063Y-98761118D01*
X68864173Y-98533393D01*
X68728166Y-98325217D01*
X68706557Y-98301744D01*
X68559744Y-98142262D01*
X68363509Y-97989526D01*
X68363507Y-97989525D01*
X68363506Y-97989524D01*
X68144811Y-97871172D01*
X68144802Y-97871169D01*
X67909616Y-97790429D01*
X67664335Y-97749500D01*
X67415665Y-97749500D01*
X67170383Y-97790429D01*
X66935197Y-97871169D01*
X66935188Y-97871172D01*
X66716493Y-97989524D01*
X66520257Y-98142261D01*
X66351833Y-98325217D01*
X66215826Y-98533393D01*
X66115936Y-98761118D01*
X66054892Y-99002175D01*
X66054890Y-99002187D01*
X66034357Y-99249994D01*
X61103834Y-99249994D01*
X61105063Y-99245408D01*
X61125659Y-99010000D01*
X61124975Y-99002187D01*
X61121539Y-98962918D01*
X61105063Y-98774592D01*
X61043903Y-98546337D01*
X60944035Y-98332171D01*
X60939165Y-98325215D01*
X60808494Y-98138597D01*
X60641402Y-97971506D01*
X60641395Y-97971501D01*
X60630001Y-97963523D01*
X60539964Y-97900478D01*
X60447834Y-97835967D01*
X60447830Y-97835965D01*
X60442752Y-97833597D01*
X60364133Y-97796936D01*
X60311695Y-97750765D01*
X60292543Y-97683571D01*
X60312759Y-97616690D01*
X60364135Y-97572172D01*
X60397389Y-97556665D01*
X60576554Y-97431212D01*
X60731212Y-97276554D01*
X60856666Y-97097387D01*
X60949101Y-96899159D01*
X60949105Y-96899150D01*
X60997108Y-96720000D01*
X60203012Y-96720000D01*
X60235925Y-96662993D01*
X60270000Y-96535826D01*
X60270000Y-96404174D01*
X60235925Y-96277007D01*
X60203012Y-96220000D01*
X60997108Y-96220000D01*
X60997108Y-96219999D01*
X60949105Y-96040849D01*
X60949101Y-96040840D01*
X60856666Y-95842612D01*
X60856664Y-95842608D01*
X60731216Y-95663450D01*
X60731211Y-95663444D01*
X60576554Y-95508787D01*
X60397386Y-95383332D01*
X60397382Y-95383330D01*
X60364133Y-95367825D01*
X60311694Y-95321652D01*
X60292543Y-95254458D01*
X60312760Y-95187578D01*
X60364130Y-95143064D01*
X60447830Y-95104035D01*
X60641401Y-94968495D01*
X60808495Y-94801401D01*
X60944035Y-94607830D01*
X61043903Y-94393663D01*
X61105063Y-94165408D01*
X61125659Y-93930000D01*
X61105063Y-93694592D01*
X61043903Y-93466337D01*
X60944035Y-93252171D01*
X60938425Y-93244158D01*
X60808494Y-93058597D01*
X60641402Y-92891506D01*
X60641396Y-92891501D01*
X60455842Y-92761575D01*
X60412217Y-92706998D01*
X60405023Y-92637500D01*
X60436546Y-92575145D01*
X60455842Y-92558425D01*
X60572607Y-92476665D01*
X60641401Y-92428495D01*
X60808495Y-92261401D01*
X60816478Y-92250000D01*
X62334592Y-92250000D01*
X62354201Y-92536680D01*
X62354201Y-92536684D01*
X62354202Y-92536686D01*
X62364555Y-92586506D01*
X62412666Y-92818034D01*
X62412667Y-92818037D01*
X62508894Y-93088793D01*
X62508893Y-93088793D01*
X62641098Y-93343935D01*
X62806812Y-93578700D01*
X62850053Y-93624999D01*
X63002947Y-93788708D01*
X63225853Y-93970055D01*
X63420896Y-94088664D01*
X63471382Y-94119365D01*
X63658237Y-94200526D01*
X63734942Y-94233844D01*
X64011642Y-94311371D01*
X64261920Y-94345771D01*
X64296321Y-94350500D01*
X64296322Y-94350500D01*
X64583679Y-94350500D01*
X64614370Y-94346281D01*
X64868358Y-94311371D01*
X65145058Y-94233844D01*
X65258015Y-94184779D01*
X65408617Y-94119365D01*
X65408620Y-94119363D01*
X65408625Y-94119361D01*
X65654147Y-93970055D01*
X65877053Y-93788708D01*
X66073189Y-93578698D01*
X66238901Y-93343936D01*
X66371104Y-93088797D01*
X66467334Y-92818032D01*
X66525798Y-92536686D01*
X66545408Y-92250000D01*
X73534592Y-92250000D01*
X73554201Y-92536680D01*
X73554201Y-92536684D01*
X73554202Y-92536686D01*
X73564555Y-92586506D01*
X73612666Y-92818034D01*
X73612667Y-92818037D01*
X73708894Y-93088793D01*
X73708893Y-93088793D01*
X73841098Y-93343935D01*
X74006812Y-93578700D01*
X74050053Y-93624999D01*
X74202947Y-93788708D01*
X74425853Y-93970055D01*
X74620896Y-94088664D01*
X74671382Y-94119365D01*
X74858237Y-94200526D01*
X74934942Y-94233844D01*
X75211642Y-94311371D01*
X75461920Y-94345771D01*
X75496321Y-94350500D01*
X75496322Y-94350500D01*
X75783679Y-94350500D01*
X75814370Y-94346281D01*
X76068358Y-94311371D01*
X76345058Y-94233844D01*
X76458015Y-94184779D01*
X76608617Y-94119365D01*
X76608620Y-94119363D01*
X76608625Y-94119361D01*
X76854147Y-93970055D01*
X77077053Y-93788708D01*
X77273189Y-93578698D01*
X77438901Y-93343936D01*
X77571104Y-93088797D01*
X77667334Y-92818032D01*
X77725798Y-92536686D01*
X77745408Y-92250000D01*
X77725798Y-91963314D01*
X77667334Y-91681968D01*
X77571105Y-91411206D01*
X77571106Y-91411206D01*
X77438901Y-91156064D01*
X77273187Y-90921299D01*
X77194554Y-90837105D01*
X77077053Y-90711292D01*
X76854147Y-90529945D01*
X76854146Y-90529944D01*
X76608617Y-90380634D01*
X76345063Y-90266158D01*
X76345061Y-90266157D01*
X76345058Y-90266156D01*
X76185945Y-90221575D01*
X76068364Y-90188630D01*
X76068359Y-90188629D01*
X76068358Y-90188629D01*
X75910983Y-90166998D01*
X75783679Y-90149500D01*
X75783678Y-90149500D01*
X75496322Y-90149500D01*
X75496321Y-90149500D01*
X75211642Y-90188629D01*
X75211635Y-90188630D01*
X75016481Y-90243310D01*
X74934942Y-90266156D01*
X74934939Y-90266156D01*
X74934936Y-90266158D01*
X74934935Y-90266158D01*
X74671382Y-90380634D01*
X74425853Y-90529944D01*
X74202950Y-90711289D01*
X74006812Y-90921299D01*
X73841098Y-91156064D01*
X73708894Y-91411206D01*
X73612667Y-91681962D01*
X73612666Y-91681965D01*
X73554201Y-91963319D01*
X73534592Y-92250000D01*
X66545408Y-92250000D01*
X66525798Y-91963314D01*
X66467334Y-91681968D01*
X66371105Y-91411206D01*
X66371106Y-91411206D01*
X66238901Y-91156064D01*
X66073187Y-90921299D01*
X65994554Y-90837105D01*
X65877053Y-90711292D01*
X65654147Y-90529945D01*
X65654146Y-90529944D01*
X65408617Y-90380634D01*
X65145063Y-90266158D01*
X65145061Y-90266157D01*
X65145058Y-90266156D01*
X64985945Y-90221575D01*
X64868364Y-90188630D01*
X64868359Y-90188629D01*
X64868358Y-90188629D01*
X64710983Y-90166998D01*
X64583679Y-90149500D01*
X64583678Y-90149500D01*
X64296322Y-90149500D01*
X64296321Y-90149500D01*
X64011642Y-90188629D01*
X64011635Y-90188630D01*
X63816481Y-90243310D01*
X63734942Y-90266156D01*
X63734939Y-90266156D01*
X63734936Y-90266158D01*
X63734935Y-90266158D01*
X63471382Y-90380634D01*
X63225853Y-90529944D01*
X63002950Y-90711289D01*
X62806812Y-90921299D01*
X62641098Y-91156064D01*
X62508894Y-91411206D01*
X62412667Y-91681962D01*
X62412666Y-91681965D01*
X62354201Y-91963319D01*
X62334592Y-92250000D01*
X60816478Y-92250000D01*
X60944035Y-92067830D01*
X61043903Y-91853663D01*
X61105063Y-91625408D01*
X61125659Y-91390000D01*
X61105063Y-91154592D01*
X61043903Y-90926337D01*
X60944035Y-90712171D01*
X60943418Y-90711289D01*
X60808494Y-90518597D01*
X60641402Y-90351506D01*
X60641396Y-90351501D01*
X60455842Y-90221575D01*
X60412217Y-90166998D01*
X60405023Y-90097500D01*
X60436546Y-90035145D01*
X60455842Y-90018425D01*
X60478026Y-90002891D01*
X60641401Y-89888495D01*
X60808495Y-89721401D01*
X60944035Y-89527830D01*
X61043903Y-89313663D01*
X61105063Y-89085408D01*
X61125659Y-88850000D01*
X61105063Y-88614592D01*
X61043903Y-88386337D01*
X60944035Y-88172171D01*
X60938425Y-88164158D01*
X60808494Y-87978597D01*
X60641402Y-87811506D01*
X60641396Y-87811501D01*
X60455842Y-87681575D01*
X60412217Y-87626998D01*
X60405023Y-87557500D01*
X60436546Y-87495145D01*
X60455842Y-87478425D01*
X60478026Y-87462891D01*
X60641401Y-87348495D01*
X60808495Y-87181401D01*
X60944035Y-86987830D01*
X61043903Y-86773663D01*
X61105063Y-86545408D01*
X61125659Y-86310000D01*
X61105063Y-86074592D01*
X61043903Y-85846337D01*
X60944035Y-85632171D01*
X60938425Y-85624158D01*
X60808494Y-85438597D01*
X60641402Y-85271506D01*
X60641396Y-85271501D01*
X60455842Y-85141575D01*
X60412217Y-85086998D01*
X60405023Y-85017500D01*
X60436546Y-84955145D01*
X60455842Y-84938425D01*
X60586780Y-84846741D01*
X60641401Y-84808495D01*
X60699902Y-84749994D01*
X66034357Y-84749994D01*
X66034357Y-84750005D01*
X66054890Y-84997812D01*
X66054892Y-84997824D01*
X66115936Y-85238881D01*
X66215826Y-85466606D01*
X66351833Y-85674782D01*
X66351835Y-85674784D01*
X66351836Y-85674785D01*
X66520256Y-85857738D01*
X66716491Y-86010474D01*
X66935190Y-86128828D01*
X67170386Y-86209571D01*
X67415665Y-86250500D01*
X67664335Y-86250500D01*
X67909614Y-86209571D01*
X68144810Y-86128828D01*
X68363509Y-86010474D01*
X68559744Y-85857738D01*
X68728164Y-85674785D01*
X68774791Y-85603415D01*
X68827934Y-85558062D01*
X68888002Y-85548443D01*
X69557037Y-84879408D01*
X69574075Y-84942993D01*
X69639901Y-85057007D01*
X69732993Y-85150099D01*
X69847007Y-85215925D01*
X69910590Y-85232962D01*
X69241201Y-85902351D01*
X69271649Y-85926050D01*
X69475697Y-86036476D01*
X69475706Y-86036479D01*
X69695139Y-86111811D01*
X69923993Y-86150000D01*
X70156007Y-86150000D01*
X70384860Y-86111811D01*
X70604293Y-86036479D01*
X70604301Y-86036476D01*
X70808355Y-85926047D01*
X70838797Y-85902351D01*
X70838798Y-85902350D01*
X70169410Y-85232962D01*
X70232993Y-85215925D01*
X70347007Y-85150099D01*
X70440099Y-85057007D01*
X70505925Y-84942993D01*
X70522962Y-84879409D01*
X71192097Y-85548544D01*
X71257319Y-85560563D01*
X71305209Y-85603417D01*
X71351836Y-85674785D01*
X71520256Y-85857738D01*
X71716491Y-86010474D01*
X71935190Y-86128828D01*
X72170386Y-86209571D01*
X72415665Y-86250500D01*
X72664335Y-86250500D01*
X72909614Y-86209571D01*
X73144810Y-86128828D01*
X73363509Y-86010474D01*
X73559744Y-85857738D01*
X73728164Y-85674785D01*
X73864173Y-85466607D01*
X73964063Y-85238881D01*
X74025108Y-84997821D01*
X74025109Y-84997812D01*
X74045643Y-84750005D01*
X74045643Y-84749994D01*
X74025109Y-84502187D01*
X74025107Y-84502175D01*
X73964063Y-84261118D01*
X73864173Y-84033393D01*
X73728166Y-83825217D01*
X73677334Y-83769999D01*
X73559744Y-83642262D01*
X73363509Y-83489526D01*
X73363507Y-83489525D01*
X73363506Y-83489524D01*
X73144811Y-83371172D01*
X73144802Y-83371169D01*
X72909616Y-83290429D01*
X72664335Y-83249500D01*
X72415665Y-83249500D01*
X72170383Y-83290429D01*
X71935197Y-83371169D01*
X71935188Y-83371172D01*
X71716493Y-83489524D01*
X71548858Y-83620000D01*
X71520256Y-83642262D01*
X71351836Y-83825215D01*
X71337801Y-83846697D01*
X71305209Y-83896582D01*
X71252062Y-83941938D01*
X71191997Y-83951554D01*
X70522962Y-84620589D01*
X70505925Y-84557007D01*
X70440099Y-84442993D01*
X70347007Y-84349901D01*
X70232993Y-84284075D01*
X70169409Y-84267037D01*
X70838797Y-83597647D01*
X70838797Y-83597645D01*
X70808360Y-83573955D01*
X70808354Y-83573951D01*
X70604302Y-83463523D01*
X70604293Y-83463520D01*
X70384860Y-83388188D01*
X70156007Y-83350000D01*
X69923993Y-83350000D01*
X69695139Y-83388188D01*
X69475706Y-83463520D01*
X69475697Y-83463523D01*
X69271650Y-83573949D01*
X69241200Y-83597647D01*
X69910591Y-84267037D01*
X69847007Y-84284075D01*
X69732993Y-84349901D01*
X69639901Y-84442993D01*
X69574075Y-84557007D01*
X69557037Y-84620590D01*
X68887901Y-83951454D01*
X68822677Y-83939433D01*
X68774789Y-83896580D01*
X68728166Y-83825217D01*
X68677334Y-83769999D01*
X68559744Y-83642262D01*
X68363509Y-83489526D01*
X68363507Y-83489525D01*
X68363506Y-83489524D01*
X68144811Y-83371172D01*
X68144802Y-83371169D01*
X67909616Y-83290429D01*
X67664335Y-83249500D01*
X67415665Y-83249500D01*
X67170383Y-83290429D01*
X66935197Y-83371169D01*
X66935188Y-83371172D01*
X66716493Y-83489524D01*
X66520257Y-83642261D01*
X66351833Y-83825217D01*
X66215826Y-84033393D01*
X66115936Y-84261118D01*
X66054892Y-84502175D01*
X66054890Y-84502187D01*
X66034357Y-84749994D01*
X60699902Y-84749994D01*
X60808495Y-84641401D01*
X60944035Y-84447830D01*
X61043903Y-84233663D01*
X61105063Y-84005408D01*
X61125659Y-83770000D01*
X61105063Y-83534592D01*
X61043903Y-83306337D01*
X60944035Y-83092171D01*
X60880432Y-83001335D01*
X60808494Y-82898597D01*
X60641402Y-82731506D01*
X60641396Y-82731501D01*
X60455842Y-82601575D01*
X60412217Y-82546998D01*
X60405023Y-82477500D01*
X60436546Y-82415145D01*
X60455842Y-82398425D01*
X60478026Y-82382891D01*
X60641401Y-82268495D01*
X60808495Y-82101401D01*
X60944035Y-81907830D01*
X61043903Y-81693663D01*
X61105063Y-81465408D01*
X61125659Y-81230000D01*
X61105063Y-80994592D01*
X61043903Y-80766337D01*
X60944035Y-80552171D01*
X60938425Y-80544158D01*
X60907501Y-80499994D01*
X61744357Y-80499994D01*
X61744357Y-80500005D01*
X61764890Y-80747812D01*
X61764892Y-80747824D01*
X61825936Y-80988881D01*
X61925826Y-81216606D01*
X62061833Y-81424782D01*
X62061836Y-81424785D01*
X62230256Y-81607738D01*
X62426491Y-81760474D01*
X62474544Y-81786479D01*
X62619680Y-81865023D01*
X62645190Y-81878828D01*
X62880386Y-81959571D01*
X63125665Y-82000500D01*
X63374335Y-82000500D01*
X63619614Y-81959571D01*
X63854810Y-81878828D01*
X64073509Y-81760474D01*
X64269744Y-81607738D01*
X64438164Y-81424785D01*
X64574173Y-81216607D01*
X64674063Y-80988881D01*
X64735108Y-80747821D01*
X64739933Y-80689592D01*
X64755643Y-80500005D01*
X64755643Y-80499994D01*
X66345202Y-80499994D01*
X66345202Y-80500005D01*
X66364361Y-80731218D01*
X66421317Y-80956135D01*
X66514516Y-81168609D01*
X66598811Y-81297633D01*
X67226212Y-80670233D01*
X67237482Y-80712292D01*
X67309890Y-80837708D01*
X67412292Y-80940110D01*
X67537708Y-81012518D01*
X67579765Y-81023787D01*
X66951201Y-81652351D01*
X66981649Y-81676050D01*
X67185697Y-81786476D01*
X67185706Y-81786479D01*
X67405139Y-81861811D01*
X67633993Y-81900000D01*
X67866007Y-81900000D01*
X68094860Y-81861811D01*
X68314293Y-81786479D01*
X68314301Y-81786476D01*
X68518355Y-81676047D01*
X68548797Y-81652351D01*
X68548798Y-81652350D01*
X67920235Y-81023787D01*
X67962292Y-81012518D01*
X68087708Y-80940110D01*
X68190110Y-80837708D01*
X68262518Y-80712292D01*
X68273787Y-80670234D01*
X68901186Y-81297634D01*
X68985484Y-81168606D01*
X69078682Y-80956135D01*
X69135638Y-80731218D01*
X69154798Y-80500005D01*
X69154798Y-80499994D01*
X70744357Y-80499994D01*
X70744357Y-80500005D01*
X70764890Y-80747812D01*
X70764892Y-80747824D01*
X70825936Y-80988881D01*
X70925826Y-81216606D01*
X71061833Y-81424782D01*
X71061836Y-81424785D01*
X71230256Y-81607738D01*
X71426491Y-81760474D01*
X71474544Y-81786479D01*
X71619680Y-81865023D01*
X71645190Y-81878828D01*
X71880386Y-81959571D01*
X72125665Y-82000500D01*
X72374335Y-82000500D01*
X72619614Y-81959571D01*
X72854810Y-81878828D01*
X73073509Y-81760474D01*
X73269744Y-81607738D01*
X73438164Y-81424785D01*
X73574173Y-81216607D01*
X73674063Y-80988881D01*
X73735108Y-80747821D01*
X73739933Y-80689592D01*
X73755643Y-80500005D01*
X73755643Y-80499994D01*
X75345202Y-80499994D01*
X75345202Y-80500005D01*
X75364361Y-80731218D01*
X75421317Y-80956135D01*
X75514516Y-81168609D01*
X75598811Y-81297633D01*
X76226212Y-80670233D01*
X76237482Y-80712292D01*
X76309890Y-80837708D01*
X76412292Y-80940110D01*
X76537708Y-81012518D01*
X76579765Y-81023787D01*
X75951201Y-81652351D01*
X75981649Y-81676050D01*
X76185697Y-81786476D01*
X76185706Y-81786479D01*
X76405139Y-81861811D01*
X76633993Y-81900000D01*
X76866007Y-81900000D01*
X77094860Y-81861811D01*
X77314293Y-81786479D01*
X77314301Y-81786476D01*
X77518355Y-81676047D01*
X77548797Y-81652351D01*
X77548798Y-81652350D01*
X76920235Y-81023787D01*
X76962292Y-81012518D01*
X77087708Y-80940110D01*
X77190110Y-80837708D01*
X77262518Y-80712292D01*
X77273787Y-80670234D01*
X77901186Y-81297634D01*
X77985484Y-81168606D01*
X78078682Y-80956135D01*
X78135638Y-80731218D01*
X78154798Y-80500005D01*
X78154798Y-80499994D01*
X78135638Y-80268781D01*
X78078682Y-80043864D01*
X77985483Y-79831390D01*
X77901186Y-79702364D01*
X77273787Y-80329764D01*
X77262518Y-80287708D01*
X77190110Y-80162292D01*
X77087708Y-80059890D01*
X76962292Y-79987482D01*
X76920233Y-79976212D01*
X77548797Y-79347647D01*
X77548797Y-79347645D01*
X77518360Y-79323955D01*
X77518354Y-79323951D01*
X77314302Y-79213523D01*
X77314293Y-79213520D01*
X77094860Y-79138188D01*
X76866007Y-79100000D01*
X76633993Y-79100000D01*
X76405139Y-79138188D01*
X76185706Y-79213520D01*
X76185697Y-79213523D01*
X75981650Y-79323949D01*
X75951200Y-79347647D01*
X76579766Y-79976212D01*
X76537708Y-79987482D01*
X76412292Y-80059890D01*
X76309890Y-80162292D01*
X76237482Y-80287708D01*
X76226212Y-80329765D01*
X75598812Y-79702365D01*
X75514516Y-79831391D01*
X75514514Y-79831395D01*
X75421317Y-80043864D01*
X75364361Y-80268781D01*
X75345202Y-80499994D01*
X73755643Y-80499994D01*
X73735109Y-80252187D01*
X73735107Y-80252175D01*
X73674063Y-80011118D01*
X73574173Y-79783393D01*
X73438166Y-79575217D01*
X73416557Y-79551744D01*
X73269744Y-79392262D01*
X73073509Y-79239526D01*
X73073507Y-79239525D01*
X73073506Y-79239524D01*
X72854811Y-79121172D01*
X72854802Y-79121169D01*
X72619616Y-79040429D01*
X72374335Y-78999500D01*
X72125665Y-78999500D01*
X71880383Y-79040429D01*
X71645197Y-79121169D01*
X71645188Y-79121172D01*
X71426493Y-79239524D01*
X71230257Y-79392261D01*
X71061833Y-79575217D01*
X70925826Y-79783393D01*
X70825936Y-80011118D01*
X70764892Y-80252175D01*
X70764890Y-80252187D01*
X70744357Y-80499994D01*
X69154798Y-80499994D01*
X69135638Y-80268781D01*
X69078682Y-80043864D01*
X68985483Y-79831390D01*
X68901186Y-79702364D01*
X68273787Y-80329764D01*
X68262518Y-80287708D01*
X68190110Y-80162292D01*
X68087708Y-80059890D01*
X67962292Y-79987482D01*
X67920233Y-79976212D01*
X68548797Y-79347647D01*
X68548797Y-79347645D01*
X68518360Y-79323955D01*
X68518354Y-79323951D01*
X68314302Y-79213523D01*
X68314293Y-79213520D01*
X68094860Y-79138188D01*
X67866007Y-79100000D01*
X67633993Y-79100000D01*
X67405139Y-79138188D01*
X67185706Y-79213520D01*
X67185697Y-79213523D01*
X66981650Y-79323949D01*
X66951200Y-79347647D01*
X67579766Y-79976212D01*
X67537708Y-79987482D01*
X67412292Y-80059890D01*
X67309890Y-80162292D01*
X67237482Y-80287708D01*
X67226212Y-80329765D01*
X66598812Y-79702365D01*
X66514516Y-79831391D01*
X66514514Y-79831395D01*
X66421317Y-80043864D01*
X66364361Y-80268781D01*
X66345202Y-80499994D01*
X64755643Y-80499994D01*
X64735109Y-80252187D01*
X64735107Y-80252175D01*
X64674063Y-80011118D01*
X64574173Y-79783393D01*
X64438166Y-79575217D01*
X64416557Y-79551744D01*
X64269744Y-79392262D01*
X64073509Y-79239526D01*
X64073507Y-79239525D01*
X64073506Y-79239524D01*
X63854811Y-79121172D01*
X63854802Y-79121169D01*
X63619616Y-79040429D01*
X63374335Y-78999500D01*
X63125665Y-78999500D01*
X62880383Y-79040429D01*
X62645197Y-79121169D01*
X62645188Y-79121172D01*
X62426493Y-79239524D01*
X62230257Y-79392261D01*
X62061833Y-79575217D01*
X61925826Y-79783393D01*
X61825936Y-80011118D01*
X61764892Y-80252175D01*
X61764890Y-80252187D01*
X61744357Y-80499994D01*
X60907501Y-80499994D01*
X60808494Y-80358597D01*
X60641402Y-80191506D01*
X60641396Y-80191501D01*
X60455842Y-80061575D01*
X60412217Y-80006998D01*
X60405023Y-79937500D01*
X60436546Y-79875145D01*
X60455842Y-79858425D01*
X60494452Y-79831390D01*
X60641401Y-79728495D01*
X60808495Y-79561401D01*
X60944035Y-79367830D01*
X61043903Y-79153663D01*
X61105063Y-78925408D01*
X61125659Y-78690000D01*
X61105063Y-78454592D01*
X61086416Y-78384999D01*
X80629341Y-78384999D01*
X80629341Y-78385000D01*
X80649936Y-78620403D01*
X80649938Y-78620413D01*
X80711094Y-78848655D01*
X80711096Y-78848659D01*
X80711097Y-78848663D01*
X80781434Y-78999500D01*
X80810965Y-79062830D01*
X80810967Y-79062834D01*
X80946501Y-79256395D01*
X80946506Y-79256402D01*
X81113597Y-79423493D01*
X81113603Y-79423498D01*
X81299158Y-79553425D01*
X81342783Y-79608002D01*
X81349977Y-79677500D01*
X81318454Y-79739855D01*
X81299158Y-79756575D01*
X81113597Y-79886505D01*
X80946505Y-80053597D01*
X80810965Y-80247169D01*
X80810964Y-80247171D01*
X80711098Y-80461335D01*
X80711094Y-80461344D01*
X80649938Y-80689586D01*
X80649936Y-80689596D01*
X80629341Y-80924999D01*
X80629341Y-80925000D01*
X80649936Y-81160403D01*
X80649938Y-81160413D01*
X80711094Y-81388655D01*
X80711096Y-81388659D01*
X80711097Y-81388663D01*
X80810965Y-81602830D01*
X80810967Y-81602834D01*
X80880427Y-81702032D01*
X80939555Y-81786476D01*
X80946501Y-81796395D01*
X80946506Y-81796402D01*
X81113597Y-81963493D01*
X81113603Y-81963498D01*
X81299158Y-82093425D01*
X81342783Y-82148002D01*
X81349977Y-82217500D01*
X81318454Y-82279855D01*
X81299158Y-82296575D01*
X81113597Y-82426505D01*
X80946505Y-82593597D01*
X80810965Y-82787169D01*
X80810964Y-82787171D01*
X80711098Y-83001335D01*
X80711094Y-83001344D01*
X80649938Y-83229586D01*
X80649936Y-83229596D01*
X80629341Y-83464999D01*
X80629341Y-83465000D01*
X80649936Y-83700403D01*
X80649938Y-83700413D01*
X80711094Y-83928655D01*
X80711096Y-83928659D01*
X80711097Y-83928663D01*
X80759934Y-84033393D01*
X80810965Y-84142830D01*
X80810967Y-84142834D01*
X80946501Y-84336395D01*
X80946506Y-84336402D01*
X81113597Y-84503493D01*
X81113603Y-84503498D01*
X81299158Y-84633425D01*
X81342783Y-84688002D01*
X81349977Y-84757500D01*
X81318454Y-84819855D01*
X81299158Y-84836575D01*
X81113597Y-84966505D01*
X80946505Y-85133597D01*
X80810965Y-85327169D01*
X80810964Y-85327171D01*
X80711098Y-85541335D01*
X80711094Y-85541344D01*
X80649938Y-85769586D01*
X80649936Y-85769596D01*
X80629341Y-86004999D01*
X80629341Y-86005000D01*
X80649936Y-86240403D01*
X80649938Y-86240413D01*
X80711094Y-86468655D01*
X80711096Y-86468659D01*
X80711097Y-86468663D01*
X80810965Y-86682830D01*
X80810967Y-86682834D01*
X80946501Y-86876395D01*
X80946506Y-86876402D01*
X81113597Y-87043493D01*
X81113603Y-87043498D01*
X81299158Y-87173425D01*
X81342783Y-87228002D01*
X81349977Y-87297500D01*
X81318454Y-87359855D01*
X81299158Y-87376575D01*
X81113597Y-87506505D01*
X80946505Y-87673597D01*
X80810965Y-87867169D01*
X80810964Y-87867171D01*
X80711098Y-88081335D01*
X80711094Y-88081344D01*
X80649938Y-88309586D01*
X80649936Y-88309596D01*
X80629341Y-88544999D01*
X80629341Y-88545000D01*
X80649936Y-88780403D01*
X80649938Y-88780413D01*
X80711094Y-89008655D01*
X80711096Y-89008659D01*
X80711097Y-89008663D01*
X80810965Y-89222830D01*
X80810967Y-89222834D01*
X80946501Y-89416395D01*
X80946506Y-89416402D01*
X81113597Y-89583493D01*
X81113603Y-89583498D01*
X81299158Y-89713425D01*
X81342783Y-89768002D01*
X81349977Y-89837500D01*
X81318454Y-89899855D01*
X81299158Y-89916575D01*
X81113597Y-90046505D01*
X80946505Y-90213597D01*
X80810965Y-90407169D01*
X80810964Y-90407171D01*
X80711098Y-90621335D01*
X80711094Y-90621344D01*
X80649938Y-90849586D01*
X80649936Y-90849596D01*
X80629341Y-91084999D01*
X80629341Y-91085000D01*
X80649936Y-91320403D01*
X80649938Y-91320413D01*
X80711094Y-91548655D01*
X80711096Y-91548659D01*
X80711097Y-91548663D01*
X80780271Y-91697007D01*
X80810965Y-91762830D01*
X80810967Y-91762834D01*
X80946501Y-91956395D01*
X80946506Y-91956402D01*
X81113597Y-92123493D01*
X81113603Y-92123498D01*
X81299158Y-92253425D01*
X81342783Y-92308002D01*
X81349977Y-92377500D01*
X81318454Y-92439855D01*
X81299158Y-92456575D01*
X81113597Y-92586505D01*
X80946505Y-92753597D01*
X80810965Y-92947169D01*
X80810964Y-92947171D01*
X80711098Y-93161335D01*
X80711094Y-93161344D01*
X80649938Y-93389586D01*
X80649936Y-93389596D01*
X80629341Y-93624999D01*
X80629341Y-93625000D01*
X80649936Y-93860403D01*
X80649938Y-93860413D01*
X80711094Y-94088655D01*
X80711096Y-94088659D01*
X80711097Y-94088663D01*
X80778795Y-94233841D01*
X80810965Y-94302830D01*
X80810967Y-94302834D01*
X80946501Y-94496395D01*
X80946506Y-94496402D01*
X81113597Y-94663493D01*
X81113603Y-94663498D01*
X81299158Y-94793425D01*
X81342783Y-94848002D01*
X81349977Y-94917500D01*
X81318454Y-94979855D01*
X81299158Y-94996575D01*
X81113597Y-95126505D01*
X80946505Y-95293597D01*
X80810965Y-95487169D01*
X80810964Y-95487171D01*
X80711098Y-95701335D01*
X80711094Y-95701344D01*
X80649938Y-95929586D01*
X80649936Y-95929596D01*
X80629341Y-96164999D01*
X80629341Y-96165000D01*
X80649936Y-96400403D01*
X80649938Y-96400413D01*
X80711094Y-96628655D01*
X80711096Y-96628659D01*
X80711097Y-96628663D01*
X80771482Y-96758158D01*
X80810965Y-96842830D01*
X80810967Y-96842834D01*
X80946501Y-97036395D01*
X80946506Y-97036402D01*
X81113597Y-97203493D01*
X81113603Y-97203498D01*
X81299158Y-97333425D01*
X81342783Y-97388002D01*
X81349977Y-97457500D01*
X81318454Y-97519855D01*
X81299158Y-97536575D01*
X81113597Y-97666505D01*
X80946505Y-97833597D01*
X80810965Y-98027169D01*
X80810964Y-98027171D01*
X80711098Y-98241335D01*
X80711094Y-98241344D01*
X80649938Y-98469586D01*
X80649936Y-98469596D01*
X80629341Y-98704999D01*
X80629341Y-98705000D01*
X80649936Y-98940403D01*
X80649938Y-98940413D01*
X80711094Y-99168655D01*
X80711096Y-99168659D01*
X80711097Y-99168663D01*
X80810965Y-99382830D01*
X80810967Y-99382834D01*
X80891485Y-99497824D01*
X80946505Y-99576401D01*
X81113599Y-99743495D01*
X81210384Y-99811265D01*
X81307165Y-99879032D01*
X81307167Y-99879033D01*
X81307170Y-99879035D01*
X81521337Y-99978903D01*
X81749592Y-100040063D01*
X81937918Y-100056539D01*
X81984999Y-100060659D01*
X81985000Y-100060659D01*
X81985001Y-100060659D01*
X82024234Y-100057226D01*
X82220408Y-100040063D01*
X82448663Y-99978903D01*
X82662830Y-99879035D01*
X82856401Y-99743495D01*
X83023495Y-99576401D01*
X83159035Y-99382830D01*
X83258903Y-99168663D01*
X83320063Y-98940408D01*
X83340659Y-98705000D01*
X83320063Y-98469592D01*
X83258903Y-98241337D01*
X83159035Y-98027171D01*
X83132675Y-97989524D01*
X83023494Y-97833597D01*
X82856402Y-97666506D01*
X82856396Y-97666501D01*
X82670842Y-97536575D01*
X82627217Y-97481998D01*
X82620023Y-97412500D01*
X82651546Y-97350145D01*
X82670842Y-97333425D01*
X82752062Y-97276554D01*
X82856401Y-97203495D01*
X83023495Y-97036401D01*
X83159035Y-96842830D01*
X83258903Y-96628663D01*
X83320063Y-96400408D01*
X83340659Y-96165000D01*
X83320063Y-95929592D01*
X83258903Y-95701337D01*
X83159035Y-95487171D01*
X83143253Y-95464631D01*
X83023494Y-95293597D01*
X82856402Y-95126506D01*
X82856396Y-95126501D01*
X82670842Y-94996575D01*
X82627217Y-94941998D01*
X82620023Y-94872500D01*
X82651546Y-94810145D01*
X82670842Y-94793425D01*
X82693026Y-94777891D01*
X82856401Y-94663495D01*
X83023495Y-94496401D01*
X83159035Y-94302830D01*
X83258903Y-94088663D01*
X83320063Y-93860408D01*
X83340659Y-93625000D01*
X83320063Y-93389592D01*
X83258903Y-93161337D01*
X83159035Y-92947171D01*
X83120059Y-92891506D01*
X83023494Y-92753597D01*
X82856402Y-92586506D01*
X82856396Y-92586501D01*
X82670842Y-92456575D01*
X82627217Y-92401998D01*
X82620023Y-92332500D01*
X82651546Y-92270145D01*
X82670842Y-92253425D01*
X82752062Y-92196554D01*
X82856401Y-92123495D01*
X83023495Y-91956401D01*
X83159035Y-91762830D01*
X83258903Y-91548663D01*
X83320063Y-91320408D01*
X83340659Y-91085000D01*
X83320063Y-90849592D01*
X83258903Y-90621337D01*
X83159035Y-90407171D01*
X83140458Y-90380639D01*
X83023494Y-90213597D01*
X82856402Y-90046506D01*
X82856396Y-90046501D01*
X82670842Y-89916575D01*
X82627217Y-89861998D01*
X82620023Y-89792500D01*
X82651546Y-89730145D01*
X82670842Y-89713425D01*
X82693026Y-89697891D01*
X82856401Y-89583495D01*
X83023495Y-89416401D01*
X83159035Y-89222830D01*
X83258903Y-89008663D01*
X83320063Y-88780408D01*
X83340659Y-88545000D01*
X83320063Y-88309592D01*
X83258903Y-88081337D01*
X83159035Y-87867171D01*
X83120059Y-87811506D01*
X83023494Y-87673597D01*
X82856402Y-87506506D01*
X82856396Y-87506501D01*
X82670842Y-87376575D01*
X82627217Y-87321998D01*
X82620023Y-87252500D01*
X82651546Y-87190145D01*
X82670842Y-87173425D01*
X82693026Y-87157891D01*
X82856401Y-87043495D01*
X83023495Y-86876401D01*
X83159035Y-86682830D01*
X83258903Y-86468663D01*
X83320063Y-86240408D01*
X83340659Y-86005000D01*
X83320063Y-85769592D01*
X83258903Y-85541337D01*
X83159035Y-85327171D01*
X83120059Y-85271506D01*
X83023494Y-85133597D01*
X82856402Y-84966506D01*
X82856396Y-84966501D01*
X82670842Y-84836575D01*
X82627217Y-84781998D01*
X82620023Y-84712500D01*
X82651546Y-84650145D01*
X82670842Y-84633425D01*
X82779978Y-84557007D01*
X82856401Y-84503495D01*
X83023495Y-84336401D01*
X83159035Y-84142830D01*
X83258903Y-83928663D01*
X83320063Y-83700408D01*
X83327098Y-83619998D01*
X86194532Y-83619998D01*
X86194532Y-83620001D01*
X86214364Y-83846686D01*
X86214366Y-83846697D01*
X86273258Y-84066488D01*
X86273261Y-84066497D01*
X86369431Y-84272732D01*
X86369432Y-84272734D01*
X86499954Y-84459141D01*
X86660858Y-84620045D01*
X86660861Y-84620047D01*
X86847266Y-84750568D01*
X87053504Y-84846739D01*
X87053509Y-84846740D01*
X87053511Y-84846741D01*
X87090556Y-84856667D01*
X87273308Y-84905635D01*
X87435230Y-84919801D01*
X87499998Y-84925468D01*
X87500000Y-84925468D01*
X87500002Y-84925468D01*
X87556673Y-84920509D01*
X87726692Y-84905635D01*
X87946496Y-84846739D01*
X88152734Y-84750568D01*
X88339139Y-84620047D01*
X88500047Y-84459139D01*
X88630568Y-84272734D01*
X88726739Y-84066496D01*
X88785635Y-83846692D01*
X88805468Y-83620000D01*
X88785635Y-83393308D01*
X88726739Y-83173504D01*
X88630568Y-82967266D01*
X88500047Y-82780861D01*
X88500045Y-82780858D01*
X88339141Y-82619954D01*
X88152734Y-82489432D01*
X88152732Y-82489431D01*
X87946497Y-82393261D01*
X87946488Y-82393258D01*
X87726697Y-82334366D01*
X87726693Y-82334365D01*
X87726692Y-82334365D01*
X87726691Y-82334364D01*
X87726686Y-82334364D01*
X87500002Y-82314532D01*
X87499998Y-82314532D01*
X87273313Y-82334364D01*
X87273302Y-82334366D01*
X87053511Y-82393258D01*
X87053502Y-82393261D01*
X86847267Y-82489431D01*
X86847265Y-82489432D01*
X86660858Y-82619954D01*
X86499954Y-82780858D01*
X86369432Y-82967265D01*
X86369431Y-82967267D01*
X86273261Y-83173502D01*
X86273258Y-83173511D01*
X86214366Y-83393302D01*
X86214364Y-83393313D01*
X86194532Y-83619998D01*
X83327098Y-83619998D01*
X83340659Y-83465000D01*
X83320063Y-83229592D01*
X83258903Y-83001337D01*
X83159035Y-82787171D01*
X83120059Y-82731506D01*
X83023494Y-82593597D01*
X82856402Y-82426506D01*
X82856396Y-82426501D01*
X82670842Y-82296575D01*
X82627217Y-82241998D01*
X82620023Y-82172500D01*
X82651546Y-82110145D01*
X82670842Y-82093425D01*
X82803552Y-82000500D01*
X82856401Y-81963495D01*
X83023495Y-81796401D01*
X83159035Y-81602830D01*
X83258903Y-81388663D01*
X83320063Y-81160408D01*
X83340659Y-80925000D01*
X83320063Y-80689592D01*
X83258903Y-80461337D01*
X83159035Y-80247171D01*
X83120059Y-80191506D01*
X83023494Y-80053597D01*
X82856402Y-79886506D01*
X82856396Y-79886501D01*
X82670842Y-79756575D01*
X82627217Y-79701998D01*
X82620023Y-79632500D01*
X82651546Y-79570145D01*
X82670842Y-79553425D01*
X82693026Y-79537891D01*
X82856401Y-79423495D01*
X83023495Y-79256401D01*
X83159035Y-79062830D01*
X83258903Y-78848663D01*
X83320063Y-78620408D01*
X83340659Y-78385000D01*
X83320063Y-78149592D01*
X83258903Y-77921337D01*
X83159035Y-77707171D01*
X83120059Y-77651506D01*
X83023494Y-77513597D01*
X82856402Y-77346506D01*
X82856395Y-77346501D01*
X82824310Y-77324035D01*
X82769090Y-77285369D01*
X82662834Y-77210967D01*
X82662830Y-77210965D01*
X82662828Y-77210964D01*
X82448663Y-77111097D01*
X82448659Y-77111096D01*
X82448655Y-77111094D01*
X82220413Y-77049938D01*
X82220403Y-77049936D01*
X81985001Y-77029341D01*
X81984999Y-77029341D01*
X81749596Y-77049936D01*
X81749586Y-77049938D01*
X81521344Y-77111094D01*
X81521337Y-77111096D01*
X81521337Y-77111097D01*
X81507816Y-77117401D01*
X81307171Y-77210964D01*
X81307169Y-77210965D01*
X81113597Y-77346505D01*
X80946505Y-77513597D01*
X80810965Y-77707169D01*
X80810964Y-77707171D01*
X80711098Y-77921335D01*
X80711094Y-77921344D01*
X80649938Y-78149586D01*
X80649936Y-78149596D01*
X80629341Y-78384999D01*
X61086416Y-78384999D01*
X61043903Y-78226337D01*
X60944035Y-78012171D01*
X60938425Y-78004158D01*
X60808494Y-77818597D01*
X60641402Y-77651506D01*
X60641395Y-77651501D01*
X60447834Y-77515967D01*
X60447830Y-77515965D01*
X60442752Y-77513597D01*
X60364133Y-77476936D01*
X60311695Y-77430765D01*
X60292543Y-77363571D01*
X60312759Y-77296690D01*
X60364135Y-77252172D01*
X60397389Y-77236665D01*
X60576554Y-77111212D01*
X60731212Y-76956554D01*
X60856666Y-76777387D01*
X60949101Y-76579159D01*
X60949105Y-76579150D01*
X60997108Y-76400000D01*
X60203012Y-76400000D01*
X60235925Y-76342993D01*
X60270000Y-76215826D01*
X60270000Y-76084174D01*
X60235925Y-75957007D01*
X60203012Y-75900000D01*
X60997108Y-75900000D01*
X60997108Y-75899999D01*
X60949105Y-75720849D01*
X60949101Y-75720840D01*
X60856666Y-75522612D01*
X60856664Y-75522608D01*
X60731216Y-75343450D01*
X60731211Y-75343444D01*
X60576554Y-75188787D01*
X60397386Y-75063332D01*
X60397382Y-75063330D01*
X60364133Y-75047825D01*
X60311694Y-75001652D01*
X60292543Y-74934458D01*
X60312760Y-74867578D01*
X60364130Y-74823064D01*
X60447830Y-74784035D01*
X60641401Y-74648495D01*
X60808495Y-74481401D01*
X60944035Y-74287830D01*
X61043903Y-74073663D01*
X61063642Y-73999994D01*
X61744357Y-73999994D01*
X61744357Y-74000005D01*
X61764890Y-74247812D01*
X61764892Y-74247824D01*
X61825936Y-74488881D01*
X61925826Y-74716606D01*
X62061833Y-74924782D01*
X62072555Y-74936429D01*
X62230256Y-75107738D01*
X62426491Y-75260474D01*
X62474544Y-75286479D01*
X62586868Y-75347266D01*
X62645190Y-75378828D01*
X62880386Y-75459571D01*
X63125665Y-75500500D01*
X63374335Y-75500500D01*
X63619614Y-75459571D01*
X63854810Y-75378828D01*
X64073509Y-75260474D01*
X64269744Y-75107738D01*
X64438164Y-74924785D01*
X64574173Y-74716607D01*
X64674063Y-74488881D01*
X64735108Y-74247821D01*
X64742987Y-74152734D01*
X64755643Y-74000005D01*
X64755643Y-73999994D01*
X66345202Y-73999994D01*
X66345202Y-74000005D01*
X66364361Y-74231218D01*
X66421317Y-74456135D01*
X66514516Y-74668609D01*
X66598811Y-74797633D01*
X67226212Y-74170233D01*
X67237482Y-74212292D01*
X67309890Y-74337708D01*
X67412292Y-74440110D01*
X67537708Y-74512518D01*
X67579765Y-74523787D01*
X66951201Y-75152351D01*
X66981649Y-75176050D01*
X67185697Y-75286476D01*
X67185706Y-75286479D01*
X67405139Y-75361811D01*
X67633993Y-75400000D01*
X67866007Y-75400000D01*
X68094860Y-75361811D01*
X68314293Y-75286479D01*
X68314301Y-75286476D01*
X68518355Y-75176047D01*
X68548797Y-75152351D01*
X68548798Y-75152350D01*
X67920235Y-74523787D01*
X67962292Y-74512518D01*
X68087708Y-74440110D01*
X68190110Y-74337708D01*
X68262518Y-74212292D01*
X68273787Y-74170234D01*
X68901186Y-74797634D01*
X68985484Y-74668606D01*
X69078682Y-74456135D01*
X69135638Y-74231218D01*
X69154798Y-74000005D01*
X69154798Y-73999994D01*
X70744357Y-73999994D01*
X70744357Y-74000005D01*
X70764890Y-74247812D01*
X70764892Y-74247824D01*
X70825936Y-74488881D01*
X70925826Y-74716606D01*
X71061833Y-74924782D01*
X71072555Y-74936429D01*
X71230256Y-75107738D01*
X71426491Y-75260474D01*
X71474544Y-75286479D01*
X71586868Y-75347266D01*
X71645190Y-75378828D01*
X71880386Y-75459571D01*
X72125665Y-75500500D01*
X72374335Y-75500500D01*
X72619614Y-75459571D01*
X72854810Y-75378828D01*
X73073509Y-75260474D01*
X73269744Y-75107738D01*
X73438164Y-74924785D01*
X73574173Y-74716607D01*
X73674063Y-74488881D01*
X73735108Y-74247821D01*
X73742987Y-74152734D01*
X73755643Y-74000005D01*
X73755643Y-73999994D01*
X75345202Y-73999994D01*
X75345202Y-74000005D01*
X75364361Y-74231218D01*
X75421317Y-74456135D01*
X75514516Y-74668609D01*
X75598811Y-74797633D01*
X76226212Y-74170233D01*
X76237482Y-74212292D01*
X76309890Y-74337708D01*
X76412292Y-74440110D01*
X76537708Y-74512518D01*
X76579765Y-74523787D01*
X75951201Y-75152351D01*
X75981649Y-75176050D01*
X76185697Y-75286476D01*
X76185706Y-75286479D01*
X76405139Y-75361811D01*
X76633993Y-75400000D01*
X76866007Y-75400000D01*
X77094860Y-75361811D01*
X77314293Y-75286479D01*
X77314301Y-75286476D01*
X77518355Y-75176047D01*
X77548797Y-75152351D01*
X77548798Y-75152350D01*
X76920235Y-74523787D01*
X76962292Y-74512518D01*
X77087708Y-74440110D01*
X77190110Y-74337708D01*
X77262518Y-74212292D01*
X77273787Y-74170234D01*
X77901186Y-74797634D01*
X77985484Y-74668606D01*
X78078682Y-74456135D01*
X78135638Y-74231218D01*
X78154798Y-74000005D01*
X78154798Y-73999994D01*
X78135638Y-73768781D01*
X78078682Y-73543864D01*
X78059441Y-73499998D01*
X78634532Y-73499998D01*
X78634532Y-73500001D01*
X78654364Y-73726686D01*
X78654366Y-73726697D01*
X78713258Y-73946488D01*
X78713261Y-73946497D01*
X78809431Y-74152732D01*
X78809432Y-74152734D01*
X78939954Y-74339141D01*
X79100858Y-74500045D01*
X79100861Y-74500047D01*
X79287266Y-74630568D01*
X79493504Y-74726739D01*
X79713308Y-74785635D01*
X79864105Y-74798828D01*
X79939998Y-74805468D01*
X79940000Y-74805468D01*
X79940002Y-74805468D01*
X80015895Y-74798828D01*
X80166692Y-74785635D01*
X80386496Y-74726739D01*
X80592734Y-74630568D01*
X80739657Y-74527692D01*
X80805861Y-74505366D01*
X80873628Y-74522376D01*
X80921441Y-74573324D01*
X80934119Y-74642034D01*
X80907637Y-74706691D01*
X80898459Y-74716949D01*
X79941621Y-75673787D01*
X79880298Y-75707272D01*
X79867825Y-75709326D01*
X79820750Y-75714630D01*
X79650478Y-75774210D01*
X79497737Y-75870184D01*
X79370184Y-75997737D01*
X79274211Y-76150476D01*
X79214631Y-76320745D01*
X79214630Y-76320750D01*
X79194435Y-76499996D01*
X79194435Y-76500003D01*
X79214630Y-76679249D01*
X79214631Y-76679254D01*
X79274211Y-76849523D01*
X79341464Y-76956554D01*
X79370184Y-77002262D01*
X79497738Y-77129816D01*
X79650478Y-77225789D01*
X79820745Y-77285368D01*
X79820750Y-77285369D01*
X79999996Y-77305565D01*
X80000000Y-77305565D01*
X80000004Y-77305565D01*
X80179249Y-77285369D01*
X80179252Y-77285368D01*
X80179255Y-77285368D01*
X80349522Y-77225789D01*
X80502262Y-77129816D01*
X80629816Y-77002262D01*
X80725789Y-76849522D01*
X80785368Y-76679255D01*
X80790672Y-76632173D01*
X80817737Y-76567763D01*
X80826201Y-76558387D01*
X85305857Y-72078734D01*
X85374311Y-71976286D01*
X85421463Y-71862451D01*
X85445500Y-71741607D01*
X85445500Y-71618394D01*
X85445500Y-69494188D01*
X85465185Y-69427149D01*
X85498377Y-69392613D01*
X85607759Y-69316023D01*
X85659139Y-69280047D01*
X85820047Y-69119139D01*
X85950568Y-68932734D01*
X86046739Y-68726496D01*
X86105635Y-68506692D01*
X86125468Y-68280000D01*
X86105635Y-68053308D01*
X86046739Y-67833504D01*
X85950568Y-67627266D01*
X85836504Y-67464364D01*
X85820045Y-67440858D01*
X85659141Y-67279954D01*
X85472734Y-67149432D01*
X85472732Y-67149431D01*
X85316690Y-67076667D01*
X85296631Y-67067313D01*
X85244193Y-67021142D01*
X85225041Y-66953948D01*
X85245257Y-66887067D01*
X85298422Y-66841732D01*
X85304243Y-66839305D01*
X85357177Y-66818798D01*
X85357179Y-66818797D01*
X85546261Y-66701721D01*
X85710608Y-66551900D01*
X85844631Y-66374425D01*
X85943760Y-66175349D01*
X85996495Y-65990000D01*
X85135686Y-65990000D01*
X85140080Y-65985606D01*
X85192741Y-65894394D01*
X85220000Y-65792661D01*
X85220000Y-65687339D01*
X85192741Y-65585606D01*
X85140080Y-65494394D01*
X85135686Y-65490000D01*
X85996495Y-65490000D01*
X85943760Y-65304650D01*
X85844631Y-65105574D01*
X85710608Y-64928099D01*
X85546261Y-64778278D01*
X85357179Y-64661202D01*
X85357171Y-64661198D01*
X85304242Y-64640693D01*
X85248841Y-64598120D01*
X85225251Y-64532352D01*
X85240963Y-64464272D01*
X85290987Y-64415494D01*
X85296607Y-64412697D01*
X85472734Y-64330568D01*
X85659139Y-64200047D01*
X85820047Y-64039139D01*
X85950568Y-63852734D01*
X86046739Y-63646496D01*
X86105635Y-63426692D01*
X86125468Y-63200000D01*
X86105635Y-62973308D01*
X86046739Y-62753504D01*
X85950568Y-62547266D01*
X85820047Y-62360861D01*
X85820045Y-62360858D01*
X85659141Y-62199954D01*
X85472734Y-62069432D01*
X85472732Y-62069431D01*
X85266497Y-61973261D01*
X85266488Y-61973258D01*
X85046697Y-61914366D01*
X85046693Y-61914365D01*
X85046692Y-61914365D01*
X85046691Y-61914364D01*
X85046686Y-61914364D01*
X84820002Y-61894532D01*
X84819998Y-61894532D01*
X84593313Y-61914364D01*
X84593302Y-61914366D01*
X84373511Y-61973258D01*
X84373502Y-61973261D01*
X84167267Y-62069431D01*
X84167265Y-62069432D01*
X83980858Y-62199954D01*
X83819954Y-62360858D01*
X83689432Y-62547265D01*
X83689431Y-62547267D01*
X83593261Y-62753502D01*
X83593258Y-62753511D01*
X83534366Y-62973302D01*
X83534364Y-62973313D01*
X83514532Y-63199998D01*
X83514532Y-63200001D01*
X83534364Y-63426686D01*
X83534366Y-63426697D01*
X83593258Y-63646488D01*
X83593261Y-63646497D01*
X83689431Y-63852732D01*
X83689432Y-63852734D01*
X83819954Y-64039141D01*
X83980858Y-64200045D01*
X83980861Y-64200047D01*
X84167266Y-64330568D01*
X84343368Y-64412686D01*
X84395806Y-64458857D01*
X84414958Y-64526051D01*
X84394742Y-64592932D01*
X84341577Y-64638266D01*
X84335758Y-64640693D01*
X84282825Y-64661200D01*
X84282820Y-64661202D01*
X84093738Y-64778278D01*
X83929391Y-64928099D01*
X83795368Y-65105574D01*
X83696239Y-65304650D01*
X83643505Y-65490000D01*
X84504314Y-65490000D01*
X84499920Y-65494394D01*
X84447259Y-65585606D01*
X84420000Y-65687339D01*
X84420000Y-65792661D01*
X84447259Y-65894394D01*
X84499920Y-65985606D01*
X84504314Y-65990000D01*
X83643505Y-65990000D01*
X83696239Y-66175349D01*
X83795368Y-66374425D01*
X83929391Y-66551900D01*
X84093738Y-66701721D01*
X84282820Y-66818797D01*
X84282831Y-66818802D01*
X84335756Y-66839306D01*
X84391158Y-66881879D01*
X84414748Y-66947645D01*
X84399037Y-67015726D01*
X84349013Y-67064504D01*
X84343367Y-67067314D01*
X84167267Y-67149431D01*
X84167265Y-67149432D01*
X83980858Y-67279954D01*
X83819954Y-67440858D01*
X83689432Y-67627265D01*
X83689431Y-67627267D01*
X83593261Y-67833502D01*
X83593258Y-67833511D01*
X83534366Y-68053302D01*
X83534364Y-68053313D01*
X83514532Y-68279998D01*
X83514532Y-68280001D01*
X83534364Y-68506686D01*
X83534366Y-68506697D01*
X83593258Y-68726488D01*
X83593261Y-68726497D01*
X83689431Y-68932732D01*
X83689432Y-68932734D01*
X83819954Y-69119141D01*
X83980858Y-69280045D01*
X84141623Y-69392613D01*
X84185248Y-69447189D01*
X84194500Y-69494188D01*
X84194500Y-71369547D01*
X84174815Y-71436586D01*
X84158181Y-71457228D01*
X81156949Y-74458459D01*
X81095626Y-74491944D01*
X81025934Y-74486960D01*
X80970001Y-74445088D01*
X80945584Y-74379624D01*
X80960436Y-74311351D01*
X80967687Y-74299664D01*
X81070568Y-74152734D01*
X81166739Y-73946496D01*
X81225635Y-73726692D01*
X81245468Y-73500000D01*
X81225635Y-73273308D01*
X81166739Y-73053504D01*
X81070568Y-72847266D01*
X80940047Y-72660861D01*
X80940045Y-72660858D01*
X80779141Y-72499954D01*
X80592734Y-72369432D01*
X80592732Y-72369431D01*
X80386497Y-72273261D01*
X80386488Y-72273258D01*
X80166697Y-72214366D01*
X80166693Y-72214365D01*
X80166692Y-72214365D01*
X80166691Y-72214364D01*
X80166686Y-72214364D01*
X79940002Y-72194532D01*
X79939998Y-72194532D01*
X79713313Y-72214364D01*
X79713302Y-72214366D01*
X79493511Y-72273258D01*
X79493502Y-72273261D01*
X79287267Y-72369431D01*
X79287265Y-72369432D01*
X79100858Y-72499954D01*
X78939954Y-72660858D01*
X78809432Y-72847265D01*
X78809431Y-72847267D01*
X78713261Y-73053502D01*
X78713258Y-73053511D01*
X78654366Y-73273302D01*
X78654364Y-73273313D01*
X78634532Y-73499998D01*
X78059441Y-73499998D01*
X77985483Y-73331390D01*
X77901186Y-73202364D01*
X77273787Y-73829764D01*
X77262518Y-73787708D01*
X77190110Y-73662292D01*
X77087708Y-73559890D01*
X76962292Y-73487482D01*
X76920233Y-73476212D01*
X77548797Y-72847647D01*
X77548797Y-72847645D01*
X77518360Y-72823955D01*
X77518354Y-72823951D01*
X77314302Y-72713523D01*
X77314293Y-72713520D01*
X77094860Y-72638188D01*
X76866007Y-72600000D01*
X76633993Y-72600000D01*
X76405139Y-72638188D01*
X76185706Y-72713520D01*
X76185697Y-72713523D01*
X75981650Y-72823949D01*
X75951200Y-72847647D01*
X76579766Y-73476212D01*
X76537708Y-73487482D01*
X76412292Y-73559890D01*
X76309890Y-73662292D01*
X76237482Y-73787708D01*
X76226212Y-73829765D01*
X75598812Y-73202365D01*
X75514516Y-73331391D01*
X75514514Y-73331395D01*
X75421317Y-73543864D01*
X75364361Y-73768781D01*
X75345202Y-73999994D01*
X73755643Y-73999994D01*
X73735109Y-73752187D01*
X73735107Y-73752175D01*
X73674063Y-73511118D01*
X73574173Y-73283393D01*
X73438166Y-73075217D01*
X73345888Y-72974977D01*
X73269744Y-72892262D01*
X73073509Y-72739526D01*
X73073507Y-72739525D01*
X73073506Y-72739524D01*
X72854811Y-72621172D01*
X72854802Y-72621169D01*
X72619616Y-72540429D01*
X72374335Y-72499500D01*
X72125665Y-72499500D01*
X71880383Y-72540429D01*
X71645197Y-72621169D01*
X71645188Y-72621172D01*
X71426493Y-72739524D01*
X71230257Y-72892261D01*
X71061833Y-73075217D01*
X70925826Y-73283393D01*
X70825936Y-73511118D01*
X70764892Y-73752175D01*
X70764890Y-73752187D01*
X70744357Y-73999994D01*
X69154798Y-73999994D01*
X69135638Y-73768781D01*
X69078682Y-73543864D01*
X68985483Y-73331390D01*
X68901186Y-73202364D01*
X68273787Y-73829764D01*
X68262518Y-73787708D01*
X68190110Y-73662292D01*
X68087708Y-73559890D01*
X67962292Y-73487482D01*
X67920233Y-73476212D01*
X68548797Y-72847647D01*
X68548797Y-72847645D01*
X68518360Y-72823955D01*
X68518354Y-72823951D01*
X68314302Y-72713523D01*
X68314293Y-72713520D01*
X68094860Y-72638188D01*
X67866007Y-72600000D01*
X67633993Y-72600000D01*
X67405139Y-72638188D01*
X67185706Y-72713520D01*
X67185697Y-72713523D01*
X66981650Y-72823949D01*
X66951200Y-72847647D01*
X67579766Y-73476212D01*
X67537708Y-73487482D01*
X67412292Y-73559890D01*
X67309890Y-73662292D01*
X67237482Y-73787708D01*
X67226212Y-73829765D01*
X66598812Y-73202365D01*
X66514516Y-73331391D01*
X66514514Y-73331395D01*
X66421317Y-73543864D01*
X66364361Y-73768781D01*
X66345202Y-73999994D01*
X64755643Y-73999994D01*
X64735109Y-73752187D01*
X64735107Y-73752175D01*
X64674063Y-73511118D01*
X64574173Y-73283393D01*
X64438166Y-73075217D01*
X64345888Y-72974977D01*
X64269744Y-72892262D01*
X64073509Y-72739526D01*
X64073507Y-72739525D01*
X64073506Y-72739524D01*
X63854811Y-72621172D01*
X63854802Y-72621169D01*
X63619616Y-72540429D01*
X63374335Y-72499500D01*
X63125665Y-72499500D01*
X62880383Y-72540429D01*
X62645197Y-72621169D01*
X62645188Y-72621172D01*
X62426493Y-72739524D01*
X62230257Y-72892261D01*
X62061833Y-73075217D01*
X61925826Y-73283393D01*
X61825936Y-73511118D01*
X61764892Y-73752175D01*
X61764890Y-73752187D01*
X61744357Y-73999994D01*
X61063642Y-73999994D01*
X61105063Y-73845408D01*
X61125659Y-73610000D01*
X61105063Y-73374592D01*
X61043903Y-73146337D01*
X60944035Y-72932171D01*
X60938425Y-72924158D01*
X60808494Y-72738597D01*
X60641402Y-72571506D01*
X60641396Y-72571501D01*
X60455842Y-72441575D01*
X60412217Y-72386998D01*
X60405023Y-72317500D01*
X60436546Y-72255145D01*
X60455842Y-72238425D01*
X60490203Y-72214365D01*
X60641401Y-72108495D01*
X60808495Y-71941401D01*
X60944035Y-71747830D01*
X61043903Y-71533663D01*
X61105063Y-71305408D01*
X61125659Y-71070000D01*
X61105063Y-70834592D01*
X61043903Y-70606337D01*
X60944035Y-70392171D01*
X60821567Y-70217267D01*
X60808494Y-70198597D01*
X60641402Y-70031506D01*
X60641396Y-70031501D01*
X60455842Y-69901575D01*
X60412217Y-69846998D01*
X60405023Y-69777500D01*
X60436546Y-69715145D01*
X60455842Y-69698425D01*
X60611918Y-69589139D01*
X60641401Y-69568495D01*
X60808495Y-69401401D01*
X60944035Y-69207830D01*
X61043903Y-68993663D01*
X61105063Y-68765408D01*
X61106411Y-68749998D01*
X61944532Y-68749998D01*
X61944532Y-68750001D01*
X61964364Y-68976686D01*
X61964366Y-68976697D01*
X62023258Y-69196488D01*
X62023261Y-69196497D01*
X62119431Y-69402732D01*
X62119432Y-69402734D01*
X62249954Y-69589141D01*
X62410858Y-69750045D01*
X62410861Y-69750047D01*
X62597266Y-69880568D01*
X62803504Y-69976739D01*
X62803509Y-69976740D01*
X62803511Y-69976741D01*
X62856415Y-69990916D01*
X63023308Y-70035635D01*
X63185230Y-70049801D01*
X63249998Y-70055468D01*
X63250000Y-70055468D01*
X63250002Y-70055468D01*
X63306673Y-70050509D01*
X63476692Y-70035635D01*
X63696496Y-69976739D01*
X63902734Y-69880568D01*
X64089139Y-69750047D01*
X64250047Y-69589139D01*
X64380568Y-69402734D01*
X64387618Y-69387614D01*
X64433789Y-69335176D01*
X64500982Y-69316023D01*
X64567864Y-69336238D01*
X64612381Y-69387614D01*
X64619432Y-69402733D01*
X64619432Y-69402734D01*
X64749954Y-69589141D01*
X64910858Y-69750045D01*
X64910861Y-69750047D01*
X65097266Y-69880568D01*
X65303504Y-69976739D01*
X65303509Y-69976740D01*
X65303511Y-69976741D01*
X65356415Y-69990916D01*
X65523308Y-70035635D01*
X65685230Y-70049801D01*
X65749998Y-70055468D01*
X65750000Y-70055468D01*
X65750002Y-70055468D01*
X65806673Y-70050509D01*
X65976692Y-70035635D01*
X66196496Y-69976739D01*
X66402734Y-69880568D01*
X66589139Y-69750047D01*
X66750047Y-69589139D01*
X66880568Y-69402734D01*
X66976739Y-69196496D01*
X67005225Y-69090183D01*
X67041590Y-69030523D01*
X67104436Y-68999994D01*
X67173812Y-69008288D01*
X67227690Y-69052774D01*
X67244775Y-69090184D01*
X67273258Y-69196488D01*
X67273261Y-69196497D01*
X67369431Y-69402732D01*
X67369432Y-69402734D01*
X67499954Y-69589141D01*
X67660858Y-69750045D01*
X67660861Y-69750047D01*
X67847266Y-69880568D01*
X68053504Y-69976739D01*
X68053509Y-69976740D01*
X68053511Y-69976741D01*
X68106415Y-69990916D01*
X68273308Y-70035635D01*
X68435230Y-70049801D01*
X68499998Y-70055468D01*
X68500000Y-70055468D01*
X68500002Y-70055468D01*
X68556673Y-70050509D01*
X68726692Y-70035635D01*
X68946496Y-69976739D01*
X69152734Y-69880568D01*
X69339139Y-69750047D01*
X69500047Y-69589139D01*
X69630568Y-69402734D01*
X69726739Y-69196496D01*
X69755225Y-69090183D01*
X69791590Y-69030523D01*
X69854436Y-68999994D01*
X69923812Y-69008288D01*
X69977690Y-69052774D01*
X69994775Y-69090184D01*
X70023258Y-69196488D01*
X70023261Y-69196497D01*
X70119431Y-69402732D01*
X70119432Y-69402734D01*
X70249954Y-69589141D01*
X70410858Y-69750045D01*
X70410861Y-69750047D01*
X70597266Y-69880568D01*
X70803504Y-69976739D01*
X70803509Y-69976740D01*
X70803511Y-69976741D01*
X70856415Y-69990916D01*
X71023308Y-70035635D01*
X71185230Y-70049801D01*
X71249998Y-70055468D01*
X71250000Y-70055468D01*
X71250002Y-70055468D01*
X71306673Y-70050509D01*
X71476692Y-70035635D01*
X71696496Y-69976739D01*
X71902734Y-69880568D01*
X72089139Y-69750047D01*
X72250047Y-69589139D01*
X72380568Y-69402734D01*
X72437618Y-69280389D01*
X72483790Y-69227951D01*
X72550984Y-69208799D01*
X72617865Y-69229015D01*
X72662382Y-69280390D01*
X72719431Y-69402732D01*
X72719432Y-69402734D01*
X72849954Y-69589141D01*
X73010858Y-69750045D01*
X73010861Y-69750047D01*
X73197266Y-69880568D01*
X73403504Y-69976739D01*
X73403509Y-69976740D01*
X73403511Y-69976741D01*
X73456415Y-69990916D01*
X73623308Y-70035635D01*
X73785230Y-70049801D01*
X73849998Y-70055468D01*
X73850000Y-70055468D01*
X73850002Y-70055468D01*
X73906673Y-70050509D01*
X74076692Y-70035635D01*
X74296496Y-69976739D01*
X74502734Y-69880568D01*
X74689139Y-69750047D01*
X74850047Y-69589139D01*
X74980568Y-69402734D01*
X75076739Y-69196496D01*
X75135635Y-68976692D01*
X75155468Y-68750000D01*
X75135635Y-68523308D01*
X75076739Y-68303504D01*
X74980568Y-68097266D01*
X74850047Y-67910861D01*
X74850045Y-67910858D01*
X74689141Y-67749954D01*
X74502734Y-67619432D01*
X74502732Y-67619431D01*
X74296497Y-67523261D01*
X74296488Y-67523258D01*
X74076697Y-67464366D01*
X74076693Y-67464365D01*
X74076692Y-67464365D01*
X74076691Y-67464364D01*
X74076686Y-67464364D01*
X73850002Y-67444532D01*
X73849998Y-67444532D01*
X73623313Y-67464364D01*
X73623302Y-67464366D01*
X73403511Y-67523258D01*
X73403502Y-67523261D01*
X73197267Y-67619431D01*
X73197265Y-67619432D01*
X73010858Y-67749954D01*
X72849954Y-67910858D01*
X72719432Y-68097265D01*
X72719431Y-68097267D01*
X72662382Y-68219609D01*
X72616209Y-68272048D01*
X72549016Y-68291200D01*
X72482135Y-68270984D01*
X72437618Y-68219609D01*
X72411575Y-68163760D01*
X72380568Y-68097266D01*
X72250047Y-67910861D01*
X72250045Y-67910858D01*
X72089141Y-67749954D01*
X71902734Y-67619432D01*
X71902732Y-67619431D01*
X71696497Y-67523261D01*
X71696488Y-67523258D01*
X71476697Y-67464366D01*
X71476693Y-67464365D01*
X71476692Y-67464365D01*
X71476691Y-67464364D01*
X71476686Y-67464364D01*
X71250002Y-67444532D01*
X71249998Y-67444532D01*
X71023313Y-67464364D01*
X71023302Y-67464366D01*
X70803511Y-67523258D01*
X70803502Y-67523261D01*
X70597267Y-67619431D01*
X70597265Y-67619432D01*
X70410858Y-67749954D01*
X70249954Y-67910858D01*
X70119432Y-68097265D01*
X70119431Y-68097267D01*
X70023261Y-68303502D01*
X70023258Y-68303511D01*
X69994775Y-68409815D01*
X69958410Y-68469476D01*
X69895563Y-68500005D01*
X69826188Y-68491710D01*
X69772310Y-68447225D01*
X69755225Y-68409815D01*
X69726741Y-68303511D01*
X69726738Y-68303502D01*
X69722580Y-68294586D01*
X69630568Y-68097266D01*
X69500047Y-67910861D01*
X69500045Y-67910858D01*
X69339141Y-67749954D01*
X69152734Y-67619432D01*
X69152732Y-67619431D01*
X68946497Y-67523261D01*
X68946488Y-67523258D01*
X68726697Y-67464366D01*
X68726693Y-67464365D01*
X68726692Y-67464365D01*
X68726691Y-67464364D01*
X68726686Y-67464364D01*
X68500002Y-67444532D01*
X68499998Y-67444532D01*
X68273313Y-67464364D01*
X68273302Y-67464366D01*
X68053511Y-67523258D01*
X68053502Y-67523261D01*
X67847267Y-67619431D01*
X67847265Y-67619432D01*
X67660858Y-67749954D01*
X67499954Y-67910858D01*
X67369432Y-68097265D01*
X67369431Y-68097267D01*
X67273261Y-68303502D01*
X67273258Y-68303511D01*
X67244775Y-68409815D01*
X67208410Y-68469476D01*
X67145563Y-68500005D01*
X67076188Y-68491710D01*
X67022310Y-68447225D01*
X67005225Y-68409815D01*
X66976741Y-68303511D01*
X66976738Y-68303502D01*
X66972580Y-68294586D01*
X66880568Y-68097266D01*
X66750047Y-67910861D01*
X66750045Y-67910858D01*
X66589141Y-67749954D01*
X66402734Y-67619432D01*
X66402732Y-67619431D01*
X66196497Y-67523261D01*
X66196488Y-67523258D01*
X65976697Y-67464366D01*
X65976693Y-67464365D01*
X65976692Y-67464365D01*
X65976691Y-67464364D01*
X65976686Y-67464364D01*
X65750002Y-67444532D01*
X65749998Y-67444532D01*
X65523313Y-67464364D01*
X65523302Y-67464366D01*
X65303511Y-67523258D01*
X65303502Y-67523261D01*
X65097267Y-67619431D01*
X65097265Y-67619432D01*
X64910858Y-67749954D01*
X64749954Y-67910858D01*
X64619433Y-68097264D01*
X64619432Y-68097266D01*
X64612380Y-68112387D01*
X64566209Y-68164825D01*
X64499015Y-68183976D01*
X64432134Y-68163760D01*
X64387619Y-68112387D01*
X64380568Y-68097266D01*
X64250047Y-67910861D01*
X64250045Y-67910858D01*
X64089141Y-67749954D01*
X63902734Y-67619432D01*
X63902732Y-67619431D01*
X63696497Y-67523261D01*
X63696488Y-67523258D01*
X63476697Y-67464366D01*
X63476693Y-67464365D01*
X63476692Y-67464365D01*
X63476691Y-67464364D01*
X63476686Y-67464364D01*
X63250002Y-67444532D01*
X63249998Y-67444532D01*
X63023313Y-67464364D01*
X63023302Y-67464366D01*
X62803511Y-67523258D01*
X62803502Y-67523261D01*
X62597267Y-67619431D01*
X62597265Y-67619432D01*
X62410858Y-67749954D01*
X62249954Y-67910858D01*
X62119432Y-68097265D01*
X62119431Y-68097267D01*
X62023261Y-68303502D01*
X62023258Y-68303511D01*
X61964366Y-68523302D01*
X61964364Y-68523313D01*
X61944532Y-68749998D01*
X61106411Y-68749998D01*
X61125659Y-68530000D01*
X61105063Y-68294592D01*
X61043903Y-68066337D01*
X60944035Y-67852171D01*
X60938425Y-67844158D01*
X60808494Y-67658597D01*
X60641402Y-67491506D01*
X60641396Y-67491501D01*
X60455842Y-67361575D01*
X60412217Y-67306998D01*
X60405023Y-67237500D01*
X60436546Y-67175145D01*
X60455842Y-67158425D01*
X60486883Y-67136690D01*
X60641401Y-67028495D01*
X60808495Y-66861401D01*
X60944035Y-66667830D01*
X61043903Y-66453663D01*
X61105063Y-66225408D01*
X61125659Y-65990000D01*
X61105063Y-65754592D01*
X61101153Y-65739998D01*
X75894532Y-65739998D01*
X75894532Y-65740000D01*
X75914364Y-65966686D01*
X75914366Y-65966697D01*
X75973258Y-66186488D01*
X75973261Y-66186497D01*
X76069431Y-66392732D01*
X76069432Y-66392734D01*
X76199954Y-66579141D01*
X76360858Y-66740045D01*
X76360861Y-66740047D01*
X76547266Y-66870568D01*
X76605275Y-66897618D01*
X76657714Y-66943791D01*
X76676866Y-67010984D01*
X76656650Y-67077865D01*
X76605275Y-67122382D01*
X76547267Y-67149431D01*
X76547265Y-67149432D01*
X76360858Y-67279954D01*
X76199954Y-67440858D01*
X76069432Y-67627265D01*
X76069431Y-67627267D01*
X75973261Y-67833502D01*
X75973258Y-67833511D01*
X75914366Y-68053302D01*
X75914364Y-68053313D01*
X75894532Y-68279998D01*
X75894532Y-68280001D01*
X75914364Y-68506686D01*
X75914366Y-68506697D01*
X75973258Y-68726488D01*
X75973261Y-68726497D01*
X76069431Y-68932732D01*
X76069432Y-68932734D01*
X76199954Y-69119141D01*
X76360858Y-69280045D01*
X76360861Y-69280047D01*
X76547266Y-69410568D01*
X76753504Y-69506739D01*
X76973308Y-69565635D01*
X77135230Y-69579801D01*
X77199998Y-69585468D01*
X77200000Y-69585468D01*
X77200002Y-69585468D01*
X77256673Y-69580509D01*
X77426692Y-69565635D01*
X77646496Y-69506739D01*
X77852734Y-69410568D01*
X78039139Y-69280047D01*
X78200047Y-69119139D01*
X78330568Y-68932734D01*
X78426739Y-68726496D01*
X78485635Y-68506692D01*
X78505468Y-68280000D01*
X78485635Y-68053308D01*
X78426739Y-67833504D01*
X78330568Y-67627266D01*
X78216504Y-67464364D01*
X78200045Y-67440858D01*
X78039141Y-67279954D01*
X77852734Y-67149432D01*
X77852728Y-67149429D01*
X77794725Y-67122382D01*
X77742285Y-67076210D01*
X77723133Y-67009017D01*
X77743348Y-66942135D01*
X77794725Y-66897618D01*
X77852734Y-66870568D01*
X78039139Y-66740047D01*
X78200047Y-66579139D01*
X78330568Y-66392734D01*
X78426739Y-66186496D01*
X78485635Y-65966692D01*
X78505468Y-65740000D01*
X78485635Y-65513308D01*
X78426739Y-65293504D01*
X78330568Y-65087266D01*
X78200047Y-64900861D01*
X78200045Y-64900858D01*
X78039143Y-64739956D01*
X78014536Y-64722726D01*
X77970912Y-64668149D01*
X77963719Y-64598650D01*
X77995241Y-64536296D01*
X78055471Y-64500882D01*
X78072404Y-64497861D01*
X78107483Y-64494091D01*
X78242331Y-64443796D01*
X78357546Y-64357546D01*
X78443796Y-64242331D01*
X78494091Y-64107483D01*
X78500500Y-64047873D01*
X78500499Y-62352128D01*
X78494091Y-62292517D01*
X78459567Y-62199954D01*
X78443797Y-62157671D01*
X78443793Y-62157664D01*
X78357547Y-62042455D01*
X78357544Y-62042452D01*
X78242335Y-61956206D01*
X78242328Y-61956202D01*
X78107482Y-61905908D01*
X78107483Y-61905908D01*
X78047883Y-61899501D01*
X78047881Y-61899500D01*
X78047873Y-61899500D01*
X78047864Y-61899500D01*
X76352129Y-61899500D01*
X76352123Y-61899501D01*
X76292516Y-61905908D01*
X76157671Y-61956202D01*
X76157664Y-61956206D01*
X76042455Y-62042452D01*
X76042452Y-62042455D01*
X75956206Y-62157664D01*
X75956202Y-62157671D01*
X75905908Y-62292517D01*
X75899501Y-62352116D01*
X75899501Y-62352123D01*
X75899500Y-62352135D01*
X75899500Y-64047870D01*
X75899501Y-64047876D01*
X75905908Y-64107483D01*
X75956202Y-64242328D01*
X75956206Y-64242335D01*
X76042452Y-64357544D01*
X76042455Y-64357547D01*
X76157664Y-64443793D01*
X76157671Y-64443797D01*
X76198050Y-64458857D01*
X76292517Y-64494091D01*
X76327596Y-64497862D01*
X76392144Y-64524599D01*
X76431993Y-64581991D01*
X76434488Y-64651816D01*
X76398836Y-64711905D01*
X76385464Y-64722725D01*
X76360858Y-64739954D01*
X76199954Y-64900858D01*
X76069432Y-65087265D01*
X76069431Y-65087267D01*
X75973261Y-65293502D01*
X75973258Y-65293511D01*
X75914366Y-65513302D01*
X75914364Y-65513313D01*
X75894532Y-65739998D01*
X61101153Y-65739998D01*
X61043903Y-65526337D01*
X60944035Y-65312171D01*
X60930970Y-65293511D01*
X60808494Y-65118597D01*
X60641402Y-64951506D01*
X60641396Y-64951501D01*
X60455842Y-64821575D01*
X60412217Y-64766998D01*
X60405023Y-64697500D01*
X60436546Y-64635145D01*
X60455842Y-64618425D01*
X60478026Y-64602891D01*
X60641401Y-64488495D01*
X60808495Y-64321401D01*
X60944035Y-64127830D01*
X61043903Y-63913663D01*
X61087756Y-63749999D01*
X62044859Y-63749999D01*
X62044859Y-63750000D01*
X62065378Y-63971439D01*
X62126240Y-64185350D01*
X62225364Y-64384419D01*
X62225366Y-64384421D01*
X62241138Y-64405306D01*
X62850000Y-63796445D01*
X62850000Y-63802661D01*
X62877259Y-63904394D01*
X62929920Y-63995606D01*
X63004394Y-64070080D01*
X63095606Y-64122741D01*
X63197339Y-64150000D01*
X63203554Y-64150000D01*
X62596671Y-64756880D01*
X62712823Y-64828798D01*
X62712824Y-64828799D01*
X62920195Y-64909134D01*
X63138807Y-64950000D01*
X63361193Y-64950000D01*
X63579804Y-64909134D01*
X63787177Y-64828798D01*
X63787178Y-64828797D01*
X63903327Y-64756880D01*
X63296447Y-64150000D01*
X63302661Y-64150000D01*
X63404394Y-64122741D01*
X63495606Y-64070080D01*
X63570080Y-63995606D01*
X63622741Y-63904394D01*
X63650000Y-63802661D01*
X63650000Y-63796446D01*
X64258860Y-64405306D01*
X64258861Y-64405306D01*
X64274631Y-64384425D01*
X64274632Y-64384422D01*
X64373760Y-64185349D01*
X64380733Y-64160842D01*
X64418012Y-64101749D01*
X64481321Y-64072190D01*
X64550561Y-64081551D01*
X64603748Y-64126860D01*
X64619267Y-64160842D01*
X64626239Y-64185349D01*
X64725364Y-64384419D01*
X64725366Y-64384421D01*
X64741138Y-64405306D01*
X65350000Y-63796445D01*
X65350000Y-63802661D01*
X65377259Y-63904394D01*
X65429920Y-63995606D01*
X65504394Y-64070080D01*
X65595606Y-64122741D01*
X65697339Y-64150000D01*
X65703554Y-64150000D01*
X65096671Y-64756880D01*
X65212823Y-64828798D01*
X65212824Y-64828799D01*
X65420195Y-64909134D01*
X65638807Y-64950000D01*
X65861193Y-64950000D01*
X66079804Y-64909134D01*
X66287177Y-64828798D01*
X66287178Y-64828797D01*
X66403327Y-64756880D01*
X65796447Y-64150000D01*
X65802661Y-64150000D01*
X65904394Y-64122741D01*
X65995606Y-64070080D01*
X66070080Y-63995606D01*
X66122741Y-63904394D01*
X66150000Y-63802661D01*
X66150000Y-63796446D01*
X66758860Y-64405306D01*
X66758861Y-64405306D01*
X66774631Y-64384425D01*
X66774632Y-64384422D01*
X66873759Y-64185350D01*
X66934621Y-63971439D01*
X66955141Y-63750000D01*
X66955141Y-63749999D01*
X67294859Y-63749999D01*
X67294859Y-63750000D01*
X67315378Y-63971439D01*
X67376240Y-64185350D01*
X67475364Y-64384419D01*
X67475366Y-64384421D01*
X67491138Y-64405306D01*
X68100000Y-63796445D01*
X68100000Y-63802661D01*
X68127259Y-63904394D01*
X68179920Y-63995606D01*
X68254394Y-64070080D01*
X68345606Y-64122741D01*
X68447339Y-64150000D01*
X68453554Y-64150000D01*
X67846671Y-64756880D01*
X67962823Y-64828798D01*
X67962824Y-64828799D01*
X68170195Y-64909134D01*
X68388807Y-64950000D01*
X68611193Y-64950000D01*
X68829804Y-64909134D01*
X69037177Y-64828798D01*
X69037178Y-64828797D01*
X69153327Y-64756880D01*
X68546447Y-64150000D01*
X68552661Y-64150000D01*
X68654394Y-64122741D01*
X68745606Y-64070080D01*
X68820080Y-63995606D01*
X68872741Y-63904394D01*
X68900000Y-63802661D01*
X68900000Y-63796446D01*
X69508860Y-64405306D01*
X69508861Y-64405306D01*
X69524631Y-64384425D01*
X69524632Y-64384422D01*
X69623759Y-64185350D01*
X69684621Y-63971439D01*
X69705141Y-63750000D01*
X69705141Y-63749999D01*
X70044859Y-63749999D01*
X70044859Y-63750000D01*
X70065378Y-63971439D01*
X70126240Y-64185350D01*
X70225364Y-64384419D01*
X70225366Y-64384421D01*
X70241138Y-64405306D01*
X70850000Y-63796445D01*
X70850000Y-63802661D01*
X70877259Y-63904394D01*
X70929920Y-63995606D01*
X71004394Y-64070080D01*
X71095606Y-64122741D01*
X71197339Y-64150000D01*
X71203554Y-64150000D01*
X70596671Y-64756880D01*
X70712823Y-64828798D01*
X70712824Y-64828799D01*
X70920195Y-64909134D01*
X71138807Y-64950000D01*
X71361193Y-64950000D01*
X71579804Y-64909134D01*
X71787177Y-64828798D01*
X71787178Y-64828797D01*
X71903327Y-64756880D01*
X71296447Y-64150000D01*
X71302661Y-64150000D01*
X71404394Y-64122741D01*
X71495606Y-64070080D01*
X71570080Y-63995606D01*
X71622741Y-63904394D01*
X71650000Y-63802661D01*
X71650000Y-63796446D01*
X72258860Y-64405306D01*
X72258861Y-64405306D01*
X72274631Y-64384425D01*
X72274632Y-64384422D01*
X72373760Y-64185349D01*
X72430733Y-63985107D01*
X72468012Y-63926013D01*
X72531322Y-63896455D01*
X72600562Y-63905817D01*
X72653748Y-63951126D01*
X72669267Y-63985107D01*
X72726239Y-64185349D01*
X72825364Y-64384419D01*
X72825366Y-64384421D01*
X72841138Y-64405306D01*
X73450000Y-63796445D01*
X73450000Y-63802661D01*
X73477259Y-63904394D01*
X73529920Y-63995606D01*
X73604394Y-64070080D01*
X73695606Y-64122741D01*
X73797339Y-64150000D01*
X73803554Y-64150000D01*
X73196671Y-64756880D01*
X73312823Y-64828798D01*
X73312824Y-64828799D01*
X73520195Y-64909134D01*
X73738807Y-64950000D01*
X73961193Y-64950000D01*
X74179804Y-64909134D01*
X74387177Y-64828798D01*
X74387178Y-64828797D01*
X74503327Y-64756880D01*
X73896447Y-64150000D01*
X73902661Y-64150000D01*
X74004394Y-64122741D01*
X74095606Y-64070080D01*
X74170080Y-63995606D01*
X74222741Y-63904394D01*
X74250000Y-63802661D01*
X74250000Y-63796446D01*
X74858860Y-64405306D01*
X74858861Y-64405306D01*
X74874631Y-64384425D01*
X74874632Y-64384422D01*
X74973759Y-64185350D01*
X75034621Y-63971439D01*
X75055141Y-63750000D01*
X75055141Y-63749999D01*
X75034621Y-63528560D01*
X74973759Y-63314649D01*
X74874633Y-63115577D01*
X74874631Y-63115574D01*
X74858860Y-63094691D01*
X74250000Y-63703552D01*
X74250000Y-63697339D01*
X74222741Y-63595606D01*
X74170080Y-63504394D01*
X74095606Y-63429920D01*
X74004394Y-63377259D01*
X73902661Y-63350000D01*
X73896447Y-63350000D01*
X74503327Y-62743118D01*
X74503326Y-62743117D01*
X74387181Y-62671203D01*
X74387175Y-62671200D01*
X74179804Y-62590865D01*
X73961193Y-62550000D01*
X73738807Y-62550000D01*
X73520195Y-62590865D01*
X73312824Y-62671200D01*
X73312818Y-62671204D01*
X73196672Y-62743117D01*
X73196671Y-62743118D01*
X73803554Y-63350000D01*
X73797339Y-63350000D01*
X73695606Y-63377259D01*
X73604394Y-63429920D01*
X73529920Y-63504394D01*
X73477259Y-63595606D01*
X73450000Y-63697339D01*
X73450000Y-63703553D01*
X72841138Y-63094691D01*
X72841137Y-63094691D01*
X72825369Y-63115571D01*
X72726240Y-63314649D01*
X72669267Y-63514893D01*
X72631987Y-63573986D01*
X72568678Y-63603544D01*
X72499438Y-63594182D01*
X72446252Y-63548873D01*
X72430733Y-63514893D01*
X72373759Y-63314649D01*
X72274633Y-63115577D01*
X72274631Y-63115574D01*
X72258860Y-63094691D01*
X71650000Y-63703552D01*
X71650000Y-63697339D01*
X71622741Y-63595606D01*
X71570080Y-63504394D01*
X71495606Y-63429920D01*
X71404394Y-63377259D01*
X71302661Y-63350000D01*
X71296447Y-63350000D01*
X71903327Y-62743118D01*
X71903326Y-62743117D01*
X71787181Y-62671203D01*
X71787175Y-62671200D01*
X71579804Y-62590865D01*
X71361193Y-62550000D01*
X71138807Y-62550000D01*
X70920195Y-62590865D01*
X70712824Y-62671200D01*
X70712818Y-62671204D01*
X70596672Y-62743117D01*
X70596671Y-62743118D01*
X71203554Y-63350000D01*
X71197339Y-63350000D01*
X71095606Y-63377259D01*
X71004394Y-63429920D01*
X70929920Y-63504394D01*
X70877259Y-63595606D01*
X70850000Y-63697339D01*
X70850000Y-63703553D01*
X70241138Y-63094691D01*
X70241137Y-63094691D01*
X70225369Y-63115571D01*
X70126240Y-63314649D01*
X70065378Y-63528560D01*
X70044859Y-63749999D01*
X69705141Y-63749999D01*
X69684621Y-63528560D01*
X69623759Y-63314649D01*
X69524633Y-63115577D01*
X69524631Y-63115574D01*
X69508860Y-63094691D01*
X68900000Y-63703552D01*
X68900000Y-63697339D01*
X68872741Y-63595606D01*
X68820080Y-63504394D01*
X68745606Y-63429920D01*
X68654394Y-63377259D01*
X68552661Y-63350000D01*
X68546447Y-63350000D01*
X69153327Y-62743118D01*
X69153326Y-62743117D01*
X69037181Y-62671203D01*
X69037175Y-62671200D01*
X68829804Y-62590865D01*
X68611193Y-62550000D01*
X68388807Y-62550000D01*
X68170195Y-62590865D01*
X67962824Y-62671200D01*
X67962818Y-62671204D01*
X67846672Y-62743117D01*
X67846671Y-62743118D01*
X68453554Y-63350000D01*
X68447339Y-63350000D01*
X68345606Y-63377259D01*
X68254394Y-63429920D01*
X68179920Y-63504394D01*
X68127259Y-63595606D01*
X68100000Y-63697339D01*
X68100000Y-63703553D01*
X67491138Y-63094691D01*
X67491137Y-63094691D01*
X67475369Y-63115571D01*
X67376240Y-63314649D01*
X67315378Y-63528560D01*
X67294859Y-63749999D01*
X66955141Y-63749999D01*
X66934621Y-63528560D01*
X66873759Y-63314649D01*
X66774633Y-63115577D01*
X66774631Y-63115574D01*
X66758860Y-63094691D01*
X66150000Y-63703552D01*
X66150000Y-63697339D01*
X66122741Y-63595606D01*
X66070080Y-63504394D01*
X65995606Y-63429920D01*
X65904394Y-63377259D01*
X65802661Y-63350000D01*
X65796447Y-63350000D01*
X66403327Y-62743118D01*
X66403326Y-62743117D01*
X66287181Y-62671203D01*
X66287175Y-62671200D01*
X66079804Y-62590865D01*
X65861193Y-62550000D01*
X65638807Y-62550000D01*
X65420195Y-62590865D01*
X65212824Y-62671200D01*
X65212818Y-62671204D01*
X65096672Y-62743117D01*
X65096671Y-62743118D01*
X65703554Y-63350000D01*
X65697339Y-63350000D01*
X65595606Y-63377259D01*
X65504394Y-63429920D01*
X65429920Y-63504394D01*
X65377259Y-63595606D01*
X65350000Y-63697339D01*
X65350000Y-63703553D01*
X64741138Y-63094691D01*
X64741137Y-63094691D01*
X64725369Y-63115571D01*
X64626240Y-63314649D01*
X64619267Y-63339158D01*
X64581987Y-63398251D01*
X64518678Y-63427809D01*
X64449438Y-63418447D01*
X64396252Y-63373138D01*
X64380733Y-63339158D01*
X64373759Y-63314649D01*
X64274633Y-63115577D01*
X64274631Y-63115574D01*
X64258860Y-63094691D01*
X63650000Y-63703552D01*
X63650000Y-63697339D01*
X63622741Y-63595606D01*
X63570080Y-63504394D01*
X63495606Y-63429920D01*
X63404394Y-63377259D01*
X63302661Y-63350000D01*
X63296447Y-63350000D01*
X63903327Y-62743118D01*
X63903326Y-62743117D01*
X63787181Y-62671203D01*
X63787175Y-62671200D01*
X63579804Y-62590865D01*
X63361193Y-62550000D01*
X63138807Y-62550000D01*
X62920195Y-62590865D01*
X62712824Y-62671200D01*
X62712818Y-62671204D01*
X62596672Y-62743117D01*
X62596671Y-62743118D01*
X63203554Y-63350000D01*
X63197339Y-63350000D01*
X63095606Y-63377259D01*
X63004394Y-63429920D01*
X62929920Y-63504394D01*
X62877259Y-63595606D01*
X62850000Y-63697339D01*
X62850000Y-63703553D01*
X62241138Y-63094691D01*
X62241137Y-63094691D01*
X62225369Y-63115571D01*
X62126240Y-63314649D01*
X62065378Y-63528560D01*
X62044859Y-63749999D01*
X61087756Y-63749999D01*
X61105063Y-63685408D01*
X61125659Y-63450000D01*
X61123717Y-63427809D01*
X61117033Y-63351402D01*
X61105063Y-63214592D01*
X61043903Y-62986337D01*
X60944035Y-62772171D01*
X60938425Y-62764158D01*
X60808494Y-62578597D01*
X60641402Y-62411506D01*
X60641396Y-62411501D01*
X60455842Y-62281575D01*
X60412217Y-62226998D01*
X60405023Y-62157500D01*
X60436546Y-62095145D01*
X60455842Y-62078425D01*
X60507214Y-62042454D01*
X60641401Y-61948495D01*
X60808495Y-61781401D01*
X60944035Y-61587830D01*
X61043903Y-61373663D01*
X61105063Y-61145408D01*
X61125659Y-60910000D01*
X61105063Y-60674592D01*
X61052038Y-60476697D01*
X61043905Y-60446344D01*
X61043904Y-60446343D01*
X61043903Y-60446337D01*
X60952348Y-60249999D01*
X78544859Y-60249999D01*
X78544859Y-60250000D01*
X78565378Y-60471439D01*
X78626240Y-60685350D01*
X78725364Y-60884419D01*
X78725366Y-60884421D01*
X78741138Y-60905306D01*
X79350000Y-60296445D01*
X79350000Y-60302661D01*
X79377259Y-60404394D01*
X79429920Y-60495606D01*
X79504394Y-60570080D01*
X79595606Y-60622741D01*
X79697339Y-60650000D01*
X79703554Y-60650000D01*
X79096671Y-61256880D01*
X79212823Y-61328798D01*
X79212824Y-61328799D01*
X79420195Y-61409134D01*
X79638807Y-61450000D01*
X79861193Y-61450000D01*
X80079804Y-61409134D01*
X80287177Y-61328798D01*
X80287178Y-61328797D01*
X80403327Y-61256880D01*
X79796447Y-60650000D01*
X79802661Y-60650000D01*
X79904394Y-60622741D01*
X79995606Y-60570080D01*
X80070080Y-60495606D01*
X80122741Y-60404394D01*
X80150000Y-60302661D01*
X80150000Y-60296446D01*
X80758860Y-60905306D01*
X80758861Y-60905306D01*
X80774631Y-60884425D01*
X80774632Y-60884422D01*
X80873759Y-60685350D01*
X80934621Y-60471439D01*
X80955141Y-60250000D01*
X80955141Y-60249999D01*
X80955141Y-60249998D01*
X83444532Y-60249998D01*
X83444532Y-60250001D01*
X83464364Y-60476686D01*
X83464366Y-60476697D01*
X83523258Y-60696488D01*
X83523261Y-60696497D01*
X83619431Y-60902732D01*
X83619432Y-60902734D01*
X83749954Y-61089141D01*
X83910858Y-61250045D01*
X83910861Y-61250047D01*
X84097266Y-61380568D01*
X84303504Y-61476739D01*
X84523308Y-61535635D01*
X84685230Y-61549801D01*
X84749998Y-61555468D01*
X84750000Y-61555468D01*
X84750002Y-61555468D01*
X84806673Y-61550509D01*
X84976692Y-61535635D01*
X85196496Y-61476739D01*
X85402734Y-61380568D01*
X85589139Y-61250047D01*
X85750047Y-61089139D01*
X85880568Y-60902734D01*
X85976739Y-60696496D01*
X86035635Y-60476692D01*
X86055468Y-60250000D01*
X86035635Y-60023308D01*
X85976739Y-59803504D01*
X85880568Y-59597266D01*
X85750047Y-59410861D01*
X85750045Y-59410858D01*
X85589141Y-59249954D01*
X85402734Y-59119432D01*
X85402732Y-59119431D01*
X85196497Y-59023261D01*
X85196488Y-59023258D01*
X84976697Y-58964366D01*
X84976693Y-58964365D01*
X84976692Y-58964365D01*
X84976691Y-58964364D01*
X84976686Y-58964364D01*
X84750002Y-58944532D01*
X84749998Y-58944532D01*
X84523313Y-58964364D01*
X84523302Y-58964366D01*
X84303511Y-59023258D01*
X84303502Y-59023261D01*
X84097267Y-59119431D01*
X84097265Y-59119432D01*
X83910858Y-59249954D01*
X83749954Y-59410858D01*
X83619432Y-59597265D01*
X83619431Y-59597267D01*
X83523261Y-59803502D01*
X83523258Y-59803511D01*
X83464366Y-60023302D01*
X83464364Y-60023313D01*
X83444532Y-60249998D01*
X80955141Y-60249998D01*
X80934621Y-60028560D01*
X80873759Y-59814649D01*
X80774633Y-59615577D01*
X80774631Y-59615574D01*
X80758860Y-59594691D01*
X80150000Y-60203552D01*
X80150000Y-60197339D01*
X80122741Y-60095606D01*
X80070080Y-60004394D01*
X79995606Y-59929920D01*
X79904394Y-59877259D01*
X79802661Y-59850000D01*
X79796447Y-59850000D01*
X80403327Y-59243118D01*
X80403326Y-59243117D01*
X80287181Y-59171203D01*
X80287175Y-59171200D01*
X80079804Y-59090865D01*
X79861193Y-59050000D01*
X79638807Y-59050000D01*
X79420195Y-59090865D01*
X79212824Y-59171200D01*
X79212818Y-59171204D01*
X79096672Y-59243117D01*
X79096671Y-59243118D01*
X79703554Y-59850000D01*
X79697339Y-59850000D01*
X79595606Y-59877259D01*
X79504394Y-59929920D01*
X79429920Y-60004394D01*
X79377259Y-60095606D01*
X79350000Y-60197339D01*
X79350000Y-60203553D01*
X78741138Y-59594691D01*
X78741137Y-59594691D01*
X78725369Y-59615571D01*
X78626240Y-59814649D01*
X78565378Y-60028560D01*
X78544859Y-60249999D01*
X60952348Y-60249999D01*
X60944035Y-60232171D01*
X60938425Y-60224158D01*
X60808494Y-60038597D01*
X60641402Y-59871506D01*
X60641395Y-59871501D01*
X60447834Y-59735967D01*
X60447830Y-59735965D01*
X60447828Y-59735964D01*
X60364133Y-59696936D01*
X60311695Y-59650765D01*
X60292543Y-59583571D01*
X60312759Y-59516690D01*
X60364135Y-59472172D01*
X60397389Y-59456665D01*
X60576554Y-59331212D01*
X60731212Y-59176554D01*
X60856666Y-58997387D01*
X60949101Y-58799159D01*
X60949105Y-58799150D01*
X60997108Y-58620000D01*
X60203012Y-58620000D01*
X60235925Y-58562993D01*
X60270000Y-58435826D01*
X60270000Y-58304174D01*
X60235925Y-58177007D01*
X60203012Y-58120000D01*
X60997108Y-58120000D01*
X60997108Y-58119999D01*
X60949105Y-57940849D01*
X60949101Y-57940840D01*
X60856666Y-57742612D01*
X60856664Y-57742608D01*
X60731216Y-57563450D01*
X60731211Y-57563444D01*
X60576554Y-57408787D01*
X60397387Y-57283333D01*
X60199159Y-57190898D01*
X60199150Y-57190894D01*
X60020000Y-57142891D01*
X60020000Y-57936988D01*
X59962993Y-57904075D01*
X59835826Y-57870000D01*
X59704174Y-57870000D01*
X59577007Y-57904075D01*
X59520000Y-57936988D01*
X59520000Y-57142892D01*
X59519999Y-57142891D01*
X59340849Y-57190894D01*
X59340840Y-57190898D01*
X59142612Y-57283333D01*
X59142608Y-57283335D01*
X58963450Y-57408783D01*
X58963444Y-57408788D01*
X58808788Y-57563444D01*
X58808783Y-57563450D01*
X58683335Y-57742608D01*
X58683333Y-57742612D01*
X58667827Y-57775866D01*
X58621654Y-57828305D01*
X58554461Y-57847457D01*
X58487580Y-57827241D01*
X58443063Y-57775866D01*
X58404035Y-57692171D01*
X58404034Y-57692169D01*
X58268494Y-57498597D01*
X58101402Y-57331506D01*
X58101395Y-57331501D01*
X57907834Y-57195967D01*
X57907830Y-57195965D01*
X57896955Y-57190894D01*
X57693663Y-57096097D01*
X57693659Y-57096096D01*
X57693655Y-57096094D01*
X57465413Y-57034938D01*
X57465403Y-57034936D01*
X57230001Y-57014341D01*
X57229999Y-57014341D01*
X56994596Y-57034936D01*
X56994586Y-57034938D01*
X56766344Y-57096094D01*
X56766335Y-57096098D01*
X56552171Y-57195964D01*
X56552169Y-57195965D01*
X56358597Y-57331505D01*
X56191505Y-57498597D01*
X56055965Y-57692169D01*
X56055964Y-57692171D01*
X55956098Y-57906335D01*
X55956094Y-57906344D01*
X55894938Y-58134586D01*
X55894936Y-58134596D01*
X55874341Y-58369999D01*
X50500500Y-58369999D01*
X50500500Y-53374038D01*
X56899500Y-53374038D01*
X56899500Y-53625961D01*
X56938910Y-53874785D01*
X57016760Y-54114383D01*
X57131132Y-54338848D01*
X57279201Y-54542649D01*
X57279205Y-54542654D01*
X57457345Y-54720794D01*
X57457350Y-54720798D01*
X57635117Y-54849952D01*
X57661155Y-54868870D01*
X57804184Y-54941747D01*
X57885616Y-54983239D01*
X57885618Y-54983239D01*
X57885621Y-54983241D01*
X58125215Y-55061090D01*
X58374038Y-55100500D01*
X58374039Y-55100500D01*
X58625961Y-55100500D01*
X58625962Y-55100500D01*
X58874785Y-55061090D01*
X59114379Y-54983241D01*
X59338845Y-54868870D01*
X59542656Y-54720793D01*
X59720793Y-54542656D01*
X59868870Y-54338845D01*
X59983241Y-54114379D01*
X60061090Y-53874785D01*
X60100500Y-53625962D01*
X60100500Y-53374038D01*
X79899500Y-53374038D01*
X79899500Y-53625961D01*
X79938910Y-53874785D01*
X80016760Y-54114383D01*
X80131132Y-54338848D01*
X80279201Y-54542649D01*
X80279205Y-54542654D01*
X80457345Y-54720794D01*
X80457350Y-54720798D01*
X80635117Y-54849952D01*
X80661155Y-54868870D01*
X80804184Y-54941747D01*
X80885616Y-54983239D01*
X80885618Y-54983239D01*
X80885621Y-54983241D01*
X81125215Y-55061090D01*
X81374038Y-55100500D01*
X81374039Y-55100500D01*
X81625961Y-55100500D01*
X81625962Y-55100500D01*
X81874785Y-55061090D01*
X82114379Y-54983241D01*
X82338845Y-54868870D01*
X82542656Y-54720793D01*
X82720793Y-54542656D01*
X82868870Y-54338845D01*
X82983241Y-54114379D01*
X83061090Y-53874785D01*
X83100500Y-53625962D01*
X83100500Y-53374038D01*
X83061090Y-53125215D01*
X82983241Y-52885621D01*
X82983239Y-52885618D01*
X82983239Y-52885616D01*
X82941747Y-52804184D01*
X82868870Y-52661155D01*
X82849952Y-52635117D01*
X82720798Y-52457350D01*
X82720794Y-52457345D01*
X82542654Y-52279205D01*
X82542649Y-52279201D01*
X82338848Y-52131132D01*
X82338847Y-52131131D01*
X82338845Y-52131130D01*
X82268747Y-52095413D01*
X82114383Y-52016760D01*
X81874785Y-51938910D01*
X81625962Y-51899500D01*
X81374038Y-51899500D01*
X81249626Y-51919205D01*
X81125214Y-51938910D01*
X80885616Y-52016760D01*
X80661151Y-52131132D01*
X80457350Y-52279201D01*
X80457345Y-52279205D01*
X80279205Y-52457345D01*
X80279201Y-52457350D01*
X80131132Y-52661151D01*
X80016760Y-52885616D01*
X79938910Y-53125214D01*
X79899500Y-53374038D01*
X60100500Y-53374038D01*
X60061090Y-53125215D01*
X59983241Y-52885621D01*
X59983239Y-52885618D01*
X59983239Y-52885616D01*
X59941747Y-52804184D01*
X59868870Y-52661155D01*
X59849952Y-52635117D01*
X59720798Y-52457350D01*
X59720794Y-52457345D01*
X59542654Y-52279205D01*
X59542649Y-52279201D01*
X59338848Y-52131132D01*
X59338847Y-52131131D01*
X59338845Y-52131130D01*
X59268747Y-52095413D01*
X59114383Y-52016760D01*
X58874785Y-51938910D01*
X58625962Y-51899500D01*
X58374038Y-51899500D01*
X58249626Y-51919205D01*
X58125214Y-51938910D01*
X57885616Y-52016760D01*
X57661151Y-52131132D01*
X57457350Y-52279201D01*
X57457345Y-52279205D01*
X57279205Y-52457345D01*
X57279201Y-52457350D01*
X57131132Y-52661151D01*
X57016760Y-52885616D01*
X56938910Y-53125214D01*
X56899500Y-53374038D01*
X50500500Y-53374038D01*
X50500500Y-50624500D01*
X50520185Y-50557461D01*
X50572989Y-50511706D01*
X50624500Y-50500500D01*
X89375500Y-50500500D01*
X89442539Y-50520185D01*
G37*
%TD.AperFunction*%
%TD*%
M02*
