%TF.GenerationSoftware,KiCad,Pcbnew,8.0.7*%
%TF.CreationDate,2025-02-20T21:39:26+00:00*%
%TF.ProjectId,RPi-MiniDexed-EuroRack,5250692d-4d69-46e6-9944-657865642d45,rev?*%
%TF.SameCoordinates,Original*%
%TF.FileFunction,Legend,Top*%
%TF.FilePolarity,Positive*%
%FSLAX46Y46*%
G04 Gerber Fmt 4.6, Leading zero omitted, Abs format (unit mm)*
G04 Created by KiCad (PCBNEW 8.0.7) date 2025-02-20 21:39:26*
%MOMM*%
%LPD*%
G01*
G04 APERTURE LIST*
%ADD10C,0.200000*%
%ADD11C,0.100000*%
%ADD12C,0.150000*%
%ADD13C,0.120000*%
G04 APERTURE END LIST*
D10*
X84785552Y-123297619D02*
X85452219Y-123297619D01*
X84404600Y-123535714D02*
X85118885Y-123773809D01*
X85118885Y-123773809D02*
X85118885Y-123154762D01*
X84452219Y-120773809D02*
X84452219Y-121249999D01*
X84452219Y-121249999D02*
X84928409Y-121297618D01*
X84928409Y-121297618D02*
X84880790Y-121249999D01*
X84880790Y-121249999D02*
X84833171Y-121154761D01*
X84833171Y-121154761D02*
X84833171Y-120916666D01*
X84833171Y-120916666D02*
X84880790Y-120821428D01*
X84880790Y-120821428D02*
X84928409Y-120773809D01*
X84928409Y-120773809D02*
X85023647Y-120726190D01*
X85023647Y-120726190D02*
X85261742Y-120726190D01*
X85261742Y-120726190D02*
X85356980Y-120773809D01*
X85356980Y-120773809D02*
X85404600Y-120821428D01*
X85404600Y-120821428D02*
X85452219Y-120916666D01*
X85452219Y-120916666D02*
X85452219Y-121154761D01*
X85452219Y-121154761D02*
X85404600Y-121249999D01*
X85404600Y-121249999D02*
X85356980Y-121297618D01*
D11*
X50802990Y-68695238D02*
X50764895Y-68771428D01*
X50764895Y-68771428D02*
X50764895Y-68885714D01*
X50764895Y-68885714D02*
X50802990Y-69000000D01*
X50802990Y-69000000D02*
X50879180Y-69076190D01*
X50879180Y-69076190D02*
X50955371Y-69114285D01*
X50955371Y-69114285D02*
X51107752Y-69152381D01*
X51107752Y-69152381D02*
X51222038Y-69152381D01*
X51222038Y-69152381D02*
X51374419Y-69114285D01*
X51374419Y-69114285D02*
X51450609Y-69076190D01*
X51450609Y-69076190D02*
X51526800Y-69000000D01*
X51526800Y-69000000D02*
X51564895Y-68885714D01*
X51564895Y-68885714D02*
X51564895Y-68809523D01*
X51564895Y-68809523D02*
X51526800Y-68695238D01*
X51526800Y-68695238D02*
X51488704Y-68657142D01*
X51488704Y-68657142D02*
X51222038Y-68657142D01*
X51222038Y-68657142D02*
X51222038Y-68809523D01*
X51564895Y-68314285D02*
X50764895Y-68314285D01*
X50764895Y-68314285D02*
X51564895Y-67857142D01*
X51564895Y-67857142D02*
X50764895Y-67857142D01*
X51564895Y-67476190D02*
X50764895Y-67476190D01*
X50764895Y-67476190D02*
X50764895Y-67285714D01*
X50764895Y-67285714D02*
X50802990Y-67171428D01*
X50802990Y-67171428D02*
X50879180Y-67095238D01*
X50879180Y-67095238D02*
X50955371Y-67057143D01*
X50955371Y-67057143D02*
X51107752Y-67019047D01*
X51107752Y-67019047D02*
X51222038Y-67019047D01*
X51222038Y-67019047D02*
X51374419Y-67057143D01*
X51374419Y-67057143D02*
X51450609Y-67095238D01*
X51450609Y-67095238D02*
X51526800Y-67171428D01*
X51526800Y-67171428D02*
X51564895Y-67285714D01*
X51564895Y-67285714D02*
X51564895Y-67476190D01*
X50764895Y-66180952D02*
X51564895Y-65914285D01*
X51564895Y-65914285D02*
X50764895Y-65647619D01*
X51488704Y-64923809D02*
X51526800Y-64961905D01*
X51526800Y-64961905D02*
X51564895Y-65076190D01*
X51564895Y-65076190D02*
X51564895Y-65152381D01*
X51564895Y-65152381D02*
X51526800Y-65266667D01*
X51526800Y-65266667D02*
X51450609Y-65342857D01*
X51450609Y-65342857D02*
X51374419Y-65380952D01*
X51374419Y-65380952D02*
X51222038Y-65419048D01*
X51222038Y-65419048D02*
X51107752Y-65419048D01*
X51107752Y-65419048D02*
X50955371Y-65380952D01*
X50955371Y-65380952D02*
X50879180Y-65342857D01*
X50879180Y-65342857D02*
X50802990Y-65266667D01*
X50802990Y-65266667D02*
X50764895Y-65152381D01*
X50764895Y-65152381D02*
X50764895Y-65076190D01*
X50764895Y-65076190D02*
X50802990Y-64961905D01*
X50802990Y-64961905D02*
X50841085Y-64923809D01*
X51488704Y-64123809D02*
X51526800Y-64161905D01*
X51526800Y-64161905D02*
X51564895Y-64276190D01*
X51564895Y-64276190D02*
X51564895Y-64352381D01*
X51564895Y-64352381D02*
X51526800Y-64466667D01*
X51526800Y-64466667D02*
X51450609Y-64542857D01*
X51450609Y-64542857D02*
X51374419Y-64580952D01*
X51374419Y-64580952D02*
X51222038Y-64619048D01*
X51222038Y-64619048D02*
X51107752Y-64619048D01*
X51107752Y-64619048D02*
X50955371Y-64580952D01*
X50955371Y-64580952D02*
X50879180Y-64542857D01*
X50879180Y-64542857D02*
X50802990Y-64466667D01*
X50802990Y-64466667D02*
X50764895Y-64352381D01*
X50764895Y-64352381D02*
X50764895Y-64276190D01*
X50764895Y-64276190D02*
X50802990Y-64161905D01*
X50802990Y-64161905D02*
X50841085Y-64123809D01*
X51526800Y-63209524D02*
X51564895Y-63095238D01*
X51564895Y-63095238D02*
X51564895Y-62904762D01*
X51564895Y-62904762D02*
X51526800Y-62828571D01*
X51526800Y-62828571D02*
X51488704Y-62790476D01*
X51488704Y-62790476D02*
X51412514Y-62752381D01*
X51412514Y-62752381D02*
X51336323Y-62752381D01*
X51336323Y-62752381D02*
X51260133Y-62790476D01*
X51260133Y-62790476D02*
X51222038Y-62828571D01*
X51222038Y-62828571D02*
X51183942Y-62904762D01*
X51183942Y-62904762D02*
X51145847Y-63057143D01*
X51145847Y-63057143D02*
X51107752Y-63133333D01*
X51107752Y-63133333D02*
X51069657Y-63171428D01*
X51069657Y-63171428D02*
X50993466Y-63209524D01*
X50993466Y-63209524D02*
X50917276Y-63209524D01*
X50917276Y-63209524D02*
X50841085Y-63171428D01*
X50841085Y-63171428D02*
X50802990Y-63133333D01*
X50802990Y-63133333D02*
X50764895Y-63057143D01*
X50764895Y-63057143D02*
X50764895Y-62866666D01*
X50764895Y-62866666D02*
X50802990Y-62752381D01*
X51488704Y-61952380D02*
X51526800Y-61990476D01*
X51526800Y-61990476D02*
X51564895Y-62104761D01*
X51564895Y-62104761D02*
X51564895Y-62180952D01*
X51564895Y-62180952D02*
X51526800Y-62295238D01*
X51526800Y-62295238D02*
X51450609Y-62371428D01*
X51450609Y-62371428D02*
X51374419Y-62409523D01*
X51374419Y-62409523D02*
X51222038Y-62447619D01*
X51222038Y-62447619D02*
X51107752Y-62447619D01*
X51107752Y-62447619D02*
X50955371Y-62409523D01*
X50955371Y-62409523D02*
X50879180Y-62371428D01*
X50879180Y-62371428D02*
X50802990Y-62295238D01*
X50802990Y-62295238D02*
X50764895Y-62180952D01*
X50764895Y-62180952D02*
X50764895Y-62104761D01*
X50764895Y-62104761D02*
X50802990Y-61990476D01*
X50802990Y-61990476D02*
X50841085Y-61952380D01*
X51564895Y-61228571D02*
X51564895Y-61609523D01*
X51564895Y-61609523D02*
X50764895Y-61609523D01*
X51526800Y-60390476D02*
X51564895Y-60276190D01*
X51564895Y-60276190D02*
X51564895Y-60085714D01*
X51564895Y-60085714D02*
X51526800Y-60009523D01*
X51526800Y-60009523D02*
X51488704Y-59971428D01*
X51488704Y-59971428D02*
X51412514Y-59933333D01*
X51412514Y-59933333D02*
X51336323Y-59933333D01*
X51336323Y-59933333D02*
X51260133Y-59971428D01*
X51260133Y-59971428D02*
X51222038Y-60009523D01*
X51222038Y-60009523D02*
X51183942Y-60085714D01*
X51183942Y-60085714D02*
X51145847Y-60238095D01*
X51145847Y-60238095D02*
X51107752Y-60314285D01*
X51107752Y-60314285D02*
X51069657Y-60352380D01*
X51069657Y-60352380D02*
X50993466Y-60390476D01*
X50993466Y-60390476D02*
X50917276Y-60390476D01*
X50917276Y-60390476D02*
X50841085Y-60352380D01*
X50841085Y-60352380D02*
X50802990Y-60314285D01*
X50802990Y-60314285D02*
X50764895Y-60238095D01*
X50764895Y-60238095D02*
X50764895Y-60047618D01*
X50764895Y-60047618D02*
X50802990Y-59933333D01*
X51564895Y-59590475D02*
X50764895Y-59590475D01*
X50764895Y-59590475D02*
X50764895Y-59399999D01*
X50764895Y-59399999D02*
X50802990Y-59285713D01*
X50802990Y-59285713D02*
X50879180Y-59209523D01*
X50879180Y-59209523D02*
X50955371Y-59171428D01*
X50955371Y-59171428D02*
X51107752Y-59133332D01*
X51107752Y-59133332D02*
X51222038Y-59133332D01*
X51222038Y-59133332D02*
X51374419Y-59171428D01*
X51374419Y-59171428D02*
X51450609Y-59209523D01*
X51450609Y-59209523D02*
X51526800Y-59285713D01*
X51526800Y-59285713D02*
X51564895Y-59399999D01*
X51564895Y-59399999D02*
X51564895Y-59590475D01*
X51336323Y-58828571D02*
X51336323Y-58447618D01*
X51564895Y-58904761D02*
X50764895Y-58638094D01*
X50764895Y-58638094D02*
X51564895Y-58371428D01*
X62690476Y-52292419D02*
X62690476Y-51292419D01*
X62690476Y-51292419D02*
X63023809Y-52006704D01*
X63023809Y-52006704D02*
X63357142Y-51292419D01*
X63357142Y-51292419D02*
X63357142Y-52292419D01*
X63833333Y-52292419D02*
X63833333Y-51625752D01*
X63833333Y-51292419D02*
X63785714Y-51340038D01*
X63785714Y-51340038D02*
X63833333Y-51387657D01*
X63833333Y-51387657D02*
X63880952Y-51340038D01*
X63880952Y-51340038D02*
X63833333Y-51292419D01*
X63833333Y-51292419D02*
X63833333Y-51387657D01*
X64309523Y-51625752D02*
X64309523Y-52292419D01*
X64309523Y-51720990D02*
X64357142Y-51673371D01*
X64357142Y-51673371D02*
X64452380Y-51625752D01*
X64452380Y-51625752D02*
X64595237Y-51625752D01*
X64595237Y-51625752D02*
X64690475Y-51673371D01*
X64690475Y-51673371D02*
X64738094Y-51768609D01*
X64738094Y-51768609D02*
X64738094Y-52292419D01*
X65214285Y-52292419D02*
X65214285Y-51625752D01*
X65214285Y-51292419D02*
X65166666Y-51340038D01*
X65166666Y-51340038D02*
X65214285Y-51387657D01*
X65214285Y-51387657D02*
X65261904Y-51340038D01*
X65261904Y-51340038D02*
X65214285Y-51292419D01*
X65214285Y-51292419D02*
X65214285Y-51387657D01*
X65690475Y-52292419D02*
X65690475Y-51292419D01*
X65690475Y-51292419D02*
X65928570Y-51292419D01*
X65928570Y-51292419D02*
X66071427Y-51340038D01*
X66071427Y-51340038D02*
X66166665Y-51435276D01*
X66166665Y-51435276D02*
X66214284Y-51530514D01*
X66214284Y-51530514D02*
X66261903Y-51720990D01*
X66261903Y-51720990D02*
X66261903Y-51863847D01*
X66261903Y-51863847D02*
X66214284Y-52054323D01*
X66214284Y-52054323D02*
X66166665Y-52149561D01*
X66166665Y-52149561D02*
X66071427Y-52244800D01*
X66071427Y-52244800D02*
X65928570Y-52292419D01*
X65928570Y-52292419D02*
X65690475Y-52292419D01*
X67071427Y-52244800D02*
X66976189Y-52292419D01*
X66976189Y-52292419D02*
X66785713Y-52292419D01*
X66785713Y-52292419D02*
X66690475Y-52244800D01*
X66690475Y-52244800D02*
X66642856Y-52149561D01*
X66642856Y-52149561D02*
X66642856Y-51768609D01*
X66642856Y-51768609D02*
X66690475Y-51673371D01*
X66690475Y-51673371D02*
X66785713Y-51625752D01*
X66785713Y-51625752D02*
X66976189Y-51625752D01*
X66976189Y-51625752D02*
X67071427Y-51673371D01*
X67071427Y-51673371D02*
X67119046Y-51768609D01*
X67119046Y-51768609D02*
X67119046Y-51863847D01*
X67119046Y-51863847D02*
X66642856Y-51959085D01*
X67452380Y-52292419D02*
X67976189Y-51625752D01*
X67452380Y-51625752D02*
X67976189Y-52292419D01*
X68738094Y-52244800D02*
X68642856Y-52292419D01*
X68642856Y-52292419D02*
X68452380Y-52292419D01*
X68452380Y-52292419D02*
X68357142Y-52244800D01*
X68357142Y-52244800D02*
X68309523Y-52149561D01*
X68309523Y-52149561D02*
X68309523Y-51768609D01*
X68309523Y-51768609D02*
X68357142Y-51673371D01*
X68357142Y-51673371D02*
X68452380Y-51625752D01*
X68452380Y-51625752D02*
X68642856Y-51625752D01*
X68642856Y-51625752D02*
X68738094Y-51673371D01*
X68738094Y-51673371D02*
X68785713Y-51768609D01*
X68785713Y-51768609D02*
X68785713Y-51863847D01*
X68785713Y-51863847D02*
X68309523Y-51959085D01*
X69642856Y-52292419D02*
X69642856Y-51292419D01*
X69642856Y-52244800D02*
X69547618Y-52292419D01*
X69547618Y-52292419D02*
X69357142Y-52292419D01*
X69357142Y-52292419D02*
X69261904Y-52244800D01*
X69261904Y-52244800D02*
X69214285Y-52197180D01*
X69214285Y-52197180D02*
X69166666Y-52101942D01*
X69166666Y-52101942D02*
X69166666Y-51816228D01*
X69166666Y-51816228D02*
X69214285Y-51720990D01*
X69214285Y-51720990D02*
X69261904Y-51673371D01*
X69261904Y-51673371D02*
X69357142Y-51625752D01*
X69357142Y-51625752D02*
X69547618Y-51625752D01*
X69547618Y-51625752D02*
X69642856Y-51673371D01*
X70880952Y-51768609D02*
X71214285Y-51768609D01*
X71357142Y-52292419D02*
X70880952Y-52292419D01*
X70880952Y-52292419D02*
X70880952Y-51292419D01*
X70880952Y-51292419D02*
X71357142Y-51292419D01*
X72214285Y-51625752D02*
X72214285Y-52292419D01*
X71785714Y-51625752D02*
X71785714Y-52149561D01*
X71785714Y-52149561D02*
X71833333Y-52244800D01*
X71833333Y-52244800D02*
X71928571Y-52292419D01*
X71928571Y-52292419D02*
X72071428Y-52292419D01*
X72071428Y-52292419D02*
X72166666Y-52244800D01*
X72166666Y-52244800D02*
X72214285Y-52197180D01*
X72690476Y-52292419D02*
X72690476Y-51625752D01*
X72690476Y-51816228D02*
X72738095Y-51720990D01*
X72738095Y-51720990D02*
X72785714Y-51673371D01*
X72785714Y-51673371D02*
X72880952Y-51625752D01*
X72880952Y-51625752D02*
X72976190Y-51625752D01*
X73452381Y-52292419D02*
X73357143Y-52244800D01*
X73357143Y-52244800D02*
X73309524Y-52197180D01*
X73309524Y-52197180D02*
X73261905Y-52101942D01*
X73261905Y-52101942D02*
X73261905Y-51816228D01*
X73261905Y-51816228D02*
X73309524Y-51720990D01*
X73309524Y-51720990D02*
X73357143Y-51673371D01*
X73357143Y-51673371D02*
X73452381Y-51625752D01*
X73452381Y-51625752D02*
X73595238Y-51625752D01*
X73595238Y-51625752D02*
X73690476Y-51673371D01*
X73690476Y-51673371D02*
X73738095Y-51720990D01*
X73738095Y-51720990D02*
X73785714Y-51816228D01*
X73785714Y-51816228D02*
X73785714Y-52101942D01*
X73785714Y-52101942D02*
X73738095Y-52197180D01*
X73738095Y-52197180D02*
X73690476Y-52244800D01*
X73690476Y-52244800D02*
X73595238Y-52292419D01*
X73595238Y-52292419D02*
X73452381Y-52292419D01*
X74785714Y-52292419D02*
X74452381Y-51816228D01*
X74214286Y-52292419D02*
X74214286Y-51292419D01*
X74214286Y-51292419D02*
X74595238Y-51292419D01*
X74595238Y-51292419D02*
X74690476Y-51340038D01*
X74690476Y-51340038D02*
X74738095Y-51387657D01*
X74738095Y-51387657D02*
X74785714Y-51482895D01*
X74785714Y-51482895D02*
X74785714Y-51625752D01*
X74785714Y-51625752D02*
X74738095Y-51720990D01*
X74738095Y-51720990D02*
X74690476Y-51768609D01*
X74690476Y-51768609D02*
X74595238Y-51816228D01*
X74595238Y-51816228D02*
X74214286Y-51816228D01*
X75642857Y-52292419D02*
X75642857Y-51768609D01*
X75642857Y-51768609D02*
X75595238Y-51673371D01*
X75595238Y-51673371D02*
X75500000Y-51625752D01*
X75500000Y-51625752D02*
X75309524Y-51625752D01*
X75309524Y-51625752D02*
X75214286Y-51673371D01*
X75642857Y-52244800D02*
X75547619Y-52292419D01*
X75547619Y-52292419D02*
X75309524Y-52292419D01*
X75309524Y-52292419D02*
X75214286Y-52244800D01*
X75214286Y-52244800D02*
X75166667Y-52149561D01*
X75166667Y-52149561D02*
X75166667Y-52054323D01*
X75166667Y-52054323D02*
X75214286Y-51959085D01*
X75214286Y-51959085D02*
X75309524Y-51911466D01*
X75309524Y-51911466D02*
X75547619Y-51911466D01*
X75547619Y-51911466D02*
X75642857Y-51863847D01*
X76547619Y-52244800D02*
X76452381Y-52292419D01*
X76452381Y-52292419D02*
X76261905Y-52292419D01*
X76261905Y-52292419D02*
X76166667Y-52244800D01*
X76166667Y-52244800D02*
X76119048Y-52197180D01*
X76119048Y-52197180D02*
X76071429Y-52101942D01*
X76071429Y-52101942D02*
X76071429Y-51816228D01*
X76071429Y-51816228D02*
X76119048Y-51720990D01*
X76119048Y-51720990D02*
X76166667Y-51673371D01*
X76166667Y-51673371D02*
X76261905Y-51625752D01*
X76261905Y-51625752D02*
X76452381Y-51625752D01*
X76452381Y-51625752D02*
X76547619Y-51673371D01*
X76976191Y-52292419D02*
X76976191Y-51292419D01*
X77071429Y-51911466D02*
X77357143Y-52292419D01*
X77357143Y-51625752D02*
X76976191Y-52006704D01*
X66285714Y-53235696D02*
X66523809Y-53902363D01*
X66523809Y-53902363D02*
X66761904Y-53235696D01*
X67333333Y-52902363D02*
X67428571Y-52902363D01*
X67428571Y-52902363D02*
X67523809Y-52949982D01*
X67523809Y-52949982D02*
X67571428Y-52997601D01*
X67571428Y-52997601D02*
X67619047Y-53092839D01*
X67619047Y-53092839D02*
X67666666Y-53283315D01*
X67666666Y-53283315D02*
X67666666Y-53521410D01*
X67666666Y-53521410D02*
X67619047Y-53711886D01*
X67619047Y-53711886D02*
X67571428Y-53807124D01*
X67571428Y-53807124D02*
X67523809Y-53854744D01*
X67523809Y-53854744D02*
X67428571Y-53902363D01*
X67428571Y-53902363D02*
X67333333Y-53902363D01*
X67333333Y-53902363D02*
X67238095Y-53854744D01*
X67238095Y-53854744D02*
X67190476Y-53807124D01*
X67190476Y-53807124D02*
X67142857Y-53711886D01*
X67142857Y-53711886D02*
X67095238Y-53521410D01*
X67095238Y-53521410D02*
X67095238Y-53283315D01*
X67095238Y-53283315D02*
X67142857Y-53092839D01*
X67142857Y-53092839D02*
X67190476Y-52997601D01*
X67190476Y-52997601D02*
X67238095Y-52949982D01*
X67238095Y-52949982D02*
X67333333Y-52902363D01*
X68095238Y-53807124D02*
X68142857Y-53854744D01*
X68142857Y-53854744D02*
X68095238Y-53902363D01*
X68095238Y-53902363D02*
X68047619Y-53854744D01*
X68047619Y-53854744D02*
X68095238Y-53807124D01*
X68095238Y-53807124D02*
X68095238Y-53902363D01*
X68523809Y-52997601D02*
X68571428Y-52949982D01*
X68571428Y-52949982D02*
X68666666Y-52902363D01*
X68666666Y-52902363D02*
X68904761Y-52902363D01*
X68904761Y-52902363D02*
X68999999Y-52949982D01*
X68999999Y-52949982D02*
X69047618Y-52997601D01*
X69047618Y-52997601D02*
X69095237Y-53092839D01*
X69095237Y-53092839D02*
X69095237Y-53188077D01*
X69095237Y-53188077D02*
X69047618Y-53330934D01*
X69047618Y-53330934D02*
X68476190Y-53902363D01*
X68476190Y-53902363D02*
X69095237Y-53902363D01*
X70238095Y-52997601D02*
X70285714Y-52949982D01*
X70285714Y-52949982D02*
X70380952Y-52902363D01*
X70380952Y-52902363D02*
X70619047Y-52902363D01*
X70619047Y-52902363D02*
X70714285Y-52949982D01*
X70714285Y-52949982D02*
X70761904Y-52997601D01*
X70761904Y-52997601D02*
X70809523Y-53092839D01*
X70809523Y-53092839D02*
X70809523Y-53188077D01*
X70809523Y-53188077D02*
X70761904Y-53330934D01*
X70761904Y-53330934D02*
X70190476Y-53902363D01*
X70190476Y-53902363D02*
X70809523Y-53902363D01*
X71428571Y-52902363D02*
X71523809Y-52902363D01*
X71523809Y-52902363D02*
X71619047Y-52949982D01*
X71619047Y-52949982D02*
X71666666Y-52997601D01*
X71666666Y-52997601D02*
X71714285Y-53092839D01*
X71714285Y-53092839D02*
X71761904Y-53283315D01*
X71761904Y-53283315D02*
X71761904Y-53521410D01*
X71761904Y-53521410D02*
X71714285Y-53711886D01*
X71714285Y-53711886D02*
X71666666Y-53807124D01*
X71666666Y-53807124D02*
X71619047Y-53854744D01*
X71619047Y-53854744D02*
X71523809Y-53902363D01*
X71523809Y-53902363D02*
X71428571Y-53902363D01*
X71428571Y-53902363D02*
X71333333Y-53854744D01*
X71333333Y-53854744D02*
X71285714Y-53807124D01*
X71285714Y-53807124D02*
X71238095Y-53711886D01*
X71238095Y-53711886D02*
X71190476Y-53521410D01*
X71190476Y-53521410D02*
X71190476Y-53283315D01*
X71190476Y-53283315D02*
X71238095Y-53092839D01*
X71238095Y-53092839D02*
X71285714Y-52997601D01*
X71285714Y-52997601D02*
X71333333Y-52949982D01*
X71333333Y-52949982D02*
X71428571Y-52902363D01*
X72142857Y-52997601D02*
X72190476Y-52949982D01*
X72190476Y-52949982D02*
X72285714Y-52902363D01*
X72285714Y-52902363D02*
X72523809Y-52902363D01*
X72523809Y-52902363D02*
X72619047Y-52949982D01*
X72619047Y-52949982D02*
X72666666Y-52997601D01*
X72666666Y-52997601D02*
X72714285Y-53092839D01*
X72714285Y-53092839D02*
X72714285Y-53188077D01*
X72714285Y-53188077D02*
X72666666Y-53330934D01*
X72666666Y-53330934D02*
X72095238Y-53902363D01*
X72095238Y-53902363D02*
X72714285Y-53902363D01*
X73619047Y-52902363D02*
X73142857Y-52902363D01*
X73142857Y-52902363D02*
X73095238Y-53378553D01*
X73095238Y-53378553D02*
X73142857Y-53330934D01*
X73142857Y-53330934D02*
X73238095Y-53283315D01*
X73238095Y-53283315D02*
X73476190Y-53283315D01*
X73476190Y-53283315D02*
X73571428Y-53330934D01*
X73571428Y-53330934D02*
X73619047Y-53378553D01*
X73619047Y-53378553D02*
X73666666Y-53473791D01*
X73666666Y-53473791D02*
X73666666Y-53711886D01*
X73666666Y-53711886D02*
X73619047Y-53807124D01*
X73619047Y-53807124D02*
X73571428Y-53854744D01*
X73571428Y-53854744D02*
X73476190Y-53902363D01*
X73476190Y-53902363D02*
X73238095Y-53902363D01*
X73238095Y-53902363D02*
X73142857Y-53854744D01*
X73142857Y-53854744D02*
X73095238Y-53807124D01*
X64809523Y-55512307D02*
X64809523Y-54512307D01*
X64809523Y-55464688D02*
X64714285Y-55512307D01*
X64714285Y-55512307D02*
X64523809Y-55512307D01*
X64523809Y-55512307D02*
X64428571Y-55464688D01*
X64428571Y-55464688D02*
X64380952Y-55417068D01*
X64380952Y-55417068D02*
X64333333Y-55321830D01*
X64333333Y-55321830D02*
X64333333Y-55036116D01*
X64333333Y-55036116D02*
X64380952Y-54940878D01*
X64380952Y-54940878D02*
X64428571Y-54893259D01*
X64428571Y-54893259D02*
X64523809Y-54845640D01*
X64523809Y-54845640D02*
X64714285Y-54845640D01*
X64714285Y-54845640D02*
X64809523Y-54893259D01*
X65285714Y-55512307D02*
X65285714Y-54845640D01*
X65285714Y-54512307D02*
X65238095Y-54559926D01*
X65238095Y-54559926D02*
X65285714Y-54607545D01*
X65285714Y-54607545D02*
X65333333Y-54559926D01*
X65333333Y-54559926D02*
X65285714Y-54512307D01*
X65285714Y-54512307D02*
X65285714Y-54607545D01*
X65666666Y-54845640D02*
X65904761Y-55512307D01*
X66142856Y-54845640D02*
X65904761Y-55512307D01*
X65904761Y-55512307D02*
X65809523Y-55750402D01*
X65809523Y-55750402D02*
X65761904Y-55798021D01*
X65761904Y-55798021D02*
X65666666Y-55845640D01*
X66904761Y-55464688D02*
X66809523Y-55512307D01*
X66809523Y-55512307D02*
X66619047Y-55512307D01*
X66619047Y-55512307D02*
X66523809Y-55464688D01*
X66523809Y-55464688D02*
X66476190Y-55369449D01*
X66476190Y-55369449D02*
X66476190Y-54988497D01*
X66476190Y-54988497D02*
X66523809Y-54893259D01*
X66523809Y-54893259D02*
X66619047Y-54845640D01*
X66619047Y-54845640D02*
X66809523Y-54845640D01*
X66809523Y-54845640D02*
X66904761Y-54893259D01*
X66904761Y-54893259D02*
X66952380Y-54988497D01*
X66952380Y-54988497D02*
X66952380Y-55083735D01*
X66952380Y-55083735D02*
X66476190Y-55178973D01*
X67523809Y-55512307D02*
X67428571Y-55464688D01*
X67428571Y-55464688D02*
X67380952Y-55369449D01*
X67380952Y-55369449D02*
X67380952Y-54512307D01*
X68285714Y-55464688D02*
X68190476Y-55512307D01*
X68190476Y-55512307D02*
X68000000Y-55512307D01*
X68000000Y-55512307D02*
X67904762Y-55464688D01*
X67904762Y-55464688D02*
X67857143Y-55369449D01*
X67857143Y-55369449D02*
X67857143Y-54988497D01*
X67857143Y-54988497D02*
X67904762Y-54893259D01*
X67904762Y-54893259D02*
X68000000Y-54845640D01*
X68000000Y-54845640D02*
X68190476Y-54845640D01*
X68190476Y-54845640D02*
X68285714Y-54893259D01*
X68285714Y-54893259D02*
X68333333Y-54988497D01*
X68333333Y-54988497D02*
X68333333Y-55083735D01*
X68333333Y-55083735D02*
X67857143Y-55178973D01*
X69190476Y-55464688D02*
X69095238Y-55512307D01*
X69095238Y-55512307D02*
X68904762Y-55512307D01*
X68904762Y-55512307D02*
X68809524Y-55464688D01*
X68809524Y-55464688D02*
X68761905Y-55417068D01*
X68761905Y-55417068D02*
X68714286Y-55321830D01*
X68714286Y-55321830D02*
X68714286Y-55036116D01*
X68714286Y-55036116D02*
X68761905Y-54940878D01*
X68761905Y-54940878D02*
X68809524Y-54893259D01*
X68809524Y-54893259D02*
X68904762Y-54845640D01*
X68904762Y-54845640D02*
X69095238Y-54845640D01*
X69095238Y-54845640D02*
X69190476Y-54893259D01*
X69476191Y-54845640D02*
X69857143Y-54845640D01*
X69619048Y-54512307D02*
X69619048Y-55369449D01*
X69619048Y-55369449D02*
X69666667Y-55464688D01*
X69666667Y-55464688D02*
X69761905Y-55512307D01*
X69761905Y-55512307D02*
X69857143Y-55512307D01*
X70190477Y-55512307D02*
X70190477Y-54845640D01*
X70190477Y-55036116D02*
X70238096Y-54940878D01*
X70238096Y-54940878D02*
X70285715Y-54893259D01*
X70285715Y-54893259D02*
X70380953Y-54845640D01*
X70380953Y-54845640D02*
X70476191Y-54845640D01*
X70952382Y-55512307D02*
X70857144Y-55464688D01*
X70857144Y-55464688D02*
X70809525Y-55417068D01*
X70809525Y-55417068D02*
X70761906Y-55321830D01*
X70761906Y-55321830D02*
X70761906Y-55036116D01*
X70761906Y-55036116D02*
X70809525Y-54940878D01*
X70809525Y-54940878D02*
X70857144Y-54893259D01*
X70857144Y-54893259D02*
X70952382Y-54845640D01*
X70952382Y-54845640D02*
X71095239Y-54845640D01*
X71095239Y-54845640D02*
X71190477Y-54893259D01*
X71190477Y-54893259D02*
X71238096Y-54940878D01*
X71238096Y-54940878D02*
X71285715Y-55036116D01*
X71285715Y-55036116D02*
X71285715Y-55321830D01*
X71285715Y-55321830D02*
X71238096Y-55417068D01*
X71238096Y-55417068D02*
X71190477Y-55464688D01*
X71190477Y-55464688D02*
X71095239Y-55512307D01*
X71095239Y-55512307D02*
X70952382Y-55512307D01*
X71714287Y-55512307D02*
X71714287Y-54845640D01*
X71714287Y-54940878D02*
X71761906Y-54893259D01*
X71761906Y-54893259D02*
X71857144Y-54845640D01*
X71857144Y-54845640D02*
X72000001Y-54845640D01*
X72000001Y-54845640D02*
X72095239Y-54893259D01*
X72095239Y-54893259D02*
X72142858Y-54988497D01*
X72142858Y-54988497D02*
X72142858Y-55512307D01*
X72142858Y-54988497D02*
X72190477Y-54893259D01*
X72190477Y-54893259D02*
X72285715Y-54845640D01*
X72285715Y-54845640D02*
X72428572Y-54845640D01*
X72428572Y-54845640D02*
X72523811Y-54893259D01*
X72523811Y-54893259D02*
X72571430Y-54988497D01*
X72571430Y-54988497D02*
X72571430Y-55512307D01*
X73476191Y-54845640D02*
X73476191Y-55512307D01*
X73047620Y-54845640D02*
X73047620Y-55369449D01*
X73047620Y-55369449D02*
X73095239Y-55464688D01*
X73095239Y-55464688D02*
X73190477Y-55512307D01*
X73190477Y-55512307D02*
X73333334Y-55512307D01*
X73333334Y-55512307D02*
X73428572Y-55464688D01*
X73428572Y-55464688D02*
X73476191Y-55417068D01*
X73904763Y-55464688D02*
X74000001Y-55512307D01*
X74000001Y-55512307D02*
X74190477Y-55512307D01*
X74190477Y-55512307D02*
X74285715Y-55464688D01*
X74285715Y-55464688D02*
X74333334Y-55369449D01*
X74333334Y-55369449D02*
X74333334Y-55321830D01*
X74333334Y-55321830D02*
X74285715Y-55226592D01*
X74285715Y-55226592D02*
X74190477Y-55178973D01*
X74190477Y-55178973D02*
X74047620Y-55178973D01*
X74047620Y-55178973D02*
X73952382Y-55131354D01*
X73952382Y-55131354D02*
X73904763Y-55036116D01*
X73904763Y-55036116D02*
X73904763Y-54988497D01*
X73904763Y-54988497D02*
X73952382Y-54893259D01*
X73952382Y-54893259D02*
X74047620Y-54845640D01*
X74047620Y-54845640D02*
X74190477Y-54845640D01*
X74190477Y-54845640D02*
X74285715Y-54893259D01*
X74761906Y-55512307D02*
X74761906Y-54845640D01*
X74761906Y-54512307D02*
X74714287Y-54559926D01*
X74714287Y-54559926D02*
X74761906Y-54607545D01*
X74761906Y-54607545D02*
X74809525Y-54559926D01*
X74809525Y-54559926D02*
X74761906Y-54512307D01*
X74761906Y-54512307D02*
X74761906Y-54607545D01*
X75666667Y-55464688D02*
X75571429Y-55512307D01*
X75571429Y-55512307D02*
X75380953Y-55512307D01*
X75380953Y-55512307D02*
X75285715Y-55464688D01*
X75285715Y-55464688D02*
X75238096Y-55417068D01*
X75238096Y-55417068D02*
X75190477Y-55321830D01*
X75190477Y-55321830D02*
X75190477Y-55036116D01*
X75190477Y-55036116D02*
X75238096Y-54940878D01*
X75238096Y-54940878D02*
X75285715Y-54893259D01*
X75285715Y-54893259D02*
X75380953Y-54845640D01*
X75380953Y-54845640D02*
X75571429Y-54845640D01*
X75571429Y-54845640D02*
X75666667Y-54893259D01*
D10*
X85702219Y-132369048D02*
X85226028Y-132702381D01*
X85702219Y-132940476D02*
X84702219Y-132940476D01*
X84702219Y-132940476D02*
X84702219Y-132559524D01*
X84702219Y-132559524D02*
X84749838Y-132464286D01*
X84749838Y-132464286D02*
X84797457Y-132416667D01*
X84797457Y-132416667D02*
X84892695Y-132369048D01*
X84892695Y-132369048D02*
X85035552Y-132369048D01*
X85035552Y-132369048D02*
X85130790Y-132416667D01*
X85130790Y-132416667D02*
X85178409Y-132464286D01*
X85178409Y-132464286D02*
X85226028Y-132559524D01*
X85226028Y-132559524D02*
X85226028Y-132940476D01*
X85702219Y-129940476D02*
X85702219Y-130416666D01*
X85702219Y-130416666D02*
X84702219Y-130416666D01*
X84749838Y-127559523D02*
X84702219Y-127654761D01*
X84702219Y-127654761D02*
X84702219Y-127797618D01*
X84702219Y-127797618D02*
X84749838Y-127940475D01*
X84749838Y-127940475D02*
X84845076Y-128035713D01*
X84845076Y-128035713D02*
X84940314Y-128083332D01*
X84940314Y-128083332D02*
X85130790Y-128130951D01*
X85130790Y-128130951D02*
X85273647Y-128130951D01*
X85273647Y-128130951D02*
X85464123Y-128083332D01*
X85464123Y-128083332D02*
X85559361Y-128035713D01*
X85559361Y-128035713D02*
X85654600Y-127940475D01*
X85654600Y-127940475D02*
X85702219Y-127797618D01*
X85702219Y-127797618D02*
X85702219Y-127702380D01*
X85702219Y-127702380D02*
X85654600Y-127559523D01*
X85654600Y-127559523D02*
X85606980Y-127511904D01*
X85606980Y-127511904D02*
X85273647Y-127511904D01*
X85273647Y-127511904D02*
X85273647Y-127702380D01*
D12*
X54954819Y-54773808D02*
X53954819Y-54773808D01*
X53954819Y-54773808D02*
X54669104Y-54440475D01*
X54669104Y-54440475D02*
X53954819Y-54107142D01*
X53954819Y-54107142D02*
X54954819Y-54107142D01*
X54050057Y-53678570D02*
X54002438Y-53630951D01*
X54002438Y-53630951D02*
X53954819Y-53535713D01*
X53954819Y-53535713D02*
X53954819Y-53297618D01*
X53954819Y-53297618D02*
X54002438Y-53202380D01*
X54002438Y-53202380D02*
X54050057Y-53154761D01*
X54050057Y-53154761D02*
X54145295Y-53107142D01*
X54145295Y-53107142D02*
X54240533Y-53107142D01*
X54240533Y-53107142D02*
X54383390Y-53154761D01*
X54383390Y-53154761D02*
X54954819Y-53726189D01*
X54954819Y-53726189D02*
X54954819Y-53107142D01*
X54859580Y-52678570D02*
X54907200Y-52630951D01*
X54907200Y-52630951D02*
X54954819Y-52678570D01*
X54954819Y-52678570D02*
X54907200Y-52726189D01*
X54907200Y-52726189D02*
X54859580Y-52678570D01*
X54859580Y-52678570D02*
X54954819Y-52678570D01*
X53954819Y-51726190D02*
X53954819Y-52202380D01*
X53954819Y-52202380D02*
X54431009Y-52249999D01*
X54431009Y-52249999D02*
X54383390Y-52202380D01*
X54383390Y-52202380D02*
X54335771Y-52107142D01*
X54335771Y-52107142D02*
X54335771Y-51869047D01*
X54335771Y-51869047D02*
X54383390Y-51773809D01*
X54383390Y-51773809D02*
X54431009Y-51726190D01*
X54431009Y-51726190D02*
X54526247Y-51678571D01*
X54526247Y-51678571D02*
X54764342Y-51678571D01*
X54764342Y-51678571D02*
X54859580Y-51726190D01*
X54859580Y-51726190D02*
X54907200Y-51773809D01*
X54907200Y-51773809D02*
X54954819Y-51869047D01*
X54954819Y-51869047D02*
X54954819Y-52107142D01*
X54954819Y-52107142D02*
X54907200Y-52202380D01*
X54907200Y-52202380D02*
X54859580Y-52249999D01*
X81464819Y-68119047D02*
X80464819Y-68119047D01*
X80941009Y-68119047D02*
X80941009Y-67547619D01*
X81464819Y-67547619D02*
X80464819Y-67547619D01*
X81464819Y-66547619D02*
X81464819Y-67119047D01*
X81464819Y-66833333D02*
X80464819Y-66833333D01*
X80464819Y-66833333D02*
X80607676Y-66928571D01*
X80607676Y-66928571D02*
X80702914Y-67023809D01*
X80702914Y-67023809D02*
X80750533Y-67119047D01*
X81464819Y-65595238D02*
X81464819Y-66166666D01*
X81464819Y-65880952D02*
X80464819Y-65880952D01*
X80464819Y-65880952D02*
X80607676Y-65976190D01*
X80607676Y-65976190D02*
X80702914Y-66071428D01*
X80702914Y-66071428D02*
X80750533Y-66166666D01*
X81464819Y-64690476D02*
X81464819Y-65166666D01*
X81464819Y-65166666D02*
X80464819Y-65166666D01*
X81464819Y-63833333D02*
X81464819Y-64404761D01*
X81464819Y-64119047D02*
X80464819Y-64119047D01*
X80464819Y-64119047D02*
X80607676Y-64214285D01*
X80607676Y-64214285D02*
X80702914Y-64309523D01*
X80702914Y-64309523D02*
X80750533Y-64404761D01*
X56976191Y-115654819D02*
X56976191Y-114654819D01*
X56976191Y-114654819D02*
X57309524Y-115369104D01*
X57309524Y-115369104D02*
X57642857Y-114654819D01*
X57642857Y-114654819D02*
X57642857Y-115654819D01*
X58071429Y-114750057D02*
X58119048Y-114702438D01*
X58119048Y-114702438D02*
X58214286Y-114654819D01*
X58214286Y-114654819D02*
X58452381Y-114654819D01*
X58452381Y-114654819D02*
X58547619Y-114702438D01*
X58547619Y-114702438D02*
X58595238Y-114750057D01*
X58595238Y-114750057D02*
X58642857Y-114845295D01*
X58642857Y-114845295D02*
X58642857Y-114940533D01*
X58642857Y-114940533D02*
X58595238Y-115083390D01*
X58595238Y-115083390D02*
X58023810Y-115654819D01*
X58023810Y-115654819D02*
X58642857Y-115654819D01*
X59071429Y-115559580D02*
X59119048Y-115607200D01*
X59119048Y-115607200D02*
X59071429Y-115654819D01*
X59071429Y-115654819D02*
X59023810Y-115607200D01*
X59023810Y-115607200D02*
X59071429Y-115559580D01*
X59071429Y-115559580D02*
X59071429Y-115654819D01*
X60023809Y-114654819D02*
X59547619Y-114654819D01*
X59547619Y-114654819D02*
X59500000Y-115131009D01*
X59500000Y-115131009D02*
X59547619Y-115083390D01*
X59547619Y-115083390D02*
X59642857Y-115035771D01*
X59642857Y-115035771D02*
X59880952Y-115035771D01*
X59880952Y-115035771D02*
X59976190Y-115083390D01*
X59976190Y-115083390D02*
X60023809Y-115131009D01*
X60023809Y-115131009D02*
X60071428Y-115226247D01*
X60071428Y-115226247D02*
X60071428Y-115464342D01*
X60071428Y-115464342D02*
X60023809Y-115559580D01*
X60023809Y-115559580D02*
X59976190Y-115607200D01*
X59976190Y-115607200D02*
X59880952Y-115654819D01*
X59880952Y-115654819D02*
X59642857Y-115654819D01*
X59642857Y-115654819D02*
X59547619Y-115607200D01*
X59547619Y-115607200D02*
X59500000Y-115559580D01*
X66204819Y-66892857D02*
X66204819Y-67464285D01*
X66204819Y-67178571D02*
X65204819Y-67178571D01*
X65204819Y-67178571D02*
X65347676Y-67273809D01*
X65347676Y-67273809D02*
X65442914Y-67369047D01*
X65442914Y-67369047D02*
X65490533Y-67464285D01*
X65204819Y-66273809D02*
X65204819Y-66178571D01*
X65204819Y-66178571D02*
X65252438Y-66083333D01*
X65252438Y-66083333D02*
X65300057Y-66035714D01*
X65300057Y-66035714D02*
X65395295Y-65988095D01*
X65395295Y-65988095D02*
X65585771Y-65940476D01*
X65585771Y-65940476D02*
X65823866Y-65940476D01*
X65823866Y-65940476D02*
X66014342Y-65988095D01*
X66014342Y-65988095D02*
X66109580Y-66035714D01*
X66109580Y-66035714D02*
X66157200Y-66083333D01*
X66157200Y-66083333D02*
X66204819Y-66178571D01*
X66204819Y-66178571D02*
X66204819Y-66273809D01*
X66204819Y-66273809D02*
X66157200Y-66369047D01*
X66157200Y-66369047D02*
X66109580Y-66416666D01*
X66109580Y-66416666D02*
X66014342Y-66464285D01*
X66014342Y-66464285D02*
X65823866Y-66511904D01*
X65823866Y-66511904D02*
X65585771Y-66511904D01*
X65585771Y-66511904D02*
X65395295Y-66464285D01*
X65395295Y-66464285D02*
X65300057Y-66416666D01*
X65300057Y-66416666D02*
X65252438Y-66369047D01*
X65252438Y-66369047D02*
X65204819Y-66273809D01*
X65538152Y-65511904D02*
X66204819Y-65511904D01*
X65633390Y-65511904D02*
X65585771Y-65464285D01*
X65585771Y-65464285D02*
X65538152Y-65369047D01*
X65538152Y-65369047D02*
X65538152Y-65226190D01*
X65538152Y-65226190D02*
X65585771Y-65130952D01*
X65585771Y-65130952D02*
X65681009Y-65083333D01*
X65681009Y-65083333D02*
X66204819Y-65083333D01*
X68954819Y-66892857D02*
X68954819Y-67464285D01*
X68954819Y-67178571D02*
X67954819Y-67178571D01*
X67954819Y-67178571D02*
X68097676Y-67273809D01*
X68097676Y-67273809D02*
X68192914Y-67369047D01*
X68192914Y-67369047D02*
X68240533Y-67464285D01*
X67954819Y-66273809D02*
X67954819Y-66178571D01*
X67954819Y-66178571D02*
X68002438Y-66083333D01*
X68002438Y-66083333D02*
X68050057Y-66035714D01*
X68050057Y-66035714D02*
X68145295Y-65988095D01*
X68145295Y-65988095D02*
X68335771Y-65940476D01*
X68335771Y-65940476D02*
X68573866Y-65940476D01*
X68573866Y-65940476D02*
X68764342Y-65988095D01*
X68764342Y-65988095D02*
X68859580Y-66035714D01*
X68859580Y-66035714D02*
X68907200Y-66083333D01*
X68907200Y-66083333D02*
X68954819Y-66178571D01*
X68954819Y-66178571D02*
X68954819Y-66273809D01*
X68954819Y-66273809D02*
X68907200Y-66369047D01*
X68907200Y-66369047D02*
X68859580Y-66416666D01*
X68859580Y-66416666D02*
X68764342Y-66464285D01*
X68764342Y-66464285D02*
X68573866Y-66511904D01*
X68573866Y-66511904D02*
X68335771Y-66511904D01*
X68335771Y-66511904D02*
X68145295Y-66464285D01*
X68145295Y-66464285D02*
X68050057Y-66416666D01*
X68050057Y-66416666D02*
X68002438Y-66369047D01*
X68002438Y-66369047D02*
X67954819Y-66273809D01*
X68288152Y-65511904D02*
X68954819Y-65511904D01*
X68383390Y-65511904D02*
X68335771Y-65464285D01*
X68335771Y-65464285D02*
X68288152Y-65369047D01*
X68288152Y-65369047D02*
X68288152Y-65226190D01*
X68288152Y-65226190D02*
X68335771Y-65130952D01*
X68335771Y-65130952D02*
X68431009Y-65083333D01*
X68431009Y-65083333D02*
X68954819Y-65083333D01*
X70035714Y-101929819D02*
X70130952Y-101929819D01*
X70130952Y-101929819D02*
X70226190Y-101977438D01*
X70226190Y-101977438D02*
X70273809Y-102025057D01*
X70273809Y-102025057D02*
X70321428Y-102120295D01*
X70321428Y-102120295D02*
X70369047Y-102310771D01*
X70369047Y-102310771D02*
X70369047Y-102548866D01*
X70369047Y-102548866D02*
X70321428Y-102739342D01*
X70321428Y-102739342D02*
X70273809Y-102834580D01*
X70273809Y-102834580D02*
X70226190Y-102882200D01*
X70226190Y-102882200D02*
X70130952Y-102929819D01*
X70130952Y-102929819D02*
X70035714Y-102929819D01*
X70035714Y-102929819D02*
X69940476Y-102882200D01*
X69940476Y-102882200D02*
X69892857Y-102834580D01*
X69892857Y-102834580D02*
X69845238Y-102739342D01*
X69845238Y-102739342D02*
X69797619Y-102548866D01*
X69797619Y-102548866D02*
X69797619Y-102310771D01*
X69797619Y-102310771D02*
X69845238Y-102120295D01*
X69845238Y-102120295D02*
X69892857Y-102025057D01*
X69892857Y-102025057D02*
X69940476Y-101977438D01*
X69940476Y-101977438D02*
X70035714Y-101929819D01*
X70797619Y-102834580D02*
X70845238Y-102882200D01*
X70845238Y-102882200D02*
X70797619Y-102929819D01*
X70797619Y-102929819D02*
X70750000Y-102882200D01*
X70750000Y-102882200D02*
X70797619Y-102834580D01*
X70797619Y-102834580D02*
X70797619Y-102929819D01*
X71797618Y-102929819D02*
X71226190Y-102929819D01*
X71511904Y-102929819D02*
X71511904Y-101929819D01*
X71511904Y-101929819D02*
X71416666Y-102072676D01*
X71416666Y-102072676D02*
X71321428Y-102167914D01*
X71321428Y-102167914D02*
X71226190Y-102215533D01*
X72654761Y-102263152D02*
X72654761Y-102929819D01*
X72226190Y-102263152D02*
X72226190Y-102786961D01*
X72226190Y-102786961D02*
X72273809Y-102882200D01*
X72273809Y-102882200D02*
X72369047Y-102929819D01*
X72369047Y-102929819D02*
X72511904Y-102929819D01*
X72511904Y-102929819D02*
X72607142Y-102882200D01*
X72607142Y-102882200D02*
X72654761Y-102834580D01*
X64583333Y-59732200D02*
X64726190Y-59779819D01*
X64726190Y-59779819D02*
X64964285Y-59779819D01*
X64964285Y-59779819D02*
X65059523Y-59732200D01*
X65059523Y-59732200D02*
X65107142Y-59684580D01*
X65107142Y-59684580D02*
X65154761Y-59589342D01*
X65154761Y-59589342D02*
X65154761Y-59494104D01*
X65154761Y-59494104D02*
X65107142Y-59398866D01*
X65107142Y-59398866D02*
X65059523Y-59351247D01*
X65059523Y-59351247D02*
X64964285Y-59303628D01*
X64964285Y-59303628D02*
X64773809Y-59256009D01*
X64773809Y-59256009D02*
X64678571Y-59208390D01*
X64678571Y-59208390D02*
X64630952Y-59160771D01*
X64630952Y-59160771D02*
X64583333Y-59065533D01*
X64583333Y-59065533D02*
X64583333Y-58970295D01*
X64583333Y-58970295D02*
X64630952Y-58875057D01*
X64630952Y-58875057D02*
X64678571Y-58827438D01*
X64678571Y-58827438D02*
X64773809Y-58779819D01*
X64773809Y-58779819D02*
X65011904Y-58779819D01*
X65011904Y-58779819D02*
X65154761Y-58827438D01*
X65535714Y-59732200D02*
X65678571Y-59779819D01*
X65678571Y-59779819D02*
X65916666Y-59779819D01*
X65916666Y-59779819D02*
X66011904Y-59732200D01*
X66011904Y-59732200D02*
X66059523Y-59684580D01*
X66059523Y-59684580D02*
X66107142Y-59589342D01*
X66107142Y-59589342D02*
X66107142Y-59494104D01*
X66107142Y-59494104D02*
X66059523Y-59398866D01*
X66059523Y-59398866D02*
X66011904Y-59351247D01*
X66011904Y-59351247D02*
X65916666Y-59303628D01*
X65916666Y-59303628D02*
X65726190Y-59256009D01*
X65726190Y-59256009D02*
X65630952Y-59208390D01*
X65630952Y-59208390D02*
X65583333Y-59160771D01*
X65583333Y-59160771D02*
X65535714Y-59065533D01*
X65535714Y-59065533D02*
X65535714Y-58970295D01*
X65535714Y-58970295D02*
X65583333Y-58875057D01*
X65583333Y-58875057D02*
X65630952Y-58827438D01*
X65630952Y-58827438D02*
X65726190Y-58779819D01*
X65726190Y-58779819D02*
X65964285Y-58779819D01*
X65964285Y-58779819D02*
X66107142Y-58827438D01*
X66535714Y-59779819D02*
X66535714Y-58779819D01*
X66535714Y-58779819D02*
X66773809Y-58779819D01*
X66773809Y-58779819D02*
X66916666Y-58827438D01*
X66916666Y-58827438D02*
X67011904Y-58922676D01*
X67011904Y-58922676D02*
X67059523Y-59017914D01*
X67059523Y-59017914D02*
X67107142Y-59208390D01*
X67107142Y-59208390D02*
X67107142Y-59351247D01*
X67107142Y-59351247D02*
X67059523Y-59541723D01*
X67059523Y-59541723D02*
X67011904Y-59636961D01*
X67011904Y-59636961D02*
X66916666Y-59732200D01*
X66916666Y-59732200D02*
X66773809Y-59779819D01*
X66773809Y-59779819D02*
X66535714Y-59779819D01*
X68059523Y-59779819D02*
X67488095Y-59779819D01*
X67773809Y-59779819D02*
X67773809Y-58779819D01*
X67773809Y-58779819D02*
X67678571Y-58922676D01*
X67678571Y-58922676D02*
X67583333Y-59017914D01*
X67583333Y-59017914D02*
X67488095Y-59065533D01*
X68392857Y-58779819D02*
X69011904Y-58779819D01*
X69011904Y-58779819D02*
X68678571Y-59160771D01*
X68678571Y-59160771D02*
X68821428Y-59160771D01*
X68821428Y-59160771D02*
X68916666Y-59208390D01*
X68916666Y-59208390D02*
X68964285Y-59256009D01*
X68964285Y-59256009D02*
X69011904Y-59351247D01*
X69011904Y-59351247D02*
X69011904Y-59589342D01*
X69011904Y-59589342D02*
X68964285Y-59684580D01*
X68964285Y-59684580D02*
X68916666Y-59732200D01*
X68916666Y-59732200D02*
X68821428Y-59779819D01*
X68821428Y-59779819D02*
X68535714Y-59779819D01*
X68535714Y-59779819D02*
X68440476Y-59732200D01*
X68440476Y-59732200D02*
X68392857Y-59684580D01*
X69630952Y-58779819D02*
X69726190Y-58779819D01*
X69726190Y-58779819D02*
X69821428Y-58827438D01*
X69821428Y-58827438D02*
X69869047Y-58875057D01*
X69869047Y-58875057D02*
X69916666Y-58970295D01*
X69916666Y-58970295D02*
X69964285Y-59160771D01*
X69964285Y-59160771D02*
X69964285Y-59398866D01*
X69964285Y-59398866D02*
X69916666Y-59589342D01*
X69916666Y-59589342D02*
X69869047Y-59684580D01*
X69869047Y-59684580D02*
X69821428Y-59732200D01*
X69821428Y-59732200D02*
X69726190Y-59779819D01*
X69726190Y-59779819D02*
X69630952Y-59779819D01*
X69630952Y-59779819D02*
X69535714Y-59732200D01*
X69535714Y-59732200D02*
X69488095Y-59684580D01*
X69488095Y-59684580D02*
X69440476Y-59589342D01*
X69440476Y-59589342D02*
X69392857Y-59398866D01*
X69392857Y-59398866D02*
X69392857Y-59160771D01*
X69392857Y-59160771D02*
X69440476Y-58970295D01*
X69440476Y-58970295D02*
X69488095Y-58875057D01*
X69488095Y-58875057D02*
X69535714Y-58827438D01*
X69535714Y-58827438D02*
X69630952Y-58779819D01*
X70821428Y-58779819D02*
X70630952Y-58779819D01*
X70630952Y-58779819D02*
X70535714Y-58827438D01*
X70535714Y-58827438D02*
X70488095Y-58875057D01*
X70488095Y-58875057D02*
X70392857Y-59017914D01*
X70392857Y-59017914D02*
X70345238Y-59208390D01*
X70345238Y-59208390D02*
X70345238Y-59589342D01*
X70345238Y-59589342D02*
X70392857Y-59684580D01*
X70392857Y-59684580D02*
X70440476Y-59732200D01*
X70440476Y-59732200D02*
X70535714Y-59779819D01*
X70535714Y-59779819D02*
X70726190Y-59779819D01*
X70726190Y-59779819D02*
X70821428Y-59732200D01*
X70821428Y-59732200D02*
X70869047Y-59684580D01*
X70869047Y-59684580D02*
X70916666Y-59589342D01*
X70916666Y-59589342D02*
X70916666Y-59351247D01*
X70916666Y-59351247D02*
X70869047Y-59256009D01*
X70869047Y-59256009D02*
X70821428Y-59208390D01*
X70821428Y-59208390D02*
X70726190Y-59160771D01*
X70726190Y-59160771D02*
X70535714Y-59160771D01*
X70535714Y-59160771D02*
X70440476Y-59208390D01*
X70440476Y-59208390D02*
X70392857Y-59256009D01*
X70392857Y-59256009D02*
X70345238Y-59351247D01*
X84797620Y-118954819D02*
X84797620Y-117954819D01*
X84797620Y-117954819D02*
X85130953Y-118669104D01*
X85130953Y-118669104D02*
X85464286Y-117954819D01*
X85464286Y-117954819D02*
X85464286Y-118954819D01*
X85940477Y-118954819D02*
X85940477Y-117954819D01*
X86416667Y-118954819D02*
X86416667Y-117954819D01*
X86416667Y-117954819D02*
X86654762Y-117954819D01*
X86654762Y-117954819D02*
X86797619Y-118002438D01*
X86797619Y-118002438D02*
X86892857Y-118097676D01*
X86892857Y-118097676D02*
X86940476Y-118192914D01*
X86940476Y-118192914D02*
X86988095Y-118383390D01*
X86988095Y-118383390D02*
X86988095Y-118526247D01*
X86988095Y-118526247D02*
X86940476Y-118716723D01*
X86940476Y-118716723D02*
X86892857Y-118811961D01*
X86892857Y-118811961D02*
X86797619Y-118907200D01*
X86797619Y-118907200D02*
X86654762Y-118954819D01*
X86654762Y-118954819D02*
X86416667Y-118954819D01*
X87416667Y-118954819D02*
X87416667Y-117954819D01*
X88654762Y-118954819D02*
X88654762Y-117954819D01*
X89130952Y-118954819D02*
X89130952Y-117954819D01*
X89130952Y-117954819D02*
X89702380Y-118954819D01*
X89702380Y-118954819D02*
X89702380Y-117954819D01*
X81035714Y-59704819D02*
X81130952Y-59704819D01*
X81130952Y-59704819D02*
X81226190Y-59752438D01*
X81226190Y-59752438D02*
X81273809Y-59800057D01*
X81273809Y-59800057D02*
X81321428Y-59895295D01*
X81321428Y-59895295D02*
X81369047Y-60085771D01*
X81369047Y-60085771D02*
X81369047Y-60323866D01*
X81369047Y-60323866D02*
X81321428Y-60514342D01*
X81321428Y-60514342D02*
X81273809Y-60609580D01*
X81273809Y-60609580D02*
X81226190Y-60657200D01*
X81226190Y-60657200D02*
X81130952Y-60704819D01*
X81130952Y-60704819D02*
X81035714Y-60704819D01*
X81035714Y-60704819D02*
X80940476Y-60657200D01*
X80940476Y-60657200D02*
X80892857Y-60609580D01*
X80892857Y-60609580D02*
X80845238Y-60514342D01*
X80845238Y-60514342D02*
X80797619Y-60323866D01*
X80797619Y-60323866D02*
X80797619Y-60085771D01*
X80797619Y-60085771D02*
X80845238Y-59895295D01*
X80845238Y-59895295D02*
X80892857Y-59800057D01*
X80892857Y-59800057D02*
X80940476Y-59752438D01*
X80940476Y-59752438D02*
X81035714Y-59704819D01*
X81797619Y-60609580D02*
X81845238Y-60657200D01*
X81845238Y-60657200D02*
X81797619Y-60704819D01*
X81797619Y-60704819D02*
X81750000Y-60657200D01*
X81750000Y-60657200D02*
X81797619Y-60609580D01*
X81797619Y-60609580D02*
X81797619Y-60704819D01*
X82797618Y-60704819D02*
X82226190Y-60704819D01*
X82511904Y-60704819D02*
X82511904Y-59704819D01*
X82511904Y-59704819D02*
X82416666Y-59847676D01*
X82416666Y-59847676D02*
X82321428Y-59942914D01*
X82321428Y-59942914D02*
X82226190Y-59990533D01*
X83654761Y-60038152D02*
X83654761Y-60704819D01*
X83226190Y-60038152D02*
X83226190Y-60561961D01*
X83226190Y-60561961D02*
X83273809Y-60657200D01*
X83273809Y-60657200D02*
X83369047Y-60704819D01*
X83369047Y-60704819D02*
X83511904Y-60704819D01*
X83511904Y-60704819D02*
X83607142Y-60657200D01*
X83607142Y-60657200D02*
X83654761Y-60609580D01*
X79976191Y-115654819D02*
X79976191Y-114654819D01*
X79976191Y-114654819D02*
X80309524Y-115369104D01*
X80309524Y-115369104D02*
X80642857Y-114654819D01*
X80642857Y-114654819D02*
X80642857Y-115654819D01*
X81071429Y-114750057D02*
X81119048Y-114702438D01*
X81119048Y-114702438D02*
X81214286Y-114654819D01*
X81214286Y-114654819D02*
X81452381Y-114654819D01*
X81452381Y-114654819D02*
X81547619Y-114702438D01*
X81547619Y-114702438D02*
X81595238Y-114750057D01*
X81595238Y-114750057D02*
X81642857Y-114845295D01*
X81642857Y-114845295D02*
X81642857Y-114940533D01*
X81642857Y-114940533D02*
X81595238Y-115083390D01*
X81595238Y-115083390D02*
X81023810Y-115654819D01*
X81023810Y-115654819D02*
X81642857Y-115654819D01*
X82071429Y-115559580D02*
X82119048Y-115607200D01*
X82119048Y-115607200D02*
X82071429Y-115654819D01*
X82071429Y-115654819D02*
X82023810Y-115607200D01*
X82023810Y-115607200D02*
X82071429Y-115559580D01*
X82071429Y-115559580D02*
X82071429Y-115654819D01*
X83023809Y-114654819D02*
X82547619Y-114654819D01*
X82547619Y-114654819D02*
X82500000Y-115131009D01*
X82500000Y-115131009D02*
X82547619Y-115083390D01*
X82547619Y-115083390D02*
X82642857Y-115035771D01*
X82642857Y-115035771D02*
X82880952Y-115035771D01*
X82880952Y-115035771D02*
X82976190Y-115083390D01*
X82976190Y-115083390D02*
X83023809Y-115131009D01*
X83023809Y-115131009D02*
X83071428Y-115226247D01*
X83071428Y-115226247D02*
X83071428Y-115464342D01*
X83071428Y-115464342D02*
X83023809Y-115559580D01*
X83023809Y-115559580D02*
X82976190Y-115607200D01*
X82976190Y-115607200D02*
X82880952Y-115654819D01*
X82880952Y-115654819D02*
X82642857Y-115654819D01*
X82642857Y-115654819D02*
X82547619Y-115607200D01*
X82547619Y-115607200D02*
X82500000Y-115559580D01*
X88038152Y-67821904D02*
X88704819Y-67821904D01*
X87657200Y-68059999D02*
X88371485Y-68298094D01*
X88371485Y-68298094D02*
X88371485Y-67679047D01*
X87704819Y-67393332D02*
X87704819Y-66726666D01*
X87704819Y-66726666D02*
X88704819Y-67155237D01*
X87704819Y-66155237D02*
X87704819Y-66059999D01*
X87704819Y-66059999D02*
X87752438Y-65964761D01*
X87752438Y-65964761D02*
X87800057Y-65917142D01*
X87800057Y-65917142D02*
X87895295Y-65869523D01*
X87895295Y-65869523D02*
X88085771Y-65821904D01*
X88085771Y-65821904D02*
X88323866Y-65821904D01*
X88323866Y-65821904D02*
X88514342Y-65869523D01*
X88514342Y-65869523D02*
X88609580Y-65917142D01*
X88609580Y-65917142D02*
X88657200Y-65964761D01*
X88657200Y-65964761D02*
X88704819Y-66059999D01*
X88704819Y-66059999D02*
X88704819Y-66155237D01*
X88704819Y-66155237D02*
X88657200Y-66250475D01*
X88657200Y-66250475D02*
X88609580Y-66298094D01*
X88609580Y-66298094D02*
X88514342Y-66345713D01*
X88514342Y-66345713D02*
X88323866Y-66393332D01*
X88323866Y-66393332D02*
X88085771Y-66393332D01*
X88085771Y-66393332D02*
X87895295Y-66345713D01*
X87895295Y-66345713D02*
X87800057Y-66298094D01*
X87800057Y-66298094D02*
X87752438Y-66250475D01*
X87752438Y-66250475D02*
X87704819Y-66155237D01*
X74204819Y-66892857D02*
X74204819Y-67464285D01*
X74204819Y-67178571D02*
X73204819Y-67178571D01*
X73204819Y-67178571D02*
X73347676Y-67273809D01*
X73347676Y-67273809D02*
X73442914Y-67369047D01*
X73442914Y-67369047D02*
X73490533Y-67464285D01*
X73204819Y-66273809D02*
X73204819Y-66178571D01*
X73204819Y-66178571D02*
X73252438Y-66083333D01*
X73252438Y-66083333D02*
X73300057Y-66035714D01*
X73300057Y-66035714D02*
X73395295Y-65988095D01*
X73395295Y-65988095D02*
X73585771Y-65940476D01*
X73585771Y-65940476D02*
X73823866Y-65940476D01*
X73823866Y-65940476D02*
X74014342Y-65988095D01*
X74014342Y-65988095D02*
X74109580Y-66035714D01*
X74109580Y-66035714D02*
X74157200Y-66083333D01*
X74157200Y-66083333D02*
X74204819Y-66178571D01*
X74204819Y-66178571D02*
X74204819Y-66273809D01*
X74204819Y-66273809D02*
X74157200Y-66369047D01*
X74157200Y-66369047D02*
X74109580Y-66416666D01*
X74109580Y-66416666D02*
X74014342Y-66464285D01*
X74014342Y-66464285D02*
X73823866Y-66511904D01*
X73823866Y-66511904D02*
X73585771Y-66511904D01*
X73585771Y-66511904D02*
X73395295Y-66464285D01*
X73395295Y-66464285D02*
X73300057Y-66416666D01*
X73300057Y-66416666D02*
X73252438Y-66369047D01*
X73252438Y-66369047D02*
X73204819Y-66273809D01*
X73538152Y-65511904D02*
X74204819Y-65511904D01*
X73633390Y-65511904D02*
X73585771Y-65464285D01*
X73585771Y-65464285D02*
X73538152Y-65369047D01*
X73538152Y-65369047D02*
X73538152Y-65226190D01*
X73538152Y-65226190D02*
X73585771Y-65130952D01*
X73585771Y-65130952D02*
X73681009Y-65083333D01*
X73681009Y-65083333D02*
X74204819Y-65083333D01*
X85666667Y-135329104D02*
X86142857Y-135329104D01*
X85571429Y-135614819D02*
X85904762Y-134614819D01*
X85904762Y-134614819D02*
X86238095Y-135614819D01*
X87000000Y-134948152D02*
X87000000Y-135614819D01*
X86571429Y-134948152D02*
X86571429Y-135471961D01*
X86571429Y-135471961D02*
X86619048Y-135567200D01*
X86619048Y-135567200D02*
X86714286Y-135614819D01*
X86714286Y-135614819D02*
X86857143Y-135614819D01*
X86857143Y-135614819D02*
X86952381Y-135567200D01*
X86952381Y-135567200D02*
X87000000Y-135519580D01*
X87904762Y-135614819D02*
X87904762Y-134614819D01*
X87904762Y-135567200D02*
X87809524Y-135614819D01*
X87809524Y-135614819D02*
X87619048Y-135614819D01*
X87619048Y-135614819D02*
X87523810Y-135567200D01*
X87523810Y-135567200D02*
X87476191Y-135519580D01*
X87476191Y-135519580D02*
X87428572Y-135424342D01*
X87428572Y-135424342D02*
X87428572Y-135138628D01*
X87428572Y-135138628D02*
X87476191Y-135043390D01*
X87476191Y-135043390D02*
X87523810Y-134995771D01*
X87523810Y-134995771D02*
X87619048Y-134948152D01*
X87619048Y-134948152D02*
X87809524Y-134948152D01*
X87809524Y-134948152D02*
X87904762Y-134995771D01*
X88380953Y-135614819D02*
X88380953Y-134948152D01*
X88380953Y-134614819D02*
X88333334Y-134662438D01*
X88333334Y-134662438D02*
X88380953Y-134710057D01*
X88380953Y-134710057D02*
X88428572Y-134662438D01*
X88428572Y-134662438D02*
X88380953Y-134614819D01*
X88380953Y-134614819D02*
X88380953Y-134710057D01*
X89000000Y-135614819D02*
X88904762Y-135567200D01*
X88904762Y-135567200D02*
X88857143Y-135519580D01*
X88857143Y-135519580D02*
X88809524Y-135424342D01*
X88809524Y-135424342D02*
X88809524Y-135138628D01*
X88809524Y-135138628D02*
X88857143Y-135043390D01*
X88857143Y-135043390D02*
X88904762Y-134995771D01*
X88904762Y-134995771D02*
X89000000Y-134948152D01*
X89000000Y-134948152D02*
X89142857Y-134948152D01*
X89142857Y-134948152D02*
X89238095Y-134995771D01*
X89238095Y-134995771D02*
X89285714Y-135043390D01*
X89285714Y-135043390D02*
X89333333Y-135138628D01*
X89333333Y-135138628D02*
X89333333Y-135424342D01*
X89333333Y-135424342D02*
X89285714Y-135519580D01*
X89285714Y-135519580D02*
X89238095Y-135567200D01*
X89238095Y-135567200D02*
X89142857Y-135614819D01*
X89142857Y-135614819D02*
X89000000Y-135614819D01*
X85954819Y-55273808D02*
X84954819Y-55273808D01*
X84954819Y-55273808D02*
X85669104Y-54940475D01*
X85669104Y-54940475D02*
X84954819Y-54607142D01*
X84954819Y-54607142D02*
X85954819Y-54607142D01*
X85050057Y-54178570D02*
X85002438Y-54130951D01*
X85002438Y-54130951D02*
X84954819Y-54035713D01*
X84954819Y-54035713D02*
X84954819Y-53797618D01*
X84954819Y-53797618D02*
X85002438Y-53702380D01*
X85002438Y-53702380D02*
X85050057Y-53654761D01*
X85050057Y-53654761D02*
X85145295Y-53607142D01*
X85145295Y-53607142D02*
X85240533Y-53607142D01*
X85240533Y-53607142D02*
X85383390Y-53654761D01*
X85383390Y-53654761D02*
X85954819Y-54226189D01*
X85954819Y-54226189D02*
X85954819Y-53607142D01*
X85859580Y-53178570D02*
X85907200Y-53130951D01*
X85907200Y-53130951D02*
X85954819Y-53178570D01*
X85954819Y-53178570D02*
X85907200Y-53226189D01*
X85907200Y-53226189D02*
X85859580Y-53178570D01*
X85859580Y-53178570D02*
X85954819Y-53178570D01*
X84954819Y-52226190D02*
X84954819Y-52702380D01*
X84954819Y-52702380D02*
X85431009Y-52749999D01*
X85431009Y-52749999D02*
X85383390Y-52702380D01*
X85383390Y-52702380D02*
X85335771Y-52607142D01*
X85335771Y-52607142D02*
X85335771Y-52369047D01*
X85335771Y-52369047D02*
X85383390Y-52273809D01*
X85383390Y-52273809D02*
X85431009Y-52226190D01*
X85431009Y-52226190D02*
X85526247Y-52178571D01*
X85526247Y-52178571D02*
X85764342Y-52178571D01*
X85764342Y-52178571D02*
X85859580Y-52226190D01*
X85859580Y-52226190D02*
X85907200Y-52273809D01*
X85907200Y-52273809D02*
X85954819Y-52369047D01*
X85954819Y-52369047D02*
X85954819Y-52607142D01*
X85954819Y-52607142D02*
X85907200Y-52702380D01*
X85907200Y-52702380D02*
X85859580Y-52749999D01*
X63704819Y-66892857D02*
X63704819Y-67464285D01*
X63704819Y-67178571D02*
X62704819Y-67178571D01*
X62704819Y-67178571D02*
X62847676Y-67273809D01*
X62847676Y-67273809D02*
X62942914Y-67369047D01*
X62942914Y-67369047D02*
X62990533Y-67464285D01*
X62704819Y-66273809D02*
X62704819Y-66178571D01*
X62704819Y-66178571D02*
X62752438Y-66083333D01*
X62752438Y-66083333D02*
X62800057Y-66035714D01*
X62800057Y-66035714D02*
X62895295Y-65988095D01*
X62895295Y-65988095D02*
X63085771Y-65940476D01*
X63085771Y-65940476D02*
X63323866Y-65940476D01*
X63323866Y-65940476D02*
X63514342Y-65988095D01*
X63514342Y-65988095D02*
X63609580Y-66035714D01*
X63609580Y-66035714D02*
X63657200Y-66083333D01*
X63657200Y-66083333D02*
X63704819Y-66178571D01*
X63704819Y-66178571D02*
X63704819Y-66273809D01*
X63704819Y-66273809D02*
X63657200Y-66369047D01*
X63657200Y-66369047D02*
X63609580Y-66416666D01*
X63609580Y-66416666D02*
X63514342Y-66464285D01*
X63514342Y-66464285D02*
X63323866Y-66511904D01*
X63323866Y-66511904D02*
X63085771Y-66511904D01*
X63085771Y-66511904D02*
X62895295Y-66464285D01*
X62895295Y-66464285D02*
X62800057Y-66416666D01*
X62800057Y-66416666D02*
X62752438Y-66369047D01*
X62752438Y-66369047D02*
X62704819Y-66273809D01*
X63038152Y-65511904D02*
X63704819Y-65511904D01*
X63133390Y-65511904D02*
X63085771Y-65464285D01*
X63085771Y-65464285D02*
X63038152Y-65369047D01*
X63038152Y-65369047D02*
X63038152Y-65226190D01*
X63038152Y-65226190D02*
X63085771Y-65130952D01*
X63085771Y-65130952D02*
X63181009Y-65083333D01*
X63181009Y-65083333D02*
X63704819Y-65083333D01*
X87050057Y-80988094D02*
X87002438Y-80940475D01*
X87002438Y-80940475D02*
X86954819Y-80845237D01*
X86954819Y-80845237D02*
X86954819Y-80607142D01*
X86954819Y-80607142D02*
X87002438Y-80511904D01*
X87002438Y-80511904D02*
X87050057Y-80464285D01*
X87050057Y-80464285D02*
X87145295Y-80416666D01*
X87145295Y-80416666D02*
X87240533Y-80416666D01*
X87240533Y-80416666D02*
X87383390Y-80464285D01*
X87383390Y-80464285D02*
X87954819Y-81035713D01*
X87954819Y-81035713D02*
X87954819Y-80416666D01*
X87050057Y-80035713D02*
X87002438Y-79988094D01*
X87002438Y-79988094D02*
X86954819Y-79892856D01*
X86954819Y-79892856D02*
X86954819Y-79654761D01*
X86954819Y-79654761D02*
X87002438Y-79559523D01*
X87002438Y-79559523D02*
X87050057Y-79511904D01*
X87050057Y-79511904D02*
X87145295Y-79464285D01*
X87145295Y-79464285D02*
X87240533Y-79464285D01*
X87240533Y-79464285D02*
X87383390Y-79511904D01*
X87383390Y-79511904D02*
X87954819Y-80083332D01*
X87954819Y-80083332D02*
X87954819Y-79464285D01*
X86954819Y-78845237D02*
X86954819Y-78749999D01*
X86954819Y-78749999D02*
X87002438Y-78654761D01*
X87002438Y-78654761D02*
X87050057Y-78607142D01*
X87050057Y-78607142D02*
X87145295Y-78559523D01*
X87145295Y-78559523D02*
X87335771Y-78511904D01*
X87335771Y-78511904D02*
X87573866Y-78511904D01*
X87573866Y-78511904D02*
X87764342Y-78559523D01*
X87764342Y-78559523D02*
X87859580Y-78607142D01*
X87859580Y-78607142D02*
X87907200Y-78654761D01*
X87907200Y-78654761D02*
X87954819Y-78749999D01*
X87954819Y-78749999D02*
X87954819Y-78845237D01*
X87954819Y-78845237D02*
X87907200Y-78940475D01*
X87907200Y-78940475D02*
X87859580Y-78988094D01*
X87859580Y-78988094D02*
X87764342Y-79035713D01*
X87764342Y-79035713D02*
X87573866Y-79083332D01*
X87573866Y-79083332D02*
X87335771Y-79083332D01*
X87335771Y-79083332D02*
X87145295Y-79035713D01*
X87145295Y-79035713D02*
X87050057Y-78988094D01*
X87050057Y-78988094D02*
X87002438Y-78940475D01*
X87002438Y-78940475D02*
X86954819Y-78845237D01*
X71704819Y-66892857D02*
X71704819Y-67464285D01*
X71704819Y-67178571D02*
X70704819Y-67178571D01*
X70704819Y-67178571D02*
X70847676Y-67273809D01*
X70847676Y-67273809D02*
X70942914Y-67369047D01*
X70942914Y-67369047D02*
X70990533Y-67464285D01*
X70704819Y-66273809D02*
X70704819Y-66178571D01*
X70704819Y-66178571D02*
X70752438Y-66083333D01*
X70752438Y-66083333D02*
X70800057Y-66035714D01*
X70800057Y-66035714D02*
X70895295Y-65988095D01*
X70895295Y-65988095D02*
X71085771Y-65940476D01*
X71085771Y-65940476D02*
X71323866Y-65940476D01*
X71323866Y-65940476D02*
X71514342Y-65988095D01*
X71514342Y-65988095D02*
X71609580Y-66035714D01*
X71609580Y-66035714D02*
X71657200Y-66083333D01*
X71657200Y-66083333D02*
X71704819Y-66178571D01*
X71704819Y-66178571D02*
X71704819Y-66273809D01*
X71704819Y-66273809D02*
X71657200Y-66369047D01*
X71657200Y-66369047D02*
X71609580Y-66416666D01*
X71609580Y-66416666D02*
X71514342Y-66464285D01*
X71514342Y-66464285D02*
X71323866Y-66511904D01*
X71323866Y-66511904D02*
X71085771Y-66511904D01*
X71085771Y-66511904D02*
X70895295Y-66464285D01*
X70895295Y-66464285D02*
X70800057Y-66416666D01*
X70800057Y-66416666D02*
X70752438Y-66369047D01*
X70752438Y-66369047D02*
X70704819Y-66273809D01*
X71038152Y-65511904D02*
X71704819Y-65511904D01*
X71133390Y-65511904D02*
X71085771Y-65464285D01*
X71085771Y-65464285D02*
X71038152Y-65369047D01*
X71038152Y-65369047D02*
X71038152Y-65226190D01*
X71038152Y-65226190D02*
X71085771Y-65130952D01*
X71085771Y-65130952D02*
X71181009Y-65083333D01*
X71181009Y-65083333D02*
X71704819Y-65083333D01*
X72666667Y-83454819D02*
X72666667Y-82454819D01*
X72666667Y-82931009D02*
X73238095Y-82931009D01*
X73238095Y-83454819D02*
X73238095Y-82454819D01*
X73904762Y-82454819D02*
X74095238Y-82454819D01*
X74095238Y-82454819D02*
X74190476Y-82502438D01*
X74190476Y-82502438D02*
X74285714Y-82597676D01*
X74285714Y-82597676D02*
X74333333Y-82788152D01*
X74333333Y-82788152D02*
X74333333Y-83121485D01*
X74333333Y-83121485D02*
X74285714Y-83311961D01*
X74285714Y-83311961D02*
X74190476Y-83407200D01*
X74190476Y-83407200D02*
X74095238Y-83454819D01*
X74095238Y-83454819D02*
X73904762Y-83454819D01*
X73904762Y-83454819D02*
X73809524Y-83407200D01*
X73809524Y-83407200D02*
X73714286Y-83311961D01*
X73714286Y-83311961D02*
X73666667Y-83121485D01*
X73666667Y-83121485D02*
X73666667Y-82788152D01*
X73666667Y-82788152D02*
X73714286Y-82597676D01*
X73714286Y-82597676D02*
X73809524Y-82502438D01*
X73809524Y-82502438D02*
X73904762Y-82454819D01*
X74761905Y-83454819D02*
X74761905Y-82454819D01*
X74761905Y-82454819D02*
X75095238Y-83169104D01*
X75095238Y-83169104D02*
X75428571Y-82454819D01*
X75428571Y-82454819D02*
X75428571Y-83454819D01*
X75904762Y-82931009D02*
X76238095Y-82931009D01*
X76380952Y-83454819D02*
X75904762Y-83454819D01*
X75904762Y-83454819D02*
X75904762Y-82454819D01*
X75904762Y-82454819D02*
X76380952Y-82454819D01*
X64392857Y-82681009D02*
X64535714Y-82728628D01*
X64535714Y-82728628D02*
X64583333Y-82776247D01*
X64583333Y-82776247D02*
X64630952Y-82871485D01*
X64630952Y-82871485D02*
X64630952Y-83014342D01*
X64630952Y-83014342D02*
X64583333Y-83109580D01*
X64583333Y-83109580D02*
X64535714Y-83157200D01*
X64535714Y-83157200D02*
X64440476Y-83204819D01*
X64440476Y-83204819D02*
X64059524Y-83204819D01*
X64059524Y-83204819D02*
X64059524Y-82204819D01*
X64059524Y-82204819D02*
X64392857Y-82204819D01*
X64392857Y-82204819D02*
X64488095Y-82252438D01*
X64488095Y-82252438D02*
X64535714Y-82300057D01*
X64535714Y-82300057D02*
X64583333Y-82395295D01*
X64583333Y-82395295D02*
X64583333Y-82490533D01*
X64583333Y-82490533D02*
X64535714Y-82585771D01*
X64535714Y-82585771D02*
X64488095Y-82633390D01*
X64488095Y-82633390D02*
X64392857Y-82681009D01*
X64392857Y-82681009D02*
X64059524Y-82681009D01*
X65011905Y-82919104D02*
X65488095Y-82919104D01*
X64916667Y-83204819D02*
X65250000Y-82204819D01*
X65250000Y-82204819D02*
X65583333Y-83204819D01*
X66488095Y-83109580D02*
X66440476Y-83157200D01*
X66440476Y-83157200D02*
X66297619Y-83204819D01*
X66297619Y-83204819D02*
X66202381Y-83204819D01*
X66202381Y-83204819D02*
X66059524Y-83157200D01*
X66059524Y-83157200D02*
X65964286Y-83061961D01*
X65964286Y-83061961D02*
X65916667Y-82966723D01*
X65916667Y-82966723D02*
X65869048Y-82776247D01*
X65869048Y-82776247D02*
X65869048Y-82633390D01*
X65869048Y-82633390D02*
X65916667Y-82442914D01*
X65916667Y-82442914D02*
X65964286Y-82347676D01*
X65964286Y-82347676D02*
X66059524Y-82252438D01*
X66059524Y-82252438D02*
X66202381Y-82204819D01*
X66202381Y-82204819D02*
X66297619Y-82204819D01*
X66297619Y-82204819D02*
X66440476Y-82252438D01*
X66440476Y-82252438D02*
X66488095Y-82300057D01*
X66916667Y-83204819D02*
X66916667Y-82204819D01*
X67488095Y-83204819D02*
X67059524Y-82633390D01*
X67488095Y-82204819D02*
X66916667Y-82776247D01*
X82083333Y-71834819D02*
X81511905Y-71834819D01*
X81797619Y-71834819D02*
X81797619Y-70834819D01*
X81797619Y-70834819D02*
X81702381Y-70977676D01*
X81702381Y-70977676D02*
X81607143Y-71072914D01*
X81607143Y-71072914D02*
X81511905Y-71120533D01*
X82511905Y-71834819D02*
X82511905Y-70834819D01*
X82511905Y-70834819D02*
X83083333Y-71834819D01*
X83083333Y-71834819D02*
X83083333Y-70834819D01*
X83607143Y-71834819D02*
X83797619Y-71834819D01*
X83797619Y-71834819D02*
X83892857Y-71787200D01*
X83892857Y-71787200D02*
X83940476Y-71739580D01*
X83940476Y-71739580D02*
X84035714Y-71596723D01*
X84035714Y-71596723D02*
X84083333Y-71406247D01*
X84083333Y-71406247D02*
X84083333Y-71025295D01*
X84083333Y-71025295D02*
X84035714Y-70930057D01*
X84035714Y-70930057D02*
X83988095Y-70882438D01*
X83988095Y-70882438D02*
X83892857Y-70834819D01*
X83892857Y-70834819D02*
X83702381Y-70834819D01*
X83702381Y-70834819D02*
X83607143Y-70882438D01*
X83607143Y-70882438D02*
X83559524Y-70930057D01*
X83559524Y-70930057D02*
X83511905Y-71025295D01*
X83511905Y-71025295D02*
X83511905Y-71263390D01*
X83511905Y-71263390D02*
X83559524Y-71358628D01*
X83559524Y-71358628D02*
X83607143Y-71406247D01*
X83607143Y-71406247D02*
X83702381Y-71453866D01*
X83702381Y-71453866D02*
X83892857Y-71453866D01*
X83892857Y-71453866D02*
X83988095Y-71406247D01*
X83988095Y-71406247D02*
X84035714Y-71358628D01*
X84035714Y-71358628D02*
X84083333Y-71263390D01*
X85035714Y-71834819D02*
X84464286Y-71834819D01*
X84750000Y-71834819D02*
X84750000Y-70834819D01*
X84750000Y-70834819D02*
X84654762Y-70977676D01*
X84654762Y-70977676D02*
X84559524Y-71072914D01*
X84559524Y-71072914D02*
X84464286Y-71120533D01*
X85892857Y-71168152D02*
X85892857Y-71834819D01*
X85654762Y-70787200D02*
X85416667Y-71501485D01*
X85416667Y-71501485D02*
X86035714Y-71501485D01*
D13*
%TO.C,U1*%
X75870000Y-61810000D02*
X75870000Y-69670000D01*
X75870000Y-69670000D02*
X86150000Y-69670000D01*
X78360000Y-61870000D02*
X78360000Y-69610000D01*
X78360000Y-69610000D02*
X83660000Y-69610000D01*
X80010000Y-61870000D02*
X78360000Y-61870000D01*
X83660000Y-61870000D02*
X82010000Y-61870000D01*
X83660000Y-69610000D02*
X83660000Y-61870000D01*
X86150000Y-61810000D02*
X75870000Y-61810000D01*
X86150000Y-69670000D02*
X86150000Y-61810000D01*
X82010000Y-61870000D02*
G75*
G02*
X80010000Y-61870000I-1000000J0D01*
G01*
%TO.C,SW1*%
X64140000Y-90250000D02*
X64140000Y-86150000D01*
X64140000Y-98350000D02*
X64140000Y-94250000D01*
X66540000Y-98350000D02*
X64140000Y-98350000D01*
X70040000Y-91750000D02*
X70040000Y-92750000D01*
X70540000Y-92250000D02*
X69540000Y-92250000D01*
X71340000Y-98350000D02*
X68740000Y-98350000D01*
X73840000Y-84750000D02*
X74140000Y-84450000D01*
X74140000Y-84450000D02*
X74140000Y-85050000D01*
X74140000Y-85050000D02*
X73840000Y-84750000D01*
X75940000Y-86150000D02*
X64140000Y-86150000D01*
X75940000Y-90250000D02*
X75940000Y-86150000D01*
X75940000Y-94250000D02*
X75940000Y-98350000D01*
X75940000Y-98350000D02*
X73540000Y-98350000D01*
X73040000Y-92250000D02*
G75*
G02*
X67040000Y-92250000I-3000000J0D01*
G01*
X67040000Y-92250000D02*
G75*
G02*
X73040000Y-92250000I3000000J0D01*
G01*
%TO.C,C7*%
X64680000Y-63980000D02*
X64680000Y-68520000D01*
X64695000Y-63980000D02*
X64680000Y-63980000D01*
X64695000Y-68520000D02*
X64680000Y-68520000D01*
X66820000Y-63980000D02*
X66805000Y-63980000D01*
X66820000Y-63980000D02*
X66820000Y-68520000D01*
X66820000Y-68520000D02*
X66805000Y-68520000D01*
%TO.C,C2*%
X67430000Y-63980000D02*
X67445000Y-63980000D01*
X67430000Y-68520000D02*
X67430000Y-63980000D01*
X67430000Y-68520000D02*
X67445000Y-68520000D01*
X69555000Y-63980000D02*
X69570000Y-63980000D01*
X69555000Y-68520000D02*
X69570000Y-68520000D01*
X69570000Y-68520000D02*
X69570000Y-63980000D01*
%TO.C,C5*%
X68980000Y-101445000D02*
X68980000Y-101430000D01*
X68980000Y-103570000D02*
X68980000Y-103555000D01*
X73520000Y-101430000D02*
X68980000Y-101430000D01*
X73520000Y-101445000D02*
X73520000Y-101430000D01*
X73520000Y-103570000D02*
X68980000Y-103570000D01*
X73520000Y-103570000D02*
X73520000Y-103555000D01*
%TO.C,J2*%
X52216000Y-57400000D02*
X88284000Y-57400000D01*
X52216000Y-70100000D02*
X52216000Y-57400000D01*
X88284000Y-70100000D02*
X52216000Y-70100000D01*
X88284000Y-70100000D02*
X88284000Y-57400000D01*
%TO.C,J7*%
X86170000Y-122255000D02*
X86170000Y-119655000D01*
X88830000Y-119655000D02*
X86170000Y-119655000D01*
X88830000Y-122255000D02*
X86170000Y-122255000D01*
X88830000Y-122255000D02*
X88830000Y-119655000D01*
X88830000Y-123525000D02*
X88830000Y-124855000D01*
X88830000Y-124855000D02*
X87500000Y-124855000D01*
%TO.C,C1*%
X79980000Y-59195000D02*
X79980000Y-59180000D01*
X79980000Y-61320000D02*
X79980000Y-61305000D01*
X84520000Y-59180000D02*
X79980000Y-59180000D01*
X84520000Y-59195000D02*
X84520000Y-59180000D01*
X84520000Y-61320000D02*
X79980000Y-61320000D01*
X84520000Y-61320000D02*
X84520000Y-61305000D01*
%TO.C,R2*%
X86880000Y-63790000D02*
X86880000Y-70330000D01*
X86880000Y-70330000D02*
X87210000Y-70330000D01*
X87210000Y-63790000D02*
X86880000Y-63790000D01*
X89290000Y-63790000D02*
X89620000Y-63790000D01*
X89620000Y-63790000D02*
X89620000Y-70330000D01*
X89620000Y-70330000D02*
X89290000Y-70330000D01*
%TO.C,C4*%
X72780000Y-63980000D02*
X72795000Y-63980000D01*
X72780000Y-68520000D02*
X72780000Y-63980000D01*
X72780000Y-68520000D02*
X72795000Y-68520000D01*
X74905000Y-63980000D02*
X74920000Y-63980000D01*
X74905000Y-68520000D02*
X74920000Y-68520000D01*
X74920000Y-68520000D02*
X74920000Y-63980000D01*
%TO.C,J6*%
X86170000Y-126420000D02*
X87500000Y-126420000D01*
X86170000Y-127750000D02*
X86170000Y-126420000D01*
X86170000Y-129020000D02*
X86170000Y-134160000D01*
X86170000Y-129020000D02*
X88830000Y-129020000D01*
X86170000Y-134160000D02*
X88830000Y-134160000D01*
X88830000Y-129020000D02*
X88830000Y-134160000D01*
%TO.C,C6*%
X62180000Y-63980000D02*
X62180000Y-68520000D01*
X62195000Y-63980000D02*
X62180000Y-63980000D01*
X62195000Y-68520000D02*
X62180000Y-68520000D01*
X64320000Y-63980000D02*
X64305000Y-63980000D01*
X64320000Y-63980000D02*
X64320000Y-68520000D01*
X64320000Y-68520000D02*
X64305000Y-68520000D01*
%TO.C,R1*%
X86130000Y-76540000D02*
X86460000Y-76540000D01*
X86130000Y-83080000D02*
X86130000Y-76540000D01*
X86460000Y-83080000D02*
X86130000Y-83080000D01*
X88540000Y-83080000D02*
X88870000Y-83080000D01*
X88870000Y-76540000D02*
X88540000Y-76540000D01*
X88870000Y-83080000D02*
X88870000Y-76540000D01*
%TO.C,C3*%
X70180000Y-63980000D02*
X70195000Y-63980000D01*
X70180000Y-68520000D02*
X70180000Y-63980000D01*
X70180000Y-68520000D02*
X70195000Y-68520000D01*
X72305000Y-63980000D02*
X72320000Y-63980000D01*
X72305000Y-68520000D02*
X72320000Y-68520000D01*
X72320000Y-68520000D02*
X72320000Y-63980000D01*
%TO.C,SW3*%
X71250000Y-75000000D02*
X71250000Y-79500000D01*
X73750000Y-80750000D02*
X75250000Y-80750000D01*
X75250000Y-73750000D02*
X73750000Y-73750000D01*
X77750000Y-79500000D02*
X77750000Y-75000000D01*
%TO.C,SW2*%
X62250000Y-75000000D02*
X62250000Y-79500000D01*
X64750000Y-80750000D02*
X66250000Y-80750000D01*
X66250000Y-73750000D02*
X64750000Y-73750000D01*
X68750000Y-79500000D02*
X68750000Y-75000000D01*
%TO.C,D1*%
X80980000Y-73500000D02*
X81630000Y-73500000D01*
X81630000Y-72380000D02*
X81630000Y-74620000D01*
X81630000Y-74620000D02*
X85870000Y-74620000D01*
X85030000Y-74620000D02*
X85030000Y-72380000D01*
X85150000Y-74620000D02*
X85150000Y-72380000D01*
X85270000Y-74620000D02*
X85270000Y-72380000D01*
X85870000Y-72380000D02*
X81630000Y-72380000D01*
X85870000Y-74620000D02*
X85870000Y-72380000D01*
X86520000Y-73500000D02*
X85870000Y-73500000D01*
%TD*%
M02*
