%TF.GenerationSoftware,KiCad,Pcbnew,8.0.7*%
%TF.CreationDate,2025-02-20T21:39:26+00:00*%
%TF.ProjectId,RPi-MiniDexed-EuroRack,5250692d-4d69-46e6-9944-657865642d45,rev?*%
%TF.SameCoordinates,Original*%
%TF.FileFunction,Copper,L1,Top*%
%TF.FilePolarity,Positive*%
%FSLAX46Y46*%
G04 Gerber Fmt 4.6, Leading zero omitted, Abs format (unit mm)*
G04 Created by KiCad (PCBNEW 8.0.7) date 2025-02-20 21:39:26*
%MOMM*%
%LPD*%
G01*
G04 APERTURE LIST*
G04 Aperture macros list*
%AMRoundRect*
0 Rectangle with rounded corners*
0 $1 Rounding radius*
0 $2 $3 $4 $5 $6 $7 $8 $9 X,Y pos of 4 corners*
0 Add a 4 corners polygon primitive as box body*
4,1,4,$2,$3,$4,$5,$6,$7,$8,$9,$2,$3,0*
0 Add four circle primitives for the rounded corners*
1,1,$1+$1,$2,$3*
1,1,$1+$1,$4,$5*
1,1,$1+$1,$6,$7*
1,1,$1+$1,$8,$9*
0 Add four rect primitives between the rounded corners*
20,1,$1+$1,$2,$3,$4,$5,0*
20,1,$1+$1,$4,$5,$6,$7,0*
20,1,$1+$1,$6,$7,$8,$9,0*
20,1,$1+$1,$8,$9,$2,$3,0*%
G04 Aperture macros list end*
%TA.AperFunction,ComponentPad*%
%ADD10R,1.700000X1.700000*%
%TD*%
%TA.AperFunction,ComponentPad*%
%ADD11O,1.700000X1.700000*%
%TD*%
%TA.AperFunction,ComponentPad*%
%ADD12O,2.000000X1.905000*%
%TD*%
%TA.AperFunction,ComponentPad*%
%ADD13R,2.000000X1.905000*%
%TD*%
%TA.AperFunction,ComponentPad*%
%ADD14R,1.600000X1.600000*%
%TD*%
%TA.AperFunction,ComponentPad*%
%ADD15O,1.600000X1.600000*%
%TD*%
%TA.AperFunction,ComponentPad*%
%ADD16O,2.000000X2.000000*%
%TD*%
%TA.AperFunction,ComponentPad*%
%ADD17C,2.000000*%
%TD*%
%TA.AperFunction,ComponentPad*%
%ADD18C,3.200000*%
%TD*%
%TA.AperFunction,ComponentPad*%
%ADD19C,1.600000*%
%TD*%
%TA.AperFunction,ComponentPad*%
%ADD20O,2.200000X2.200000*%
%TD*%
%TA.AperFunction,ComponentPad*%
%ADD21R,2.200000X2.200000*%
%TD*%
%TA.AperFunction,ComponentPad*%
%ADD22RoundRect,0.250000X0.600000X-0.600000X0.600000X0.600000X-0.600000X0.600000X-0.600000X-0.600000X0*%
%TD*%
%TA.AperFunction,ComponentPad*%
%ADD23C,1.700000*%
%TD*%
%TA.AperFunction,ViaPad*%
%ADD24C,0.600000*%
%TD*%
%TA.AperFunction,Conductor*%
%ADD25C,0.800000*%
%TD*%
%TA.AperFunction,Conductor*%
%ADD26C,0.250000*%
%TD*%
%TA.AperFunction,Conductor*%
%ADD27C,0.400000*%
%TD*%
G04 APERTURE END LIST*
D10*
%TO.P,J9,1,Pin_1*%
%TO.N,GND*%
X53350000Y-134625000D03*
D11*
%TO.P,J9,2,Pin_2*%
%TO.N,+5V*%
X53350000Y-132085000D03*
%TO.P,J9,3,Pin_3*%
%TO.N,+12V*%
X53350000Y-129545000D03*
%TD*%
D12*
%TO.P,U2,3,OUT*%
%TO.N,+5V*%
X55500000Y-124580000D03*
%TO.P,U2,2,GND*%
%TO.N,GND*%
X55500000Y-122040000D03*
D13*
%TO.P,U2,1,IN*%
%TO.N,+12V*%
X55500000Y-119500000D03*
%TD*%
%TO.P,U3,1,IN*%
%TO.N,+12V*%
X55500000Y-119500000D03*
D12*
%TO.P,U3,2,GND*%
%TO.N,GND*%
X55500000Y-122040000D03*
%TO.P,U3,3,OUT*%
%TO.N,+5V*%
X55500000Y-124580000D03*
%TD*%
D14*
%TO.P,U1,1*%
%TO.N,Net-(D1-K)*%
X77200000Y-63200000D03*
D15*
%TO.P,U1,2*%
%TO.N,Net-(D1-A)*%
X77200000Y-65740000D03*
%TO.P,U1,3*%
%TO.N,unconnected-(U1-Pad3)*%
X77200000Y-68280000D03*
%TO.P,U1,4*%
%TO.N,/GPIO15(RXD0)*%
X84820000Y-68280000D03*
%TO.P,U1,5*%
%TO.N,GND*%
X84820000Y-65740000D03*
%TO.P,U1,6*%
%TO.N,+3V3*%
X84820000Y-63200000D03*
%TD*%
D16*
%TO.P,SW1,A,A*%
%TO.N,/GPIO9(SPI0_MISO)*%
X72540000Y-84750000D03*
D17*
%TO.P,SW1,B,B*%
%TO.N,/GPIO10(SPI0_MOSI)*%
X67540000Y-84750000D03*
%TO.P,SW1,C,C*%
%TO.N,GND*%
X70040000Y-84750000D03*
D18*
%TO.P,SW1,MP*%
%TO.N,N/C*%
X75640000Y-92250000D03*
X64440000Y-92250000D03*
D17*
%TO.P,SW1,S1,S1*%
%TO.N,/GPIO11(SPI0_SCK)*%
X67540000Y-99250000D03*
%TO.P,SW1,S2,S2*%
%TO.N,GND*%
X72540000Y-99250000D03*
%TD*%
D19*
%TO.P,C7,1*%
%TO.N,GND*%
X65750000Y-63750000D03*
%TO.P,C7,2*%
%TO.N,/GPIO6*%
X65750000Y-68750000D03*
%TD*%
%TO.P,C2,1*%
%TO.N,/GPIO9(SPI0_MISO)*%
X68500000Y-68750000D03*
%TO.P,C2,2*%
%TO.N,GND*%
X68500000Y-63750000D03*
%TD*%
%TO.P,C5,1*%
%TO.N,GND*%
X73750000Y-102500000D03*
%TO.P,C5,2*%
%TO.N,+5V*%
X68750000Y-102500000D03*
%TD*%
D10*
%TO.P,J2,1,Pin_1*%
%TO.N,GND*%
X53486000Y-67560000D03*
D11*
%TO.P,J2,2,Pin_2*%
%TO.N,+5V*%
X53486000Y-65020000D03*
%TO.P,J2,3,Pin_3*%
%TO.N,/GPIO3(SCL1)*%
X53486000Y-62480000D03*
%TO.P,J2,4,Pin_4*%
%TO.N,/GPIO2(SDA1)*%
X53486000Y-59940000D03*
%TD*%
D10*
%TO.P,J7,1,Pin_1*%
%TO.N,Net-(J7-Pin_1)*%
X87500000Y-123525000D03*
D11*
%TO.P,J7,2,Pin_2*%
%TO.N,Net-(D1-A)*%
X87500000Y-120985000D03*
%TD*%
D19*
%TO.P,C1,1*%
%TO.N,+3V3*%
X84750000Y-60250000D03*
%TO.P,C1,2*%
%TO.N,GND*%
X79750000Y-60250000D03*
%TD*%
%TO.P,R2,1*%
%TO.N,+3V3*%
X88250000Y-63250000D03*
D15*
%TO.P,R2,2*%
%TO.N,/GPIO15(RXD0)*%
X88250000Y-70870000D03*
%TD*%
D19*
%TO.P,C4,1*%
%TO.N,/GPIO11(SPI0_SCK)*%
X73850000Y-68750000D03*
%TO.P,C4,2*%
%TO.N,GND*%
X73850000Y-63750000D03*
%TD*%
D10*
%TO.P,J6,1,Pin_1*%
%TO.N,Net-(J6-Pin_1)*%
X87500000Y-127750000D03*
D11*
%TO.P,J6,2,Pin_2*%
%TO.N,Net-(A1-LOUT)*%
X87500000Y-130290000D03*
%TO.P,J6,3,Pin_3*%
%TO.N,Net-(A1-ROUT)*%
X87500000Y-132830000D03*
%TD*%
D19*
%TO.P,C6,1*%
%TO.N,GND*%
X63250000Y-63750000D03*
%TO.P,C6,2*%
%TO.N,/GPIO5*%
X63250000Y-68750000D03*
%TD*%
%TO.P,R1,1*%
%TO.N,Net-(J7-Pin_1)*%
X87500000Y-83620000D03*
D15*
%TO.P,R1,2*%
%TO.N,Net-(D1-K)*%
X87500000Y-76000000D03*
%TD*%
D19*
%TO.P,C3,1*%
%TO.N,/GPIO10(SPI0_MOSI)*%
X71250000Y-68750000D03*
%TO.P,C3,2*%
%TO.N,GND*%
X71250000Y-63750000D03*
%TD*%
D17*
%TO.P,SW3,1,1*%
%TO.N,GND*%
X76750000Y-74000000D03*
X76750000Y-80500000D03*
%TO.P,SW3,2,2*%
%TO.N,/GPIO6*%
X72250000Y-74000000D03*
X72250000Y-80500000D03*
%TD*%
%TO.P,SW2,1,1*%
%TO.N,GND*%
X67750000Y-74000000D03*
X67750000Y-80500000D03*
%TO.P,SW2,2,2*%
%TO.N,/GPIO5*%
X63250000Y-74000000D03*
X63250000Y-80500000D03*
%TD*%
D14*
%TO.P,D1,1,K*%
%TO.N,Net-(D1-K)*%
X87560000Y-73500000D03*
D15*
%TO.P,D1,2,A*%
%TO.N,Net-(D1-A)*%
X79940000Y-73500000D03*
%TD*%
D20*
%TO.P,D2,2,A*%
%TO.N,Net-(D2-A)*%
X78450000Y-126305000D03*
D21*
%TO.P,D2,1,K*%
%TO.N,+12V*%
X78450000Y-116145000D03*
%TD*%
D10*
%TO.P,P1,1,Pin_1*%
%TO.N,+3V3*%
X59770000Y-106630000D03*
D11*
%TO.P,P1,2,Pin_2*%
%TO.N,+5V*%
X57230000Y-106630000D03*
%TO.P,P1,3,Pin_3*%
%TO.N,/GPIO2(SDA1)*%
X59770000Y-104090000D03*
%TO.P,P1,4,Pin_4*%
%TO.N,+5V*%
X57230000Y-104090000D03*
%TO.P,P1,5,Pin_5*%
%TO.N,/GPIO3(SCL1)*%
X59770000Y-101550000D03*
%TO.P,P1,6,Pin_6*%
%TO.N,GND*%
X57230000Y-101550000D03*
%TO.P,P1,7,Pin_7*%
%TO.N,/GPIO4(GCLK)*%
X59770000Y-99010000D03*
%TO.P,P1,8,Pin_8*%
%TO.N,/GPIO14(TXD0)*%
X57230000Y-99010000D03*
%TO.P,P1,9,Pin_9*%
%TO.N,GND*%
X59770000Y-96470000D03*
%TO.P,P1,10,Pin_10*%
%TO.N,/GPIO15(RXD0)*%
X57230000Y-96470000D03*
%TO.P,P1,11,Pin_11*%
%TO.N,/GPIO17(GEN0)*%
X59770000Y-93930000D03*
%TO.P,P1,12,Pin_12*%
%TO.N,/GPIO18(GEN1)(PWM0)*%
X57230000Y-93930000D03*
%TO.P,P1,13,Pin_13*%
%TO.N,/GPIO27(GEN2)*%
X59770000Y-91390000D03*
%TO.P,P1,14,Pin_14*%
%TO.N,GND*%
X57230000Y-91390000D03*
%TO.P,P1,15,Pin_15*%
%TO.N,/GPIO22(GEN3)*%
X59770000Y-88850000D03*
%TO.P,P1,16,Pin_16*%
%TO.N,/GPIO23(GEN4)*%
X57230000Y-88850000D03*
%TO.P,P1,17,Pin_17*%
%TO.N,+3V3*%
X59770000Y-86310000D03*
%TO.P,P1,18,Pin_18*%
%TO.N,/GPIO24(GEN5)*%
X57230000Y-86310000D03*
%TO.P,P1,19,Pin_19*%
%TO.N,/GPIO10(SPI0_MOSI)*%
X59770000Y-83770000D03*
%TO.P,P1,20,Pin_20*%
%TO.N,GND*%
X57230000Y-83770000D03*
%TO.P,P1,21,Pin_21*%
%TO.N,/GPIO9(SPI0_MISO)*%
X59770000Y-81230000D03*
%TO.P,P1,22,Pin_22*%
%TO.N,/GPIO25(GEN6)*%
X57230000Y-81230000D03*
%TO.P,P1,23,Pin_23*%
%TO.N,/GPIO11(SPI0_SCK)*%
X59770000Y-78690000D03*
%TO.P,P1,24,Pin_24*%
%TO.N,/GPIO8(SPI0_CE_N)*%
X57230000Y-78690000D03*
%TO.P,P1,25,Pin_25*%
%TO.N,GND*%
X59770000Y-76150000D03*
%TO.P,P1,26,Pin_26*%
%TO.N,/GPIO7(SPI1_CE_N)*%
X57230000Y-76150000D03*
%TO.P,P1,27,Pin_27*%
%TO.N,/ID_SD*%
X59770000Y-73610000D03*
%TO.P,P1,28,Pin_28*%
%TO.N,/ID_SC*%
X57230000Y-73610000D03*
%TO.P,P1,29,Pin_29*%
%TO.N,/GPIO5*%
X59770000Y-71070000D03*
%TO.P,P1,30,Pin_30*%
%TO.N,GND*%
X57230000Y-71070000D03*
%TO.P,P1,31,Pin_31*%
%TO.N,/GPIO6*%
X59770000Y-68530000D03*
%TO.P,P1,32,Pin_32*%
%TO.N,/GPIO12(PWM0)*%
X57230000Y-68530000D03*
%TO.P,P1,33,Pin_33*%
%TO.N,/GPIO13(PWM1)*%
X59770000Y-65990000D03*
%TO.P,P1,34,Pin_34*%
%TO.N,GND*%
X57230000Y-65990000D03*
%TO.P,P1,35,Pin_35*%
%TO.N,/GPIO19(SPI1_MISO)*%
X59770000Y-63450000D03*
%TO.P,P1,36,Pin_36*%
%TO.N,/GPIO16*%
X57230000Y-63450000D03*
%TO.P,P1,37,Pin_37*%
%TO.N,/GPIO26*%
X59770000Y-60910000D03*
%TO.P,P1,38,Pin_38*%
%TO.N,/GPIO20(SPI1_MOSI)*%
X57230000Y-60910000D03*
%TO.P,P1,39,Pin_39*%
%TO.N,GND*%
X59770000Y-58370000D03*
%TO.P,P1,40,Pin_40*%
%TO.N,/GPIO21(SPI1_SCK)*%
X57230000Y-58370000D03*
%TD*%
D14*
%TO.P,C9,1*%
%TO.N,+5V*%
X74750000Y-110750000D03*
D19*
%TO.P,C9,2*%
%TO.N,GND*%
X72250000Y-110750000D03*
%TD*%
D22*
%TO.P,J8,1,Pin_1*%
%TO.N,unconnected-(J8-Pin_1-Pad1)*%
X78870000Y-134000000D03*
D23*
%TO.P,J8,2,Pin_2*%
%TO.N,unconnected-(J8-Pin_2-Pad2)*%
X78870000Y-131460000D03*
%TO.P,J8,3,Pin_3*%
%TO.N,unconnected-(J8-Pin_3-Pad3)*%
X76330000Y-134000000D03*
%TO.P,J8,4,Pin_4*%
%TO.N,unconnected-(J8-Pin_4-Pad4)*%
X76330000Y-131460000D03*
%TO.P,J8,5,Pin_5*%
%TO.N,unconnected-(J8-Pin_5-Pad5)*%
X73790000Y-134000000D03*
%TO.P,J8,6,Pin_6*%
%TO.N,unconnected-(J8-Pin_6-Pad6)*%
X73790000Y-131460000D03*
%TO.P,J8,7,Pin_7*%
%TO.N,GND*%
X71250000Y-134000000D03*
%TO.P,J8,8,Pin_8*%
X71250000Y-131460000D03*
%TO.P,J8,9,Pin_9*%
%TO.N,Net-(D2-A)*%
X68710000Y-134000000D03*
%TO.P,J8,10,Pin_10*%
X68710000Y-131460000D03*
%TO.P,J8,11,Pin_11*%
%TO.N,unconnected-(J8-Pin_11-Pad11)*%
X66170000Y-134000000D03*
%TO.P,J8,12,Pin_12*%
%TO.N,unconnected-(J8-Pin_12-Pad12)*%
X66170000Y-131460000D03*
%TO.P,J8,13,Pin_13*%
%TO.N,unconnected-(J8-Pin_13-Pad13)*%
X63630000Y-134000000D03*
%TO.P,J8,14,Pin_14*%
%TO.N,unconnected-(J8-Pin_14-Pad14)*%
X63630000Y-131460000D03*
%TO.P,J8,15,Pin_15*%
%TO.N,unconnected-(J8-Pin_15-Pad15)*%
X61090000Y-134000000D03*
%TO.P,J8,16,Pin_16*%
%TO.N,unconnected-(J8-Pin_16-Pad16)*%
X61090000Y-131460000D03*
%TD*%
D19*
%TO.P,C10,1*%
%TO.N,+5V*%
X81875000Y-119200000D03*
%TO.P,C10,2*%
%TO.N,GND*%
X81875000Y-124200000D03*
%TD*%
D14*
%TO.P,C8,1*%
%TO.N,+12V*%
X64750000Y-110750000D03*
D19*
%TO.P,C8,2*%
%TO.N,GND*%
X67250000Y-110750000D03*
%TD*%
D23*
%TO.P,A1,1,SCK*%
%TO.N,GND*%
X81350000Y-105055000D03*
%TO.P,A1,2,BCK*%
%TO.N,/GPIO18(GEN1)(PWM0)*%
X78810000Y-105055000D03*
%TO.P,A1,3,DIN*%
%TO.N,/GPIO21(SPI1_SCK)*%
X76270000Y-105055000D03*
%TO.P,A1,4,LCK*%
%TO.N,/GPIO19(SPI1_MISO)*%
X73730000Y-105055000D03*
%TO.P,A1,5,GND*%
%TO.N,GND*%
X71190000Y-105055000D03*
%TO.P,A1,6,VIN*%
%TO.N,+5V*%
X68650000Y-105055000D03*
%TO.P,A1,7,LOUT*%
%TO.N,Net-(A1-LOUT)*%
X81985000Y-78385000D03*
%TO.P,A1,8,AGND*%
%TO.N,Net-(J6-Pin_1)*%
X81985000Y-80925000D03*
%TO.P,A1,9,ROUT*%
%TO.N,Net-(A1-ROUT)*%
X81985000Y-83465000D03*
%TO.P,A1,10,AGND*%
%TO.N,unconnected-(A1-AGND-Pad10)*%
X81985000Y-86005000D03*
%TO.P,A1,11,A3V3*%
%TO.N,unconnected-(A1-A3V3-Pad11)*%
X81985000Y-88545000D03*
%TO.P,A1,12,FMT*%
%TO.N,unconnected-(A1-FMT-Pad12)*%
X81985000Y-91085000D03*
%TO.P,A1,13,XSMT*%
%TO.N,unconnected-(A1-XSMT-Pad13)*%
X81985000Y-93625000D03*
%TO.P,A1,14,DEMP*%
%TO.N,unconnected-(A1-DEMP-Pad14)*%
X81985000Y-96165000D03*
%TO.P,A1,15,FLT*%
%TO.N,unconnected-(A1-FLT-Pad15)*%
X81985000Y-98705000D03*
%TD*%
D24*
%TO.N,/GPIO19(SPI1_MISO)*%
X75500000Y-98250000D03*
%TO.N,/GPIO21(SPI1_SCK)*%
X76250000Y-96250000D03*
%TO.N,/GPIO15(RXD0)*%
X80000000Y-76500000D03*
%TD*%
D25*
%TO.N,+12V*%
X53350000Y-129545000D02*
X53350000Y-120350000D01*
X53350000Y-120350000D02*
X54200000Y-119500000D01*
X55500000Y-119500000D02*
X54200000Y-119500000D01*
%TO.N,+5V*%
X55500000Y-124580000D02*
X55500000Y-131010000D01*
X54425000Y-132085000D02*
X53350000Y-132085000D01*
X55500000Y-131010000D02*
X54425000Y-132085000D01*
X58110000Y-124580000D02*
X59732500Y-122957500D01*
X59732500Y-122957500D02*
X58200000Y-124490000D01*
X63540000Y-119150000D02*
X59732500Y-122957500D01*
X55500000Y-124580000D02*
X58110000Y-124580000D01*
X57625000Y-124580000D02*
X55500000Y-124580000D01*
%TO.N,+12V*%
X59645000Y-119500000D02*
X62975000Y-116170000D01*
X55500000Y-119500000D02*
X59645000Y-119500000D01*
X64775000Y-116170000D02*
X62975000Y-116170000D01*
X78450000Y-116145000D02*
X64750000Y-116145000D01*
%TO.N,Net-(D2-A)*%
X68710000Y-128340000D02*
X70745000Y-126305000D01*
X68710000Y-131460000D02*
X68710000Y-128340000D01*
X70745000Y-126305000D02*
X78450000Y-126305000D01*
%TO.N,+5V*%
X76750000Y-110750000D02*
X74750000Y-110750000D01*
X81875000Y-115875000D02*
X76750000Y-110750000D01*
X81875000Y-119200000D02*
X81875000Y-115875000D01*
X63590000Y-119200000D02*
X81875000Y-119200000D01*
X63540000Y-119150000D02*
X63590000Y-119200000D01*
%TO.N,Net-(D2-A)*%
X68710000Y-131460000D02*
X68710000Y-134000000D01*
%TO.N,+12V*%
X64750000Y-110750000D02*
X64750000Y-116145000D01*
X64750000Y-116145000D02*
X64775000Y-116170000D01*
D26*
%TO.N,/GPIO19(SPI1_MISO)*%
X75500000Y-97000000D02*
X75500000Y-98250000D01*
X62820000Y-66500000D02*
X73975000Y-66500000D01*
X72500000Y-94000000D02*
X75500000Y-97000000D01*
X72500000Y-88786394D02*
X72500000Y-94000000D01*
X73975000Y-66500000D02*
X74975000Y-67500000D01*
X73643197Y-87643197D02*
X72500000Y-88786394D01*
X74975000Y-67500000D02*
X74975000Y-86311394D01*
X59770000Y-63450000D02*
X62820000Y-66500000D01*
X74975000Y-86311394D02*
X73643197Y-87643197D01*
%TO.N,/GPIO18(GEN1)(PWM0)*%
X75130000Y-101375000D02*
X78810000Y-105055000D01*
X62835000Y-97835000D02*
X66375000Y-101375000D01*
X57230000Y-93930000D02*
X56055000Y-95105000D01*
X56055000Y-95105000D02*
X56055000Y-97305000D01*
X66375000Y-101375000D02*
X75130000Y-101375000D01*
X56585000Y-97835000D02*
X62835000Y-97835000D01*
X56055000Y-97305000D02*
X56585000Y-97835000D01*
%TO.N,/GPIO21(SPI1_SCK)*%
X75425000Y-86497790D02*
X72950000Y-88972790D01*
X72950000Y-92950000D02*
X76250000Y-96250000D01*
X75425000Y-59175000D02*
X75425000Y-86497790D01*
X57230000Y-58370000D02*
X59075000Y-56525000D01*
X59075000Y-56525000D02*
X72775000Y-56525000D01*
X72775000Y-56525000D02*
X75425000Y-59175000D01*
X72950000Y-88972790D02*
X72950000Y-92950000D01*
D25*
%TO.N,+5V*%
X69000000Y-108750000D02*
X72750000Y-108750000D01*
X68650000Y-108400000D02*
X69000000Y-108750000D01*
X68650000Y-105055000D02*
X68650000Y-108400000D01*
X72750000Y-108750000D02*
X74750000Y-110750000D01*
X58147919Y-108750000D02*
X69000000Y-108750000D01*
X53126000Y-65020000D02*
X53486000Y-65020000D01*
X51983000Y-100108000D02*
X51983000Y-66163000D01*
X51983000Y-66163000D02*
X53126000Y-65020000D01*
X55965000Y-104090000D02*
X51983000Y-100108000D01*
X57230000Y-104090000D02*
X55965000Y-104090000D01*
X57230000Y-107832081D02*
X58147919Y-108750000D01*
X57230000Y-106630000D02*
X57230000Y-107832081D01*
X68750000Y-104955000D02*
X68650000Y-105055000D01*
X68750000Y-102500000D02*
X68750000Y-104955000D01*
D27*
%TO.N,+3V3*%
X51000000Y-100750000D02*
X51000000Y-58250000D01*
X53250000Y-56000000D02*
X82080000Y-56000000D01*
X55590000Y-105340000D02*
X51000000Y-100750000D01*
X59770000Y-106630000D02*
X58480000Y-105340000D01*
X88200000Y-63200000D02*
X88250000Y-63250000D01*
X84750000Y-58670000D02*
X84750000Y-60250000D01*
X82080000Y-56000000D02*
X84750000Y-58670000D01*
X84750000Y-63130000D02*
X84820000Y-63200000D01*
X84820000Y-63200000D02*
X88200000Y-63200000D01*
X58480000Y-105340000D02*
X55590000Y-105340000D01*
X51000000Y-58250000D02*
X53250000Y-56000000D01*
X84750000Y-60250000D02*
X84750000Y-63130000D01*
D26*
%TO.N,/GPIO10(SPI0_MOSI)*%
X66560000Y-83770000D02*
X67540000Y-84750000D01*
X59770000Y-83770000D02*
X66560000Y-83770000D01*
X71250000Y-68750000D02*
X74025000Y-71525000D01*
X74025000Y-71525000D02*
X74025000Y-85915000D01*
X73690000Y-86250000D02*
X69040000Y-86250000D01*
X69040000Y-86250000D02*
X67540000Y-84750000D01*
X74025000Y-85915000D02*
X73690000Y-86250000D01*
%TO.N,/GPIO11(SPI0_SCK)*%
X67540000Y-93500000D02*
X67540000Y-99250000D01*
X58595000Y-84345000D02*
X59385000Y-85135000D01*
X58595000Y-79865000D02*
X58595000Y-84345000D01*
X67540000Y-93500000D02*
X67540000Y-87540000D01*
X65135000Y-85135000D02*
X67449999Y-87449999D01*
X59385000Y-85135000D02*
X65135000Y-85135000D01*
X74475000Y-86174998D02*
X73199999Y-87449999D01*
X74475000Y-69375000D02*
X74475000Y-86174998D01*
X59770000Y-78690000D02*
X58595000Y-79865000D01*
X67540000Y-87540000D02*
X67449999Y-87449999D01*
X73199999Y-87449999D02*
X67449999Y-87449999D01*
X73850000Y-68750000D02*
X74475000Y-69375000D01*
%TO.N,/GPIO5*%
X62090000Y-68750000D02*
X59770000Y-71070000D01*
X63250000Y-68750000D02*
X62090000Y-68750000D01*
X62700000Y-74000000D02*
X63250000Y-74000000D01*
X63250000Y-74000000D02*
X63250000Y-68750000D01*
X63250000Y-72500000D02*
X63250000Y-80500000D01*
%TO.N,/GPIO6*%
X59770000Y-68530000D02*
X60675000Y-67625000D01*
X72250000Y-74000000D02*
X71000000Y-74000000D01*
X64625000Y-67625000D02*
X65750000Y-68750000D01*
X60675000Y-67625000D02*
X64625000Y-67625000D01*
X72250000Y-74000000D02*
X72250000Y-80500000D01*
X71000000Y-74000000D02*
X65750000Y-68750000D01*
%TO.N,Net-(D1-A)*%
X86000000Y-76750000D02*
X86000000Y-84400000D01*
X87500000Y-120985000D02*
X87500000Y-85900000D01*
X77200000Y-65740000D02*
X79940000Y-68480000D01*
X87500000Y-85900000D02*
X86000000Y-84400000D01*
X79940000Y-73500000D02*
X82750000Y-73500000D01*
X79940000Y-68480000D02*
X79940000Y-73500000D01*
X82750000Y-73500000D02*
X86000000Y-76750000D01*
%TO.N,Net-(D1-K)*%
X87560000Y-73500000D02*
X87560000Y-75940000D01*
X87560000Y-75940000D02*
X87500000Y-76000000D01*
X77200000Y-63200000D02*
X87500000Y-73500000D01*
X87500000Y-73500000D02*
X87560000Y-73500000D01*
%TO.N,/GPIO2(SDA1)*%
X60335000Y-100185000D02*
X56210000Y-100185000D01*
X56210000Y-100185000D02*
X55250000Y-99225000D01*
X61200000Y-101050000D02*
X60335000Y-100185000D01*
X61200000Y-102660000D02*
X61200000Y-101050000D01*
X55250000Y-61704000D02*
X53486000Y-59940000D01*
X55250000Y-99225000D02*
X55250000Y-61704000D01*
X59770000Y-104090000D02*
X61200000Y-102660000D01*
%TO.N,/GPIO3(SCL1)*%
X58595000Y-102725000D02*
X59770000Y-101550000D01*
X54800000Y-100781701D02*
X56743299Y-102725000D01*
X53486000Y-62480000D02*
X54800000Y-63794000D01*
X54800000Y-63794000D02*
X54800000Y-100781701D01*
X56743299Y-102725000D02*
X58595000Y-102725000D01*
%TO.N,/GPIO15(RXD0)*%
X75825000Y-100925000D02*
X80000000Y-96750000D01*
X57230000Y-96470000D02*
X58405000Y-95295000D01*
X60931396Y-95295000D02*
X66561396Y-100925000D01*
X66561396Y-100925000D02*
X75825000Y-100925000D01*
X85660000Y-68280000D02*
X84820000Y-68280000D01*
X58405000Y-95295000D02*
X60931396Y-95295000D01*
X80000000Y-96750000D02*
X80000000Y-76500000D01*
X88250000Y-70870000D02*
X85660000Y-68280000D01*
%TO.N,Net-(A1-LOUT)*%
X81040000Y-82290000D02*
X83040000Y-82290000D01*
X83040000Y-82290000D02*
X83675000Y-82925000D01*
X83675000Y-126465000D02*
X87500000Y-130290000D01*
X83675000Y-82925000D02*
X83675000Y-126465000D01*
X80450000Y-79920000D02*
X80450000Y-81700000D01*
X81985000Y-78385000D02*
X80450000Y-79920000D01*
X80450000Y-81700000D02*
X81040000Y-82290000D01*
%TO.N,Net-(A1-ROUT)*%
X83225000Y-128555000D02*
X83225000Y-84705000D01*
X87500000Y-132830000D02*
X83225000Y-128555000D01*
X83225000Y-84705000D02*
X81985000Y-83465000D01*
D27*
%TO.N,Net-(J6-Pin_1)*%
X81985000Y-80925000D02*
X83187081Y-80925000D01*
X84250000Y-124500000D02*
X87500000Y-127750000D01*
X83187081Y-80925000D02*
X84250000Y-81987919D01*
X84250000Y-81987919D02*
X84250000Y-124500000D01*
D26*
%TO.N,Net-(J7-Pin_1)*%
X88675000Y-122350000D02*
X87500000Y-123525000D01*
X88675000Y-84795000D02*
X88675000Y-122350000D01*
X87500000Y-83620000D02*
X88675000Y-84795000D01*
%TO.N,/GPIO9(SPI0_MISO)*%
X61860000Y-83320000D02*
X71110000Y-83320000D01*
X68500000Y-68750000D02*
X70925000Y-71175000D01*
X73575000Y-83715000D02*
X72540000Y-84750000D01*
X72798833Y-71175000D02*
X73575000Y-71951167D01*
X73575000Y-71951167D02*
X73575000Y-83715000D01*
X71110000Y-83320000D02*
X72540000Y-84750000D01*
X70925000Y-71175000D02*
X72798833Y-71175000D01*
X59770000Y-81230000D02*
X61860000Y-83320000D01*
%TD*%
%TA.AperFunction,Conductor*%
%TO.N,GND*%
G36*
X71650000Y-132658915D02*
G01*
X71667560Y-132682965D01*
X71673857Y-132662135D01*
X71725232Y-132617618D01*
X71877387Y-132546666D01*
X72056554Y-132421212D01*
X72211212Y-132266554D01*
X72336665Y-132087389D01*
X72352172Y-132054135D01*
X72398345Y-132001695D01*
X72465538Y-131982543D01*
X72532419Y-132002758D01*
X72576936Y-132054133D01*
X72591330Y-132085000D01*
X72615965Y-132137830D01*
X72615967Y-132137834D01*
X72724281Y-132292521D01*
X72751501Y-132331396D01*
X72751506Y-132331402D01*
X72918597Y-132498493D01*
X72918603Y-132498498D01*
X73104158Y-132628425D01*
X73147783Y-132683002D01*
X73154977Y-132752500D01*
X73123454Y-132814855D01*
X73104158Y-132831575D01*
X72918597Y-132961505D01*
X72751505Y-133128597D01*
X72615966Y-133322168D01*
X72576936Y-133405867D01*
X72530763Y-133458306D01*
X72463569Y-133477457D01*
X72396688Y-133457241D01*
X72352171Y-133405864D01*
X72336665Y-133372611D01*
X72336664Y-133372608D01*
X72211216Y-133193450D01*
X72211211Y-133193444D01*
X72056554Y-133038787D01*
X71877387Y-132913333D01*
X71725232Y-132842382D01*
X71672793Y-132796210D01*
X71666417Y-132773843D01*
X71650000Y-132803076D01*
X71650000Y-133692894D01*
X71557007Y-133599901D01*
X71442993Y-133534075D01*
X71315826Y-133500000D01*
X71184174Y-133500000D01*
X71057007Y-133534075D01*
X70942993Y-133599901D01*
X70850000Y-133692894D01*
X70850000Y-132801083D01*
X70832439Y-132777032D01*
X70826142Y-132797865D01*
X70774767Y-132842382D01*
X70622612Y-132913333D01*
X70622608Y-132913335D01*
X70443450Y-133038783D01*
X70443444Y-133038788D01*
X70288788Y-133193444D01*
X70288783Y-133193450D01*
X70163335Y-133372608D01*
X70163333Y-133372612D01*
X70147827Y-133405866D01*
X70101654Y-133458305D01*
X70034461Y-133477457D01*
X69967580Y-133457241D01*
X69923063Y-133405866D01*
X69884035Y-133322171D01*
X69884034Y-133322169D01*
X69748494Y-133128597D01*
X69646819Y-133026922D01*
X69613334Y-132965599D01*
X69610500Y-132939241D01*
X69610500Y-132520758D01*
X69630185Y-132453719D01*
X69646819Y-132433077D01*
X69658684Y-132421212D01*
X69748495Y-132331401D01*
X69884035Y-132137830D01*
X69923064Y-132054130D01*
X69969233Y-132001695D01*
X70036427Y-131982543D01*
X70103308Y-132002758D01*
X70147825Y-132054133D01*
X70163330Y-132087382D01*
X70163332Y-132087386D01*
X70288787Y-132266554D01*
X70443445Y-132421212D01*
X70622612Y-132546667D01*
X70774767Y-132617618D01*
X70827206Y-132663790D01*
X70833580Y-132686155D01*
X70850000Y-132656919D01*
X70850000Y-131767106D01*
X70942993Y-131860099D01*
X71057007Y-131925925D01*
X71184174Y-131960000D01*
X71315826Y-131960000D01*
X71442993Y-131925925D01*
X71557007Y-131860099D01*
X71650000Y-131767106D01*
X71650000Y-132658915D01*
G37*
%TD.AperFunction*%
%TA.AperFunction,Conductor*%
G36*
X78697862Y-68124655D02*
G01*
X78712818Y-68137408D01*
X79278181Y-68702771D01*
X79311666Y-68764094D01*
X79314500Y-68790452D01*
X79314500Y-72285811D01*
X79294815Y-72352850D01*
X79261623Y-72387386D01*
X79100859Y-72499953D01*
X78939954Y-72660858D01*
X78809432Y-72847265D01*
X78809431Y-72847267D01*
X78713261Y-73053502D01*
X78713258Y-73053511D01*
X78654366Y-73273302D01*
X78654364Y-73273313D01*
X78634532Y-73499998D01*
X78634532Y-73500001D01*
X78654364Y-73726686D01*
X78654366Y-73726697D01*
X78713258Y-73946488D01*
X78713261Y-73946497D01*
X78809431Y-74152732D01*
X78809432Y-74152734D01*
X78939954Y-74339141D01*
X79100858Y-74500045D01*
X79100861Y-74500047D01*
X79287266Y-74630568D01*
X79493504Y-74726739D01*
X79713308Y-74785635D01*
X79864105Y-74798828D01*
X79939998Y-74805468D01*
X79940000Y-74805468D01*
X79940002Y-74805468D01*
X80015895Y-74798828D01*
X80166692Y-74785635D01*
X80386496Y-74726739D01*
X80592734Y-74630568D01*
X80779139Y-74500047D01*
X80940047Y-74339139D01*
X81052613Y-74178377D01*
X81107189Y-74134752D01*
X81154188Y-74125500D01*
X82439548Y-74125500D01*
X82506587Y-74145185D01*
X82527229Y-74161819D01*
X85338181Y-76972771D01*
X85371666Y-77034094D01*
X85374500Y-77060452D01*
X85374500Y-84338393D01*
X85374500Y-84461607D01*
X85374500Y-84461609D01*
X85374499Y-84461609D01*
X85379330Y-84485891D01*
X85379330Y-84485893D01*
X85398182Y-84580669D01*
X85398535Y-84582444D01*
X85398536Y-84582447D01*
X85398537Y-84582451D01*
X85445688Y-84696286D01*
X85445689Y-84696287D01*
X85468949Y-84731097D01*
X85468950Y-84731099D01*
X85514140Y-84798731D01*
X85514141Y-84798732D01*
X85514142Y-84798733D01*
X85601267Y-84885858D01*
X85601268Y-84885858D01*
X85608335Y-84892925D01*
X85608334Y-84892925D01*
X85608338Y-84892928D01*
X86838181Y-86122771D01*
X86871666Y-86184094D01*
X86874500Y-86210452D01*
X86874500Y-119709773D01*
X86854815Y-119776812D01*
X86821623Y-119811348D01*
X86628597Y-119946505D01*
X86461505Y-120113597D01*
X86325965Y-120307169D01*
X86325964Y-120307171D01*
X86226098Y-120521335D01*
X86226094Y-120521344D01*
X86164938Y-120749586D01*
X86164936Y-120749596D01*
X86144341Y-120984999D01*
X86144341Y-120985000D01*
X86164936Y-121220403D01*
X86164938Y-121220413D01*
X86226094Y-121448655D01*
X86226096Y-121448659D01*
X86226097Y-121448663D01*
X86262851Y-121527482D01*
X86325965Y-121662830D01*
X86325967Y-121662834D01*
X86461501Y-121856395D01*
X86461506Y-121856402D01*
X86583430Y-121978326D01*
X86616915Y-122039649D01*
X86611931Y-122109341D01*
X86570059Y-122165274D01*
X86539083Y-122182189D01*
X86407669Y-122231203D01*
X86407664Y-122231206D01*
X86292455Y-122317452D01*
X86292452Y-122317455D01*
X86206206Y-122432664D01*
X86206202Y-122432671D01*
X86155908Y-122567517D01*
X86149501Y-122627116D01*
X86149500Y-122627135D01*
X86149500Y-124422870D01*
X86149501Y-124422876D01*
X86155908Y-124482483D01*
X86206202Y-124617328D01*
X86206206Y-124617335D01*
X86292452Y-124732544D01*
X86292455Y-124732547D01*
X86407664Y-124818793D01*
X86407671Y-124818797D01*
X86542517Y-124869091D01*
X86542516Y-124869091D01*
X86549444Y-124869835D01*
X86602127Y-124875500D01*
X88397872Y-124875499D01*
X88457483Y-124869091D01*
X88592331Y-124818796D01*
X88707546Y-124732546D01*
X88793796Y-124617331D01*
X88844091Y-124482483D01*
X88850500Y-124422873D01*
X88850499Y-123110450D01*
X88870184Y-123043412D01*
X88886813Y-123022775D01*
X89073729Y-122835860D01*
X89073733Y-122835858D01*
X89160858Y-122748733D01*
X89229311Y-122646286D01*
X89229312Y-122646285D01*
X89260939Y-122569926D01*
X89304778Y-122515525D01*
X89371072Y-122493459D01*
X89438772Y-122510737D01*
X89486383Y-122561874D01*
X89499500Y-122617380D01*
X89499500Y-137375500D01*
X89479815Y-137442539D01*
X89427011Y-137488294D01*
X89375500Y-137499500D01*
X50624500Y-137499500D01*
X50557461Y-137479815D01*
X50511706Y-137427011D01*
X50500500Y-137375500D01*
X50500500Y-111374038D01*
X56899500Y-111374038D01*
X56899500Y-111625962D01*
X56938910Y-111874785D01*
X57016760Y-112114383D01*
X57131132Y-112338848D01*
X57279201Y-112542649D01*
X57279205Y-112542654D01*
X57457345Y-112720794D01*
X57457350Y-112720798D01*
X57565068Y-112799059D01*
X57661155Y-112868870D01*
X57767111Y-112922857D01*
X57885616Y-112983239D01*
X57885618Y-112983239D01*
X57885621Y-112983241D01*
X58125215Y-113061090D01*
X58374038Y-113100500D01*
X58374039Y-113100500D01*
X58625961Y-113100500D01*
X58625962Y-113100500D01*
X58874785Y-113061090D01*
X59114379Y-112983241D01*
X59338845Y-112868870D01*
X59542656Y-112720793D01*
X59720793Y-112542656D01*
X59868870Y-112338845D01*
X59983241Y-112114379D01*
X60061090Y-111874785D01*
X60100500Y-111625962D01*
X60100500Y-111374038D01*
X60061090Y-111125215D01*
X59983241Y-110885621D01*
X59983239Y-110885618D01*
X59983239Y-110885616D01*
X59940971Y-110802661D01*
X59868870Y-110661155D01*
X59804984Y-110573223D01*
X59720798Y-110457350D01*
X59720794Y-110457345D01*
X59542654Y-110279205D01*
X59542649Y-110279201D01*
X59338848Y-110131132D01*
X59338847Y-110131131D01*
X59338845Y-110131130D01*
X59267329Y-110094691D01*
X59114383Y-110016760D01*
X58874785Y-109938910D01*
X58625962Y-109899500D01*
X58374038Y-109899500D01*
X58256944Y-109918046D01*
X58125214Y-109938910D01*
X57885616Y-110016760D01*
X57661151Y-110131132D01*
X57457350Y-110279201D01*
X57457345Y-110279205D01*
X57279205Y-110457345D01*
X57279201Y-110457350D01*
X57131132Y-110661151D01*
X57016760Y-110885616D01*
X56956824Y-111070080D01*
X56938910Y-111125215D01*
X56899500Y-111374038D01*
X50500500Y-111374038D01*
X50500500Y-101540519D01*
X50520185Y-101473480D01*
X50572989Y-101427725D01*
X50642147Y-101417781D01*
X50705703Y-101446806D01*
X50712181Y-101452838D01*
X55143453Y-105884111D01*
X55143454Y-105884112D01*
X55258190Y-105960776D01*
X55356790Y-106001617D01*
X55385671Y-106013580D01*
X55385672Y-106013580D01*
X55385677Y-106013582D01*
X55412545Y-106018925D01*
X55412551Y-106018926D01*
X55412591Y-106018934D01*
X55502937Y-106036905D01*
X55521006Y-106040500D01*
X55521007Y-106040500D01*
X55828215Y-106040500D01*
X55895254Y-106060185D01*
X55941009Y-106112989D01*
X55950953Y-106182147D01*
X55947990Y-106196593D01*
X55894938Y-106394586D01*
X55894936Y-106394596D01*
X55874341Y-106629999D01*
X55874341Y-106630000D01*
X55894936Y-106865403D01*
X55894938Y-106865413D01*
X55956094Y-107093655D01*
X55956096Y-107093659D01*
X55956097Y-107093663D01*
X56040499Y-107274663D01*
X56055965Y-107307830D01*
X56055967Y-107307834D01*
X56191501Y-107501395D01*
X56191506Y-107501402D01*
X56293181Y-107603077D01*
X56326666Y-107664400D01*
X56329500Y-107690758D01*
X56329500Y-107920777D01*
X56364103Y-108094739D01*
X56364105Y-108094747D01*
X56397747Y-108175965D01*
X56431984Y-108258622D01*
X56431988Y-108258629D01*
X56467183Y-108311303D01*
X56467184Y-108311304D01*
X56467187Y-108311308D01*
X56514592Y-108382255D01*
X56530537Y-108406119D01*
X56530538Y-108406120D01*
X57448455Y-109324035D01*
X57537601Y-109413181D01*
X57573885Y-109449465D01*
X57721365Y-109548009D01*
X57721378Y-109548016D01*
X57844282Y-109598923D01*
X57885253Y-109615894D01*
X57885255Y-109615894D01*
X57885260Y-109615896D01*
X58059223Y-109650499D01*
X58059226Y-109650500D01*
X58059228Y-109650500D01*
X63348933Y-109650500D01*
X63415972Y-109670185D01*
X63461727Y-109722989D01*
X63471671Y-109792147D01*
X63465115Y-109817832D01*
X63455909Y-109842514D01*
X63455908Y-109842516D01*
X63449782Y-109899500D01*
X63449501Y-109902123D01*
X63449500Y-109902135D01*
X63449500Y-111597870D01*
X63449501Y-111597876D01*
X63455908Y-111657483D01*
X63506202Y-111792328D01*
X63506206Y-111792335D01*
X63592452Y-111907544D01*
X63592455Y-111907547D01*
X63707664Y-111993793D01*
X63707669Y-111993796D01*
X63768833Y-112016608D01*
X63824766Y-112058478D01*
X63849184Y-112123942D01*
X63849500Y-112132790D01*
X63849500Y-115145500D01*
X63829815Y-115212539D01*
X63777011Y-115258294D01*
X63725500Y-115269500D01*
X62886303Y-115269500D01*
X62712341Y-115304103D01*
X62712333Y-115304105D01*
X62652177Y-115329023D01*
X62548455Y-115371985D01*
X62548447Y-115371990D01*
X62460040Y-115431063D01*
X62460039Y-115431064D01*
X62400961Y-115470537D01*
X62400960Y-115470538D01*
X59308319Y-118563181D01*
X59246996Y-118596666D01*
X59220638Y-118599500D01*
X57122620Y-118599500D01*
X57055581Y-118579815D01*
X57009826Y-118527011D01*
X56999330Y-118488753D01*
X56994091Y-118440016D01*
X56943797Y-118305171D01*
X56943793Y-118305164D01*
X56857547Y-118189955D01*
X56857544Y-118189952D01*
X56742335Y-118103706D01*
X56742328Y-118103702D01*
X56607482Y-118053408D01*
X56607483Y-118053408D01*
X56547883Y-118047001D01*
X56547881Y-118047000D01*
X56547873Y-118047000D01*
X56547864Y-118047000D01*
X54452129Y-118047000D01*
X54452123Y-118047001D01*
X54392516Y-118053408D01*
X54257671Y-118103702D01*
X54257664Y-118103706D01*
X54142455Y-118189952D01*
X54142452Y-118189955D01*
X54056206Y-118305164D01*
X54056202Y-118305171D01*
X54005908Y-118440017D01*
X53999501Y-118499616D01*
X53999500Y-118499635D01*
X53999500Y-118525501D01*
X53979815Y-118592540D01*
X53927011Y-118638295D01*
X53922973Y-118640053D01*
X53899459Y-118649792D01*
X53821453Y-118682102D01*
X53821454Y-118682103D01*
X53773454Y-118701986D01*
X53666496Y-118773454D01*
X53666495Y-118773455D01*
X53625962Y-118800537D01*
X53625961Y-118800538D01*
X52650538Y-119775960D01*
X52650537Y-119775961D01*
X52611064Y-119835039D01*
X52611063Y-119835040D01*
X52551988Y-119923449D01*
X52521104Y-119998012D01*
X52521104Y-119998013D01*
X52484105Y-120087334D01*
X52484103Y-120087340D01*
X52453348Y-120241953D01*
X52453349Y-120241954D01*
X52449500Y-120261306D01*
X52449500Y-128484241D01*
X52429815Y-128551280D01*
X52413181Y-128571922D01*
X52311505Y-128673597D01*
X52175965Y-128867169D01*
X52175964Y-128867171D01*
X52076098Y-129081335D01*
X52076094Y-129081344D01*
X52014938Y-129309586D01*
X52014936Y-129309596D01*
X51994341Y-129544999D01*
X51994341Y-129545000D01*
X52014936Y-129780403D01*
X52014938Y-129780413D01*
X52076094Y-130008655D01*
X52076096Y-130008659D01*
X52076097Y-130008663D01*
X52097516Y-130054596D01*
X52175965Y-130222830D01*
X52175967Y-130222834D01*
X52270212Y-130357428D01*
X52299489Y-130399241D01*
X52311501Y-130416395D01*
X52311506Y-130416402D01*
X52478597Y-130583493D01*
X52478603Y-130583498D01*
X52664158Y-130713425D01*
X52707783Y-130768002D01*
X52714977Y-130837500D01*
X52683454Y-130899855D01*
X52664158Y-130916575D01*
X52478597Y-131046505D01*
X52311505Y-131213597D01*
X52175965Y-131407169D01*
X52175964Y-131407171D01*
X52076098Y-131621335D01*
X52076094Y-131621344D01*
X52014938Y-131849586D01*
X52014936Y-131849596D01*
X51994341Y-132084999D01*
X51994341Y-132085000D01*
X52014936Y-132320403D01*
X52014938Y-132320413D01*
X52076094Y-132548655D01*
X52076096Y-132548659D01*
X52076097Y-132548663D01*
X52140211Y-132686155D01*
X52175965Y-132762830D01*
X52175967Y-132762834D01*
X52231668Y-132842382D01*
X52311505Y-132956401D01*
X52478599Y-133123495D01*
X52478601Y-133123496D01*
X52478603Y-133123498D01*
X52518260Y-133151266D01*
X52561885Y-133205842D01*
X52569079Y-133275341D01*
X52537556Y-133337696D01*
X52477327Y-133373110D01*
X52466534Y-133375314D01*
X52374855Y-133389833D01*
X52374844Y-133389837D01*
X52261958Y-133447356D01*
X52261949Y-133447363D01*
X52172363Y-133536949D01*
X52172360Y-133536953D01*
X52114833Y-133649855D01*
X52100000Y-133743513D01*
X52100000Y-134375000D01*
X52916988Y-134375000D01*
X52884075Y-134432007D01*
X52850000Y-134559174D01*
X52850000Y-134690826D01*
X52884075Y-134817993D01*
X52916988Y-134875000D01*
X52100001Y-134875000D01*
X52100001Y-135506479D01*
X52114835Y-135600149D01*
X52114837Y-135600155D01*
X52172356Y-135713041D01*
X52172363Y-135713050D01*
X52261949Y-135802636D01*
X52261953Y-135802639D01*
X52374855Y-135860166D01*
X52468514Y-135874999D01*
X53099999Y-135874999D01*
X53100000Y-135874998D01*
X53100000Y-135058012D01*
X53157007Y-135090925D01*
X53284174Y-135125000D01*
X53415826Y-135125000D01*
X53542993Y-135090925D01*
X53600000Y-135058012D01*
X53600000Y-135874999D01*
X54231479Y-135874999D01*
X54325149Y-135860164D01*
X54325155Y-135860162D01*
X54438041Y-135802643D01*
X54438050Y-135802636D01*
X54527636Y-135713050D01*
X54527639Y-135713046D01*
X54585166Y-135600144D01*
X54600000Y-135506486D01*
X54600000Y-134875000D01*
X53783012Y-134875000D01*
X53815925Y-134817993D01*
X53850000Y-134690826D01*
X53850000Y-134559174D01*
X53815925Y-134432007D01*
X53783012Y-134375000D01*
X54599999Y-134375000D01*
X54599999Y-133743520D01*
X54585164Y-133649850D01*
X54585162Y-133649844D01*
X54527643Y-133536958D01*
X54527636Y-133536949D01*
X54438050Y-133447363D01*
X54438046Y-133447360D01*
X54325144Y-133389833D01*
X54233466Y-133375313D01*
X54170331Y-133345383D01*
X54133400Y-133286072D01*
X54134398Y-133216209D01*
X54173008Y-133157977D01*
X54181733Y-133151270D01*
X54221401Y-133123495D01*
X54323077Y-133021819D01*
X54384400Y-132988334D01*
X54410758Y-132985500D01*
X54513693Y-132985500D01*
X54513694Y-132985499D01*
X54687666Y-132950895D01*
X54769606Y-132916953D01*
X54851547Y-132883013D01*
X54983173Y-132795063D01*
X54999036Y-132784464D01*
X56199464Y-131584035D01*
X56248288Y-131510965D01*
X56282343Y-131459999D01*
X59734341Y-131459999D01*
X59734341Y-131460000D01*
X59754936Y-131695403D01*
X59754938Y-131695413D01*
X59816094Y-131923655D01*
X59816096Y-131923659D01*
X59816097Y-131923663D01*
X59891330Y-132085000D01*
X59915965Y-132137830D01*
X59915967Y-132137834D01*
X60024281Y-132292521D01*
X60051501Y-132331396D01*
X60051506Y-132331402D01*
X60218597Y-132498493D01*
X60218603Y-132498498D01*
X60404158Y-132628425D01*
X60447783Y-132683002D01*
X60454977Y-132752500D01*
X60423454Y-132814855D01*
X60404158Y-132831575D01*
X60218597Y-132961505D01*
X60051505Y-133128597D01*
X59915965Y-133322169D01*
X59915964Y-133322171D01*
X59816098Y-133536335D01*
X59816094Y-133536344D01*
X59754938Y-133764586D01*
X59754936Y-133764596D01*
X59734341Y-133999999D01*
X59734341Y-134000000D01*
X59754936Y-134235403D01*
X59754938Y-134235413D01*
X59816094Y-134463655D01*
X59816096Y-134463659D01*
X59816097Y-134463663D01*
X59876937Y-134594134D01*
X59915965Y-134677830D01*
X59915967Y-134677834D01*
X60014108Y-134817993D01*
X60051505Y-134871401D01*
X60218599Y-135038495D01*
X60261675Y-135068657D01*
X60412165Y-135174032D01*
X60412167Y-135174033D01*
X60412170Y-135174035D01*
X60626337Y-135273903D01*
X60854592Y-135335063D01*
X61031034Y-135350500D01*
X61089999Y-135355659D01*
X61090000Y-135355659D01*
X61090001Y-135355659D01*
X61148966Y-135350500D01*
X61325408Y-135335063D01*
X61553663Y-135273903D01*
X61767830Y-135174035D01*
X61961401Y-135038495D01*
X62128495Y-134871401D01*
X62258425Y-134685842D01*
X62313002Y-134642217D01*
X62382500Y-134635023D01*
X62444855Y-134666546D01*
X62461575Y-134685842D01*
X62591500Y-134871395D01*
X62591505Y-134871401D01*
X62758599Y-135038495D01*
X62801675Y-135068657D01*
X62952165Y-135174032D01*
X62952167Y-135174033D01*
X62952170Y-135174035D01*
X63166337Y-135273903D01*
X63394592Y-135335063D01*
X63571034Y-135350500D01*
X63629999Y-135355659D01*
X63630000Y-135355659D01*
X63630001Y-135355659D01*
X63688966Y-135350500D01*
X63865408Y-135335063D01*
X64093663Y-135273903D01*
X64307830Y-135174035D01*
X64501401Y-135038495D01*
X64668495Y-134871401D01*
X64798425Y-134685842D01*
X64853002Y-134642217D01*
X64922500Y-134635023D01*
X64984855Y-134666546D01*
X65001575Y-134685842D01*
X65131500Y-134871395D01*
X65131505Y-134871401D01*
X65298599Y-135038495D01*
X65341675Y-135068657D01*
X65492165Y-135174032D01*
X65492167Y-135174033D01*
X65492170Y-135174035D01*
X65706337Y-135273903D01*
X65934592Y-135335063D01*
X66111034Y-135350500D01*
X66169999Y-135355659D01*
X66170000Y-135355659D01*
X66170001Y-135355659D01*
X66228966Y-135350500D01*
X66405408Y-135335063D01*
X66633663Y-135273903D01*
X66847830Y-135174035D01*
X67041401Y-135038495D01*
X67208495Y-134871401D01*
X67338425Y-134685842D01*
X67393002Y-134642217D01*
X67462500Y-134635023D01*
X67524855Y-134666546D01*
X67541575Y-134685842D01*
X67671500Y-134871395D01*
X67671505Y-134871401D01*
X67838599Y-135038495D01*
X67881675Y-135068657D01*
X68032165Y-135174032D01*
X68032167Y-135174033D01*
X68032170Y-135174035D01*
X68246337Y-135273903D01*
X68474592Y-135335063D01*
X68651034Y-135350500D01*
X68709999Y-135355659D01*
X68710000Y-135355659D01*
X68710001Y-135355659D01*
X68768966Y-135350500D01*
X68945408Y-135335063D01*
X69173663Y-135273903D01*
X69387830Y-135174035D01*
X69581401Y-135038495D01*
X69748495Y-134871401D01*
X69884035Y-134677830D01*
X69923064Y-134594130D01*
X69969233Y-134541695D01*
X70036427Y-134522543D01*
X70103308Y-134542758D01*
X70147825Y-134594133D01*
X70163330Y-134627382D01*
X70163332Y-134627386D01*
X70288787Y-134806554D01*
X70443445Y-134961212D01*
X70622612Y-135086667D01*
X70820835Y-135179100D01*
X70820837Y-135179101D01*
X70850000Y-135186914D01*
X70850000Y-134307106D01*
X70942993Y-134400099D01*
X71057007Y-134465925D01*
X71184174Y-134500000D01*
X71315826Y-134500000D01*
X71442993Y-134465925D01*
X71557007Y-134400099D01*
X71650000Y-134307106D01*
X71650000Y-135186914D01*
X71679162Y-135179101D01*
X71679164Y-135179100D01*
X71877387Y-135086667D01*
X72056554Y-134961212D01*
X72211212Y-134806554D01*
X72336665Y-134627389D01*
X72352172Y-134594135D01*
X72398345Y-134541695D01*
X72465538Y-134522543D01*
X72532419Y-134542758D01*
X72576937Y-134594134D01*
X72615965Y-134677830D01*
X72615967Y-134677834D01*
X72714108Y-134817993D01*
X72751505Y-134871401D01*
X72918599Y-135038495D01*
X72961675Y-135068657D01*
X73112165Y-135174032D01*
X73112167Y-135174033D01*
X73112170Y-135174035D01*
X73326337Y-135273903D01*
X73554592Y-135335063D01*
X73731034Y-135350500D01*
X73789999Y-135355659D01*
X73790000Y-135355659D01*
X73790001Y-135355659D01*
X73848966Y-135350500D01*
X74025408Y-135335063D01*
X74253663Y-135273903D01*
X74467830Y-135174035D01*
X74661401Y-135038495D01*
X74828495Y-134871401D01*
X74958425Y-134685842D01*
X75013002Y-134642217D01*
X75082500Y-134635023D01*
X75144855Y-134666546D01*
X75161575Y-134685842D01*
X75291500Y-134871395D01*
X75291505Y-134871401D01*
X75458599Y-135038495D01*
X75501675Y-135068657D01*
X75652165Y-135174032D01*
X75652167Y-135174033D01*
X75652170Y-135174035D01*
X75866337Y-135273903D01*
X76094592Y-135335063D01*
X76271034Y-135350500D01*
X76329999Y-135355659D01*
X76330000Y-135355659D01*
X76330001Y-135355659D01*
X76388966Y-135350500D01*
X76565408Y-135335063D01*
X76793663Y-135273903D01*
X77007830Y-135174035D01*
X77201401Y-135038495D01*
X77368495Y-134871401D01*
X77368504Y-134871388D01*
X77369636Y-134870040D01*
X77370293Y-134869602D01*
X77372323Y-134867573D01*
X77372730Y-134867980D01*
X77427805Y-134831334D01*
X77497666Y-134830220D01*
X77557038Y-134867053D01*
X77582335Y-134910733D01*
X77585186Y-134919334D01*
X77677288Y-135068656D01*
X77801344Y-135192712D01*
X77950666Y-135284814D01*
X78117203Y-135339999D01*
X78219991Y-135350500D01*
X79520008Y-135350499D01*
X79622797Y-135339999D01*
X79789334Y-135284814D01*
X79938656Y-135192712D01*
X80062712Y-135068656D01*
X80154814Y-134919334D01*
X80209999Y-134752797D01*
X80220500Y-134650009D01*
X80220499Y-133349992D01*
X80209999Y-133247203D01*
X80154814Y-133080666D01*
X80062712Y-132931344D01*
X79938656Y-132807288D01*
X79845888Y-132750069D01*
X79789336Y-132715187D01*
X79789331Y-132715185D01*
X79789215Y-132715146D01*
X79780733Y-132712336D01*
X79723290Y-132672564D01*
X79696467Y-132608048D01*
X79708782Y-132539272D01*
X79737767Y-132502517D01*
X79737573Y-132502323D01*
X79739219Y-132500676D01*
X79740040Y-132499636D01*
X79741388Y-132498504D01*
X79741401Y-132498495D01*
X79908495Y-132331401D01*
X80044035Y-132137830D01*
X80143903Y-131923663D01*
X80205063Y-131695408D01*
X80225659Y-131460000D01*
X80205063Y-131224592D01*
X80143903Y-130996337D01*
X80044035Y-130782171D01*
X80038425Y-130774158D01*
X79908494Y-130588597D01*
X79741402Y-130421506D01*
X79741395Y-130421501D01*
X79547834Y-130285967D01*
X79547830Y-130285965D01*
X79547828Y-130285964D01*
X79333663Y-130186097D01*
X79333659Y-130186096D01*
X79333655Y-130186094D01*
X79105413Y-130124938D01*
X79105403Y-130124936D01*
X78870001Y-130104341D01*
X78869999Y-130104341D01*
X78634596Y-130124936D01*
X78634586Y-130124938D01*
X78406344Y-130186094D01*
X78406335Y-130186098D01*
X78192171Y-130285964D01*
X78192169Y-130285965D01*
X77998597Y-130421505D01*
X77831505Y-130588597D01*
X77701575Y-130774158D01*
X77646998Y-130817783D01*
X77577500Y-130824977D01*
X77515145Y-130793454D01*
X77498425Y-130774158D01*
X77368494Y-130588597D01*
X77201402Y-130421506D01*
X77201395Y-130421501D01*
X77007834Y-130285967D01*
X77007830Y-130285965D01*
X77007828Y-130285964D01*
X76793663Y-130186097D01*
X76793659Y-130186096D01*
X76793655Y-130186094D01*
X76565413Y-130124938D01*
X76565403Y-130124936D01*
X76330001Y-130104341D01*
X76329999Y-130104341D01*
X76094596Y-130124936D01*
X76094586Y-130124938D01*
X75866344Y-130186094D01*
X75866335Y-130186098D01*
X75652171Y-130285964D01*
X75652169Y-130285965D01*
X75458597Y-130421505D01*
X75291505Y-130588597D01*
X75161575Y-130774158D01*
X75106998Y-130817783D01*
X75037500Y-130824977D01*
X74975145Y-130793454D01*
X74958425Y-130774158D01*
X74828494Y-130588597D01*
X74661402Y-130421506D01*
X74661395Y-130421501D01*
X74467834Y-130285967D01*
X74467830Y-130285965D01*
X74467828Y-130285964D01*
X74253663Y-130186097D01*
X74253659Y-130186096D01*
X74253655Y-130186094D01*
X74025413Y-130124938D01*
X74025403Y-130124936D01*
X73790001Y-130104341D01*
X73789999Y-130104341D01*
X73554596Y-130124936D01*
X73554586Y-130124938D01*
X73326344Y-130186094D01*
X73326335Y-130186098D01*
X73112171Y-130285964D01*
X73112169Y-130285965D01*
X72918597Y-130421505D01*
X72751505Y-130588597D01*
X72615966Y-130782168D01*
X72576936Y-130865867D01*
X72530763Y-130918306D01*
X72463569Y-130937457D01*
X72396688Y-130917241D01*
X72352171Y-130865864D01*
X72336665Y-130832611D01*
X72336664Y-130832608D01*
X72211216Y-130653450D01*
X72211211Y-130653444D01*
X72056554Y-130498787D01*
X71877387Y-130373333D01*
X71679157Y-130280896D01*
X71650000Y-130273083D01*
X71650000Y-131152894D01*
X71557007Y-131059901D01*
X71442993Y-130994075D01*
X71315826Y-130960000D01*
X71184174Y-130960000D01*
X71057007Y-130994075D01*
X70942993Y-131059901D01*
X70850000Y-131152894D01*
X70850000Y-130273084D01*
X70849999Y-130273083D01*
X70820842Y-130280896D01*
X70622612Y-130373333D01*
X70622608Y-130373335D01*
X70443450Y-130498783D01*
X70443444Y-130498788D01*
X70288788Y-130653444D01*
X70288783Y-130653450D01*
X70163335Y-130832608D01*
X70163333Y-130832612D01*
X70147827Y-130865866D01*
X70101654Y-130918305D01*
X70034461Y-130937457D01*
X69967580Y-130917241D01*
X69923063Y-130865866D01*
X69884035Y-130782171D01*
X69884034Y-130782169D01*
X69748494Y-130588597D01*
X69646819Y-130486922D01*
X69613334Y-130425599D01*
X69610500Y-130399241D01*
X69610500Y-128764361D01*
X69630185Y-128697322D01*
X69646819Y-128676680D01*
X71081680Y-127241819D01*
X71143003Y-127208334D01*
X71169361Y-127205500D01*
X77057138Y-127205500D01*
X77124177Y-127225185D01*
X77151427Y-127248967D01*
X77314776Y-127440224D01*
X77463066Y-127566875D01*
X77506343Y-127603838D01*
X77506346Y-127603839D01*
X77721140Y-127735466D01*
X77935973Y-127824452D01*
X77953889Y-127831873D01*
X78198852Y-127890683D01*
X78450000Y-127910449D01*
X78701148Y-127890683D01*
X78946111Y-127831873D01*
X79178859Y-127735466D01*
X79393659Y-127603836D01*
X79585224Y-127440224D01*
X79748836Y-127248659D01*
X79880466Y-127033859D01*
X79976873Y-126801111D01*
X80035683Y-126556148D01*
X80055449Y-126305000D01*
X80035683Y-126053852D01*
X79976873Y-125808889D01*
X79953656Y-125752838D01*
X79880466Y-125576140D01*
X79748839Y-125361346D01*
X79748838Y-125361343D01*
X79678338Y-125278799D01*
X79585224Y-125169776D01*
X79458571Y-125061604D01*
X79393656Y-125006161D01*
X79393653Y-125006160D01*
X79178859Y-124874533D01*
X78946110Y-124778126D01*
X78701151Y-124719317D01*
X78450000Y-124699551D01*
X78198848Y-124719317D01*
X77953889Y-124778126D01*
X77721140Y-124874533D01*
X77506346Y-125006160D01*
X77506343Y-125006161D01*
X77314776Y-125169776D01*
X77222482Y-125277839D01*
X77151428Y-125361032D01*
X77092921Y-125399225D01*
X77057138Y-125404500D01*
X70656304Y-125404500D01*
X70482341Y-125439103D01*
X70482333Y-125439105D01*
X70382399Y-125480500D01*
X70382398Y-125480500D01*
X70318457Y-125506984D01*
X70318455Y-125506985D01*
X70194023Y-125590129D01*
X70170965Y-125605535D01*
X70170959Y-125605540D01*
X68010540Y-127765958D01*
X68010537Y-127765961D01*
X67975103Y-127818994D01*
X67911985Y-127913455D01*
X67878046Y-127995393D01*
X67844106Y-128077329D01*
X67844103Y-128077341D01*
X67817728Y-128209935D01*
X67817729Y-128209936D01*
X67809500Y-128251309D01*
X67809500Y-130399241D01*
X67789815Y-130466280D01*
X67773181Y-130486922D01*
X67671505Y-130588597D01*
X67541575Y-130774158D01*
X67486998Y-130817783D01*
X67417500Y-130824977D01*
X67355145Y-130793454D01*
X67338425Y-130774158D01*
X67208494Y-130588597D01*
X67041402Y-130421506D01*
X67041395Y-130421501D01*
X66847834Y-130285967D01*
X66847830Y-130285965D01*
X66847828Y-130285964D01*
X66633663Y-130186097D01*
X66633659Y-130186096D01*
X66633655Y-130186094D01*
X66405413Y-130124938D01*
X66405403Y-130124936D01*
X66170001Y-130104341D01*
X66169999Y-130104341D01*
X65934596Y-130124936D01*
X65934586Y-130124938D01*
X65706344Y-130186094D01*
X65706335Y-130186098D01*
X65492171Y-130285964D01*
X65492169Y-130285965D01*
X65298597Y-130421505D01*
X65131505Y-130588597D01*
X65001575Y-130774158D01*
X64946998Y-130817783D01*
X64877500Y-130824977D01*
X64815145Y-130793454D01*
X64798425Y-130774158D01*
X64668494Y-130588597D01*
X64501402Y-130421506D01*
X64501395Y-130421501D01*
X64307834Y-130285967D01*
X64307830Y-130285965D01*
X64307828Y-130285964D01*
X64093663Y-130186097D01*
X64093659Y-130186096D01*
X64093655Y-130186094D01*
X63865413Y-130124938D01*
X63865403Y-130124936D01*
X63630001Y-130104341D01*
X63629999Y-130104341D01*
X63394596Y-130124936D01*
X63394586Y-130124938D01*
X63166344Y-130186094D01*
X63166335Y-130186098D01*
X62952171Y-130285964D01*
X62952169Y-130285965D01*
X62758597Y-130421505D01*
X62591505Y-130588597D01*
X62461575Y-130774158D01*
X62406998Y-130817783D01*
X62337500Y-130824977D01*
X62275145Y-130793454D01*
X62258425Y-130774158D01*
X62128494Y-130588597D01*
X61961402Y-130421506D01*
X61961395Y-130421501D01*
X61767834Y-130285967D01*
X61767830Y-130285965D01*
X61767828Y-130285964D01*
X61553663Y-130186097D01*
X61553659Y-130186096D01*
X61553655Y-130186094D01*
X61325413Y-130124938D01*
X61325403Y-130124936D01*
X61090001Y-130104341D01*
X61089999Y-130104341D01*
X60854596Y-130124936D01*
X60854586Y-130124938D01*
X60626344Y-130186094D01*
X60626335Y-130186098D01*
X60412171Y-130285964D01*
X60412169Y-130285965D01*
X60218597Y-130421505D01*
X60051505Y-130588597D01*
X59915965Y-130782169D01*
X59915964Y-130782171D01*
X59816098Y-130996335D01*
X59816094Y-130996344D01*
X59754938Y-131224586D01*
X59754936Y-131224596D01*
X59734341Y-131459999D01*
X56282343Y-131459999D01*
X56298013Y-131436547D01*
X56329115Y-131361459D01*
X56365895Y-131272666D01*
X56400500Y-131098691D01*
X56400500Y-130921308D01*
X56400500Y-125819446D01*
X56420185Y-125752407D01*
X56451614Y-125719128D01*
X56494066Y-125688286D01*
X56655786Y-125526566D01*
X56655793Y-125526555D01*
X56658009Y-125523963D01*
X56659103Y-125523248D01*
X56659231Y-125523121D01*
X56659257Y-125523147D01*
X56716518Y-125485773D01*
X56752295Y-125480500D01*
X58198693Y-125480500D01*
X58198694Y-125480499D01*
X58372666Y-125445895D01*
X58472601Y-125404500D01*
X58536547Y-125378013D01*
X58624959Y-125318936D01*
X58684036Y-125279464D01*
X59562192Y-124401308D01*
X60296326Y-123667171D01*
X60296331Y-123667168D01*
X60306534Y-123656964D01*
X60306536Y-123656964D01*
X63826681Y-120136819D01*
X63888004Y-120103334D01*
X63914362Y-120100500D01*
X71055538Y-120100500D01*
X71122577Y-120120185D01*
X71168332Y-120172989D01*
X71178276Y-120242147D01*
X71149251Y-120305703D01*
X71117538Y-120331887D01*
X71046196Y-120373075D01*
X70838148Y-120532718D01*
X70652718Y-120718148D01*
X70493075Y-120926196D01*
X70361958Y-121153299D01*
X70361953Y-121153309D01*
X70261605Y-121395571D01*
X70261602Y-121395581D01*
X70226260Y-121527482D01*
X70193730Y-121648885D01*
X70159500Y-121908872D01*
X70159500Y-122171127D01*
X70178766Y-122317455D01*
X70193730Y-122431116D01*
X70261602Y-122684418D01*
X70261605Y-122684428D01*
X70361953Y-122926690D01*
X70361958Y-122926700D01*
X70493075Y-123153803D01*
X70652718Y-123361851D01*
X70652726Y-123361860D01*
X70838140Y-123547274D01*
X70838148Y-123547281D01*
X70838149Y-123547282D01*
X70861984Y-123565571D01*
X71046196Y-123706924D01*
X71273299Y-123838041D01*
X71273309Y-123838046D01*
X71508686Y-123935542D01*
X71515581Y-123938398D01*
X71768884Y-124006270D01*
X72028880Y-124040500D01*
X72028887Y-124040500D01*
X72291113Y-124040500D01*
X72291120Y-124040500D01*
X72551116Y-124006270D01*
X72804419Y-123938398D01*
X73046697Y-123838043D01*
X73273803Y-123706924D01*
X73481851Y-123547282D01*
X73481855Y-123547277D01*
X73481860Y-123547274D01*
X73667274Y-123361860D01*
X73667277Y-123361855D01*
X73667282Y-123361851D01*
X73826924Y-123153803D01*
X73958043Y-122926697D01*
X73960364Y-122921095D01*
X74058394Y-122684428D01*
X74058398Y-122684419D01*
X74126270Y-122431116D01*
X74160500Y-122171120D01*
X74160500Y-121908880D01*
X74126270Y-121648884D01*
X74058398Y-121395581D01*
X73985837Y-121220403D01*
X73958046Y-121153309D01*
X73958041Y-121153299D01*
X73826924Y-120926196D01*
X73667281Y-120718148D01*
X73667274Y-120718140D01*
X73481860Y-120532726D01*
X73481851Y-120532718D01*
X73273803Y-120373075D01*
X73202462Y-120331887D01*
X73154246Y-120281320D01*
X73141023Y-120212713D01*
X73166991Y-120147848D01*
X73223905Y-120107320D01*
X73264462Y-120100500D01*
X80884952Y-120100500D01*
X80951991Y-120120185D01*
X80972628Y-120136814D01*
X81008803Y-120172989D01*
X81035862Y-120200048D01*
X81123349Y-120261306D01*
X81222266Y-120330568D01*
X81428504Y-120426739D01*
X81648308Y-120485635D01*
X81810230Y-120499801D01*
X81874998Y-120505468D01*
X81875000Y-120505468D01*
X81875002Y-120505468D01*
X81933236Y-120500373D01*
X82101692Y-120485635D01*
X82321496Y-120426739D01*
X82423095Y-120379361D01*
X82492172Y-120368870D01*
X82555956Y-120397390D01*
X82594196Y-120455866D01*
X82599500Y-120491744D01*
X82599500Y-123014564D01*
X82579815Y-123081603D01*
X82527011Y-123127358D01*
X82457853Y-123137302D01*
X82417805Y-123122748D01*
X82417304Y-123123755D01*
X82412175Y-123121200D01*
X82204804Y-123040865D01*
X81986193Y-123000000D01*
X81763807Y-123000000D01*
X81545195Y-123040865D01*
X81337824Y-123121200D01*
X81337818Y-123121204D01*
X81221672Y-123193117D01*
X81221671Y-123193118D01*
X81828553Y-123800000D01*
X81822339Y-123800000D01*
X81720606Y-123827259D01*
X81629394Y-123879920D01*
X81554920Y-123954394D01*
X81502259Y-124045606D01*
X81475000Y-124147339D01*
X81475000Y-124153553D01*
X80866138Y-123544691D01*
X80866137Y-123544691D01*
X80850369Y-123565571D01*
X80751240Y-123764649D01*
X80690378Y-123978560D01*
X80669859Y-124199999D01*
X80669859Y-124200000D01*
X80690378Y-124421439D01*
X80751240Y-124635350D01*
X80850364Y-124834419D01*
X80850366Y-124834421D01*
X80866138Y-124855306D01*
X81475000Y-124246445D01*
X81475000Y-124252661D01*
X81502259Y-124354394D01*
X81554920Y-124445606D01*
X81629394Y-124520080D01*
X81720606Y-124572741D01*
X81822339Y-124600000D01*
X81828552Y-124600000D01*
X81221671Y-125206880D01*
X81337823Y-125278798D01*
X81337824Y-125278799D01*
X81545195Y-125359134D01*
X81763807Y-125400000D01*
X81986193Y-125400000D01*
X82204804Y-125359134D01*
X82412177Y-125278798D01*
X82417309Y-125276243D01*
X82418104Y-125277839D01*
X82477575Y-125261453D01*
X82544276Y-125282257D01*
X82589141Y-125335820D01*
X82599500Y-125385436D01*
X82599500Y-128616611D01*
X82623535Y-128737444D01*
X82623540Y-128737461D01*
X82670685Y-128851280D01*
X82670690Y-128851289D01*
X82704914Y-128902507D01*
X82704915Y-128902509D01*
X82739141Y-128953733D01*
X82830586Y-129045178D01*
X82830608Y-129045198D01*
X86159762Y-132374352D01*
X86193247Y-132435675D01*
X86191856Y-132494126D01*
X86164938Y-132594586D01*
X86164936Y-132594596D01*
X86144341Y-132829999D01*
X86144341Y-132830000D01*
X86164936Y-133065403D01*
X86164938Y-133065413D01*
X86226094Y-133293655D01*
X86226096Y-133293659D01*
X86226097Y-133293663D01*
X86297767Y-133447360D01*
X86325965Y-133507830D01*
X86325967Y-133507834D01*
X86390434Y-133599901D01*
X86461505Y-133701401D01*
X86628599Y-133868495D01*
X86722398Y-133934174D01*
X86822165Y-134004032D01*
X86822167Y-134004033D01*
X86822170Y-134004035D01*
X87036337Y-134103903D01*
X87264592Y-134165063D01*
X87452918Y-134181539D01*
X87499999Y-134185659D01*
X87500000Y-134185659D01*
X87500001Y-134185659D01*
X87539234Y-134182226D01*
X87735408Y-134165063D01*
X87963663Y-134103903D01*
X88177830Y-134004035D01*
X88371401Y-133868495D01*
X88538495Y-133701401D01*
X88674035Y-133507830D01*
X88773903Y-133293663D01*
X88835063Y-133065408D01*
X88855659Y-132830000D01*
X88852847Y-132797865D01*
X88845614Y-132715184D01*
X88835063Y-132594592D01*
X88773903Y-132366337D01*
X88674035Y-132152171D01*
X88669604Y-132145842D01*
X88538494Y-131958597D01*
X88371402Y-131791506D01*
X88371396Y-131791501D01*
X88185842Y-131661575D01*
X88142217Y-131606998D01*
X88135023Y-131537500D01*
X88166546Y-131475145D01*
X88185842Y-131458425D01*
X88259043Y-131407169D01*
X88371401Y-131328495D01*
X88538495Y-131161401D01*
X88674035Y-130967830D01*
X88773903Y-130753663D01*
X88835063Y-130525408D01*
X88855659Y-130290000D01*
X88854862Y-130280896D01*
X88849782Y-130222830D01*
X88835063Y-130054592D01*
X88773903Y-129826337D01*
X88674035Y-129612171D01*
X88538495Y-129418599D01*
X88416567Y-129296671D01*
X88383084Y-129235351D01*
X88388068Y-129165659D01*
X88429939Y-129109725D01*
X88460915Y-129092810D01*
X88592331Y-129043796D01*
X88707546Y-128957546D01*
X88793796Y-128842331D01*
X88844091Y-128707483D01*
X88850500Y-128647873D01*
X88850499Y-126852128D01*
X88844091Y-126792517D01*
X88793796Y-126657669D01*
X88793795Y-126657668D01*
X88793793Y-126657664D01*
X88707547Y-126542455D01*
X88707544Y-126542452D01*
X88592335Y-126456206D01*
X88592328Y-126456202D01*
X88457482Y-126405908D01*
X88457483Y-126405908D01*
X88397883Y-126399501D01*
X88397881Y-126399500D01*
X88397873Y-126399500D01*
X88397865Y-126399500D01*
X87191519Y-126399500D01*
X87124480Y-126379815D01*
X87103838Y-126363181D01*
X84986819Y-124246162D01*
X84953334Y-124184839D01*
X84950500Y-124158481D01*
X84950500Y-81918923D01*
X84923581Y-81783596D01*
X84923580Y-81783595D01*
X84923580Y-81783591D01*
X84886331Y-81693663D01*
X84870778Y-81656114D01*
X84870771Y-81656101D01*
X84794115Y-81541378D01*
X84794114Y-81541377D01*
X84696542Y-81443805D01*
X84469343Y-81216606D01*
X83633627Y-80380888D01*
X83633626Y-80380887D01*
X83518888Y-80304222D01*
X83391413Y-80251421D01*
X83391403Y-80251418D01*
X83256077Y-80224500D01*
X83256075Y-80224500D01*
X83256074Y-80224500D01*
X83207711Y-80224500D01*
X83140672Y-80204815D01*
X83106136Y-80171623D01*
X83099602Y-80162292D01*
X83023495Y-80053599D01*
X83023494Y-80053597D01*
X82856402Y-79886506D01*
X82856396Y-79886501D01*
X82670842Y-79756575D01*
X82627217Y-79701998D01*
X82620023Y-79632500D01*
X82651546Y-79570145D01*
X82670842Y-79553425D01*
X82838059Y-79436338D01*
X82856401Y-79423495D01*
X83023495Y-79256401D01*
X83159035Y-79062830D01*
X83258903Y-78848663D01*
X83320063Y-78620408D01*
X83340659Y-78385000D01*
X83320063Y-78149592D01*
X83258903Y-77921337D01*
X83159035Y-77707171D01*
X83154509Y-77700706D01*
X83023494Y-77513597D01*
X82856402Y-77346506D01*
X82856395Y-77346501D01*
X82824310Y-77324035D01*
X82769467Y-77285633D01*
X82662834Y-77210967D01*
X82662830Y-77210965D01*
X82662828Y-77210964D01*
X82448663Y-77111097D01*
X82448659Y-77111096D01*
X82448655Y-77111094D01*
X82220413Y-77049938D01*
X82220403Y-77049936D01*
X81985001Y-77029341D01*
X81984999Y-77029341D01*
X81749596Y-77049936D01*
X81749586Y-77049938D01*
X81521344Y-77111094D01*
X81521337Y-77111096D01*
X81521337Y-77111097D01*
X81519589Y-77111912D01*
X81307171Y-77210964D01*
X81307169Y-77210965D01*
X81113597Y-77346505D01*
X80946505Y-77513597D01*
X80851075Y-77649887D01*
X80796498Y-77693512D01*
X80727000Y-77700706D01*
X80664645Y-77669183D01*
X80629231Y-77608953D01*
X80625500Y-77578764D01*
X80625500Y-77044854D01*
X80644507Y-76978881D01*
X80653427Y-76964686D01*
X80713133Y-76869664D01*
X80725788Y-76849524D01*
X80751032Y-76777382D01*
X80785368Y-76679255D01*
X80785369Y-76679249D01*
X80805565Y-76500003D01*
X80805565Y-76499996D01*
X80785369Y-76320750D01*
X80785368Y-76320745D01*
X80725788Y-76150476D01*
X80672512Y-76065689D01*
X80629816Y-75997738D01*
X80502262Y-75870184D01*
X80374991Y-75790214D01*
X80349523Y-75774211D01*
X80179254Y-75714631D01*
X80179249Y-75714630D01*
X80000004Y-75694435D01*
X79999996Y-75694435D01*
X79820750Y-75714630D01*
X79820745Y-75714631D01*
X79650476Y-75774211D01*
X79497737Y-75870184D01*
X79370184Y-75997737D01*
X79274211Y-76150476D01*
X79214631Y-76320745D01*
X79214630Y-76320750D01*
X79194435Y-76499996D01*
X79194435Y-76500003D01*
X79214630Y-76679249D01*
X79214631Y-76679254D01*
X79274211Y-76849524D01*
X79301061Y-76892254D01*
X79346573Y-76964686D01*
X79355493Y-76978881D01*
X79374500Y-77044854D01*
X79374500Y-96439547D01*
X79354815Y-96506586D01*
X79338181Y-96527228D01*
X75602229Y-100263181D01*
X75540906Y-100296666D01*
X75514548Y-100299500D01*
X73755768Y-100299500D01*
X73688729Y-100279815D01*
X73642974Y-100227011D01*
X73633030Y-100157853D01*
X73651959Y-100107679D01*
X73775483Y-99918609D01*
X73868682Y-99706135D01*
X73925638Y-99481218D01*
X73944798Y-99250000D01*
X73944798Y-99249994D01*
X73925638Y-99018781D01*
X73868682Y-98793864D01*
X73775483Y-98581390D01*
X73691186Y-98452364D01*
X73022962Y-99120589D01*
X73005925Y-99057007D01*
X72940099Y-98942993D01*
X72847007Y-98849901D01*
X72732993Y-98784075D01*
X72669409Y-98767037D01*
X73338797Y-98097647D01*
X73338797Y-98097645D01*
X73308360Y-98073955D01*
X73308354Y-98073951D01*
X73104302Y-97963523D01*
X73104293Y-97963520D01*
X72884860Y-97888188D01*
X72656007Y-97850000D01*
X72423993Y-97850000D01*
X72195139Y-97888188D01*
X71975706Y-97963520D01*
X71975697Y-97963523D01*
X71771650Y-98073949D01*
X71741200Y-98097647D01*
X72410591Y-98767037D01*
X72347007Y-98784075D01*
X72232993Y-98849901D01*
X72139901Y-98942993D01*
X72074075Y-99057007D01*
X72057037Y-99120590D01*
X71388812Y-98452365D01*
X71304516Y-98581391D01*
X71304514Y-98581395D01*
X71211317Y-98793864D01*
X71154361Y-99018781D01*
X71135202Y-99249994D01*
X71135202Y-99250000D01*
X71154361Y-99481218D01*
X71211317Y-99706135D01*
X71304516Y-99918609D01*
X71428041Y-100107679D01*
X71448229Y-100174568D01*
X71429048Y-100241754D01*
X71376589Y-100287904D01*
X71324232Y-100299500D01*
X68875816Y-100299500D01*
X68808777Y-100279815D01*
X68763022Y-100227011D01*
X68753078Y-100157853D01*
X68772007Y-100107679D01*
X68854133Y-99981974D01*
X68864173Y-99966607D01*
X68964063Y-99738881D01*
X69025108Y-99497821D01*
X69026417Y-99482032D01*
X69045643Y-99250000D01*
X69045643Y-99249994D01*
X69025109Y-99002187D01*
X69025107Y-99002175D01*
X68964063Y-98761118D01*
X68864173Y-98533393D01*
X68728166Y-98325217D01*
X68706557Y-98301744D01*
X68559744Y-98142262D01*
X68363509Y-97989526D01*
X68363508Y-97989525D01*
X68363505Y-97989523D01*
X68363503Y-97989522D01*
X68230481Y-97917533D01*
X68180891Y-97868313D01*
X68165500Y-97808479D01*
X68165500Y-88199499D01*
X68185185Y-88132460D01*
X68237989Y-88086705D01*
X68289500Y-88075499D01*
X72026942Y-88075499D01*
X72093981Y-88095184D01*
X72139736Y-88147988D01*
X72149680Y-88217146D01*
X72120655Y-88280702D01*
X72114622Y-88287180D01*
X72101269Y-88300534D01*
X72101267Y-88300536D01*
X72057704Y-88344098D01*
X72014142Y-88387660D01*
X71993550Y-88418479D01*
X71993549Y-88418478D01*
X71945686Y-88490110D01*
X71945685Y-88490112D01*
X71922951Y-88545000D01*
X71912347Y-88570601D01*
X71906823Y-88583937D01*
X71898537Y-88603939D01*
X71898535Y-88603947D01*
X71874500Y-88724783D01*
X71874500Y-94061611D01*
X71898535Y-94182444D01*
X71898540Y-94182461D01*
X71945685Y-94296281D01*
X71945687Y-94296285D01*
X71955768Y-94311371D01*
X71955769Y-94311373D01*
X72014140Y-94398731D01*
X72014141Y-94398732D01*
X72014142Y-94398733D01*
X72101267Y-94485858D01*
X72101268Y-94485858D01*
X72108335Y-94492925D01*
X72108334Y-94492925D01*
X72108338Y-94492928D01*
X74838181Y-97222771D01*
X74871666Y-97284094D01*
X74874500Y-97310452D01*
X74874500Y-97705145D01*
X74855494Y-97771117D01*
X74774211Y-97900476D01*
X74714631Y-98070745D01*
X74714630Y-98070750D01*
X74694435Y-98249996D01*
X74694435Y-98250003D01*
X74714630Y-98429249D01*
X74714631Y-98429254D01*
X74774211Y-98599523D01*
X74840487Y-98705000D01*
X74870184Y-98752262D01*
X74997738Y-98879816D01*
X75088080Y-98936582D01*
X75134755Y-98965910D01*
X75150478Y-98975789D01*
X75273342Y-99018781D01*
X75320745Y-99035368D01*
X75320750Y-99035369D01*
X75499996Y-99055565D01*
X75500000Y-99055565D01*
X75500004Y-99055565D01*
X75679249Y-99035369D01*
X75679252Y-99035368D01*
X75679255Y-99035368D01*
X75849522Y-98975789D01*
X76002262Y-98879816D01*
X76129816Y-98752262D01*
X76225789Y-98599522D01*
X76285368Y-98429255D01*
X76297090Y-98325217D01*
X76305565Y-98250003D01*
X76305565Y-98249996D01*
X76285369Y-98070750D01*
X76285368Y-98070745D01*
X76225788Y-97900476D01*
X76144506Y-97771117D01*
X76125500Y-97705145D01*
X76125500Y-97179565D01*
X76145185Y-97112526D01*
X76197989Y-97066771D01*
X76243148Y-97056946D01*
X76243081Y-97056345D01*
X76248958Y-97055682D01*
X76249500Y-97055565D01*
X76250004Y-97055565D01*
X76429249Y-97035369D01*
X76429252Y-97035368D01*
X76429255Y-97035368D01*
X76599522Y-96975789D01*
X76752262Y-96879816D01*
X76879816Y-96752262D01*
X76975789Y-96599522D01*
X77035368Y-96429255D01*
X77038194Y-96404174D01*
X77055565Y-96250003D01*
X77055565Y-96249996D01*
X77035369Y-96070750D01*
X77035368Y-96070745D01*
X76975788Y-95900476D01*
X76879815Y-95747737D01*
X76752262Y-95620184D01*
X76599521Y-95524210D01*
X76429249Y-95464630D01*
X76382173Y-95459326D01*
X76317759Y-95432259D01*
X76308377Y-95423787D01*
X75446771Y-94562181D01*
X75413286Y-94500858D01*
X75418270Y-94431166D01*
X75460142Y-94375233D01*
X75525606Y-94350816D01*
X75534452Y-94350500D01*
X75783679Y-94350500D01*
X75814370Y-94346281D01*
X76068358Y-94311371D01*
X76345058Y-94233844D01*
X76463393Y-94182444D01*
X76608617Y-94119365D01*
X76608620Y-94119363D01*
X76608625Y-94119361D01*
X76854147Y-93970055D01*
X77077053Y-93788708D01*
X77273189Y-93578698D01*
X77438901Y-93343936D01*
X77571104Y-93088797D01*
X77667334Y-92818032D01*
X77725798Y-92536686D01*
X77745408Y-92250000D01*
X77725798Y-91963314D01*
X77667334Y-91681968D01*
X77571105Y-91411206D01*
X77571106Y-91411206D01*
X77438901Y-91156064D01*
X77273187Y-90921299D01*
X77186303Y-90828270D01*
X77077053Y-90711292D01*
X76854147Y-90529945D01*
X76854146Y-90529944D01*
X76608617Y-90380634D01*
X76345063Y-90266158D01*
X76345061Y-90266157D01*
X76345058Y-90266156D01*
X76185945Y-90221575D01*
X76068364Y-90188630D01*
X76068359Y-90188629D01*
X76068358Y-90188629D01*
X75910983Y-90166998D01*
X75783679Y-90149500D01*
X75783678Y-90149500D01*
X75496322Y-90149500D01*
X75496321Y-90149500D01*
X75211642Y-90188629D01*
X75211635Y-90188630D01*
X75016481Y-90243310D01*
X74934942Y-90266156D01*
X74934939Y-90266156D01*
X74934936Y-90266158D01*
X74934935Y-90266158D01*
X74671382Y-90380634D01*
X74425853Y-90529944D01*
X74202950Y-90711289D01*
X74006812Y-90921299D01*
X73841098Y-91156064D01*
X73809598Y-91216858D01*
X73761277Y-91267325D01*
X73693343Y-91283657D01*
X73627364Y-91260668D01*
X73584287Y-91205657D01*
X73575500Y-91159810D01*
X73575500Y-89283242D01*
X73595185Y-89216203D01*
X73611819Y-89195561D01*
X75910855Y-86896526D01*
X75910855Y-86896525D01*
X75910858Y-86896523D01*
X75979312Y-86794075D01*
X76026463Y-86680241D01*
X76050501Y-86559396D01*
X76050501Y-86436183D01*
X76050501Y-86431073D01*
X76050500Y-86431047D01*
X76050500Y-81913736D01*
X76070185Y-81846697D01*
X76122989Y-81800942D01*
X76192147Y-81790998D01*
X76214763Y-81796455D01*
X76405139Y-81861811D01*
X76633993Y-81900000D01*
X76866007Y-81900000D01*
X77094860Y-81861811D01*
X77314293Y-81786479D01*
X77314301Y-81786476D01*
X77518355Y-81676047D01*
X77548797Y-81652351D01*
X77548798Y-81652351D01*
X76920234Y-81023787D01*
X76962292Y-81012518D01*
X77087708Y-80940110D01*
X77190110Y-80837708D01*
X77262518Y-80712292D01*
X77273787Y-80670234D01*
X77901186Y-81297634D01*
X77985484Y-81168606D01*
X78078682Y-80956135D01*
X78135638Y-80731218D01*
X78154798Y-80500005D01*
X78154798Y-80499994D01*
X78135638Y-80268781D01*
X78078682Y-80043864D01*
X77985483Y-79831390D01*
X77901186Y-79702364D01*
X77273787Y-80329764D01*
X77262518Y-80287708D01*
X77190110Y-80162292D01*
X77087708Y-80059890D01*
X76962292Y-79987482D01*
X76920232Y-79976211D01*
X77548797Y-79347647D01*
X77548797Y-79347645D01*
X77518360Y-79323955D01*
X77518354Y-79323951D01*
X77314302Y-79213523D01*
X77314293Y-79213520D01*
X77094860Y-79138188D01*
X76866007Y-79100000D01*
X76633993Y-79100000D01*
X76405138Y-79138188D01*
X76405136Y-79138188D01*
X76214762Y-79203544D01*
X76144964Y-79206694D01*
X76084543Y-79171607D01*
X76052682Y-79109425D01*
X76050500Y-79086263D01*
X76050500Y-75413736D01*
X76070185Y-75346697D01*
X76122989Y-75300942D01*
X76192147Y-75290998D01*
X76214763Y-75296455D01*
X76405139Y-75361811D01*
X76633993Y-75400000D01*
X76866007Y-75400000D01*
X77094860Y-75361811D01*
X77314293Y-75286479D01*
X77314301Y-75286476D01*
X77518355Y-75176047D01*
X77548797Y-75152351D01*
X77548798Y-75152351D01*
X76920234Y-74523787D01*
X76962292Y-74512518D01*
X77087708Y-74440110D01*
X77190110Y-74337708D01*
X77262518Y-74212292D01*
X77273787Y-74170234D01*
X77901186Y-74797634D01*
X77985484Y-74668606D01*
X78078682Y-74456135D01*
X78135638Y-74231218D01*
X78154798Y-74000005D01*
X78154798Y-73999994D01*
X78135638Y-73768781D01*
X78078682Y-73543864D01*
X77985483Y-73331390D01*
X77901186Y-73202364D01*
X77273787Y-73829764D01*
X77262518Y-73787708D01*
X77190110Y-73662292D01*
X77087708Y-73559890D01*
X76962292Y-73487482D01*
X76920232Y-73476211D01*
X77548797Y-72847647D01*
X77548797Y-72847645D01*
X77518360Y-72823955D01*
X77518354Y-72823951D01*
X77314302Y-72713523D01*
X77314293Y-72713520D01*
X77094860Y-72638188D01*
X76866007Y-72600000D01*
X76633993Y-72600000D01*
X76405138Y-72638188D01*
X76405136Y-72638188D01*
X76214762Y-72703544D01*
X76144964Y-72706694D01*
X76084543Y-72671607D01*
X76052682Y-72609425D01*
X76050500Y-72586263D01*
X76050500Y-69269049D01*
X76070185Y-69202010D01*
X76122989Y-69156255D01*
X76192147Y-69146311D01*
X76255703Y-69175336D01*
X76262181Y-69181368D01*
X76360858Y-69280045D01*
X76360861Y-69280047D01*
X76547266Y-69410568D01*
X76753504Y-69506739D01*
X76973308Y-69565635D01*
X77135230Y-69579801D01*
X77199998Y-69585468D01*
X77200000Y-69585468D01*
X77200002Y-69585468D01*
X77256673Y-69580509D01*
X77426692Y-69565635D01*
X77646496Y-69506739D01*
X77852734Y-69410568D01*
X78039139Y-69280047D01*
X78200047Y-69119139D01*
X78330568Y-68932734D01*
X78426739Y-68726496D01*
X78485635Y-68506692D01*
X78505468Y-68280000D01*
X78501609Y-68235896D01*
X78515375Y-68167398D01*
X78563990Y-68117214D01*
X78632018Y-68101280D01*
X78697862Y-68124655D01*
G37*
%TD.AperFunction*%
%TA.AperFunction,Conductor*%
G36*
X80255702Y-115529647D02*
G01*
X80262180Y-115535679D01*
X80938181Y-116211680D01*
X80971666Y-116273003D01*
X80974500Y-116299361D01*
X80974500Y-118175500D01*
X80954815Y-118242539D01*
X80902011Y-118288294D01*
X80850500Y-118299500D01*
X63864498Y-118299500D01*
X63817046Y-118290061D01*
X63802670Y-118284106D01*
X63802658Y-118284103D01*
X63628696Y-118249500D01*
X63628692Y-118249500D01*
X63451308Y-118249500D01*
X63451303Y-118249500D01*
X63277341Y-118284103D01*
X63277333Y-118284105D01*
X63113451Y-118351988D01*
X62965965Y-118450534D01*
X62965958Y-118450540D01*
X59033036Y-122383464D01*
X59033034Y-122383466D01*
X58289501Y-123127000D01*
X57773319Y-123643181D01*
X57711996Y-123676666D01*
X57685638Y-123679500D01*
X56752295Y-123679500D01*
X56685256Y-123659815D01*
X56658009Y-123636037D01*
X56655783Y-123633431D01*
X56494068Y-123471716D01*
X56494067Y-123471715D01*
X56494066Y-123471714D01*
X56324071Y-123348205D01*
X56281406Y-123292875D01*
X56275427Y-123223261D01*
X56308033Y-123161466D01*
X56324071Y-123147569D01*
X56428596Y-123071626D01*
X56579126Y-122921096D01*
X56579126Y-122921095D01*
X56704261Y-122748864D01*
X56800912Y-122559177D01*
X56866696Y-122356715D01*
X56866696Y-122356712D01*
X56877263Y-122290000D01*
X55990748Y-122290000D01*
X56012518Y-122252292D01*
X56050000Y-122112409D01*
X56050000Y-121967591D01*
X56012518Y-121827708D01*
X55990748Y-121790000D01*
X56877263Y-121790000D01*
X56866696Y-121723287D01*
X56866696Y-121723284D01*
X56800912Y-121520822D01*
X56704261Y-121331135D01*
X56579126Y-121158904D01*
X56579126Y-121158903D01*
X56568628Y-121148405D01*
X56535143Y-121087082D01*
X56540127Y-121017390D01*
X56581999Y-120961457D01*
X56612974Y-120944542D01*
X56742331Y-120896296D01*
X56857546Y-120810046D01*
X56943796Y-120694831D01*
X56994091Y-120559983D01*
X56999331Y-120511241D01*
X57026068Y-120446694D01*
X57083461Y-120406846D01*
X57122620Y-120400500D01*
X59733693Y-120400500D01*
X59733694Y-120400499D01*
X59907666Y-120365895D01*
X59992951Y-120330568D01*
X60071547Y-120298013D01*
X60155438Y-120241957D01*
X60159955Y-120238939D01*
X60159955Y-120238938D01*
X60159959Y-120238936D01*
X60219036Y-120199464D01*
X63311681Y-117106819D01*
X63373004Y-117073334D01*
X63399362Y-117070500D01*
X64863693Y-117070500D01*
X64942203Y-117054882D01*
X64977394Y-117047882D01*
X65001585Y-117045500D01*
X76725501Y-117045500D01*
X76792540Y-117065185D01*
X76838295Y-117117989D01*
X76849501Y-117169500D01*
X76849501Y-117292876D01*
X76855908Y-117352483D01*
X76906202Y-117487328D01*
X76906206Y-117487335D01*
X76992452Y-117602544D01*
X76992455Y-117602547D01*
X77107664Y-117688793D01*
X77107671Y-117688797D01*
X77242517Y-117739091D01*
X77242516Y-117739091D01*
X77249444Y-117739835D01*
X77302127Y-117745500D01*
X79597872Y-117745499D01*
X79657483Y-117739091D01*
X79792331Y-117688796D01*
X79907546Y-117602546D01*
X79993796Y-117487331D01*
X80044091Y-117352483D01*
X80050500Y-117292873D01*
X80050499Y-115623359D01*
X80070184Y-115556321D01*
X80122987Y-115510566D01*
X80192146Y-115500622D01*
X80255702Y-115529647D01*
G37*
%TD.AperFunction*%
%TA.AperFunction,Conductor*%
G36*
X55750000Y-123003000D02*
G01*
X55730315Y-123070039D01*
X55677511Y-123115794D01*
X55626000Y-123127000D01*
X55374000Y-123127000D01*
X55306961Y-123107315D01*
X55261206Y-123054511D01*
X55250000Y-123003000D01*
X55250000Y-122530747D01*
X55287708Y-122552518D01*
X55427591Y-122590000D01*
X55572409Y-122590000D01*
X55712292Y-122552518D01*
X55750000Y-122530747D01*
X55750000Y-123003000D01*
G37*
%TD.AperFunction*%
%TA.AperFunction,Conductor*%
G36*
X54987482Y-121827708D02*
G01*
X54950000Y-121967591D01*
X54950000Y-122112409D01*
X54987482Y-122252292D01*
X55009252Y-122290000D01*
X54374500Y-122290000D01*
X54307461Y-122270315D01*
X54261706Y-122217511D01*
X54250500Y-122166000D01*
X54250500Y-121914000D01*
X54270185Y-121846961D01*
X54322989Y-121801206D01*
X54374500Y-121790000D01*
X55009252Y-121790000D01*
X54987482Y-121827708D01*
G37*
%TD.AperFunction*%
%TA.AperFunction,Conductor*%
G36*
X71535238Y-109670185D02*
G01*
X71580993Y-109722989D01*
X71581826Y-109728273D01*
X72203554Y-110350000D01*
X72197339Y-110350000D01*
X72095606Y-110377259D01*
X72004394Y-110429920D01*
X71929920Y-110504394D01*
X71877259Y-110595606D01*
X71850000Y-110697339D01*
X71850000Y-110703553D01*
X71241138Y-110094691D01*
X71241137Y-110094691D01*
X71225369Y-110115571D01*
X71126240Y-110314649D01*
X71065378Y-110528560D01*
X71044859Y-110749999D01*
X71044859Y-110750000D01*
X71065378Y-110971439D01*
X71126240Y-111185350D01*
X71225364Y-111384419D01*
X71225366Y-111384421D01*
X71241138Y-111405306D01*
X71850000Y-110796445D01*
X71850000Y-110802661D01*
X71877259Y-110904394D01*
X71929920Y-110995606D01*
X72004394Y-111070080D01*
X72095606Y-111122741D01*
X72197339Y-111150000D01*
X72203554Y-111150000D01*
X71596671Y-111756880D01*
X71712823Y-111828798D01*
X71712824Y-111828799D01*
X71920195Y-111909134D01*
X72138807Y-111950000D01*
X72361193Y-111950000D01*
X72579804Y-111909134D01*
X72787177Y-111828798D01*
X72787178Y-111828797D01*
X72903327Y-111756880D01*
X72296447Y-111150000D01*
X72302661Y-111150000D01*
X72404394Y-111122741D01*
X72495606Y-111070080D01*
X72570080Y-110995606D01*
X72622741Y-110904394D01*
X72650000Y-110802661D01*
X72650000Y-110796446D01*
X73258860Y-111405306D01*
X73315196Y-111401398D01*
X73315394Y-111404255D01*
X73352341Y-111401761D01*
X73413530Y-111435490D01*
X73446770Y-111496946D01*
X73449500Y-111522819D01*
X73449500Y-111597869D01*
X73449501Y-111597876D01*
X73455908Y-111657483D01*
X73506202Y-111792328D01*
X73506206Y-111792335D01*
X73592452Y-111907544D01*
X73592455Y-111907547D01*
X73707664Y-111993793D01*
X73707671Y-111993797D01*
X73842517Y-112044091D01*
X73842516Y-112044091D01*
X73849444Y-112044835D01*
X73902127Y-112050500D01*
X75597872Y-112050499D01*
X75657483Y-112044091D01*
X75792331Y-111993796D01*
X75907546Y-111907546D01*
X75993796Y-111792331D01*
X76016609Y-111731167D01*
X76058480Y-111675233D01*
X76123944Y-111650816D01*
X76132791Y-111650500D01*
X76325638Y-111650500D01*
X76392677Y-111670185D01*
X76413319Y-111686819D01*
X79059319Y-114332819D01*
X79092804Y-114394142D01*
X79087820Y-114463834D01*
X79045948Y-114519767D01*
X78980484Y-114544184D01*
X78971638Y-114544500D01*
X77302129Y-114544500D01*
X77302123Y-114544501D01*
X77242516Y-114550908D01*
X77107671Y-114601202D01*
X77107664Y-114601206D01*
X76992455Y-114687452D01*
X76992452Y-114687455D01*
X76906206Y-114802664D01*
X76906202Y-114802671D01*
X76855908Y-114937517D01*
X76849501Y-114997116D01*
X76849500Y-114997135D01*
X76849500Y-115120500D01*
X76829815Y-115187539D01*
X76777011Y-115233294D01*
X76725500Y-115244500D01*
X65774500Y-115244500D01*
X65707461Y-115224815D01*
X65661706Y-115172011D01*
X65650500Y-115120500D01*
X65650500Y-112132790D01*
X65670185Y-112065751D01*
X65722989Y-112019996D01*
X65731146Y-112016616D01*
X65792331Y-111993796D01*
X65907546Y-111907546D01*
X65993796Y-111792331D01*
X66044091Y-111657483D01*
X66050500Y-111597873D01*
X66050499Y-111522822D01*
X66070183Y-111455786D01*
X66122986Y-111410030D01*
X66192144Y-111400086D01*
X66196847Y-111402233D01*
X66241137Y-111405307D01*
X66850000Y-110796445D01*
X66850000Y-110802661D01*
X66877259Y-110904394D01*
X66929920Y-110995606D01*
X67004394Y-111070080D01*
X67095606Y-111122741D01*
X67197339Y-111150000D01*
X67203554Y-111150000D01*
X66596671Y-111756880D01*
X66712823Y-111828798D01*
X66712824Y-111828799D01*
X66920195Y-111909134D01*
X67138807Y-111950000D01*
X67361193Y-111950000D01*
X67579804Y-111909134D01*
X67787177Y-111828798D01*
X67787178Y-111828797D01*
X67903327Y-111756880D01*
X67296447Y-111150000D01*
X67302661Y-111150000D01*
X67404394Y-111122741D01*
X67495606Y-111070080D01*
X67570080Y-110995606D01*
X67622741Y-110904394D01*
X67650000Y-110802661D01*
X67650000Y-110796446D01*
X68258860Y-111405306D01*
X68258861Y-111405306D01*
X68274631Y-111384425D01*
X68274632Y-111384422D01*
X68373759Y-111185350D01*
X68434621Y-110971439D01*
X68455141Y-110750000D01*
X68455141Y-110749999D01*
X68434621Y-110528560D01*
X68373759Y-110314649D01*
X68274633Y-110115577D01*
X68274631Y-110115574D01*
X68258860Y-110094691D01*
X67650000Y-110703552D01*
X67650000Y-110697339D01*
X67622741Y-110595606D01*
X67570080Y-110504394D01*
X67495606Y-110429920D01*
X67404394Y-110377259D01*
X67302661Y-110350000D01*
X67296447Y-110350000D01*
X67919196Y-109727249D01*
X67920454Y-109719928D01*
X67967634Y-109668393D01*
X68031800Y-109650500D01*
X68911308Y-109650500D01*
X68911309Y-109650500D01*
X71468199Y-109650500D01*
X71535238Y-109670185D01*
G37*
%TD.AperFunction*%
%TA.AperFunction,Conductor*%
G36*
X80884075Y-105247993D02*
G01*
X80949901Y-105362007D01*
X81042993Y-105455099D01*
X81157007Y-105520925D01*
X81220590Y-105537962D01*
X80660427Y-106098124D01*
X80722612Y-106141666D01*
X80920840Y-106234101D01*
X80920849Y-106234105D01*
X81132105Y-106290710D01*
X81132115Y-106290712D01*
X81349999Y-106309775D01*
X81350001Y-106309775D01*
X81567884Y-106290712D01*
X81567894Y-106290710D01*
X81779150Y-106234105D01*
X81779164Y-106234100D01*
X81977383Y-106141669D01*
X81977385Y-106141668D01*
X82039571Y-106098124D01*
X81479410Y-105537962D01*
X81542993Y-105520925D01*
X81657007Y-105455099D01*
X81750099Y-105362007D01*
X81815925Y-105247993D01*
X81832962Y-105184409D01*
X82393124Y-105744571D01*
X82410083Y-105743087D01*
X82428502Y-105728365D01*
X82498000Y-105721171D01*
X82560355Y-105752694D01*
X82595769Y-105812924D01*
X82599500Y-105843113D01*
X82599500Y-110077142D01*
X82579815Y-110144181D01*
X82527011Y-110189936D01*
X82457853Y-110199880D01*
X82402616Y-110177461D01*
X82338847Y-110131131D01*
X82114383Y-110016760D01*
X81874785Y-109938910D01*
X81625962Y-109899500D01*
X81374038Y-109899500D01*
X81256944Y-109918046D01*
X81125214Y-109938910D01*
X80885616Y-110016760D01*
X80661151Y-110131132D01*
X80457350Y-110279201D01*
X80457345Y-110279205D01*
X80279205Y-110457345D01*
X80279201Y-110457350D01*
X80131132Y-110661151D01*
X80016760Y-110885616D01*
X79956824Y-111070080D01*
X79938910Y-111125215D01*
X79899500Y-111374038D01*
X79899500Y-111625962D01*
X79938910Y-111874785D01*
X80016760Y-112114383D01*
X80131132Y-112338848D01*
X80279201Y-112542649D01*
X80279205Y-112542654D01*
X80457345Y-112720794D01*
X80457350Y-112720798D01*
X80565068Y-112799059D01*
X80661155Y-112868870D01*
X80767111Y-112922857D01*
X80885616Y-112983239D01*
X80885618Y-112983239D01*
X80885621Y-112983241D01*
X81125215Y-113061090D01*
X81374038Y-113100500D01*
X81374039Y-113100500D01*
X81625961Y-113100500D01*
X81625962Y-113100500D01*
X81874785Y-113061090D01*
X82114379Y-112983241D01*
X82338845Y-112868870D01*
X82378329Y-112840183D01*
X82402615Y-112822539D01*
X82468421Y-112799059D01*
X82536475Y-112814884D01*
X82585170Y-112864990D01*
X82599500Y-112922857D01*
X82599500Y-115026638D01*
X82579815Y-115093677D01*
X82527011Y-115139432D01*
X82457853Y-115149376D01*
X82394297Y-115120351D01*
X82387819Y-115114319D01*
X77324035Y-110050535D01*
X77324030Y-110050531D01*
X77264961Y-110011064D01*
X77264960Y-110011063D01*
X77176544Y-109951985D01*
X77176542Y-109951984D01*
X77094607Y-109918046D01*
X77094606Y-109918046D01*
X77012666Y-109884105D01*
X77012658Y-109884103D01*
X76838696Y-109849500D01*
X76838692Y-109849500D01*
X76838691Y-109849500D01*
X76132791Y-109849500D01*
X76065752Y-109829815D01*
X76019997Y-109777011D01*
X76016609Y-109768833D01*
X75993797Y-109707671D01*
X75993793Y-109707664D01*
X75907547Y-109592455D01*
X75907544Y-109592452D01*
X75792335Y-109506206D01*
X75792328Y-109506202D01*
X75657482Y-109455908D01*
X75657483Y-109455908D01*
X75597883Y-109449501D01*
X75597881Y-109449500D01*
X75597873Y-109449500D01*
X75597865Y-109449500D01*
X74774362Y-109449500D01*
X74707323Y-109429815D01*
X74686681Y-109413181D01*
X73324039Y-108050538D01*
X73324038Y-108050537D01*
X73219220Y-107980501D01*
X73219218Y-107980499D01*
X73198169Y-107966435D01*
X73176547Y-107951987D01*
X73176545Y-107951986D01*
X73176542Y-107951984D01*
X73094607Y-107918046D01*
X73094606Y-107918046D01*
X73012666Y-107884105D01*
X73012658Y-107884103D01*
X72838696Y-107849500D01*
X72838692Y-107849500D01*
X72838691Y-107849500D01*
X69674500Y-107849500D01*
X69607461Y-107829815D01*
X69561706Y-107777011D01*
X69550500Y-107725500D01*
X69550500Y-106115758D01*
X69570185Y-106048719D01*
X69586819Y-106028077D01*
X69601317Y-106013579D01*
X69688495Y-105926401D01*
X69824035Y-105732830D01*
X69863064Y-105649130D01*
X69909233Y-105596695D01*
X69976427Y-105577543D01*
X70043308Y-105597758D01*
X70087825Y-105649133D01*
X70103330Y-105682382D01*
X70103332Y-105682386D01*
X70146874Y-105744571D01*
X70707037Y-105184408D01*
X70724075Y-105247993D01*
X70789901Y-105362007D01*
X70882993Y-105455099D01*
X70997007Y-105520925D01*
X71060590Y-105537962D01*
X70500427Y-106098124D01*
X70562612Y-106141666D01*
X70760840Y-106234101D01*
X70760849Y-106234105D01*
X70972105Y-106290710D01*
X70972115Y-106290712D01*
X71189999Y-106309775D01*
X71190001Y-106309775D01*
X71407884Y-106290712D01*
X71407894Y-106290710D01*
X71619150Y-106234105D01*
X71619164Y-106234100D01*
X71817383Y-106141669D01*
X71817385Y-106141668D01*
X71879571Y-106098124D01*
X71319410Y-105537962D01*
X71382993Y-105520925D01*
X71497007Y-105455099D01*
X71590099Y-105362007D01*
X71655925Y-105247993D01*
X71672962Y-105184409D01*
X72233124Y-105744570D01*
X72276667Y-105682387D01*
X72292172Y-105649136D01*
X72338343Y-105596696D01*
X72405537Y-105577543D01*
X72472418Y-105597758D01*
X72516937Y-105649134D01*
X72555965Y-105732830D01*
X72555967Y-105732834D01*
X72612047Y-105812924D01*
X72691505Y-105926401D01*
X72858599Y-106093495D01*
X72890394Y-106115758D01*
X73052165Y-106229032D01*
X73052167Y-106229033D01*
X73052170Y-106229035D01*
X73266337Y-106328903D01*
X73494592Y-106390063D01*
X73682918Y-106406539D01*
X73729999Y-106410659D01*
X73730000Y-106410659D01*
X73730001Y-106410659D01*
X73769234Y-106407226D01*
X73965408Y-106390063D01*
X74193663Y-106328903D01*
X74407830Y-106229035D01*
X74601401Y-106093495D01*
X74768495Y-105926401D01*
X74898425Y-105740842D01*
X74953002Y-105697217D01*
X75022500Y-105690023D01*
X75084855Y-105721546D01*
X75101575Y-105740842D01*
X75231500Y-105926395D01*
X75231505Y-105926401D01*
X75398599Y-106093495D01*
X75430394Y-106115758D01*
X75592165Y-106229032D01*
X75592167Y-106229033D01*
X75592170Y-106229035D01*
X75806337Y-106328903D01*
X76034592Y-106390063D01*
X76222918Y-106406539D01*
X76269999Y-106410659D01*
X76270000Y-106410659D01*
X76270001Y-106410659D01*
X76309234Y-106407226D01*
X76505408Y-106390063D01*
X76733663Y-106328903D01*
X76947830Y-106229035D01*
X77141401Y-106093495D01*
X77308495Y-105926401D01*
X77438425Y-105740842D01*
X77493002Y-105697217D01*
X77562500Y-105690023D01*
X77624855Y-105721546D01*
X77641575Y-105740842D01*
X77771500Y-105926395D01*
X77771505Y-105926401D01*
X77938599Y-106093495D01*
X77970394Y-106115758D01*
X78132165Y-106229032D01*
X78132167Y-106229033D01*
X78132170Y-106229035D01*
X78346337Y-106328903D01*
X78574592Y-106390063D01*
X78762918Y-106406539D01*
X78809999Y-106410659D01*
X78810000Y-106410659D01*
X78810001Y-106410659D01*
X78849234Y-106407226D01*
X79045408Y-106390063D01*
X79273663Y-106328903D01*
X79487830Y-106229035D01*
X79681401Y-106093495D01*
X79848495Y-105926401D01*
X79984035Y-105732830D01*
X80023064Y-105649130D01*
X80069233Y-105596695D01*
X80136427Y-105577543D01*
X80203308Y-105597758D01*
X80247825Y-105649133D01*
X80263330Y-105682382D01*
X80263332Y-105682386D01*
X80306874Y-105744571D01*
X80867037Y-105184408D01*
X80884075Y-105247993D01*
G37*
%TD.AperFunction*%
%TA.AperFunction,Conductor*%
G36*
X66535238Y-109670185D02*
G01*
X66580993Y-109722989D01*
X66581826Y-109728273D01*
X67203554Y-110350000D01*
X67197339Y-110350000D01*
X67095606Y-110377259D01*
X67004394Y-110429920D01*
X66929920Y-110504394D01*
X66877259Y-110595606D01*
X66850000Y-110697339D01*
X66850000Y-110703553D01*
X66241138Y-110094691D01*
X66184802Y-110098602D01*
X66184603Y-110095738D01*
X66147623Y-110098224D01*
X66086444Y-110064478D01*
X66053221Y-110003012D01*
X66050499Y-109977172D01*
X66050499Y-109902129D01*
X66050498Y-109902123D01*
X66044091Y-109842517D01*
X66044090Y-109842514D01*
X66034885Y-109817832D01*
X66029901Y-109748140D01*
X66063387Y-109686818D01*
X66124711Y-109653333D01*
X66151067Y-109650500D01*
X66468199Y-109650500D01*
X66535238Y-109670185D01*
G37*
%TD.AperFunction*%
%TA.AperFunction,Conductor*%
G36*
X72547329Y-102020185D02*
G01*
X72593084Y-102072989D01*
X72603028Y-102142147D01*
X72599557Y-102158434D01*
X72565378Y-102278560D01*
X72544859Y-102499999D01*
X72544859Y-102500000D01*
X72565378Y-102721439D01*
X72626240Y-102935350D01*
X72725364Y-103134419D01*
X72725366Y-103134421D01*
X72741138Y-103155306D01*
X73350000Y-102546444D01*
X73350000Y-102552661D01*
X73377259Y-102654394D01*
X73429920Y-102745606D01*
X73504394Y-102820080D01*
X73595606Y-102872741D01*
X73697339Y-102900000D01*
X73703554Y-102900000D01*
X73096671Y-103506880D01*
X73212823Y-103578798D01*
X73217959Y-103581356D01*
X73216743Y-103583797D01*
X73263020Y-103619196D01*
X73286755Y-103684911D01*
X73271195Y-103753026D01*
X73221278Y-103801915D01*
X73215391Y-103804853D01*
X73052171Y-103880964D01*
X73052169Y-103880965D01*
X72858597Y-104016505D01*
X72691505Y-104183597D01*
X72555965Y-104377169D01*
X72555964Y-104377171D01*
X72516937Y-104460865D01*
X72470764Y-104513304D01*
X72403571Y-104532456D01*
X72336689Y-104512240D01*
X72292173Y-104460865D01*
X72276668Y-104427615D01*
X72233123Y-104365428D01*
X71672962Y-104925589D01*
X71655925Y-104862007D01*
X71590099Y-104747993D01*
X71497007Y-104654901D01*
X71382993Y-104589075D01*
X71319409Y-104572037D01*
X71879571Y-104011874D01*
X71817387Y-103968333D01*
X71619159Y-103875898D01*
X71619150Y-103875894D01*
X71407894Y-103819289D01*
X71407884Y-103819287D01*
X71190001Y-103800225D01*
X71189999Y-103800225D01*
X70972115Y-103819287D01*
X70972105Y-103819289D01*
X70760849Y-103875894D01*
X70760840Y-103875898D01*
X70562614Y-103968332D01*
X70562612Y-103968333D01*
X70500428Y-104011875D01*
X70500427Y-104011875D01*
X71060590Y-104572037D01*
X70997007Y-104589075D01*
X70882993Y-104654901D01*
X70789901Y-104747993D01*
X70724075Y-104862007D01*
X70707037Y-104925590D01*
X70146875Y-104365427D01*
X70146875Y-104365428D01*
X70103333Y-104427612D01*
X70103332Y-104427614D01*
X70087827Y-104460866D01*
X70041654Y-104513305D01*
X69974461Y-104532457D01*
X69907580Y-104512241D01*
X69863063Y-104460866D01*
X69824035Y-104377171D01*
X69824034Y-104377169D01*
X69688494Y-104183597D01*
X69686819Y-104181922D01*
X69686315Y-104181000D01*
X69685014Y-104179449D01*
X69685325Y-104179187D01*
X69653334Y-104120599D01*
X69650500Y-104094241D01*
X69650500Y-103490048D01*
X69670185Y-103423009D01*
X69686814Y-103402371D01*
X69750047Y-103339139D01*
X69880568Y-103152734D01*
X69976739Y-102946496D01*
X70035635Y-102726692D01*
X70055468Y-102500000D01*
X70035635Y-102273308D01*
X70004855Y-102158434D01*
X70004362Y-102156593D01*
X70006025Y-102086743D01*
X70045188Y-102028881D01*
X70109417Y-102001377D01*
X70124137Y-102000500D01*
X72480290Y-102000500D01*
X72547329Y-102020185D01*
G37*
%TD.AperFunction*%
%TA.AperFunction,Conductor*%
G36*
X80767913Y-96821685D02*
G01*
X80824586Y-96862549D01*
X80828239Y-96867500D01*
X80946501Y-97036396D01*
X80946506Y-97036402D01*
X81113597Y-97203493D01*
X81113603Y-97203498D01*
X81299158Y-97333425D01*
X81342783Y-97388002D01*
X81349977Y-97457500D01*
X81318454Y-97519855D01*
X81299158Y-97536575D01*
X81113597Y-97666505D01*
X80946505Y-97833597D01*
X80810965Y-98027169D01*
X80810964Y-98027171D01*
X80711098Y-98241335D01*
X80711094Y-98241344D01*
X80649938Y-98469586D01*
X80649936Y-98469596D01*
X80629341Y-98704999D01*
X80629341Y-98705000D01*
X80649936Y-98940403D01*
X80649938Y-98940413D01*
X80711094Y-99168655D01*
X80711096Y-99168659D01*
X80711097Y-99168663D01*
X80803861Y-99367596D01*
X80810965Y-99382830D01*
X80810967Y-99382834D01*
X80891485Y-99497824D01*
X80946505Y-99576401D01*
X81113599Y-99743495D01*
X81138219Y-99760734D01*
X81307165Y-99879032D01*
X81307167Y-99879033D01*
X81307170Y-99879035D01*
X81521337Y-99978903D01*
X81521343Y-99978904D01*
X81521344Y-99978905D01*
X81532798Y-99981974D01*
X81749592Y-100040063D01*
X81937918Y-100056539D01*
X81984999Y-100060659D01*
X81985000Y-100060659D01*
X81985001Y-100060659D01*
X82024234Y-100057226D01*
X82220408Y-100040063D01*
X82443408Y-99980311D01*
X82513257Y-99981974D01*
X82571119Y-100021137D01*
X82598623Y-100085365D01*
X82599500Y-100100086D01*
X82599500Y-104266885D01*
X82579815Y-104333924D01*
X82527011Y-104379679D01*
X82457853Y-104389623D01*
X82407656Y-104366699D01*
X82393124Y-104365427D01*
X81832962Y-104925589D01*
X81815925Y-104862007D01*
X81750099Y-104747993D01*
X81657007Y-104654901D01*
X81542993Y-104589075D01*
X81479409Y-104572037D01*
X82039571Y-104011874D01*
X81977387Y-103968333D01*
X81779159Y-103875898D01*
X81779150Y-103875894D01*
X81567894Y-103819289D01*
X81567884Y-103819287D01*
X81350001Y-103800225D01*
X81349999Y-103800225D01*
X81132115Y-103819287D01*
X81132105Y-103819289D01*
X80920849Y-103875894D01*
X80920840Y-103875898D01*
X80722614Y-103968332D01*
X80722612Y-103968333D01*
X80660428Y-104011875D01*
X80660427Y-104011875D01*
X81220590Y-104572037D01*
X81157007Y-104589075D01*
X81042993Y-104654901D01*
X80949901Y-104747993D01*
X80884075Y-104862007D01*
X80867037Y-104925590D01*
X80306875Y-104365427D01*
X80306875Y-104365428D01*
X80263333Y-104427612D01*
X80263332Y-104427614D01*
X80247827Y-104460866D01*
X80201654Y-104513305D01*
X80134461Y-104532457D01*
X80067580Y-104512241D01*
X80023063Y-104460866D01*
X79984035Y-104377171D01*
X79984034Y-104377169D01*
X79848494Y-104183597D01*
X79681402Y-104016506D01*
X79681395Y-104016501D01*
X79674788Y-104011875D01*
X79614054Y-103969348D01*
X79487834Y-103880967D01*
X79487830Y-103880965D01*
X79476955Y-103875894D01*
X79273663Y-103781097D01*
X79273659Y-103781096D01*
X79273655Y-103781094D01*
X79045413Y-103719938D01*
X79045403Y-103719936D01*
X78810001Y-103699341D01*
X78809999Y-103699341D01*
X78574596Y-103719936D01*
X78574586Y-103719938D01*
X78474126Y-103746856D01*
X78404276Y-103745193D01*
X78354352Y-103714762D01*
X76224771Y-101585181D01*
X76191286Y-101523858D01*
X76196270Y-101454166D01*
X76224767Y-101409823D01*
X76310858Y-101323733D01*
X76310859Y-101323730D01*
X80485858Y-97148733D01*
X80554312Y-97046285D01*
X80597450Y-96942139D01*
X80601463Y-96932452D01*
X80605046Y-96914435D01*
X80637429Y-96852524D01*
X80698143Y-96817948D01*
X80767913Y-96821685D01*
G37*
%TD.AperFunction*%
%TA.AperFunction,Conductor*%
G36*
X75140098Y-102272035D02*
G01*
X75155570Y-102285160D01*
X76358070Y-103487660D01*
X76391555Y-103548983D01*
X76386571Y-103618675D01*
X76344699Y-103674608D01*
X76279235Y-103699025D01*
X76270389Y-103699341D01*
X76269999Y-103699341D01*
X76034596Y-103719936D01*
X76034586Y-103719938D01*
X75806344Y-103781094D01*
X75806335Y-103781098D01*
X75592171Y-103880964D01*
X75592169Y-103880965D01*
X75398597Y-104016505D01*
X75231505Y-104183597D01*
X75101575Y-104369158D01*
X75046998Y-104412783D01*
X74977500Y-104419977D01*
X74915145Y-104388454D01*
X74898425Y-104369158D01*
X74768494Y-104183597D01*
X74601402Y-104016506D01*
X74601395Y-104016501D01*
X74594788Y-104011875D01*
X74534054Y-103969348D01*
X74407834Y-103880967D01*
X74407831Y-103880965D01*
X74407830Y-103880965D01*
X74341470Y-103850020D01*
X74262760Y-103813317D01*
X74210321Y-103767144D01*
X74191169Y-103699951D01*
X74211385Y-103633069D01*
X74264551Y-103587735D01*
X74270376Y-103585306D01*
X74287179Y-103578797D01*
X74403327Y-103506880D01*
X73796447Y-102900000D01*
X73802661Y-102900000D01*
X73904394Y-102872741D01*
X73995606Y-102820080D01*
X74070080Y-102745606D01*
X74122741Y-102654394D01*
X74150000Y-102552661D01*
X74150000Y-102546446D01*
X74758860Y-103155306D01*
X74758861Y-103155306D01*
X74774631Y-103134425D01*
X74774632Y-103134422D01*
X74873759Y-102935350D01*
X74934621Y-102721439D01*
X74955141Y-102500000D01*
X74944418Y-102384283D01*
X74957833Y-102315713D01*
X75006190Y-102265281D01*
X75074136Y-102248998D01*
X75140098Y-102272035D01*
G37*
%TD.AperFunction*%
%TA.AperFunction,Conductor*%
G36*
X53736000Y-68809999D02*
G01*
X54050500Y-68809999D01*
X54117539Y-68829684D01*
X54163294Y-68882488D01*
X54174500Y-68933999D01*
X54174500Y-100726638D01*
X54154815Y-100793677D01*
X54102011Y-100839432D01*
X54032853Y-100849376D01*
X53969297Y-100820351D01*
X53962819Y-100814319D01*
X52919819Y-99771319D01*
X52886334Y-99709996D01*
X52883500Y-99683638D01*
X52883500Y-68933999D01*
X52903185Y-68866960D01*
X52955989Y-68821205D01*
X53007500Y-68809999D01*
X53236000Y-68809999D01*
X53236000Y-67993012D01*
X53293007Y-68025925D01*
X53420174Y-68060000D01*
X53551826Y-68060000D01*
X53678993Y-68025925D01*
X53736000Y-67993012D01*
X53736000Y-68809999D01*
G37*
%TD.AperFunction*%
%TA.AperFunction,Conductor*%
G36*
X60987483Y-96239685D02*
G01*
X61008125Y-96256319D01*
X61749625Y-96997819D01*
X61783110Y-97059142D01*
X61778126Y-97128834D01*
X61736254Y-97184767D01*
X61670790Y-97209184D01*
X61661944Y-97209500D01*
X60999029Y-97209500D01*
X60931990Y-97189815D01*
X60886235Y-97137011D01*
X60876291Y-97067853D01*
X60886647Y-97033095D01*
X60949101Y-96899159D01*
X60949105Y-96899150D01*
X60997108Y-96720000D01*
X60203012Y-96720000D01*
X60235925Y-96662993D01*
X60270000Y-96535826D01*
X60270000Y-96404174D01*
X60235925Y-96277007D01*
X60203012Y-96220000D01*
X60920444Y-96220000D01*
X60987483Y-96239685D01*
G37*
%TD.AperFunction*%
%TA.AperFunction,Conductor*%
G36*
X64567864Y-69336238D02*
G01*
X64612381Y-69387614D01*
X64618811Y-69401402D01*
X64619432Y-69402733D01*
X64619432Y-69402734D01*
X64749954Y-69589141D01*
X64910858Y-69750045D01*
X64910861Y-69750047D01*
X65097266Y-69880568D01*
X65303504Y-69976739D01*
X65303509Y-69976740D01*
X65303511Y-69976741D01*
X65356415Y-69990916D01*
X65523308Y-70035635D01*
X65680780Y-70049412D01*
X65749998Y-70055468D01*
X65750000Y-70055468D01*
X65750002Y-70055468D01*
X65806673Y-70050509D01*
X65976692Y-70035635D01*
X66045048Y-70017319D01*
X66114896Y-70018980D01*
X66164822Y-70049412D01*
X70511016Y-74395606D01*
X70511045Y-74395637D01*
X70601263Y-74485855D01*
X70601267Y-74485858D01*
X70703707Y-74554307D01*
X70703713Y-74554310D01*
X70703714Y-74554311D01*
X70817548Y-74601463D01*
X70817558Y-74601465D01*
X70823378Y-74603231D01*
X70823033Y-74604367D01*
X70879348Y-74633821D01*
X70906808Y-74673249D01*
X70925826Y-74716606D01*
X71061833Y-74924782D01*
X71072555Y-74936429D01*
X71230256Y-75107738D01*
X71426491Y-75260474D01*
X71492978Y-75296455D01*
X71559517Y-75332464D01*
X71609108Y-75381683D01*
X71624500Y-75441519D01*
X71624500Y-79058479D01*
X71604815Y-79125518D01*
X71559519Y-79167533D01*
X71426496Y-79239522D01*
X71426494Y-79239523D01*
X71230257Y-79392261D01*
X71061833Y-79575217D01*
X70925826Y-79783393D01*
X70825936Y-80011118D01*
X70764892Y-80252175D01*
X70764890Y-80252187D01*
X70744357Y-80499994D01*
X70744357Y-80500005D01*
X70764890Y-80747812D01*
X70764892Y-80747824D01*
X70825936Y-80988881D01*
X70925826Y-81216606D01*
X71061833Y-81424782D01*
X71061836Y-81424785D01*
X71230256Y-81607738D01*
X71426491Y-81760474D01*
X71645190Y-81878828D01*
X71880386Y-81959571D01*
X72125665Y-82000500D01*
X72374335Y-82000500D01*
X72619614Y-81959571D01*
X72785238Y-81902711D01*
X72855035Y-81899562D01*
X72915457Y-81934648D01*
X72947317Y-81996830D01*
X72949500Y-82019993D01*
X72949500Y-83150678D01*
X72929815Y-83217717D01*
X72877011Y-83263472D01*
X72807853Y-83273416D01*
X72805091Y-83272987D01*
X72664335Y-83249500D01*
X72415665Y-83249500D01*
X72170386Y-83290428D01*
X72090711Y-83317780D01*
X72020912Y-83320929D01*
X71962769Y-83288179D01*
X71602928Y-82928338D01*
X71602925Y-82928334D01*
X71602925Y-82928335D01*
X71595858Y-82921268D01*
X71595858Y-82921267D01*
X71508733Y-82834142D01*
X71508732Y-82834141D01*
X71508731Y-82834140D01*
X71457509Y-82799915D01*
X71406287Y-82765689D01*
X71406288Y-82765689D01*
X71406286Y-82765688D01*
X71323759Y-82731505D01*
X71323757Y-82731504D01*
X71323756Y-82731503D01*
X71292453Y-82718537D01*
X71282427Y-82716543D01*
X71232029Y-82706518D01*
X71171610Y-82694500D01*
X71171607Y-82694500D01*
X71171606Y-82694500D01*
X62170453Y-82694500D01*
X62103414Y-82674815D01*
X62082772Y-82658181D01*
X61110237Y-81685647D01*
X61076752Y-81624324D01*
X61078143Y-81565872D01*
X61105063Y-81465408D01*
X61125659Y-81230000D01*
X61105063Y-80994592D01*
X61043903Y-80766337D01*
X60944035Y-80552171D01*
X60912436Y-80507042D01*
X60808494Y-80358597D01*
X60641402Y-80191506D01*
X60641396Y-80191501D01*
X60455842Y-80061575D01*
X60412217Y-80006998D01*
X60405023Y-79937500D01*
X60436546Y-79875145D01*
X60455842Y-79858425D01*
X60509500Y-79820853D01*
X60641401Y-79728495D01*
X60808495Y-79561401D01*
X60944035Y-79367830D01*
X61043903Y-79153663D01*
X61105063Y-78925408D01*
X61125659Y-78690000D01*
X61105063Y-78454592D01*
X61043903Y-78226337D01*
X60944035Y-78012171D01*
X60938425Y-78004158D01*
X60808494Y-77818597D01*
X60641402Y-77651506D01*
X60641395Y-77651501D01*
X60447834Y-77515967D01*
X60447830Y-77515965D01*
X60442752Y-77513597D01*
X60364133Y-77476936D01*
X60311695Y-77430765D01*
X60292543Y-77363571D01*
X60312759Y-77296690D01*
X60364135Y-77252172D01*
X60397389Y-77236665D01*
X60576554Y-77111212D01*
X60731212Y-76956554D01*
X60856666Y-76777387D01*
X60949101Y-76579159D01*
X60949105Y-76579150D01*
X60997108Y-76400000D01*
X60203012Y-76400000D01*
X60235925Y-76342993D01*
X60270000Y-76215826D01*
X60270000Y-76084174D01*
X60235925Y-75957007D01*
X60203012Y-75900000D01*
X60997108Y-75900000D01*
X60997108Y-75899999D01*
X60949105Y-75720849D01*
X60949101Y-75720840D01*
X60856666Y-75522612D01*
X60856664Y-75522608D01*
X60731216Y-75343450D01*
X60731211Y-75343444D01*
X60576554Y-75188787D01*
X60397386Y-75063332D01*
X60397382Y-75063330D01*
X60364133Y-75047825D01*
X60311694Y-75001652D01*
X60292543Y-74934458D01*
X60312760Y-74867578D01*
X60364130Y-74823064D01*
X60447830Y-74784035D01*
X60641401Y-74648495D01*
X60808495Y-74481401D01*
X60944035Y-74287830D01*
X61043903Y-74073663D01*
X61105063Y-73845408D01*
X61125659Y-73610000D01*
X61105063Y-73374592D01*
X61043903Y-73146337D01*
X60944035Y-72932171D01*
X60938425Y-72924158D01*
X60808494Y-72738597D01*
X60641402Y-72571506D01*
X60641396Y-72571501D01*
X60455842Y-72441575D01*
X60412217Y-72386998D01*
X60405023Y-72317500D01*
X60436546Y-72255145D01*
X60455842Y-72238425D01*
X60496070Y-72210257D01*
X60641401Y-72108495D01*
X60808495Y-71941401D01*
X60944035Y-71747830D01*
X61043903Y-71533663D01*
X61105063Y-71305408D01*
X61125659Y-71070000D01*
X61105063Y-70834592D01*
X61078143Y-70734125D01*
X61079806Y-70664276D01*
X61110235Y-70614353D01*
X62105022Y-69619567D01*
X62166343Y-69586084D01*
X62236035Y-69591068D01*
X62280382Y-69619569D01*
X62410858Y-69750045D01*
X62571623Y-69862613D01*
X62615248Y-69917189D01*
X62624500Y-69964188D01*
X62624500Y-72558479D01*
X62604815Y-72625518D01*
X62559519Y-72667533D01*
X62426496Y-72739522D01*
X62426494Y-72739523D01*
X62230257Y-72892261D01*
X62061833Y-73075217D01*
X61925826Y-73283393D01*
X61825936Y-73511118D01*
X61764892Y-73752175D01*
X61764890Y-73752187D01*
X61744357Y-73999994D01*
X61744357Y-74000005D01*
X61764890Y-74247812D01*
X61764892Y-74247824D01*
X61825936Y-74488881D01*
X61925826Y-74716606D01*
X62061833Y-74924782D01*
X62072555Y-74936429D01*
X62230256Y-75107738D01*
X62426491Y-75260474D01*
X62492978Y-75296455D01*
X62559517Y-75332464D01*
X62609108Y-75381683D01*
X62624500Y-75441519D01*
X62624500Y-79058479D01*
X62604815Y-79125518D01*
X62559519Y-79167533D01*
X62426496Y-79239522D01*
X62426494Y-79239523D01*
X62230257Y-79392261D01*
X62061833Y-79575217D01*
X61925826Y-79783393D01*
X61825936Y-80011118D01*
X61764892Y-80252175D01*
X61764890Y-80252187D01*
X61744357Y-80499994D01*
X61744357Y-80500005D01*
X61764890Y-80747812D01*
X61764892Y-80747824D01*
X61825936Y-80988881D01*
X61925826Y-81216606D01*
X62061833Y-81424782D01*
X62061836Y-81424785D01*
X62230256Y-81607738D01*
X62426491Y-81760474D01*
X62645190Y-81878828D01*
X62880386Y-81959571D01*
X63125665Y-82000500D01*
X63374335Y-82000500D01*
X63619614Y-81959571D01*
X63854810Y-81878828D01*
X64073509Y-81760474D01*
X64269744Y-81607738D01*
X64438164Y-81424785D01*
X64574173Y-81216607D01*
X64674063Y-80988881D01*
X64735108Y-80747821D01*
X64744586Y-80633442D01*
X64755643Y-80500005D01*
X64755643Y-80499994D01*
X66345202Y-80499994D01*
X66345202Y-80500005D01*
X66364361Y-80731218D01*
X66421317Y-80956135D01*
X66514516Y-81168609D01*
X66598811Y-81297633D01*
X67226212Y-80670233D01*
X67237482Y-80712292D01*
X67309890Y-80837708D01*
X67412292Y-80940110D01*
X67537708Y-81012518D01*
X67579765Y-81023787D01*
X66951201Y-81652351D01*
X66981649Y-81676050D01*
X67185697Y-81786476D01*
X67185706Y-81786479D01*
X67405139Y-81861811D01*
X67633993Y-81900000D01*
X67866007Y-81900000D01*
X68094860Y-81861811D01*
X68314293Y-81786479D01*
X68314301Y-81786476D01*
X68518355Y-81676047D01*
X68548797Y-81652351D01*
X68548798Y-81652350D01*
X67920235Y-81023787D01*
X67962292Y-81012518D01*
X68087708Y-80940110D01*
X68190110Y-80837708D01*
X68262518Y-80712292D01*
X68273787Y-80670234D01*
X68901186Y-81297634D01*
X68985484Y-81168606D01*
X69078682Y-80956135D01*
X69135638Y-80731218D01*
X69154798Y-80500005D01*
X69154798Y-80499994D01*
X69135638Y-80268781D01*
X69078682Y-80043864D01*
X68985483Y-79831390D01*
X68901186Y-79702364D01*
X68273787Y-80329764D01*
X68262518Y-80287708D01*
X68190110Y-80162292D01*
X68087708Y-80059890D01*
X67962292Y-79987482D01*
X67920233Y-79976212D01*
X68548797Y-79347647D01*
X68548797Y-79347645D01*
X68518360Y-79323955D01*
X68518354Y-79323951D01*
X68314302Y-79213523D01*
X68314293Y-79213520D01*
X68094860Y-79138188D01*
X67866007Y-79100000D01*
X67633993Y-79100000D01*
X67405139Y-79138188D01*
X67185706Y-79213520D01*
X67185697Y-79213523D01*
X66981650Y-79323949D01*
X66951200Y-79347647D01*
X67579766Y-79976212D01*
X67537708Y-79987482D01*
X67412292Y-80059890D01*
X67309890Y-80162292D01*
X67237482Y-80287708D01*
X67226212Y-80329765D01*
X66598812Y-79702365D01*
X66514516Y-79831391D01*
X66514514Y-79831395D01*
X66421317Y-80043864D01*
X66364361Y-80268781D01*
X66345202Y-80499994D01*
X64755643Y-80499994D01*
X64735109Y-80252187D01*
X64735107Y-80252175D01*
X64674063Y-80011118D01*
X64574173Y-79783393D01*
X64438166Y-79575217D01*
X64416557Y-79551744D01*
X64269744Y-79392262D01*
X64073509Y-79239526D01*
X64073508Y-79239525D01*
X64073505Y-79239523D01*
X64073503Y-79239522D01*
X63940481Y-79167533D01*
X63890891Y-79118313D01*
X63875500Y-79058479D01*
X63875500Y-75441519D01*
X63895185Y-75374480D01*
X63940483Y-75332464D01*
X63949500Y-75327584D01*
X64073509Y-75260474D01*
X64269744Y-75107738D01*
X64438164Y-74924785D01*
X64574173Y-74716607D01*
X64674063Y-74488881D01*
X64735108Y-74247821D01*
X64738811Y-74203134D01*
X64755643Y-74000005D01*
X64755643Y-73999994D01*
X66345202Y-73999994D01*
X66345202Y-74000005D01*
X66364361Y-74231218D01*
X66421317Y-74456135D01*
X66514516Y-74668609D01*
X66598811Y-74797633D01*
X67226212Y-74170233D01*
X67237482Y-74212292D01*
X67309890Y-74337708D01*
X67412292Y-74440110D01*
X67537708Y-74512518D01*
X67579765Y-74523787D01*
X66951201Y-75152351D01*
X66981649Y-75176050D01*
X67185697Y-75286476D01*
X67185706Y-75286479D01*
X67405139Y-75361811D01*
X67633993Y-75400000D01*
X67866007Y-75400000D01*
X68094860Y-75361811D01*
X68314293Y-75286479D01*
X68314301Y-75286476D01*
X68518355Y-75176047D01*
X68548797Y-75152351D01*
X68548798Y-75152350D01*
X67920235Y-74523787D01*
X67962292Y-74512518D01*
X68087708Y-74440110D01*
X68190110Y-74337708D01*
X68262518Y-74212292D01*
X68273787Y-74170234D01*
X68901186Y-74797634D01*
X68985484Y-74668606D01*
X69078682Y-74456135D01*
X69135638Y-74231218D01*
X69154798Y-74000005D01*
X69154798Y-73999994D01*
X69135638Y-73768781D01*
X69078682Y-73543864D01*
X68985483Y-73331390D01*
X68901186Y-73202364D01*
X68273787Y-73829764D01*
X68262518Y-73787708D01*
X68190110Y-73662292D01*
X68087708Y-73559890D01*
X67962292Y-73487482D01*
X67920233Y-73476212D01*
X68548797Y-72847647D01*
X68548797Y-72847645D01*
X68518360Y-72823955D01*
X68518354Y-72823951D01*
X68314302Y-72713523D01*
X68314293Y-72713520D01*
X68094860Y-72638188D01*
X67866007Y-72600000D01*
X67633993Y-72600000D01*
X67405139Y-72638188D01*
X67185706Y-72713520D01*
X67185697Y-72713523D01*
X66981650Y-72823949D01*
X66951200Y-72847647D01*
X67579766Y-73476212D01*
X67537708Y-73487482D01*
X67412292Y-73559890D01*
X67309890Y-73662292D01*
X67237482Y-73787708D01*
X67226212Y-73829765D01*
X66598812Y-73202365D01*
X66514516Y-73331391D01*
X66514514Y-73331395D01*
X66421317Y-73543864D01*
X66364361Y-73768781D01*
X66345202Y-73999994D01*
X64755643Y-73999994D01*
X64735109Y-73752187D01*
X64735107Y-73752175D01*
X64674063Y-73511118D01*
X64574173Y-73283393D01*
X64438166Y-73075217D01*
X64345888Y-72974977D01*
X64269744Y-72892262D01*
X64073509Y-72739526D01*
X64073508Y-72739525D01*
X64073505Y-72739523D01*
X64073503Y-72739522D01*
X63940481Y-72667533D01*
X63890891Y-72618313D01*
X63875500Y-72558479D01*
X63875500Y-69964188D01*
X63895185Y-69897149D01*
X63928377Y-69862613D01*
X64033172Y-69789235D01*
X64089139Y-69750047D01*
X64250047Y-69589139D01*
X64380568Y-69402734D01*
X64387618Y-69387614D01*
X64433789Y-69335176D01*
X64500982Y-69316023D01*
X64567864Y-69336238D01*
G37*
%TD.AperFunction*%
%TA.AperFunction,Conductor*%
G36*
X87120356Y-63920185D02*
G01*
X87154892Y-63953377D01*
X87249954Y-64089141D01*
X87410858Y-64250045D01*
X87410861Y-64250047D01*
X87597266Y-64380568D01*
X87803504Y-64476739D01*
X88023308Y-64535635D01*
X88185230Y-64549801D01*
X88249998Y-64555468D01*
X88250000Y-64555468D01*
X88250002Y-64555468D01*
X88306673Y-64550509D01*
X88476692Y-64535635D01*
X88696496Y-64476739D01*
X88902734Y-64380568D01*
X89089139Y-64250047D01*
X89250047Y-64089139D01*
X89273925Y-64055036D01*
X89328500Y-64011412D01*
X89397999Y-64004218D01*
X89460354Y-64035740D01*
X89495768Y-64095969D01*
X89499500Y-64126160D01*
X89499500Y-69993839D01*
X89479815Y-70060878D01*
X89427011Y-70106633D01*
X89357853Y-70116577D01*
X89294297Y-70087552D01*
X89273925Y-70064962D01*
X89250045Y-70030858D01*
X89089141Y-69869954D01*
X88902734Y-69739432D01*
X88902732Y-69739431D01*
X88696497Y-69643261D01*
X88696488Y-69643258D01*
X88476697Y-69584366D01*
X88476693Y-69584365D01*
X88476692Y-69584365D01*
X88476691Y-69584364D01*
X88476686Y-69584364D01*
X88250002Y-69564532D01*
X88249999Y-69564532D01*
X88023313Y-69584364D01*
X88023307Y-69584365D01*
X87954948Y-69602681D01*
X87885098Y-69601016D01*
X87835176Y-69570586D01*
X86150198Y-67885608D01*
X86150178Y-67885586D01*
X86058736Y-67794144D01*
X86043481Y-67783951D01*
X85999991Y-67733254D01*
X85992236Y-67716623D01*
X85950568Y-67627266D01*
X85828427Y-67452829D01*
X85820045Y-67440858D01*
X85659141Y-67279954D01*
X85472734Y-67149432D01*
X85472732Y-67149431D01*
X85316690Y-67076667D01*
X85296631Y-67067313D01*
X85244193Y-67021142D01*
X85225041Y-66953948D01*
X85245257Y-66887067D01*
X85298422Y-66841732D01*
X85304243Y-66839305D01*
X85357177Y-66818798D01*
X85357179Y-66818797D01*
X85546261Y-66701721D01*
X85710608Y-66551900D01*
X85844631Y-66374425D01*
X85943760Y-66175349D01*
X85996495Y-65990000D01*
X85135686Y-65990000D01*
X85140080Y-65985606D01*
X85192741Y-65894394D01*
X85220000Y-65792661D01*
X85220000Y-65687339D01*
X85192741Y-65585606D01*
X85140080Y-65494394D01*
X85135686Y-65490000D01*
X85996495Y-65490000D01*
X85943760Y-65304650D01*
X85844631Y-65105574D01*
X85710608Y-64928099D01*
X85546261Y-64778278D01*
X85357179Y-64661202D01*
X85357171Y-64661198D01*
X85304242Y-64640693D01*
X85248841Y-64598120D01*
X85225251Y-64532352D01*
X85240963Y-64464272D01*
X85290987Y-64415494D01*
X85296607Y-64412697D01*
X85472734Y-64330568D01*
X85659139Y-64200047D01*
X85820047Y-64039139D01*
X85880098Y-63953377D01*
X85934675Y-63909752D01*
X85981673Y-63900500D01*
X87053317Y-63900500D01*
X87120356Y-63920185D01*
G37*
%TD.AperFunction*%
%TA.AperFunction,Conductor*%
G36*
X81805520Y-56720185D02*
G01*
X81826162Y-56736819D01*
X84013181Y-58923838D01*
X84046666Y-58985161D01*
X84049500Y-59011519D01*
X84049500Y-59088326D01*
X84029815Y-59155365D01*
X83996624Y-59189901D01*
X83910863Y-59249951D01*
X83749951Y-59410862D01*
X83619432Y-59597265D01*
X83619431Y-59597267D01*
X83523261Y-59803502D01*
X83523258Y-59803511D01*
X83464366Y-60023302D01*
X83464364Y-60023313D01*
X83444532Y-60249998D01*
X83444532Y-60250001D01*
X83464364Y-60476686D01*
X83464366Y-60476697D01*
X83523258Y-60696488D01*
X83523261Y-60696497D01*
X83619431Y-60902732D01*
X83619432Y-60902734D01*
X83749954Y-61089141D01*
X83910857Y-61250044D01*
X83910860Y-61250046D01*
X83910861Y-61250047D01*
X83996623Y-61310097D01*
X84040248Y-61364673D01*
X84049500Y-61411672D01*
X84049500Y-62087340D01*
X84029815Y-62154379D01*
X83996628Y-62188912D01*
X83980863Y-62199951D01*
X83819951Y-62360862D01*
X83689432Y-62547265D01*
X83689431Y-62547267D01*
X83593261Y-62753502D01*
X83593258Y-62753511D01*
X83534366Y-62973302D01*
X83534364Y-62973313D01*
X83514532Y-63199998D01*
X83514532Y-63200001D01*
X83534364Y-63426686D01*
X83534366Y-63426697D01*
X83593258Y-63646488D01*
X83593261Y-63646497D01*
X83689431Y-63852732D01*
X83689432Y-63852734D01*
X83819954Y-64039141D01*
X83980858Y-64200045D01*
X83980861Y-64200047D01*
X84167266Y-64330568D01*
X84343368Y-64412686D01*
X84395806Y-64458857D01*
X84414958Y-64526051D01*
X84394742Y-64592932D01*
X84341577Y-64638266D01*
X84335758Y-64640693D01*
X84282825Y-64661200D01*
X84282820Y-64661202D01*
X84093738Y-64778278D01*
X83929391Y-64928099D01*
X83795368Y-65105574D01*
X83696239Y-65304650D01*
X83643505Y-65490000D01*
X84504314Y-65490000D01*
X84499920Y-65494394D01*
X84447259Y-65585606D01*
X84420000Y-65687339D01*
X84420000Y-65792661D01*
X84447259Y-65894394D01*
X84499920Y-65985606D01*
X84504314Y-65990000D01*
X83643505Y-65990000D01*
X83696239Y-66175349D01*
X83795368Y-66374425D01*
X83929391Y-66551900D01*
X84093738Y-66701721D01*
X84282820Y-66818797D01*
X84282831Y-66818802D01*
X84335756Y-66839306D01*
X84391158Y-66881879D01*
X84414748Y-66947645D01*
X84399037Y-67015726D01*
X84349013Y-67064504D01*
X84343367Y-67067314D01*
X84167267Y-67149431D01*
X84167265Y-67149432D01*
X83980858Y-67279954D01*
X83819954Y-67440858D01*
X83689432Y-67627265D01*
X83689431Y-67627267D01*
X83593261Y-67833502D01*
X83593258Y-67833511D01*
X83534366Y-68053302D01*
X83534364Y-68053313D01*
X83514532Y-68279998D01*
X83514532Y-68280002D01*
X83518390Y-68324102D01*
X83504623Y-68392602D01*
X83456008Y-68442785D01*
X83387979Y-68458718D01*
X83322135Y-68435342D01*
X83307181Y-68422590D01*
X78536818Y-63652227D01*
X78503333Y-63590904D01*
X78500499Y-63564546D01*
X78500499Y-62352129D01*
X78500498Y-62352123D01*
X78494091Y-62292516D01*
X78443797Y-62157671D01*
X78443793Y-62157664D01*
X78357547Y-62042455D01*
X78357544Y-62042452D01*
X78242335Y-61956206D01*
X78242328Y-61956202D01*
X78107482Y-61905908D01*
X78107483Y-61905908D01*
X78047883Y-61899501D01*
X78047881Y-61899500D01*
X78047873Y-61899500D01*
X78047864Y-61899500D01*
X76352129Y-61899500D01*
X76352123Y-61899501D01*
X76292514Y-61905909D01*
X76217832Y-61933763D01*
X76148140Y-61938747D01*
X76086817Y-61905261D01*
X76053333Y-61843937D01*
X76050500Y-61817581D01*
X76050500Y-60249999D01*
X78544859Y-60249999D01*
X78544859Y-60250000D01*
X78565378Y-60471439D01*
X78626240Y-60685350D01*
X78725364Y-60884419D01*
X78725366Y-60884421D01*
X78741138Y-60905306D01*
X79350000Y-60296445D01*
X79350000Y-60302661D01*
X79377259Y-60404394D01*
X79429920Y-60495606D01*
X79504394Y-60570080D01*
X79595606Y-60622741D01*
X79697339Y-60650000D01*
X79703554Y-60650000D01*
X79096671Y-61256880D01*
X79212823Y-61328798D01*
X79212824Y-61328799D01*
X79420195Y-61409134D01*
X79638807Y-61450000D01*
X79861193Y-61450000D01*
X80079804Y-61409134D01*
X80287177Y-61328798D01*
X80287178Y-61328797D01*
X80403327Y-61256880D01*
X79796447Y-60650000D01*
X79802661Y-60650000D01*
X79904394Y-60622741D01*
X79995606Y-60570080D01*
X80070080Y-60495606D01*
X80122741Y-60404394D01*
X80150000Y-60302661D01*
X80150000Y-60296446D01*
X80758860Y-60905306D01*
X80758861Y-60905306D01*
X80774631Y-60884425D01*
X80774632Y-60884422D01*
X80873759Y-60685350D01*
X80934621Y-60471439D01*
X80955141Y-60250000D01*
X80955141Y-60249999D01*
X80934621Y-60028560D01*
X80873759Y-59814649D01*
X80774633Y-59615577D01*
X80774631Y-59615574D01*
X80758860Y-59594691D01*
X80150000Y-60203552D01*
X80150000Y-60197339D01*
X80122741Y-60095606D01*
X80070080Y-60004394D01*
X79995606Y-59929920D01*
X79904394Y-59877259D01*
X79802661Y-59850000D01*
X79796447Y-59850000D01*
X80403327Y-59243118D01*
X80403326Y-59243117D01*
X80287181Y-59171203D01*
X80287175Y-59171200D01*
X80079804Y-59090865D01*
X79861193Y-59050000D01*
X79638807Y-59050000D01*
X79420195Y-59090865D01*
X79212824Y-59171200D01*
X79212818Y-59171204D01*
X79096672Y-59243117D01*
X79096671Y-59243118D01*
X79703554Y-59850000D01*
X79697339Y-59850000D01*
X79595606Y-59877259D01*
X79504394Y-59929920D01*
X79429920Y-60004394D01*
X79377259Y-60095606D01*
X79350000Y-60197339D01*
X79350000Y-60203553D01*
X78741138Y-59594691D01*
X78741137Y-59594691D01*
X78725369Y-59615571D01*
X78626240Y-59814649D01*
X78565378Y-60028560D01*
X78544859Y-60249999D01*
X76050500Y-60249999D01*
X76050500Y-59113393D01*
X76050499Y-59113389D01*
X76041590Y-59068599D01*
X76026463Y-58992548D01*
X76004490Y-58939500D01*
X75979312Y-58878715D01*
X75949209Y-58833663D01*
X75926148Y-58799150D01*
X75910858Y-58776266D01*
X75820637Y-58686045D01*
X75820606Y-58686016D01*
X74046771Y-56912181D01*
X74013286Y-56850858D01*
X74018270Y-56781166D01*
X74060142Y-56725233D01*
X74125606Y-56700816D01*
X74134452Y-56700500D01*
X81738481Y-56700500D01*
X81805520Y-56720185D01*
G37*
%TD.AperFunction*%
%TA.AperFunction,Conductor*%
G36*
X72531587Y-57170185D02*
G01*
X72552229Y-57186819D01*
X74763181Y-59397771D01*
X74796666Y-59459094D01*
X74799500Y-59485452D01*
X74799500Y-62710953D01*
X74779815Y-62777992D01*
X74727011Y-62823747D01*
X74657853Y-62833691D01*
X74594297Y-62804666D01*
X74591964Y-62802592D01*
X74576261Y-62788278D01*
X74387179Y-62671202D01*
X74387177Y-62671201D01*
X74179804Y-62590865D01*
X73961193Y-62550000D01*
X73738807Y-62550000D01*
X73520195Y-62590865D01*
X73312824Y-62671200D01*
X73312818Y-62671204D01*
X73196672Y-62743117D01*
X73196671Y-62743118D01*
X73803553Y-63350000D01*
X73797339Y-63350000D01*
X73695606Y-63377259D01*
X73604394Y-63429920D01*
X73529920Y-63504394D01*
X73477259Y-63595606D01*
X73450000Y-63697339D01*
X73450000Y-63703553D01*
X72841138Y-63094691D01*
X72841137Y-63094691D01*
X72825369Y-63115571D01*
X72726240Y-63314649D01*
X72669267Y-63514893D01*
X72631987Y-63573986D01*
X72568678Y-63603544D01*
X72499438Y-63594182D01*
X72446252Y-63548873D01*
X72430733Y-63514893D01*
X72373759Y-63314649D01*
X72274633Y-63115577D01*
X72274631Y-63115574D01*
X72258860Y-63094691D01*
X71650000Y-63703552D01*
X71650000Y-63697339D01*
X71622741Y-63595606D01*
X71570080Y-63504394D01*
X71495606Y-63429920D01*
X71404394Y-63377259D01*
X71302661Y-63350000D01*
X71296447Y-63350000D01*
X71903327Y-62743118D01*
X71903326Y-62743117D01*
X71787181Y-62671203D01*
X71787175Y-62671200D01*
X71579804Y-62590865D01*
X71361193Y-62550000D01*
X71138807Y-62550000D01*
X70920195Y-62590865D01*
X70712824Y-62671200D01*
X70712818Y-62671204D01*
X70596672Y-62743117D01*
X70596671Y-62743118D01*
X71203554Y-63350000D01*
X71197339Y-63350000D01*
X71095606Y-63377259D01*
X71004394Y-63429920D01*
X70929920Y-63504394D01*
X70877259Y-63595606D01*
X70850000Y-63697339D01*
X70850000Y-63703553D01*
X70241138Y-63094691D01*
X70241137Y-63094691D01*
X70225369Y-63115571D01*
X70126240Y-63314649D01*
X70065378Y-63528560D01*
X70044859Y-63749999D01*
X70044859Y-63750000D01*
X70065378Y-63971439D01*
X70126240Y-64185350D01*
X70225364Y-64384419D01*
X70225366Y-64384421D01*
X70241138Y-64405306D01*
X70850000Y-63796445D01*
X70850000Y-63802661D01*
X70877259Y-63904394D01*
X70929920Y-63995606D01*
X71004394Y-64070080D01*
X71095606Y-64122741D01*
X71197339Y-64150000D01*
X71203554Y-64150000D01*
X70596671Y-64756880D01*
X70712823Y-64828798D01*
X70712824Y-64828799D01*
X70920195Y-64909134D01*
X71138807Y-64950000D01*
X71361193Y-64950000D01*
X71579804Y-64909134D01*
X71787177Y-64828798D01*
X71787178Y-64828797D01*
X71903327Y-64756880D01*
X71296447Y-64150000D01*
X71302661Y-64150000D01*
X71404394Y-64122741D01*
X71495606Y-64070080D01*
X71570080Y-63995606D01*
X71622741Y-63904394D01*
X71650000Y-63802661D01*
X71650000Y-63796446D01*
X72258860Y-64405306D01*
X72258861Y-64405306D01*
X72274631Y-64384425D01*
X72274632Y-64384422D01*
X72373760Y-64185349D01*
X72430733Y-63985107D01*
X72468012Y-63926013D01*
X72531322Y-63896455D01*
X72600562Y-63905817D01*
X72653748Y-63951126D01*
X72669267Y-63985107D01*
X72726239Y-64185349D01*
X72825364Y-64384419D01*
X72825366Y-64384421D01*
X72841138Y-64405306D01*
X73450000Y-63796445D01*
X73450000Y-63802661D01*
X73477259Y-63904394D01*
X73529920Y-63995606D01*
X73604394Y-64070080D01*
X73695606Y-64122741D01*
X73797339Y-64150000D01*
X73803552Y-64150000D01*
X73196671Y-64756880D01*
X73312823Y-64828798D01*
X73312824Y-64828799D01*
X73520195Y-64909134D01*
X73738807Y-64950000D01*
X73961193Y-64950000D01*
X74179804Y-64909134D01*
X74387177Y-64828798D01*
X74387179Y-64828797D01*
X74576258Y-64711723D01*
X74591961Y-64697409D01*
X74654766Y-64666792D01*
X74724153Y-64674989D01*
X74778093Y-64719399D01*
X74799461Y-64785921D01*
X74799500Y-64789046D01*
X74799500Y-66140547D01*
X74779815Y-66207586D01*
X74727011Y-66253341D01*
X74657853Y-66263285D01*
X74594297Y-66234260D01*
X74587819Y-66228229D01*
X74534939Y-66175349D01*
X74460859Y-66101269D01*
X74460858Y-66101267D01*
X74373733Y-66014142D01*
X74373732Y-66014141D01*
X74373731Y-66014140D01*
X74322509Y-65979915D01*
X74271287Y-65945689D01*
X74271286Y-65945688D01*
X74271283Y-65945686D01*
X74271280Y-65945685D01*
X74190792Y-65912347D01*
X74157452Y-65898537D01*
X74157448Y-65898536D01*
X74157444Y-65898535D01*
X74093888Y-65885893D01*
X74093887Y-65885893D01*
X74036611Y-65874500D01*
X74036607Y-65874500D01*
X74036606Y-65874500D01*
X63130453Y-65874500D01*
X63063414Y-65854815D01*
X63042772Y-65838181D01*
X61110237Y-63905647D01*
X61076752Y-63844324D01*
X61078143Y-63785872D01*
X61087755Y-63750000D01*
X61087755Y-63749999D01*
X62044859Y-63749999D01*
X62044859Y-63750000D01*
X62065378Y-63971439D01*
X62126240Y-64185350D01*
X62225364Y-64384419D01*
X62225366Y-64384421D01*
X62241138Y-64405306D01*
X62850000Y-63796445D01*
X62850000Y-63802661D01*
X62877259Y-63904394D01*
X62929920Y-63995606D01*
X63004394Y-64070080D01*
X63095606Y-64122741D01*
X63197339Y-64150000D01*
X63203554Y-64150000D01*
X62596671Y-64756880D01*
X62712823Y-64828798D01*
X62712824Y-64828799D01*
X62920195Y-64909134D01*
X63138807Y-64950000D01*
X63361193Y-64950000D01*
X63579804Y-64909134D01*
X63787177Y-64828798D01*
X63787178Y-64828797D01*
X63903327Y-64756880D01*
X63296447Y-64150000D01*
X63302661Y-64150000D01*
X63404394Y-64122741D01*
X63495606Y-64070080D01*
X63570080Y-63995606D01*
X63622741Y-63904394D01*
X63650000Y-63802661D01*
X63650000Y-63796446D01*
X64258860Y-64405306D01*
X64258861Y-64405306D01*
X64274631Y-64384425D01*
X64274632Y-64384422D01*
X64373760Y-64185349D01*
X64380733Y-64160842D01*
X64418012Y-64101749D01*
X64481321Y-64072190D01*
X64550561Y-64081551D01*
X64603748Y-64126860D01*
X64619267Y-64160842D01*
X64626239Y-64185349D01*
X64725364Y-64384419D01*
X64725366Y-64384421D01*
X64741138Y-64405306D01*
X65350000Y-63796445D01*
X65350000Y-63802661D01*
X65377259Y-63904394D01*
X65429920Y-63995606D01*
X65504394Y-64070080D01*
X65595606Y-64122741D01*
X65697339Y-64150000D01*
X65703554Y-64150000D01*
X65096671Y-64756880D01*
X65212823Y-64828798D01*
X65212824Y-64828799D01*
X65420195Y-64909134D01*
X65638807Y-64950000D01*
X65861193Y-64950000D01*
X66079804Y-64909134D01*
X66287177Y-64828798D01*
X66287178Y-64828797D01*
X66403327Y-64756880D01*
X65796447Y-64150000D01*
X65802661Y-64150000D01*
X65904394Y-64122741D01*
X65995606Y-64070080D01*
X66070080Y-63995606D01*
X66122741Y-63904394D01*
X66150000Y-63802661D01*
X66150000Y-63796446D01*
X66758860Y-64405306D01*
X66758861Y-64405306D01*
X66774631Y-64384425D01*
X66774632Y-64384422D01*
X66873759Y-64185350D01*
X66934621Y-63971439D01*
X66955141Y-63750000D01*
X66955141Y-63749999D01*
X67294859Y-63749999D01*
X67294859Y-63750000D01*
X67315378Y-63971439D01*
X67376240Y-64185350D01*
X67475364Y-64384419D01*
X67475366Y-64384421D01*
X67491138Y-64405306D01*
X68100000Y-63796445D01*
X68100000Y-63802661D01*
X68127259Y-63904394D01*
X68179920Y-63995606D01*
X68254394Y-64070080D01*
X68345606Y-64122741D01*
X68447339Y-64150000D01*
X68453554Y-64150000D01*
X67846671Y-64756880D01*
X67962823Y-64828798D01*
X67962824Y-64828799D01*
X68170195Y-64909134D01*
X68388807Y-64950000D01*
X68611193Y-64950000D01*
X68829804Y-64909134D01*
X69037177Y-64828798D01*
X69037178Y-64828797D01*
X69153327Y-64756880D01*
X68546447Y-64150000D01*
X68552661Y-64150000D01*
X68654394Y-64122741D01*
X68745606Y-64070080D01*
X68820080Y-63995606D01*
X68872741Y-63904394D01*
X68900000Y-63802661D01*
X68900000Y-63796446D01*
X69508860Y-64405306D01*
X69508861Y-64405306D01*
X69524631Y-64384425D01*
X69524632Y-64384422D01*
X69623759Y-64185350D01*
X69684621Y-63971439D01*
X69705141Y-63750000D01*
X69705141Y-63749999D01*
X69684621Y-63528560D01*
X69623759Y-63314649D01*
X69524633Y-63115577D01*
X69524631Y-63115574D01*
X69508860Y-63094691D01*
X68900000Y-63703552D01*
X68900000Y-63697339D01*
X68872741Y-63595606D01*
X68820080Y-63504394D01*
X68745606Y-63429920D01*
X68654394Y-63377259D01*
X68552661Y-63350000D01*
X68546447Y-63350000D01*
X69153327Y-62743118D01*
X69153326Y-62743117D01*
X69037181Y-62671203D01*
X69037175Y-62671200D01*
X68829804Y-62590865D01*
X68611193Y-62550000D01*
X68388807Y-62550000D01*
X68170195Y-62590865D01*
X67962824Y-62671200D01*
X67962818Y-62671204D01*
X67846672Y-62743117D01*
X67846671Y-62743118D01*
X68453554Y-63350000D01*
X68447339Y-63350000D01*
X68345606Y-63377259D01*
X68254394Y-63429920D01*
X68179920Y-63504394D01*
X68127259Y-63595606D01*
X68100000Y-63697339D01*
X68100000Y-63703553D01*
X67491138Y-63094691D01*
X67491137Y-63094691D01*
X67475369Y-63115571D01*
X67376240Y-63314649D01*
X67315378Y-63528560D01*
X67294859Y-63749999D01*
X66955141Y-63749999D01*
X66934621Y-63528560D01*
X66873759Y-63314649D01*
X66774633Y-63115577D01*
X66774631Y-63115574D01*
X66758860Y-63094691D01*
X66150000Y-63703552D01*
X66150000Y-63697339D01*
X66122741Y-63595606D01*
X66070080Y-63504394D01*
X65995606Y-63429920D01*
X65904394Y-63377259D01*
X65802661Y-63350000D01*
X65796447Y-63350000D01*
X66403327Y-62743118D01*
X66403326Y-62743117D01*
X66287181Y-62671203D01*
X66287175Y-62671200D01*
X66079804Y-62590865D01*
X65861193Y-62550000D01*
X65638807Y-62550000D01*
X65420195Y-62590865D01*
X65212824Y-62671200D01*
X65212818Y-62671204D01*
X65096672Y-62743117D01*
X65096671Y-62743118D01*
X65703554Y-63350000D01*
X65697339Y-63350000D01*
X65595606Y-63377259D01*
X65504394Y-63429920D01*
X65429920Y-63504394D01*
X65377259Y-63595606D01*
X65350000Y-63697339D01*
X65350000Y-63703553D01*
X64741138Y-63094691D01*
X64741137Y-63094691D01*
X64725369Y-63115571D01*
X64626240Y-63314649D01*
X64619267Y-63339158D01*
X64581987Y-63398251D01*
X64518678Y-63427809D01*
X64449438Y-63418447D01*
X64396252Y-63373138D01*
X64380733Y-63339158D01*
X64373759Y-63314649D01*
X64274633Y-63115577D01*
X64274631Y-63115574D01*
X64258860Y-63094691D01*
X63650000Y-63703552D01*
X63650000Y-63697339D01*
X63622741Y-63595606D01*
X63570080Y-63504394D01*
X63495606Y-63429920D01*
X63404394Y-63377259D01*
X63302661Y-63350000D01*
X63296447Y-63350000D01*
X63903327Y-62743118D01*
X63903326Y-62743117D01*
X63787181Y-62671203D01*
X63787175Y-62671200D01*
X63579804Y-62590865D01*
X63361193Y-62550000D01*
X63138807Y-62550000D01*
X62920195Y-62590865D01*
X62712824Y-62671200D01*
X62712818Y-62671204D01*
X62596672Y-62743117D01*
X62596671Y-62743118D01*
X63203554Y-63350000D01*
X63197339Y-63350000D01*
X63095606Y-63377259D01*
X63004394Y-63429920D01*
X62929920Y-63504394D01*
X62877259Y-63595606D01*
X62850000Y-63697339D01*
X62850000Y-63703553D01*
X62241138Y-63094691D01*
X62241137Y-63094691D01*
X62225369Y-63115571D01*
X62126240Y-63314649D01*
X62065378Y-63528560D01*
X62044859Y-63749999D01*
X61087755Y-63749999D01*
X61105063Y-63685408D01*
X61125659Y-63450000D01*
X61123717Y-63427809D01*
X61117033Y-63351402D01*
X61105063Y-63214592D01*
X61043903Y-62986337D01*
X60944035Y-62772171D01*
X60938425Y-62764158D01*
X60808494Y-62578597D01*
X60641402Y-62411506D01*
X60641396Y-62411501D01*
X60455842Y-62281575D01*
X60412217Y-62226998D01*
X60405023Y-62157500D01*
X60436546Y-62095145D01*
X60455842Y-62078425D01*
X60507214Y-62042454D01*
X60641401Y-61948495D01*
X60808495Y-61781401D01*
X60944035Y-61587830D01*
X61043903Y-61373663D01*
X61105063Y-61145408D01*
X61125659Y-60910000D01*
X61105063Y-60674592D01*
X61052038Y-60476697D01*
X61043905Y-60446344D01*
X61043904Y-60446343D01*
X61043903Y-60446337D01*
X60944035Y-60232171D01*
X60938425Y-60224158D01*
X60808494Y-60038597D01*
X60641402Y-59871506D01*
X60641395Y-59871501D01*
X60447834Y-59735967D01*
X60447830Y-59735965D01*
X60447828Y-59735964D01*
X60364133Y-59696936D01*
X60311695Y-59650765D01*
X60292543Y-59583571D01*
X60312759Y-59516690D01*
X60364135Y-59472172D01*
X60397389Y-59456665D01*
X60576554Y-59331212D01*
X60731212Y-59176554D01*
X60856666Y-58997387D01*
X60949101Y-58799159D01*
X60949105Y-58799150D01*
X60997108Y-58620000D01*
X60203012Y-58620000D01*
X60235925Y-58562993D01*
X60270000Y-58435826D01*
X60270000Y-58304174D01*
X60235925Y-58177007D01*
X60203012Y-58120000D01*
X60997108Y-58120000D01*
X60997108Y-58119999D01*
X60949105Y-57940849D01*
X60949101Y-57940840D01*
X60856666Y-57742612D01*
X60856664Y-57742608D01*
X60731216Y-57563450D01*
X60731211Y-57563444D01*
X60576554Y-57408787D01*
X60529836Y-57376075D01*
X60486211Y-57321498D01*
X60479019Y-57251999D01*
X60510541Y-57189645D01*
X60570771Y-57154231D01*
X60600960Y-57150500D01*
X72464548Y-57150500D01*
X72531587Y-57170185D01*
G37*
%TD.AperFunction*%
%TD*%
M02*
