%TF.GenerationSoftware,KiCad,Pcbnew,8.0.7*%
%TF.CreationDate,2025-02-20T21:39:26+00:00*%
%TF.ProjectId,RPi-MiniDexed-EuroRack,5250692d-4d69-46e6-9944-657865642d45,rev?*%
%TF.SameCoordinates,Original*%
%TF.FileFunction,Soldermask,Top*%
%TF.FilePolarity,Negative*%
%FSLAX46Y46*%
G04 Gerber Fmt 4.6, Leading zero omitted, Abs format (unit mm)*
G04 Created by KiCad (PCBNEW 8.0.7) date 2025-02-20 21:39:26*
%MOMM*%
%LPD*%
G01*
G04 APERTURE LIST*
G04 Aperture macros list*
%AMRoundRect*
0 Rectangle with rounded corners*
0 $1 Rounding radius*
0 $2 $3 $4 $5 $6 $7 $8 $9 X,Y pos of 4 corners*
0 Add a 4 corners polygon primitive as box body*
4,1,4,$2,$3,$4,$5,$6,$7,$8,$9,$2,$3,0*
0 Add four circle primitives for the rounded corners*
1,1,$1+$1,$2,$3*
1,1,$1+$1,$4,$5*
1,1,$1+$1,$6,$7*
1,1,$1+$1,$8,$9*
0 Add four rect primitives between the rounded corners*
20,1,$1+$1,$2,$3,$4,$5,0*
20,1,$1+$1,$4,$5,$6,$7,0*
20,1,$1+$1,$6,$7,$8,$9,0*
20,1,$1+$1,$8,$9,$2,$3,0*%
G04 Aperture macros list end*
%ADD10R,1.700000X1.700000*%
%ADD11O,1.700000X1.700000*%
%ADD12O,2.000000X1.905000*%
%ADD13R,2.000000X1.905000*%
%ADD14C,3.500000*%
%ADD15C,2.700000*%
%ADD16R,1.600000X1.600000*%
%ADD17O,1.600000X1.600000*%
%ADD18O,2.000000X2.000000*%
%ADD19C,2.000000*%
%ADD20C,3.200000*%
%ADD21C,1.600000*%
%ADD22O,2.200000X2.200000*%
%ADD23R,2.200000X2.200000*%
%ADD24RoundRect,0.250000X0.600000X-0.600000X0.600000X0.600000X-0.600000X0.600000X-0.600000X-0.600000X0*%
%ADD25C,1.700000*%
G04 APERTURE END LIST*
D10*
%TO.C,J9*%
X53350000Y-134625000D03*
D11*
X53350000Y-132085000D03*
X53350000Y-129545000D03*
%TD*%
D12*
%TO.C,U2*%
X55500000Y-124580000D03*
X55500000Y-122040000D03*
D13*
X55500000Y-119500000D03*
D14*
X72160000Y-122040000D03*
%TD*%
D13*
%TO.C,U3*%
X55500000Y-119500000D03*
D12*
X55500000Y-122040000D03*
X55500000Y-124580000D03*
%TD*%
D15*
%TO.C,MK1*%
X58500000Y-53500000D03*
%TD*%
D16*
%TO.C,U1*%
X77200000Y-63200000D03*
D17*
X77200000Y-65740000D03*
X77200000Y-68280000D03*
X84820000Y-68280000D03*
X84820000Y-65740000D03*
X84820000Y-63200000D03*
%TD*%
D15*
%TO.C,MK3*%
X58500000Y-111500000D03*
%TD*%
D18*
%TO.C,SW1*%
X72540000Y-84750000D03*
D19*
X67540000Y-84750000D03*
X70040000Y-84750000D03*
D20*
X75640000Y-92250000D03*
X64440000Y-92250000D03*
D19*
X67540000Y-99250000D03*
X72540000Y-99250000D03*
%TD*%
D21*
%TO.C,C7*%
X65750000Y-63750000D03*
X65750000Y-68750000D03*
%TD*%
%TO.C,C2*%
X68500000Y-68750000D03*
X68500000Y-63750000D03*
%TD*%
%TO.C,C5*%
X73750000Y-102500000D03*
X68750000Y-102500000D03*
%TD*%
D10*
%TO.C,J2*%
X53486000Y-67560000D03*
D11*
X53486000Y-65020000D03*
X53486000Y-62480000D03*
X53486000Y-59940000D03*
%TD*%
D10*
%TO.C,J7*%
X87500000Y-123525000D03*
D11*
X87500000Y-120985000D03*
%TD*%
D21*
%TO.C,C1*%
X84750000Y-60250000D03*
X79750000Y-60250000D03*
%TD*%
D15*
%TO.C,MK4*%
X81500000Y-111500000D03*
%TD*%
D21*
%TO.C,R2*%
X88250000Y-63250000D03*
D17*
X88250000Y-70870000D03*
%TD*%
D21*
%TO.C,C4*%
X73850000Y-68750000D03*
X73850000Y-63750000D03*
%TD*%
D10*
%TO.C,J6*%
X87500000Y-127750000D03*
D11*
X87500000Y-130290000D03*
X87500000Y-132830000D03*
%TD*%
D15*
%TO.C,MK2*%
X81500000Y-53500000D03*
%TD*%
D21*
%TO.C,C6*%
X63250000Y-63750000D03*
X63250000Y-68750000D03*
%TD*%
%TO.C,R1*%
X87500000Y-83620000D03*
D17*
X87500000Y-76000000D03*
%TD*%
D21*
%TO.C,C3*%
X71250000Y-68750000D03*
X71250000Y-63750000D03*
%TD*%
D19*
%TO.C,SW3*%
X76750000Y-74000000D03*
X76750000Y-80500000D03*
X72250000Y-74000000D03*
X72250000Y-80500000D03*
%TD*%
%TO.C,SW2*%
X67750000Y-74000000D03*
X67750000Y-80500000D03*
X63250000Y-74000000D03*
X63250000Y-80500000D03*
%TD*%
D16*
%TO.C,D1*%
X87560000Y-73500000D03*
D17*
X79940000Y-73500000D03*
%TD*%
D22*
%TO.C,D2*%
X78450000Y-126305000D03*
D23*
X78450000Y-116145000D03*
%TD*%
D10*
%TO.C,P1*%
X59770000Y-106630000D03*
D11*
X57230000Y-106630000D03*
X59770000Y-104090000D03*
X57230000Y-104090000D03*
X59770000Y-101550000D03*
X57230000Y-101550000D03*
X59770000Y-99010000D03*
X57230000Y-99010000D03*
X59770000Y-96470000D03*
X57230000Y-96470000D03*
X59770000Y-93930000D03*
X57230000Y-93930000D03*
X59770000Y-91390000D03*
X57230000Y-91390000D03*
X59770000Y-88850000D03*
X57230000Y-88850000D03*
X59770000Y-86310000D03*
X57230000Y-86310000D03*
X59770000Y-83770000D03*
X57230000Y-83770000D03*
X59770000Y-81230000D03*
X57230000Y-81230000D03*
X59770000Y-78690000D03*
X57230000Y-78690000D03*
X59770000Y-76150000D03*
X57230000Y-76150000D03*
X59770000Y-73610000D03*
X57230000Y-73610000D03*
X59770000Y-71070000D03*
X57230000Y-71070000D03*
X59770000Y-68530000D03*
X57230000Y-68530000D03*
X59770000Y-65990000D03*
X57230000Y-65990000D03*
X59770000Y-63450000D03*
X57230000Y-63450000D03*
X59770000Y-60910000D03*
X57230000Y-60910000D03*
X59770000Y-58370000D03*
X57230000Y-58370000D03*
%TD*%
D16*
%TO.C,C9*%
X74750000Y-110750000D03*
D21*
X72250000Y-110750000D03*
%TD*%
D24*
%TO.C,J8*%
X78870000Y-134000000D03*
D25*
X78870000Y-131460000D03*
X76330000Y-134000000D03*
X76330000Y-131460000D03*
X73790000Y-134000000D03*
X73790000Y-131460000D03*
X71250000Y-134000000D03*
X71250000Y-131460000D03*
X68710000Y-134000000D03*
X68710000Y-131460000D03*
X66170000Y-134000000D03*
X66170000Y-131460000D03*
X63630000Y-134000000D03*
X63630000Y-131460000D03*
X61090000Y-134000000D03*
X61090000Y-131460000D03*
%TD*%
D21*
%TO.C,C10*%
X81875000Y-119200000D03*
X81875000Y-124200000D03*
%TD*%
D16*
%TO.C,C8*%
X64750000Y-110750000D03*
D21*
X67250000Y-110750000D03*
%TD*%
D25*
%TO.C,A1*%
X81350000Y-105055000D03*
X78810000Y-105055000D03*
X76270000Y-105055000D03*
X73730000Y-105055000D03*
X71190000Y-105055000D03*
X68650000Y-105055000D03*
X81985000Y-78385000D03*
X81985000Y-80925000D03*
X81985000Y-83465000D03*
X81985000Y-86005000D03*
X81985000Y-88545000D03*
X81985000Y-91085000D03*
X81985000Y-93625000D03*
X81985000Y-96165000D03*
X81985000Y-98705000D03*
%TD*%
M02*
