M48
; DRILL file {KiCad 8.0.7} date 2025-02-20T21:39:28+0000
; FORMAT={-:-/ absolute / inch / decimal}
; #@! TF.CreationDate,2025-02-20T21:39:28+00:00
; #@! TF.GenerationSoftware,Kicad,Pcbnew,8.0.7
; #@! TF.FileFunction,MixedPlating,1,2
FMAT,2
INCH
; #@! TA.AperFunction,Plated,PTH,ViaDrill
T1C0.0118
; #@! TA.AperFunction,Plated,PTH,ComponentDrill
T2C0.0315
; #@! TA.AperFunction,Plated,PTH,ComponentDrill
T3C0.0394
; #@! TA.AperFunction,Plated,PTH,ComponentDrill
T4C0.0433
; #@! TA.AperFunction,Plated,PTH,ComponentDrill
T5C0.1024
; #@! TA.AperFunction,NonPlated,NPTH,ComponentDrill
T6C0.1063
; #@! TA.AperFunction,NonPlated,NPTH,ComponentDrill
T7C0.1378
%
G90
G05
T1
X2.9724Y-3.8681
X3.002Y-3.7894
X3.1496Y-3.0118
T2
X2.4902Y-2.5098
X2.4902Y-2.7067
X2.5492Y-4.3602
X2.5886Y-2.5098
X2.5886Y-2.7067
X2.6476Y-4.3602
X2.6969Y-2.5098
X2.6969Y-2.7067
X2.7067Y-4.0354
X2.8051Y-2.5098
X2.8051Y-2.7067
X2.8445Y-4.3602
X2.9035Y-4.0354
X2.9075Y-2.5098
X2.9075Y-2.7067
X2.9429Y-4.3602
X3.0394Y-2.4882
X3.0394Y-2.5882
X3.0394Y-2.6882
X3.1398Y-2.372
X3.1472Y-2.8937
X3.2234Y-4.6929
X3.2234Y-4.8898
X3.3366Y-2.372
X3.3394Y-2.4882
X3.3394Y-2.5882
X3.3394Y-2.6882
X3.4449Y-2.9921
X3.4449Y-3.2921
X3.4472Y-2.8937
X3.4744Y-2.4902
X3.4744Y-2.7902
T3
X2.1004Y-5.1002
X2.1004Y-5.2002
X2.1004Y-5.3002
X2.1057Y-2.3598
X2.1057Y-2.4598
X2.1057Y-2.5598
X2.1057Y-2.6598
X2.2531Y-2.298
X2.2531Y-2.398
X2.2531Y-2.498
X2.2531Y-2.598
X2.2531Y-2.698
X2.2531Y-2.798
X2.2531Y-2.898
X2.2531Y-2.998
X2.2531Y-3.098
X2.2531Y-3.198
X2.2531Y-3.298
X2.2531Y-3.398
X2.2531Y-3.498
X2.2531Y-3.598
X2.2531Y-3.698
X2.2531Y-3.798
X2.2531Y-3.898
X2.2531Y-3.998
X2.2531Y-4.098
X2.2531Y-4.198
X2.3531Y-2.298
X2.3531Y-2.398
X2.3531Y-2.498
X2.3531Y-2.598
X2.3531Y-2.698
X2.3531Y-2.798
X2.3531Y-2.898
X2.3531Y-2.998
X2.3531Y-3.098
X2.3531Y-3.198
X2.3531Y-3.298
X2.3531Y-3.398
X2.3531Y-3.498
X2.3531Y-3.598
X2.3531Y-3.698
X2.3531Y-3.798
X2.3531Y-3.898
X2.3531Y-3.998
X2.3531Y-4.098
X2.3531Y-4.198
X2.4051Y-5.1756
X2.4051Y-5.2756
X2.5051Y-5.1756
X2.5051Y-5.2756
X2.6051Y-5.1756
X2.6051Y-5.2756
X2.6591Y-3.3366
X2.6591Y-3.9075
X2.7028Y-4.136
X2.7051Y-5.1756
X2.7051Y-5.2756
X2.7575Y-3.3366
X2.8028Y-4.136
X2.8051Y-5.1756
X2.8051Y-5.2756
X2.8559Y-3.3366
X2.8559Y-3.9075
X2.9028Y-4.136
X2.9051Y-5.1756
X2.9051Y-5.2756
X3.0028Y-4.136
X3.0051Y-5.1756
X3.0051Y-5.2756
X3.1028Y-4.136
X3.1051Y-5.1756
X3.1051Y-5.2756
X3.2028Y-4.136
X3.2278Y-3.086
X3.2278Y-3.186
X3.2278Y-3.286
X3.2278Y-3.386
X3.2278Y-3.486
X3.2278Y-3.586
X3.2278Y-3.686
X3.2278Y-3.786
X3.2278Y-3.886
X3.4449Y-4.7632
X3.4449Y-4.8632
X3.4449Y-5.0295
X3.4449Y-5.1295
X3.4449Y-5.2295
T4
X2.185Y-4.7047
X2.185Y-4.7047
X2.185Y-4.8047
X2.185Y-4.8047
X2.185Y-4.9047
X2.185Y-4.9047
X2.4902Y-2.9134
X2.4902Y-3.1693
X2.6673Y-2.9134
X2.6673Y-3.1693
X2.8445Y-2.9134
X2.8445Y-3.1693
X3.0217Y-2.9134
X3.0217Y-3.1693
X3.0886Y-4.5726
X3.0886Y-4.9726
T5
X2.537Y-3.6319
X2.978Y-3.6319
T6
X2.3031Y-2.1063
X2.3031Y-4.3898
X3.2087Y-2.1063
X3.2087Y-4.3898
T7
X2.8409Y-4.8047
M30
