%TF.GenerationSoftware,KiCad,Pcbnew,8.0.7*%
%TF.CreationDate,2025-02-20T16:23:03+00:00*%
%TF.ProjectId,RPi-MiniDexed-EuroRack-Panel,5250692d-4d69-46e6-9944-657865642d45,rev?*%
%TF.SameCoordinates,Original*%
%TF.FileFunction,Copper,L2,Bot*%
%TF.FilePolarity,Positive*%
%FSLAX46Y46*%
G04 Gerber Fmt 4.6, Leading zero omitted, Abs format (unit mm)*
G04 Created by KiCad (PCBNEW 8.0.7) date 2025-02-20 16:23:03*
%MOMM*%
%LPD*%
G01*
G04 APERTURE LIST*
%TA.AperFunction,SMDPad,CuDef*%
%ADD10R,2.000000X2.000000*%
%TD*%
G04 APERTURE END LIST*
D10*
%TO.P,REF\u002A\u002A,1*%
%TO.N,GND*%
X69750000Y-154750000D03*
%TD*%
%TA.AperFunction,Conductor*%
%TO.N,GND*%
G36*
X89442539Y-36270185D02*
G01*
X89488294Y-36322989D01*
X89499500Y-36374500D01*
X89499500Y-163625500D01*
X89479815Y-163692539D01*
X89427011Y-163738294D01*
X89375500Y-163749500D01*
X50624500Y-163749500D01*
X50557461Y-163729815D01*
X50511706Y-163677011D01*
X50500500Y-163625500D01*
X50500500Y-161128711D01*
X54049500Y-161128711D01*
X54049500Y-161371288D01*
X54081161Y-161611785D01*
X54143947Y-161846104D01*
X54236773Y-162070205D01*
X54236776Y-162070212D01*
X54358064Y-162280289D01*
X54358066Y-162280292D01*
X54358067Y-162280293D01*
X54505733Y-162472736D01*
X54505739Y-162472743D01*
X54677256Y-162644260D01*
X54677262Y-162644265D01*
X54869711Y-162791936D01*
X55079788Y-162913224D01*
X55303900Y-163006054D01*
X55538211Y-163068838D01*
X55718586Y-163092584D01*
X55778711Y-163100500D01*
X55778712Y-163100500D01*
X59221289Y-163100500D01*
X59269388Y-163094167D01*
X59461789Y-163068838D01*
X59696100Y-163006054D01*
X59920212Y-162913224D01*
X60130289Y-162791936D01*
X60322738Y-162644265D01*
X60494265Y-162472738D01*
X60641936Y-162280289D01*
X60763224Y-162070212D01*
X60856054Y-161846100D01*
X60918838Y-161611789D01*
X60950500Y-161371288D01*
X60950500Y-161128712D01*
X60950500Y-161128711D01*
X79049500Y-161128711D01*
X79049500Y-161371288D01*
X79081161Y-161611785D01*
X79143947Y-161846104D01*
X79236773Y-162070205D01*
X79236776Y-162070212D01*
X79358064Y-162280289D01*
X79358066Y-162280292D01*
X79358067Y-162280293D01*
X79505733Y-162472736D01*
X79505739Y-162472743D01*
X79677256Y-162644260D01*
X79677262Y-162644265D01*
X79869711Y-162791936D01*
X80079788Y-162913224D01*
X80303900Y-163006054D01*
X80538211Y-163068838D01*
X80718586Y-163092584D01*
X80778711Y-163100500D01*
X80778712Y-163100500D01*
X84221289Y-163100500D01*
X84269388Y-163094167D01*
X84461789Y-163068838D01*
X84696100Y-163006054D01*
X84920212Y-162913224D01*
X85130289Y-162791936D01*
X85322738Y-162644265D01*
X85494265Y-162472738D01*
X85641936Y-162280289D01*
X85763224Y-162070212D01*
X85856054Y-161846100D01*
X85918838Y-161611789D01*
X85950500Y-161371288D01*
X85950500Y-161128712D01*
X85918838Y-160888211D01*
X85856054Y-160653900D01*
X85763224Y-160429788D01*
X85641936Y-160219711D01*
X85494265Y-160027262D01*
X85494260Y-160027256D01*
X85322743Y-159855739D01*
X85322736Y-159855733D01*
X85130293Y-159708067D01*
X85130292Y-159708066D01*
X85130289Y-159708064D01*
X84920212Y-159586776D01*
X84920205Y-159586773D01*
X84696104Y-159493947D01*
X84461785Y-159431161D01*
X84221289Y-159399500D01*
X84221288Y-159399500D01*
X80778712Y-159399500D01*
X80778711Y-159399500D01*
X80538214Y-159431161D01*
X80303895Y-159493947D01*
X80079794Y-159586773D01*
X80079785Y-159586777D01*
X79869706Y-159708067D01*
X79677263Y-159855733D01*
X79677256Y-159855739D01*
X79505739Y-160027256D01*
X79505733Y-160027263D01*
X79358067Y-160219706D01*
X79236777Y-160429785D01*
X79236773Y-160429794D01*
X79143947Y-160653895D01*
X79081161Y-160888214D01*
X79049500Y-161128711D01*
X60950500Y-161128711D01*
X60918838Y-160888211D01*
X60856054Y-160653900D01*
X60763224Y-160429788D01*
X60641936Y-160219711D01*
X60494265Y-160027262D01*
X60494260Y-160027256D01*
X60322743Y-159855739D01*
X60322736Y-159855733D01*
X60130293Y-159708067D01*
X60130292Y-159708066D01*
X60130289Y-159708064D01*
X59920212Y-159586776D01*
X59920205Y-159586773D01*
X59696104Y-159493947D01*
X59461785Y-159431161D01*
X59221289Y-159399500D01*
X59221288Y-159399500D01*
X55778712Y-159399500D01*
X55778711Y-159399500D01*
X55538214Y-159431161D01*
X55303895Y-159493947D01*
X55079794Y-159586773D01*
X55079785Y-159586777D01*
X54869706Y-159708067D01*
X54677263Y-159855733D01*
X54677256Y-159855739D01*
X54505739Y-160027256D01*
X54505733Y-160027263D01*
X54358067Y-160219706D01*
X54236777Y-160429785D01*
X54236773Y-160429794D01*
X54143947Y-160653895D01*
X54081161Y-160888214D01*
X54049500Y-161128711D01*
X50500500Y-161128711D01*
X50500500Y-155797844D01*
X68250000Y-155797844D01*
X68256401Y-155857372D01*
X68256403Y-155857379D01*
X68306645Y-155992086D01*
X68306649Y-155992093D01*
X68392809Y-156107187D01*
X68392812Y-156107190D01*
X68507906Y-156193350D01*
X68507913Y-156193354D01*
X68642620Y-156243596D01*
X68642627Y-156243598D01*
X68702155Y-156249999D01*
X68702172Y-156250000D01*
X69500000Y-156250000D01*
X70000000Y-156250000D01*
X70797828Y-156250000D01*
X70797844Y-156249999D01*
X70857372Y-156243598D01*
X70857379Y-156243596D01*
X70992086Y-156193354D01*
X70992093Y-156193350D01*
X71107187Y-156107190D01*
X71107190Y-156107187D01*
X71193350Y-155992093D01*
X71193354Y-155992086D01*
X71243596Y-155857379D01*
X71243598Y-155857372D01*
X71249999Y-155797844D01*
X71250000Y-155797827D01*
X71250000Y-155000000D01*
X70000000Y-155000000D01*
X70000000Y-156250000D01*
X69500000Y-156250000D01*
X69500000Y-155000000D01*
X68250000Y-155000000D01*
X68250000Y-155797844D01*
X50500500Y-155797844D01*
X50500500Y-153702155D01*
X68250000Y-153702155D01*
X68250000Y-154500000D01*
X69500000Y-154500000D01*
X70000000Y-154500000D01*
X71250000Y-154500000D01*
X71250000Y-153702172D01*
X71249999Y-153702155D01*
X71243598Y-153642627D01*
X71243596Y-153642620D01*
X71193354Y-153507913D01*
X71193350Y-153507906D01*
X71107190Y-153392812D01*
X71107187Y-153392809D01*
X70992093Y-153306649D01*
X70992086Y-153306645D01*
X70857379Y-153256403D01*
X70857372Y-153256401D01*
X70797844Y-153250000D01*
X70000000Y-153250000D01*
X70000000Y-154500000D01*
X69500000Y-154500000D01*
X69500000Y-153250000D01*
X68702155Y-153250000D01*
X68642627Y-153256401D01*
X68642620Y-153256403D01*
X68507913Y-153306645D01*
X68507906Y-153306649D01*
X68392812Y-153392809D01*
X68392809Y-153392812D01*
X68306649Y-153507906D01*
X68306645Y-153507913D01*
X68256403Y-153642620D01*
X68256401Y-153642627D01*
X68250000Y-153702155D01*
X50500500Y-153702155D01*
X50500500Y-142330491D01*
X56549500Y-142330491D01*
X56549500Y-142669508D01*
X56582729Y-143006901D01*
X56648870Y-143339410D01*
X56747284Y-143663841D01*
X56877024Y-143977060D01*
X56877026Y-143977065D01*
X57036831Y-144276039D01*
X57036842Y-144276057D01*
X57225184Y-144557930D01*
X57225194Y-144557944D01*
X57440269Y-144820014D01*
X57679985Y-145059730D01*
X57679990Y-145059734D01*
X57679991Y-145059735D01*
X57942061Y-145274810D01*
X58223949Y-145463162D01*
X58223958Y-145463167D01*
X58223960Y-145463168D01*
X58522934Y-145622973D01*
X58522936Y-145622973D01*
X58522942Y-145622977D01*
X58836160Y-145752716D01*
X59160586Y-145851129D01*
X59493096Y-145917270D01*
X59830488Y-145950500D01*
X59830491Y-145950500D01*
X60169509Y-145950500D01*
X60169512Y-145950500D01*
X60506904Y-145917270D01*
X60839414Y-145851129D01*
X61163840Y-145752716D01*
X61477058Y-145622977D01*
X61776051Y-145463162D01*
X62057939Y-145274810D01*
X62320009Y-145059735D01*
X62559735Y-144820009D01*
X62774810Y-144557939D01*
X62963162Y-144276051D01*
X63122977Y-143977058D01*
X63252716Y-143663840D01*
X63351129Y-143339414D01*
X63417270Y-143006904D01*
X63450500Y-142669512D01*
X63450500Y-142330488D01*
X63448057Y-142305683D01*
X75549500Y-142305683D01*
X75549500Y-142694316D01*
X75583371Y-143081462D01*
X75583371Y-143081466D01*
X75650853Y-143464172D01*
X75650857Y-143464189D01*
X75751435Y-143839555D01*
X75884362Y-144204768D01*
X76048587Y-144556952D01*
X76048600Y-144556976D01*
X76242905Y-144893521D01*
X76242914Y-144893536D01*
X76465821Y-145211880D01*
X76656358Y-145438952D01*
X76715621Y-145509579D01*
X76990421Y-145784379D01*
X77069971Y-145851129D01*
X77288119Y-146034178D01*
X77288125Y-146034182D01*
X77288126Y-146034183D01*
X77606470Y-146257090D01*
X77921894Y-146439200D01*
X77943023Y-146451399D01*
X77943047Y-146451412D01*
X78295231Y-146615637D01*
X78295236Y-146615638D01*
X78295245Y-146615643D01*
X78660434Y-146748561D01*
X78660440Y-146748562D01*
X78660444Y-146748564D01*
X78762666Y-146775954D01*
X79035818Y-146849145D01*
X79418540Y-146916629D01*
X79805685Y-146950499D01*
X79805686Y-146950500D01*
X79805687Y-146950500D01*
X80194314Y-146950500D01*
X80194314Y-146950499D01*
X80581460Y-146916629D01*
X80964182Y-146849145D01*
X81339566Y-146748561D01*
X81704755Y-146615643D01*
X81704768Y-146615637D01*
X82056952Y-146451412D01*
X82056960Y-146451407D01*
X82056970Y-146451403D01*
X82393530Y-146257090D01*
X82711874Y-146034183D01*
X83009579Y-145784379D01*
X83284379Y-145509579D01*
X83534183Y-145211874D01*
X83757090Y-144893530D01*
X83951403Y-144556970D01*
X83951407Y-144556960D01*
X83951412Y-144556952D01*
X84115637Y-144204768D01*
X84115637Y-144204767D01*
X84115643Y-144204755D01*
X84248561Y-143839566D01*
X84349145Y-143464182D01*
X84416629Y-143081460D01*
X84450500Y-142694313D01*
X84450500Y-142305687D01*
X84416629Y-141918540D01*
X84349145Y-141535818D01*
X84248561Y-141160434D01*
X84115643Y-140795245D01*
X84115638Y-140795236D01*
X84115637Y-140795231D01*
X83951412Y-140443047D01*
X83951399Y-140443023D01*
X83799537Y-140179991D01*
X83757090Y-140106470D01*
X83534183Y-139788126D01*
X83534182Y-139788125D01*
X83534178Y-139788119D01*
X83323327Y-139536838D01*
X83284379Y-139490421D01*
X83009579Y-139215621D01*
X82851206Y-139082730D01*
X82711880Y-138965821D01*
X82393536Y-138742914D01*
X82393533Y-138742912D01*
X82393530Y-138742910D01*
X82293538Y-138685179D01*
X82056976Y-138548600D01*
X82056952Y-138548587D01*
X81704768Y-138384362D01*
X81704757Y-138384358D01*
X81704755Y-138384357D01*
X81339566Y-138251439D01*
X81339565Y-138251438D01*
X81339555Y-138251435D01*
X80964189Y-138150857D01*
X80964192Y-138150857D01*
X80964182Y-138150855D01*
X80964176Y-138150853D01*
X80964172Y-138150853D01*
X80581464Y-138083371D01*
X80194316Y-138049500D01*
X80194313Y-138049500D01*
X79805687Y-138049500D01*
X79805683Y-138049500D01*
X79418537Y-138083371D01*
X79418533Y-138083371D01*
X79035827Y-138150853D01*
X79035810Y-138150857D01*
X78660444Y-138251435D01*
X78295231Y-138384362D01*
X77943047Y-138548587D01*
X77943023Y-138548600D01*
X77606478Y-138742905D01*
X77606463Y-138742914D01*
X77288119Y-138965821D01*
X76990418Y-139215623D01*
X76715623Y-139490418D01*
X76465821Y-139788119D01*
X76242914Y-140106463D01*
X76242905Y-140106478D01*
X76048600Y-140443023D01*
X76048587Y-140443047D01*
X75884362Y-140795231D01*
X75751435Y-141160444D01*
X75650857Y-141535810D01*
X75650853Y-141535827D01*
X75583371Y-141918533D01*
X75583371Y-141918537D01*
X75549500Y-142305683D01*
X63448057Y-142305683D01*
X63417270Y-141993096D01*
X63351129Y-141660586D01*
X63252716Y-141336160D01*
X63122977Y-141022942D01*
X63001270Y-140795245D01*
X62963168Y-140723960D01*
X62963167Y-140723958D01*
X62963162Y-140723949D01*
X62774810Y-140442061D01*
X62559735Y-140179991D01*
X62559734Y-140179990D01*
X62559730Y-140179985D01*
X62320014Y-139940269D01*
X62057944Y-139725194D01*
X62057943Y-139725193D01*
X62057939Y-139725190D01*
X61776051Y-139536838D01*
X61776046Y-139536835D01*
X61776039Y-139536831D01*
X61477065Y-139377026D01*
X61477060Y-139377024D01*
X61163841Y-139247284D01*
X60973382Y-139189509D01*
X60839414Y-139148871D01*
X60839411Y-139148870D01*
X60839410Y-139148870D01*
X60506901Y-139082729D01*
X60269199Y-139059318D01*
X60169512Y-139049500D01*
X59830488Y-139049500D01*
X59739738Y-139058437D01*
X59493098Y-139082729D01*
X59160589Y-139148870D01*
X58836158Y-139247284D01*
X58522939Y-139377024D01*
X58522934Y-139377026D01*
X58223960Y-139536831D01*
X58223942Y-139536842D01*
X57942069Y-139725184D01*
X57942055Y-139725194D01*
X57679985Y-139940269D01*
X57440269Y-140179985D01*
X57225194Y-140442055D01*
X57225184Y-140442069D01*
X57036842Y-140723942D01*
X57036831Y-140723960D01*
X56877026Y-141022934D01*
X56877024Y-141022939D01*
X56747284Y-141336158D01*
X56648870Y-141660589D01*
X56582729Y-141993098D01*
X56549500Y-142330491D01*
X50500500Y-142330491D01*
X50500500Y-111374038D01*
X56899500Y-111374038D01*
X56899500Y-111625961D01*
X56938910Y-111874785D01*
X57016760Y-112114383D01*
X57131132Y-112338848D01*
X57279201Y-112542649D01*
X57279205Y-112542654D01*
X57457345Y-112720794D01*
X57457350Y-112720798D01*
X57635117Y-112849952D01*
X57661155Y-112868870D01*
X57804184Y-112941747D01*
X57885616Y-112983239D01*
X57885618Y-112983239D01*
X57885621Y-112983241D01*
X58125215Y-113061090D01*
X58374038Y-113100500D01*
X58374039Y-113100500D01*
X58625961Y-113100500D01*
X58625962Y-113100500D01*
X58874785Y-113061090D01*
X59114379Y-112983241D01*
X59338845Y-112868870D01*
X59542656Y-112720793D01*
X59720793Y-112542656D01*
X59868870Y-112338845D01*
X59983241Y-112114379D01*
X60061090Y-111874785D01*
X60100500Y-111625962D01*
X60100500Y-111374038D01*
X79899500Y-111374038D01*
X79899500Y-111625961D01*
X79938910Y-111874785D01*
X80016760Y-112114383D01*
X80131132Y-112338848D01*
X80279201Y-112542649D01*
X80279205Y-112542654D01*
X80457345Y-112720794D01*
X80457350Y-112720798D01*
X80635117Y-112849952D01*
X80661155Y-112868870D01*
X80804184Y-112941747D01*
X80885616Y-112983239D01*
X80885618Y-112983239D01*
X80885621Y-112983241D01*
X81125215Y-113061090D01*
X81374038Y-113100500D01*
X81374039Y-113100500D01*
X81625961Y-113100500D01*
X81625962Y-113100500D01*
X81874785Y-113061090D01*
X82114379Y-112983241D01*
X82338845Y-112868870D01*
X82542656Y-112720793D01*
X82720793Y-112542656D01*
X82868870Y-112338845D01*
X82983241Y-112114379D01*
X83061090Y-111874785D01*
X83100500Y-111625962D01*
X83100500Y-111374038D01*
X83061090Y-111125215D01*
X82983241Y-110885621D01*
X82983239Y-110885618D01*
X82983239Y-110885616D01*
X82941747Y-110804184D01*
X82868870Y-110661155D01*
X82849952Y-110635117D01*
X82720798Y-110457350D01*
X82720794Y-110457345D01*
X82542654Y-110279205D01*
X82542649Y-110279201D01*
X82338848Y-110131132D01*
X82338847Y-110131131D01*
X82338845Y-110131130D01*
X82268747Y-110095413D01*
X82114383Y-110016760D01*
X81874785Y-109938910D01*
X81625962Y-109899500D01*
X81374038Y-109899500D01*
X81249626Y-109919205D01*
X81125214Y-109938910D01*
X80885616Y-110016760D01*
X80661151Y-110131132D01*
X80457350Y-110279201D01*
X80457345Y-110279205D01*
X80279205Y-110457345D01*
X80279201Y-110457350D01*
X80131132Y-110661151D01*
X80016760Y-110885616D01*
X79938910Y-111125214D01*
X79899500Y-111374038D01*
X60100500Y-111374038D01*
X60061090Y-111125215D01*
X59983241Y-110885621D01*
X59983239Y-110885618D01*
X59983239Y-110885616D01*
X59941747Y-110804184D01*
X59868870Y-110661155D01*
X59849952Y-110635117D01*
X59720798Y-110457350D01*
X59720794Y-110457345D01*
X59542654Y-110279205D01*
X59542649Y-110279201D01*
X59338848Y-110131132D01*
X59338847Y-110131131D01*
X59338845Y-110131130D01*
X59268747Y-110095413D01*
X59114383Y-110016760D01*
X58874785Y-109938910D01*
X58625962Y-109899500D01*
X58374038Y-109899500D01*
X58249626Y-109919205D01*
X58125214Y-109938910D01*
X57885616Y-110016760D01*
X57661151Y-110131132D01*
X57457350Y-110279201D01*
X57457345Y-110279205D01*
X57279205Y-110457345D01*
X57279201Y-110457350D01*
X57131132Y-110661151D01*
X57016760Y-110885616D01*
X56938910Y-111125214D01*
X56899500Y-111374038D01*
X50500500Y-111374038D01*
X50500500Y-91805683D01*
X65589500Y-91805683D01*
X65589500Y-92194316D01*
X65623371Y-92581462D01*
X65623371Y-92581466D01*
X65690853Y-92964172D01*
X65690857Y-92964189D01*
X65791435Y-93339555D01*
X65924362Y-93704768D01*
X66088587Y-94056952D01*
X66088600Y-94056976D01*
X66282905Y-94393521D01*
X66282914Y-94393536D01*
X66505821Y-94711880D01*
X66696358Y-94938952D01*
X66755621Y-95009579D01*
X67030421Y-95284379D01*
X67136361Y-95373273D01*
X67328119Y-95534178D01*
X67328125Y-95534182D01*
X67328126Y-95534183D01*
X67646470Y-95757090D01*
X67961894Y-95939200D01*
X67983023Y-95951399D01*
X67983047Y-95951412D01*
X68335231Y-96115637D01*
X68335236Y-96115638D01*
X68335245Y-96115643D01*
X68700434Y-96248561D01*
X68700440Y-96248562D01*
X68700444Y-96248564D01*
X68802666Y-96275954D01*
X69075818Y-96349145D01*
X69458540Y-96416629D01*
X69845685Y-96450499D01*
X69845686Y-96450500D01*
X69845687Y-96450500D01*
X70234314Y-96450500D01*
X70234314Y-96450499D01*
X70621460Y-96416629D01*
X71004182Y-96349145D01*
X71379566Y-96248561D01*
X71744755Y-96115643D01*
X71744768Y-96115637D01*
X72096952Y-95951412D01*
X72096960Y-95951407D01*
X72096970Y-95951403D01*
X72433530Y-95757090D01*
X72751874Y-95534183D01*
X73049579Y-95284379D01*
X73324379Y-95009579D01*
X73574183Y-94711874D01*
X73797090Y-94393530D01*
X73991403Y-94056970D01*
X73991407Y-94056960D01*
X73991412Y-94056952D01*
X74155637Y-93704768D01*
X74155637Y-93704767D01*
X74155643Y-93704755D01*
X74288561Y-93339566D01*
X74389145Y-92964182D01*
X74456629Y-92581460D01*
X74490500Y-92194313D01*
X74490500Y-91805687D01*
X74456629Y-91418540D01*
X74389145Y-91035818D01*
X74288561Y-90660434D01*
X74155643Y-90295245D01*
X74155638Y-90295236D01*
X74155637Y-90295231D01*
X73991412Y-89943047D01*
X73991399Y-89943023D01*
X73979200Y-89921894D01*
X73797090Y-89606470D01*
X73574183Y-89288126D01*
X73574182Y-89288125D01*
X73574178Y-89288119D01*
X73324376Y-88990418D01*
X73049581Y-88715623D01*
X72751880Y-88465821D01*
X72433536Y-88242914D01*
X72433533Y-88242912D01*
X72433530Y-88242910D01*
X72333538Y-88185179D01*
X72096976Y-88048600D01*
X72096952Y-88048587D01*
X71744768Y-87884362D01*
X71744757Y-87884358D01*
X71744755Y-87884357D01*
X71379566Y-87751439D01*
X71379565Y-87751438D01*
X71379555Y-87751435D01*
X71004189Y-87650857D01*
X71004192Y-87650857D01*
X71004182Y-87650855D01*
X71004176Y-87650853D01*
X71004172Y-87650853D01*
X70621464Y-87583371D01*
X70234316Y-87549500D01*
X70234313Y-87549500D01*
X69845687Y-87549500D01*
X69845683Y-87549500D01*
X69458537Y-87583371D01*
X69458533Y-87583371D01*
X69075827Y-87650853D01*
X69075810Y-87650857D01*
X68700444Y-87751435D01*
X68335231Y-87884362D01*
X67983047Y-88048587D01*
X67983023Y-88048600D01*
X67646478Y-88242905D01*
X67646463Y-88242914D01*
X67328119Y-88465821D01*
X67030418Y-88715623D01*
X66755623Y-88990418D01*
X66505821Y-89288119D01*
X66282914Y-89606463D01*
X66282905Y-89606478D01*
X66088600Y-89943023D01*
X66088587Y-89943047D01*
X65924362Y-90295231D01*
X65791435Y-90660444D01*
X65690857Y-91035810D01*
X65690853Y-91035827D01*
X65623371Y-91418533D01*
X65623371Y-91418537D01*
X65589500Y-91805683D01*
X50500500Y-91805683D01*
X50500500Y-77128711D01*
X63649500Y-77128711D01*
X63649500Y-77371288D01*
X63681161Y-77611785D01*
X63743947Y-77846104D01*
X63836773Y-78070205D01*
X63836776Y-78070212D01*
X63958064Y-78280289D01*
X63958066Y-78280292D01*
X63958067Y-78280293D01*
X64105733Y-78472736D01*
X64105739Y-78472743D01*
X64277256Y-78644260D01*
X64277262Y-78644265D01*
X64469711Y-78791936D01*
X64679788Y-78913224D01*
X64903900Y-79006054D01*
X65138211Y-79068838D01*
X65318586Y-79092584D01*
X65378711Y-79100500D01*
X65378712Y-79100500D01*
X65621289Y-79100500D01*
X65669388Y-79094167D01*
X65861789Y-79068838D01*
X66096100Y-79006054D01*
X66320212Y-78913224D01*
X66530289Y-78791936D01*
X66722738Y-78644265D01*
X66894265Y-78472738D01*
X67041936Y-78280289D01*
X67163224Y-78070212D01*
X67256054Y-77846100D01*
X67318838Y-77611789D01*
X67350500Y-77371288D01*
X67350500Y-77128712D01*
X67350500Y-77128711D01*
X72649500Y-77128711D01*
X72649500Y-77371288D01*
X72681161Y-77611785D01*
X72743947Y-77846104D01*
X72836773Y-78070205D01*
X72836776Y-78070212D01*
X72958064Y-78280289D01*
X72958066Y-78280292D01*
X72958067Y-78280293D01*
X73105733Y-78472736D01*
X73105739Y-78472743D01*
X73277256Y-78644260D01*
X73277262Y-78644265D01*
X73469711Y-78791936D01*
X73679788Y-78913224D01*
X73903900Y-79006054D01*
X74138211Y-79068838D01*
X74318586Y-79092584D01*
X74378711Y-79100500D01*
X74378712Y-79100500D01*
X74621289Y-79100500D01*
X74669388Y-79094167D01*
X74861789Y-79068838D01*
X75096100Y-79006054D01*
X75320212Y-78913224D01*
X75530289Y-78791936D01*
X75722738Y-78644265D01*
X75894265Y-78472738D01*
X76041936Y-78280289D01*
X76163224Y-78070212D01*
X76256054Y-77846100D01*
X76318838Y-77611789D01*
X76350500Y-77371288D01*
X76350500Y-77128712D01*
X76318838Y-76888211D01*
X76256054Y-76653900D01*
X76163224Y-76429788D01*
X76041936Y-76219711D01*
X75894265Y-76027262D01*
X75894260Y-76027256D01*
X75722743Y-75855739D01*
X75722736Y-75855733D01*
X75530293Y-75708067D01*
X75530292Y-75708066D01*
X75530289Y-75708064D01*
X75320212Y-75586776D01*
X75320205Y-75586773D01*
X75096104Y-75493947D01*
X74861785Y-75431161D01*
X74621289Y-75399500D01*
X74621288Y-75399500D01*
X74378712Y-75399500D01*
X74378711Y-75399500D01*
X74138214Y-75431161D01*
X73903895Y-75493947D01*
X73679794Y-75586773D01*
X73679785Y-75586777D01*
X73469706Y-75708067D01*
X73277263Y-75855733D01*
X73277256Y-75855739D01*
X73105739Y-76027256D01*
X73105733Y-76027263D01*
X72958067Y-76219706D01*
X72836777Y-76429785D01*
X72836773Y-76429794D01*
X72743947Y-76653895D01*
X72681161Y-76888214D01*
X72649500Y-77128711D01*
X67350500Y-77128711D01*
X67318838Y-76888211D01*
X67256054Y-76653900D01*
X67163224Y-76429788D01*
X67041936Y-76219711D01*
X66894265Y-76027262D01*
X66894260Y-76027256D01*
X66722743Y-75855739D01*
X66722736Y-75855733D01*
X66530293Y-75708067D01*
X66530292Y-75708066D01*
X66530289Y-75708064D01*
X66320212Y-75586776D01*
X66320205Y-75586773D01*
X66096104Y-75493947D01*
X65861785Y-75431161D01*
X65621289Y-75399500D01*
X65621288Y-75399500D01*
X65378712Y-75399500D01*
X65378711Y-75399500D01*
X65138214Y-75431161D01*
X64903895Y-75493947D01*
X64679794Y-75586773D01*
X64679785Y-75586777D01*
X64469706Y-75708067D01*
X64277263Y-75855733D01*
X64277256Y-75855739D01*
X64105739Y-76027256D01*
X64105733Y-76027263D01*
X63958067Y-76219706D01*
X63836777Y-76429785D01*
X63836773Y-76429794D01*
X63743947Y-76653895D01*
X63681161Y-76888214D01*
X63649500Y-77128711D01*
X50500500Y-77128711D01*
X50500500Y-57934108D01*
X55499500Y-57934108D01*
X55499500Y-70065891D01*
X55533608Y-70193187D01*
X55566554Y-70250250D01*
X55599500Y-70307314D01*
X55692686Y-70400500D01*
X55806814Y-70466392D01*
X55934108Y-70500500D01*
X55934110Y-70500500D01*
X84065890Y-70500500D01*
X84065892Y-70500500D01*
X84193186Y-70466392D01*
X84307314Y-70400500D01*
X84400500Y-70307314D01*
X84466392Y-70193186D01*
X84500500Y-70065892D01*
X84500500Y-57934108D01*
X84466392Y-57806814D01*
X84400500Y-57692686D01*
X84307314Y-57599500D01*
X84250250Y-57566554D01*
X84193187Y-57533608D01*
X84129539Y-57516554D01*
X84065892Y-57499500D01*
X56065892Y-57499500D01*
X55934108Y-57499500D01*
X55806812Y-57533608D01*
X55692686Y-57599500D01*
X55692683Y-57599502D01*
X55599502Y-57692683D01*
X55599500Y-57692686D01*
X55533608Y-57806812D01*
X55499500Y-57934108D01*
X50500500Y-57934108D01*
X50500500Y-53374038D01*
X56899500Y-53374038D01*
X56899500Y-53625961D01*
X56938910Y-53874785D01*
X57016760Y-54114383D01*
X57131132Y-54338848D01*
X57279201Y-54542649D01*
X57279205Y-54542654D01*
X57457345Y-54720794D01*
X57457350Y-54720798D01*
X57635117Y-54849952D01*
X57661155Y-54868870D01*
X57804184Y-54941747D01*
X57885616Y-54983239D01*
X57885618Y-54983239D01*
X57885621Y-54983241D01*
X58125215Y-55061090D01*
X58374038Y-55100500D01*
X58374039Y-55100500D01*
X58625961Y-55100500D01*
X58625962Y-55100500D01*
X58874785Y-55061090D01*
X59114379Y-54983241D01*
X59338845Y-54868870D01*
X59542656Y-54720793D01*
X59720793Y-54542656D01*
X59868870Y-54338845D01*
X59983241Y-54114379D01*
X60061090Y-53874785D01*
X60100500Y-53625962D01*
X60100500Y-53374038D01*
X79899500Y-53374038D01*
X79899500Y-53625961D01*
X79938910Y-53874785D01*
X80016760Y-54114383D01*
X80131132Y-54338848D01*
X80279201Y-54542649D01*
X80279205Y-54542654D01*
X80457345Y-54720794D01*
X80457350Y-54720798D01*
X80635117Y-54849952D01*
X80661155Y-54868870D01*
X80804184Y-54941747D01*
X80885616Y-54983239D01*
X80885618Y-54983239D01*
X80885621Y-54983241D01*
X81125215Y-55061090D01*
X81374038Y-55100500D01*
X81374039Y-55100500D01*
X81625961Y-55100500D01*
X81625962Y-55100500D01*
X81874785Y-55061090D01*
X82114379Y-54983241D01*
X82338845Y-54868870D01*
X82542656Y-54720793D01*
X82720793Y-54542656D01*
X82868870Y-54338845D01*
X82983241Y-54114379D01*
X83061090Y-53874785D01*
X83100500Y-53625962D01*
X83100500Y-53374038D01*
X83061090Y-53125215D01*
X82983241Y-52885621D01*
X82983239Y-52885618D01*
X82983239Y-52885616D01*
X82941747Y-52804184D01*
X82868870Y-52661155D01*
X82849952Y-52635117D01*
X82720798Y-52457350D01*
X82720794Y-52457345D01*
X82542654Y-52279205D01*
X82542649Y-52279201D01*
X82338848Y-52131132D01*
X82338847Y-52131131D01*
X82338845Y-52131130D01*
X82268747Y-52095413D01*
X82114383Y-52016760D01*
X81874785Y-51938910D01*
X81625962Y-51899500D01*
X81374038Y-51899500D01*
X81249626Y-51919205D01*
X81125214Y-51938910D01*
X80885616Y-52016760D01*
X80661151Y-52131132D01*
X80457350Y-52279201D01*
X80457345Y-52279205D01*
X80279205Y-52457345D01*
X80279201Y-52457350D01*
X80131132Y-52661151D01*
X80016760Y-52885616D01*
X79938910Y-53125214D01*
X79899500Y-53374038D01*
X60100500Y-53374038D01*
X60061090Y-53125215D01*
X59983241Y-52885621D01*
X59983239Y-52885618D01*
X59983239Y-52885616D01*
X59941747Y-52804184D01*
X59868870Y-52661155D01*
X59849952Y-52635117D01*
X59720798Y-52457350D01*
X59720794Y-52457345D01*
X59542654Y-52279205D01*
X59542649Y-52279201D01*
X59338848Y-52131132D01*
X59338847Y-52131131D01*
X59338845Y-52131130D01*
X59268747Y-52095413D01*
X59114383Y-52016760D01*
X58874785Y-51938910D01*
X58625962Y-51899500D01*
X58374038Y-51899500D01*
X58249626Y-51919205D01*
X58125214Y-51938910D01*
X57885616Y-52016760D01*
X57661151Y-52131132D01*
X57457350Y-52279201D01*
X57457345Y-52279205D01*
X57279205Y-52457345D01*
X57279201Y-52457350D01*
X57131132Y-52661151D01*
X57016760Y-52885616D01*
X56938910Y-53125214D01*
X56899500Y-53374038D01*
X50500500Y-53374038D01*
X50500500Y-38628711D01*
X54049500Y-38628711D01*
X54049500Y-38871288D01*
X54081161Y-39111785D01*
X54143947Y-39346104D01*
X54236773Y-39570205D01*
X54236776Y-39570212D01*
X54358064Y-39780289D01*
X54358066Y-39780292D01*
X54358067Y-39780293D01*
X54505733Y-39972736D01*
X54505739Y-39972743D01*
X54677256Y-40144260D01*
X54677262Y-40144265D01*
X54869711Y-40291936D01*
X55079788Y-40413224D01*
X55303900Y-40506054D01*
X55538211Y-40568838D01*
X55718586Y-40592584D01*
X55778711Y-40600500D01*
X55778712Y-40600500D01*
X59221289Y-40600500D01*
X59269388Y-40594167D01*
X59461789Y-40568838D01*
X59696100Y-40506054D01*
X59920212Y-40413224D01*
X60130289Y-40291936D01*
X60322738Y-40144265D01*
X60494265Y-39972738D01*
X60641936Y-39780289D01*
X60763224Y-39570212D01*
X60856054Y-39346100D01*
X60918838Y-39111789D01*
X60949523Y-38878711D01*
X79049500Y-38878711D01*
X79049500Y-39121288D01*
X79081161Y-39361785D01*
X79143947Y-39596104D01*
X79220239Y-39780289D01*
X79236776Y-39820212D01*
X79358064Y-40030289D01*
X79358066Y-40030292D01*
X79358067Y-40030293D01*
X79505733Y-40222736D01*
X79505739Y-40222743D01*
X79677256Y-40394260D01*
X79677263Y-40394266D01*
X79790321Y-40481018D01*
X79869711Y-40541936D01*
X80079788Y-40663224D01*
X80303900Y-40756054D01*
X80538211Y-40818838D01*
X80718586Y-40842584D01*
X80778711Y-40850500D01*
X80778712Y-40850500D01*
X84221289Y-40850500D01*
X84269388Y-40844167D01*
X84461789Y-40818838D01*
X84696100Y-40756054D01*
X84920212Y-40663224D01*
X85130289Y-40541936D01*
X85322738Y-40394265D01*
X85494265Y-40222738D01*
X85641936Y-40030289D01*
X85763224Y-39820212D01*
X85856054Y-39596100D01*
X85918838Y-39361789D01*
X85950500Y-39121288D01*
X85950500Y-38878712D01*
X85918838Y-38638211D01*
X85856054Y-38403900D01*
X85763224Y-38179788D01*
X85641936Y-37969711D01*
X85494265Y-37777262D01*
X85494260Y-37777256D01*
X85322743Y-37605739D01*
X85322736Y-37605733D01*
X85130293Y-37458067D01*
X85130292Y-37458066D01*
X85130289Y-37458064D01*
X84953050Y-37355735D01*
X84920214Y-37336777D01*
X84920205Y-37336773D01*
X84696104Y-37243947D01*
X84461785Y-37181161D01*
X84221289Y-37149500D01*
X84221288Y-37149500D01*
X80778712Y-37149500D01*
X80778711Y-37149500D01*
X80538214Y-37181161D01*
X80303895Y-37243947D01*
X80079794Y-37336773D01*
X80079785Y-37336777D01*
X79869706Y-37458067D01*
X79677263Y-37605733D01*
X79677256Y-37605739D01*
X79505739Y-37777256D01*
X79505733Y-37777263D01*
X79358067Y-37969706D01*
X79236777Y-38179785D01*
X79236773Y-38179794D01*
X79143947Y-38403895D01*
X79081161Y-38638214D01*
X79049500Y-38878711D01*
X60949523Y-38878711D01*
X60950500Y-38871288D01*
X60950500Y-38628712D01*
X60918838Y-38388211D01*
X60856054Y-38153900D01*
X60763224Y-37929788D01*
X60641936Y-37719711D01*
X60494265Y-37527262D01*
X60494260Y-37527256D01*
X60322743Y-37355739D01*
X60322736Y-37355733D01*
X60130293Y-37208067D01*
X60130292Y-37208066D01*
X60130289Y-37208064D01*
X59920212Y-37086776D01*
X59920205Y-37086773D01*
X59696104Y-36993947D01*
X59461785Y-36931161D01*
X59221289Y-36899500D01*
X59221288Y-36899500D01*
X55778712Y-36899500D01*
X55778711Y-36899500D01*
X55538214Y-36931161D01*
X55303895Y-36993947D01*
X55079794Y-37086773D01*
X55079785Y-37086777D01*
X54869706Y-37208067D01*
X54677263Y-37355733D01*
X54677256Y-37355739D01*
X54505739Y-37527256D01*
X54505733Y-37527263D01*
X54358067Y-37719706D01*
X54236777Y-37929785D01*
X54236773Y-37929794D01*
X54143947Y-38153895D01*
X54081161Y-38388214D01*
X54049500Y-38628711D01*
X50500500Y-38628711D01*
X50500500Y-36374500D01*
X50520185Y-36307461D01*
X50572989Y-36261706D01*
X50624500Y-36250500D01*
X89375500Y-36250500D01*
X89442539Y-36270185D01*
G37*
%TD.AperFunction*%
%TD*%
M02*
