%TF.GenerationSoftware,KiCad,Pcbnew,8.0.7*%
%TF.CreationDate,2025-02-20T16:23:03+00:00*%
%TF.ProjectId,RPi-MiniDexed-EuroRack-Panel,5250692d-4d69-46e6-9944-657865642d45,rev?*%
%TF.SameCoordinates,Original*%
%TF.FileFunction,Legend,Bot*%
%TF.FilePolarity,Positive*%
%FSLAX46Y46*%
G04 Gerber Fmt 4.6, Leading zero omitted, Abs format (unit mm)*
G04 Created by KiCad (PCBNEW 8.0.7) date 2025-02-20 16:23:03*
%MOMM*%
%LPD*%
G01*
G04 APERTURE LIST*
%ADD10C,0.100000*%
%ADD11C,0.120000*%
G04 APERTURE END LIST*
D10*
X70486904Y-150805038D02*
X70582142Y-150757419D01*
X70582142Y-150757419D02*
X70724999Y-150757419D01*
X70724999Y-150757419D02*
X70867856Y-150805038D01*
X70867856Y-150805038D02*
X70963094Y-150900276D01*
X70963094Y-150900276D02*
X71010713Y-150995514D01*
X71010713Y-150995514D02*
X71058332Y-151185990D01*
X71058332Y-151185990D02*
X71058332Y-151328847D01*
X71058332Y-151328847D02*
X71010713Y-151519323D01*
X71010713Y-151519323D02*
X70963094Y-151614561D01*
X70963094Y-151614561D02*
X70867856Y-151709800D01*
X70867856Y-151709800D02*
X70724999Y-151757419D01*
X70724999Y-151757419D02*
X70629761Y-151757419D01*
X70629761Y-151757419D02*
X70486904Y-151709800D01*
X70486904Y-151709800D02*
X70439285Y-151662180D01*
X70439285Y-151662180D02*
X70439285Y-151328847D01*
X70439285Y-151328847D02*
X70629761Y-151328847D01*
X70010713Y-151757419D02*
X70010713Y-150757419D01*
X70010713Y-150757419D02*
X69439285Y-151757419D01*
X69439285Y-151757419D02*
X69439285Y-150757419D01*
X68963094Y-151757419D02*
X68963094Y-150757419D01*
X68963094Y-150757419D02*
X68724999Y-150757419D01*
X68724999Y-150757419D02*
X68582142Y-150805038D01*
X68582142Y-150805038D02*
X68486904Y-150900276D01*
X68486904Y-150900276D02*
X68439285Y-150995514D01*
X68439285Y-150995514D02*
X68391666Y-151185990D01*
X68391666Y-151185990D02*
X68391666Y-151328847D01*
X68391666Y-151328847D02*
X68439285Y-151519323D01*
X68439285Y-151519323D02*
X68486904Y-151614561D01*
X68486904Y-151614561D02*
X68582142Y-151709800D01*
X68582142Y-151709800D02*
X68724999Y-151757419D01*
X68724999Y-151757419D02*
X68963094Y-151757419D01*
D11*
%TO.C,REF\u002A\u002A*%
X67550000Y-152550000D02*
X71950000Y-152550000D01*
X67550000Y-156950000D02*
X67550000Y-152550000D01*
X71950000Y-152550000D02*
X71950000Y-156950000D01*
X71950000Y-156950000D02*
X67550000Y-156950000D01*
%TD*%
M02*
