%TF.GenerationSoftware,KiCad,Pcbnew,8.0.5*%
%TF.CreationDate,2024-11-21T14:34:23+00:00*%
%TF.ProjectId,EuroRackControl-MCU,4575726f-5261-4636-9b43-6f6e74726f6c,rev?*%
%TF.SameCoordinates,Original*%
%TF.FileFunction,Soldermask,Top*%
%TF.FilePolarity,Negative*%
%FSLAX46Y46*%
G04 Gerber Fmt 4.6, Leading zero omitted, Abs format (unit mm)*
G04 Created by KiCad (PCBNEW 8.0.5) date 2024-11-21 14:34:23*
%MOMM*%
%LPD*%
G01*
G04 APERTURE LIST*
G04 Aperture macros list*
%AMRoundRect*
0 Rectangle with rounded corners*
0 $1 Rounding radius*
0 $2 $3 $4 $5 $6 $7 $8 $9 X,Y pos of 4 corners*
0 Add a 4 corners polygon primitive as box body*
4,1,4,$2,$3,$4,$5,$6,$7,$8,$9,$2,$3,0*
0 Add four circle primitives for the rounded corners*
1,1,$1+$1,$2,$3*
1,1,$1+$1,$4,$5*
1,1,$1+$1,$6,$7*
1,1,$1+$1,$8,$9*
0 Add four rect primitives between the rounded corners*
20,1,$1+$1,$2,$3,$4,$5,0*
20,1,$1+$1,$4,$5,$6,$7,0*
20,1,$1+$1,$6,$7,$8,$9,0*
20,1,$1+$1,$8,$9,$2,$3,0*%
G04 Aperture macros list end*
%ADD10R,1.700000X1.700000*%
%ADD11O,1.700000X1.700000*%
%ADD12C,2.200000*%
%ADD13O,3.500000X3.500000*%
%ADD14R,1.905000X2.000000*%
%ADD15O,1.905000X2.000000*%
%ADD16R,2.200000X2.200000*%
%ADD17O,2.200000X2.200000*%
%ADD18R,1.600000X1.600000*%
%ADD19C,1.600000*%
%ADD20O,1.600000X1.600000*%
%ADD21RoundRect,0.250000X0.600000X-0.600000X0.600000X0.600000X-0.600000X0.600000X-0.600000X-0.600000X0*%
%ADD22C,1.700000*%
G04 APERTURE END LIST*
D10*
%TO.C,J3*%
X22510000Y-60000000D03*
D11*
X22510000Y-62540000D03*
X22510000Y-65080000D03*
X22510000Y-67620000D03*
X22510000Y-70160000D03*
X22510000Y-72700000D03*
X22510000Y-75240000D03*
X22510000Y-77780000D03*
X22510000Y-80320000D03*
X22510000Y-82860000D03*
X22510000Y-85400000D03*
X22510000Y-87940000D03*
X22510000Y-90480000D03*
X22510000Y-93020000D03*
%TD*%
D12*
%TO.C,MK3*%
X38500000Y-53000000D03*
%TD*%
D10*
%TO.C,J2*%
X30130000Y-60000000D03*
D11*
X30130000Y-62540000D03*
X30130000Y-65080000D03*
X30130000Y-67620000D03*
X30130000Y-70160000D03*
X30130000Y-72700000D03*
X30130000Y-75240000D03*
X30130000Y-77780000D03*
X30130000Y-80320000D03*
X30130000Y-82860000D03*
X30130000Y-85400000D03*
X30130000Y-87940000D03*
X30130000Y-90480000D03*
X30130000Y-93020000D03*
%TD*%
D12*
%TO.C,MK5*%
X30000000Y-144200000D03*
%TD*%
D13*
%TO.C,U4*%
X38820000Y-105910000D03*
D14*
X41360000Y-122570000D03*
D15*
X38820000Y-122570000D03*
X36280000Y-122570000D03*
%TD*%
D10*
%TO.C,J17*%
X35210000Y-52430000D03*
D11*
X35210000Y-54970000D03*
X35210000Y-57510000D03*
X35210000Y-60050000D03*
X35210000Y-62590000D03*
X35210000Y-65130000D03*
X35210000Y-67670000D03*
X35210000Y-70210000D03*
X35210000Y-72750000D03*
X35210000Y-75290000D03*
X35210000Y-77830000D03*
X35210000Y-80370000D03*
X35210000Y-82910000D03*
X35210000Y-85450000D03*
X35210000Y-87990000D03*
X35210000Y-90530000D03*
X35210000Y-93070000D03*
X35210000Y-95610000D03*
X35210000Y-98150000D03*
X35210000Y-100690000D03*
%TD*%
D16*
%TO.C,D1*%
X30010000Y-127040000D03*
D17*
X19850000Y-127040000D03*
%TD*%
D18*
%TO.C,C2*%
X23970000Y-121560000D03*
D19*
X21470000Y-121560000D03*
%TD*%
%TO.C,R1*%
X33740000Y-127000000D03*
D20*
X41360000Y-127000000D03*
%TD*%
D10*
%TO.C,J6*%
X17430000Y-105000000D03*
D11*
X17430000Y-107540000D03*
X17430000Y-110080000D03*
%TD*%
D18*
%TO.C,U2*%
X42000000Y-54970000D03*
D20*
X42000000Y-57510000D03*
X42000000Y-60050000D03*
X42000000Y-62590000D03*
X42000000Y-65130000D03*
X42000000Y-67670000D03*
X42000000Y-70210000D03*
X42000000Y-72750000D03*
X42000000Y-75290000D03*
X42000000Y-77830000D03*
X42000000Y-80370000D03*
X42000000Y-82910000D03*
X42000000Y-85450000D03*
X42000000Y-87990000D03*
X42000000Y-90530000D03*
X26760000Y-90530000D03*
X26760000Y-87990000D03*
X26760000Y-85450000D03*
X26760000Y-82910000D03*
X26760000Y-80370000D03*
X26760000Y-77830000D03*
X26760000Y-75290000D03*
X26760000Y-72750000D03*
X26760000Y-70210000D03*
X26760000Y-67670000D03*
X26760000Y-65130000D03*
X26760000Y-62590000D03*
X26760000Y-60050000D03*
X26760000Y-57510000D03*
X26760000Y-54970000D03*
%TD*%
D19*
%TO.C,C3*%
X28990000Y-106520000D03*
X28990000Y-101520000D03*
%TD*%
D10*
%TO.C,J18*%
X17430000Y-52430000D03*
D11*
X17430000Y-54970000D03*
X17430000Y-57510000D03*
X17430000Y-60050000D03*
X17430000Y-62590000D03*
X17430000Y-65130000D03*
X17430000Y-67670000D03*
X17430000Y-70210000D03*
X17430000Y-72750000D03*
X17430000Y-75290000D03*
X17430000Y-77830000D03*
X17430000Y-80370000D03*
X17430000Y-82910000D03*
X17430000Y-85450000D03*
X17430000Y-87990000D03*
X17430000Y-90530000D03*
X17430000Y-93070000D03*
X17430000Y-95610000D03*
X17430000Y-98150000D03*
X17430000Y-100690000D03*
%TD*%
D21*
%TO.C,J5*%
X38890000Y-136640000D03*
D22*
X38890000Y-134100000D03*
X36350000Y-136640000D03*
X36350000Y-134100000D03*
X33810000Y-136640000D03*
X33810000Y-134100000D03*
X31270000Y-136640000D03*
X31270000Y-134100000D03*
X28730000Y-136640000D03*
X28730000Y-134100000D03*
X26190000Y-136640000D03*
X26190000Y-134100000D03*
X23650000Y-136640000D03*
X23650000Y-134100000D03*
X21110000Y-136640000D03*
X21110000Y-134100000D03*
%TD*%
D18*
%TO.C,C1*%
X30970000Y-121560000D03*
D19*
X28470000Y-121560000D03*
%TD*%
D16*
%TO.C,D19*%
X25350000Y-96400000D03*
D17*
X25350000Y-106560000D03*
%TD*%
M02*
