M48
; DRILL file {KiCad 8.0.5} date 2024-12-18T11:45:48+0000
; FORMAT={-:-/ absolute / inch / decimal}
; #@! TF.CreationDate,2024-12-18T11:45:48+00:00
; #@! TF.GenerationSoftware,Kicad,Pcbnew,8.0.5
; #@! TF.FileFunction,MixedPlating,1,2
FMAT,2
INCH
; #@! TA.AperFunction,Plated,PTH,ViaDrill
T1C0.0118
; #@! TA.AperFunction,Plated,PTH,ComponentDrill
T2C0.0394
; #@! TA.AperFunction,Plated,PTH,ComponentDrill
T3C0.0480
; #@! TA.AperFunction,Plated,PTH,ComponentDrill
T4C0.0559
; #@! TA.AperFunction,Plated,PTH,ComponentDrill
T5C0.0563
; #@! TA.AperFunction,Plated,PTH,ComponentDrill
T6C0.0709
; #@! TA.AperFunction,NonPlated,NPTH,ComponentDrill
T7C0.0866
%
G90
G05
T1
X2.93Y-3.18
X2.95Y-3.13
X2.97Y-3.08
T2
X2.1063Y-2.0616
X2.1654Y-3.3071
X2.1654Y-3.4071
X2.2Y-2.44
X2.2Y-2.54
X2.2Y-2.64
X2.2Y-2.74
X2.2063Y-2.0616
X2.4606Y-2.5
X2.4606Y-3.1693
X2.4606Y-3.8386
X2.4606Y-4.5079
X2.5091Y-5.5039
X2.5091Y-5.8268
X2.5591Y-2.5
X2.5591Y-3.1693
X2.5591Y-3.8386
X2.5591Y-4.5079
X2.5591Y-4.6543
X2.5591Y-4.7543
X2.5591Y-4.8543
X2.5591Y-4.9543
X2.5591Y-5.0543
X2.5591Y-5.1543
X2.5591Y-5.2543
X2.5591Y-5.3543
X2.6091Y-5.5039
X2.6091Y-5.8268
X2.6575Y-2.5
X2.6575Y-3.1693
X2.6575Y-3.8386
X2.6575Y-4.5079
X2.91Y-2.27
X2.91Y-2.37
X2.91Y-2.47
X2.91Y-2.57
X2.91Y-2.67
X2.91Y-2.77
X2.91Y-2.87
X2.91Y-2.97
X3.0827Y-2.0616
X3.0827Y-2.1616
X3.0827Y-2.3102
X3.0827Y-2.4102
X3.0827Y-2.8298
X3.0827Y-2.9298
X3.0827Y-3.0795
X3.0827Y-3.1795
X3.0827Y-3.7402
X3.0827Y-3.8402
X3.0827Y-3.9402
X3.0827Y-4.0402
X3.0827Y-4.1898
X3.0827Y-4.2898
X3.0827Y-4.3898
X3.0827Y-4.4898
T3
X2.2559Y-4.0551
X2.2559Y-4.6457
X2.2559Y-5.2362
X2.2559Y-5.8268
X2.8622Y-4.0551
X2.8622Y-4.6457
X2.8622Y-5.2362
X2.8622Y-5.8268
T4
X2.2559Y-3.9331
X2.2559Y-4.5236
X2.2559Y-5.1142
X2.2559Y-5.7047
X2.8622Y-3.9331
X2.8622Y-4.5236
X2.8622Y-5.1142
X2.8622Y-5.7047
T5
X2.2559Y-3.6063
X2.2559Y-4.1969
X2.2559Y-4.7874
X2.2559Y-5.378
X2.8622Y-3.6063
X2.8622Y-4.1969
X2.8622Y-4.7874
X2.8622Y-5.378
T7
X2.5591Y-5.6772
X2.8937Y-2.0866
T6
G00X2.3858Y-2.2303
M15
G01X2.3858Y-2.2185
M16
G05
G00X2.3858Y-2.8996
M15
G01X2.3858Y-2.8878
M16
G05
G00X2.3858Y-3.5689
M15
G01X2.3858Y-3.5571
M16
G05
G00X2.3858Y-4.2382
M15
G01X2.3858Y-4.2264
M16
G05
G00X2.7323Y-2.2303
M15
G01X2.7323Y-2.2185
M16
G05
G00X2.7323Y-2.8996
M15
G01X2.7323Y-2.8878
M16
G05
G00X2.7323Y-3.5689
M15
G01X2.7323Y-3.5571
M16
G05
G00X2.7323Y-4.2382
M15
G01X2.7323Y-4.2264
M16
G05
M30
