%TF.GenerationSoftware,KiCad,Pcbnew,8.0.5*%
%TF.CreationDate,2024-12-18T11:45:47+00:00*%
%TF.ProjectId,EuroRackPotsJacks,4575726f-5261-4636-9b50-6f74734a6163,rev?*%
%TF.SameCoordinates,Original*%
%TF.FileFunction,Copper,L2,Bot*%
%TF.FilePolarity,Positive*%
%FSLAX46Y46*%
G04 Gerber Fmt 4.6, Leading zero omitted, Abs format (unit mm)*
G04 Created by KiCad (PCBNEW 8.0.5) date 2024-12-18 11:45:47*
%MOMM*%
%LPD*%
G01*
G04 APERTURE LIST*
G04 Aperture macros list*
%AMRoundRect*
0 Rectangle with rounded corners*
0 $1 Rounding radius*
0 $2 $3 $4 $5 $6 $7 $8 $9 X,Y pos of 4 corners*
0 Add a 4 corners polygon primitive as box body*
4,1,4,$2,$3,$4,$5,$6,$7,$8,$9,$2,$3,0*
0 Add four circle primitives for the rounded corners*
1,1,$1+$1,$2,$3*
1,1,$1+$1,$4,$5*
1,1,$1+$1,$6,$7*
1,1,$1+$1,$8,$9*
0 Add four rect primitives between the rounded corners*
20,1,$1+$1,$2,$3,$4,$5,0*
20,1,$1+$1,$4,$5,$6,$7,0*
20,1,$1+$1,$6,$7,$8,$9,0*
20,1,$1+$1,$8,$9,$2,$3,0*%
G04 Aperture macros list end*
%TA.AperFunction,ComponentPad*%
%ADD10O,1.700000X1.700000*%
%TD*%
%TA.AperFunction,ComponentPad*%
%ADD11R,1.700000X1.700000*%
%TD*%
%TA.AperFunction,ComponentPad*%
%ADD12R,1.930000X1.830000*%
%TD*%
%TA.AperFunction,ComponentPad*%
%ADD13C,2.130000*%
%TD*%
%TA.AperFunction,ComponentPad*%
%ADD14R,1.800000X1.800000*%
%TD*%
%TA.AperFunction,ComponentPad*%
%ADD15C,1.800000*%
%TD*%
%TA.AperFunction,ComponentPad*%
%ADD16RoundRect,0.750000X0.750000X-1.250000X0.750000X1.250000X-0.750000X1.250000X-0.750000X-1.250000X0*%
%TD*%
%TA.AperFunction,ViaPad*%
%ADD17C,0.600000*%
%TD*%
%TA.AperFunction,Conductor*%
%ADD18C,0.250000*%
%TD*%
%TA.AperFunction,Conductor*%
%ADD19C,0.600000*%
%TD*%
G04 APERTURE END LIST*
D10*
%TO.P,J15,1,Pin_1*%
%TO.N,Net-(J15-Pin_1)*%
X65000000Y-136000000D03*
%TO.P,J15,2,Pin_2*%
%TO.N,Net-(J15-Pin_2)*%
X65000000Y-133460000D03*
%TO.P,J15,3,Pin_3*%
%TO.N,Net-(J15-Pin_3)*%
X65000000Y-130920000D03*
%TO.P,J15,4,Pin_4*%
%TO.N,Net-(J15-Pin_4)*%
X65000000Y-128380000D03*
%TO.P,J15,5,Pin_5*%
%TO.N,Net-(J15-Pin_5)*%
X65000000Y-125840000D03*
%TO.P,J15,6,Pin_6*%
%TO.N,Net-(J15-Pin_6)*%
X65000000Y-123300000D03*
%TO.P,J15,7,Pin_7*%
%TO.N,Net-(J15-Pin_7)*%
X65000000Y-120760000D03*
%TO.P,J15,8,Pin_8*%
%TO.N,Net-(J15-Pin_8)*%
X65000000Y-118220000D03*
%TD*%
%TO.P,J22,1,Pin_1*%
%TO.N,Net-(J22-Pin_1)*%
X66270000Y-139800000D03*
%TO.P,J22,2,Pin_2*%
%TO.N,Net-(J22-Pin_2)*%
X63730000Y-139800000D03*
%TD*%
%TO.P,J19,1,Pin_1*%
%TO.N,Net-(J19-Pin_1)*%
X78300000Y-95000000D03*
%TO.P,J19,2,Pin_2*%
%TO.N,Net-(J19-Pin_2)*%
X78300000Y-97540000D03*
%TO.P,J19,3,Pin_3*%
%TO.N,Net-(J19-Pin_3)*%
X78300000Y-100080000D03*
%TO.P,J19,4,Pin_4*%
%TO.N,Net-(J19-Pin_4)*%
X78300000Y-102620000D03*
%TD*%
%TO.P,J1,1,Pin_1*%
%TO.N,/RV1*%
X55880000Y-61976000D03*
%TO.P,J1,2,Pin_2*%
%TO.N,/RV2*%
X55880000Y-64516000D03*
%TO.P,J1,3,Pin_3*%
%TO.N,/RV3*%
X55880000Y-67056000D03*
%TO.P,J1,4,Pin_4*%
%TO.N,/RV4*%
X55880000Y-69596000D03*
%TD*%
%TO.P,J10,1,Pin_1*%
%TO.N,Net-(J10-Pin_1)*%
X73914000Y-75438000D03*
%TO.P,J10,2,Pin_2*%
%TO.N,Net-(J10-Pin_2)*%
X73914000Y-72898000D03*
%TO.P,J10,3,Pin_3*%
%TO.N,Net-(J10-Pin_3)*%
X73914000Y-70358000D03*
%TO.P,J10,4,Pin_4*%
%TO.N,Net-(J10-Pin_4)*%
X73914000Y-67818000D03*
%TO.P,J10,5,Pin_5*%
%TO.N,Net-(J10-Pin_5)*%
X73914000Y-65278000D03*
%TO.P,J10,6,Pin_6*%
%TO.N,Net-(J10-Pin_6)*%
X73914000Y-62738000D03*
%TO.P,J10,7,Pin_7*%
%TO.N,Net-(J10-Pin_7)*%
X73914000Y-60198000D03*
%TO.P,J10,8,Pin_8*%
%TO.N,Net-(J10-Pin_8)*%
X73914000Y-57658000D03*
%TD*%
%TO.P,J20,1,Pin_1*%
%TO.N,Net-(J20-Pin_1)*%
X78300000Y-61219000D03*
%TO.P,J20,2,Pin_2*%
%TO.N,Net-(J20-Pin_2)*%
X78300000Y-58679000D03*
%TD*%
D11*
%TO.P,J2,1,Pin_1*%
%TO.N,VCC*%
X53500000Y-52365000D03*
D10*
%TO.P,J2,2,Pin_2*%
%TO.N,GND*%
X56040000Y-52365000D03*
%TD*%
D12*
%TO.P,J14,S*%
%TO.N,GND*%
X72700000Y-133000000D03*
D13*
%TO.P,J14,T*%
%TO.N,Net-(J15-Pin_4)*%
X72700000Y-121600000D03*
%TO.P,J14,TN*%
%TO.N,Net-(J15-Pin_3)*%
X72700000Y-129900000D03*
%TD*%
D11*
%TO.P,J3,1,Pin_1*%
%TO.N,VCC*%
X55000000Y-84000000D03*
D10*
%TO.P,J3,2,Pin_2*%
%TO.N,GND*%
X55000000Y-86540000D03*
%TD*%
D14*
%TO.P,RV3,1,1*%
%TO.N,GND*%
X62500000Y-97500000D03*
D15*
%TO.P,RV3,2,2*%
%TO.N,/RV3*%
X65000000Y-97500000D03*
%TO.P,RV3,3,3*%
%TO.N,VCC*%
X67500000Y-97500000D03*
D16*
%TO.P,RV3,MP*%
%TO.N,N/C*%
X60600000Y-90500000D03*
X69400000Y-90500000D03*
%TD*%
D14*
%TO.P,RV1,1,1*%
%TO.N,GND*%
X62500000Y-63500000D03*
D15*
%TO.P,RV1,2,2*%
%TO.N,/RV1*%
X65000000Y-63500000D03*
%TO.P,RV1,3,3*%
%TO.N,VCC*%
X67500000Y-63500000D03*
D16*
%TO.P,RV1,MP*%
%TO.N,N/C*%
X60600000Y-56500000D03*
X69400000Y-56500000D03*
%TD*%
D11*
%TO.P,J4,1,Pin_1*%
%TO.N,Net-(J22-Pin_1)*%
X66270000Y-148000000D03*
D10*
%TO.P,J4,2,Pin_2*%
%TO.N,Net-(J22-Pin_2)*%
X63730000Y-148000000D03*
%TD*%
D12*
%TO.P,J16,S*%
%TO.N,GND*%
X72700000Y-118000000D03*
D13*
%TO.P,J16,T*%
%TO.N,Net-(J15-Pin_6)*%
X72700000Y-106600000D03*
%TO.P,J16,TN*%
%TO.N,Net-(J15-Pin_5)*%
X72700000Y-114900000D03*
%TD*%
D11*
%TO.P,J6,1,Pin_1*%
%TO.N,Net-(J20-Pin_1)*%
X78300000Y-52365000D03*
D10*
%TO.P,J6,2,Pin_2*%
%TO.N,Net-(J20-Pin_2)*%
X78300000Y-54905000D03*
%TD*%
D12*
%TO.P,J17,S*%
%TO.N,GND*%
X72700000Y-103000000D03*
D13*
%TO.P,J17,T*%
%TO.N,Net-(J15-Pin_8)*%
X72700000Y-91600000D03*
%TO.P,J17,TN*%
%TO.N,Net-(J15-Pin_7)*%
X72700000Y-99900000D03*
%TD*%
D12*
%TO.P,J13,S*%
%TO.N,GND*%
X72700000Y-148000000D03*
D13*
%TO.P,J13,T*%
%TO.N,Net-(J15-Pin_2)*%
X72700000Y-136600000D03*
%TO.P,J13,TN*%
%TO.N,Net-(J15-Pin_1)*%
X72700000Y-144900000D03*
%TD*%
D11*
%TO.P,J7,1,Pin_1*%
%TO.N,Net-(J19-Pin_1)*%
X78300000Y-114040000D03*
D10*
%TO.P,J7,2,Pin_2*%
%TO.N,Net-(J19-Pin_2)*%
X78300000Y-111500000D03*
%TO.P,J7,3,Pin_3*%
%TO.N,Net-(J19-Pin_3)*%
X78300000Y-108960000D03*
%TO.P,J7,4,Pin_4*%
%TO.N,Net-(J19-Pin_4)*%
X78300000Y-106420000D03*
%TD*%
D14*
%TO.P,RV2,1,1*%
%TO.N,GND*%
X62500000Y-80500000D03*
D15*
%TO.P,RV2,2,2*%
%TO.N,/RV2*%
X65000000Y-80500000D03*
%TO.P,RV2,3,3*%
%TO.N,VCC*%
X67500000Y-80500000D03*
D16*
%TO.P,RV2,MP*%
%TO.N,N/C*%
X60600000Y-73500000D03*
X69400000Y-73500000D03*
%TD*%
D14*
%TO.P,RV4,1,1*%
%TO.N,GND*%
X62500000Y-114500000D03*
D15*
%TO.P,RV4,2,2*%
%TO.N,/RV4*%
X65000000Y-114500000D03*
%TO.P,RV4,3,3*%
%TO.N,VCC*%
X67500000Y-114500000D03*
D16*
%TO.P,RV4,MP*%
%TO.N,N/C*%
X60600000Y-107500000D03*
X69400000Y-107500000D03*
%TD*%
D12*
%TO.P,J11,S*%
%TO.N,GND*%
X57300000Y-118000000D03*
D13*
%TO.P,J11,T*%
%TO.N,Net-(J10-Pin_6)*%
X57300000Y-106600000D03*
%TO.P,J11,TN*%
%TO.N,Net-(J10-Pin_5)*%
X57300000Y-114900000D03*
%TD*%
D11*
%TO.P,J5,1,Pin_1*%
%TO.N,Net-(J21-Pin_1)*%
X78300000Y-80760000D03*
D10*
%TO.P,J5,2,Pin_2*%
%TO.N,Net-(J21-Pin_2)*%
X78300000Y-78220000D03*
%TD*%
D12*
%TO.P,J12,S*%
%TO.N,GND*%
X57300000Y-103000000D03*
D13*
%TO.P,J12,T*%
%TO.N,Net-(J10-Pin_8)*%
X57300000Y-91600000D03*
%TO.P,J12,TN*%
%TO.N,Net-(J10-Pin_7)*%
X57300000Y-99900000D03*
%TD*%
D12*
%TO.P,J8,S*%
%TO.N,GND*%
X57300000Y-148000000D03*
D13*
%TO.P,J8,T*%
%TO.N,Net-(J10-Pin_2)*%
X57300000Y-136600000D03*
%TO.P,J8,TN*%
%TO.N,Net-(J10-Pin_1)*%
X57300000Y-144900000D03*
%TD*%
D12*
%TO.P,J9,S*%
%TO.N,GND*%
X57300000Y-133000000D03*
D13*
%TO.P,J9,T*%
%TO.N,Net-(J10-Pin_4)*%
X57300000Y-121600000D03*
%TO.P,J9,TN*%
%TO.N,Net-(J10-Pin_3)*%
X57300000Y-129900000D03*
%TD*%
D10*
%TO.P,J21,1,Pin_1*%
%TO.N,Net-(J21-Pin_1)*%
X78300000Y-71877000D03*
%TO.P,J21,2,Pin_2*%
%TO.N,Net-(J21-Pin_2)*%
X78300000Y-74417000D03*
%TD*%
D17*
%TO.N,Net-(J10-Pin_4)*%
X74422000Y-80772000D03*
%TO.N,Net-(J10-Pin_2)*%
X75438000Y-78232000D03*
%TO.N,Net-(J10-Pin_3)*%
X74930000Y-79502000D03*
%TD*%
D18*
%TO.N,Net-(J10-Pin_4)*%
X72289000Y-78639000D02*
X74422000Y-80772000D01*
X72289000Y-78232000D02*
X72289000Y-78639000D01*
X72289000Y-69443000D02*
X72289000Y-78232000D01*
%TO.N,Net-(J10-Pin_3)*%
X72739000Y-77311000D02*
X74930000Y-79502000D01*
X72739000Y-71533000D02*
X72739000Y-77311000D01*
X73914000Y-70358000D02*
X72739000Y-71533000D01*
%TO.N,Net-(J10-Pin_4)*%
X73914000Y-67818000D02*
X72289000Y-69443000D01*
%TO.N,Net-(J10-Pin_2)*%
X75438000Y-74422000D02*
X75438000Y-78232000D01*
X73914000Y-72898000D02*
X75438000Y-74422000D01*
%TO.N,Net-(J19-Pin_1)*%
X76675000Y-96625000D02*
X76675000Y-112415000D01*
X76675000Y-112415000D02*
X78300000Y-114040000D01*
X78300000Y-95000000D02*
X76675000Y-96625000D01*
%TO.N,Net-(J19-Pin_2)*%
X77125000Y-110325000D02*
X78300000Y-111500000D01*
X78300000Y-97540000D02*
X77125000Y-98715000D01*
X77125000Y-98715000D02*
X77125000Y-110325000D01*
D19*
%TO.N,VCC*%
X67500000Y-80500000D02*
X67400000Y-80400000D01*
X67400000Y-80400000D02*
X67400000Y-63600000D01*
X67310000Y-63310000D02*
X67500000Y-63500000D01*
X67310000Y-114310000D02*
X67500000Y-114500000D01*
X67400000Y-63600000D02*
X67500000Y-63500000D01*
X67400000Y-84074000D02*
X67400000Y-97400000D01*
X67500000Y-97500000D02*
X67310000Y-97690000D01*
X67310000Y-97690000D02*
X67310000Y-114310000D01*
X67400000Y-80600000D02*
X67400000Y-84074000D01*
X67500000Y-80500000D02*
X67400000Y-80600000D01*
X67400000Y-97400000D02*
X67500000Y-97500000D01*
D18*
%TO.N,Net-(J22-Pin_2)*%
X62738000Y-147008000D02*
X63730000Y-148000000D01*
X62738000Y-140792000D02*
X62738000Y-147008000D01*
X63730000Y-139800000D02*
X62738000Y-140792000D01*
%TO.N,Net-(J22-Pin_1)*%
X67310000Y-140840000D02*
X67310000Y-146960000D01*
X66270000Y-139800000D02*
X67310000Y-140840000D01*
X67310000Y-146960000D02*
X66270000Y-148000000D01*
%TO.N,Net-(J21-Pin_1)*%
X78293000Y-80767000D02*
X78300000Y-80760000D01*
%TD*%
%TA.AperFunction,Conductor*%
%TO.N,GND*%
G36*
X79442539Y-50520185D02*
G01*
X79488294Y-50572989D01*
X79499500Y-50624500D01*
X79499500Y-50932581D01*
X79479815Y-50999620D01*
X79427011Y-51045375D01*
X79357853Y-51055319D01*
X79332168Y-51048763D01*
X79257485Y-51020909D01*
X79257483Y-51020908D01*
X79197883Y-51014501D01*
X79197881Y-51014500D01*
X79197873Y-51014500D01*
X79197864Y-51014500D01*
X77402129Y-51014500D01*
X77402123Y-51014501D01*
X77342516Y-51020908D01*
X77207671Y-51071202D01*
X77207664Y-51071206D01*
X77092455Y-51157452D01*
X77092452Y-51157455D01*
X77006206Y-51272664D01*
X77006202Y-51272671D01*
X76955908Y-51407517D01*
X76949501Y-51467116D01*
X76949500Y-51467135D01*
X76949500Y-53262870D01*
X76949501Y-53262876D01*
X76955908Y-53322483D01*
X77006202Y-53457328D01*
X77006206Y-53457335D01*
X77092452Y-53572544D01*
X77092455Y-53572547D01*
X77207664Y-53658793D01*
X77207671Y-53658797D01*
X77339081Y-53707810D01*
X77395015Y-53749681D01*
X77419432Y-53815145D01*
X77404580Y-53883418D01*
X77383430Y-53911673D01*
X77261503Y-54033600D01*
X77125965Y-54227169D01*
X77125964Y-54227171D01*
X77026098Y-54441335D01*
X77026094Y-54441344D01*
X76964938Y-54669586D01*
X76964936Y-54669596D01*
X76944341Y-54904999D01*
X76944341Y-54905000D01*
X76964936Y-55140403D01*
X76964938Y-55140413D01*
X77026094Y-55368655D01*
X77026096Y-55368659D01*
X77026097Y-55368663D01*
X77100500Y-55528220D01*
X77125965Y-55582830D01*
X77125967Y-55582834D01*
X77234281Y-55737521D01*
X77261505Y-55776401D01*
X77428599Y-55943495D01*
X77525384Y-56011265D01*
X77622165Y-56079032D01*
X77622167Y-56079033D01*
X77622170Y-56079035D01*
X77836337Y-56178903D01*
X78064592Y-56240063D01*
X78252918Y-56256539D01*
X78299999Y-56260659D01*
X78300000Y-56260659D01*
X78300001Y-56260659D01*
X78339234Y-56257226D01*
X78535408Y-56240063D01*
X78763663Y-56178903D01*
X78977830Y-56079035D01*
X79171401Y-55943495D01*
X79287819Y-55827077D01*
X79349142Y-55793592D01*
X79418834Y-55798576D01*
X79474767Y-55840448D01*
X79499184Y-55905912D01*
X79499500Y-55914758D01*
X79499500Y-57669241D01*
X79479815Y-57736280D01*
X79427011Y-57782035D01*
X79357853Y-57791979D01*
X79294297Y-57762954D01*
X79287819Y-57756923D01*
X79267176Y-57736280D01*
X79171401Y-57640505D01*
X79171397Y-57640502D01*
X79171396Y-57640501D01*
X78977834Y-57504967D01*
X78977830Y-57504965D01*
X78977828Y-57504964D01*
X78763663Y-57405097D01*
X78763659Y-57405096D01*
X78763655Y-57405094D01*
X78535413Y-57343938D01*
X78535403Y-57343936D01*
X78300001Y-57323341D01*
X78299999Y-57323341D01*
X78064596Y-57343936D01*
X78064586Y-57343938D01*
X77836344Y-57405094D01*
X77836335Y-57405098D01*
X77622171Y-57504964D01*
X77622169Y-57504965D01*
X77428597Y-57640505D01*
X77261505Y-57807597D01*
X77125965Y-58001169D01*
X77125964Y-58001171D01*
X77026098Y-58215335D01*
X77026094Y-58215344D01*
X76964938Y-58443586D01*
X76964936Y-58443596D01*
X76944341Y-58678999D01*
X76944341Y-58679000D01*
X76964936Y-58914403D01*
X76964938Y-58914413D01*
X77026094Y-59142655D01*
X77026096Y-59142659D01*
X77026097Y-59142663D01*
X77100500Y-59302220D01*
X77125965Y-59356830D01*
X77125967Y-59356834D01*
X77261501Y-59550395D01*
X77261506Y-59550402D01*
X77428597Y-59717493D01*
X77428603Y-59717498D01*
X77614158Y-59847425D01*
X77657783Y-59902002D01*
X77664977Y-59971500D01*
X77633454Y-60033855D01*
X77614158Y-60050575D01*
X77428597Y-60180505D01*
X77261505Y-60347597D01*
X77125965Y-60541169D01*
X77125964Y-60541171D01*
X77026098Y-60755335D01*
X77026094Y-60755344D01*
X76964938Y-60983586D01*
X76964936Y-60983596D01*
X76944341Y-61218999D01*
X76944341Y-61219000D01*
X76964936Y-61454403D01*
X76964938Y-61454413D01*
X77026094Y-61682655D01*
X77026096Y-61682659D01*
X77026097Y-61682663D01*
X77053107Y-61740586D01*
X77125965Y-61896830D01*
X77125967Y-61896834D01*
X77181400Y-61976000D01*
X77261505Y-62090401D01*
X77428599Y-62257495D01*
X77452652Y-62274337D01*
X77622165Y-62393032D01*
X77622167Y-62393033D01*
X77622170Y-62393035D01*
X77836337Y-62492903D01*
X78064592Y-62554063D01*
X78252918Y-62570539D01*
X78299999Y-62574659D01*
X78300000Y-62574659D01*
X78300001Y-62574659D01*
X78339234Y-62571226D01*
X78535408Y-62554063D01*
X78763663Y-62492903D01*
X78977830Y-62393035D01*
X79171401Y-62257495D01*
X79287819Y-62141077D01*
X79349142Y-62107592D01*
X79418834Y-62112576D01*
X79474767Y-62154448D01*
X79499184Y-62219912D01*
X79499500Y-62228758D01*
X79499500Y-70867241D01*
X79479815Y-70934280D01*
X79427011Y-70980035D01*
X79357853Y-70989979D01*
X79294297Y-70960954D01*
X79287819Y-70954923D01*
X79247451Y-70914555D01*
X79171401Y-70838505D01*
X79171397Y-70838502D01*
X79171396Y-70838501D01*
X78977834Y-70702967D01*
X78977830Y-70702965D01*
X78831002Y-70634498D01*
X78763663Y-70603097D01*
X78763659Y-70603096D01*
X78763655Y-70603094D01*
X78535413Y-70541938D01*
X78535403Y-70541936D01*
X78300001Y-70521341D01*
X78299999Y-70521341D01*
X78064596Y-70541936D01*
X78064586Y-70541938D01*
X77836344Y-70603094D01*
X77836335Y-70603098D01*
X77622171Y-70702964D01*
X77622169Y-70702965D01*
X77428597Y-70838505D01*
X77261505Y-71005597D01*
X77125965Y-71199169D01*
X77125964Y-71199171D01*
X77026098Y-71413335D01*
X77026094Y-71413344D01*
X76964938Y-71641586D01*
X76964936Y-71641596D01*
X76944341Y-71876999D01*
X76944341Y-71877000D01*
X76964936Y-72112403D01*
X76964938Y-72112413D01*
X77026094Y-72340655D01*
X77026096Y-72340659D01*
X77026097Y-72340663D01*
X77100500Y-72500220D01*
X77125965Y-72554830D01*
X77125967Y-72554834D01*
X77261501Y-72748395D01*
X77261506Y-72748402D01*
X77428597Y-72915493D01*
X77428603Y-72915498D01*
X77614158Y-73045425D01*
X77657783Y-73100002D01*
X77664977Y-73169500D01*
X77633454Y-73231855D01*
X77614158Y-73248575D01*
X77428597Y-73378505D01*
X77261505Y-73545597D01*
X77125965Y-73739169D01*
X77125964Y-73739171D01*
X77026098Y-73953335D01*
X77026094Y-73953344D01*
X76964938Y-74181586D01*
X76964936Y-74181596D01*
X76944341Y-74416999D01*
X76944341Y-74417000D01*
X76964936Y-74652403D01*
X76964938Y-74652413D01*
X77026094Y-74880655D01*
X77026096Y-74880659D01*
X77026097Y-74880663D01*
X77056757Y-74946413D01*
X77125965Y-75094830D01*
X77125967Y-75094834D01*
X77234281Y-75249521D01*
X77261505Y-75288401D01*
X77428599Y-75455495D01*
X77525384Y-75523265D01*
X77622165Y-75591032D01*
X77622167Y-75591033D01*
X77622170Y-75591035D01*
X77836337Y-75690903D01*
X78064592Y-75752063D01*
X78252918Y-75768539D01*
X78299999Y-75772659D01*
X78300000Y-75772659D01*
X78300001Y-75772659D01*
X78339234Y-75769226D01*
X78535408Y-75752063D01*
X78763663Y-75690903D01*
X78977830Y-75591035D01*
X79171401Y-75455495D01*
X79287819Y-75339077D01*
X79349142Y-75305592D01*
X79418834Y-75310576D01*
X79474767Y-75352448D01*
X79499184Y-75417912D01*
X79499500Y-75426758D01*
X79499500Y-77210241D01*
X79479815Y-77277280D01*
X79427011Y-77323035D01*
X79357853Y-77332979D01*
X79294297Y-77303954D01*
X79287819Y-77297923D01*
X79267176Y-77277280D01*
X79171401Y-77181505D01*
X79171397Y-77181502D01*
X79171396Y-77181501D01*
X78977834Y-77045967D01*
X78977830Y-77045965D01*
X78880433Y-77000548D01*
X78763663Y-76946097D01*
X78763659Y-76946096D01*
X78763655Y-76946094D01*
X78535413Y-76884938D01*
X78535403Y-76884936D01*
X78300001Y-76864341D01*
X78299999Y-76864341D01*
X78064596Y-76884936D01*
X78064586Y-76884938D01*
X77836344Y-76946094D01*
X77836335Y-76946098D01*
X77622171Y-77045964D01*
X77622169Y-77045965D01*
X77428597Y-77181505D01*
X77261505Y-77348597D01*
X77125965Y-77542169D01*
X77125964Y-77542171D01*
X77026098Y-77756335D01*
X77026094Y-77756344D01*
X76964938Y-77984586D01*
X76964936Y-77984596D01*
X76944341Y-78219999D01*
X76944341Y-78220000D01*
X76964936Y-78455403D01*
X76964938Y-78455413D01*
X77026094Y-78683655D01*
X77026096Y-78683659D01*
X77026097Y-78683663D01*
X77100500Y-78843220D01*
X77125965Y-78897830D01*
X77125967Y-78897834D01*
X77261501Y-79091395D01*
X77261506Y-79091402D01*
X77383430Y-79213326D01*
X77416915Y-79274649D01*
X77411931Y-79344341D01*
X77370059Y-79400274D01*
X77339083Y-79417189D01*
X77207669Y-79466203D01*
X77207664Y-79466206D01*
X77092455Y-79552452D01*
X77092452Y-79552455D01*
X77006206Y-79667664D01*
X77006202Y-79667671D01*
X76955908Y-79802517D01*
X76949501Y-79862116D01*
X76949500Y-79862135D01*
X76949500Y-81657870D01*
X76949501Y-81657876D01*
X76955908Y-81717483D01*
X77006202Y-81852328D01*
X77006206Y-81852335D01*
X77092452Y-81967544D01*
X77092455Y-81967547D01*
X77207664Y-82053793D01*
X77207671Y-82053797D01*
X77342517Y-82104091D01*
X77342516Y-82104091D01*
X77348525Y-82104737D01*
X77402127Y-82110500D01*
X79197872Y-82110499D01*
X79257483Y-82104091D01*
X79332167Y-82076236D01*
X79401859Y-82071252D01*
X79463182Y-82104737D01*
X79496666Y-82166061D01*
X79499500Y-82192418D01*
X79499500Y-93990241D01*
X79479815Y-94057280D01*
X79427011Y-94103035D01*
X79357853Y-94112979D01*
X79294297Y-94083954D01*
X79287819Y-94077923D01*
X79267176Y-94057280D01*
X79171401Y-93961505D01*
X79171397Y-93961502D01*
X79171396Y-93961501D01*
X78977834Y-93825967D01*
X78977830Y-93825965D01*
X78977828Y-93825964D01*
X78763663Y-93726097D01*
X78763659Y-93726096D01*
X78763655Y-93726094D01*
X78535413Y-93664938D01*
X78535403Y-93664936D01*
X78300001Y-93644341D01*
X78299999Y-93644341D01*
X78064596Y-93664936D01*
X78064586Y-93664938D01*
X77836344Y-93726094D01*
X77836335Y-93726098D01*
X77622171Y-93825964D01*
X77622169Y-93825965D01*
X77428597Y-93961505D01*
X77261505Y-94128597D01*
X77125965Y-94322169D01*
X77125964Y-94322171D01*
X77026098Y-94536335D01*
X77026094Y-94536344D01*
X76964938Y-94764586D01*
X76964936Y-94764596D01*
X76944341Y-94999999D01*
X76944341Y-95000000D01*
X76964936Y-95235403D01*
X76964938Y-95235413D01*
X76991856Y-95335872D01*
X76990193Y-95405722D01*
X76959762Y-95455646D01*
X76544008Y-95871401D01*
X76276270Y-96139139D01*
X76276267Y-96139142D01*
X76246984Y-96168425D01*
X76189142Y-96226266D01*
X76157314Y-96273901D01*
X76157313Y-96273902D01*
X76120690Y-96328709D01*
X76120685Y-96328718D01*
X76087347Y-96409207D01*
X76081823Y-96422543D01*
X76073537Y-96442545D01*
X76073535Y-96442553D01*
X76049500Y-96563389D01*
X76049500Y-112476611D01*
X76073535Y-112597444D01*
X76073540Y-112597461D01*
X76120685Y-112711280D01*
X76120690Y-112711289D01*
X76144019Y-112746202D01*
X76144020Y-112746204D01*
X76189141Y-112813732D01*
X76189144Y-112813736D01*
X76280586Y-112905178D01*
X76280608Y-112905198D01*
X76913181Y-113537771D01*
X76946666Y-113599094D01*
X76949500Y-113625452D01*
X76949500Y-114937870D01*
X76949501Y-114937876D01*
X76955908Y-114997483D01*
X77006202Y-115132328D01*
X77006206Y-115132335D01*
X77092452Y-115247544D01*
X77092455Y-115247547D01*
X77207664Y-115333793D01*
X77207671Y-115333797D01*
X77342517Y-115384091D01*
X77342516Y-115384091D01*
X77348525Y-115384737D01*
X77402127Y-115390500D01*
X79197872Y-115390499D01*
X79257483Y-115384091D01*
X79313637Y-115363147D01*
X79332167Y-115356236D01*
X79401859Y-115351252D01*
X79463182Y-115384737D01*
X79496666Y-115446061D01*
X79499500Y-115472418D01*
X79499500Y-149375500D01*
X79479815Y-149442539D01*
X79427011Y-149488294D01*
X79375500Y-149499500D01*
X74091097Y-149499500D01*
X74024058Y-149479815D01*
X73978303Y-149427011D01*
X73968359Y-149357853D01*
X73997384Y-149294297D01*
X74016786Y-149276233D01*
X74022190Y-149272186D01*
X74108350Y-149157093D01*
X74108354Y-149157086D01*
X74158596Y-149022379D01*
X74158598Y-149022372D01*
X74164999Y-148962844D01*
X74165000Y-148962827D01*
X74165000Y-148250000D01*
X73256706Y-148250000D01*
X73286558Y-148177931D01*
X73310000Y-148060080D01*
X73310000Y-147939920D01*
X73286558Y-147822069D01*
X73256706Y-147750000D01*
X74165000Y-147750000D01*
X74165000Y-147037172D01*
X74164999Y-147037155D01*
X74158598Y-146977627D01*
X74158596Y-146977620D01*
X74108354Y-146842913D01*
X74108350Y-146842906D01*
X74022190Y-146727812D01*
X74022187Y-146727809D01*
X73907093Y-146641649D01*
X73907086Y-146641645D01*
X73772379Y-146591403D01*
X73772372Y-146591401D01*
X73712844Y-146585000D01*
X73346291Y-146585000D01*
X73279252Y-146565315D01*
X73233497Y-146512511D01*
X73223553Y-146443353D01*
X73252578Y-146379797D01*
X73298838Y-146346439D01*
X73412920Y-146299184D01*
X73623018Y-146170436D01*
X73623020Y-146170435D01*
X73623020Y-146170434D01*
X73623023Y-146170433D01*
X73810399Y-146010399D01*
X73970433Y-145823023D01*
X74099184Y-145612920D01*
X74193483Y-145385262D01*
X74251007Y-145145655D01*
X74270341Y-144900000D01*
X74251007Y-144654345D01*
X74193483Y-144414738D01*
X74099184Y-144187080D01*
X74099184Y-144187079D01*
X73970436Y-143976981D01*
X73970435Y-143976979D01*
X73890818Y-143883760D01*
X73810399Y-143789601D01*
X73683928Y-143681585D01*
X73623020Y-143629564D01*
X73623018Y-143629563D01*
X73412920Y-143500815D01*
X73185264Y-143406517D01*
X72945658Y-143348993D01*
X72700000Y-143329659D01*
X72454341Y-143348993D01*
X72214735Y-143406517D01*
X71987079Y-143500815D01*
X71776981Y-143629563D01*
X71776979Y-143629564D01*
X71589601Y-143789601D01*
X71429564Y-143976979D01*
X71429563Y-143976981D01*
X71300815Y-144187079D01*
X71206517Y-144414735D01*
X71148993Y-144654341D01*
X71129659Y-144900000D01*
X71148993Y-145145658D01*
X71206517Y-145385264D01*
X71300815Y-145612920D01*
X71429563Y-145823018D01*
X71429564Y-145823020D01*
X71429567Y-145823023D01*
X71589601Y-146010399D01*
X71734648Y-146134280D01*
X71776979Y-146170435D01*
X71776981Y-146170436D01*
X71987080Y-146299184D01*
X71987079Y-146299184D01*
X72101162Y-146346439D01*
X72155565Y-146390280D01*
X72177630Y-146456574D01*
X72160351Y-146524274D01*
X72109213Y-146571884D01*
X72053709Y-146585000D01*
X71687155Y-146585000D01*
X71627627Y-146591401D01*
X71627620Y-146591403D01*
X71492913Y-146641645D01*
X71492906Y-146641649D01*
X71377812Y-146727809D01*
X71377809Y-146727812D01*
X71291649Y-146842906D01*
X71291645Y-146842913D01*
X71241403Y-146977620D01*
X71241401Y-146977627D01*
X71235000Y-147037155D01*
X71235000Y-147750000D01*
X72143294Y-147750000D01*
X72113442Y-147822069D01*
X72090000Y-147939920D01*
X72090000Y-148060080D01*
X72113442Y-148177931D01*
X72143294Y-148250000D01*
X71235000Y-148250000D01*
X71235000Y-148962844D01*
X71241401Y-149022372D01*
X71241403Y-149022379D01*
X71291645Y-149157086D01*
X71291649Y-149157093D01*
X71377809Y-149272186D01*
X71383214Y-149276233D01*
X71425085Y-149332167D01*
X71430069Y-149401859D01*
X71396584Y-149463182D01*
X71335260Y-149496666D01*
X71308903Y-149499500D01*
X67460103Y-149499500D01*
X67393064Y-149479815D01*
X67347309Y-149427011D01*
X67337365Y-149357853D01*
X67366390Y-149294297D01*
X67385792Y-149276234D01*
X67445240Y-149231730D01*
X67477546Y-149207546D01*
X67563796Y-149092331D01*
X67614091Y-148957483D01*
X67620500Y-148897873D01*
X67620499Y-147585450D01*
X67640184Y-147518412D01*
X67656813Y-147497775D01*
X67708729Y-147445860D01*
X67708733Y-147445858D01*
X67795858Y-147358733D01*
X67832238Y-147304286D01*
X67864312Y-147256286D01*
X67911463Y-147142451D01*
X67935500Y-147021607D01*
X67935500Y-146898393D01*
X67935500Y-140778394D01*
X67911463Y-140657548D01*
X67891581Y-140609548D01*
X67864312Y-140543714D01*
X67830084Y-140492490D01*
X67795858Y-140441267D01*
X67795856Y-140441264D01*
X67705637Y-140351045D01*
X67705606Y-140351016D01*
X67610237Y-140255647D01*
X67576752Y-140194324D01*
X67578143Y-140135872D01*
X67605063Y-140035408D01*
X67625659Y-139800000D01*
X67605063Y-139564592D01*
X67543903Y-139336337D01*
X67444035Y-139122171D01*
X67438425Y-139114158D01*
X67308494Y-138928597D01*
X67141402Y-138761506D01*
X67141395Y-138761501D01*
X66947834Y-138625967D01*
X66947830Y-138625965D01*
X66947828Y-138625964D01*
X66733663Y-138526097D01*
X66733659Y-138526096D01*
X66733655Y-138526094D01*
X66505413Y-138464938D01*
X66505403Y-138464936D01*
X66270001Y-138444341D01*
X66269999Y-138444341D01*
X66034596Y-138464936D01*
X66034586Y-138464938D01*
X65806344Y-138526094D01*
X65806335Y-138526098D01*
X65592171Y-138625964D01*
X65592169Y-138625965D01*
X65398597Y-138761505D01*
X65231505Y-138928597D01*
X65101575Y-139114158D01*
X65046998Y-139157783D01*
X64977500Y-139164977D01*
X64915145Y-139133454D01*
X64898425Y-139114158D01*
X64768494Y-138928597D01*
X64601402Y-138761506D01*
X64601395Y-138761501D01*
X64407834Y-138625967D01*
X64407830Y-138625965D01*
X64407828Y-138625964D01*
X64193663Y-138526097D01*
X64193659Y-138526096D01*
X64193655Y-138526094D01*
X63965413Y-138464938D01*
X63965403Y-138464936D01*
X63730001Y-138444341D01*
X63729999Y-138444341D01*
X63494596Y-138464936D01*
X63494586Y-138464938D01*
X63266344Y-138526094D01*
X63266335Y-138526098D01*
X63052171Y-138625964D01*
X63052169Y-138625965D01*
X62858597Y-138761505D01*
X62691505Y-138928597D01*
X62555965Y-139122169D01*
X62555964Y-139122171D01*
X62456098Y-139336335D01*
X62456094Y-139336344D01*
X62394938Y-139564586D01*
X62394936Y-139564596D01*
X62374341Y-139799999D01*
X62374341Y-139800000D01*
X62394936Y-140035403D01*
X62394938Y-140035413D01*
X62421856Y-140135872D01*
X62420193Y-140205722D01*
X62389763Y-140255645D01*
X62339271Y-140306138D01*
X62339270Y-140306139D01*
X62339267Y-140306142D01*
X62295704Y-140349704D01*
X62252142Y-140393266D01*
X62237220Y-140415598D01*
X62222398Y-140437782D01*
X62183687Y-140495715D01*
X62183685Y-140495718D01*
X62136540Y-140609538D01*
X62136535Y-140609554D01*
X62121204Y-140686633D01*
X62112500Y-140730389D01*
X62112500Y-147069611D01*
X62136535Y-147190444D01*
X62136540Y-147190461D01*
X62183685Y-147304281D01*
X62183687Y-147304285D01*
X62195639Y-147322171D01*
X62195640Y-147322173D01*
X62252141Y-147406732D01*
X62252144Y-147406736D01*
X62343586Y-147498178D01*
X62343608Y-147498198D01*
X62389762Y-147544352D01*
X62423247Y-147605675D01*
X62421856Y-147664126D01*
X62394938Y-147764586D01*
X62394936Y-147764596D01*
X62374341Y-147999999D01*
X62374341Y-148000000D01*
X62394936Y-148235403D01*
X62394938Y-148235413D01*
X62456094Y-148463655D01*
X62456096Y-148463659D01*
X62456097Y-148463663D01*
X62491962Y-148540575D01*
X62555965Y-148677830D01*
X62555967Y-148677834D01*
X62664281Y-148832521D01*
X62691505Y-148871401D01*
X62858599Y-149038495D01*
X62955384Y-149106265D01*
X63052165Y-149174032D01*
X63052167Y-149174033D01*
X63052170Y-149174035D01*
X63124037Y-149207547D01*
X63243209Y-149263118D01*
X63295648Y-149309290D01*
X63314800Y-149376484D01*
X63294584Y-149443365D01*
X63241419Y-149488700D01*
X63190804Y-149499500D01*
X58691097Y-149499500D01*
X58624058Y-149479815D01*
X58578303Y-149427011D01*
X58568359Y-149357853D01*
X58597384Y-149294297D01*
X58616786Y-149276233D01*
X58622190Y-149272186D01*
X58708350Y-149157093D01*
X58708354Y-149157086D01*
X58758596Y-149022379D01*
X58758598Y-149022372D01*
X58764999Y-148962844D01*
X58765000Y-148962827D01*
X58765000Y-148250000D01*
X57856706Y-148250000D01*
X57886558Y-148177931D01*
X57910000Y-148060080D01*
X57910000Y-147939920D01*
X57886558Y-147822069D01*
X57856706Y-147750000D01*
X58765000Y-147750000D01*
X58765000Y-147037172D01*
X58764999Y-147037155D01*
X58758598Y-146977627D01*
X58758596Y-146977620D01*
X58708354Y-146842913D01*
X58708350Y-146842906D01*
X58622190Y-146727812D01*
X58622187Y-146727809D01*
X58507093Y-146641649D01*
X58507086Y-146641645D01*
X58372379Y-146591403D01*
X58372372Y-146591401D01*
X58312844Y-146585000D01*
X57946291Y-146585000D01*
X57879252Y-146565315D01*
X57833497Y-146512511D01*
X57823553Y-146443353D01*
X57852578Y-146379797D01*
X57898838Y-146346439D01*
X58012920Y-146299184D01*
X58223018Y-146170436D01*
X58223020Y-146170435D01*
X58223020Y-146170434D01*
X58223023Y-146170433D01*
X58410399Y-146010399D01*
X58570433Y-145823023D01*
X58699184Y-145612920D01*
X58793483Y-145385262D01*
X58851007Y-145145655D01*
X58870341Y-144900000D01*
X58851007Y-144654345D01*
X58793483Y-144414738D01*
X58699184Y-144187080D01*
X58699184Y-144187079D01*
X58570436Y-143976981D01*
X58570435Y-143976979D01*
X58490818Y-143883760D01*
X58410399Y-143789601D01*
X58283928Y-143681585D01*
X58223020Y-143629564D01*
X58223018Y-143629563D01*
X58012920Y-143500815D01*
X57785264Y-143406517D01*
X57545658Y-143348993D01*
X57300000Y-143329659D01*
X57054341Y-143348993D01*
X56814735Y-143406517D01*
X56587079Y-143500815D01*
X56376981Y-143629563D01*
X56376979Y-143629564D01*
X56189601Y-143789601D01*
X56029564Y-143976979D01*
X56029563Y-143976981D01*
X55900815Y-144187079D01*
X55806517Y-144414735D01*
X55748993Y-144654341D01*
X55729659Y-144900000D01*
X55748993Y-145145658D01*
X55806517Y-145385264D01*
X55900815Y-145612920D01*
X56029563Y-145823018D01*
X56029564Y-145823020D01*
X56029567Y-145823023D01*
X56189601Y-146010399D01*
X56334648Y-146134280D01*
X56376979Y-146170435D01*
X56376981Y-146170436D01*
X56587080Y-146299184D01*
X56587079Y-146299184D01*
X56701162Y-146346439D01*
X56755565Y-146390280D01*
X56777630Y-146456574D01*
X56760351Y-146524274D01*
X56709213Y-146571884D01*
X56653709Y-146585000D01*
X56287155Y-146585000D01*
X56227627Y-146591401D01*
X56227620Y-146591403D01*
X56092913Y-146641645D01*
X56092906Y-146641649D01*
X55977812Y-146727809D01*
X55977809Y-146727812D01*
X55891649Y-146842906D01*
X55891645Y-146842913D01*
X55841403Y-146977620D01*
X55841401Y-146977627D01*
X55835000Y-147037155D01*
X55835000Y-147750000D01*
X56743294Y-147750000D01*
X56713442Y-147822069D01*
X56690000Y-147939920D01*
X56690000Y-148060080D01*
X56713442Y-148177931D01*
X56743294Y-148250000D01*
X55835000Y-148250000D01*
X55835000Y-148962844D01*
X55841401Y-149022372D01*
X55841403Y-149022379D01*
X55891645Y-149157086D01*
X55891649Y-149157093D01*
X55977809Y-149272186D01*
X55983214Y-149276233D01*
X56025085Y-149332167D01*
X56030069Y-149401859D01*
X55996584Y-149463182D01*
X55935260Y-149496666D01*
X55908903Y-149499500D01*
X50624500Y-149499500D01*
X50557461Y-149479815D01*
X50511706Y-149427011D01*
X50500500Y-149375500D01*
X50500500Y-136600000D01*
X55729659Y-136600000D01*
X55748993Y-136845658D01*
X55806517Y-137085264D01*
X55900815Y-137312920D01*
X56029563Y-137523018D01*
X56029564Y-137523020D01*
X56029567Y-137523023D01*
X56189601Y-137710399D01*
X56334648Y-137834280D01*
X56376979Y-137870435D01*
X56376981Y-137870436D01*
X56587079Y-137999184D01*
X56814735Y-138093482D01*
X56814736Y-138093482D01*
X56814738Y-138093483D01*
X57054345Y-138151007D01*
X57300000Y-138170341D01*
X57545655Y-138151007D01*
X57785262Y-138093483D01*
X58012920Y-137999184D01*
X58223023Y-137870433D01*
X58410399Y-137710399D01*
X58570433Y-137523023D01*
X58699184Y-137312920D01*
X58793483Y-137085262D01*
X58851007Y-136845655D01*
X58870341Y-136600000D01*
X58851007Y-136354345D01*
X58793483Y-136114738D01*
X58699184Y-135887080D01*
X58699184Y-135887079D01*
X58570436Y-135676981D01*
X58570435Y-135676979D01*
X58450315Y-135536337D01*
X58410399Y-135489601D01*
X58286516Y-135383795D01*
X58223020Y-135329564D01*
X58223018Y-135329563D01*
X58012920Y-135200815D01*
X57785264Y-135106517D01*
X57545658Y-135048993D01*
X57300000Y-135029659D01*
X57054341Y-135048993D01*
X56814735Y-135106517D01*
X56587079Y-135200815D01*
X56376981Y-135329563D01*
X56376979Y-135329564D01*
X56189601Y-135489601D01*
X56029564Y-135676979D01*
X56029563Y-135676981D01*
X55900815Y-135887079D01*
X55806517Y-136114735D01*
X55748993Y-136354341D01*
X55729659Y-136600000D01*
X50500500Y-136600000D01*
X50500500Y-129900000D01*
X55729659Y-129900000D01*
X55748993Y-130145658D01*
X55806517Y-130385264D01*
X55900815Y-130612920D01*
X56029563Y-130823018D01*
X56029564Y-130823020D01*
X56029567Y-130823023D01*
X56189601Y-131010399D01*
X56334648Y-131134280D01*
X56376979Y-131170435D01*
X56376981Y-131170436D01*
X56587080Y-131299184D01*
X56587079Y-131299184D01*
X56701162Y-131346439D01*
X56755565Y-131390280D01*
X56777630Y-131456574D01*
X56760351Y-131524274D01*
X56709213Y-131571884D01*
X56653709Y-131585000D01*
X56287155Y-131585000D01*
X56227627Y-131591401D01*
X56227620Y-131591403D01*
X56092913Y-131641645D01*
X56092906Y-131641649D01*
X55977812Y-131727809D01*
X55977809Y-131727812D01*
X55891649Y-131842906D01*
X55891645Y-131842913D01*
X55841403Y-131977620D01*
X55841401Y-131977627D01*
X55835000Y-132037155D01*
X55835000Y-132750000D01*
X56743294Y-132750000D01*
X56713442Y-132822069D01*
X56690000Y-132939920D01*
X56690000Y-133060080D01*
X56713442Y-133177931D01*
X56743294Y-133250000D01*
X55835000Y-133250000D01*
X55835000Y-133962844D01*
X55841401Y-134022372D01*
X55841403Y-134022379D01*
X55891645Y-134157086D01*
X55891649Y-134157093D01*
X55977809Y-134272187D01*
X55977812Y-134272190D01*
X56092906Y-134358350D01*
X56092913Y-134358354D01*
X56227620Y-134408596D01*
X56227627Y-134408598D01*
X56287155Y-134414999D01*
X56287172Y-134415000D01*
X57050000Y-134415000D01*
X57050000Y-133556706D01*
X57122069Y-133586558D01*
X57239920Y-133610000D01*
X57360080Y-133610000D01*
X57477931Y-133586558D01*
X57550000Y-133556706D01*
X57550000Y-134415000D01*
X58312828Y-134415000D01*
X58312844Y-134414999D01*
X58372372Y-134408598D01*
X58372379Y-134408596D01*
X58507086Y-134358354D01*
X58507093Y-134358350D01*
X58622187Y-134272190D01*
X58622190Y-134272187D01*
X58708350Y-134157093D01*
X58708354Y-134157086D01*
X58758596Y-134022379D01*
X58758598Y-134022372D01*
X58764999Y-133962844D01*
X58765000Y-133962827D01*
X58765000Y-133250000D01*
X57856706Y-133250000D01*
X57886558Y-133177931D01*
X57910000Y-133060080D01*
X57910000Y-132939920D01*
X57886558Y-132822069D01*
X57856706Y-132750000D01*
X58765000Y-132750000D01*
X58765000Y-132037172D01*
X58764999Y-132037155D01*
X58758598Y-131977627D01*
X58758596Y-131977620D01*
X58708354Y-131842913D01*
X58708350Y-131842906D01*
X58622190Y-131727812D01*
X58622187Y-131727809D01*
X58507093Y-131641649D01*
X58507086Y-131641645D01*
X58372379Y-131591403D01*
X58372372Y-131591401D01*
X58312844Y-131585000D01*
X57946291Y-131585000D01*
X57879252Y-131565315D01*
X57833497Y-131512511D01*
X57823553Y-131443353D01*
X57852578Y-131379797D01*
X57898838Y-131346439D01*
X58012920Y-131299184D01*
X58223018Y-131170436D01*
X58223020Y-131170435D01*
X58223020Y-131170434D01*
X58223023Y-131170433D01*
X58410399Y-131010399D01*
X58570433Y-130823023D01*
X58699184Y-130612920D01*
X58793483Y-130385262D01*
X58851007Y-130145655D01*
X58870341Y-129900000D01*
X58851007Y-129654345D01*
X58793483Y-129414738D01*
X58725827Y-129251401D01*
X58699184Y-129187079D01*
X58570436Y-128976981D01*
X58570435Y-128976979D01*
X58534280Y-128934648D01*
X58410399Y-128789601D01*
X58286516Y-128683795D01*
X58223020Y-128629564D01*
X58223018Y-128629563D01*
X58012920Y-128500815D01*
X57785264Y-128406517D01*
X57545658Y-128348993D01*
X57300000Y-128329659D01*
X57054341Y-128348993D01*
X56814735Y-128406517D01*
X56587079Y-128500815D01*
X56376981Y-128629563D01*
X56376979Y-128629564D01*
X56189601Y-128789601D01*
X56029564Y-128976979D01*
X56029563Y-128976981D01*
X55900815Y-129187079D01*
X55806517Y-129414735D01*
X55748993Y-129654341D01*
X55729659Y-129900000D01*
X50500500Y-129900000D01*
X50500500Y-121600000D01*
X55729659Y-121600000D01*
X55748993Y-121845658D01*
X55806517Y-122085264D01*
X55900815Y-122312920D01*
X56029563Y-122523018D01*
X56029564Y-122523020D01*
X56029567Y-122523023D01*
X56189601Y-122710399D01*
X56334648Y-122834280D01*
X56376979Y-122870435D01*
X56376981Y-122870436D01*
X56587079Y-122999184D01*
X56814735Y-123093482D01*
X56814736Y-123093482D01*
X56814738Y-123093483D01*
X57054345Y-123151007D01*
X57300000Y-123170341D01*
X57545655Y-123151007D01*
X57785262Y-123093483D01*
X58012920Y-122999184D01*
X58223023Y-122870433D01*
X58410399Y-122710399D01*
X58570433Y-122523023D01*
X58699184Y-122312920D01*
X58793483Y-122085262D01*
X58851007Y-121845655D01*
X58870341Y-121600000D01*
X58851007Y-121354345D01*
X58793483Y-121114738D01*
X58699184Y-120887080D01*
X58699184Y-120887079D01*
X58570436Y-120676981D01*
X58570435Y-120676979D01*
X58534280Y-120634648D01*
X58410399Y-120489601D01*
X58286516Y-120383795D01*
X58223020Y-120329564D01*
X58223018Y-120329563D01*
X58012920Y-120200815D01*
X57785264Y-120106517D01*
X57545658Y-120048993D01*
X57300000Y-120029659D01*
X57054341Y-120048993D01*
X56814735Y-120106517D01*
X56587079Y-120200815D01*
X56376981Y-120329563D01*
X56376979Y-120329564D01*
X56189601Y-120489601D01*
X56029564Y-120676979D01*
X56029563Y-120676981D01*
X55900815Y-120887079D01*
X55806517Y-121114735D01*
X55748993Y-121354341D01*
X55729659Y-121600000D01*
X50500500Y-121600000D01*
X50500500Y-114900000D01*
X55729659Y-114900000D01*
X55748993Y-115145658D01*
X55806517Y-115385264D01*
X55900815Y-115612920D01*
X56029563Y-115823018D01*
X56029564Y-115823020D01*
X56029567Y-115823023D01*
X56189601Y-116010399D01*
X56334648Y-116134280D01*
X56376979Y-116170435D01*
X56376981Y-116170436D01*
X56587080Y-116299184D01*
X56587079Y-116299184D01*
X56701162Y-116346439D01*
X56755565Y-116390280D01*
X56777630Y-116456574D01*
X56760351Y-116524274D01*
X56709213Y-116571884D01*
X56653709Y-116585000D01*
X56287155Y-116585000D01*
X56227627Y-116591401D01*
X56227620Y-116591403D01*
X56092913Y-116641645D01*
X56092906Y-116641649D01*
X55977812Y-116727809D01*
X55977809Y-116727812D01*
X55891649Y-116842906D01*
X55891645Y-116842913D01*
X55841403Y-116977620D01*
X55841401Y-116977627D01*
X55835000Y-117037155D01*
X55835000Y-117750000D01*
X56743294Y-117750000D01*
X56713442Y-117822069D01*
X56690000Y-117939920D01*
X56690000Y-118060080D01*
X56713442Y-118177931D01*
X56743294Y-118250000D01*
X55835000Y-118250000D01*
X55835000Y-118962844D01*
X55841401Y-119022372D01*
X55841403Y-119022379D01*
X55891645Y-119157086D01*
X55891649Y-119157093D01*
X55977809Y-119272187D01*
X55977812Y-119272190D01*
X56092906Y-119358350D01*
X56092913Y-119358354D01*
X56227620Y-119408596D01*
X56227627Y-119408598D01*
X56287155Y-119414999D01*
X56287172Y-119415000D01*
X57050000Y-119415000D01*
X57050000Y-118556706D01*
X57122069Y-118586558D01*
X57239920Y-118610000D01*
X57360080Y-118610000D01*
X57477931Y-118586558D01*
X57550000Y-118556706D01*
X57550000Y-119415000D01*
X58312828Y-119415000D01*
X58312844Y-119414999D01*
X58372372Y-119408598D01*
X58372379Y-119408596D01*
X58507086Y-119358354D01*
X58507093Y-119358350D01*
X58622187Y-119272190D01*
X58622190Y-119272187D01*
X58708350Y-119157093D01*
X58708354Y-119157086D01*
X58758596Y-119022379D01*
X58758598Y-119022372D01*
X58764999Y-118962844D01*
X58765000Y-118962827D01*
X58765000Y-118250000D01*
X57856706Y-118250000D01*
X57869133Y-118219999D01*
X63644341Y-118219999D01*
X63644341Y-118220000D01*
X63664936Y-118455403D01*
X63664938Y-118455413D01*
X63726094Y-118683655D01*
X63726096Y-118683659D01*
X63726097Y-118683663D01*
X63825965Y-118897830D01*
X63825967Y-118897834D01*
X63961501Y-119091395D01*
X63961506Y-119091402D01*
X64128597Y-119258493D01*
X64128603Y-119258498D01*
X64314158Y-119388425D01*
X64357783Y-119443002D01*
X64364977Y-119512500D01*
X64333454Y-119574855D01*
X64314158Y-119591575D01*
X64128597Y-119721505D01*
X63961505Y-119888597D01*
X63825965Y-120082169D01*
X63825964Y-120082171D01*
X63726098Y-120296335D01*
X63726094Y-120296344D01*
X63664938Y-120524586D01*
X63664936Y-120524596D01*
X63644341Y-120759999D01*
X63644341Y-120760000D01*
X63664936Y-120995403D01*
X63664938Y-120995413D01*
X63726094Y-121223655D01*
X63726096Y-121223659D01*
X63726097Y-121223663D01*
X63787035Y-121354345D01*
X63825965Y-121437830D01*
X63825967Y-121437834D01*
X63961501Y-121631395D01*
X63961506Y-121631402D01*
X64128597Y-121798493D01*
X64128603Y-121798498D01*
X64314158Y-121928425D01*
X64357783Y-121983002D01*
X64364977Y-122052500D01*
X64333454Y-122114855D01*
X64314158Y-122131575D01*
X64128597Y-122261505D01*
X63961505Y-122428597D01*
X63825965Y-122622169D01*
X63825964Y-122622171D01*
X63726098Y-122836335D01*
X63726094Y-122836344D01*
X63664938Y-123064586D01*
X63664936Y-123064596D01*
X63644341Y-123299999D01*
X63644341Y-123300000D01*
X63664936Y-123535403D01*
X63664938Y-123535413D01*
X63726094Y-123763655D01*
X63726096Y-123763659D01*
X63726097Y-123763663D01*
X63825965Y-123977830D01*
X63825967Y-123977834D01*
X63961501Y-124171395D01*
X63961506Y-124171402D01*
X64128597Y-124338493D01*
X64128603Y-124338498D01*
X64314158Y-124468425D01*
X64357783Y-124523002D01*
X64364977Y-124592500D01*
X64333454Y-124654855D01*
X64314158Y-124671575D01*
X64128597Y-124801505D01*
X63961505Y-124968597D01*
X63825965Y-125162169D01*
X63825964Y-125162171D01*
X63726098Y-125376335D01*
X63726094Y-125376344D01*
X63664938Y-125604586D01*
X63664936Y-125604596D01*
X63644341Y-125839999D01*
X63644341Y-125840000D01*
X63664936Y-126075403D01*
X63664938Y-126075413D01*
X63726094Y-126303655D01*
X63726096Y-126303659D01*
X63726097Y-126303663D01*
X63825965Y-126517830D01*
X63825967Y-126517834D01*
X63961501Y-126711395D01*
X63961506Y-126711402D01*
X64128597Y-126878493D01*
X64128603Y-126878498D01*
X64314158Y-127008425D01*
X64357783Y-127063002D01*
X64364977Y-127132500D01*
X64333454Y-127194855D01*
X64314158Y-127211575D01*
X64128597Y-127341505D01*
X63961505Y-127508597D01*
X63825965Y-127702169D01*
X63825964Y-127702171D01*
X63726098Y-127916335D01*
X63726094Y-127916344D01*
X63664938Y-128144586D01*
X63664936Y-128144596D01*
X63644341Y-128379999D01*
X63644341Y-128380000D01*
X63664936Y-128615403D01*
X63664938Y-128615413D01*
X63726094Y-128843655D01*
X63726096Y-128843659D01*
X63726097Y-128843663D01*
X63825965Y-129057830D01*
X63825967Y-129057834D01*
X63961501Y-129251395D01*
X63961506Y-129251402D01*
X64128597Y-129418493D01*
X64128603Y-129418498D01*
X64314158Y-129548425D01*
X64357783Y-129603002D01*
X64364977Y-129672500D01*
X64333454Y-129734855D01*
X64314158Y-129751575D01*
X64128597Y-129881505D01*
X63961505Y-130048597D01*
X63825965Y-130242169D01*
X63825964Y-130242171D01*
X63726098Y-130456335D01*
X63726094Y-130456344D01*
X63664938Y-130684586D01*
X63664936Y-130684596D01*
X63644341Y-130919999D01*
X63644341Y-130920000D01*
X63664936Y-131155403D01*
X63664938Y-131155413D01*
X63726094Y-131383655D01*
X63726096Y-131383659D01*
X63726097Y-131383663D01*
X63753931Y-131443353D01*
X63825965Y-131597830D01*
X63825967Y-131597834D01*
X63961501Y-131791395D01*
X63961506Y-131791402D01*
X64128597Y-131958493D01*
X64128603Y-131958498D01*
X64314158Y-132088425D01*
X64357783Y-132143002D01*
X64364977Y-132212500D01*
X64333454Y-132274855D01*
X64314158Y-132291575D01*
X64128597Y-132421505D01*
X63961505Y-132588597D01*
X63825965Y-132782169D01*
X63825964Y-132782171D01*
X63726098Y-132996335D01*
X63726094Y-132996344D01*
X63664938Y-133224586D01*
X63664936Y-133224596D01*
X63644341Y-133459999D01*
X63644341Y-133460000D01*
X63664936Y-133695403D01*
X63664938Y-133695413D01*
X63726094Y-133923655D01*
X63726096Y-133923659D01*
X63726097Y-133923663D01*
X63772126Y-134022372D01*
X63825965Y-134137830D01*
X63825967Y-134137834D01*
X63961501Y-134331395D01*
X63961506Y-134331402D01*
X64128597Y-134498493D01*
X64128603Y-134498498D01*
X64314158Y-134628425D01*
X64357783Y-134683002D01*
X64364977Y-134752500D01*
X64333454Y-134814855D01*
X64314158Y-134831575D01*
X64128597Y-134961505D01*
X63961505Y-135128597D01*
X63825965Y-135322169D01*
X63825964Y-135322171D01*
X63726098Y-135536335D01*
X63726094Y-135536344D01*
X63664938Y-135764586D01*
X63664936Y-135764596D01*
X63644341Y-135999999D01*
X63644341Y-136000000D01*
X63664936Y-136235403D01*
X63664938Y-136235413D01*
X63726094Y-136463655D01*
X63726096Y-136463659D01*
X63726097Y-136463663D01*
X63789672Y-136600000D01*
X63825965Y-136677830D01*
X63825967Y-136677834D01*
X63934281Y-136832521D01*
X63961505Y-136871401D01*
X64128599Y-137038495D01*
X64195389Y-137085262D01*
X64322165Y-137174032D01*
X64322167Y-137174033D01*
X64322170Y-137174035D01*
X64536337Y-137273903D01*
X64764592Y-137335063D01*
X64952918Y-137351539D01*
X64999999Y-137355659D01*
X65000000Y-137355659D01*
X65000001Y-137355659D01*
X65039234Y-137352226D01*
X65235408Y-137335063D01*
X65463663Y-137273903D01*
X65677830Y-137174035D01*
X65871401Y-137038495D01*
X66038495Y-136871401D01*
X66174035Y-136677830D01*
X66210328Y-136600000D01*
X71129659Y-136600000D01*
X71148993Y-136845658D01*
X71206517Y-137085264D01*
X71300815Y-137312920D01*
X71429563Y-137523018D01*
X71429564Y-137523020D01*
X71429567Y-137523023D01*
X71589601Y-137710399D01*
X71734648Y-137834280D01*
X71776979Y-137870435D01*
X71776981Y-137870436D01*
X71987079Y-137999184D01*
X72214735Y-138093482D01*
X72214736Y-138093482D01*
X72214738Y-138093483D01*
X72454345Y-138151007D01*
X72700000Y-138170341D01*
X72945655Y-138151007D01*
X73185262Y-138093483D01*
X73412920Y-137999184D01*
X73623023Y-137870433D01*
X73810399Y-137710399D01*
X73970433Y-137523023D01*
X74099184Y-137312920D01*
X74193483Y-137085262D01*
X74251007Y-136845655D01*
X74270341Y-136600000D01*
X74251007Y-136354345D01*
X74193483Y-136114738D01*
X74099184Y-135887080D01*
X74099184Y-135887079D01*
X73970436Y-135676981D01*
X73970435Y-135676979D01*
X73850315Y-135536337D01*
X73810399Y-135489601D01*
X73686516Y-135383795D01*
X73623020Y-135329564D01*
X73623018Y-135329563D01*
X73412920Y-135200815D01*
X73185264Y-135106517D01*
X72945658Y-135048993D01*
X72700000Y-135029659D01*
X72454341Y-135048993D01*
X72214735Y-135106517D01*
X71987079Y-135200815D01*
X71776981Y-135329563D01*
X71776979Y-135329564D01*
X71589601Y-135489601D01*
X71429564Y-135676979D01*
X71429563Y-135676981D01*
X71300815Y-135887079D01*
X71206517Y-136114735D01*
X71148993Y-136354341D01*
X71129659Y-136600000D01*
X66210328Y-136600000D01*
X66273903Y-136463663D01*
X66335063Y-136235408D01*
X66355659Y-136000000D01*
X66335063Y-135764592D01*
X66273903Y-135536337D01*
X66174035Y-135322171D01*
X66038495Y-135128599D01*
X66038494Y-135128597D01*
X65871402Y-134961506D01*
X65871396Y-134961501D01*
X65685842Y-134831575D01*
X65642217Y-134776998D01*
X65635023Y-134707500D01*
X65666546Y-134645145D01*
X65685842Y-134628425D01*
X65708026Y-134612891D01*
X65871401Y-134498495D01*
X66038495Y-134331401D01*
X66174035Y-134137830D01*
X66273903Y-133923663D01*
X66335063Y-133695408D01*
X66355659Y-133460000D01*
X66335063Y-133224592D01*
X66273903Y-132996337D01*
X66174035Y-132782171D01*
X66054284Y-132611147D01*
X66038494Y-132588597D01*
X65871402Y-132421506D01*
X65871396Y-132421501D01*
X65685842Y-132291575D01*
X65642217Y-132236998D01*
X65635023Y-132167500D01*
X65666546Y-132105145D01*
X65685842Y-132088425D01*
X65708026Y-132072891D01*
X65871401Y-131958495D01*
X66038495Y-131791401D01*
X66174035Y-131597830D01*
X66273903Y-131383663D01*
X66335063Y-131155408D01*
X66355659Y-130920000D01*
X66335063Y-130684592D01*
X66273903Y-130456337D01*
X66174035Y-130242171D01*
X66106457Y-130145658D01*
X66038494Y-130048597D01*
X65889896Y-129900000D01*
X71129659Y-129900000D01*
X71148993Y-130145658D01*
X71206517Y-130385264D01*
X71300815Y-130612920D01*
X71429563Y-130823018D01*
X71429564Y-130823020D01*
X71429567Y-130823023D01*
X71589601Y-131010399D01*
X71734648Y-131134280D01*
X71776979Y-131170435D01*
X71776981Y-131170436D01*
X71987080Y-131299184D01*
X71987079Y-131299184D01*
X72101162Y-131346439D01*
X72155565Y-131390280D01*
X72177630Y-131456574D01*
X72160351Y-131524274D01*
X72109213Y-131571884D01*
X72053709Y-131585000D01*
X71687155Y-131585000D01*
X71627627Y-131591401D01*
X71627620Y-131591403D01*
X71492913Y-131641645D01*
X71492906Y-131641649D01*
X71377812Y-131727809D01*
X71377809Y-131727812D01*
X71291649Y-131842906D01*
X71291645Y-131842913D01*
X71241403Y-131977620D01*
X71241401Y-131977627D01*
X71235000Y-132037155D01*
X71235000Y-132750000D01*
X72143294Y-132750000D01*
X72113442Y-132822069D01*
X72090000Y-132939920D01*
X72090000Y-133060080D01*
X72113442Y-133177931D01*
X72143294Y-133250000D01*
X71235000Y-133250000D01*
X71235000Y-133962844D01*
X71241401Y-134022372D01*
X71241403Y-134022379D01*
X71291645Y-134157086D01*
X71291649Y-134157093D01*
X71377809Y-134272187D01*
X71377812Y-134272190D01*
X71492906Y-134358350D01*
X71492913Y-134358354D01*
X71627620Y-134408596D01*
X71627627Y-134408598D01*
X71687155Y-134414999D01*
X71687172Y-134415000D01*
X72450000Y-134415000D01*
X72450000Y-133556706D01*
X72522069Y-133586558D01*
X72639920Y-133610000D01*
X72760080Y-133610000D01*
X72877931Y-133586558D01*
X72950000Y-133556706D01*
X72950000Y-134415000D01*
X73712828Y-134415000D01*
X73712844Y-134414999D01*
X73772372Y-134408598D01*
X73772379Y-134408596D01*
X73907086Y-134358354D01*
X73907093Y-134358350D01*
X74022187Y-134272190D01*
X74022190Y-134272187D01*
X74108350Y-134157093D01*
X74108354Y-134157086D01*
X74158596Y-134022379D01*
X74158598Y-134022372D01*
X74164999Y-133962844D01*
X74165000Y-133962827D01*
X74165000Y-133250000D01*
X73256706Y-133250000D01*
X73286558Y-133177931D01*
X73310000Y-133060080D01*
X73310000Y-132939920D01*
X73286558Y-132822069D01*
X73256706Y-132750000D01*
X74165000Y-132750000D01*
X74165000Y-132037172D01*
X74164999Y-132037155D01*
X74158598Y-131977627D01*
X74158596Y-131977620D01*
X74108354Y-131842913D01*
X74108350Y-131842906D01*
X74022190Y-131727812D01*
X74022187Y-131727809D01*
X73907093Y-131641649D01*
X73907086Y-131641645D01*
X73772379Y-131591403D01*
X73772372Y-131591401D01*
X73712844Y-131585000D01*
X73346291Y-131585000D01*
X73279252Y-131565315D01*
X73233497Y-131512511D01*
X73223553Y-131443353D01*
X73252578Y-131379797D01*
X73298838Y-131346439D01*
X73412920Y-131299184D01*
X73623018Y-131170436D01*
X73623020Y-131170435D01*
X73623020Y-131170434D01*
X73623023Y-131170433D01*
X73810399Y-131010399D01*
X73970433Y-130823023D01*
X74099184Y-130612920D01*
X74193483Y-130385262D01*
X74251007Y-130145655D01*
X74270341Y-129900000D01*
X74251007Y-129654345D01*
X74193483Y-129414738D01*
X74125827Y-129251401D01*
X74099184Y-129187079D01*
X73970436Y-128976981D01*
X73970435Y-128976979D01*
X73934280Y-128934648D01*
X73810399Y-128789601D01*
X73686516Y-128683795D01*
X73623020Y-128629564D01*
X73623018Y-128629563D01*
X73412920Y-128500815D01*
X73185264Y-128406517D01*
X72945658Y-128348993D01*
X72700000Y-128329659D01*
X72454341Y-128348993D01*
X72214735Y-128406517D01*
X71987079Y-128500815D01*
X71776981Y-128629563D01*
X71776979Y-128629564D01*
X71589601Y-128789601D01*
X71429564Y-128976979D01*
X71429563Y-128976981D01*
X71300815Y-129187079D01*
X71206517Y-129414735D01*
X71148993Y-129654341D01*
X71129659Y-129900000D01*
X65889896Y-129900000D01*
X65871402Y-129881506D01*
X65871396Y-129881501D01*
X65685842Y-129751575D01*
X65642217Y-129696998D01*
X65635023Y-129627500D01*
X65666546Y-129565145D01*
X65685842Y-129548425D01*
X65708026Y-129532891D01*
X65871401Y-129418495D01*
X66038495Y-129251401D01*
X66174035Y-129057830D01*
X66273903Y-128843663D01*
X66335063Y-128615408D01*
X66355659Y-128380000D01*
X66335063Y-128144592D01*
X66273903Y-127916337D01*
X66174035Y-127702171D01*
X66038495Y-127508599D01*
X66038494Y-127508597D01*
X65871402Y-127341506D01*
X65871396Y-127341501D01*
X65685842Y-127211575D01*
X65642217Y-127156998D01*
X65635023Y-127087500D01*
X65666546Y-127025145D01*
X65685842Y-127008425D01*
X65708026Y-126992891D01*
X65871401Y-126878495D01*
X66038495Y-126711401D01*
X66174035Y-126517830D01*
X66273903Y-126303663D01*
X66335063Y-126075408D01*
X66355659Y-125840000D01*
X66335063Y-125604592D01*
X66273903Y-125376337D01*
X66174035Y-125162171D01*
X66038495Y-124968599D01*
X66038494Y-124968597D01*
X65871402Y-124801506D01*
X65871396Y-124801501D01*
X65685842Y-124671575D01*
X65642217Y-124616998D01*
X65635023Y-124547500D01*
X65666546Y-124485145D01*
X65685842Y-124468425D01*
X65708026Y-124452891D01*
X65871401Y-124338495D01*
X66038495Y-124171401D01*
X66174035Y-123977830D01*
X66273903Y-123763663D01*
X66335063Y-123535408D01*
X66355659Y-123300000D01*
X66335063Y-123064592D01*
X66273903Y-122836337D01*
X66174035Y-122622171D01*
X66104612Y-122523023D01*
X66038494Y-122428597D01*
X65871402Y-122261506D01*
X65871396Y-122261501D01*
X65685842Y-122131575D01*
X65642217Y-122076998D01*
X65635023Y-122007500D01*
X65666546Y-121945145D01*
X65685842Y-121928425D01*
X65804045Y-121845658D01*
X65871401Y-121798495D01*
X66038495Y-121631401D01*
X66060482Y-121600000D01*
X71129659Y-121600000D01*
X71148993Y-121845658D01*
X71206517Y-122085264D01*
X71300815Y-122312920D01*
X71429563Y-122523018D01*
X71429564Y-122523020D01*
X71429567Y-122523023D01*
X71589601Y-122710399D01*
X71734648Y-122834280D01*
X71776979Y-122870435D01*
X71776981Y-122870436D01*
X71987079Y-122999184D01*
X72214735Y-123093482D01*
X72214736Y-123093482D01*
X72214738Y-123093483D01*
X72454345Y-123151007D01*
X72700000Y-123170341D01*
X72945655Y-123151007D01*
X73185262Y-123093483D01*
X73412920Y-122999184D01*
X73623023Y-122870433D01*
X73810399Y-122710399D01*
X73970433Y-122523023D01*
X74099184Y-122312920D01*
X74193483Y-122085262D01*
X74251007Y-121845655D01*
X74270341Y-121600000D01*
X74251007Y-121354345D01*
X74193483Y-121114738D01*
X74099184Y-120887080D01*
X74099184Y-120887079D01*
X73970436Y-120676981D01*
X73970435Y-120676979D01*
X73934280Y-120634648D01*
X73810399Y-120489601D01*
X73686516Y-120383795D01*
X73623020Y-120329564D01*
X73623018Y-120329563D01*
X73412920Y-120200815D01*
X73185264Y-120106517D01*
X72945658Y-120048993D01*
X72700000Y-120029659D01*
X72454341Y-120048993D01*
X72214735Y-120106517D01*
X71987079Y-120200815D01*
X71776981Y-120329563D01*
X71776979Y-120329564D01*
X71589601Y-120489601D01*
X71429564Y-120676979D01*
X71429563Y-120676981D01*
X71300815Y-120887079D01*
X71206517Y-121114735D01*
X71148993Y-121354341D01*
X71129659Y-121600000D01*
X66060482Y-121600000D01*
X66174035Y-121437830D01*
X66273903Y-121223663D01*
X66335063Y-120995408D01*
X66355659Y-120760000D01*
X66335063Y-120524592D01*
X66273903Y-120296337D01*
X66174035Y-120082171D01*
X66038495Y-119888599D01*
X66038494Y-119888597D01*
X65871402Y-119721506D01*
X65871396Y-119721501D01*
X65685842Y-119591575D01*
X65642217Y-119536998D01*
X65635023Y-119467500D01*
X65666546Y-119405145D01*
X65685842Y-119388425D01*
X65728793Y-119358350D01*
X65871401Y-119258495D01*
X66038495Y-119091401D01*
X66174035Y-118897830D01*
X66273903Y-118683663D01*
X66335063Y-118455408D01*
X66355659Y-118220000D01*
X66335063Y-117984592D01*
X66273903Y-117756337D01*
X66174035Y-117542171D01*
X66162840Y-117526182D01*
X66038494Y-117348597D01*
X65871402Y-117181506D01*
X65871395Y-117181501D01*
X65677834Y-117045967D01*
X65677830Y-117045965D01*
X65658937Y-117037155D01*
X65463663Y-116946097D01*
X65463659Y-116946096D01*
X65463655Y-116946094D01*
X65235413Y-116884938D01*
X65235403Y-116884936D01*
X65000001Y-116864341D01*
X64999999Y-116864341D01*
X64764596Y-116884936D01*
X64764586Y-116884938D01*
X64536344Y-116946094D01*
X64536335Y-116946098D01*
X64322171Y-117045964D01*
X64322169Y-117045965D01*
X64128597Y-117181505D01*
X63961505Y-117348597D01*
X63825965Y-117542169D01*
X63825964Y-117542171D01*
X63726098Y-117756335D01*
X63726094Y-117756344D01*
X63664938Y-117984586D01*
X63664936Y-117984596D01*
X63644341Y-118219999D01*
X57869133Y-118219999D01*
X57886558Y-118177931D01*
X57910000Y-118060080D01*
X57910000Y-117939920D01*
X57886558Y-117822069D01*
X57856706Y-117750000D01*
X58765000Y-117750000D01*
X58765000Y-117037172D01*
X58764999Y-117037155D01*
X58758598Y-116977627D01*
X58758596Y-116977620D01*
X58708354Y-116842913D01*
X58708350Y-116842906D01*
X58622190Y-116727812D01*
X58622187Y-116727809D01*
X58507093Y-116641649D01*
X58507086Y-116641645D01*
X58372379Y-116591403D01*
X58372372Y-116591401D01*
X58312844Y-116585000D01*
X57946291Y-116585000D01*
X57879252Y-116565315D01*
X57833497Y-116512511D01*
X57823553Y-116443353D01*
X57852578Y-116379797D01*
X57898838Y-116346439D01*
X58012920Y-116299184D01*
X58223018Y-116170436D01*
X58223020Y-116170435D01*
X58223020Y-116170434D01*
X58223023Y-116170433D01*
X58410399Y-116010399D01*
X58570433Y-115823023D01*
X58699184Y-115612920D01*
X58793483Y-115385262D01*
X58851007Y-115145655D01*
X58870341Y-114900000D01*
X58851007Y-114654345D01*
X58793483Y-114414738D01*
X58793482Y-114414735D01*
X58699184Y-114187079D01*
X58570436Y-113976981D01*
X58570435Y-113976979D01*
X58534280Y-113934648D01*
X58410399Y-113789601D01*
X58231553Y-113636852D01*
X58223020Y-113629564D01*
X58223018Y-113629563D01*
X58012920Y-113500815D01*
X57785264Y-113406517D01*
X57545658Y-113348993D01*
X57300000Y-113329659D01*
X57054341Y-113348993D01*
X56814735Y-113406517D01*
X56587079Y-113500815D01*
X56376981Y-113629563D01*
X56376979Y-113629564D01*
X56189601Y-113789601D01*
X56029564Y-113976979D01*
X56029563Y-113976981D01*
X55900815Y-114187079D01*
X55806517Y-114414735D01*
X55748993Y-114654341D01*
X55729659Y-114900000D01*
X50500500Y-114900000D01*
X50500500Y-106600000D01*
X55729659Y-106600000D01*
X55748993Y-106845658D01*
X55806517Y-107085264D01*
X55900815Y-107312920D01*
X56029563Y-107523018D01*
X56029564Y-107523020D01*
X56029567Y-107523023D01*
X56189601Y-107710399D01*
X56278078Y-107785965D01*
X56376979Y-107870435D01*
X56376981Y-107870436D01*
X56587079Y-107999184D01*
X56814735Y-108093482D01*
X56814736Y-108093482D01*
X56814738Y-108093483D01*
X57054345Y-108151007D01*
X57300000Y-108170341D01*
X57545655Y-108151007D01*
X57785262Y-108093483D01*
X58012920Y-107999184D01*
X58223023Y-107870433D01*
X58394971Y-107723575D01*
X58458729Y-107695006D01*
X58527815Y-107705443D01*
X58580291Y-107751574D01*
X58599500Y-107817867D01*
X58599500Y-108814208D01*
X58599501Y-108814223D01*
X58609904Y-108946413D01*
X58609905Y-108946420D01*
X58664902Y-109164678D01*
X58664903Y-109164681D01*
X58757991Y-109369622D01*
X58757997Y-109369632D01*
X58886174Y-109554645D01*
X58886178Y-109554650D01*
X58886181Y-109554654D01*
X59045346Y-109713819D01*
X59045350Y-109713822D01*
X59045354Y-109713825D01*
X59184603Y-109810297D01*
X59230374Y-109842007D01*
X59435317Y-109935096D01*
X59435321Y-109935097D01*
X59653579Y-109990094D01*
X59653581Y-109990094D01*
X59653588Y-109990096D01*
X59785783Y-110000500D01*
X61414216Y-110000499D01*
X61546412Y-109990096D01*
X61764683Y-109935096D01*
X61969626Y-109842007D01*
X62154654Y-109713819D01*
X62313819Y-109554654D01*
X62442007Y-109369626D01*
X62535096Y-109164683D01*
X62590096Y-108946412D01*
X62600500Y-108814217D01*
X62600499Y-106185784D01*
X62590096Y-106053588D01*
X62535096Y-105835317D01*
X62442007Y-105630374D01*
X62385353Y-105548599D01*
X62313825Y-105445354D01*
X62313822Y-105445350D01*
X62313819Y-105445346D01*
X62154654Y-105286181D01*
X62154650Y-105286178D01*
X62154645Y-105286174D01*
X61969632Y-105157997D01*
X61969630Y-105157995D01*
X61969626Y-105157993D01*
X61943438Y-105146098D01*
X61764681Y-105064903D01*
X61764678Y-105064902D01*
X61546420Y-105009905D01*
X61546413Y-105009904D01*
X61502347Y-105006436D01*
X61414217Y-104999500D01*
X61414215Y-104999500D01*
X59785791Y-104999500D01*
X59785776Y-104999501D01*
X59653586Y-105009904D01*
X59653579Y-105009905D01*
X59435321Y-105064902D01*
X59435318Y-105064903D01*
X59230377Y-105157991D01*
X59230367Y-105157997D01*
X59045354Y-105286174D01*
X59045342Y-105286184D01*
X58886184Y-105445342D01*
X58886174Y-105445354D01*
X58757996Y-105630366D01*
X58755248Y-105635212D01*
X58753289Y-105634100D01*
X58713965Y-105679627D01*
X58646956Y-105699416D01*
X58579886Y-105679836D01*
X58552473Y-105655948D01*
X58509214Y-105605299D01*
X58410399Y-105489601D01*
X58283830Y-105381501D01*
X58223020Y-105329564D01*
X58223018Y-105329563D01*
X58012920Y-105200815D01*
X57785264Y-105106517D01*
X57545658Y-105048993D01*
X57300000Y-105029659D01*
X57054341Y-105048993D01*
X56814735Y-105106517D01*
X56587079Y-105200815D01*
X56376981Y-105329563D01*
X56376979Y-105329564D01*
X56189601Y-105489601D01*
X56029564Y-105676979D01*
X56029563Y-105676981D01*
X55900815Y-105887079D01*
X55806517Y-106114735D01*
X55748993Y-106354341D01*
X55729659Y-106600000D01*
X50500500Y-106600000D01*
X50500500Y-99900000D01*
X55729659Y-99900000D01*
X55748993Y-100145658D01*
X55806517Y-100385264D01*
X55900815Y-100612920D01*
X56029563Y-100823018D01*
X56029564Y-100823020D01*
X56029567Y-100823023D01*
X56189601Y-101010399D01*
X56282519Y-101089758D01*
X56376979Y-101170435D01*
X56376981Y-101170436D01*
X56587080Y-101299184D01*
X56587079Y-101299184D01*
X56701162Y-101346439D01*
X56755565Y-101390280D01*
X56777630Y-101456574D01*
X56760351Y-101524274D01*
X56709213Y-101571884D01*
X56653709Y-101585000D01*
X56287155Y-101585000D01*
X56227627Y-101591401D01*
X56227620Y-101591403D01*
X56092913Y-101641645D01*
X56092906Y-101641649D01*
X55977812Y-101727809D01*
X55977809Y-101727812D01*
X55891649Y-101842906D01*
X55891645Y-101842913D01*
X55841403Y-101977620D01*
X55841401Y-101977627D01*
X55835000Y-102037155D01*
X55835000Y-102750000D01*
X56743294Y-102750000D01*
X56713442Y-102822069D01*
X56690000Y-102939920D01*
X56690000Y-103060080D01*
X56713442Y-103177931D01*
X56743294Y-103250000D01*
X55835000Y-103250000D01*
X55835000Y-103962844D01*
X55841401Y-104022372D01*
X55841403Y-104022379D01*
X55891645Y-104157086D01*
X55891649Y-104157093D01*
X55977809Y-104272187D01*
X55977812Y-104272190D01*
X56092906Y-104358350D01*
X56092913Y-104358354D01*
X56227620Y-104408596D01*
X56227627Y-104408598D01*
X56287155Y-104414999D01*
X56287172Y-104415000D01*
X57050000Y-104415000D01*
X57050000Y-103556706D01*
X57122069Y-103586558D01*
X57239920Y-103610000D01*
X57360080Y-103610000D01*
X57477931Y-103586558D01*
X57550000Y-103556706D01*
X57550000Y-104415000D01*
X58312828Y-104415000D01*
X58312844Y-104414999D01*
X58372372Y-104408598D01*
X58372379Y-104408596D01*
X58507086Y-104358354D01*
X58507093Y-104358350D01*
X58622187Y-104272190D01*
X58622190Y-104272187D01*
X58708350Y-104157093D01*
X58708354Y-104157086D01*
X58758596Y-104022379D01*
X58758598Y-104022372D01*
X58764999Y-103962844D01*
X58765000Y-103962827D01*
X58765000Y-103250000D01*
X57856706Y-103250000D01*
X57886558Y-103177931D01*
X57910000Y-103060080D01*
X57910000Y-102939920D01*
X57886558Y-102822069D01*
X57856706Y-102750000D01*
X58765000Y-102750000D01*
X58765000Y-102037172D01*
X58764999Y-102037155D01*
X58758598Y-101977627D01*
X58758596Y-101977620D01*
X58708354Y-101842913D01*
X58708350Y-101842906D01*
X58622190Y-101727812D01*
X58622187Y-101727809D01*
X58507093Y-101641649D01*
X58507086Y-101641645D01*
X58372379Y-101591403D01*
X58372372Y-101591401D01*
X58312844Y-101585000D01*
X57946291Y-101585000D01*
X57879252Y-101565315D01*
X57833497Y-101512511D01*
X57823553Y-101443353D01*
X57852578Y-101379797D01*
X57898838Y-101346439D01*
X58012920Y-101299184D01*
X58223018Y-101170436D01*
X58223020Y-101170435D01*
X58223020Y-101170434D01*
X58223023Y-101170433D01*
X58410399Y-101010399D01*
X58570433Y-100823023D01*
X58699184Y-100612920D01*
X58793483Y-100385262D01*
X58851007Y-100145655D01*
X58870341Y-99900000D01*
X58851007Y-99654345D01*
X58793483Y-99414738D01*
X58788278Y-99402171D01*
X58699184Y-99187079D01*
X58570436Y-98976981D01*
X58570435Y-98976979D01*
X58509783Y-98905965D01*
X58410399Y-98789601D01*
X58277941Y-98676471D01*
X58223020Y-98629564D01*
X58223018Y-98629563D01*
X58012920Y-98500815D01*
X57785264Y-98406517D01*
X57545658Y-98348993D01*
X57300000Y-98329659D01*
X57054341Y-98348993D01*
X56814735Y-98406517D01*
X56587079Y-98500815D01*
X56376981Y-98629563D01*
X56376979Y-98629564D01*
X56189601Y-98789601D01*
X56029564Y-98976979D01*
X56029563Y-98976981D01*
X55900815Y-99187079D01*
X55806517Y-99414735D01*
X55748993Y-99654341D01*
X55729659Y-99900000D01*
X50500500Y-99900000D01*
X50500500Y-91600000D01*
X55729659Y-91600000D01*
X55748993Y-91845658D01*
X55806517Y-92085264D01*
X55900815Y-92312920D01*
X56029563Y-92523018D01*
X56029564Y-92523020D01*
X56056582Y-92554654D01*
X56189601Y-92710399D01*
X56334648Y-92834280D01*
X56376979Y-92870435D01*
X56376981Y-92870436D01*
X56587079Y-92999184D01*
X56814735Y-93093482D01*
X56814736Y-93093482D01*
X56814738Y-93093483D01*
X57054345Y-93151007D01*
X57300000Y-93170341D01*
X57545655Y-93151007D01*
X57785262Y-93093483D01*
X58012920Y-92999184D01*
X58223023Y-92870433D01*
X58410399Y-92710399D01*
X58570433Y-92523023D01*
X58608987Y-92460107D01*
X58660797Y-92413233D01*
X58729727Y-92401810D01*
X58793890Y-92429467D01*
X58816642Y-92454282D01*
X58886174Y-92554645D01*
X58886178Y-92554650D01*
X58886181Y-92554654D01*
X59045346Y-92713819D01*
X59045350Y-92713822D01*
X59045354Y-92713825D01*
X59184603Y-92810297D01*
X59230374Y-92842007D01*
X59435317Y-92935096D01*
X59435321Y-92935097D01*
X59653579Y-92990094D01*
X59653581Y-92990094D01*
X59653588Y-92990096D01*
X59785783Y-93000500D01*
X61414216Y-93000499D01*
X61546412Y-92990096D01*
X61764683Y-92935096D01*
X61969626Y-92842007D01*
X62154654Y-92713819D01*
X62313819Y-92554654D01*
X62442007Y-92369626D01*
X62535096Y-92164683D01*
X62590096Y-91946412D01*
X62600500Y-91814217D01*
X62600499Y-89185784D01*
X62590096Y-89053588D01*
X62535096Y-88835317D01*
X62442007Y-88630374D01*
X62313819Y-88445346D01*
X62154654Y-88286181D01*
X62154650Y-88286178D01*
X62154645Y-88286174D01*
X61969632Y-88157997D01*
X61969630Y-88157995D01*
X61969626Y-88157993D01*
X61764683Y-88064904D01*
X61764681Y-88064903D01*
X61764678Y-88064902D01*
X61546420Y-88009905D01*
X61546413Y-88009904D01*
X61502347Y-88006436D01*
X61414217Y-87999500D01*
X61414215Y-87999500D01*
X59785791Y-87999500D01*
X59785776Y-87999501D01*
X59653586Y-88009904D01*
X59653579Y-88009905D01*
X59435321Y-88064902D01*
X59435318Y-88064903D01*
X59230377Y-88157991D01*
X59230367Y-88157997D01*
X59045354Y-88286174D01*
X59045342Y-88286184D01*
X58886184Y-88445342D01*
X58886174Y-88445354D01*
X58757997Y-88630367D01*
X58757991Y-88630377D01*
X58664903Y-88835318D01*
X58664902Y-88835321D01*
X58609905Y-89053579D01*
X58609904Y-89053586D01*
X58599500Y-89185777D01*
X58599500Y-90382132D01*
X58579815Y-90449171D01*
X58527011Y-90494926D01*
X58457853Y-90504870D01*
X58394969Y-90476422D01*
X58223026Y-90329569D01*
X58223018Y-90329563D01*
X58012920Y-90200815D01*
X57785264Y-90106517D01*
X57545658Y-90048993D01*
X57300000Y-90029659D01*
X57054341Y-90048993D01*
X56814735Y-90106517D01*
X56587079Y-90200815D01*
X56376981Y-90329563D01*
X56376979Y-90329564D01*
X56189601Y-90489601D01*
X56029564Y-90676979D01*
X56029563Y-90676981D01*
X55900815Y-90887079D01*
X55806517Y-91114735D01*
X55748993Y-91354341D01*
X55729659Y-91600000D01*
X50500500Y-91600000D01*
X50500500Y-83102135D01*
X53649500Y-83102135D01*
X53649500Y-84897870D01*
X53649501Y-84897876D01*
X53655908Y-84957483D01*
X53706202Y-85092328D01*
X53706206Y-85092335D01*
X53792452Y-85207544D01*
X53792455Y-85207547D01*
X53907664Y-85293793D01*
X53907671Y-85293797D01*
X53907674Y-85293798D01*
X54039598Y-85343002D01*
X54095531Y-85384873D01*
X54119949Y-85450337D01*
X54105098Y-85518610D01*
X54083947Y-85546865D01*
X53961886Y-85668926D01*
X53826400Y-85862420D01*
X53826399Y-85862422D01*
X53726570Y-86076507D01*
X53726567Y-86076513D01*
X53669364Y-86289999D01*
X53669364Y-86290000D01*
X54566988Y-86290000D01*
X54534075Y-86347007D01*
X54500000Y-86474174D01*
X54500000Y-86605826D01*
X54534075Y-86732993D01*
X54566988Y-86790000D01*
X53669364Y-86790000D01*
X53726567Y-87003486D01*
X53726570Y-87003492D01*
X53826399Y-87217578D01*
X53961894Y-87411082D01*
X54128917Y-87578105D01*
X54322421Y-87713600D01*
X54536507Y-87813429D01*
X54536516Y-87813433D01*
X54750000Y-87870634D01*
X54750000Y-86973012D01*
X54807007Y-87005925D01*
X54934174Y-87040000D01*
X55065826Y-87040000D01*
X55192993Y-87005925D01*
X55250000Y-86973012D01*
X55250000Y-87870633D01*
X55463483Y-87813433D01*
X55463492Y-87813429D01*
X55677578Y-87713600D01*
X55871082Y-87578105D01*
X56038105Y-87411082D01*
X56173600Y-87217578D01*
X56273429Y-87003492D01*
X56273432Y-87003486D01*
X56330636Y-86790000D01*
X55433012Y-86790000D01*
X55465925Y-86732993D01*
X55500000Y-86605826D01*
X55500000Y-86474174D01*
X55465925Y-86347007D01*
X55433012Y-86290000D01*
X56330636Y-86290000D01*
X56330635Y-86289999D01*
X56273432Y-86076513D01*
X56273429Y-86076507D01*
X56173600Y-85862422D01*
X56173599Y-85862420D01*
X56038113Y-85668926D01*
X56038108Y-85668920D01*
X55916053Y-85546865D01*
X55882568Y-85485542D01*
X55887552Y-85415850D01*
X55929424Y-85359917D01*
X55960400Y-85343002D01*
X56092331Y-85293796D01*
X56207546Y-85207546D01*
X56293796Y-85092331D01*
X56344091Y-84957483D01*
X56350500Y-84897873D01*
X56350499Y-83102128D01*
X56344091Y-83042517D01*
X56293796Y-82907669D01*
X56293795Y-82907668D01*
X56293793Y-82907664D01*
X56207547Y-82792455D01*
X56207544Y-82792452D01*
X56092335Y-82706206D01*
X56092328Y-82706202D01*
X55957482Y-82655908D01*
X55957483Y-82655908D01*
X55897883Y-82649501D01*
X55897881Y-82649500D01*
X55897873Y-82649500D01*
X55897864Y-82649500D01*
X54102129Y-82649500D01*
X54102123Y-82649501D01*
X54042516Y-82655908D01*
X53907671Y-82706202D01*
X53907664Y-82706206D01*
X53792455Y-82792452D01*
X53792452Y-82792455D01*
X53706206Y-82907664D01*
X53706202Y-82907671D01*
X53655908Y-83042517D01*
X53649501Y-83102116D01*
X53649501Y-83102123D01*
X53649500Y-83102135D01*
X50500500Y-83102135D01*
X50500500Y-72185777D01*
X58599500Y-72185777D01*
X58599500Y-74814208D01*
X58599501Y-74814223D01*
X58609904Y-74946413D01*
X58609905Y-74946420D01*
X58664902Y-75164678D01*
X58664903Y-75164681D01*
X58757991Y-75369622D01*
X58757997Y-75369632D01*
X58886174Y-75554645D01*
X58886178Y-75554650D01*
X58886181Y-75554654D01*
X59045346Y-75713819D01*
X59045350Y-75713822D01*
X59045354Y-75713825D01*
X59130276Y-75772659D01*
X59230374Y-75842007D01*
X59435317Y-75935096D01*
X59435321Y-75935097D01*
X59653579Y-75990094D01*
X59653581Y-75990094D01*
X59653588Y-75990096D01*
X59785783Y-76000500D01*
X61414216Y-76000499D01*
X61546412Y-75990096D01*
X61764683Y-75935096D01*
X61969626Y-75842007D01*
X62154654Y-75713819D01*
X62313819Y-75554654D01*
X62442007Y-75369626D01*
X62535096Y-75164683D01*
X62590096Y-74946412D01*
X62600500Y-74814217D01*
X62600499Y-72185784D01*
X62590096Y-72053588D01*
X62583295Y-72026599D01*
X62535097Y-71835321D01*
X62535096Y-71835318D01*
X62484517Y-71723965D01*
X62442007Y-71630374D01*
X62410297Y-71584603D01*
X62313825Y-71445354D01*
X62313822Y-71445350D01*
X62313819Y-71445346D01*
X62154654Y-71286181D01*
X62154650Y-71286178D01*
X62154645Y-71286174D01*
X61969632Y-71157997D01*
X61969630Y-71157995D01*
X61969626Y-71157993D01*
X61764683Y-71064904D01*
X61764681Y-71064903D01*
X61764678Y-71064902D01*
X61546420Y-71009905D01*
X61546413Y-71009904D01*
X61491712Y-71005599D01*
X61414217Y-70999500D01*
X61414215Y-70999500D01*
X59785791Y-70999500D01*
X59785776Y-70999501D01*
X59653586Y-71009904D01*
X59653579Y-71009905D01*
X59435321Y-71064902D01*
X59435318Y-71064903D01*
X59230377Y-71157991D01*
X59230367Y-71157997D01*
X59045354Y-71286174D01*
X59045342Y-71286184D01*
X58886184Y-71445342D01*
X58886174Y-71445354D01*
X58757997Y-71630367D01*
X58757991Y-71630377D01*
X58664903Y-71835318D01*
X58664902Y-71835321D01*
X58609905Y-72053579D01*
X58609904Y-72053586D01*
X58599500Y-72185777D01*
X50500500Y-72185777D01*
X50500500Y-61975999D01*
X54524341Y-61975999D01*
X54524341Y-61976000D01*
X54544936Y-62211403D01*
X54544938Y-62211413D01*
X54606094Y-62439655D01*
X54606096Y-62439659D01*
X54606097Y-62439663D01*
X54658553Y-62552155D01*
X54705965Y-62653830D01*
X54705967Y-62653834D01*
X54841501Y-62847395D01*
X54841506Y-62847402D01*
X55008597Y-63014493D01*
X55008603Y-63014498D01*
X55194158Y-63144425D01*
X55237783Y-63199002D01*
X55244977Y-63268500D01*
X55213454Y-63330855D01*
X55194158Y-63347575D01*
X55008597Y-63477505D01*
X54841505Y-63644597D01*
X54705965Y-63838169D01*
X54705964Y-63838171D01*
X54606098Y-64052335D01*
X54606094Y-64052344D01*
X54544938Y-64280586D01*
X54544936Y-64280596D01*
X54524341Y-64515999D01*
X54524341Y-64516000D01*
X54544936Y-64751403D01*
X54544938Y-64751413D01*
X54606094Y-64979655D01*
X54606096Y-64979659D01*
X54606097Y-64979663D01*
X54705965Y-65193830D01*
X54705967Y-65193834D01*
X54841501Y-65387395D01*
X54841506Y-65387402D01*
X55008597Y-65554493D01*
X55008603Y-65554498D01*
X55194158Y-65684425D01*
X55237783Y-65739002D01*
X55244977Y-65808500D01*
X55213454Y-65870855D01*
X55194158Y-65887575D01*
X55008597Y-66017505D01*
X54841505Y-66184597D01*
X54705965Y-66378169D01*
X54705964Y-66378171D01*
X54606098Y-66592335D01*
X54606094Y-66592344D01*
X54544938Y-66820586D01*
X54544936Y-66820596D01*
X54524341Y-67055999D01*
X54524341Y-67056000D01*
X54544936Y-67291403D01*
X54544938Y-67291413D01*
X54606094Y-67519655D01*
X54606096Y-67519659D01*
X54606097Y-67519663D01*
X54705965Y-67733830D01*
X54705967Y-67733834D01*
X54841501Y-67927395D01*
X54841506Y-67927402D01*
X55008597Y-68094493D01*
X55008603Y-68094498D01*
X55194158Y-68224425D01*
X55237783Y-68279002D01*
X55244977Y-68348500D01*
X55213454Y-68410855D01*
X55194158Y-68427575D01*
X55008597Y-68557505D01*
X54841505Y-68724597D01*
X54705965Y-68918169D01*
X54705964Y-68918171D01*
X54606098Y-69132335D01*
X54606094Y-69132344D01*
X54544938Y-69360586D01*
X54544936Y-69360596D01*
X54524341Y-69595999D01*
X54524341Y-69596000D01*
X54544936Y-69831403D01*
X54544938Y-69831413D01*
X54606094Y-70059655D01*
X54606096Y-70059659D01*
X54606097Y-70059663D01*
X54705965Y-70273830D01*
X54705967Y-70273834D01*
X54814281Y-70428521D01*
X54841505Y-70467401D01*
X55008599Y-70634495D01*
X55105384Y-70702265D01*
X55202165Y-70770032D01*
X55202167Y-70770033D01*
X55202170Y-70770035D01*
X55416337Y-70869903D01*
X55644592Y-70931063D01*
X55832918Y-70947539D01*
X55879999Y-70951659D01*
X55880000Y-70951659D01*
X55880001Y-70951659D01*
X55919234Y-70948226D01*
X56115408Y-70931063D01*
X56343663Y-70869903D01*
X56557830Y-70770035D01*
X56751401Y-70634495D01*
X56918495Y-70467401D01*
X57054035Y-70273830D01*
X57153903Y-70059663D01*
X57215063Y-69831408D01*
X57235659Y-69596000D01*
X57215063Y-69360592D01*
X57153903Y-69132337D01*
X57054035Y-68918171D01*
X57010852Y-68856498D01*
X56918494Y-68724597D01*
X56751402Y-68557506D01*
X56751396Y-68557501D01*
X56565842Y-68427575D01*
X56522217Y-68372998D01*
X56515023Y-68303500D01*
X56546546Y-68241145D01*
X56565842Y-68224425D01*
X56666602Y-68153872D01*
X56751401Y-68094495D01*
X56918495Y-67927401D01*
X57054035Y-67733830D01*
X57153903Y-67519663D01*
X57215063Y-67291408D01*
X57235659Y-67056000D01*
X57215063Y-66820592D01*
X57153903Y-66592337D01*
X57054035Y-66378171D01*
X57010852Y-66316498D01*
X56918494Y-66184597D01*
X56751402Y-66017506D01*
X56751396Y-66017501D01*
X56565842Y-65887575D01*
X56522217Y-65832998D01*
X56515023Y-65763500D01*
X56546546Y-65701145D01*
X56565842Y-65684425D01*
X56588026Y-65668891D01*
X56751401Y-65554495D01*
X56918495Y-65387401D01*
X57054035Y-65193830D01*
X57153903Y-64979663D01*
X57215063Y-64751408D01*
X57235659Y-64516000D01*
X57215063Y-64280592D01*
X57153903Y-64052337D01*
X57054035Y-63838171D01*
X57010852Y-63776498D01*
X56918494Y-63644597D01*
X56751402Y-63477506D01*
X56751396Y-63477501D01*
X56565842Y-63347575D01*
X56522217Y-63292998D01*
X56515023Y-63223500D01*
X56546546Y-63161145D01*
X56565842Y-63144425D01*
X56629429Y-63099901D01*
X56751401Y-63014495D01*
X56918495Y-62847401D01*
X57054035Y-62653830D01*
X57101447Y-62552155D01*
X61100000Y-62552155D01*
X61100000Y-63250000D01*
X62066988Y-63250000D01*
X62034075Y-63307007D01*
X62000000Y-63434174D01*
X62000000Y-63565826D01*
X62034075Y-63692993D01*
X62066988Y-63750000D01*
X61100000Y-63750000D01*
X61100000Y-64447844D01*
X61106401Y-64507372D01*
X61106403Y-64507379D01*
X61156645Y-64642086D01*
X61156649Y-64642093D01*
X61242809Y-64757187D01*
X61242812Y-64757190D01*
X61357906Y-64843350D01*
X61357913Y-64843354D01*
X61492620Y-64893596D01*
X61492627Y-64893598D01*
X61552155Y-64899999D01*
X61552172Y-64900000D01*
X62250000Y-64900000D01*
X62250000Y-63933012D01*
X62307007Y-63965925D01*
X62434174Y-64000000D01*
X62565826Y-64000000D01*
X62692993Y-63965925D01*
X62750000Y-63933012D01*
X62750000Y-64900000D01*
X63447828Y-64900000D01*
X63447844Y-64899999D01*
X63507372Y-64893598D01*
X63507379Y-64893596D01*
X63642086Y-64843354D01*
X63642093Y-64843350D01*
X63757187Y-64757190D01*
X63757190Y-64757187D01*
X63843350Y-64642093D01*
X63843353Y-64642088D01*
X63861678Y-64592955D01*
X63903549Y-64537020D01*
X63969013Y-64512602D01*
X64037286Y-64527453D01*
X64054023Y-64538433D01*
X64231365Y-64676464D01*
X64231371Y-64676468D01*
X64231374Y-64676470D01*
X64435497Y-64786936D01*
X64515334Y-64814344D01*
X64655015Y-64862297D01*
X64655017Y-64862297D01*
X64655019Y-64862298D01*
X64883951Y-64900500D01*
X64883952Y-64900500D01*
X65116048Y-64900500D01*
X65116049Y-64900500D01*
X65344981Y-64862298D01*
X65564503Y-64786936D01*
X65768626Y-64676470D01*
X65951784Y-64533913D01*
X66108979Y-64363153D01*
X66146191Y-64306196D01*
X66199337Y-64260839D01*
X66268569Y-64251415D01*
X66331904Y-64280917D01*
X66353809Y-64306196D01*
X66391016Y-64363147D01*
X66391019Y-64363151D01*
X66391021Y-64363153D01*
X66548216Y-64533913D01*
X66551655Y-64536589D01*
X66592472Y-64593295D01*
X66599500Y-64634448D01*
X66599500Y-79365551D01*
X66579815Y-79432590D01*
X66551664Y-79463403D01*
X66548219Y-79466084D01*
X66548216Y-79466086D01*
X66548216Y-79466087D01*
X66424023Y-79600998D01*
X66391015Y-79636854D01*
X66353808Y-79693804D01*
X66300662Y-79739161D01*
X66231430Y-79748584D01*
X66168095Y-79719082D01*
X66146192Y-79693804D01*
X66108984Y-79636854D01*
X66108982Y-79636852D01*
X66108979Y-79636847D01*
X65951784Y-79466087D01*
X65951779Y-79466083D01*
X65951777Y-79466081D01*
X65768634Y-79323535D01*
X65768628Y-79323531D01*
X65564504Y-79213064D01*
X65564495Y-79213061D01*
X65344984Y-79137702D01*
X65157404Y-79106401D01*
X65116049Y-79099500D01*
X64883951Y-79099500D01*
X64842596Y-79106401D01*
X64655015Y-79137702D01*
X64435504Y-79213061D01*
X64435495Y-79213064D01*
X64231372Y-79323531D01*
X64054023Y-79461567D01*
X63989029Y-79487209D01*
X63920489Y-79473642D01*
X63870164Y-79425174D01*
X63861679Y-79407045D01*
X63843355Y-79357915D01*
X63843350Y-79357906D01*
X63757190Y-79242812D01*
X63757187Y-79242809D01*
X63642093Y-79156649D01*
X63642086Y-79156645D01*
X63507379Y-79106403D01*
X63507372Y-79106401D01*
X63447844Y-79100000D01*
X62750000Y-79100000D01*
X62750000Y-80066988D01*
X62692993Y-80034075D01*
X62565826Y-80000000D01*
X62434174Y-80000000D01*
X62307007Y-80034075D01*
X62250000Y-80066988D01*
X62250000Y-79100000D01*
X61552155Y-79100000D01*
X61492627Y-79106401D01*
X61492620Y-79106403D01*
X61357913Y-79156645D01*
X61357906Y-79156649D01*
X61242812Y-79242809D01*
X61242809Y-79242812D01*
X61156649Y-79357906D01*
X61156645Y-79357913D01*
X61106403Y-79492620D01*
X61106401Y-79492627D01*
X61100000Y-79552155D01*
X61100000Y-80250000D01*
X62066988Y-80250000D01*
X62034075Y-80307007D01*
X62000000Y-80434174D01*
X62000000Y-80565826D01*
X62034075Y-80692993D01*
X62066988Y-80750000D01*
X61100000Y-80750000D01*
X61100000Y-81447844D01*
X61106401Y-81507372D01*
X61106403Y-81507379D01*
X61156645Y-81642086D01*
X61156649Y-81642093D01*
X61242809Y-81757187D01*
X61242812Y-81757190D01*
X61357906Y-81843350D01*
X61357913Y-81843354D01*
X61492620Y-81893596D01*
X61492627Y-81893598D01*
X61552155Y-81899999D01*
X61552172Y-81900000D01*
X62250000Y-81900000D01*
X62250000Y-80933012D01*
X62307007Y-80965925D01*
X62434174Y-81000000D01*
X62565826Y-81000000D01*
X62692993Y-80965925D01*
X62750000Y-80933012D01*
X62750000Y-81900000D01*
X63447828Y-81900000D01*
X63447844Y-81899999D01*
X63507372Y-81893598D01*
X63507379Y-81893596D01*
X63642086Y-81843354D01*
X63642093Y-81843350D01*
X63757187Y-81757190D01*
X63757190Y-81757187D01*
X63843350Y-81642093D01*
X63843353Y-81642088D01*
X63861678Y-81592955D01*
X63903549Y-81537020D01*
X63969013Y-81512602D01*
X64037286Y-81527453D01*
X64054023Y-81538433D01*
X64231365Y-81676464D01*
X64231371Y-81676468D01*
X64231374Y-81676470D01*
X64435497Y-81786936D01*
X64549487Y-81826068D01*
X64655015Y-81862297D01*
X64655017Y-81862297D01*
X64655019Y-81862298D01*
X64883951Y-81900500D01*
X64883952Y-81900500D01*
X65116048Y-81900500D01*
X65116049Y-81900500D01*
X65344981Y-81862298D01*
X65564503Y-81786936D01*
X65768626Y-81676470D01*
X65792524Y-81657870D01*
X65830129Y-81628600D01*
X65951784Y-81533913D01*
X66108979Y-81363153D01*
X66146191Y-81306196D01*
X66199337Y-81260839D01*
X66268569Y-81251415D01*
X66331904Y-81280917D01*
X66353809Y-81306196D01*
X66391016Y-81363147D01*
X66391019Y-81363151D01*
X66391021Y-81363153D01*
X66548216Y-81533913D01*
X66551655Y-81536589D01*
X66592472Y-81593295D01*
X66599500Y-81634448D01*
X66599500Y-96365551D01*
X66579815Y-96432590D01*
X66551664Y-96463403D01*
X66548219Y-96466084D01*
X66548216Y-96466086D01*
X66548216Y-96466087D01*
X66489159Y-96530241D01*
X66391015Y-96636854D01*
X66353808Y-96693804D01*
X66300662Y-96739161D01*
X66231430Y-96748584D01*
X66168095Y-96719082D01*
X66146192Y-96693804D01*
X66108984Y-96636854D01*
X66108982Y-96636852D01*
X66108979Y-96636847D01*
X65951784Y-96466087D01*
X65951779Y-96466083D01*
X65951777Y-96466081D01*
X65768634Y-96323535D01*
X65768628Y-96323531D01*
X65564504Y-96213064D01*
X65564495Y-96213061D01*
X65344984Y-96137702D01*
X65157404Y-96106401D01*
X65116049Y-96099500D01*
X64883951Y-96099500D01*
X64842596Y-96106401D01*
X64655015Y-96137702D01*
X64435504Y-96213061D01*
X64435495Y-96213064D01*
X64231372Y-96323531D01*
X64054023Y-96461567D01*
X63989029Y-96487209D01*
X63920489Y-96473642D01*
X63870164Y-96425174D01*
X63861679Y-96407045D01*
X63843355Y-96357915D01*
X63843350Y-96357906D01*
X63757190Y-96242812D01*
X63757187Y-96242809D01*
X63642093Y-96156649D01*
X63642086Y-96156645D01*
X63507379Y-96106403D01*
X63507372Y-96106401D01*
X63447844Y-96100000D01*
X62750000Y-96100000D01*
X62750000Y-97066988D01*
X62692993Y-97034075D01*
X62565826Y-97000000D01*
X62434174Y-97000000D01*
X62307007Y-97034075D01*
X62250000Y-97066988D01*
X62250000Y-96100000D01*
X61552155Y-96100000D01*
X61492627Y-96106401D01*
X61492620Y-96106403D01*
X61357913Y-96156645D01*
X61357906Y-96156649D01*
X61242812Y-96242809D01*
X61242809Y-96242812D01*
X61156649Y-96357906D01*
X61156645Y-96357913D01*
X61106403Y-96492620D01*
X61106401Y-96492627D01*
X61100000Y-96552155D01*
X61100000Y-97250000D01*
X62066988Y-97250000D01*
X62034075Y-97307007D01*
X62000000Y-97434174D01*
X62000000Y-97565826D01*
X62034075Y-97692993D01*
X62066988Y-97750000D01*
X61100000Y-97750000D01*
X61100000Y-98447844D01*
X61106401Y-98507372D01*
X61106403Y-98507379D01*
X61156645Y-98642086D01*
X61156649Y-98642093D01*
X61242809Y-98757187D01*
X61242812Y-98757190D01*
X61357906Y-98843350D01*
X61357913Y-98843354D01*
X61492620Y-98893596D01*
X61492627Y-98893598D01*
X61552155Y-98899999D01*
X61552172Y-98900000D01*
X62250000Y-98900000D01*
X62250000Y-97933012D01*
X62307007Y-97965925D01*
X62434174Y-98000000D01*
X62565826Y-98000000D01*
X62692993Y-97965925D01*
X62750000Y-97933012D01*
X62750000Y-98900000D01*
X63447828Y-98900000D01*
X63447844Y-98899999D01*
X63507372Y-98893598D01*
X63507379Y-98893596D01*
X63642086Y-98843354D01*
X63642093Y-98843350D01*
X63757187Y-98757190D01*
X63757190Y-98757187D01*
X63843350Y-98642093D01*
X63843353Y-98642088D01*
X63861678Y-98592955D01*
X63903549Y-98537020D01*
X63969013Y-98512602D01*
X64037286Y-98527453D01*
X64054023Y-98538433D01*
X64231365Y-98676464D01*
X64231371Y-98676468D01*
X64231374Y-98676470D01*
X64435497Y-98786936D01*
X64549487Y-98826068D01*
X64655015Y-98862297D01*
X64655017Y-98862297D01*
X64655019Y-98862298D01*
X64883951Y-98900500D01*
X64883952Y-98900500D01*
X65116048Y-98900500D01*
X65116049Y-98900500D01*
X65344981Y-98862298D01*
X65564503Y-98786936D01*
X65768626Y-98676470D01*
X65951784Y-98533913D01*
X66108979Y-98363153D01*
X66146191Y-98306196D01*
X66199337Y-98260839D01*
X66268569Y-98251415D01*
X66331904Y-98280917D01*
X66353809Y-98306196D01*
X66391016Y-98363147D01*
X66391019Y-98363151D01*
X66391021Y-98363153D01*
X66476731Y-98456259D01*
X66507652Y-98518912D01*
X66509500Y-98540240D01*
X66509500Y-113459758D01*
X66489815Y-113526797D01*
X66476730Y-113543740D01*
X66391022Y-113636844D01*
X66391018Y-113636849D01*
X66353808Y-113693804D01*
X66300662Y-113739161D01*
X66231430Y-113748584D01*
X66168095Y-113719082D01*
X66146192Y-113693804D01*
X66108984Y-113636854D01*
X66108982Y-113636852D01*
X66108979Y-113636847D01*
X65951784Y-113466087D01*
X65951779Y-113466083D01*
X65951777Y-113466081D01*
X65768634Y-113323535D01*
X65768628Y-113323531D01*
X65564504Y-113213064D01*
X65564495Y-113213061D01*
X65344984Y-113137702D01*
X65157404Y-113106401D01*
X65116049Y-113099500D01*
X64883951Y-113099500D01*
X64842596Y-113106401D01*
X64655015Y-113137702D01*
X64435504Y-113213061D01*
X64435495Y-113213064D01*
X64231372Y-113323531D01*
X64054023Y-113461567D01*
X63989029Y-113487209D01*
X63920489Y-113473642D01*
X63870164Y-113425174D01*
X63861679Y-113407045D01*
X63843355Y-113357915D01*
X63843350Y-113357906D01*
X63757190Y-113242812D01*
X63757187Y-113242809D01*
X63642093Y-113156649D01*
X63642086Y-113156645D01*
X63507379Y-113106403D01*
X63507372Y-113106401D01*
X63447844Y-113100000D01*
X62750000Y-113100000D01*
X62750000Y-114066988D01*
X62692993Y-114034075D01*
X62565826Y-114000000D01*
X62434174Y-114000000D01*
X62307007Y-114034075D01*
X62250000Y-114066988D01*
X62250000Y-113100000D01*
X61552155Y-113100000D01*
X61492627Y-113106401D01*
X61492620Y-113106403D01*
X61357913Y-113156645D01*
X61357906Y-113156649D01*
X61242812Y-113242809D01*
X61242809Y-113242812D01*
X61156649Y-113357906D01*
X61156645Y-113357913D01*
X61106403Y-113492620D01*
X61106401Y-113492627D01*
X61100000Y-113552155D01*
X61100000Y-114250000D01*
X62066988Y-114250000D01*
X62034075Y-114307007D01*
X62000000Y-114434174D01*
X62000000Y-114565826D01*
X62034075Y-114692993D01*
X62066988Y-114750000D01*
X61100000Y-114750000D01*
X61100000Y-115447844D01*
X61106401Y-115507372D01*
X61106403Y-115507379D01*
X61156645Y-115642086D01*
X61156649Y-115642093D01*
X61242809Y-115757187D01*
X61242812Y-115757190D01*
X61357906Y-115843350D01*
X61357913Y-115843354D01*
X61492620Y-115893596D01*
X61492627Y-115893598D01*
X61552155Y-115899999D01*
X61552172Y-115900000D01*
X62250000Y-115900000D01*
X62250000Y-114933012D01*
X62307007Y-114965925D01*
X62434174Y-115000000D01*
X62565826Y-115000000D01*
X62692993Y-114965925D01*
X62750000Y-114933012D01*
X62750000Y-115900000D01*
X63447828Y-115900000D01*
X63447844Y-115899999D01*
X63507372Y-115893598D01*
X63507379Y-115893596D01*
X63642086Y-115843354D01*
X63642093Y-115843350D01*
X63757187Y-115757190D01*
X63757190Y-115757187D01*
X63843350Y-115642093D01*
X63843353Y-115642088D01*
X63861678Y-115592955D01*
X63903549Y-115537020D01*
X63969013Y-115512602D01*
X64037286Y-115527453D01*
X64054023Y-115538433D01*
X64231365Y-115676464D01*
X64231371Y-115676468D01*
X64231374Y-115676470D01*
X64435497Y-115786936D01*
X64540600Y-115823018D01*
X64655015Y-115862297D01*
X64655017Y-115862297D01*
X64655019Y-115862298D01*
X64883951Y-115900500D01*
X64883952Y-115900500D01*
X65116048Y-115900500D01*
X65116049Y-115900500D01*
X65344981Y-115862298D01*
X65564503Y-115786936D01*
X65768626Y-115676470D01*
X65951784Y-115533913D01*
X66108979Y-115363153D01*
X66146191Y-115306196D01*
X66199337Y-115260839D01*
X66268569Y-115251415D01*
X66331904Y-115280917D01*
X66353809Y-115306196D01*
X66391016Y-115363147D01*
X66391019Y-115363151D01*
X66391021Y-115363153D01*
X66548216Y-115533913D01*
X66548219Y-115533915D01*
X66548222Y-115533918D01*
X66731365Y-115676464D01*
X66731371Y-115676468D01*
X66731374Y-115676470D01*
X66935497Y-115786936D01*
X67040600Y-115823018D01*
X67155015Y-115862297D01*
X67155017Y-115862297D01*
X67155019Y-115862298D01*
X67383951Y-115900500D01*
X67383952Y-115900500D01*
X67616048Y-115900500D01*
X67616049Y-115900500D01*
X67844981Y-115862298D01*
X68064503Y-115786936D01*
X68268626Y-115676470D01*
X68451784Y-115533913D01*
X68608979Y-115363153D01*
X68735924Y-115168849D01*
X68829157Y-114956300D01*
X68843414Y-114900000D01*
X71129659Y-114900000D01*
X71148993Y-115145658D01*
X71206517Y-115385264D01*
X71300815Y-115612920D01*
X71429563Y-115823018D01*
X71429564Y-115823020D01*
X71429567Y-115823023D01*
X71589601Y-116010399D01*
X71734648Y-116134280D01*
X71776979Y-116170435D01*
X71776981Y-116170436D01*
X71987080Y-116299184D01*
X71987079Y-116299184D01*
X72101162Y-116346439D01*
X72155565Y-116390280D01*
X72177630Y-116456574D01*
X72160351Y-116524274D01*
X72109213Y-116571884D01*
X72053709Y-116585000D01*
X71687155Y-116585000D01*
X71627627Y-116591401D01*
X71627620Y-116591403D01*
X71492913Y-116641645D01*
X71492906Y-116641649D01*
X71377812Y-116727809D01*
X71377809Y-116727812D01*
X71291649Y-116842906D01*
X71291645Y-116842913D01*
X71241403Y-116977620D01*
X71241401Y-116977627D01*
X71235000Y-117037155D01*
X71235000Y-117750000D01*
X72143294Y-117750000D01*
X72113442Y-117822069D01*
X72090000Y-117939920D01*
X72090000Y-118060080D01*
X72113442Y-118177931D01*
X72143294Y-118250000D01*
X71235000Y-118250000D01*
X71235000Y-118962844D01*
X71241401Y-119022372D01*
X71241403Y-119022379D01*
X71291645Y-119157086D01*
X71291649Y-119157093D01*
X71377809Y-119272187D01*
X71377812Y-119272190D01*
X71492906Y-119358350D01*
X71492913Y-119358354D01*
X71627620Y-119408596D01*
X71627627Y-119408598D01*
X71687155Y-119414999D01*
X71687172Y-119415000D01*
X72450000Y-119415000D01*
X72450000Y-118556706D01*
X72522069Y-118586558D01*
X72639920Y-118610000D01*
X72760080Y-118610000D01*
X72877931Y-118586558D01*
X72950000Y-118556706D01*
X72950000Y-119415000D01*
X73712828Y-119415000D01*
X73712844Y-119414999D01*
X73772372Y-119408598D01*
X73772379Y-119408596D01*
X73907086Y-119358354D01*
X73907093Y-119358350D01*
X74022187Y-119272190D01*
X74022190Y-119272187D01*
X74108350Y-119157093D01*
X74108354Y-119157086D01*
X74158596Y-119022379D01*
X74158598Y-119022372D01*
X74164999Y-118962844D01*
X74165000Y-118962827D01*
X74165000Y-118250000D01*
X73256706Y-118250000D01*
X73286558Y-118177931D01*
X73310000Y-118060080D01*
X73310000Y-117939920D01*
X73286558Y-117822069D01*
X73256706Y-117750000D01*
X74165000Y-117750000D01*
X74165000Y-117037172D01*
X74164999Y-117037155D01*
X74158598Y-116977627D01*
X74158596Y-116977620D01*
X74108354Y-116842913D01*
X74108350Y-116842906D01*
X74022190Y-116727812D01*
X74022187Y-116727809D01*
X73907093Y-116641649D01*
X73907086Y-116641645D01*
X73772379Y-116591403D01*
X73772372Y-116591401D01*
X73712844Y-116585000D01*
X73346291Y-116585000D01*
X73279252Y-116565315D01*
X73233497Y-116512511D01*
X73223553Y-116443353D01*
X73252578Y-116379797D01*
X73298838Y-116346439D01*
X73412920Y-116299184D01*
X73623018Y-116170436D01*
X73623020Y-116170435D01*
X73623020Y-116170434D01*
X73623023Y-116170433D01*
X73810399Y-116010399D01*
X73970433Y-115823023D01*
X74099184Y-115612920D01*
X74193483Y-115385262D01*
X74251007Y-115145655D01*
X74270341Y-114900000D01*
X74251007Y-114654345D01*
X74193483Y-114414738D01*
X74193482Y-114414735D01*
X74099184Y-114187079D01*
X73970436Y-113976981D01*
X73970435Y-113976979D01*
X73934280Y-113934648D01*
X73810399Y-113789601D01*
X73631553Y-113636852D01*
X73623020Y-113629564D01*
X73623018Y-113629563D01*
X73412920Y-113500815D01*
X73185264Y-113406517D01*
X72945658Y-113348993D01*
X72700000Y-113329659D01*
X72454341Y-113348993D01*
X72214735Y-113406517D01*
X71987079Y-113500815D01*
X71776981Y-113629563D01*
X71776979Y-113629564D01*
X71589601Y-113789601D01*
X71429564Y-113976979D01*
X71429563Y-113976981D01*
X71300815Y-114187079D01*
X71206517Y-114414735D01*
X71148993Y-114654341D01*
X71129659Y-114900000D01*
X68843414Y-114900000D01*
X68886134Y-114731305D01*
X68892511Y-114654345D01*
X68905300Y-114500006D01*
X68905300Y-114499993D01*
X68886135Y-114268702D01*
X68886133Y-114268691D01*
X68829157Y-114043699D01*
X68735924Y-113831151D01*
X68608983Y-113636852D01*
X68608980Y-113636849D01*
X68608979Y-113636847D01*
X68451784Y-113466087D01*
X68451779Y-113466083D01*
X68451777Y-113466081D01*
X68268634Y-113323535D01*
X68268623Y-113323528D01*
X68175481Y-113273121D01*
X68125891Y-113223901D01*
X68110500Y-113164067D01*
X68110500Y-110062766D01*
X68130185Y-109995727D01*
X68182989Y-109949972D01*
X68252147Y-109940028D01*
X68264801Y-109942525D01*
X68453588Y-109990096D01*
X68585783Y-110000500D01*
X70214216Y-110000499D01*
X70346412Y-109990096D01*
X70564683Y-109935096D01*
X70769626Y-109842007D01*
X70954654Y-109713819D01*
X71113819Y-109554654D01*
X71242007Y-109369626D01*
X71335096Y-109164683D01*
X71390096Y-108946412D01*
X71400500Y-108814217D01*
X71400499Y-107817866D01*
X71420183Y-107750828D01*
X71472987Y-107705073D01*
X71542146Y-107695129D01*
X71605029Y-107723576D01*
X71637811Y-107751574D01*
X71776979Y-107870435D01*
X71776981Y-107870436D01*
X71987079Y-107999184D01*
X72214735Y-108093482D01*
X72214736Y-108093482D01*
X72214738Y-108093483D01*
X72454345Y-108151007D01*
X72700000Y-108170341D01*
X72945655Y-108151007D01*
X73185262Y-108093483D01*
X73412920Y-107999184D01*
X73623023Y-107870433D01*
X73810399Y-107710399D01*
X73970433Y-107523023D01*
X74099184Y-107312920D01*
X74193483Y-107085262D01*
X74251007Y-106845655D01*
X74270341Y-106600000D01*
X74251007Y-106354345D01*
X74193483Y-106114738D01*
X74099184Y-105887080D01*
X74099184Y-105887079D01*
X73970436Y-105676981D01*
X73970435Y-105676979D01*
X73930624Y-105630367D01*
X73810399Y-105489601D01*
X73683830Y-105381501D01*
X73623020Y-105329564D01*
X73623018Y-105329563D01*
X73412920Y-105200815D01*
X73185264Y-105106517D01*
X72945658Y-105048993D01*
X72700000Y-105029659D01*
X72454341Y-105048993D01*
X72214735Y-105106517D01*
X71987079Y-105200815D01*
X71776981Y-105329563D01*
X71776979Y-105329564D01*
X71589601Y-105489601D01*
X71447526Y-105655949D01*
X71389019Y-105694142D01*
X71319151Y-105694640D01*
X71260105Y-105657286D01*
X71245549Y-105634760D01*
X71244752Y-105635213D01*
X71242008Y-105630377D01*
X71242007Y-105630374D01*
X71185353Y-105548599D01*
X71113825Y-105445354D01*
X71113822Y-105445350D01*
X71113819Y-105445346D01*
X70954654Y-105286181D01*
X70954650Y-105286178D01*
X70954645Y-105286174D01*
X70769632Y-105157997D01*
X70769630Y-105157995D01*
X70769626Y-105157993D01*
X70743438Y-105146098D01*
X70564681Y-105064903D01*
X70564678Y-105064902D01*
X70346420Y-105009905D01*
X70346413Y-105009904D01*
X70302347Y-105006436D01*
X70214217Y-104999500D01*
X70214215Y-104999500D01*
X68585791Y-104999500D01*
X68585776Y-104999501D01*
X68453588Y-105009904D01*
X68264798Y-105057475D01*
X68194981Y-105054767D01*
X68137711Y-105014743D01*
X68111170Y-104950110D01*
X68110500Y-104937233D01*
X68110500Y-99900000D01*
X71129659Y-99900000D01*
X71148993Y-100145658D01*
X71206517Y-100385264D01*
X71300815Y-100612920D01*
X71429563Y-100823018D01*
X71429564Y-100823020D01*
X71429567Y-100823023D01*
X71589601Y-101010399D01*
X71682519Y-101089758D01*
X71776979Y-101170435D01*
X71776981Y-101170436D01*
X71987080Y-101299184D01*
X71987079Y-101299184D01*
X72101162Y-101346439D01*
X72155565Y-101390280D01*
X72177630Y-101456574D01*
X72160351Y-101524274D01*
X72109213Y-101571884D01*
X72053709Y-101585000D01*
X71687155Y-101585000D01*
X71627627Y-101591401D01*
X71627620Y-101591403D01*
X71492913Y-101641645D01*
X71492906Y-101641649D01*
X71377812Y-101727809D01*
X71377809Y-101727812D01*
X71291649Y-101842906D01*
X71291645Y-101842913D01*
X71241403Y-101977620D01*
X71241401Y-101977627D01*
X71235000Y-102037155D01*
X71235000Y-102750000D01*
X72143294Y-102750000D01*
X72113442Y-102822069D01*
X72090000Y-102939920D01*
X72090000Y-103060080D01*
X72113442Y-103177931D01*
X72143294Y-103250000D01*
X71235000Y-103250000D01*
X71235000Y-103962844D01*
X71241401Y-104022372D01*
X71241403Y-104022379D01*
X71291645Y-104157086D01*
X71291649Y-104157093D01*
X71377809Y-104272187D01*
X71377812Y-104272190D01*
X71492906Y-104358350D01*
X71492913Y-104358354D01*
X71627620Y-104408596D01*
X71627627Y-104408598D01*
X71687155Y-104414999D01*
X71687172Y-104415000D01*
X72450000Y-104415000D01*
X72450000Y-103556706D01*
X72522069Y-103586558D01*
X72639920Y-103610000D01*
X72760080Y-103610000D01*
X72877931Y-103586558D01*
X72950000Y-103556706D01*
X72950000Y-104415000D01*
X73712828Y-104415000D01*
X73712844Y-104414999D01*
X73772372Y-104408598D01*
X73772379Y-104408596D01*
X73907086Y-104358354D01*
X73907093Y-104358350D01*
X74022187Y-104272190D01*
X74022190Y-104272187D01*
X74108350Y-104157093D01*
X74108354Y-104157086D01*
X74158596Y-104022379D01*
X74158598Y-104022372D01*
X74164999Y-103962844D01*
X74165000Y-103962827D01*
X74165000Y-103250000D01*
X73256706Y-103250000D01*
X73286558Y-103177931D01*
X73310000Y-103060080D01*
X73310000Y-102939920D01*
X73286558Y-102822069D01*
X73256706Y-102750000D01*
X74165000Y-102750000D01*
X74165000Y-102037172D01*
X74164999Y-102037155D01*
X74158598Y-101977627D01*
X74158596Y-101977620D01*
X74108354Y-101842913D01*
X74108350Y-101842906D01*
X74022190Y-101727812D01*
X74022187Y-101727809D01*
X73907093Y-101641649D01*
X73907086Y-101641645D01*
X73772379Y-101591403D01*
X73772372Y-101591401D01*
X73712844Y-101585000D01*
X73346291Y-101585000D01*
X73279252Y-101565315D01*
X73233497Y-101512511D01*
X73223553Y-101443353D01*
X73252578Y-101379797D01*
X73298838Y-101346439D01*
X73412920Y-101299184D01*
X73623018Y-101170436D01*
X73623020Y-101170435D01*
X73623020Y-101170434D01*
X73623023Y-101170433D01*
X73810399Y-101010399D01*
X73970433Y-100823023D01*
X74099184Y-100612920D01*
X74193483Y-100385262D01*
X74251007Y-100145655D01*
X74270341Y-99900000D01*
X74251007Y-99654345D01*
X74193483Y-99414738D01*
X74188278Y-99402171D01*
X74099184Y-99187079D01*
X73970436Y-98976981D01*
X73970435Y-98976979D01*
X73909783Y-98905965D01*
X73810399Y-98789601D01*
X73677941Y-98676471D01*
X73623020Y-98629564D01*
X73623018Y-98629563D01*
X73412920Y-98500815D01*
X73185264Y-98406517D01*
X72945658Y-98348993D01*
X72700000Y-98329659D01*
X72454341Y-98348993D01*
X72214735Y-98406517D01*
X71987079Y-98500815D01*
X71776981Y-98629563D01*
X71776979Y-98629564D01*
X71589601Y-98789601D01*
X71429564Y-98976979D01*
X71429563Y-98976981D01*
X71300815Y-99187079D01*
X71206517Y-99414735D01*
X71148993Y-99654341D01*
X71129659Y-99900000D01*
X68110500Y-99900000D01*
X68110500Y-98835931D01*
X68130185Y-98768892D01*
X68175483Y-98726876D01*
X68199212Y-98714035D01*
X68268626Y-98676470D01*
X68451784Y-98533913D01*
X68608979Y-98363153D01*
X68735924Y-98168849D01*
X68829157Y-97956300D01*
X68886134Y-97731305D01*
X68905300Y-97500000D01*
X68905300Y-97499993D01*
X68886135Y-97268702D01*
X68886133Y-97268691D01*
X68829157Y-97043699D01*
X68735924Y-96831151D01*
X68608983Y-96636852D01*
X68608980Y-96636849D01*
X68608979Y-96636847D01*
X68451784Y-96466087D01*
X68451779Y-96466083D01*
X68451777Y-96466081D01*
X68268634Y-96323535D01*
X68268622Y-96323527D01*
X68265473Y-96321823D01*
X68264433Y-96320790D01*
X68264334Y-96320726D01*
X68264347Y-96320705D01*
X68215887Y-96272599D01*
X68200500Y-96212773D01*
X68200500Y-93085444D01*
X68220185Y-93018405D01*
X68272989Y-92972650D01*
X68342147Y-92962706D01*
X68354796Y-92965202D01*
X68453588Y-92990096D01*
X68585783Y-93000500D01*
X70214216Y-93000499D01*
X70346412Y-92990096D01*
X70564683Y-92935096D01*
X70769626Y-92842007D01*
X70954654Y-92713819D01*
X71113819Y-92554654D01*
X71183358Y-92454280D01*
X71237715Y-92410386D01*
X71307177Y-92402846D01*
X71369688Y-92434057D01*
X71391012Y-92460108D01*
X71429563Y-92523017D01*
X71429564Y-92523020D01*
X71456582Y-92554654D01*
X71589601Y-92710399D01*
X71734648Y-92834280D01*
X71776979Y-92870435D01*
X71776981Y-92870436D01*
X71987079Y-92999184D01*
X72214735Y-93093482D01*
X72214736Y-93093482D01*
X72214738Y-93093483D01*
X72454345Y-93151007D01*
X72700000Y-93170341D01*
X72945655Y-93151007D01*
X73185262Y-93093483D01*
X73412920Y-92999184D01*
X73623023Y-92870433D01*
X73810399Y-92710399D01*
X73970433Y-92523023D01*
X74099184Y-92312920D01*
X74193483Y-92085262D01*
X74251007Y-91845655D01*
X74270341Y-91600000D01*
X74251007Y-91354345D01*
X74193483Y-91114738D01*
X74099184Y-90887080D01*
X74099184Y-90887079D01*
X73970436Y-90676981D01*
X73970435Y-90676979D01*
X73934280Y-90634648D01*
X73810399Y-90489601D01*
X73684569Y-90382132D01*
X73623020Y-90329564D01*
X73623018Y-90329563D01*
X73412920Y-90200815D01*
X73185264Y-90106517D01*
X72945658Y-90048993D01*
X72700000Y-90029659D01*
X72454341Y-90048993D01*
X72214735Y-90106517D01*
X71987079Y-90200815D01*
X71776981Y-90329563D01*
X71776979Y-90329564D01*
X71649207Y-90438692D01*
X71605029Y-90476423D01*
X71541269Y-90504994D01*
X71472183Y-90494557D01*
X71419708Y-90448426D01*
X71400499Y-90382133D01*
X71400499Y-89185791D01*
X71400498Y-89185783D01*
X71390096Y-89053588D01*
X71335096Y-88835317D01*
X71242007Y-88630374D01*
X71113819Y-88445346D01*
X70954654Y-88286181D01*
X70954650Y-88286178D01*
X70954645Y-88286174D01*
X70769632Y-88157997D01*
X70769630Y-88157995D01*
X70769626Y-88157993D01*
X70564683Y-88064904D01*
X70564681Y-88064903D01*
X70564678Y-88064902D01*
X70346420Y-88009905D01*
X70346413Y-88009904D01*
X70302347Y-88006436D01*
X70214217Y-87999500D01*
X70214215Y-87999500D01*
X68585791Y-87999500D01*
X68585776Y-87999501D01*
X68453588Y-88009904D01*
X68354798Y-88034797D01*
X68284981Y-88032089D01*
X68227711Y-87992065D01*
X68201170Y-87927432D01*
X68200500Y-87914555D01*
X68200500Y-81787225D01*
X68220185Y-81720186D01*
X68265487Y-81678168D01*
X68268626Y-81676470D01*
X68451784Y-81533913D01*
X68608979Y-81363153D01*
X68735924Y-81168849D01*
X68829157Y-80956300D01*
X68886134Y-80731305D01*
X68897615Y-80592750D01*
X68905300Y-80500006D01*
X68905300Y-80499993D01*
X68886135Y-80268702D01*
X68886133Y-80268691D01*
X68829157Y-80043699D01*
X68735924Y-79831151D01*
X68608983Y-79636852D01*
X68608980Y-79636849D01*
X68608979Y-79636847D01*
X68451784Y-79466087D01*
X68451779Y-79466083D01*
X68451777Y-79466081D01*
X68268634Y-79323535D01*
X68268622Y-79323527D01*
X68265473Y-79321823D01*
X68264433Y-79320790D01*
X68264334Y-79320726D01*
X68264347Y-79320705D01*
X68215887Y-79272599D01*
X68200500Y-79212773D01*
X68200500Y-76085444D01*
X68220185Y-76018405D01*
X68272989Y-75972650D01*
X68342147Y-75962706D01*
X68354796Y-75965202D01*
X68453588Y-75990096D01*
X68585783Y-76000500D01*
X70214216Y-76000499D01*
X70346412Y-75990096D01*
X70564683Y-75935096D01*
X70769626Y-75842007D01*
X70954654Y-75713819D01*
X71113819Y-75554654D01*
X71242007Y-75369626D01*
X71335096Y-75164683D01*
X71390096Y-74946412D01*
X71400500Y-74814217D01*
X71400499Y-72185784D01*
X71390096Y-72053588D01*
X71383295Y-72026599D01*
X71335097Y-71835321D01*
X71335096Y-71835318D01*
X71284517Y-71723965D01*
X71242007Y-71630374D01*
X71210297Y-71584603D01*
X71113825Y-71445354D01*
X71113822Y-71445350D01*
X71113819Y-71445346D01*
X70954654Y-71286181D01*
X70954650Y-71286178D01*
X70954645Y-71286174D01*
X70769632Y-71157997D01*
X70769630Y-71157995D01*
X70769626Y-71157993D01*
X70564683Y-71064904D01*
X70564681Y-71064903D01*
X70564678Y-71064902D01*
X70346420Y-71009905D01*
X70346413Y-71009904D01*
X70291712Y-71005599D01*
X70214217Y-70999500D01*
X70214215Y-70999500D01*
X68585791Y-70999500D01*
X68585776Y-70999501D01*
X68453588Y-71009904D01*
X68354798Y-71034797D01*
X68284981Y-71032089D01*
X68227711Y-70992065D01*
X68201170Y-70927432D01*
X68200500Y-70914555D01*
X68200500Y-69381389D01*
X71663500Y-69381389D01*
X71663500Y-78700611D01*
X71687535Y-78821444D01*
X71687540Y-78821461D01*
X71734685Y-78935280D01*
X71734687Y-78935283D01*
X71734688Y-78935286D01*
X71749724Y-78957789D01*
X71768914Y-78986507D01*
X71768915Y-78986509D01*
X71803140Y-79037731D01*
X71803141Y-79037732D01*
X71803142Y-79037733D01*
X71890267Y-79124858D01*
X71890268Y-79124858D01*
X71897335Y-79131925D01*
X71897334Y-79131925D01*
X71897338Y-79131928D01*
X73595787Y-80830378D01*
X73629272Y-80891701D01*
X73631326Y-80904174D01*
X73636630Y-80951249D01*
X73696210Y-81121521D01*
X73777828Y-81251415D01*
X73792184Y-81274262D01*
X73919738Y-81401816D01*
X74072478Y-81497789D01*
X74175729Y-81533918D01*
X74242745Y-81557368D01*
X74242750Y-81557369D01*
X74421996Y-81577565D01*
X74422000Y-81577565D01*
X74422004Y-81577565D01*
X74601249Y-81557369D01*
X74601252Y-81557368D01*
X74601255Y-81557368D01*
X74771522Y-81497789D01*
X74924262Y-81401816D01*
X75051816Y-81274262D01*
X75147789Y-81121522D01*
X75207368Y-80951255D01*
X75214078Y-80891701D01*
X75227565Y-80772003D01*
X75227565Y-80771996D01*
X75207369Y-80592750D01*
X75207368Y-80592745D01*
X75174915Y-80500000D01*
X75147789Y-80422478D01*
X75147787Y-80422475D01*
X75147787Y-80422474D01*
X75146755Y-80420330D01*
X75146503Y-80418805D01*
X75145489Y-80415905D01*
X75145996Y-80415727D01*
X75135401Y-80351389D01*
X75163122Y-80287254D01*
X75217521Y-80249484D01*
X75279520Y-80227790D01*
X75334899Y-80192993D01*
X75432262Y-80131816D01*
X75559816Y-80004262D01*
X75655789Y-79851522D01*
X75715368Y-79681255D01*
X75716899Y-79667669D01*
X75735565Y-79502003D01*
X75735565Y-79501996D01*
X75715369Y-79322750D01*
X75715368Y-79322745D01*
X75687397Y-79242809D01*
X75655789Y-79152478D01*
X75655787Y-79152475D01*
X75655787Y-79152474D01*
X75654755Y-79150330D01*
X75654503Y-79148805D01*
X75653489Y-79145905D01*
X75653996Y-79145727D01*
X75643401Y-79081389D01*
X75671122Y-79017254D01*
X75725521Y-78979484D01*
X75787520Y-78957790D01*
X75787522Y-78957789D01*
X75940262Y-78861816D01*
X76067816Y-78734262D01*
X76163789Y-78581522D01*
X76223368Y-78411255D01*
X76226900Y-78379909D01*
X76243565Y-78232003D01*
X76243565Y-78231996D01*
X76223369Y-78052750D01*
X76223368Y-78052745D01*
X76163788Y-77882476D01*
X76082506Y-77753117D01*
X76063500Y-77687145D01*
X76063500Y-74360393D01*
X76063499Y-74360389D01*
X76039464Y-74239555D01*
X76039463Y-74239548D01*
X76001020Y-74146739D01*
X75992312Y-74125716D01*
X75992307Y-74125707D01*
X75923859Y-74023268D01*
X75923858Y-74023267D01*
X75836733Y-73936142D01*
X75836732Y-73936141D01*
X75254236Y-73353646D01*
X75220752Y-73292324D01*
X75222143Y-73233872D01*
X75249063Y-73133408D01*
X75269659Y-72898000D01*
X75267901Y-72877912D01*
X75261004Y-72799077D01*
X75249063Y-72662592D01*
X75187903Y-72434337D01*
X75088035Y-72220171D01*
X75063957Y-72185783D01*
X74952494Y-72026597D01*
X74785402Y-71859506D01*
X74785396Y-71859501D01*
X74599842Y-71729575D01*
X74556217Y-71674998D01*
X74549023Y-71605500D01*
X74580546Y-71543145D01*
X74599842Y-71526425D01*
X74715623Y-71445354D01*
X74785401Y-71396495D01*
X74952495Y-71229401D01*
X75088035Y-71035830D01*
X75187903Y-70821663D01*
X75249063Y-70593408D01*
X75269659Y-70358000D01*
X75249063Y-70122592D01*
X75187903Y-69894337D01*
X75088035Y-69680171D01*
X75029098Y-69595999D01*
X74952494Y-69486597D01*
X74785402Y-69319506D01*
X74785396Y-69319501D01*
X74599842Y-69189575D01*
X74556217Y-69134998D01*
X74549023Y-69065500D01*
X74580546Y-69003145D01*
X74599842Y-68986425D01*
X74641667Y-68957139D01*
X74785401Y-68856495D01*
X74952495Y-68689401D01*
X75088035Y-68495830D01*
X75187903Y-68281663D01*
X75249063Y-68053408D01*
X75269659Y-67818000D01*
X75249063Y-67582592D01*
X75187903Y-67354337D01*
X75088035Y-67140171D01*
X75029098Y-67055999D01*
X74952494Y-66946597D01*
X74785402Y-66779506D01*
X74785396Y-66779501D01*
X74599842Y-66649575D01*
X74556217Y-66594998D01*
X74549023Y-66525500D01*
X74580546Y-66463145D01*
X74599842Y-66446425D01*
X74622026Y-66430891D01*
X74785401Y-66316495D01*
X74952495Y-66149401D01*
X75088035Y-65955830D01*
X75187903Y-65741663D01*
X75249063Y-65513408D01*
X75269659Y-65278000D01*
X75249063Y-65042592D01*
X75187903Y-64814337D01*
X75088035Y-64600171D01*
X75083221Y-64593295D01*
X74952494Y-64406597D01*
X74785402Y-64239506D01*
X74785396Y-64239501D01*
X74599842Y-64109575D01*
X74556217Y-64054998D01*
X74549023Y-63985500D01*
X74580546Y-63923145D01*
X74599842Y-63906425D01*
X74622026Y-63890891D01*
X74785401Y-63776495D01*
X74952495Y-63609401D01*
X75088035Y-63415830D01*
X75187903Y-63201663D01*
X75249063Y-62973408D01*
X75269659Y-62738000D01*
X75249063Y-62502592D01*
X75187903Y-62274337D01*
X75088035Y-62060171D01*
X75029098Y-61975999D01*
X74952494Y-61866597D01*
X74785402Y-61699506D01*
X74785396Y-61699501D01*
X74599842Y-61569575D01*
X74556217Y-61514998D01*
X74549023Y-61445500D01*
X74580546Y-61383145D01*
X74599842Y-61366425D01*
X74622026Y-61350891D01*
X74785401Y-61236495D01*
X74952495Y-61069401D01*
X75088035Y-60875830D01*
X75187903Y-60661663D01*
X75249063Y-60433408D01*
X75269659Y-60198000D01*
X75249063Y-59962592D01*
X75187903Y-59734337D01*
X75088035Y-59520171D01*
X74952495Y-59326599D01*
X74952494Y-59326597D01*
X74785402Y-59159506D01*
X74785396Y-59159501D01*
X74599842Y-59029575D01*
X74556217Y-58974998D01*
X74549023Y-58905500D01*
X74580546Y-58843145D01*
X74599842Y-58826425D01*
X74760651Y-58713825D01*
X74785401Y-58696495D01*
X74952495Y-58529401D01*
X75088035Y-58335830D01*
X75187903Y-58121663D01*
X75249063Y-57893408D01*
X75269659Y-57658000D01*
X75249063Y-57422592D01*
X75187903Y-57194337D01*
X75088035Y-56980171D01*
X74952495Y-56786599D01*
X74952494Y-56786597D01*
X74785402Y-56619506D01*
X74785395Y-56619501D01*
X74591834Y-56483967D01*
X74591830Y-56483965D01*
X74591828Y-56483964D01*
X74377663Y-56384097D01*
X74377659Y-56384096D01*
X74377655Y-56384094D01*
X74149413Y-56322938D01*
X74149403Y-56322936D01*
X73914001Y-56302341D01*
X73913999Y-56302341D01*
X73678596Y-56322936D01*
X73678586Y-56322938D01*
X73450344Y-56384094D01*
X73450335Y-56384098D01*
X73236171Y-56483964D01*
X73236169Y-56483965D01*
X73042597Y-56619505D01*
X72875505Y-56786597D01*
X72739965Y-56980169D01*
X72739964Y-56980171D01*
X72640098Y-57194335D01*
X72640094Y-57194344D01*
X72578938Y-57422586D01*
X72578936Y-57422596D01*
X72558341Y-57657999D01*
X72558341Y-57658000D01*
X72578936Y-57893403D01*
X72578938Y-57893413D01*
X72640094Y-58121655D01*
X72640096Y-58121659D01*
X72640097Y-58121663D01*
X72739965Y-58335830D01*
X72739967Y-58335834D01*
X72875501Y-58529395D01*
X72875506Y-58529402D01*
X73042597Y-58696493D01*
X73042603Y-58696498D01*
X73228158Y-58826425D01*
X73271783Y-58881002D01*
X73278977Y-58950500D01*
X73247454Y-59012855D01*
X73228158Y-59029575D01*
X73042597Y-59159505D01*
X72875505Y-59326597D01*
X72739965Y-59520169D01*
X72739964Y-59520171D01*
X72640098Y-59734335D01*
X72640094Y-59734344D01*
X72578938Y-59962586D01*
X72578936Y-59962596D01*
X72558341Y-60197999D01*
X72558341Y-60198000D01*
X72578936Y-60433403D01*
X72578938Y-60433413D01*
X72640094Y-60661655D01*
X72640096Y-60661659D01*
X72640097Y-60661663D01*
X72705521Y-60801964D01*
X72739965Y-60875830D01*
X72739967Y-60875834D01*
X72875501Y-61069395D01*
X72875506Y-61069402D01*
X73042597Y-61236493D01*
X73042603Y-61236498D01*
X73228158Y-61366425D01*
X73271783Y-61421002D01*
X73278977Y-61490500D01*
X73247454Y-61552855D01*
X73228158Y-61569575D01*
X73042597Y-61699505D01*
X72875505Y-61866597D01*
X72739965Y-62060169D01*
X72739964Y-62060171D01*
X72640098Y-62274335D01*
X72640094Y-62274344D01*
X72578938Y-62502586D01*
X72578936Y-62502596D01*
X72558341Y-62737999D01*
X72558341Y-62738000D01*
X72578936Y-62973403D01*
X72578938Y-62973413D01*
X72640094Y-63201655D01*
X72640096Y-63201659D01*
X72640097Y-63201663D01*
X72705521Y-63341965D01*
X72739965Y-63415830D01*
X72739967Y-63415834D01*
X72875501Y-63609395D01*
X72875506Y-63609402D01*
X73042597Y-63776493D01*
X73042603Y-63776498D01*
X73228158Y-63906425D01*
X73271783Y-63961002D01*
X73278977Y-64030500D01*
X73247454Y-64092855D01*
X73228158Y-64109575D01*
X73042597Y-64239505D01*
X72875505Y-64406597D01*
X72739965Y-64600169D01*
X72739964Y-64600171D01*
X72640098Y-64814335D01*
X72640094Y-64814344D01*
X72578938Y-65042586D01*
X72578936Y-65042596D01*
X72558341Y-65277999D01*
X72558341Y-65278000D01*
X72578936Y-65513403D01*
X72578938Y-65513413D01*
X72640094Y-65741655D01*
X72640096Y-65741659D01*
X72640097Y-65741663D01*
X72705521Y-65881965D01*
X72739965Y-65955830D01*
X72739967Y-65955834D01*
X72875501Y-66149395D01*
X72875506Y-66149402D01*
X73042597Y-66316493D01*
X73042603Y-66316498D01*
X73228158Y-66446425D01*
X73271783Y-66501002D01*
X73278977Y-66570500D01*
X73247454Y-66632855D01*
X73228158Y-66649575D01*
X73042597Y-66779505D01*
X72875505Y-66946597D01*
X72739965Y-67140169D01*
X72739964Y-67140171D01*
X72640098Y-67354335D01*
X72640094Y-67354344D01*
X72578938Y-67582586D01*
X72578936Y-67582596D01*
X72558341Y-67817999D01*
X72558341Y-67818000D01*
X72578936Y-68053403D01*
X72578938Y-68053413D01*
X72605856Y-68153872D01*
X72604193Y-68223722D01*
X72573762Y-68273646D01*
X72158014Y-68689395D01*
X71890270Y-68957139D01*
X71890267Y-68957142D01*
X71860984Y-68986425D01*
X71803142Y-69044266D01*
X71771314Y-69091901D01*
X71771313Y-69091902D01*
X71734690Y-69146709D01*
X71734685Y-69146718D01*
X71701347Y-69227207D01*
X71695823Y-69240543D01*
X71687537Y-69260545D01*
X71687535Y-69260553D01*
X71663500Y-69381389D01*
X68200500Y-69381389D01*
X68200500Y-64787225D01*
X68220185Y-64720186D01*
X68265487Y-64678168D01*
X68268626Y-64676470D01*
X68451784Y-64533913D01*
X68608979Y-64363153D01*
X68735924Y-64168849D01*
X68829157Y-63956300D01*
X68886134Y-63731305D01*
X68889309Y-63692993D01*
X68905300Y-63500006D01*
X68905300Y-63499993D01*
X68886135Y-63268702D01*
X68886133Y-63268691D01*
X68829157Y-63043699D01*
X68735924Y-62831151D01*
X68608983Y-62636852D01*
X68608980Y-62636849D01*
X68608979Y-62636847D01*
X68451784Y-62466087D01*
X68451779Y-62466083D01*
X68451777Y-62466081D01*
X68268634Y-62323535D01*
X68268628Y-62323531D01*
X68064504Y-62213064D01*
X68064495Y-62213061D01*
X67844984Y-62137702D01*
X67657404Y-62106401D01*
X67616049Y-62099500D01*
X67383951Y-62099500D01*
X67342596Y-62106401D01*
X67155015Y-62137702D01*
X66935504Y-62213061D01*
X66935495Y-62213064D01*
X66731371Y-62323531D01*
X66731365Y-62323535D01*
X66548222Y-62466081D01*
X66548219Y-62466084D01*
X66548216Y-62466086D01*
X66548216Y-62466087D01*
X66514608Y-62502596D01*
X66391015Y-62636854D01*
X66353808Y-62693804D01*
X66300662Y-62739161D01*
X66231430Y-62748584D01*
X66168095Y-62719082D01*
X66146192Y-62693804D01*
X66108984Y-62636854D01*
X66108982Y-62636852D01*
X66108979Y-62636847D01*
X65951784Y-62466087D01*
X65951779Y-62466083D01*
X65951777Y-62466081D01*
X65768634Y-62323535D01*
X65768628Y-62323531D01*
X65564504Y-62213064D01*
X65564495Y-62213061D01*
X65344984Y-62137702D01*
X65157404Y-62106401D01*
X65116049Y-62099500D01*
X64883951Y-62099500D01*
X64842596Y-62106401D01*
X64655015Y-62137702D01*
X64435504Y-62213061D01*
X64435495Y-62213064D01*
X64231372Y-62323531D01*
X64054023Y-62461567D01*
X63989029Y-62487209D01*
X63920489Y-62473642D01*
X63870164Y-62425174D01*
X63861679Y-62407045D01*
X63843355Y-62357915D01*
X63843350Y-62357906D01*
X63757190Y-62242812D01*
X63757187Y-62242809D01*
X63642093Y-62156649D01*
X63642086Y-62156645D01*
X63507379Y-62106403D01*
X63507372Y-62106401D01*
X63447844Y-62100000D01*
X62750000Y-62100000D01*
X62750000Y-63066988D01*
X62692993Y-63034075D01*
X62565826Y-63000000D01*
X62434174Y-63000000D01*
X62307007Y-63034075D01*
X62250000Y-63066988D01*
X62250000Y-62100000D01*
X61552155Y-62100000D01*
X61492627Y-62106401D01*
X61492620Y-62106403D01*
X61357913Y-62156645D01*
X61357906Y-62156649D01*
X61242812Y-62242809D01*
X61242809Y-62242812D01*
X61156649Y-62357906D01*
X61156645Y-62357913D01*
X61106403Y-62492620D01*
X61106401Y-62492627D01*
X61100000Y-62552155D01*
X57101447Y-62552155D01*
X57153903Y-62439663D01*
X57215063Y-62211408D01*
X57235659Y-61976000D01*
X57215063Y-61740592D01*
X57153903Y-61512337D01*
X57054035Y-61298171D01*
X57010852Y-61236498D01*
X56918494Y-61104597D01*
X56751402Y-60937506D01*
X56751395Y-60937501D01*
X56557834Y-60801967D01*
X56557830Y-60801965D01*
X56457836Y-60755337D01*
X56343663Y-60702097D01*
X56343659Y-60702096D01*
X56343655Y-60702094D01*
X56115413Y-60640938D01*
X56115403Y-60640936D01*
X55880001Y-60620341D01*
X55879999Y-60620341D01*
X55644596Y-60640936D01*
X55644586Y-60640938D01*
X55416344Y-60702094D01*
X55416335Y-60702098D01*
X55202171Y-60801964D01*
X55202169Y-60801965D01*
X55008597Y-60937505D01*
X54841505Y-61104597D01*
X54705965Y-61298169D01*
X54705964Y-61298171D01*
X54606098Y-61512335D01*
X54606094Y-61512344D01*
X54544938Y-61740586D01*
X54544936Y-61740596D01*
X54524341Y-61975999D01*
X50500500Y-61975999D01*
X50500500Y-55185777D01*
X58599500Y-55185777D01*
X58599500Y-57814208D01*
X58599501Y-57814223D01*
X58609904Y-57946413D01*
X58609905Y-57946420D01*
X58664902Y-58164678D01*
X58664903Y-58164681D01*
X58757991Y-58369622D01*
X58757997Y-58369632D01*
X58886174Y-58554645D01*
X58886178Y-58554650D01*
X58886181Y-58554654D01*
X59045346Y-58713819D01*
X59045350Y-58713822D01*
X59045354Y-58713825D01*
X59184603Y-58810297D01*
X59230374Y-58842007D01*
X59435317Y-58935096D01*
X59435321Y-58935097D01*
X59653579Y-58990094D01*
X59653581Y-58990094D01*
X59653588Y-58990096D01*
X59785783Y-59000500D01*
X61414216Y-59000499D01*
X61546412Y-58990096D01*
X61764683Y-58935096D01*
X61969626Y-58842007D01*
X62154654Y-58713819D01*
X62313819Y-58554654D01*
X62442007Y-58369626D01*
X62535096Y-58164683D01*
X62590096Y-57946412D01*
X62600500Y-57814217D01*
X62600499Y-55185784D01*
X62600498Y-55185777D01*
X67399500Y-55185777D01*
X67399500Y-57814208D01*
X67399501Y-57814223D01*
X67409904Y-57946413D01*
X67409905Y-57946420D01*
X67464902Y-58164678D01*
X67464903Y-58164681D01*
X67557991Y-58369622D01*
X67557997Y-58369632D01*
X67686174Y-58554645D01*
X67686178Y-58554650D01*
X67686181Y-58554654D01*
X67845346Y-58713819D01*
X67845350Y-58713822D01*
X67845354Y-58713825D01*
X67984603Y-58810297D01*
X68030374Y-58842007D01*
X68235317Y-58935096D01*
X68235321Y-58935097D01*
X68453579Y-58990094D01*
X68453581Y-58990094D01*
X68453588Y-58990096D01*
X68585783Y-59000500D01*
X70214216Y-59000499D01*
X70346412Y-58990096D01*
X70564683Y-58935096D01*
X70769626Y-58842007D01*
X70954654Y-58713819D01*
X71113819Y-58554654D01*
X71242007Y-58369626D01*
X71335096Y-58164683D01*
X71390096Y-57946412D01*
X71400500Y-57814217D01*
X71400499Y-55185784D01*
X71390096Y-55053588D01*
X71352654Y-54904999D01*
X71335097Y-54835321D01*
X71335096Y-54835318D01*
X71259820Y-54669592D01*
X71242007Y-54630374D01*
X71113819Y-54445346D01*
X70954654Y-54286181D01*
X70954650Y-54286178D01*
X70954645Y-54286174D01*
X70769632Y-54157997D01*
X70769630Y-54157995D01*
X70769626Y-54157993D01*
X70763142Y-54155048D01*
X70564681Y-54064903D01*
X70564678Y-54064902D01*
X70346420Y-54009905D01*
X70346413Y-54009904D01*
X70302347Y-54006436D01*
X70214217Y-53999500D01*
X70214215Y-53999500D01*
X68585791Y-53999500D01*
X68585776Y-53999501D01*
X68453586Y-54009904D01*
X68453579Y-54009905D01*
X68235321Y-54064902D01*
X68235318Y-54064903D01*
X68030377Y-54157991D01*
X68030367Y-54157997D01*
X67845354Y-54286174D01*
X67845342Y-54286184D01*
X67686184Y-54445342D01*
X67686174Y-54445354D01*
X67557997Y-54630367D01*
X67557991Y-54630377D01*
X67464903Y-54835318D01*
X67464902Y-54835321D01*
X67409905Y-55053579D01*
X67409904Y-55053586D01*
X67399500Y-55185777D01*
X62600498Y-55185777D01*
X62590096Y-55053588D01*
X62552654Y-54904999D01*
X62535097Y-54835321D01*
X62535096Y-54835318D01*
X62459820Y-54669592D01*
X62442007Y-54630374D01*
X62313819Y-54445346D01*
X62154654Y-54286181D01*
X62154650Y-54286178D01*
X62154645Y-54286174D01*
X61969632Y-54157997D01*
X61969630Y-54157995D01*
X61969626Y-54157993D01*
X61963142Y-54155048D01*
X61764681Y-54064903D01*
X61764678Y-54064902D01*
X61546420Y-54009905D01*
X61546413Y-54009904D01*
X61502347Y-54006436D01*
X61414217Y-53999500D01*
X61414215Y-53999500D01*
X59785791Y-53999500D01*
X59785776Y-53999501D01*
X59653586Y-54009904D01*
X59653579Y-54009905D01*
X59435321Y-54064902D01*
X59435318Y-54064903D01*
X59230377Y-54157991D01*
X59230367Y-54157997D01*
X59045354Y-54286174D01*
X59045342Y-54286184D01*
X58886184Y-54445342D01*
X58886174Y-54445354D01*
X58757997Y-54630367D01*
X58757991Y-54630377D01*
X58664903Y-54835318D01*
X58664902Y-54835321D01*
X58609905Y-55053579D01*
X58609904Y-55053586D01*
X58599500Y-55185777D01*
X50500500Y-55185777D01*
X50500500Y-51467135D01*
X52149500Y-51467135D01*
X52149500Y-53262870D01*
X52149501Y-53262876D01*
X52155908Y-53322483D01*
X52206202Y-53457328D01*
X52206206Y-53457335D01*
X52292452Y-53572544D01*
X52292455Y-53572547D01*
X52407664Y-53658793D01*
X52407671Y-53658797D01*
X52542517Y-53709091D01*
X52542516Y-53709091D01*
X52549444Y-53709835D01*
X52602127Y-53715500D01*
X54397872Y-53715499D01*
X54457483Y-53709091D01*
X54592331Y-53658796D01*
X54707546Y-53572546D01*
X54793796Y-53457331D01*
X54843002Y-53325401D01*
X54884872Y-53269468D01*
X54950337Y-53245050D01*
X55018610Y-53259901D01*
X55046865Y-53281053D01*
X55168917Y-53403105D01*
X55362421Y-53538600D01*
X55576507Y-53638429D01*
X55576516Y-53638433D01*
X55790000Y-53695634D01*
X55790000Y-52798012D01*
X55847007Y-52830925D01*
X55974174Y-52865000D01*
X56105826Y-52865000D01*
X56232993Y-52830925D01*
X56290000Y-52798012D01*
X56290000Y-53695633D01*
X56503483Y-53638433D01*
X56503492Y-53638429D01*
X56717578Y-53538600D01*
X56911082Y-53403105D01*
X57078105Y-53236082D01*
X57213600Y-53042578D01*
X57283016Y-52893713D01*
X72149500Y-52893713D01*
X72149500Y-53106286D01*
X72175345Y-53269468D01*
X72182754Y-53316243D01*
X72228596Y-53457331D01*
X72248444Y-53518414D01*
X72344951Y-53707820D01*
X72469890Y-53879786D01*
X72620213Y-54030109D01*
X72792179Y-54155048D01*
X72792181Y-54155049D01*
X72792184Y-54155051D01*
X72981588Y-54251557D01*
X73183757Y-54317246D01*
X73393713Y-54350500D01*
X73393714Y-54350500D01*
X73606286Y-54350500D01*
X73606287Y-54350500D01*
X73816243Y-54317246D01*
X74018412Y-54251557D01*
X74207816Y-54155051D01*
X74331894Y-54064904D01*
X74379786Y-54030109D01*
X74379788Y-54030106D01*
X74379792Y-54030104D01*
X74530104Y-53879792D01*
X74530106Y-53879788D01*
X74530109Y-53879786D01*
X74655048Y-53707820D01*
X74655047Y-53707820D01*
X74655051Y-53707816D01*
X74751557Y-53518412D01*
X74817246Y-53316243D01*
X74850500Y-53106287D01*
X74850500Y-52893713D01*
X74817246Y-52683757D01*
X74751557Y-52481588D01*
X74655051Y-52292184D01*
X74655049Y-52292181D01*
X74655048Y-52292179D01*
X74530109Y-52120213D01*
X74379786Y-51969890D01*
X74207820Y-51844951D01*
X74018414Y-51748444D01*
X74018413Y-51748443D01*
X74018412Y-51748443D01*
X73816243Y-51682754D01*
X73816241Y-51682753D01*
X73816240Y-51682753D01*
X73654957Y-51657208D01*
X73606287Y-51649500D01*
X73393713Y-51649500D01*
X73345042Y-51657208D01*
X73183760Y-51682753D01*
X72981585Y-51748444D01*
X72792179Y-51844951D01*
X72620213Y-51969890D01*
X72469890Y-52120213D01*
X72344951Y-52292179D01*
X72248444Y-52481585D01*
X72182753Y-52683760D01*
X72149500Y-52893713D01*
X57283016Y-52893713D01*
X57313429Y-52828492D01*
X57313432Y-52828486D01*
X57370636Y-52615000D01*
X56473012Y-52615000D01*
X56505925Y-52557993D01*
X56540000Y-52430826D01*
X56540000Y-52299174D01*
X56505925Y-52172007D01*
X56473012Y-52115000D01*
X57370636Y-52115000D01*
X57370635Y-52114999D01*
X57313432Y-51901513D01*
X57313429Y-51901507D01*
X57213600Y-51687422D01*
X57213599Y-51687420D01*
X57078113Y-51493926D01*
X57078108Y-51493920D01*
X56911082Y-51326894D01*
X56717578Y-51191399D01*
X56503492Y-51091570D01*
X56503486Y-51091567D01*
X56290000Y-51034364D01*
X56290000Y-51931988D01*
X56232993Y-51899075D01*
X56105826Y-51865000D01*
X55974174Y-51865000D01*
X55847007Y-51899075D01*
X55790000Y-51931988D01*
X55790000Y-51034364D01*
X55789999Y-51034364D01*
X55576513Y-51091567D01*
X55576507Y-51091570D01*
X55362422Y-51191399D01*
X55362420Y-51191400D01*
X55168926Y-51326886D01*
X55046865Y-51448947D01*
X54985542Y-51482431D01*
X54915850Y-51477447D01*
X54859917Y-51435575D01*
X54843002Y-51404598D01*
X54793797Y-51272671D01*
X54793793Y-51272664D01*
X54707547Y-51157455D01*
X54707544Y-51157452D01*
X54592335Y-51071206D01*
X54592328Y-51071202D01*
X54457482Y-51020908D01*
X54457483Y-51020908D01*
X54397883Y-51014501D01*
X54397881Y-51014500D01*
X54397873Y-51014500D01*
X54397864Y-51014500D01*
X52602129Y-51014500D01*
X52602123Y-51014501D01*
X52542516Y-51020908D01*
X52407671Y-51071202D01*
X52407664Y-51071206D01*
X52292455Y-51157452D01*
X52292452Y-51157455D01*
X52206206Y-51272664D01*
X52206202Y-51272671D01*
X52155908Y-51407517D01*
X52149501Y-51467116D01*
X52149500Y-51467135D01*
X50500500Y-51467135D01*
X50500500Y-50624500D01*
X50520185Y-50557461D01*
X50572989Y-50511706D01*
X50624500Y-50500500D01*
X79375500Y-50500500D01*
X79442539Y-50520185D01*
G37*
%TD.AperFunction*%
%TD*%
M02*
