%TF.GenerationSoftware,KiCad,Pcbnew,8.0.5*%
%TF.CreationDate,2024-11-21T14:29:38+00:00*%
%TF.ProjectId,EuroRackControl-IO,4575726f-5261-4636-9b43-6f6e74726f6c,rev?*%
%TF.SameCoordinates,Original*%
%TF.FileFunction,Legend,Bot*%
%TF.FilePolarity,Positive*%
%FSLAX46Y46*%
G04 Gerber Fmt 4.6, Leading zero omitted, Abs format (unit mm)*
G04 Created by KiCad (PCBNEW 8.0.5) date 2024-11-21 14:29:38*
%MOMM*%
%LPD*%
G01*
G04 APERTURE LIST*
%ADD10C,0.100000*%
%ADD11C,0.120000*%
G04 APERTURE END LIST*
D10*
X72476381Y-134812721D02*
X72143048Y-134812721D01*
X72000191Y-135336531D02*
X72476381Y-135336531D01*
X72476381Y-135336531D02*
X72476381Y-134336531D01*
X72476381Y-134336531D02*
X72000191Y-134336531D01*
X71143048Y-134669864D02*
X71143048Y-135336531D01*
X71571619Y-134669864D02*
X71571619Y-135193673D01*
X71571619Y-135193673D02*
X71524000Y-135288912D01*
X71524000Y-135288912D02*
X71428762Y-135336531D01*
X71428762Y-135336531D02*
X71285905Y-135336531D01*
X71285905Y-135336531D02*
X71190667Y-135288912D01*
X71190667Y-135288912D02*
X71143048Y-135241292D01*
X70666857Y-135336531D02*
X70666857Y-134669864D01*
X70666857Y-134860340D02*
X70619238Y-134765102D01*
X70619238Y-134765102D02*
X70571619Y-134717483D01*
X70571619Y-134717483D02*
X70476381Y-134669864D01*
X70476381Y-134669864D02*
X70381143Y-134669864D01*
X69904952Y-135336531D02*
X70000190Y-135288912D01*
X70000190Y-135288912D02*
X70047809Y-135241292D01*
X70047809Y-135241292D02*
X70095428Y-135146054D01*
X70095428Y-135146054D02*
X70095428Y-134860340D01*
X70095428Y-134860340D02*
X70047809Y-134765102D01*
X70047809Y-134765102D02*
X70000190Y-134717483D01*
X70000190Y-134717483D02*
X69904952Y-134669864D01*
X69904952Y-134669864D02*
X69762095Y-134669864D01*
X69762095Y-134669864D02*
X69666857Y-134717483D01*
X69666857Y-134717483D02*
X69619238Y-134765102D01*
X69619238Y-134765102D02*
X69571619Y-134860340D01*
X69571619Y-134860340D02*
X69571619Y-135146054D01*
X69571619Y-135146054D02*
X69619238Y-135241292D01*
X69619238Y-135241292D02*
X69666857Y-135288912D01*
X69666857Y-135288912D02*
X69762095Y-135336531D01*
X69762095Y-135336531D02*
X69904952Y-135336531D01*
X68571619Y-135336531D02*
X68904952Y-134860340D01*
X69143047Y-135336531D02*
X69143047Y-134336531D01*
X69143047Y-134336531D02*
X68762095Y-134336531D01*
X68762095Y-134336531D02*
X68666857Y-134384150D01*
X68666857Y-134384150D02*
X68619238Y-134431769D01*
X68619238Y-134431769D02*
X68571619Y-134527007D01*
X68571619Y-134527007D02*
X68571619Y-134669864D01*
X68571619Y-134669864D02*
X68619238Y-134765102D01*
X68619238Y-134765102D02*
X68666857Y-134812721D01*
X68666857Y-134812721D02*
X68762095Y-134860340D01*
X68762095Y-134860340D02*
X69143047Y-134860340D01*
X67714476Y-135336531D02*
X67714476Y-134812721D01*
X67714476Y-134812721D02*
X67762095Y-134717483D01*
X67762095Y-134717483D02*
X67857333Y-134669864D01*
X67857333Y-134669864D02*
X68047809Y-134669864D01*
X68047809Y-134669864D02*
X68143047Y-134717483D01*
X67714476Y-135288912D02*
X67809714Y-135336531D01*
X67809714Y-135336531D02*
X68047809Y-135336531D01*
X68047809Y-135336531D02*
X68143047Y-135288912D01*
X68143047Y-135288912D02*
X68190666Y-135193673D01*
X68190666Y-135193673D02*
X68190666Y-135098435D01*
X68190666Y-135098435D02*
X68143047Y-135003197D01*
X68143047Y-135003197D02*
X68047809Y-134955578D01*
X68047809Y-134955578D02*
X67809714Y-134955578D01*
X67809714Y-134955578D02*
X67714476Y-134907959D01*
X66809714Y-135288912D02*
X66904952Y-135336531D01*
X66904952Y-135336531D02*
X67095428Y-135336531D01*
X67095428Y-135336531D02*
X67190666Y-135288912D01*
X67190666Y-135288912D02*
X67238285Y-135241292D01*
X67238285Y-135241292D02*
X67285904Y-135146054D01*
X67285904Y-135146054D02*
X67285904Y-134860340D01*
X67285904Y-134860340D02*
X67238285Y-134765102D01*
X67238285Y-134765102D02*
X67190666Y-134717483D01*
X67190666Y-134717483D02*
X67095428Y-134669864D01*
X67095428Y-134669864D02*
X66904952Y-134669864D01*
X66904952Y-134669864D02*
X66809714Y-134717483D01*
X66381142Y-135336531D02*
X66381142Y-134336531D01*
X66285904Y-134955578D02*
X66000190Y-135336531D01*
X66000190Y-134669864D02*
X66381142Y-135050816D01*
X64238285Y-135241292D02*
X64285904Y-135288912D01*
X64285904Y-135288912D02*
X64428761Y-135336531D01*
X64428761Y-135336531D02*
X64523999Y-135336531D01*
X64523999Y-135336531D02*
X64666856Y-135288912D01*
X64666856Y-135288912D02*
X64762094Y-135193673D01*
X64762094Y-135193673D02*
X64809713Y-135098435D01*
X64809713Y-135098435D02*
X64857332Y-134907959D01*
X64857332Y-134907959D02*
X64857332Y-134765102D01*
X64857332Y-134765102D02*
X64809713Y-134574626D01*
X64809713Y-134574626D02*
X64762094Y-134479388D01*
X64762094Y-134479388D02*
X64666856Y-134384150D01*
X64666856Y-134384150D02*
X64523999Y-134336531D01*
X64523999Y-134336531D02*
X64428761Y-134336531D01*
X64428761Y-134336531D02*
X64285904Y-134384150D01*
X64285904Y-134384150D02*
X64238285Y-134431769D01*
X63666856Y-135336531D02*
X63762094Y-135288912D01*
X63762094Y-135288912D02*
X63809713Y-135241292D01*
X63809713Y-135241292D02*
X63857332Y-135146054D01*
X63857332Y-135146054D02*
X63857332Y-134860340D01*
X63857332Y-134860340D02*
X63809713Y-134765102D01*
X63809713Y-134765102D02*
X63762094Y-134717483D01*
X63762094Y-134717483D02*
X63666856Y-134669864D01*
X63666856Y-134669864D02*
X63523999Y-134669864D01*
X63523999Y-134669864D02*
X63428761Y-134717483D01*
X63428761Y-134717483D02*
X63381142Y-134765102D01*
X63381142Y-134765102D02*
X63333523Y-134860340D01*
X63333523Y-134860340D02*
X63333523Y-135146054D01*
X63333523Y-135146054D02*
X63381142Y-135241292D01*
X63381142Y-135241292D02*
X63428761Y-135288912D01*
X63428761Y-135288912D02*
X63523999Y-135336531D01*
X63523999Y-135336531D02*
X63666856Y-135336531D01*
X62904951Y-134669864D02*
X62904951Y-135336531D01*
X62904951Y-134765102D02*
X62857332Y-134717483D01*
X62857332Y-134717483D02*
X62762094Y-134669864D01*
X62762094Y-134669864D02*
X62619237Y-134669864D01*
X62619237Y-134669864D02*
X62523999Y-134717483D01*
X62523999Y-134717483D02*
X62476380Y-134812721D01*
X62476380Y-134812721D02*
X62476380Y-135336531D01*
X62143046Y-134669864D02*
X61762094Y-134669864D01*
X62000189Y-134336531D02*
X62000189Y-135193673D01*
X62000189Y-135193673D02*
X61952570Y-135288912D01*
X61952570Y-135288912D02*
X61857332Y-135336531D01*
X61857332Y-135336531D02*
X61762094Y-135336531D01*
X61428760Y-135336531D02*
X61428760Y-134669864D01*
X61428760Y-134860340D02*
X61381141Y-134765102D01*
X61381141Y-134765102D02*
X61333522Y-134717483D01*
X61333522Y-134717483D02*
X61238284Y-134669864D01*
X61238284Y-134669864D02*
X61143046Y-134669864D01*
X60666855Y-135336531D02*
X60762093Y-135288912D01*
X60762093Y-135288912D02*
X60809712Y-135241292D01*
X60809712Y-135241292D02*
X60857331Y-135146054D01*
X60857331Y-135146054D02*
X60857331Y-134860340D01*
X60857331Y-134860340D02*
X60809712Y-134765102D01*
X60809712Y-134765102D02*
X60762093Y-134717483D01*
X60762093Y-134717483D02*
X60666855Y-134669864D01*
X60666855Y-134669864D02*
X60523998Y-134669864D01*
X60523998Y-134669864D02*
X60428760Y-134717483D01*
X60428760Y-134717483D02*
X60381141Y-134765102D01*
X60381141Y-134765102D02*
X60333522Y-134860340D01*
X60333522Y-134860340D02*
X60333522Y-135146054D01*
X60333522Y-135146054D02*
X60381141Y-135241292D01*
X60381141Y-135241292D02*
X60428760Y-135288912D01*
X60428760Y-135288912D02*
X60523998Y-135336531D01*
X60523998Y-135336531D02*
X60666855Y-135336531D01*
X59762093Y-135336531D02*
X59857331Y-135288912D01*
X59857331Y-135288912D02*
X59904950Y-135193673D01*
X59904950Y-135193673D02*
X59904950Y-134336531D01*
X58619235Y-135336531D02*
X58619235Y-134336531D01*
X57952569Y-134336531D02*
X57762093Y-134336531D01*
X57762093Y-134336531D02*
X57666855Y-134384150D01*
X57666855Y-134384150D02*
X57571617Y-134479388D01*
X57571617Y-134479388D02*
X57523998Y-134669864D01*
X57523998Y-134669864D02*
X57523998Y-135003197D01*
X57523998Y-135003197D02*
X57571617Y-135193673D01*
X57571617Y-135193673D02*
X57666855Y-135288912D01*
X57666855Y-135288912D02*
X57762093Y-135336531D01*
X57762093Y-135336531D02*
X57952569Y-135336531D01*
X57952569Y-135336531D02*
X58047807Y-135288912D01*
X58047807Y-135288912D02*
X58143045Y-135193673D01*
X58143045Y-135193673D02*
X58190664Y-135003197D01*
X58190664Y-135003197D02*
X58190664Y-134669864D01*
X58190664Y-134669864D02*
X58143045Y-134479388D01*
X58143045Y-134479388D02*
X58047807Y-134384150D01*
X58047807Y-134384150D02*
X57952569Y-134336531D01*
X70214476Y-136946475D02*
X70214476Y-135946475D01*
X70214476Y-136898856D02*
X70309714Y-136946475D01*
X70309714Y-136946475D02*
X70500190Y-136946475D01*
X70500190Y-136946475D02*
X70595428Y-136898856D01*
X70595428Y-136898856D02*
X70643047Y-136851236D01*
X70643047Y-136851236D02*
X70690666Y-136755998D01*
X70690666Y-136755998D02*
X70690666Y-136470284D01*
X70690666Y-136470284D02*
X70643047Y-136375046D01*
X70643047Y-136375046D02*
X70595428Y-136327427D01*
X70595428Y-136327427D02*
X70500190Y-136279808D01*
X70500190Y-136279808D02*
X70309714Y-136279808D01*
X70309714Y-136279808D02*
X70214476Y-136327427D01*
X69738285Y-136946475D02*
X69738285Y-136279808D01*
X69738285Y-135946475D02*
X69785904Y-135994094D01*
X69785904Y-135994094D02*
X69738285Y-136041713D01*
X69738285Y-136041713D02*
X69690666Y-135994094D01*
X69690666Y-135994094D02*
X69738285Y-135946475D01*
X69738285Y-135946475D02*
X69738285Y-136041713D01*
X69357333Y-136279808D02*
X69119238Y-136946475D01*
X68881143Y-136279808D02*
X69119238Y-136946475D01*
X69119238Y-136946475D02*
X69214476Y-137184570D01*
X69214476Y-137184570D02*
X69262095Y-137232189D01*
X69262095Y-137232189D02*
X69357333Y-137279808D01*
X68119238Y-136898856D02*
X68214476Y-136946475D01*
X68214476Y-136946475D02*
X68404952Y-136946475D01*
X68404952Y-136946475D02*
X68500190Y-136898856D01*
X68500190Y-136898856D02*
X68547809Y-136803617D01*
X68547809Y-136803617D02*
X68547809Y-136422665D01*
X68547809Y-136422665D02*
X68500190Y-136327427D01*
X68500190Y-136327427D02*
X68404952Y-136279808D01*
X68404952Y-136279808D02*
X68214476Y-136279808D01*
X68214476Y-136279808D02*
X68119238Y-136327427D01*
X68119238Y-136327427D02*
X68071619Y-136422665D01*
X68071619Y-136422665D02*
X68071619Y-136517903D01*
X68071619Y-136517903D02*
X68547809Y-136613141D01*
X67500190Y-136946475D02*
X67595428Y-136898856D01*
X67595428Y-136898856D02*
X67643047Y-136803617D01*
X67643047Y-136803617D02*
X67643047Y-135946475D01*
X66738285Y-136898856D02*
X66833523Y-136946475D01*
X66833523Y-136946475D02*
X67023999Y-136946475D01*
X67023999Y-136946475D02*
X67119237Y-136898856D01*
X67119237Y-136898856D02*
X67166856Y-136803617D01*
X67166856Y-136803617D02*
X67166856Y-136422665D01*
X67166856Y-136422665D02*
X67119237Y-136327427D01*
X67119237Y-136327427D02*
X67023999Y-136279808D01*
X67023999Y-136279808D02*
X66833523Y-136279808D01*
X66833523Y-136279808D02*
X66738285Y-136327427D01*
X66738285Y-136327427D02*
X66690666Y-136422665D01*
X66690666Y-136422665D02*
X66690666Y-136517903D01*
X66690666Y-136517903D02*
X67166856Y-136613141D01*
X65833523Y-136898856D02*
X65928761Y-136946475D01*
X65928761Y-136946475D02*
X66119237Y-136946475D01*
X66119237Y-136946475D02*
X66214475Y-136898856D01*
X66214475Y-136898856D02*
X66262094Y-136851236D01*
X66262094Y-136851236D02*
X66309713Y-136755998D01*
X66309713Y-136755998D02*
X66309713Y-136470284D01*
X66309713Y-136470284D02*
X66262094Y-136375046D01*
X66262094Y-136375046D02*
X66214475Y-136327427D01*
X66214475Y-136327427D02*
X66119237Y-136279808D01*
X66119237Y-136279808D02*
X65928761Y-136279808D01*
X65928761Y-136279808D02*
X65833523Y-136327427D01*
X65547808Y-136279808D02*
X65166856Y-136279808D01*
X65404951Y-135946475D02*
X65404951Y-136803617D01*
X65404951Y-136803617D02*
X65357332Y-136898856D01*
X65357332Y-136898856D02*
X65262094Y-136946475D01*
X65262094Y-136946475D02*
X65166856Y-136946475D01*
X64833522Y-136946475D02*
X64833522Y-136279808D01*
X64833522Y-136470284D02*
X64785903Y-136375046D01*
X64785903Y-136375046D02*
X64738284Y-136327427D01*
X64738284Y-136327427D02*
X64643046Y-136279808D01*
X64643046Y-136279808D02*
X64547808Y-136279808D01*
X64071617Y-136946475D02*
X64166855Y-136898856D01*
X64166855Y-136898856D02*
X64214474Y-136851236D01*
X64214474Y-136851236D02*
X64262093Y-136755998D01*
X64262093Y-136755998D02*
X64262093Y-136470284D01*
X64262093Y-136470284D02*
X64214474Y-136375046D01*
X64214474Y-136375046D02*
X64166855Y-136327427D01*
X64166855Y-136327427D02*
X64071617Y-136279808D01*
X64071617Y-136279808D02*
X63928760Y-136279808D01*
X63928760Y-136279808D02*
X63833522Y-136327427D01*
X63833522Y-136327427D02*
X63785903Y-136375046D01*
X63785903Y-136375046D02*
X63738284Y-136470284D01*
X63738284Y-136470284D02*
X63738284Y-136755998D01*
X63738284Y-136755998D02*
X63785903Y-136851236D01*
X63785903Y-136851236D02*
X63833522Y-136898856D01*
X63833522Y-136898856D02*
X63928760Y-136946475D01*
X63928760Y-136946475D02*
X64071617Y-136946475D01*
X63309712Y-136946475D02*
X63309712Y-136279808D01*
X63309712Y-136375046D02*
X63262093Y-136327427D01*
X63262093Y-136327427D02*
X63166855Y-136279808D01*
X63166855Y-136279808D02*
X63023998Y-136279808D01*
X63023998Y-136279808D02*
X62928760Y-136327427D01*
X62928760Y-136327427D02*
X62881141Y-136422665D01*
X62881141Y-136422665D02*
X62881141Y-136946475D01*
X62881141Y-136422665D02*
X62833522Y-136327427D01*
X62833522Y-136327427D02*
X62738284Y-136279808D01*
X62738284Y-136279808D02*
X62595427Y-136279808D01*
X62595427Y-136279808D02*
X62500188Y-136327427D01*
X62500188Y-136327427D02*
X62452569Y-136422665D01*
X62452569Y-136422665D02*
X62452569Y-136946475D01*
X61547808Y-136279808D02*
X61547808Y-136946475D01*
X61976379Y-136279808D02*
X61976379Y-136803617D01*
X61976379Y-136803617D02*
X61928760Y-136898856D01*
X61928760Y-136898856D02*
X61833522Y-136946475D01*
X61833522Y-136946475D02*
X61690665Y-136946475D01*
X61690665Y-136946475D02*
X61595427Y-136898856D01*
X61595427Y-136898856D02*
X61547808Y-136851236D01*
X61119236Y-136898856D02*
X61023998Y-136946475D01*
X61023998Y-136946475D02*
X60833522Y-136946475D01*
X60833522Y-136946475D02*
X60738284Y-136898856D01*
X60738284Y-136898856D02*
X60690665Y-136803617D01*
X60690665Y-136803617D02*
X60690665Y-136755998D01*
X60690665Y-136755998D02*
X60738284Y-136660760D01*
X60738284Y-136660760D02*
X60833522Y-136613141D01*
X60833522Y-136613141D02*
X60976379Y-136613141D01*
X60976379Y-136613141D02*
X61071617Y-136565522D01*
X61071617Y-136565522D02*
X61119236Y-136470284D01*
X61119236Y-136470284D02*
X61119236Y-136422665D01*
X61119236Y-136422665D02*
X61071617Y-136327427D01*
X61071617Y-136327427D02*
X60976379Y-136279808D01*
X60976379Y-136279808D02*
X60833522Y-136279808D01*
X60833522Y-136279808D02*
X60738284Y-136327427D01*
X60262093Y-136946475D02*
X60262093Y-136279808D01*
X60262093Y-135946475D02*
X60309712Y-135994094D01*
X60309712Y-135994094D02*
X60262093Y-136041713D01*
X60262093Y-136041713D02*
X60214474Y-135994094D01*
X60214474Y-135994094D02*
X60262093Y-135946475D01*
X60262093Y-135946475D02*
X60262093Y-136041713D01*
X59357332Y-136898856D02*
X59452570Y-136946475D01*
X59452570Y-136946475D02*
X59643046Y-136946475D01*
X59643046Y-136946475D02*
X59738284Y-136898856D01*
X59738284Y-136898856D02*
X59785903Y-136851236D01*
X59785903Y-136851236D02*
X59833522Y-136755998D01*
X59833522Y-136755998D02*
X59833522Y-136470284D01*
X59833522Y-136470284D02*
X59785903Y-136375046D01*
X59785903Y-136375046D02*
X59738284Y-136327427D01*
X59738284Y-136327427D02*
X59643046Y-136279808D01*
X59643046Y-136279808D02*
X59452570Y-136279808D01*
X59452570Y-136279808D02*
X59357332Y-136327427D01*
X68738285Y-137889752D02*
X68500190Y-138556419D01*
X68500190Y-138556419D02*
X68262095Y-137889752D01*
X67690666Y-137556419D02*
X67595428Y-137556419D01*
X67595428Y-137556419D02*
X67500190Y-137604038D01*
X67500190Y-137604038D02*
X67452571Y-137651657D01*
X67452571Y-137651657D02*
X67404952Y-137746895D01*
X67404952Y-137746895D02*
X67357333Y-137937371D01*
X67357333Y-137937371D02*
X67357333Y-138175466D01*
X67357333Y-138175466D02*
X67404952Y-138365942D01*
X67404952Y-138365942D02*
X67452571Y-138461180D01*
X67452571Y-138461180D02*
X67500190Y-138508800D01*
X67500190Y-138508800D02*
X67595428Y-138556419D01*
X67595428Y-138556419D02*
X67690666Y-138556419D01*
X67690666Y-138556419D02*
X67785904Y-138508800D01*
X67785904Y-138508800D02*
X67833523Y-138461180D01*
X67833523Y-138461180D02*
X67881142Y-138365942D01*
X67881142Y-138365942D02*
X67928761Y-138175466D01*
X67928761Y-138175466D02*
X67928761Y-137937371D01*
X67928761Y-137937371D02*
X67881142Y-137746895D01*
X67881142Y-137746895D02*
X67833523Y-137651657D01*
X67833523Y-137651657D02*
X67785904Y-137604038D01*
X67785904Y-137604038D02*
X67690666Y-137556419D01*
X66928761Y-138461180D02*
X66881142Y-138508800D01*
X66881142Y-138508800D02*
X66928761Y-138556419D01*
X66928761Y-138556419D02*
X66976380Y-138508800D01*
X66976380Y-138508800D02*
X66928761Y-138461180D01*
X66928761Y-138461180D02*
X66928761Y-138556419D01*
X65928762Y-138556419D02*
X66500190Y-138556419D01*
X66214476Y-138556419D02*
X66214476Y-137556419D01*
X66214476Y-137556419D02*
X66309714Y-137699276D01*
X66309714Y-137699276D02*
X66404952Y-137794514D01*
X66404952Y-137794514D02*
X66500190Y-137842133D01*
X64785904Y-137651657D02*
X64738285Y-137604038D01*
X64738285Y-137604038D02*
X64643047Y-137556419D01*
X64643047Y-137556419D02*
X64404952Y-137556419D01*
X64404952Y-137556419D02*
X64309714Y-137604038D01*
X64309714Y-137604038D02*
X64262095Y-137651657D01*
X64262095Y-137651657D02*
X64214476Y-137746895D01*
X64214476Y-137746895D02*
X64214476Y-137842133D01*
X64214476Y-137842133D02*
X64262095Y-137984990D01*
X64262095Y-137984990D02*
X64833523Y-138556419D01*
X64833523Y-138556419D02*
X64214476Y-138556419D01*
X63595428Y-137556419D02*
X63500190Y-137556419D01*
X63500190Y-137556419D02*
X63404952Y-137604038D01*
X63404952Y-137604038D02*
X63357333Y-137651657D01*
X63357333Y-137651657D02*
X63309714Y-137746895D01*
X63309714Y-137746895D02*
X63262095Y-137937371D01*
X63262095Y-137937371D02*
X63262095Y-138175466D01*
X63262095Y-138175466D02*
X63309714Y-138365942D01*
X63309714Y-138365942D02*
X63357333Y-138461180D01*
X63357333Y-138461180D02*
X63404952Y-138508800D01*
X63404952Y-138508800D02*
X63500190Y-138556419D01*
X63500190Y-138556419D02*
X63595428Y-138556419D01*
X63595428Y-138556419D02*
X63690666Y-138508800D01*
X63690666Y-138508800D02*
X63738285Y-138461180D01*
X63738285Y-138461180D02*
X63785904Y-138365942D01*
X63785904Y-138365942D02*
X63833523Y-138175466D01*
X63833523Y-138175466D02*
X63833523Y-137937371D01*
X63833523Y-137937371D02*
X63785904Y-137746895D01*
X63785904Y-137746895D02*
X63738285Y-137651657D01*
X63738285Y-137651657D02*
X63690666Y-137604038D01*
X63690666Y-137604038D02*
X63595428Y-137556419D01*
X62881142Y-137651657D02*
X62833523Y-137604038D01*
X62833523Y-137604038D02*
X62738285Y-137556419D01*
X62738285Y-137556419D02*
X62500190Y-137556419D01*
X62500190Y-137556419D02*
X62404952Y-137604038D01*
X62404952Y-137604038D02*
X62357333Y-137651657D01*
X62357333Y-137651657D02*
X62309714Y-137746895D01*
X62309714Y-137746895D02*
X62309714Y-137842133D01*
X62309714Y-137842133D02*
X62357333Y-137984990D01*
X62357333Y-137984990D02*
X62928761Y-138556419D01*
X62928761Y-138556419D02*
X62309714Y-138556419D01*
X61452571Y-137889752D02*
X61452571Y-138556419D01*
X61690666Y-137508800D02*
X61928761Y-138223085D01*
X61928761Y-138223085D02*
X61309714Y-138223085D01*
D11*
%TO.C,J14*%
X63800000Y-61270000D02*
X66460000Y-61270000D01*
X63800000Y-94350000D02*
X63800000Y-61270000D01*
X63800000Y-94350000D02*
X66460000Y-94350000D01*
X65130000Y-58670000D02*
X66460000Y-58670000D01*
X66460000Y-58670000D02*
X66460000Y-60000000D01*
X66460000Y-94350000D02*
X66460000Y-61270000D01*
%TO.C,J4*%
X56180000Y-61270000D02*
X58840000Y-61270000D01*
X56180000Y-94350000D02*
X56180000Y-61270000D01*
X56180000Y-94350000D02*
X58840000Y-94350000D01*
X57510000Y-58670000D02*
X58840000Y-58670000D01*
X58840000Y-58670000D02*
X58840000Y-60000000D01*
X58840000Y-94350000D02*
X58840000Y-61270000D01*
%TD*%
M02*
