%TF.GenerationSoftware,KiCad,Pcbnew,8.0.5*%
%TF.CreationDate,2024-12-18T11:45:47+00:00*%
%TF.ProjectId,EuroRackPotsJacks,4575726f-5261-4636-9b50-6f74734a6163,rev?*%
%TF.SameCoordinates,Original*%
%TF.FileFunction,Copper,L1,Top*%
%TF.FilePolarity,Positive*%
%FSLAX46Y46*%
G04 Gerber Fmt 4.6, Leading zero omitted, Abs format (unit mm)*
G04 Created by KiCad (PCBNEW 8.0.5) date 2024-12-18 11:45:47*
%MOMM*%
%LPD*%
G01*
G04 APERTURE LIST*
G04 Aperture macros list*
%AMRoundRect*
0 Rectangle with rounded corners*
0 $1 Rounding radius*
0 $2 $3 $4 $5 $6 $7 $8 $9 X,Y pos of 4 corners*
0 Add a 4 corners polygon primitive as box body*
4,1,4,$2,$3,$4,$5,$6,$7,$8,$9,$2,$3,0*
0 Add four circle primitives for the rounded corners*
1,1,$1+$1,$2,$3*
1,1,$1+$1,$4,$5*
1,1,$1+$1,$6,$7*
1,1,$1+$1,$8,$9*
0 Add four rect primitives between the rounded corners*
20,1,$1+$1,$2,$3,$4,$5,0*
20,1,$1+$1,$4,$5,$6,$7,0*
20,1,$1+$1,$6,$7,$8,$9,0*
20,1,$1+$1,$8,$9,$2,$3,0*%
G04 Aperture macros list end*
%TA.AperFunction,ComponentPad*%
%ADD10O,1.700000X1.700000*%
%TD*%
%TA.AperFunction,ComponentPad*%
%ADD11R,1.700000X1.700000*%
%TD*%
%TA.AperFunction,ComponentPad*%
%ADD12R,1.930000X1.830000*%
%TD*%
%TA.AperFunction,ComponentPad*%
%ADD13C,2.130000*%
%TD*%
%TA.AperFunction,ComponentPad*%
%ADD14R,1.800000X1.800000*%
%TD*%
%TA.AperFunction,ComponentPad*%
%ADD15C,1.800000*%
%TD*%
%TA.AperFunction,ComponentPad*%
%ADD16RoundRect,0.750000X0.750000X-1.250000X0.750000X1.250000X-0.750000X1.250000X-0.750000X-1.250000X0*%
%TD*%
%TA.AperFunction,ViaPad*%
%ADD17C,0.600000*%
%TD*%
%TA.AperFunction,Conductor*%
%ADD18C,0.250000*%
%TD*%
%TA.AperFunction,Conductor*%
%ADD19C,0.600000*%
%TD*%
G04 APERTURE END LIST*
D10*
%TO.P,J15,1,Pin_1*%
%TO.N,Net-(J15-Pin_1)*%
X65000000Y-136000000D03*
%TO.P,J15,2,Pin_2*%
%TO.N,Net-(J15-Pin_2)*%
X65000000Y-133460000D03*
%TO.P,J15,3,Pin_3*%
%TO.N,Net-(J15-Pin_3)*%
X65000000Y-130920000D03*
%TO.P,J15,4,Pin_4*%
%TO.N,Net-(J15-Pin_4)*%
X65000000Y-128380000D03*
%TO.P,J15,5,Pin_5*%
%TO.N,Net-(J15-Pin_5)*%
X65000000Y-125840000D03*
%TO.P,J15,6,Pin_6*%
%TO.N,Net-(J15-Pin_6)*%
X65000000Y-123300000D03*
%TO.P,J15,7,Pin_7*%
%TO.N,Net-(J15-Pin_7)*%
X65000000Y-120760000D03*
%TO.P,J15,8,Pin_8*%
%TO.N,Net-(J15-Pin_8)*%
X65000000Y-118220000D03*
%TD*%
%TO.P,J22,1,Pin_1*%
%TO.N,Net-(J22-Pin_1)*%
X66270000Y-139800000D03*
%TO.P,J22,2,Pin_2*%
%TO.N,Net-(J22-Pin_2)*%
X63730000Y-139800000D03*
%TD*%
%TO.P,J19,1,Pin_1*%
%TO.N,Net-(J19-Pin_1)*%
X78300000Y-95000000D03*
%TO.P,J19,2,Pin_2*%
%TO.N,Net-(J19-Pin_2)*%
X78300000Y-97540000D03*
%TO.P,J19,3,Pin_3*%
%TO.N,Net-(J19-Pin_3)*%
X78300000Y-100080000D03*
%TO.P,J19,4,Pin_4*%
%TO.N,Net-(J19-Pin_4)*%
X78300000Y-102620000D03*
%TD*%
%TO.P,J1,1,Pin_1*%
%TO.N,/RV1*%
X55880000Y-61976000D03*
%TO.P,J1,2,Pin_2*%
%TO.N,/RV2*%
X55880000Y-64516000D03*
%TO.P,J1,3,Pin_3*%
%TO.N,/RV3*%
X55880000Y-67056000D03*
%TO.P,J1,4,Pin_4*%
%TO.N,/RV4*%
X55880000Y-69596000D03*
%TD*%
%TO.P,J10,1,Pin_1*%
%TO.N,Net-(J10-Pin_1)*%
X73914000Y-75438000D03*
%TO.P,J10,2,Pin_2*%
%TO.N,Net-(J10-Pin_2)*%
X73914000Y-72898000D03*
%TO.P,J10,3,Pin_3*%
%TO.N,Net-(J10-Pin_3)*%
X73914000Y-70358000D03*
%TO.P,J10,4,Pin_4*%
%TO.N,Net-(J10-Pin_4)*%
X73914000Y-67818000D03*
%TO.P,J10,5,Pin_5*%
%TO.N,Net-(J10-Pin_5)*%
X73914000Y-65278000D03*
%TO.P,J10,6,Pin_6*%
%TO.N,Net-(J10-Pin_6)*%
X73914000Y-62738000D03*
%TO.P,J10,7,Pin_7*%
%TO.N,Net-(J10-Pin_7)*%
X73914000Y-60198000D03*
%TO.P,J10,8,Pin_8*%
%TO.N,Net-(J10-Pin_8)*%
X73914000Y-57658000D03*
%TD*%
%TO.P,J20,1,Pin_1*%
%TO.N,Net-(J20-Pin_1)*%
X78300000Y-61219000D03*
%TO.P,J20,2,Pin_2*%
%TO.N,Net-(J20-Pin_2)*%
X78300000Y-58679000D03*
%TD*%
D11*
%TO.P,J2,1,Pin_1*%
%TO.N,VCC*%
X53500000Y-52365000D03*
D10*
%TO.P,J2,2,Pin_2*%
%TO.N,GND*%
X56040000Y-52365000D03*
%TD*%
D12*
%TO.P,J14,S*%
%TO.N,GND*%
X72700000Y-133000000D03*
D13*
%TO.P,J14,T*%
%TO.N,Net-(J15-Pin_4)*%
X72700000Y-121600000D03*
%TO.P,J14,TN*%
%TO.N,Net-(J15-Pin_3)*%
X72700000Y-129900000D03*
%TD*%
D11*
%TO.P,J3,1,Pin_1*%
%TO.N,VCC*%
X55000000Y-84000000D03*
D10*
%TO.P,J3,2,Pin_2*%
%TO.N,GND*%
X55000000Y-86540000D03*
%TD*%
D14*
%TO.P,RV3,1,1*%
%TO.N,GND*%
X62500000Y-97500000D03*
D15*
%TO.P,RV3,2,2*%
%TO.N,/RV3*%
X65000000Y-97500000D03*
%TO.P,RV3,3,3*%
%TO.N,VCC*%
X67500000Y-97500000D03*
D16*
%TO.P,RV3,MP*%
%TO.N,N/C*%
X60600000Y-90500000D03*
X69400000Y-90500000D03*
%TD*%
D14*
%TO.P,RV1,1,1*%
%TO.N,GND*%
X62500000Y-63500000D03*
D15*
%TO.P,RV1,2,2*%
%TO.N,/RV1*%
X65000000Y-63500000D03*
%TO.P,RV1,3,3*%
%TO.N,VCC*%
X67500000Y-63500000D03*
D16*
%TO.P,RV1,MP*%
%TO.N,N/C*%
X60600000Y-56500000D03*
X69400000Y-56500000D03*
%TD*%
D11*
%TO.P,J4,1,Pin_1*%
%TO.N,Net-(J22-Pin_1)*%
X66270000Y-148000000D03*
D10*
%TO.P,J4,2,Pin_2*%
%TO.N,Net-(J22-Pin_2)*%
X63730000Y-148000000D03*
%TD*%
D12*
%TO.P,J16,S*%
%TO.N,GND*%
X72700000Y-118000000D03*
D13*
%TO.P,J16,T*%
%TO.N,Net-(J15-Pin_6)*%
X72700000Y-106600000D03*
%TO.P,J16,TN*%
%TO.N,Net-(J15-Pin_5)*%
X72700000Y-114900000D03*
%TD*%
D11*
%TO.P,J6,1,Pin_1*%
%TO.N,Net-(J20-Pin_1)*%
X78300000Y-52365000D03*
D10*
%TO.P,J6,2,Pin_2*%
%TO.N,Net-(J20-Pin_2)*%
X78300000Y-54905000D03*
%TD*%
D12*
%TO.P,J17,S*%
%TO.N,GND*%
X72700000Y-103000000D03*
D13*
%TO.P,J17,T*%
%TO.N,Net-(J15-Pin_8)*%
X72700000Y-91600000D03*
%TO.P,J17,TN*%
%TO.N,Net-(J15-Pin_7)*%
X72700000Y-99900000D03*
%TD*%
D12*
%TO.P,J13,S*%
%TO.N,GND*%
X72700000Y-148000000D03*
D13*
%TO.P,J13,T*%
%TO.N,Net-(J15-Pin_2)*%
X72700000Y-136600000D03*
%TO.P,J13,TN*%
%TO.N,Net-(J15-Pin_1)*%
X72700000Y-144900000D03*
%TD*%
D11*
%TO.P,J7,1,Pin_1*%
%TO.N,Net-(J19-Pin_1)*%
X78300000Y-114040000D03*
D10*
%TO.P,J7,2,Pin_2*%
%TO.N,Net-(J19-Pin_2)*%
X78300000Y-111500000D03*
%TO.P,J7,3,Pin_3*%
%TO.N,Net-(J19-Pin_3)*%
X78300000Y-108960000D03*
%TO.P,J7,4,Pin_4*%
%TO.N,Net-(J19-Pin_4)*%
X78300000Y-106420000D03*
%TD*%
D14*
%TO.P,RV2,1,1*%
%TO.N,GND*%
X62500000Y-80500000D03*
D15*
%TO.P,RV2,2,2*%
%TO.N,/RV2*%
X65000000Y-80500000D03*
%TO.P,RV2,3,3*%
%TO.N,VCC*%
X67500000Y-80500000D03*
D16*
%TO.P,RV2,MP*%
%TO.N,N/C*%
X60600000Y-73500000D03*
X69400000Y-73500000D03*
%TD*%
D14*
%TO.P,RV4,1,1*%
%TO.N,GND*%
X62500000Y-114500000D03*
D15*
%TO.P,RV4,2,2*%
%TO.N,/RV4*%
X65000000Y-114500000D03*
%TO.P,RV4,3,3*%
%TO.N,VCC*%
X67500000Y-114500000D03*
D16*
%TO.P,RV4,MP*%
%TO.N,N/C*%
X60600000Y-107500000D03*
X69400000Y-107500000D03*
%TD*%
D12*
%TO.P,J11,S*%
%TO.N,GND*%
X57300000Y-118000000D03*
D13*
%TO.P,J11,T*%
%TO.N,Net-(J10-Pin_6)*%
X57300000Y-106600000D03*
%TO.P,J11,TN*%
%TO.N,Net-(J10-Pin_5)*%
X57300000Y-114900000D03*
%TD*%
D11*
%TO.P,J5,1,Pin_1*%
%TO.N,Net-(J21-Pin_1)*%
X78300000Y-80760000D03*
D10*
%TO.P,J5,2,Pin_2*%
%TO.N,Net-(J21-Pin_2)*%
X78300000Y-78220000D03*
%TD*%
D12*
%TO.P,J12,S*%
%TO.N,GND*%
X57300000Y-103000000D03*
D13*
%TO.P,J12,T*%
%TO.N,Net-(J10-Pin_8)*%
X57300000Y-91600000D03*
%TO.P,J12,TN*%
%TO.N,Net-(J10-Pin_7)*%
X57300000Y-99900000D03*
%TD*%
D12*
%TO.P,J8,S*%
%TO.N,GND*%
X57300000Y-148000000D03*
D13*
%TO.P,J8,T*%
%TO.N,Net-(J10-Pin_2)*%
X57300000Y-136600000D03*
%TO.P,J8,TN*%
%TO.N,Net-(J10-Pin_1)*%
X57300000Y-144900000D03*
%TD*%
D12*
%TO.P,J9,S*%
%TO.N,GND*%
X57300000Y-133000000D03*
D13*
%TO.P,J9,T*%
%TO.N,Net-(J10-Pin_4)*%
X57300000Y-121600000D03*
%TO.P,J9,TN*%
%TO.N,Net-(J10-Pin_3)*%
X57300000Y-129900000D03*
%TD*%
D10*
%TO.P,J21,1,Pin_1*%
%TO.N,Net-(J21-Pin_1)*%
X78300000Y-71877000D03*
%TO.P,J21,2,Pin_2*%
%TO.N,Net-(J21-Pin_2)*%
X78300000Y-74417000D03*
%TD*%
D17*
%TO.N,Net-(J10-Pin_4)*%
X74422000Y-80772000D03*
%TO.N,Net-(J10-Pin_2)*%
X75438000Y-78232000D03*
%TO.N,Net-(J10-Pin_3)*%
X74930000Y-79502000D03*
%TD*%
D18*
%TO.N,Net-(J10-Pin_4)*%
X75104000Y-83138000D02*
X75104000Y-81454000D01*
X75057000Y-83185000D02*
X75104000Y-83138000D01*
X75104000Y-81454000D02*
X74422000Y-80772000D01*
X75104000Y-83232000D02*
X75057000Y-83185000D01*
%TO.N,Net-(J10-Pin_3)*%
X75554000Y-80126000D02*
X74930000Y-79502000D01*
%TO.N,Net-(J10-Pin_1)*%
X76454000Y-144272000D02*
X76454000Y-77978000D01*
X58831000Y-146431000D02*
X74295000Y-146431000D01*
X74295000Y-146431000D02*
X76454000Y-144272000D01*
X57300000Y-144900000D02*
X58831000Y-146431000D01*
X76454000Y-77978000D02*
X73914000Y-75438000D01*
%TO.N,Net-(J10-Pin_2)*%
X76004000Y-78798000D02*
X75438000Y-78232000D01*
X76004000Y-82550000D02*
X76004000Y-78798000D01*
X76004000Y-136594000D02*
X76004000Y-82550000D01*
%TO.N,Net-(J10-Pin_3)*%
X75554000Y-81280000D02*
X75554000Y-80126000D01*
X75554000Y-129540000D02*
X75554000Y-81280000D01*
%TO.N,Net-(J10-Pin_4)*%
X63839665Y-129645802D02*
X65637802Y-129645802D01*
X57300000Y-123106137D02*
X63839665Y-129645802D01*
X65637802Y-129645802D02*
X71458604Y-123825000D01*
X71458604Y-123825000D02*
X73279000Y-123825000D01*
X57300000Y-121600000D02*
X57300000Y-123106137D01*
X73279000Y-123825000D02*
X75104000Y-122000000D01*
X75104000Y-122000000D02*
X75104000Y-83232000D01*
%TO.N,Net-(J21-Pin_1)*%
X77125000Y-79585000D02*
X78300000Y-80760000D01*
X77125000Y-73052000D02*
X77125000Y-79585000D01*
X78300000Y-71877000D02*
X77125000Y-73052000D01*
%TO.N,Net-(J21-Pin_2)*%
X78300000Y-74417000D02*
X78300000Y-78220000D01*
%TO.N,Net-(J10-Pin_2)*%
X71560000Y-138684000D02*
X73914000Y-138684000D01*
X67701000Y-134825000D02*
X71560000Y-138684000D01*
X59075000Y-134825000D02*
X67701000Y-134825000D01*
X73914000Y-138684000D02*
X76004000Y-136594000D01*
X57300000Y-136600000D02*
X59075000Y-134825000D01*
%TO.N,Net-(J10-Pin_3)*%
X73776000Y-131318000D02*
X75554000Y-129540000D01*
X71120000Y-131318000D02*
X73776000Y-131318000D01*
X59685000Y-132285000D02*
X70153000Y-132285000D01*
X57300000Y-129900000D02*
X59685000Y-132285000D01*
X70153000Y-132285000D02*
X71120000Y-131318000D01*
%TO.N,Net-(J10-Pin_5)*%
X72575000Y-79194188D02*
X71185594Y-80583594D01*
X72575000Y-66617000D02*
X72575000Y-79194188D01*
X73914000Y-65278000D02*
X72575000Y-66617000D01*
X71185594Y-80583594D02*
X66725000Y-85044188D01*
%TO.N,Net-(J10-Pin_6)*%
X72125000Y-79007792D02*
X71375396Y-79757396D01*
X73914000Y-62738000D02*
X72125000Y-64527000D01*
X72125000Y-64527000D02*
X72125000Y-79007792D01*
X66275000Y-84857792D02*
X71375396Y-79757396D01*
%TO.N,Net-(J10-Pin_7)*%
X71675000Y-78821396D02*
X71311198Y-79185198D01*
X71675000Y-62437000D02*
X71675000Y-78821396D01*
X71311198Y-79185198D02*
X63056198Y-87440198D01*
X73914000Y-60198000D02*
X71675000Y-62437000D01*
%TO.N,Net-(J10-Pin_8)*%
X71225000Y-78635000D02*
X71225000Y-60347000D01*
X71225000Y-60347000D02*
X73914000Y-57658000D01*
X70866000Y-78994000D02*
X71225000Y-78635000D01*
X70866000Y-78994000D02*
X62611000Y-87249000D01*
%TO.N,Net-(J20-Pin_1)*%
X77125000Y-60044000D02*
X78300000Y-61219000D01*
X77125000Y-53540000D02*
X77125000Y-60044000D01*
X78300000Y-52365000D02*
X77125000Y-53540000D01*
%TO.N,Net-(J20-Pin_2)*%
X78300000Y-54905000D02*
X78300000Y-58679000D01*
%TO.N,Net-(J19-Pin_3)*%
X77125000Y-107785000D02*
X78300000Y-108960000D01*
X77125000Y-101255000D02*
X77125000Y-107785000D01*
X78300000Y-100080000D02*
X77125000Y-101255000D01*
%TO.N,Net-(J19-Pin_4)*%
X78300000Y-102684000D02*
X78232000Y-102616000D01*
X78300000Y-106420000D02*
X78300000Y-102684000D01*
D19*
%TO.N,VCC*%
X64731000Y-60731000D02*
X64731000Y-55040000D01*
X67500000Y-63500000D02*
X64731000Y-60731000D01*
X64731000Y-55040000D02*
X60706000Y-51015000D01*
X54850000Y-51015000D02*
X53500000Y-52365000D01*
X53500000Y-82500000D02*
X55000000Y-84000000D01*
X53500000Y-52365000D02*
X53500000Y-82500000D01*
X60706000Y-51015000D02*
X54850000Y-51015000D01*
D18*
%TO.N,/RV1*%
X55880000Y-61976000D02*
X63476000Y-61976000D01*
X63476000Y-61976000D02*
X65000000Y-63500000D01*
%TO.N,/RV2*%
X55880000Y-64516000D02*
X65000000Y-73636000D01*
X65000000Y-73636000D02*
X65000000Y-80500000D01*
%TO.N,/RV3*%
X61210000Y-101290000D02*
X65000000Y-97500000D01*
X57676282Y-88248114D02*
X55626000Y-90298396D01*
X57676282Y-68852282D02*
X57676282Y-88248114D01*
X55880000Y-67056000D02*
X57676282Y-68852282D01*
X56586000Y-101290000D02*
X61210000Y-101290000D01*
X55626000Y-100330000D02*
X56586000Y-101290000D01*
X55626000Y-90298396D02*
X55626000Y-100330000D01*
%TO.N,/RV4*%
X55118000Y-114728000D02*
X56680000Y-116290000D01*
X63210000Y-116290000D02*
X65000000Y-114500000D01*
X55880000Y-69596000D02*
X57226282Y-70942282D01*
X55118000Y-90170000D02*
X55118000Y-114728000D01*
X56680000Y-116290000D02*
X63210000Y-116290000D01*
X57226282Y-88061718D02*
X55118000Y-90170000D01*
X57226282Y-70942282D02*
X57226282Y-88061718D01*
%TO.N,Net-(J15-Pin_1)*%
X65000000Y-136000000D02*
X65000000Y-140880000D01*
X69020000Y-144900000D02*
X72700000Y-144900000D01*
X65000000Y-140880000D02*
X69020000Y-144900000D01*
%TO.N,Net-(J15-Pin_2)*%
X69560000Y-133460000D02*
X72700000Y-136600000D01*
X65000000Y-133460000D02*
X69560000Y-133460000D01*
%TO.N,Net-(J15-Pin_3)*%
X72700000Y-129900000D02*
X66020000Y-129900000D01*
X66020000Y-129900000D02*
X65000000Y-130920000D01*
%TO.N,Net-(J15-Pin_4)*%
X71780000Y-121600000D02*
X72700000Y-121600000D01*
X65000000Y-128380000D02*
X71780000Y-121600000D01*
X72700000Y-121680000D02*
X72700000Y-121600000D01*
%TO.N,Net-(J15-Pin_8)*%
X65000000Y-118220000D02*
X66000000Y-118220000D01*
X70358000Y-99833000D02*
X66548000Y-103643000D01*
X70358000Y-93942000D02*
X70358000Y-99833000D01*
X66548000Y-103643000D02*
X66548000Y-109808000D01*
X72700000Y-91600000D02*
X70358000Y-93942000D01*
X66548000Y-109808000D02*
X69008000Y-112268000D01*
X66000000Y-118220000D02*
X69008000Y-115212000D01*
X69008000Y-112268000D02*
X69008000Y-115212000D01*
%TO.N,Net-(J15-Pin_5)*%
X70358000Y-120482000D02*
X70358000Y-119888000D01*
X65000000Y-125840000D02*
X70358000Y-120482000D01*
X70358000Y-117242000D02*
X72700000Y-114900000D01*
X70358000Y-119888000D02*
X70358000Y-117242000D01*
%TO.N,Net-(J15-Pin_7)*%
X67056000Y-109679604D02*
X69458000Y-112081604D01*
X72700000Y-99900000D02*
X67056000Y-105544000D01*
X69458000Y-116302000D02*
X69458000Y-115062000D01*
X65000000Y-120760000D02*
X69458000Y-116302000D01*
X69458000Y-112081604D02*
X69458000Y-115062000D01*
X67056000Y-105544000D02*
X67056000Y-109679604D01*
%TO.N,Net-(J15-Pin_6)*%
X69908000Y-117094000D02*
X69908000Y-111194000D01*
X65000000Y-123300000D02*
X69908000Y-118392000D01*
X69908000Y-111194000D02*
X72700000Y-108402000D01*
X72700000Y-108402000D02*
X72700000Y-106600000D01*
X69908000Y-118392000D02*
X69908000Y-117094000D01*
%TO.N,Net-(J10-Pin_8)*%
X57300000Y-90274000D02*
X57300000Y-91600000D01*
X60325000Y-87249000D02*
X57300000Y-90274000D01*
X62611000Y-87249000D02*
X60325000Y-87249000D01*
%TO.N,Net-(J10-Pin_5)*%
X69908000Y-96655000D02*
X67906500Y-94653500D01*
X64457302Y-107742698D02*
X64457302Y-105097302D01*
X64457302Y-105097302D02*
X69908000Y-99646604D01*
X69908000Y-99646604D02*
X69908000Y-96655000D01*
X66725000Y-85044188D02*
X66725000Y-93472000D01*
X66725000Y-93472000D02*
X67906500Y-94653500D01*
X57300000Y-114900000D02*
X64457302Y-107742698D01*
%TO.N,Net-(J10-Pin_7)*%
X63056198Y-94143802D02*
X57300000Y-99900000D01*
X63056198Y-87440198D02*
X63056198Y-94143802D01*
%TO.N,Net-(J10-Pin_6)*%
X64139104Y-104779104D02*
X69342000Y-99576208D01*
X69342000Y-96774000D02*
X66275000Y-93707000D01*
X59120896Y-104779104D02*
X64139104Y-104779104D01*
X66275000Y-93707000D02*
X66275000Y-84857792D01*
X57300000Y-106600000D02*
X59120896Y-104779104D01*
X69342000Y-99576208D02*
X69342000Y-96774000D01*
%TD*%
M02*
