M48
; DRILL file {KiCad 8.0.5} date 2024-11-21T14:34:25+0000
; FORMAT={-:-/ absolute / inch / decimal}
; #@! TF.CreationDate,2024-11-21T14:34:25+00:00
; #@! TF.GenerationSoftware,Kicad,Pcbnew,8.0.5
; #@! TF.FileFunction,MixedPlating,1,2
FMAT,2
INCH
; #@! TA.AperFunction,Plated,PTH,ViaDrill
T1C0.0118
; #@! TA.AperFunction,Plated,PTH,ComponentDrill
T2C0.0315
; #@! TA.AperFunction,Plated,PTH,ComponentDrill
T3C0.0394
; #@! TA.AperFunction,Plated,PTH,ComponentDrill
T4C0.0433
; #@! TA.AperFunction,NonPlated,NPTH,ComponentDrill
T5C0.0866
; #@! TA.AperFunction,NonPlated,NPTH,ComponentDrill
T6C0.1378
%
G90
G05
T1
X0.7031Y-5.7626
X0.7106Y-5.1555
X0.8012Y-4.4382
X0.8016Y-2.0587
X0.97Y-5.15
X1.0264Y-4.3138
X1.15Y-2.22
X1.202Y-2.0598
X1.2449Y-2.4535
X1.2866Y-4.09
X1.2866Y-4.12
X1.2866Y-4.15
X1.2984Y-5.1512
X1.6295Y-5.1476
X1.6327Y-5.7732
T2
X0.8453Y-4.7858
X0.9437Y-4.7858
X1.0535Y-2.1642
X1.0535Y-2.2642
X1.0535Y-2.3642
X1.0535Y-2.4642
X1.0535Y-2.5642
X1.0535Y-2.6642
X1.0535Y-2.7642
X1.0535Y-2.8642
X1.0535Y-2.9642
X1.0535Y-3.0642
X1.0535Y-3.1642
X1.0535Y-3.2642
X1.0535Y-3.3642
X1.0535Y-3.4642
X1.0535Y-3.5642
X1.1209Y-4.7858
X1.1413Y-3.9969
X1.1413Y-4.1937
X1.2193Y-4.7858
X1.3283Y-5.0
X1.6283Y-5.0
X1.6535Y-2.1642
X1.6535Y-2.2642
X1.6535Y-2.3642
X1.6535Y-2.4642
X1.6535Y-2.5642
X1.6535Y-2.6642
X1.6535Y-2.7642
X1.6535Y-2.8642
X1.6535Y-2.9642
X1.6535Y-3.0642
X1.6535Y-3.1642
X1.6535Y-3.2642
X1.6535Y-3.3642
X1.6535Y-3.4642
X1.6535Y-3.5642
T3
X0.6862Y-2.0642
X0.6862Y-2.1642
X0.6862Y-2.2642
X0.6862Y-2.3642
X0.6862Y-2.4642
X0.6862Y-2.5642
X0.6862Y-2.6642
X0.6862Y-2.7642
X0.6862Y-2.8642
X0.6862Y-2.9642
X0.6862Y-3.0642
X0.6862Y-3.1642
X0.6862Y-3.2642
X0.6862Y-3.3642
X0.6862Y-3.4642
X0.6862Y-3.5642
X0.6862Y-3.6642
X0.6862Y-3.7642
X0.6862Y-3.8642
X0.6862Y-3.9642
X0.6862Y-4.1339
X0.6862Y-4.2339
X0.6862Y-4.3339
X0.8311Y-5.2795
X0.8311Y-5.3795
X0.8862Y-2.3622
X0.8862Y-2.4622
X0.8862Y-2.5622
X0.8862Y-2.6622
X0.8862Y-2.7622
X0.8862Y-2.8622
X0.8862Y-2.9622
X0.8862Y-3.0622
X0.8862Y-3.1622
X0.8862Y-3.2622
X0.8862Y-3.3622
X0.8862Y-3.4622
X0.8862Y-3.5622
X0.8862Y-3.6622
X0.9311Y-5.2795
X0.9311Y-5.3795
X1.0311Y-5.2795
X1.0311Y-5.3795
X1.1311Y-5.2795
X1.1311Y-5.3795
X1.1862Y-2.3622
X1.1862Y-2.4622
X1.1862Y-2.5622
X1.1862Y-2.6622
X1.1862Y-2.7622
X1.1862Y-2.8622
X1.1862Y-2.9622
X1.1862Y-3.0622
X1.1862Y-3.1622
X1.1862Y-3.2622
X1.1862Y-3.3622
X1.1862Y-3.4622
X1.1862Y-3.5622
X1.1862Y-3.6622
X1.2311Y-5.2795
X1.2311Y-5.3795
X1.3311Y-5.2795
X1.3311Y-5.3795
X1.3862Y-2.0642
X1.3862Y-2.1642
X1.3862Y-2.2642
X1.3862Y-2.3642
X1.3862Y-2.4642
X1.3862Y-2.5642
X1.3862Y-2.6642
X1.3862Y-2.7642
X1.3862Y-2.8642
X1.3862Y-2.9642
X1.3862Y-3.0642
X1.3862Y-3.1642
X1.3862Y-3.2642
X1.3862Y-3.3642
X1.3862Y-3.4642
X1.3862Y-3.5642
X1.3862Y-3.6642
X1.3862Y-3.7642
X1.3862Y-3.8642
X1.3862Y-3.9642
X1.4311Y-5.2795
X1.4311Y-5.3795
X1.5311Y-5.2795
X1.5311Y-5.3795
T4
X0.7815Y-5.0016
X0.998Y-3.7953
X0.998Y-4.1953
X1.1815Y-5.0016
X1.4283Y-4.8256
X1.5283Y-4.8256
X1.6283Y-4.8256
T5
X1.1811Y-5.6772
X1.5157Y-2.0866
T6
X1.5283Y-4.1697
M30
