%TF.GenerationSoftware,KiCad,Pcbnew,8.0.5*%
%TF.CreationDate,2024-11-21T14:34:23+00:00*%
%TF.ProjectId,EuroRackControl-MCU,4575726f-5261-4636-9b43-6f6e74726f6c,rev?*%
%TF.SameCoordinates,Original*%
%TF.FileFunction,Copper,L2,Bot*%
%TF.FilePolarity,Positive*%
%FSLAX46Y46*%
G04 Gerber Fmt 4.6, Leading zero omitted, Abs format (unit mm)*
G04 Created by KiCad (PCBNEW 8.0.5) date 2024-11-21 14:34:23*
%MOMM*%
%LPD*%
G01*
G04 APERTURE LIST*
G04 Aperture macros list*
%AMRoundRect*
0 Rectangle with rounded corners*
0 $1 Rounding radius*
0 $2 $3 $4 $5 $6 $7 $8 $9 X,Y pos of 4 corners*
0 Add a 4 corners polygon primitive as box body*
4,1,4,$2,$3,$4,$5,$6,$7,$8,$9,$2,$3,0*
0 Add four circle primitives for the rounded corners*
1,1,$1+$1,$2,$3*
1,1,$1+$1,$4,$5*
1,1,$1+$1,$6,$7*
1,1,$1+$1,$8,$9*
0 Add four rect primitives between the rounded corners*
20,1,$1+$1,$2,$3,$4,$5,0*
20,1,$1+$1,$4,$5,$6,$7,0*
20,1,$1+$1,$6,$7,$8,$9,0*
20,1,$1+$1,$8,$9,$2,$3,0*%
G04 Aperture macros list end*
%TA.AperFunction,ComponentPad*%
%ADD10R,1.700000X1.700000*%
%TD*%
%TA.AperFunction,ComponentPad*%
%ADD11O,1.700000X1.700000*%
%TD*%
%TA.AperFunction,ComponentPad*%
%ADD12R,1.905000X2.000000*%
%TD*%
%TA.AperFunction,ComponentPad*%
%ADD13O,1.905000X2.000000*%
%TD*%
%TA.AperFunction,ComponentPad*%
%ADD14R,2.200000X2.200000*%
%TD*%
%TA.AperFunction,ComponentPad*%
%ADD15O,2.200000X2.200000*%
%TD*%
%TA.AperFunction,ComponentPad*%
%ADD16R,1.600000X1.600000*%
%TD*%
%TA.AperFunction,ComponentPad*%
%ADD17C,1.600000*%
%TD*%
%TA.AperFunction,ComponentPad*%
%ADD18O,1.600000X1.600000*%
%TD*%
%TA.AperFunction,ComponentPad*%
%ADD19RoundRect,0.250000X0.600000X-0.600000X0.600000X0.600000X-0.600000X0.600000X-0.600000X-0.600000X0*%
%TD*%
%TA.AperFunction,ComponentPad*%
%ADD20C,1.700000*%
%TD*%
%TA.AperFunction,ViaPad*%
%ADD21C,0.600000*%
%TD*%
%TA.AperFunction,Conductor*%
%ADD22C,0.800000*%
%TD*%
%TA.AperFunction,Conductor*%
%ADD23C,0.400000*%
%TD*%
G04 APERTURE END LIST*
D10*
%TO.P,J3,1,Pin_1*%
%TO.N,/IO22*%
X22510000Y-60000000D03*
D11*
%TO.P,J3,2,Pin_2*%
%TO.N,/ADC7*%
X22510000Y-62540000D03*
%TO.P,J3,3,Pin_3*%
%TO.N,/ADC6*%
X22510000Y-65080000D03*
%TO.P,J3,4,Pin_4*%
%TO.N,/ADC5*%
X22510000Y-67620000D03*
%TO.P,J3,5,Pin_5*%
%TO.N,/ADC4*%
X22510000Y-70160000D03*
%TO.P,J3,6,Pin_6*%
%TO.N,/ADC3*%
X22510000Y-72700000D03*
%TO.P,J3,7,Pin_7*%
%TO.N,/ADC2*%
X22510000Y-75240000D03*
%TO.P,J3,8,Pin_8*%
%TO.N,/ADC1*%
X22510000Y-77780000D03*
%TO.P,J3,9,Pin_9*%
%TO.N,/ADC0*%
X22510000Y-80320000D03*
%TO.P,J3,10,Pin_10*%
%TO.N,/IO16*%
X22510000Y-82860000D03*
%TO.P,J3,11,Pin_11*%
%TO.N,/IO13*%
X22510000Y-85400000D03*
%TO.P,J3,12,Pin_12*%
%TO.N,/IO12*%
X22510000Y-87940000D03*
%TO.P,J3,13,Pin_13*%
%TO.N,VCC*%
X22510000Y-90480000D03*
%TO.P,J3,14,Pin_14*%
%TO.N,GND*%
X22510000Y-93020000D03*
%TD*%
D10*
%TO.P,J2,1,Pin_1*%
%TO.N,/IO0*%
X30130000Y-60000000D03*
D11*
%TO.P,J2,2,Pin_2*%
%TO.N,/IO1*%
X30130000Y-62540000D03*
%TO.P,J2,3,Pin_3*%
%TO.N,/IO2*%
X30130000Y-65080000D03*
%TO.P,J2,4,Pin_4*%
%TO.N,/IO3*%
X30130000Y-67620000D03*
%TO.P,J2,5,Pin_5*%
%TO.N,/IO4*%
X30130000Y-70160000D03*
%TO.P,J2,6,Pin_6*%
%TO.N,/IO5*%
X30130000Y-72700000D03*
%TO.P,J2,7,Pin_7*%
%TO.N,/IO6*%
X30130000Y-75240000D03*
%TO.P,J2,8,Pin_8*%
%TO.N,/IO7*%
X30130000Y-77780000D03*
%TO.P,J2,9,Pin_9*%
%TO.N,/IO8*%
X30130000Y-80320000D03*
%TO.P,J2,10,Pin_10*%
%TO.N,/IO9*%
X30130000Y-82860000D03*
%TO.P,J2,11,Pin_11*%
%TO.N,/IO10*%
X30130000Y-85400000D03*
%TO.P,J2,12,Pin_12*%
%TO.N,/IO11*%
X30130000Y-87940000D03*
%TO.P,J2,13,Pin_13*%
%TO.N,VCC*%
X30130000Y-90480000D03*
%TO.P,J2,14,Pin_14*%
%TO.N,GND*%
X30130000Y-93020000D03*
%TD*%
D12*
%TO.P,U4,1,IN*%
%TO.N,+12V*%
X41360000Y-122570000D03*
D13*
%TO.P,U4,2,GND*%
%TO.N,GND*%
X38820000Y-122570000D03*
%TO.P,U4,3,OUT*%
%TO.N,+5V*%
X36280000Y-122570000D03*
%TD*%
D10*
%TO.P,J17,1,Pin_1*%
%TO.N,/IO0*%
X35210000Y-52430000D03*
D11*
%TO.P,J17,2,Pin_2*%
%TO.N,/IO1*%
X35210000Y-54970000D03*
%TO.P,J17,3,Pin_3*%
%TO.N,GND*%
X35210000Y-57510000D03*
%TO.P,J17,4,Pin_4*%
%TO.N,/IO2*%
X35210000Y-60050000D03*
%TO.P,J17,5,Pin_5*%
%TO.N,/IO3*%
X35210000Y-62590000D03*
%TO.P,J17,6,Pin_6*%
%TO.N,/IO4*%
X35210000Y-65130000D03*
%TO.P,J17,7,Pin_7*%
%TO.N,/IO5*%
X35210000Y-67670000D03*
%TO.P,J17,8,Pin_8*%
%TO.N,GND*%
X35210000Y-70210000D03*
%TO.P,J17,9,Pin_9*%
%TO.N,/IO6*%
X35210000Y-72750000D03*
%TO.P,J17,10,Pin_10*%
%TO.N,/IO7*%
X35210000Y-75290000D03*
%TO.P,J17,11,Pin_11*%
%TO.N,/IO8*%
X35210000Y-77830000D03*
%TO.P,J17,12,Pin_12*%
%TO.N,/IO9*%
X35210000Y-80370000D03*
%TO.P,J17,13,Pin_13*%
%TO.N,GND*%
X35210000Y-82910000D03*
%TO.P,J17,14,Pin_14*%
%TO.N,/IO10*%
X35210000Y-85450000D03*
%TO.P,J17,15,Pin_15*%
%TO.N,/IO11*%
X35210000Y-87990000D03*
%TO.P,J17,16,Pin_16*%
%TO.N,/IO12*%
X35210000Y-90530000D03*
%TO.P,J17,17,Pin_17*%
%TO.N,/IO13*%
X35210000Y-93070000D03*
%TO.P,J17,18,Pin_18*%
%TO.N,GND*%
X35210000Y-95610000D03*
%TO.P,J17,19,Pin_19*%
%TO.N,/IO!4*%
X35210000Y-98150000D03*
%TO.P,J17,20,Pin_20*%
%TO.N,/IO!5*%
X35210000Y-100690000D03*
%TD*%
D14*
%TO.P,D1,1,K*%
%TO.N,Net-(D1-K)*%
X30010000Y-127040000D03*
D15*
%TO.P,D1,2,A*%
%TO.N,Net-(D1-A)*%
X19850000Y-127040000D03*
%TD*%
D16*
%TO.P,C2,1*%
%TO.N,+5V*%
X23970000Y-121560000D03*
D17*
%TO.P,C2,2*%
%TO.N,GND*%
X21470000Y-121560000D03*
%TD*%
%TO.P,R1,1*%
%TO.N,Net-(D1-K)*%
X33740000Y-127000000D03*
D18*
%TO.P,R1,2*%
%TO.N,+12V*%
X41360000Y-127000000D03*
%TD*%
D10*
%TO.P,J6,1,Pin_1*%
%TO.N,GND*%
X17430000Y-105000000D03*
D11*
%TO.P,J6,2,Pin_2*%
%TO.N,+5V*%
X17430000Y-107540000D03*
%TO.P,J6,3,Pin_3*%
%TO.N,+12V*%
X17430000Y-110080000D03*
%TD*%
D16*
%TO.P,U2,1,D1/TX*%
%TO.N,/IO1*%
X42000000Y-54970000D03*
D18*
%TO.P,U2,2,D0/RX*%
%TO.N,/IO0*%
X42000000Y-57510000D03*
%TO.P,U2,3,~{RESET}*%
%TO.N,unconnected-(U2-~{RESET}-Pad3)*%
X42000000Y-60050000D03*
%TO.P,U2,4,GND*%
%TO.N,GND*%
X42000000Y-62590000D03*
%TO.P,U2,5,D2*%
%TO.N,/IO2*%
X42000000Y-65130000D03*
%TO.P,U2,6,~D3*%
%TO.N,/IO3*%
X42000000Y-67670000D03*
%TO.P,U2,7,D4*%
%TO.N,/IO4*%
X42000000Y-70210000D03*
%TO.P,U2,8,~D5*%
%TO.N,/IO5*%
X42000000Y-72750000D03*
%TO.P,U2,9,~D6*%
%TO.N,/IO6*%
X42000000Y-75290000D03*
%TO.P,U2,10,D7*%
%TO.N,/IO7*%
X42000000Y-77830000D03*
%TO.P,U2,11,D8*%
%TO.N,/IO8*%
X42000000Y-80370000D03*
%TO.P,U2,12,~D9*%
%TO.N,/IO9*%
X42000000Y-82910000D03*
%TO.P,U2,13,~D10*%
%TO.N,/IO10*%
X42000000Y-85450000D03*
%TO.P,U2,14,~D11*%
%TO.N,/IO11*%
X42000000Y-87990000D03*
%TO.P,U2,15,D12*%
%TO.N,/IO12*%
X42000000Y-90530000D03*
%TO.P,U2,16,D13*%
%TO.N,/IO13*%
X26760000Y-90530000D03*
%TO.P,U2,17,3V3*%
%TO.N,unconnected-(U2-3V3-Pad17)*%
X26760000Y-87990000D03*
%TO.P,U2,18,AREF*%
%TO.N,unconnected-(U2-AREF-Pad18)*%
X26760000Y-85450000D03*
%TO.P,U2,19,A0/D14*%
%TO.N,/ADC0*%
X26760000Y-82910000D03*
%TO.P,U2,20,A1/D15*%
%TO.N,/ADC1*%
X26760000Y-80370000D03*
%TO.P,U2,21,A2/D16*%
%TO.N,/ADC2*%
X26760000Y-77830000D03*
%TO.P,U2,22,A3/D17*%
%TO.N,/ADC3*%
X26760000Y-75290000D03*
%TO.P,U2,23,A4/D18*%
%TO.N,/ADC4*%
X26760000Y-72750000D03*
%TO.P,U2,24,A5/D19*%
%TO.N,/ADC5*%
X26760000Y-70210000D03*
%TO.P,U2,25,A6/D20*%
%TO.N,/ADC6*%
X26760000Y-67670000D03*
%TO.P,U2,26,A7/D21*%
%TO.N,/ADC7*%
X26760000Y-65130000D03*
%TO.P,U2,27,+5V*%
%TO.N,VCC*%
X26760000Y-62590000D03*
%TO.P,U2,28,~{RESET}*%
%TO.N,unconnected-(U2-~{RESET}-Pad28)*%
X26760000Y-60050000D03*
%TO.P,U2,29,GND*%
%TO.N,GND*%
X26760000Y-57510000D03*
%TO.P,U2,30,VIN*%
%TO.N,+12V*%
X26760000Y-54970000D03*
%TD*%
D17*
%TO.P,C3,1*%
%TO.N,+5V*%
X28990000Y-106520000D03*
%TO.P,C3,2*%
%TO.N,GND*%
X28990000Y-101520000D03*
%TD*%
D10*
%TO.P,J18,1,Pin_1*%
%TO.N,Net-(J18-Pin_1)*%
X17430000Y-52430000D03*
D11*
%TO.P,J18,2,Pin_2*%
%TO.N,Net-(D19-K)*%
X17430000Y-54970000D03*
%TO.P,J18,3,Pin_3*%
%TO.N,GND*%
X17430000Y-57510000D03*
%TO.P,J18,4,Pin_4*%
%TO.N,Net-(J18-Pin_4)*%
X17430000Y-60050000D03*
%TO.P,J18,5,Pin_5*%
%TO.N,VCC*%
X17430000Y-62590000D03*
%TO.P,J18,6,Pin_6*%
%TO.N,Net-(J18-Pin_6)*%
X17430000Y-65130000D03*
%TO.P,J18,7,Pin_7*%
%TO.N,/ADC2*%
X17430000Y-67670000D03*
%TO.P,J18,8,Pin_8*%
%TO.N,GND*%
X17430000Y-70210000D03*
%TO.P,J18,9,Pin_9*%
%TO.N,/ADC1*%
X17430000Y-72750000D03*
%TO.P,J18,10,Pin_10*%
%TO.N,/ADC0*%
X17430000Y-75290000D03*
%TO.P,J18,11,Pin_11*%
%TO.N,Net-(J18-Pin_11)*%
X17430000Y-77830000D03*
%TO.P,J18,12,Pin_12*%
%TO.N,/IO22*%
X17430000Y-80370000D03*
%TO.P,J18,13,Pin_13*%
%TO.N,GND*%
X17430000Y-82910000D03*
%TO.P,J18,14,Pin_14*%
%TO.N,/ADC7*%
X17430000Y-85450000D03*
%TO.P,J18,15,Pin_15*%
%TO.N,/ADC6*%
X17430000Y-87990000D03*
%TO.P,J18,16,Pin_16*%
%TO.N,/ADC5*%
X17430000Y-90530000D03*
%TO.P,J18,17,Pin_17*%
%TO.N,/ADC4*%
X17430000Y-93070000D03*
%TO.P,J18,18,Pin_18*%
%TO.N,GND*%
X17430000Y-95610000D03*
%TO.P,J18,19,Pin_19*%
%TO.N,/ADC3*%
X17430000Y-98150000D03*
%TO.P,J18,20,Pin_20*%
%TO.N,/IO16*%
X17430000Y-100690000D03*
%TD*%
D19*
%TO.P,J5,1,Pin_1*%
%TO.N,unconnected-(J5-Pin_1-Pad1)*%
X38890000Y-136640000D03*
D20*
%TO.P,J5,2,Pin_2*%
%TO.N,unconnected-(J5-Pin_2-Pad2)*%
X38890000Y-134100000D03*
%TO.P,J5,3,Pin_3*%
%TO.N,unconnected-(J5-Pin_3-Pad3)*%
X36350000Y-136640000D03*
%TO.P,J5,4,Pin_4*%
%TO.N,unconnected-(J5-Pin_4-Pad4)*%
X36350000Y-134100000D03*
%TO.P,J5,5,Pin_5*%
%TO.N,unconnected-(J5-Pin_5-Pad5)*%
X33810000Y-136640000D03*
%TO.P,J5,6,Pin_6*%
%TO.N,unconnected-(J5-Pin_6-Pad6)*%
X33810000Y-134100000D03*
%TO.P,J5,7,Pin_7*%
%TO.N,GND*%
X31270000Y-136640000D03*
%TO.P,J5,8,Pin_8*%
X31270000Y-134100000D03*
%TO.P,J5,9,Pin_9*%
%TO.N,Net-(D1-A)*%
X28730000Y-136640000D03*
%TO.P,J5,10,Pin_10*%
X28730000Y-134100000D03*
%TO.P,J5,11,Pin_11*%
%TO.N,unconnected-(J5-Pin_11-Pad11)*%
X26190000Y-136640000D03*
%TO.P,J5,12,Pin_12*%
%TO.N,unconnected-(J5-Pin_12-Pad12)*%
X26190000Y-134100000D03*
%TO.P,J5,13,Pin_13*%
%TO.N,unconnected-(J5-Pin_13-Pad13)*%
X23650000Y-136640000D03*
%TO.P,J5,14,Pin_14*%
%TO.N,unconnected-(J5-Pin_14-Pad14)*%
X23650000Y-134100000D03*
%TO.P,J5,15,Pin_15*%
%TO.N,unconnected-(J5-Pin_15-Pad15)*%
X21110000Y-136640000D03*
%TO.P,J5,16,Pin_16*%
%TO.N,unconnected-(J5-Pin_16-Pad16)*%
X21110000Y-134100000D03*
%TD*%
D16*
%TO.P,C1,1*%
%TO.N,+12V*%
X30970000Y-121560000D03*
D17*
%TO.P,C1,2*%
%TO.N,GND*%
X28470000Y-121560000D03*
%TD*%
D14*
%TO.P,D19,1,K*%
%TO.N,Net-(D19-K)*%
X25350000Y-96400000D03*
D15*
%TO.P,D19,2,A*%
%TO.N,+5V*%
X25350000Y-106560000D03*
%TD*%
D21*
%TO.N,GND*%
X26070000Y-109570000D03*
X20360000Y-52290000D03*
X29210000Y-56388000D03*
X30530000Y-52320000D03*
X31621565Y-62319306D03*
X17860000Y-146370000D03*
X24638000Y-130810000D03*
X41390000Y-130750000D03*
X41470000Y-146640000D03*
X32980000Y-130840000D03*
X20350000Y-112730000D03*
X18050000Y-130950000D03*
%TO.N,+12V*%
X32680000Y-105410000D03*
X32680000Y-104648000D03*
X32680000Y-103886000D03*
%TD*%
D22*
%TO.N,GND*%
X31270000Y-136640000D02*
X31270000Y-138148000D01*
X31270000Y-134100000D02*
X31270000Y-136640000D01*
X31270000Y-134100000D02*
X31270000Y-132616000D01*
%TO.N,VCC*%
X26760000Y-62590000D02*
X28160000Y-63990000D01*
X28160000Y-88510000D02*
X30130000Y-90480000D01*
X28160000Y-63990000D02*
X28160000Y-88510000D01*
%TO.N,+12V*%
X32680000Y-103886000D02*
X32680000Y-104648000D01*
X32680000Y-103038000D02*
X32680000Y-57064000D01*
X32680000Y-104648000D02*
X32680000Y-105410000D01*
X32680000Y-103210000D02*
X32680000Y-103886000D01*
X32680000Y-57064000D02*
X30586000Y-54970000D01*
X30586000Y-54970000D02*
X26760000Y-54970000D01*
%TO.N,+5V*%
X23970000Y-107940000D02*
X23970000Y-121560000D01*
X25350000Y-106560000D02*
X23970000Y-107940000D01*
%TO.N,Net-(D19-K)*%
X25360000Y-73660000D02*
X24384000Y-72684000D01*
X20380000Y-54970000D02*
X17430000Y-54970000D01*
X25360000Y-94390000D02*
X25360000Y-73660000D01*
X24384000Y-58974000D02*
X20380000Y-54970000D01*
X24384000Y-72684000D02*
X24384000Y-58974000D01*
X25350000Y-94400000D02*
X25360000Y-94390000D01*
X25350000Y-96400000D02*
X25350000Y-94400000D01*
D23*
%TO.N,/IO16*%
X16180000Y-99440000D02*
X17430000Y-100690000D01*
X22510000Y-82860000D02*
X21080000Y-84290000D01*
X19093883Y-93173883D02*
X19093883Y-93173884D01*
X20499264Y-91768503D02*
X19093884Y-93173883D01*
X17947766Y-94320000D02*
X16932000Y-94320000D01*
X16180000Y-95072000D02*
X16180000Y-99440000D01*
X19093884Y-93173883D02*
X19093883Y-93173883D01*
X19093883Y-93173883D02*
X17947766Y-94320000D01*
X16932000Y-94320000D02*
X16180000Y-95072000D01*
X21080000Y-85197056D02*
X20499264Y-85777792D01*
X20499264Y-85777792D02*
X20499264Y-91768503D01*
X21080000Y-84290000D02*
X21080000Y-85197056D01*
%TO.N,/ADC3*%
X21099264Y-94480736D02*
X17430000Y-98150000D01*
X23027767Y-86690000D02*
X21970000Y-86690000D01*
X21970000Y-86690000D02*
X21099264Y-87560736D01*
X21099264Y-87560736D02*
X21099264Y-94480736D01*
X24400000Y-85317767D02*
X23027767Y-86690000D01*
X24400000Y-84850000D02*
X24400000Y-74590000D01*
X24400000Y-84850000D02*
X24400000Y-85317767D01*
X24400000Y-74590000D02*
X22510000Y-72700000D01*
%TO.N,/ADC5*%
X20480000Y-80290000D02*
X19880000Y-80890000D01*
X19299264Y-85280736D02*
X19299264Y-88660736D01*
X19880000Y-84700000D02*
X19299264Y-85280736D01*
X22510000Y-67620000D02*
X20480000Y-69650000D01*
X19880000Y-80890000D02*
X19880000Y-84700000D01*
X20480000Y-69650000D02*
X20480000Y-80290000D01*
X19299264Y-88660736D02*
X17430000Y-90530000D01*
%TO.N,/ADC7*%
X22510000Y-62540000D02*
X19280000Y-65770000D01*
X19280000Y-65770000D02*
X19280000Y-79620000D01*
X19280000Y-79620000D02*
X19230000Y-79620000D01*
X18680000Y-84200000D02*
X17430000Y-85450000D01*
X18680000Y-80170000D02*
X18680000Y-84200000D01*
X19230000Y-79620000D02*
X18680000Y-80170000D01*
%TO.N,/ADC4*%
X19899264Y-90600736D02*
X17430000Y-93070000D01*
X21080000Y-71590000D02*
X21080000Y-80560000D01*
X22510000Y-70160000D02*
X21080000Y-71590000D01*
X20480000Y-81160000D02*
X21080000Y-80560000D01*
X20480000Y-81160000D02*
X20480000Y-84948528D01*
X20480000Y-84948528D02*
X19899264Y-85529264D01*
X19899264Y-85529264D02*
X19899264Y-90600736D01*
%TO.N,/IO22*%
X18680000Y-79120000D02*
X18680000Y-63830000D01*
X18680000Y-63830000D02*
X22510000Y-60000000D01*
X17430000Y-80370000D02*
X18680000Y-79120000D01*
%TO.N,/ADC6*%
X18699264Y-86720736D02*
X17430000Y-87990000D01*
X19880000Y-80040000D02*
X19280000Y-80640000D01*
X19280000Y-80640000D02*
X19280000Y-84448528D01*
X22510000Y-65080000D02*
X19880000Y-67710000D01*
X18699264Y-85029264D02*
X18699264Y-86720736D01*
X19880000Y-67710000D02*
X19880000Y-80040000D01*
X19280000Y-84448528D02*
X18699264Y-85029264D01*
%TD*%
%TA.AperFunction,Conductor*%
%TO.N,GND*%
G36*
X44442539Y-50520185D02*
G01*
X44488294Y-50572989D01*
X44499500Y-50624500D01*
X44499500Y-149375500D01*
X44479815Y-149442539D01*
X44427011Y-149488294D01*
X44375500Y-149499500D01*
X15624500Y-149499500D01*
X15557461Y-149479815D01*
X15511706Y-149427011D01*
X15500500Y-149375500D01*
X15500500Y-144093713D01*
X28649500Y-144093713D01*
X28649500Y-144306286D01*
X28682753Y-144516239D01*
X28748444Y-144718414D01*
X28844951Y-144907820D01*
X28969890Y-145079786D01*
X29120213Y-145230109D01*
X29292179Y-145355048D01*
X29292181Y-145355049D01*
X29292184Y-145355051D01*
X29481588Y-145451557D01*
X29683757Y-145517246D01*
X29893713Y-145550500D01*
X29893714Y-145550500D01*
X30106286Y-145550500D01*
X30106287Y-145550500D01*
X30316243Y-145517246D01*
X30518412Y-145451557D01*
X30707816Y-145355051D01*
X30729789Y-145339086D01*
X30879786Y-145230109D01*
X30879788Y-145230106D01*
X30879792Y-145230104D01*
X31030104Y-145079792D01*
X31030106Y-145079788D01*
X31030109Y-145079786D01*
X31155048Y-144907820D01*
X31155047Y-144907820D01*
X31155051Y-144907816D01*
X31251557Y-144718412D01*
X31317246Y-144516243D01*
X31350500Y-144306287D01*
X31350500Y-144093713D01*
X31317246Y-143883757D01*
X31251557Y-143681588D01*
X31155051Y-143492184D01*
X31155049Y-143492181D01*
X31155048Y-143492179D01*
X31030109Y-143320213D01*
X30879786Y-143169890D01*
X30707820Y-143044951D01*
X30518414Y-142948444D01*
X30518413Y-142948443D01*
X30518412Y-142948443D01*
X30316243Y-142882754D01*
X30316241Y-142882753D01*
X30316240Y-142882753D01*
X30154957Y-142857208D01*
X30106287Y-142849500D01*
X29893713Y-142849500D01*
X29845042Y-142857208D01*
X29683760Y-142882753D01*
X29481585Y-142948444D01*
X29292179Y-143044951D01*
X29120213Y-143169890D01*
X28969890Y-143320213D01*
X28844951Y-143492179D01*
X28748444Y-143681585D01*
X28682753Y-143883760D01*
X28649500Y-144093713D01*
X15500500Y-144093713D01*
X15500500Y-136639999D01*
X19974657Y-136639999D01*
X19974657Y-136640000D01*
X19993987Y-136848618D01*
X20051323Y-137050130D01*
X20051328Y-137050143D01*
X20144711Y-137237679D01*
X20144712Y-137237681D01*
X20242206Y-137366785D01*
X20270973Y-137404878D01*
X20270974Y-137404879D01*
X20425800Y-137546021D01*
X20425805Y-137546025D01*
X20603930Y-137656315D01*
X20603931Y-137656315D01*
X20603934Y-137656317D01*
X20799299Y-137732002D01*
X21005244Y-137770500D01*
X21005246Y-137770500D01*
X21214754Y-137770500D01*
X21214756Y-137770500D01*
X21420701Y-137732002D01*
X21616066Y-137656317D01*
X21794197Y-137546023D01*
X21949029Y-137404876D01*
X22075288Y-137237681D01*
X22168676Y-137050133D01*
X22226012Y-136848619D01*
X22245343Y-136640000D01*
X22245343Y-136639999D01*
X22514657Y-136639999D01*
X22514657Y-136640000D01*
X22533987Y-136848618D01*
X22591323Y-137050130D01*
X22591328Y-137050143D01*
X22684711Y-137237679D01*
X22684712Y-137237681D01*
X22782206Y-137366785D01*
X22810973Y-137404878D01*
X22810974Y-137404879D01*
X22965800Y-137546021D01*
X22965805Y-137546025D01*
X23143930Y-137656315D01*
X23143931Y-137656315D01*
X23143934Y-137656317D01*
X23339299Y-137732002D01*
X23545244Y-137770500D01*
X23545246Y-137770500D01*
X23754754Y-137770500D01*
X23754756Y-137770500D01*
X23960701Y-137732002D01*
X24156066Y-137656317D01*
X24334197Y-137546023D01*
X24489029Y-137404876D01*
X24615288Y-137237681D01*
X24708676Y-137050133D01*
X24766012Y-136848619D01*
X24785343Y-136640000D01*
X24785343Y-136639999D01*
X25054657Y-136639999D01*
X25054657Y-136640000D01*
X25073987Y-136848618D01*
X25131323Y-137050130D01*
X25131328Y-137050143D01*
X25224711Y-137237679D01*
X25224712Y-137237681D01*
X25322206Y-137366785D01*
X25350973Y-137404878D01*
X25350974Y-137404879D01*
X25505800Y-137546021D01*
X25505805Y-137546025D01*
X25683930Y-137656315D01*
X25683931Y-137656315D01*
X25683934Y-137656317D01*
X25879299Y-137732002D01*
X26085244Y-137770500D01*
X26085246Y-137770500D01*
X26294754Y-137770500D01*
X26294756Y-137770500D01*
X26500701Y-137732002D01*
X26696066Y-137656317D01*
X26874197Y-137546023D01*
X27029029Y-137404876D01*
X27155288Y-137237681D01*
X27248676Y-137050133D01*
X27306012Y-136848619D01*
X27325343Y-136640000D01*
X27319243Y-136574174D01*
X27306012Y-136431381D01*
X27256865Y-136258649D01*
X27248676Y-136229867D01*
X27222547Y-136177394D01*
X27203156Y-136138451D01*
X27155288Y-136042319D01*
X27029029Y-135875124D01*
X27029026Y-135875121D01*
X27029023Y-135875118D01*
X26874199Y-135733978D01*
X26874194Y-135733974D01*
X26696069Y-135623684D01*
X26696063Y-135623682D01*
X26500701Y-135547998D01*
X26294756Y-135509500D01*
X26085244Y-135509500D01*
X25879299Y-135547998D01*
X25755752Y-135595860D01*
X25683936Y-135623682D01*
X25683930Y-135623684D01*
X25505805Y-135733974D01*
X25505800Y-135733978D01*
X25350976Y-135875118D01*
X25350973Y-135875121D01*
X25224712Y-136042318D01*
X25131328Y-136229856D01*
X25131323Y-136229869D01*
X25073987Y-136431381D01*
X25054657Y-136639999D01*
X24785343Y-136639999D01*
X24779243Y-136574174D01*
X24766012Y-136431381D01*
X24716865Y-136258649D01*
X24708676Y-136229867D01*
X24682547Y-136177394D01*
X24663156Y-136138451D01*
X24615288Y-136042319D01*
X24489029Y-135875124D01*
X24489026Y-135875121D01*
X24489023Y-135875118D01*
X24334199Y-135733978D01*
X24334194Y-135733974D01*
X24156069Y-135623684D01*
X24156063Y-135623682D01*
X23960701Y-135547998D01*
X23754756Y-135509500D01*
X23545244Y-135509500D01*
X23339299Y-135547998D01*
X23215752Y-135595860D01*
X23143936Y-135623682D01*
X23143930Y-135623684D01*
X22965805Y-135733974D01*
X22965800Y-135733978D01*
X22810976Y-135875118D01*
X22810973Y-135875121D01*
X22684712Y-136042318D01*
X22591328Y-136229856D01*
X22591323Y-136229869D01*
X22533987Y-136431381D01*
X22514657Y-136639999D01*
X22245343Y-136639999D01*
X22239243Y-136574174D01*
X22226012Y-136431381D01*
X22176865Y-136258649D01*
X22168676Y-136229867D01*
X22142547Y-136177394D01*
X22123156Y-136138451D01*
X22075288Y-136042319D01*
X21949029Y-135875124D01*
X21949026Y-135875121D01*
X21949023Y-135875118D01*
X21794199Y-135733978D01*
X21794194Y-135733974D01*
X21616069Y-135623684D01*
X21616063Y-135623682D01*
X21420701Y-135547998D01*
X21214756Y-135509500D01*
X21005244Y-135509500D01*
X20799299Y-135547998D01*
X20675752Y-135595860D01*
X20603936Y-135623682D01*
X20603930Y-135623684D01*
X20425805Y-135733974D01*
X20425800Y-135733978D01*
X20270976Y-135875118D01*
X20270973Y-135875121D01*
X20144712Y-136042318D01*
X20051328Y-136229856D01*
X20051323Y-136229869D01*
X19993987Y-136431381D01*
X19974657Y-136639999D01*
X15500500Y-136639999D01*
X15500500Y-134099999D01*
X19974657Y-134099999D01*
X19974657Y-134100000D01*
X19993987Y-134308618D01*
X20051323Y-134510130D01*
X20051328Y-134510143D01*
X20144712Y-134697681D01*
X20270973Y-134864878D01*
X20270976Y-134864881D01*
X20425800Y-135006021D01*
X20425805Y-135006025D01*
X20603930Y-135116315D01*
X20603931Y-135116315D01*
X20603934Y-135116317D01*
X20799299Y-135192002D01*
X21005244Y-135230500D01*
X21005246Y-135230500D01*
X21214754Y-135230500D01*
X21214756Y-135230500D01*
X21420701Y-135192002D01*
X21616066Y-135116317D01*
X21794197Y-135006023D01*
X21949029Y-134864876D01*
X22075288Y-134697681D01*
X22168676Y-134510133D01*
X22226012Y-134308619D01*
X22245343Y-134100000D01*
X22245343Y-134099999D01*
X22514657Y-134099999D01*
X22514657Y-134100000D01*
X22533987Y-134308618D01*
X22591323Y-134510130D01*
X22591328Y-134510143D01*
X22684712Y-134697681D01*
X22810973Y-134864878D01*
X22810976Y-134864881D01*
X22965800Y-135006021D01*
X22965805Y-135006025D01*
X23143930Y-135116315D01*
X23143931Y-135116315D01*
X23143934Y-135116317D01*
X23339299Y-135192002D01*
X23545244Y-135230500D01*
X23545246Y-135230500D01*
X23754754Y-135230500D01*
X23754756Y-135230500D01*
X23960701Y-135192002D01*
X24156066Y-135116317D01*
X24334197Y-135006023D01*
X24489029Y-134864876D01*
X24615288Y-134697681D01*
X24708676Y-134510133D01*
X24766012Y-134308619D01*
X24785343Y-134100000D01*
X24785343Y-134099999D01*
X25054657Y-134099999D01*
X25054657Y-134100000D01*
X25073987Y-134308618D01*
X25131323Y-134510130D01*
X25131328Y-134510143D01*
X25224712Y-134697681D01*
X25350973Y-134864878D01*
X25350976Y-134864881D01*
X25505800Y-135006021D01*
X25505805Y-135006025D01*
X25683930Y-135116315D01*
X25683931Y-135116315D01*
X25683934Y-135116317D01*
X25879299Y-135192002D01*
X26085244Y-135230500D01*
X26085246Y-135230500D01*
X26294754Y-135230500D01*
X26294756Y-135230500D01*
X26500701Y-135192002D01*
X26696066Y-135116317D01*
X26874197Y-135006023D01*
X27029029Y-134864876D01*
X27155288Y-134697681D01*
X27248676Y-134510133D01*
X27306012Y-134308619D01*
X27325343Y-134100000D01*
X27325343Y-134099999D01*
X27594657Y-134099999D01*
X27594657Y-134100000D01*
X27613987Y-134308618D01*
X27671323Y-134510130D01*
X27671328Y-134510143D01*
X27764712Y-134697681D01*
X27890973Y-134864878D01*
X27890976Y-134864881D01*
X28045800Y-135006021D01*
X28045805Y-135006025D01*
X28223930Y-135116315D01*
X28223931Y-135116315D01*
X28223934Y-135116317D01*
X28419299Y-135192002D01*
X28625244Y-135230500D01*
X28625246Y-135230500D01*
X28834754Y-135230500D01*
X28834756Y-135230500D01*
X29040701Y-135192002D01*
X29236066Y-135116317D01*
X29414197Y-135006023D01*
X29569029Y-134864876D01*
X29695288Y-134697681D01*
X29768820Y-134550008D01*
X29816323Y-134498771D01*
X29883985Y-134481350D01*
X29950326Y-134503275D01*
X29994281Y-134557587D01*
X29996335Y-134562850D01*
X29996565Y-134563483D01*
X30096400Y-134777579D01*
X30096402Y-134777583D01*
X30155072Y-134861373D01*
X30155073Y-134861373D01*
X30787037Y-134229409D01*
X30804075Y-134292993D01*
X30869901Y-134407007D01*
X30962993Y-134500099D01*
X31077007Y-134565925D01*
X31140590Y-134582962D01*
X30508625Y-135214925D01*
X30585031Y-135268425D01*
X30628655Y-135323002D01*
X30635848Y-135392501D01*
X30604326Y-135454855D01*
X30585029Y-135471576D01*
X30508625Y-135525072D01*
X31140590Y-136157037D01*
X31077007Y-136174075D01*
X30962993Y-136239901D01*
X30869901Y-136332993D01*
X30804075Y-136447007D01*
X30787037Y-136510590D01*
X30155072Y-135878625D01*
X30096401Y-135962419D01*
X29996562Y-136176524D01*
X29996332Y-136177156D01*
X29996156Y-136177394D01*
X29994281Y-136181416D01*
X29993471Y-136181038D01*
X29954893Y-136233410D01*
X29889619Y-136258331D01*
X29821234Y-136244006D01*
X29771449Y-136194983D01*
X29768820Y-136189991D01*
X29743927Y-136140000D01*
X29695288Y-136042319D01*
X29569029Y-135875124D01*
X29569026Y-135875121D01*
X29569023Y-135875118D01*
X29414199Y-135733978D01*
X29414194Y-135733974D01*
X29236069Y-135623684D01*
X29236063Y-135623682D01*
X29040701Y-135547998D01*
X28834756Y-135509500D01*
X28625244Y-135509500D01*
X28419299Y-135547998D01*
X28295752Y-135595860D01*
X28223936Y-135623682D01*
X28223930Y-135623684D01*
X28045805Y-135733974D01*
X28045800Y-135733978D01*
X27890976Y-135875118D01*
X27890973Y-135875121D01*
X27764712Y-136042318D01*
X27671328Y-136229856D01*
X27671323Y-136229869D01*
X27613987Y-136431381D01*
X27594657Y-136639999D01*
X27594657Y-136640000D01*
X27613987Y-136848618D01*
X27671323Y-137050130D01*
X27671328Y-137050143D01*
X27764711Y-137237679D01*
X27764712Y-137237681D01*
X27862206Y-137366785D01*
X27890973Y-137404878D01*
X27890974Y-137404879D01*
X28045800Y-137546021D01*
X28045805Y-137546025D01*
X28223930Y-137656315D01*
X28223931Y-137656315D01*
X28223934Y-137656317D01*
X28419299Y-137732002D01*
X28625244Y-137770500D01*
X28625246Y-137770500D01*
X28834754Y-137770500D01*
X28834756Y-137770500D01*
X29040701Y-137732002D01*
X29236066Y-137656317D01*
X29414197Y-137546023D01*
X29569029Y-137404876D01*
X29695288Y-137237681D01*
X29768820Y-137090008D01*
X29816323Y-137038771D01*
X29883985Y-137021350D01*
X29950326Y-137043275D01*
X29994281Y-137097587D01*
X29996335Y-137102850D01*
X29996565Y-137103483D01*
X30096400Y-137317579D01*
X30096402Y-137317583D01*
X30155072Y-137401373D01*
X30155073Y-137401373D01*
X30787037Y-136769409D01*
X30804075Y-136832993D01*
X30869901Y-136947007D01*
X30962993Y-137040099D01*
X31077007Y-137105925D01*
X31140590Y-137122962D01*
X30508625Y-137754925D01*
X30592421Y-137813599D01*
X30806507Y-137913429D01*
X30806516Y-137913433D01*
X31034673Y-137974567D01*
X31034684Y-137974569D01*
X31269998Y-137995157D01*
X31270002Y-137995157D01*
X31505315Y-137974569D01*
X31505326Y-137974567D01*
X31733483Y-137913433D01*
X31733492Y-137913429D01*
X31947578Y-137813600D01*
X31947582Y-137813598D01*
X32031373Y-137754926D01*
X32031373Y-137754925D01*
X31399409Y-137122962D01*
X31462993Y-137105925D01*
X31577007Y-137040099D01*
X31670099Y-136947007D01*
X31735925Y-136832993D01*
X31752962Y-136769410D01*
X32384925Y-137401373D01*
X32384926Y-137401373D01*
X32443598Y-137317582D01*
X32443600Y-137317578D01*
X32543432Y-137103487D01*
X32543658Y-137102868D01*
X32543830Y-137102633D01*
X32545719Y-137098584D01*
X32546532Y-137098963D01*
X32585085Y-137046604D01*
X32650354Y-137021670D01*
X32718742Y-137035981D01*
X32768537Y-137084993D01*
X32771179Y-137090008D01*
X32844711Y-137237679D01*
X32844712Y-137237681D01*
X32942206Y-137366785D01*
X32970973Y-137404878D01*
X32970974Y-137404879D01*
X33125800Y-137546021D01*
X33125805Y-137546025D01*
X33303930Y-137656315D01*
X33303931Y-137656315D01*
X33303934Y-137656317D01*
X33499299Y-137732002D01*
X33705244Y-137770500D01*
X33705246Y-137770500D01*
X33914754Y-137770500D01*
X33914756Y-137770500D01*
X34120701Y-137732002D01*
X34316066Y-137656317D01*
X34494197Y-137546023D01*
X34649029Y-137404876D01*
X34775288Y-137237681D01*
X34868676Y-137050133D01*
X34926012Y-136848619D01*
X34945343Y-136640000D01*
X34945343Y-136639999D01*
X35214657Y-136639999D01*
X35214657Y-136640000D01*
X35233987Y-136848618D01*
X35291323Y-137050130D01*
X35291328Y-137050143D01*
X35384711Y-137237679D01*
X35384712Y-137237681D01*
X35482206Y-137366785D01*
X35510973Y-137404878D01*
X35510974Y-137404879D01*
X35665800Y-137546021D01*
X35665805Y-137546025D01*
X35843930Y-137656315D01*
X35843931Y-137656315D01*
X35843934Y-137656317D01*
X36039299Y-137732002D01*
X36245244Y-137770500D01*
X36245246Y-137770500D01*
X36454754Y-137770500D01*
X36454756Y-137770500D01*
X36660701Y-137732002D01*
X36856066Y-137656317D01*
X37034197Y-137546023D01*
X37189029Y-137404876D01*
X37315288Y-137237681D01*
X37408676Y-137050133D01*
X37466012Y-136848619D01*
X37485343Y-136640000D01*
X37479243Y-136574174D01*
X37466012Y-136431381D01*
X37416865Y-136258649D01*
X37408676Y-136229867D01*
X37382547Y-136177394D01*
X37363156Y-136138451D01*
X37315288Y-136042319D01*
X37282170Y-135998463D01*
X37759500Y-135998463D01*
X37759500Y-135998464D01*
X37759500Y-135998468D01*
X37759500Y-137281530D01*
X37769736Y-137366783D01*
X37823236Y-137502449D01*
X37911352Y-137618647D01*
X38027550Y-137706763D01*
X38027551Y-137706763D01*
X38027552Y-137706764D01*
X38163215Y-137760263D01*
X38248463Y-137770500D01*
X39531536Y-137770499D01*
X39616785Y-137760263D01*
X39752448Y-137706764D01*
X39868647Y-137618647D01*
X39956764Y-137502448D01*
X40010263Y-137366785D01*
X40020500Y-137281537D01*
X40020499Y-135998464D01*
X40010263Y-135913215D01*
X39956764Y-135777552D01*
X39956763Y-135777551D01*
X39956763Y-135777550D01*
X39868647Y-135661352D01*
X39752449Y-135573236D01*
X39630316Y-135525073D01*
X39616785Y-135519737D01*
X39616784Y-135519736D01*
X39616782Y-135519736D01*
X39576687Y-135514921D01*
X39531537Y-135509500D01*
X39531531Y-135509500D01*
X38248469Y-135509500D01*
X38163216Y-135519736D01*
X38027550Y-135573236D01*
X37911352Y-135661352D01*
X37823236Y-135777550D01*
X37769736Y-135913217D01*
X37764018Y-135960837D01*
X37759500Y-135998463D01*
X37282170Y-135998463D01*
X37189029Y-135875124D01*
X37189026Y-135875121D01*
X37189023Y-135875118D01*
X37034199Y-135733978D01*
X37034194Y-135733974D01*
X36856069Y-135623684D01*
X36856063Y-135623682D01*
X36660701Y-135547998D01*
X36454756Y-135509500D01*
X36245244Y-135509500D01*
X36039299Y-135547998D01*
X35915752Y-135595860D01*
X35843936Y-135623682D01*
X35843930Y-135623684D01*
X35665805Y-135733974D01*
X35665800Y-135733978D01*
X35510976Y-135875118D01*
X35510973Y-135875121D01*
X35384712Y-136042318D01*
X35291328Y-136229856D01*
X35291323Y-136229869D01*
X35233987Y-136431381D01*
X35214657Y-136639999D01*
X34945343Y-136639999D01*
X34939243Y-136574174D01*
X34926012Y-136431381D01*
X34876865Y-136258649D01*
X34868676Y-136229867D01*
X34842547Y-136177394D01*
X34823156Y-136138451D01*
X34775288Y-136042319D01*
X34649029Y-135875124D01*
X34649026Y-135875121D01*
X34649023Y-135875118D01*
X34494199Y-135733978D01*
X34494194Y-135733974D01*
X34316069Y-135623684D01*
X34316063Y-135623682D01*
X34120701Y-135547998D01*
X33914756Y-135509500D01*
X33705244Y-135509500D01*
X33499299Y-135547998D01*
X33375752Y-135595860D01*
X33303936Y-135623682D01*
X33303930Y-135623684D01*
X33125805Y-135733974D01*
X33125800Y-135733978D01*
X32970976Y-135875118D01*
X32970973Y-135875121D01*
X32844712Y-136042318D01*
X32771179Y-136189991D01*
X32723676Y-136241228D01*
X32656013Y-136258649D01*
X32589672Y-136236723D01*
X32545718Y-136182412D01*
X32543660Y-136177138D01*
X32543431Y-136176510D01*
X32443600Y-135962423D01*
X32443599Y-135962421D01*
X32384925Y-135878626D01*
X32384925Y-135878625D01*
X31752962Y-136510589D01*
X31735925Y-136447007D01*
X31670099Y-136332993D01*
X31577007Y-136239901D01*
X31462993Y-136174075D01*
X31399410Y-136157037D01*
X32031373Y-135525073D01*
X31954969Y-135471576D01*
X31911344Y-135416999D01*
X31904150Y-135347501D01*
X31935672Y-135285146D01*
X31954968Y-135268425D01*
X32031373Y-135214925D01*
X31399409Y-134582962D01*
X31462993Y-134565925D01*
X31577007Y-134500099D01*
X31670099Y-134407007D01*
X31735925Y-134292993D01*
X31752962Y-134229410D01*
X32384925Y-134861373D01*
X32384926Y-134861373D01*
X32443598Y-134777582D01*
X32443600Y-134777578D01*
X32543432Y-134563487D01*
X32543658Y-134562868D01*
X32543830Y-134562633D01*
X32545719Y-134558584D01*
X32546532Y-134558963D01*
X32585085Y-134506604D01*
X32650354Y-134481670D01*
X32718742Y-134495981D01*
X32768537Y-134544993D01*
X32771179Y-134550008D01*
X32844712Y-134697681D01*
X32970973Y-134864878D01*
X32970976Y-134864881D01*
X33125800Y-135006021D01*
X33125805Y-135006025D01*
X33303930Y-135116315D01*
X33303931Y-135116315D01*
X33303934Y-135116317D01*
X33499299Y-135192002D01*
X33705244Y-135230500D01*
X33705246Y-135230500D01*
X33914754Y-135230500D01*
X33914756Y-135230500D01*
X34120701Y-135192002D01*
X34316066Y-135116317D01*
X34494197Y-135006023D01*
X34649029Y-134864876D01*
X34775288Y-134697681D01*
X34868676Y-134510133D01*
X34926012Y-134308619D01*
X34945343Y-134100000D01*
X34945343Y-134099999D01*
X35214657Y-134099999D01*
X35214657Y-134100000D01*
X35233987Y-134308618D01*
X35291323Y-134510130D01*
X35291328Y-134510143D01*
X35384712Y-134697681D01*
X35510973Y-134864878D01*
X35510976Y-134864881D01*
X35665800Y-135006021D01*
X35665805Y-135006025D01*
X35843930Y-135116315D01*
X35843931Y-135116315D01*
X35843934Y-135116317D01*
X36039299Y-135192002D01*
X36245244Y-135230500D01*
X36245246Y-135230500D01*
X36454754Y-135230500D01*
X36454756Y-135230500D01*
X36660701Y-135192002D01*
X36856066Y-135116317D01*
X37034197Y-135006023D01*
X37189029Y-134864876D01*
X37315288Y-134697681D01*
X37408676Y-134510133D01*
X37466012Y-134308619D01*
X37485343Y-134100000D01*
X37485343Y-134099999D01*
X37754657Y-134099999D01*
X37754657Y-134100000D01*
X37773987Y-134308618D01*
X37831323Y-134510130D01*
X37831328Y-134510143D01*
X37924712Y-134697681D01*
X38050973Y-134864878D01*
X38050976Y-134864881D01*
X38205800Y-135006021D01*
X38205805Y-135006025D01*
X38383930Y-135116315D01*
X38383931Y-135116315D01*
X38383934Y-135116317D01*
X38579299Y-135192002D01*
X38785244Y-135230500D01*
X38785246Y-135230500D01*
X38994754Y-135230500D01*
X38994756Y-135230500D01*
X39200701Y-135192002D01*
X39396066Y-135116317D01*
X39574197Y-135006023D01*
X39729029Y-134864876D01*
X39855288Y-134697681D01*
X39948676Y-134510133D01*
X40006012Y-134308619D01*
X40025343Y-134100000D01*
X40019243Y-134034174D01*
X40006012Y-133891381D01*
X39956865Y-133718649D01*
X39948676Y-133689867D01*
X39922547Y-133637394D01*
X39903156Y-133598451D01*
X39855288Y-133502319D01*
X39729029Y-133335124D01*
X39729026Y-133335121D01*
X39729023Y-133335118D01*
X39574199Y-133193978D01*
X39574194Y-133193974D01*
X39396069Y-133083684D01*
X39396063Y-133083682D01*
X39200701Y-133007998D01*
X38994756Y-132969500D01*
X38785244Y-132969500D01*
X38579299Y-133007998D01*
X38455752Y-133055860D01*
X38383936Y-133083682D01*
X38383930Y-133083684D01*
X38205805Y-133193974D01*
X38205800Y-133193978D01*
X38050976Y-133335118D01*
X38050973Y-133335121D01*
X37924712Y-133502318D01*
X37831328Y-133689856D01*
X37831323Y-133689869D01*
X37773987Y-133891381D01*
X37754657Y-134099999D01*
X37485343Y-134099999D01*
X37479243Y-134034174D01*
X37466012Y-133891381D01*
X37416865Y-133718649D01*
X37408676Y-133689867D01*
X37382547Y-133637394D01*
X37363156Y-133598451D01*
X37315288Y-133502319D01*
X37189029Y-133335124D01*
X37189026Y-133335121D01*
X37189023Y-133335118D01*
X37034199Y-133193978D01*
X37034194Y-133193974D01*
X36856069Y-133083684D01*
X36856063Y-133083682D01*
X36660701Y-133007998D01*
X36454756Y-132969500D01*
X36245244Y-132969500D01*
X36039299Y-133007998D01*
X35915752Y-133055860D01*
X35843936Y-133083682D01*
X35843930Y-133083684D01*
X35665805Y-133193974D01*
X35665800Y-133193978D01*
X35510976Y-133335118D01*
X35510973Y-133335121D01*
X35384712Y-133502318D01*
X35291328Y-133689856D01*
X35291323Y-133689869D01*
X35233987Y-133891381D01*
X35214657Y-134099999D01*
X34945343Y-134099999D01*
X34939243Y-134034174D01*
X34926012Y-133891381D01*
X34876865Y-133718649D01*
X34868676Y-133689867D01*
X34842547Y-133637394D01*
X34823156Y-133598451D01*
X34775288Y-133502319D01*
X34649029Y-133335124D01*
X34649026Y-133335121D01*
X34649023Y-133335118D01*
X34494199Y-133193978D01*
X34494194Y-133193974D01*
X34316069Y-133083684D01*
X34316063Y-133083682D01*
X34120701Y-133007998D01*
X33914756Y-132969500D01*
X33705244Y-132969500D01*
X33499299Y-133007998D01*
X33375752Y-133055860D01*
X33303936Y-133083682D01*
X33303930Y-133083684D01*
X33125805Y-133193974D01*
X33125800Y-133193978D01*
X32970976Y-133335118D01*
X32970973Y-133335121D01*
X32844712Y-133502318D01*
X32771179Y-133649991D01*
X32723676Y-133701228D01*
X32656013Y-133718649D01*
X32589672Y-133696723D01*
X32545718Y-133642412D01*
X32543660Y-133637138D01*
X32543431Y-133636510D01*
X32443600Y-133422423D01*
X32443599Y-133422421D01*
X32384925Y-133338626D01*
X32384925Y-133338625D01*
X31752962Y-133970589D01*
X31735925Y-133907007D01*
X31670099Y-133792993D01*
X31577007Y-133699901D01*
X31462993Y-133634075D01*
X31399410Y-133617037D01*
X32031373Y-132985073D01*
X32031373Y-132985072D01*
X31947583Y-132926402D01*
X31947579Y-132926400D01*
X31733492Y-132826570D01*
X31733483Y-132826566D01*
X31505326Y-132765432D01*
X31505315Y-132765430D01*
X31270002Y-132744843D01*
X31269998Y-132744843D01*
X31034684Y-132765430D01*
X31034673Y-132765432D01*
X30806516Y-132826566D01*
X30806507Y-132826570D01*
X30592419Y-132926401D01*
X30508625Y-132985072D01*
X31140590Y-133617037D01*
X31077007Y-133634075D01*
X30962993Y-133699901D01*
X30869901Y-133792993D01*
X30804075Y-133907007D01*
X30787037Y-133970590D01*
X30155072Y-133338625D01*
X30096401Y-133422419D01*
X29996562Y-133636524D01*
X29996332Y-133637156D01*
X29996156Y-133637394D01*
X29994281Y-133641416D01*
X29993471Y-133641038D01*
X29954893Y-133693410D01*
X29889619Y-133718331D01*
X29821234Y-133704006D01*
X29771449Y-133654983D01*
X29768820Y-133649991D01*
X29743927Y-133600000D01*
X29695288Y-133502319D01*
X29569029Y-133335124D01*
X29569026Y-133335121D01*
X29569023Y-133335118D01*
X29414199Y-133193978D01*
X29414194Y-133193974D01*
X29236069Y-133083684D01*
X29236063Y-133083682D01*
X29040701Y-133007998D01*
X28834756Y-132969500D01*
X28625244Y-132969500D01*
X28419299Y-133007998D01*
X28295752Y-133055860D01*
X28223936Y-133083682D01*
X28223930Y-133083684D01*
X28045805Y-133193974D01*
X28045800Y-133193978D01*
X27890976Y-133335118D01*
X27890973Y-133335121D01*
X27764712Y-133502318D01*
X27671328Y-133689856D01*
X27671323Y-133689869D01*
X27613987Y-133891381D01*
X27594657Y-134099999D01*
X27325343Y-134099999D01*
X27319243Y-134034174D01*
X27306012Y-133891381D01*
X27256865Y-133718649D01*
X27248676Y-133689867D01*
X27222547Y-133637394D01*
X27203156Y-133598451D01*
X27155288Y-133502319D01*
X27029029Y-133335124D01*
X27029026Y-133335121D01*
X27029023Y-133335118D01*
X26874199Y-133193978D01*
X26874194Y-133193974D01*
X26696069Y-133083684D01*
X26696063Y-133083682D01*
X26500701Y-133007998D01*
X26294756Y-132969500D01*
X26085244Y-132969500D01*
X25879299Y-133007998D01*
X25755752Y-133055860D01*
X25683936Y-133083682D01*
X25683930Y-133083684D01*
X25505805Y-133193974D01*
X25505800Y-133193978D01*
X25350976Y-133335118D01*
X25350973Y-133335121D01*
X25224712Y-133502318D01*
X25131328Y-133689856D01*
X25131323Y-133689869D01*
X25073987Y-133891381D01*
X25054657Y-134099999D01*
X24785343Y-134099999D01*
X24779243Y-134034174D01*
X24766012Y-133891381D01*
X24716865Y-133718649D01*
X24708676Y-133689867D01*
X24682547Y-133637394D01*
X24663156Y-133598451D01*
X24615288Y-133502319D01*
X24489029Y-133335124D01*
X24489026Y-133335121D01*
X24489023Y-133335118D01*
X24334199Y-133193978D01*
X24334194Y-133193974D01*
X24156069Y-133083684D01*
X24156063Y-133083682D01*
X23960701Y-133007998D01*
X23754756Y-132969500D01*
X23545244Y-132969500D01*
X23339299Y-133007998D01*
X23215752Y-133055860D01*
X23143936Y-133083682D01*
X23143930Y-133083684D01*
X22965805Y-133193974D01*
X22965800Y-133193978D01*
X22810976Y-133335118D01*
X22810973Y-133335121D01*
X22684712Y-133502318D01*
X22591328Y-133689856D01*
X22591323Y-133689869D01*
X22533987Y-133891381D01*
X22514657Y-134099999D01*
X22245343Y-134099999D01*
X22239243Y-134034174D01*
X22226012Y-133891381D01*
X22176865Y-133718649D01*
X22168676Y-133689867D01*
X22142547Y-133637394D01*
X22123156Y-133598451D01*
X22075288Y-133502319D01*
X21949029Y-133335124D01*
X21949026Y-133335121D01*
X21949023Y-133335118D01*
X21794199Y-133193978D01*
X21794194Y-133193974D01*
X21616069Y-133083684D01*
X21616063Y-133083682D01*
X21420701Y-133007998D01*
X21214756Y-132969500D01*
X21005244Y-132969500D01*
X20799299Y-133007998D01*
X20675752Y-133055860D01*
X20603936Y-133083682D01*
X20603930Y-133083684D01*
X20425805Y-133193974D01*
X20425800Y-133193978D01*
X20270976Y-133335118D01*
X20270973Y-133335121D01*
X20144712Y-133502318D01*
X20051328Y-133689856D01*
X20051323Y-133689869D01*
X19993987Y-133891381D01*
X19974657Y-134099999D01*
X15500500Y-134099999D01*
X15500500Y-127039994D01*
X18464769Y-127039994D01*
X18464769Y-127040005D01*
X18483660Y-127267993D01*
X18483662Y-127268005D01*
X18539824Y-127489784D01*
X18631725Y-127699296D01*
X18756855Y-127890823D01*
X18756858Y-127890826D01*
X18911809Y-128059148D01*
X19092350Y-128199669D01*
X19293559Y-128308558D01*
X19509946Y-128382843D01*
X19735609Y-128420500D01*
X19735610Y-128420500D01*
X19964390Y-128420500D01*
X19964391Y-128420500D01*
X20190054Y-128382843D01*
X20406441Y-128308558D01*
X20607650Y-128199669D01*
X20788191Y-128059148D01*
X20943142Y-127890826D01*
X21068274Y-127699297D01*
X21160175Y-127489784D01*
X21216338Y-127268002D01*
X21222023Y-127199393D01*
X21235231Y-127040005D01*
X21235231Y-127039994D01*
X21216339Y-126812006D01*
X21216337Y-126811994D01*
X21160175Y-126590215D01*
X21068274Y-126380703D01*
X20943144Y-126189176D01*
X20892395Y-126134048D01*
X20788191Y-126020852D01*
X20788186Y-126020848D01*
X20788184Y-126020846D01*
X20630503Y-125898118D01*
X28629500Y-125898118D01*
X28629500Y-128181881D01*
X28632221Y-128205333D01*
X28632221Y-128205335D01*
X28674580Y-128301267D01*
X28748733Y-128375420D01*
X28844667Y-128417779D01*
X28868120Y-128420500D01*
X28868121Y-128420500D01*
X31151879Y-128420500D01*
X31151880Y-128420500D01*
X31175333Y-128417779D01*
X31271267Y-128375420D01*
X31345420Y-128301267D01*
X31387779Y-128205333D01*
X31390500Y-128181880D01*
X31390500Y-126999999D01*
X32654871Y-126999999D01*
X32654871Y-127000000D01*
X32673346Y-127199391D01*
X32673347Y-127199393D01*
X32728145Y-127391989D01*
X32728151Y-127392004D01*
X32817401Y-127571241D01*
X32817406Y-127571249D01*
X32938081Y-127731049D01*
X33065386Y-127847102D01*
X33086064Y-127865952D01*
X33256316Y-127971368D01*
X33443040Y-128043705D01*
X33639877Y-128080500D01*
X33639879Y-128080500D01*
X33840121Y-128080500D01*
X33840123Y-128080500D01*
X34036960Y-128043705D01*
X34223684Y-127971368D01*
X34393936Y-127865952D01*
X34541920Y-127731047D01*
X34662595Y-127571247D01*
X34751853Y-127391994D01*
X34806653Y-127199392D01*
X34825129Y-127000000D01*
X34825129Y-126999999D01*
X40274871Y-126999999D01*
X40274871Y-127000000D01*
X40293346Y-127199391D01*
X40293347Y-127199393D01*
X40348145Y-127391989D01*
X40348151Y-127392004D01*
X40437401Y-127571241D01*
X40437406Y-127571249D01*
X40558081Y-127731049D01*
X40685386Y-127847102D01*
X40706064Y-127865952D01*
X40876316Y-127971368D01*
X41063040Y-128043705D01*
X41259877Y-128080500D01*
X41259879Y-128080500D01*
X41460121Y-128080500D01*
X41460123Y-128080500D01*
X41656960Y-128043705D01*
X41843684Y-127971368D01*
X42013936Y-127865952D01*
X42161920Y-127731047D01*
X42282595Y-127571247D01*
X42371853Y-127391994D01*
X42426653Y-127199392D01*
X42445129Y-127000000D01*
X42426653Y-126800608D01*
X42371853Y-126608006D01*
X42362995Y-126590216D01*
X42282598Y-126428758D01*
X42282593Y-126428750D01*
X42161918Y-126268950D01*
X42013937Y-126134049D01*
X42013936Y-126134048D01*
X41949101Y-126093903D01*
X41843685Y-126028632D01*
X41843683Y-126028631D01*
X41707152Y-125975739D01*
X41656960Y-125956295D01*
X41460123Y-125919500D01*
X41259877Y-125919500D01*
X41063040Y-125956295D01*
X41063037Y-125956295D01*
X41063037Y-125956296D01*
X40876316Y-126028631D01*
X40876314Y-126028632D01*
X40706062Y-126134049D01*
X40558081Y-126268950D01*
X40437406Y-126428750D01*
X40437401Y-126428758D01*
X40348151Y-126607995D01*
X40348145Y-126608010D01*
X40293347Y-126800606D01*
X40293346Y-126800608D01*
X40274871Y-126999999D01*
X34825129Y-126999999D01*
X34806653Y-126800608D01*
X34751853Y-126608006D01*
X34742995Y-126590216D01*
X34662598Y-126428758D01*
X34662593Y-126428750D01*
X34541918Y-126268950D01*
X34393937Y-126134049D01*
X34393936Y-126134048D01*
X34329101Y-126093903D01*
X34223685Y-126028632D01*
X34223683Y-126028631D01*
X34087152Y-125975739D01*
X34036960Y-125956295D01*
X33840123Y-125919500D01*
X33639877Y-125919500D01*
X33443040Y-125956295D01*
X33443037Y-125956295D01*
X33443037Y-125956296D01*
X33256316Y-126028631D01*
X33256314Y-126028632D01*
X33086062Y-126134049D01*
X32938081Y-126268950D01*
X32817406Y-126428750D01*
X32817401Y-126428758D01*
X32728151Y-126607995D01*
X32728145Y-126608010D01*
X32673347Y-126800606D01*
X32673346Y-126800608D01*
X32654871Y-126999999D01*
X31390500Y-126999999D01*
X31390500Y-125898120D01*
X31387779Y-125874667D01*
X31345420Y-125778733D01*
X31271267Y-125704580D01*
X31254456Y-125697157D01*
X31175334Y-125662221D01*
X31151881Y-125659500D01*
X31151880Y-125659500D01*
X28868120Y-125659500D01*
X28868118Y-125659500D01*
X28844666Y-125662221D01*
X28844664Y-125662221D01*
X28748732Y-125704580D01*
X28674580Y-125778732D01*
X28632221Y-125874664D01*
X28632221Y-125874666D01*
X28629500Y-125898118D01*
X20630503Y-125898118D01*
X20607654Y-125880334D01*
X20607649Y-125880330D01*
X20406442Y-125771442D01*
X20406437Y-125771440D01*
X20190056Y-125697157D01*
X20039612Y-125672052D01*
X19964391Y-125659500D01*
X19735609Y-125659500D01*
X19679193Y-125668914D01*
X19509943Y-125697157D01*
X19293562Y-125771440D01*
X19293557Y-125771442D01*
X19092350Y-125880330D01*
X19092345Y-125880334D01*
X18911815Y-126020846D01*
X18911812Y-126020849D01*
X18756855Y-126189176D01*
X18631725Y-126380703D01*
X18539824Y-126590215D01*
X18483662Y-126811994D01*
X18483660Y-126812006D01*
X18464769Y-127039994D01*
X15500500Y-127039994D01*
X15500500Y-121559997D01*
X20165034Y-121559997D01*
X20165034Y-121560002D01*
X20184858Y-121786599D01*
X20184860Y-121786610D01*
X20243730Y-122006317D01*
X20243735Y-122006331D01*
X20339863Y-122212478D01*
X20390974Y-122285472D01*
X21070000Y-121606446D01*
X21070000Y-121612661D01*
X21097259Y-121714394D01*
X21149920Y-121805606D01*
X21224394Y-121880080D01*
X21315606Y-121932741D01*
X21417339Y-121960000D01*
X21423553Y-121960000D01*
X20744526Y-122639025D01*
X20817513Y-122690132D01*
X20817521Y-122690136D01*
X21023668Y-122786264D01*
X21023682Y-122786269D01*
X21243389Y-122845139D01*
X21243400Y-122845141D01*
X21469998Y-122864966D01*
X21470002Y-122864966D01*
X21696599Y-122845141D01*
X21696610Y-122845139D01*
X21916317Y-122786269D01*
X21916331Y-122786264D01*
X22122478Y-122690136D01*
X22195471Y-122639024D01*
X21516447Y-121960000D01*
X21522661Y-121960000D01*
X21624394Y-121932741D01*
X21715606Y-121880080D01*
X21790080Y-121805606D01*
X21842741Y-121714394D01*
X21870000Y-121612661D01*
X21870000Y-121606447D01*
X22549024Y-122285471D01*
X22600136Y-122212478D01*
X22653118Y-122098859D01*
X22699290Y-122046419D01*
X22766483Y-122027267D01*
X22833365Y-122047483D01*
X22878699Y-122100648D01*
X22889500Y-122151263D01*
X22889500Y-122401881D01*
X22892221Y-122425333D01*
X22892221Y-122425335D01*
X22924126Y-122497591D01*
X22934580Y-122521267D01*
X23008733Y-122595420D01*
X23104667Y-122637779D01*
X23128120Y-122640500D01*
X23128121Y-122640500D01*
X24811879Y-122640500D01*
X24811880Y-122640500D01*
X24835333Y-122637779D01*
X24931267Y-122595420D01*
X25005420Y-122521267D01*
X25047779Y-122425333D01*
X25050500Y-122401880D01*
X25050500Y-121559997D01*
X27165034Y-121559997D01*
X27165034Y-121560002D01*
X27184858Y-121786599D01*
X27184860Y-121786610D01*
X27243730Y-122006317D01*
X27243735Y-122006331D01*
X27339863Y-122212478D01*
X27390974Y-122285472D01*
X28070000Y-121606446D01*
X28070000Y-121612661D01*
X28097259Y-121714394D01*
X28149920Y-121805606D01*
X28224394Y-121880080D01*
X28315606Y-121932741D01*
X28417339Y-121960000D01*
X28423553Y-121960000D01*
X27744526Y-122639025D01*
X27817513Y-122690132D01*
X27817521Y-122690136D01*
X28023668Y-122786264D01*
X28023682Y-122786269D01*
X28243389Y-122845139D01*
X28243400Y-122845141D01*
X28469998Y-122864966D01*
X28470002Y-122864966D01*
X28696599Y-122845141D01*
X28696610Y-122845139D01*
X28916317Y-122786269D01*
X28916331Y-122786264D01*
X29122478Y-122690136D01*
X29195471Y-122639024D01*
X28516447Y-121960000D01*
X28522661Y-121960000D01*
X28624394Y-121932741D01*
X28715606Y-121880080D01*
X28790080Y-121805606D01*
X28842741Y-121714394D01*
X28870000Y-121612661D01*
X28870000Y-121606447D01*
X29549024Y-122285471D01*
X29600136Y-122212478D01*
X29653118Y-122098859D01*
X29699290Y-122046419D01*
X29766483Y-122027267D01*
X29833365Y-122047483D01*
X29878699Y-122100648D01*
X29889500Y-122151263D01*
X29889500Y-122401881D01*
X29892221Y-122425333D01*
X29892221Y-122425335D01*
X29924126Y-122497591D01*
X29934580Y-122521267D01*
X30008733Y-122595420D01*
X30104667Y-122637779D01*
X30128120Y-122640500D01*
X30128121Y-122640500D01*
X31811879Y-122640500D01*
X31811880Y-122640500D01*
X31835333Y-122637779D01*
X31931267Y-122595420D01*
X32005420Y-122521267D01*
X32047725Y-122425455D01*
X35047000Y-122425455D01*
X35047000Y-122714544D01*
X35077359Y-122906228D01*
X35137335Y-123090812D01*
X35197929Y-123209732D01*
X35224613Y-123262103D01*
X35225446Y-123263736D01*
X35339514Y-123420739D01*
X35339518Y-123420744D01*
X35476755Y-123557981D01*
X35476760Y-123557985D01*
X35613706Y-123657481D01*
X35633767Y-123672056D01*
X35738464Y-123725402D01*
X35806687Y-123760164D01*
X35806689Y-123760164D01*
X35806692Y-123760166D01*
X35905630Y-123792313D01*
X35991271Y-123820140D01*
X36182956Y-123850500D01*
X36182961Y-123850500D01*
X36377044Y-123850500D01*
X36568728Y-123820140D01*
X36614034Y-123805419D01*
X36753308Y-123760166D01*
X36926233Y-123672056D01*
X37083246Y-123557980D01*
X37220480Y-123420746D01*
X37324086Y-123278142D01*
X37379415Y-123235477D01*
X37449028Y-123229498D01*
X37510823Y-123262103D01*
X37534889Y-123294733D01*
X37577711Y-123378776D01*
X37712097Y-123563742D01*
X37873757Y-123725402D01*
X38058723Y-123859788D01*
X38262429Y-123963582D01*
X38479871Y-124034234D01*
X38570000Y-124048509D01*
X38570000Y-123060747D01*
X38607708Y-123082518D01*
X38747591Y-123120000D01*
X38892409Y-123120000D01*
X39032292Y-123082518D01*
X39070000Y-123060747D01*
X39070000Y-124048508D01*
X39160128Y-124034234D01*
X39377570Y-123963582D01*
X39581276Y-123859788D01*
X39766238Y-123725405D01*
X39920046Y-123571597D01*
X39981370Y-123538112D01*
X40051061Y-123543096D01*
X40106995Y-123584967D01*
X40127378Y-123626724D01*
X40129719Y-123635330D01*
X40169490Y-123725402D01*
X40172080Y-123731267D01*
X40246233Y-123805420D01*
X40342167Y-123847779D01*
X40365620Y-123850500D01*
X40365621Y-123850500D01*
X42354379Y-123850500D01*
X42354380Y-123850500D01*
X42377833Y-123847779D01*
X42473767Y-123805420D01*
X42547920Y-123731267D01*
X42590279Y-123635333D01*
X42593000Y-123611880D01*
X42593000Y-121528120D01*
X42590279Y-121504667D01*
X42547920Y-121408733D01*
X42473767Y-121334580D01*
X42471070Y-121333389D01*
X42377834Y-121292221D01*
X42354381Y-121289500D01*
X42354380Y-121289500D01*
X40365620Y-121289500D01*
X40365618Y-121289500D01*
X40342166Y-121292221D01*
X40342164Y-121292221D01*
X40246232Y-121334580D01*
X40172080Y-121408732D01*
X40129720Y-121504667D01*
X40127378Y-121513277D01*
X40090783Y-121572796D01*
X40027819Y-121603083D01*
X39958476Y-121594520D01*
X39920047Y-121568402D01*
X39766242Y-121414597D01*
X39581276Y-121280211D01*
X39377568Y-121176417D01*
X39160124Y-121105765D01*
X39070000Y-121091490D01*
X39070000Y-122079252D01*
X39032292Y-122057482D01*
X38892409Y-122020000D01*
X38747591Y-122020000D01*
X38607708Y-122057482D01*
X38570000Y-122079252D01*
X38570000Y-121091490D01*
X38569999Y-121091490D01*
X38479875Y-121105765D01*
X38262431Y-121176417D01*
X38058723Y-121280211D01*
X37873757Y-121414597D01*
X37712097Y-121576257D01*
X37577707Y-121761228D01*
X37534888Y-121845266D01*
X37486914Y-121896062D01*
X37419093Y-121912857D01*
X37352958Y-121890319D01*
X37324088Y-121861858D01*
X37220480Y-121719254D01*
X37083246Y-121582020D01*
X37083244Y-121582018D01*
X37083239Y-121582014D01*
X36926236Y-121467946D01*
X36926235Y-121467945D01*
X36926233Y-121467944D01*
X36872232Y-121440429D01*
X36753312Y-121379835D01*
X36568728Y-121319859D01*
X36377044Y-121289500D01*
X36377039Y-121289500D01*
X36182961Y-121289500D01*
X36182956Y-121289500D01*
X35991271Y-121319859D01*
X35806687Y-121379835D01*
X35633763Y-121467946D01*
X35476760Y-121582014D01*
X35476755Y-121582018D01*
X35339518Y-121719255D01*
X35339514Y-121719260D01*
X35225446Y-121876263D01*
X35137335Y-122049187D01*
X35077359Y-122233771D01*
X35047000Y-122425455D01*
X32047725Y-122425455D01*
X32047779Y-122425333D01*
X32050500Y-122401880D01*
X32050500Y-120718120D01*
X32047779Y-120694667D01*
X32005420Y-120598733D01*
X31931267Y-120524580D01*
X31835334Y-120482221D01*
X31811881Y-120479500D01*
X31811880Y-120479500D01*
X30128120Y-120479500D01*
X30128118Y-120479500D01*
X30104666Y-120482221D01*
X30104664Y-120482221D01*
X30008732Y-120524580D01*
X29934580Y-120598732D01*
X29892221Y-120694664D01*
X29892221Y-120694666D01*
X29889500Y-120718118D01*
X29889500Y-120968736D01*
X29869815Y-121035775D01*
X29817011Y-121081530D01*
X29747853Y-121091474D01*
X29684297Y-121062449D01*
X29653118Y-121021141D01*
X29600134Y-120907517D01*
X29600132Y-120907513D01*
X29549025Y-120834526D01*
X28870000Y-121513551D01*
X28870000Y-121507339D01*
X28842741Y-121405606D01*
X28790080Y-121314394D01*
X28715606Y-121239920D01*
X28624394Y-121187259D01*
X28522661Y-121160000D01*
X28516448Y-121160000D01*
X29195472Y-120480974D01*
X29122478Y-120429863D01*
X28916331Y-120333735D01*
X28916317Y-120333730D01*
X28696610Y-120274860D01*
X28696599Y-120274858D01*
X28470002Y-120255034D01*
X28469998Y-120255034D01*
X28243400Y-120274858D01*
X28243389Y-120274860D01*
X28023682Y-120333730D01*
X28023673Y-120333734D01*
X27817516Y-120429866D01*
X27817512Y-120429868D01*
X27744526Y-120480973D01*
X27744526Y-120480974D01*
X28423553Y-121160000D01*
X28417339Y-121160000D01*
X28315606Y-121187259D01*
X28224394Y-121239920D01*
X28149920Y-121314394D01*
X28097259Y-121405606D01*
X28070000Y-121507339D01*
X28070000Y-121513552D01*
X27390974Y-120834526D01*
X27390973Y-120834526D01*
X27339868Y-120907512D01*
X27339866Y-120907516D01*
X27243734Y-121113673D01*
X27243730Y-121113682D01*
X27184860Y-121333389D01*
X27184858Y-121333400D01*
X27165034Y-121559997D01*
X25050500Y-121559997D01*
X25050500Y-120718120D01*
X25047779Y-120694667D01*
X25005420Y-120598733D01*
X24931267Y-120524580D01*
X24835334Y-120482221D01*
X24811881Y-120479500D01*
X24811880Y-120479500D01*
X24774500Y-120479500D01*
X24707461Y-120459815D01*
X24661706Y-120407011D01*
X24650500Y-120355500D01*
X24650500Y-108273234D01*
X24670185Y-108206195D01*
X24686815Y-108185557D01*
X24930177Y-107942194D01*
X24991498Y-107908711D01*
X25038261Y-107907568D01*
X25235609Y-107940500D01*
X25235610Y-107940500D01*
X25464390Y-107940500D01*
X25464391Y-107940500D01*
X25690054Y-107902843D01*
X25906441Y-107828558D01*
X26107650Y-107719669D01*
X26288191Y-107579148D01*
X26443142Y-107410826D01*
X26568274Y-107219297D01*
X26660175Y-107009784D01*
X26716338Y-106788002D01*
X26717405Y-106775124D01*
X26735231Y-106560005D01*
X26735231Y-106559994D01*
X26731917Y-106519999D01*
X27904871Y-106519999D01*
X27904871Y-106520000D01*
X27923346Y-106719391D01*
X27923347Y-106719393D01*
X27978145Y-106911989D01*
X27978151Y-106912004D01*
X28067401Y-107091241D01*
X28067406Y-107091249D01*
X28188081Y-107251049D01*
X28276202Y-107331381D01*
X28336064Y-107385952D01*
X28506316Y-107491368D01*
X28693040Y-107563705D01*
X28889877Y-107600500D01*
X28889879Y-107600500D01*
X29090121Y-107600500D01*
X29090123Y-107600500D01*
X29286960Y-107563705D01*
X29473684Y-107491368D01*
X29643936Y-107385952D01*
X29791920Y-107251047D01*
X29912595Y-107091247D01*
X30001853Y-106911994D01*
X30056653Y-106719392D01*
X30075129Y-106520000D01*
X30066093Y-106422489D01*
X30056653Y-106320608D01*
X30056652Y-106320606D01*
X30048898Y-106293354D01*
X30001853Y-106128006D01*
X29992995Y-106110216D01*
X29912598Y-105948758D01*
X29912593Y-105948750D01*
X29791918Y-105788950D01*
X29643937Y-105654049D01*
X29643936Y-105654048D01*
X29570353Y-105608487D01*
X29473685Y-105548632D01*
X29473683Y-105548631D01*
X29337152Y-105495739D01*
X29286960Y-105476295D01*
X29090123Y-105439500D01*
X28889877Y-105439500D01*
X28693040Y-105476295D01*
X28693037Y-105476295D01*
X28693037Y-105476296D01*
X28506316Y-105548631D01*
X28506314Y-105548632D01*
X28336062Y-105654049D01*
X28188081Y-105788950D01*
X28067406Y-105948750D01*
X28067401Y-105948758D01*
X27978151Y-106127995D01*
X27978145Y-106128010D01*
X27923347Y-106320606D01*
X27923346Y-106320608D01*
X27904871Y-106519999D01*
X26731917Y-106519999D01*
X26716339Y-106332006D01*
X26716337Y-106331994D01*
X26660175Y-106110215D01*
X26568274Y-105900703D01*
X26443144Y-105709176D01*
X26372902Y-105632873D01*
X26288191Y-105540852D01*
X26288186Y-105540848D01*
X26288184Y-105540846D01*
X26107654Y-105400334D01*
X26107649Y-105400330D01*
X25906442Y-105291442D01*
X25906437Y-105291440D01*
X25690056Y-105217157D01*
X25539612Y-105192052D01*
X25464391Y-105179500D01*
X25235609Y-105179500D01*
X25179193Y-105188914D01*
X25009943Y-105217157D01*
X24793562Y-105291440D01*
X24793557Y-105291442D01*
X24592350Y-105400330D01*
X24592345Y-105400334D01*
X24411815Y-105540846D01*
X24411812Y-105540849D01*
X24256855Y-105709176D01*
X24131725Y-105900703D01*
X24039824Y-106110215D01*
X23983662Y-106331994D01*
X23983660Y-106332006D01*
X23964769Y-106559994D01*
X23964769Y-106560005D01*
X23983661Y-106788000D01*
X24001921Y-106860109D01*
X23999295Y-106929929D01*
X23969396Y-106978229D01*
X23616246Y-107331381D01*
X23536206Y-107411421D01*
X23488812Y-107458814D01*
X23441419Y-107506207D01*
X23366263Y-107618686D01*
X23364617Y-107623288D01*
X23315651Y-107741502D01*
X23315648Y-107741512D01*
X23298334Y-107828556D01*
X23298335Y-107828557D01*
X23289500Y-107872977D01*
X23289500Y-120355500D01*
X23269815Y-120422539D01*
X23217011Y-120468294D01*
X23165500Y-120479500D01*
X23128118Y-120479500D01*
X23104666Y-120482221D01*
X23104664Y-120482221D01*
X23008732Y-120524580D01*
X22934580Y-120598732D01*
X22892221Y-120694664D01*
X22892221Y-120694666D01*
X22889500Y-120718118D01*
X22889500Y-120968736D01*
X22869815Y-121035775D01*
X22817011Y-121081530D01*
X22747853Y-121091474D01*
X22684297Y-121062449D01*
X22653118Y-121021141D01*
X22600134Y-120907517D01*
X22600132Y-120907513D01*
X22549025Y-120834526D01*
X21870000Y-121513551D01*
X21870000Y-121507339D01*
X21842741Y-121405606D01*
X21790080Y-121314394D01*
X21715606Y-121239920D01*
X21624394Y-121187259D01*
X21522661Y-121160000D01*
X21516448Y-121160000D01*
X22195472Y-120480974D01*
X22122478Y-120429863D01*
X21916331Y-120333735D01*
X21916317Y-120333730D01*
X21696610Y-120274860D01*
X21696599Y-120274858D01*
X21470002Y-120255034D01*
X21469998Y-120255034D01*
X21243400Y-120274858D01*
X21243389Y-120274860D01*
X21023682Y-120333730D01*
X21023673Y-120333734D01*
X20817516Y-120429866D01*
X20817512Y-120429868D01*
X20744526Y-120480973D01*
X20744526Y-120480974D01*
X21423553Y-121160000D01*
X21417339Y-121160000D01*
X21315606Y-121187259D01*
X21224394Y-121239920D01*
X21149920Y-121314394D01*
X21097259Y-121405606D01*
X21070000Y-121507339D01*
X21070000Y-121513552D01*
X20390974Y-120834526D01*
X20390973Y-120834526D01*
X20339868Y-120907512D01*
X20339866Y-120907516D01*
X20243734Y-121113673D01*
X20243730Y-121113682D01*
X20184860Y-121333389D01*
X20184858Y-121333400D01*
X20165034Y-121559997D01*
X15500500Y-121559997D01*
X15500500Y-110079999D01*
X16294657Y-110079999D01*
X16294657Y-110080000D01*
X16313987Y-110288618D01*
X16371323Y-110490130D01*
X16371328Y-110490143D01*
X16464712Y-110677681D01*
X16590973Y-110844878D01*
X16590976Y-110844881D01*
X16745800Y-110986021D01*
X16745805Y-110986025D01*
X16923930Y-111096315D01*
X16923931Y-111096315D01*
X16923934Y-111096317D01*
X17119299Y-111172002D01*
X17325244Y-111210500D01*
X17325246Y-111210500D01*
X17534754Y-111210500D01*
X17534756Y-111210500D01*
X17740701Y-111172002D01*
X17936066Y-111096317D01*
X18114197Y-110986023D01*
X18269029Y-110844876D01*
X18395288Y-110677681D01*
X18488676Y-110490133D01*
X18546012Y-110288619D01*
X18565343Y-110080000D01*
X18546012Y-109871381D01*
X18488676Y-109669867D01*
X18395288Y-109482319D01*
X18269029Y-109315124D01*
X18269026Y-109315121D01*
X18269023Y-109315118D01*
X18114199Y-109173978D01*
X18114194Y-109173974D01*
X17936069Y-109063684D01*
X17936063Y-109063682D01*
X17740701Y-108987998D01*
X17534756Y-108949500D01*
X17325244Y-108949500D01*
X17119299Y-108987998D01*
X16995752Y-109035860D01*
X16923936Y-109063682D01*
X16923930Y-109063684D01*
X16745805Y-109173974D01*
X16745800Y-109173978D01*
X16590976Y-109315118D01*
X16590973Y-109315121D01*
X16464712Y-109482318D01*
X16371328Y-109669856D01*
X16371323Y-109669869D01*
X16313987Y-109871381D01*
X16294657Y-110079999D01*
X15500500Y-110079999D01*
X15500500Y-104102155D01*
X16080000Y-104102155D01*
X16080000Y-104750000D01*
X16996988Y-104750000D01*
X16964075Y-104807007D01*
X16930000Y-104934174D01*
X16930000Y-105065826D01*
X16964075Y-105192993D01*
X16996988Y-105250000D01*
X16080000Y-105250000D01*
X16080000Y-105897844D01*
X16086401Y-105957372D01*
X16086403Y-105957379D01*
X16136645Y-106092086D01*
X16136649Y-106092093D01*
X16222809Y-106207187D01*
X16222812Y-106207190D01*
X16337906Y-106293350D01*
X16337913Y-106293354D01*
X16472620Y-106343596D01*
X16472627Y-106343598D01*
X16532155Y-106349999D01*
X16532172Y-106350000D01*
X16768627Y-106350000D01*
X16835666Y-106369685D01*
X16881421Y-106422489D01*
X16891365Y-106491647D01*
X16862340Y-106555203D01*
X16833904Y-106579427D01*
X16745805Y-106633975D01*
X16745800Y-106633978D01*
X16590976Y-106775118D01*
X16590973Y-106775121D01*
X16464712Y-106942318D01*
X16371328Y-107129856D01*
X16371323Y-107129869D01*
X16313987Y-107331381D01*
X16294657Y-107539999D01*
X16294657Y-107540000D01*
X16313987Y-107748618D01*
X16371323Y-107950130D01*
X16371328Y-107950143D01*
X16464712Y-108137681D01*
X16567076Y-108273234D01*
X16590973Y-108304878D01*
X16590976Y-108304881D01*
X16745800Y-108446021D01*
X16745805Y-108446025D01*
X16923930Y-108556315D01*
X16923931Y-108556315D01*
X16923934Y-108556317D01*
X17119299Y-108632002D01*
X17325244Y-108670500D01*
X17325246Y-108670500D01*
X17534754Y-108670500D01*
X17534756Y-108670500D01*
X17740701Y-108632002D01*
X17936066Y-108556317D01*
X18114197Y-108446023D01*
X18269029Y-108304876D01*
X18395288Y-108137681D01*
X18488676Y-107950133D01*
X18546012Y-107748619D01*
X18565343Y-107540000D01*
X18552131Y-107397422D01*
X18546012Y-107331381D01*
X18507044Y-107194424D01*
X18488676Y-107129867D01*
X18469446Y-107091249D01*
X18443156Y-107038451D01*
X18395288Y-106942319D01*
X18269029Y-106775124D01*
X18269026Y-106775121D01*
X18269023Y-106775118D01*
X18114199Y-106633978D01*
X18114194Y-106633975D01*
X18026096Y-106579427D01*
X17979460Y-106527399D01*
X17968356Y-106458418D01*
X17996309Y-106394383D01*
X18054444Y-106355627D01*
X18091373Y-106350000D01*
X18327828Y-106350000D01*
X18327844Y-106349999D01*
X18387372Y-106343598D01*
X18387379Y-106343596D01*
X18522086Y-106293354D01*
X18522093Y-106293350D01*
X18637187Y-106207190D01*
X18637190Y-106207187D01*
X18723350Y-106092093D01*
X18723354Y-106092086D01*
X18773596Y-105957379D01*
X18773598Y-105957372D01*
X18779999Y-105897844D01*
X18780000Y-105897827D01*
X18780000Y-105250000D01*
X17863012Y-105250000D01*
X17895925Y-105192993D01*
X17930000Y-105065826D01*
X17930000Y-104934174D01*
X17895925Y-104807007D01*
X17863012Y-104750000D01*
X18780000Y-104750000D01*
X18780000Y-104102172D01*
X18779999Y-104102155D01*
X18773598Y-104042627D01*
X18773596Y-104042620D01*
X18723354Y-103907913D01*
X18723350Y-103907906D01*
X18637190Y-103792812D01*
X18637187Y-103792809D01*
X18522093Y-103706649D01*
X18522086Y-103706645D01*
X18387379Y-103656403D01*
X18387372Y-103656401D01*
X18327844Y-103650000D01*
X17680000Y-103650000D01*
X17680000Y-104566988D01*
X17622993Y-104534075D01*
X17495826Y-104500000D01*
X17364174Y-104500000D01*
X17237007Y-104534075D01*
X17180000Y-104566988D01*
X17180000Y-103650000D01*
X16532155Y-103650000D01*
X16472627Y-103656401D01*
X16472620Y-103656403D01*
X16337913Y-103706645D01*
X16337906Y-103706649D01*
X16222812Y-103792809D01*
X16222809Y-103792812D01*
X16136649Y-103907906D01*
X16136645Y-103907913D01*
X16086403Y-104042620D01*
X16086401Y-104042627D01*
X16080000Y-104102155D01*
X15500500Y-104102155D01*
X15500500Y-99686845D01*
X15520185Y-99619806D01*
X15572989Y-99574051D01*
X15642147Y-99564107D01*
X15705703Y-99593132D01*
X15731887Y-99624845D01*
X15732244Y-99625464D01*
X15732245Y-99625466D01*
X15795504Y-99735034D01*
X15795505Y-99735035D01*
X16312933Y-100252463D01*
X16346418Y-100313786D01*
X16344518Y-100374078D01*
X16313988Y-100481379D01*
X16294657Y-100689999D01*
X16294657Y-100690000D01*
X16313987Y-100898618D01*
X16371323Y-101100130D01*
X16371328Y-101100143D01*
X16464712Y-101287681D01*
X16590973Y-101454878D01*
X16590976Y-101454881D01*
X16745800Y-101596021D01*
X16745805Y-101596025D01*
X16923930Y-101706315D01*
X16923931Y-101706315D01*
X16923934Y-101706317D01*
X17119299Y-101782002D01*
X17325244Y-101820500D01*
X17325246Y-101820500D01*
X17534754Y-101820500D01*
X17534756Y-101820500D01*
X17740701Y-101782002D01*
X17936066Y-101706317D01*
X18114197Y-101596023D01*
X18197594Y-101519997D01*
X27685034Y-101519997D01*
X27685034Y-101520002D01*
X27704858Y-101746599D01*
X27704860Y-101746610D01*
X27763730Y-101966317D01*
X27763735Y-101966331D01*
X27859863Y-102172478D01*
X27910974Y-102245472D01*
X28590000Y-101566446D01*
X28590000Y-101572661D01*
X28617259Y-101674394D01*
X28669920Y-101765606D01*
X28744394Y-101840080D01*
X28835606Y-101892741D01*
X28937339Y-101920000D01*
X28943553Y-101920000D01*
X28264526Y-102599025D01*
X28337513Y-102650132D01*
X28337521Y-102650136D01*
X28543668Y-102746264D01*
X28543682Y-102746269D01*
X28763389Y-102805139D01*
X28763400Y-102805141D01*
X28989998Y-102824966D01*
X28990002Y-102824966D01*
X29216599Y-102805141D01*
X29216610Y-102805139D01*
X29436317Y-102746269D01*
X29436331Y-102746264D01*
X29642478Y-102650136D01*
X29715471Y-102599024D01*
X29036447Y-101920000D01*
X29042661Y-101920000D01*
X29144394Y-101892741D01*
X29235606Y-101840080D01*
X29310080Y-101765606D01*
X29362741Y-101674394D01*
X29390000Y-101572661D01*
X29390000Y-101566447D01*
X30069024Y-102245471D01*
X30120136Y-102172478D01*
X30216264Y-101966331D01*
X30216269Y-101966317D01*
X30275139Y-101746610D01*
X30275141Y-101746599D01*
X30294966Y-101520002D01*
X30294966Y-101519997D01*
X30275141Y-101293400D01*
X30275139Y-101293389D01*
X30216269Y-101073682D01*
X30216264Y-101073668D01*
X30120136Y-100867521D01*
X30120132Y-100867513D01*
X30069025Y-100794526D01*
X29390000Y-101473551D01*
X29390000Y-101467339D01*
X29362741Y-101365606D01*
X29310080Y-101274394D01*
X29235606Y-101199920D01*
X29144394Y-101147259D01*
X29042661Y-101120000D01*
X29036448Y-101120000D01*
X29715472Y-100440974D01*
X29642478Y-100389863D01*
X29436331Y-100293735D01*
X29436317Y-100293730D01*
X29216610Y-100234860D01*
X29216599Y-100234858D01*
X28990002Y-100215034D01*
X28989998Y-100215034D01*
X28763400Y-100234858D01*
X28763389Y-100234860D01*
X28543682Y-100293730D01*
X28543673Y-100293734D01*
X28337516Y-100389866D01*
X28337512Y-100389868D01*
X28264526Y-100440973D01*
X28264526Y-100440974D01*
X28943553Y-101120000D01*
X28937339Y-101120000D01*
X28835606Y-101147259D01*
X28744394Y-101199920D01*
X28669920Y-101274394D01*
X28617259Y-101365606D01*
X28590000Y-101467339D01*
X28590000Y-101473552D01*
X27910974Y-100794526D01*
X27910973Y-100794526D01*
X27859868Y-100867512D01*
X27859866Y-100867516D01*
X27763734Y-101073673D01*
X27763730Y-101073682D01*
X27704860Y-101293389D01*
X27704858Y-101293400D01*
X27685034Y-101519997D01*
X18197594Y-101519997D01*
X18269029Y-101454876D01*
X18395288Y-101287681D01*
X18488676Y-101100133D01*
X18546012Y-100898619D01*
X18565343Y-100690000D01*
X18546012Y-100481381D01*
X18488676Y-100279867D01*
X18475030Y-100252463D01*
X18443156Y-100188451D01*
X18395288Y-100092319D01*
X18269029Y-99925124D01*
X18269026Y-99925121D01*
X18269023Y-99925118D01*
X18114199Y-99783978D01*
X18114194Y-99783974D01*
X17936069Y-99673684D01*
X17936063Y-99673682D01*
X17740701Y-99597998D01*
X17534756Y-99559500D01*
X17325244Y-99559500D01*
X17200460Y-99582826D01*
X17119287Y-99598000D01*
X17113778Y-99599568D01*
X17113305Y-99597907D01*
X17051622Y-99603080D01*
X16989893Y-99570350D01*
X16988811Y-99569281D01*
X16787698Y-99368168D01*
X16754213Y-99306845D01*
X16759197Y-99237153D01*
X16801069Y-99181220D01*
X16866533Y-99156803D01*
X16920173Y-99164860D01*
X16923933Y-99166316D01*
X16923934Y-99166317D01*
X17119299Y-99242002D01*
X17325244Y-99280500D01*
X17325246Y-99280500D01*
X17534754Y-99280500D01*
X17534756Y-99280500D01*
X17740701Y-99242002D01*
X17936066Y-99166317D01*
X18114197Y-99056023D01*
X18269029Y-98914876D01*
X18395288Y-98747681D01*
X18488676Y-98560133D01*
X18546012Y-98358619D01*
X18565343Y-98150000D01*
X18546012Y-97941381D01*
X18515481Y-97834077D01*
X18516067Y-97764211D01*
X18547064Y-97712464D01*
X21483760Y-94775770D01*
X21547019Y-94666202D01*
X21579764Y-94543995D01*
X21579764Y-94417477D01*
X21579764Y-94254889D01*
X21599449Y-94187850D01*
X21652253Y-94142095D01*
X21721411Y-94132151D01*
X21774888Y-94153315D01*
X21832414Y-94193595D01*
X21832420Y-94193599D01*
X22046507Y-94293429D01*
X22046516Y-94293433D01*
X22260000Y-94350634D01*
X22260000Y-93453012D01*
X22317007Y-93485925D01*
X22444174Y-93520000D01*
X22575826Y-93520000D01*
X22702993Y-93485925D01*
X22760000Y-93453012D01*
X22760000Y-94350633D01*
X22973483Y-94293433D01*
X22973492Y-94293429D01*
X23187578Y-94193600D01*
X23381082Y-94058105D01*
X23548105Y-93891082D01*
X23683600Y-93697578D01*
X23783429Y-93483492D01*
X23783432Y-93483486D01*
X23840636Y-93270000D01*
X22943012Y-93270000D01*
X22975925Y-93212993D01*
X23010000Y-93085826D01*
X23010000Y-92954174D01*
X22975925Y-92827007D01*
X22943012Y-92770000D01*
X23840636Y-92770000D01*
X23840635Y-92769999D01*
X23783432Y-92556513D01*
X23783429Y-92556507D01*
X23683600Y-92342422D01*
X23683599Y-92342420D01*
X23548113Y-92148926D01*
X23548108Y-92148920D01*
X23381082Y-91981894D01*
X23187578Y-91846399D01*
X22973484Y-91746566D01*
X22972564Y-91746231D01*
X22972215Y-91745974D01*
X22968584Y-91744281D01*
X22968924Y-91743550D01*
X22916305Y-91704798D01*
X22891377Y-91639526D01*
X22905695Y-91571139D01*
X22954713Y-91521349D01*
X22970196Y-91514087D01*
X23016057Y-91496321D01*
X23016061Y-91496318D01*
X23016066Y-91496317D01*
X23178161Y-91395952D01*
X23194194Y-91386025D01*
X23194194Y-91386024D01*
X23194197Y-91386023D01*
X23349029Y-91244876D01*
X23475288Y-91077681D01*
X23568676Y-90890133D01*
X23626012Y-90688619D01*
X23645343Y-90480000D01*
X23641453Y-90438024D01*
X23626012Y-90271381D01*
X23609708Y-90214078D01*
X23568676Y-90069867D01*
X23475288Y-89882319D01*
X23349029Y-89715124D01*
X23349026Y-89715121D01*
X23349023Y-89715118D01*
X23194199Y-89573978D01*
X23194194Y-89573974D01*
X23016069Y-89463684D01*
X23016063Y-89463682D01*
X22820701Y-89387998D01*
X22614756Y-89349500D01*
X22405244Y-89349500D01*
X22199299Y-89387998D01*
X22084566Y-89432446D01*
X22003936Y-89463682D01*
X22003930Y-89463684D01*
X21825805Y-89573974D01*
X21825800Y-89573978D01*
X21787301Y-89609075D01*
X21724497Y-89639691D01*
X21655110Y-89631493D01*
X21601170Y-89587083D01*
X21579803Y-89520560D01*
X21579764Y-89517437D01*
X21579764Y-88902562D01*
X21599449Y-88835523D01*
X21652253Y-88789768D01*
X21721411Y-88779824D01*
X21784967Y-88808849D01*
X21787302Y-88810925D01*
X21825800Y-88846021D01*
X21825805Y-88846025D01*
X22003930Y-88956315D01*
X22003931Y-88956315D01*
X22003934Y-88956317D01*
X22199299Y-89032002D01*
X22405244Y-89070500D01*
X22405246Y-89070500D01*
X22614754Y-89070500D01*
X22614756Y-89070500D01*
X22820701Y-89032002D01*
X23016066Y-88956317D01*
X23178161Y-88855952D01*
X23194194Y-88846025D01*
X23194194Y-88846024D01*
X23194197Y-88846023D01*
X23349029Y-88704876D01*
X23475288Y-88537681D01*
X23568676Y-88350133D01*
X23626012Y-88148619D01*
X23645343Y-87940000D01*
X23626012Y-87731381D01*
X23568676Y-87529867D01*
X23564499Y-87521479D01*
X23500185Y-87392319D01*
X23475288Y-87342319D01*
X23359472Y-87188954D01*
X23334782Y-87123596D01*
X23349347Y-87055261D01*
X23370744Y-87026552D01*
X24467819Y-85929478D01*
X24529142Y-85895993D01*
X24598834Y-85900977D01*
X24654767Y-85942849D01*
X24679184Y-86008313D01*
X24679500Y-86017159D01*
X24679500Y-94270488D01*
X24677108Y-94294727D01*
X24676999Y-94295268D01*
X24677000Y-94295269D01*
X24669500Y-94332977D01*
X24669500Y-94895500D01*
X24649815Y-94962539D01*
X24597011Y-95008294D01*
X24545500Y-95019500D01*
X24208118Y-95019500D01*
X24184666Y-95022221D01*
X24184664Y-95022221D01*
X24088732Y-95064580D01*
X24014580Y-95138732D01*
X23972221Y-95234664D01*
X23972221Y-95234666D01*
X23969500Y-95258118D01*
X23969500Y-97541881D01*
X23972221Y-97565333D01*
X23972221Y-97565335D01*
X24014580Y-97661267D01*
X24088733Y-97735420D01*
X24184667Y-97777779D01*
X24208120Y-97780500D01*
X24208121Y-97780500D01*
X26491879Y-97780500D01*
X26491880Y-97780500D01*
X26515333Y-97777779D01*
X26611267Y-97735420D01*
X26685420Y-97661267D01*
X26727779Y-97565333D01*
X26730500Y-97541880D01*
X26730500Y-95258120D01*
X26727779Y-95234667D01*
X26685420Y-95138733D01*
X26611267Y-95064580D01*
X26515334Y-95022221D01*
X26491881Y-95019500D01*
X26491880Y-95019500D01*
X26154500Y-95019500D01*
X26087461Y-94999815D01*
X26041706Y-94947011D01*
X26030500Y-94895500D01*
X26030500Y-94519508D01*
X26032883Y-94495316D01*
X26040500Y-94457023D01*
X26040500Y-91577979D01*
X26060185Y-91510940D01*
X26112989Y-91465185D01*
X26182147Y-91455241D01*
X26229777Y-91472552D01*
X26250819Y-91485581D01*
X26276312Y-91501366D01*
X26276314Y-91501367D01*
X26276316Y-91501368D01*
X26463040Y-91573705D01*
X26659877Y-91610500D01*
X26659879Y-91610500D01*
X26860121Y-91610500D01*
X26860123Y-91610500D01*
X27056960Y-91573705D01*
X27243684Y-91501368D01*
X27413936Y-91395952D01*
X27561920Y-91261047D01*
X27682595Y-91101247D01*
X27771853Y-90921994D01*
X27826653Y-90729392D01*
X27845129Y-90530000D01*
X27826653Y-90330608D01*
X27771853Y-90138006D01*
X27762821Y-90119867D01*
X27682598Y-89958758D01*
X27682593Y-89958750D01*
X27561918Y-89798950D01*
X27413937Y-89664049D01*
X27413936Y-89664048D01*
X27325152Y-89609075D01*
X27243685Y-89558632D01*
X27243683Y-89558631D01*
X27107152Y-89505739D01*
X27056960Y-89486295D01*
X26860123Y-89449500D01*
X26659877Y-89449500D01*
X26463040Y-89486295D01*
X26463037Y-89486295D01*
X26463037Y-89486296D01*
X26276316Y-89558631D01*
X26276314Y-89558632D01*
X26229778Y-89587447D01*
X26162417Y-89606003D01*
X26095718Y-89585195D01*
X26050856Y-89531629D01*
X26040500Y-89482020D01*
X26040500Y-89037979D01*
X26060185Y-88970940D01*
X26112989Y-88925185D01*
X26182147Y-88915241D01*
X26229777Y-88932552D01*
X26247933Y-88943794D01*
X26276312Y-88961366D01*
X26276314Y-88961367D01*
X26276316Y-88961368D01*
X26463040Y-89033705D01*
X26659877Y-89070500D01*
X26659879Y-89070500D01*
X26860121Y-89070500D01*
X26860123Y-89070500D01*
X27056960Y-89033705D01*
X27243684Y-88961368D01*
X27413936Y-88855952D01*
X27413945Y-88855943D01*
X27414624Y-88855432D01*
X27415013Y-88855284D01*
X27418810Y-88852934D01*
X27419269Y-88853676D01*
X27479983Y-88830734D01*
X27548319Y-88845293D01*
X27592462Y-88885488D01*
X27631420Y-88943794D01*
X27631423Y-88943797D01*
X28968164Y-90280537D01*
X29001649Y-90341860D01*
X29003954Y-90379658D01*
X28994657Y-90479998D01*
X28994657Y-90480000D01*
X29013987Y-90688618D01*
X29071323Y-90890130D01*
X29071328Y-90890143D01*
X29145837Y-91039775D01*
X29164712Y-91077681D01*
X29265562Y-91211229D01*
X29290973Y-91244878D01*
X29290976Y-91244881D01*
X29445800Y-91386021D01*
X29445805Y-91386025D01*
X29623930Y-91496315D01*
X29623932Y-91496316D01*
X29623934Y-91496317D01*
X29661680Y-91510940D01*
X29669804Y-91514087D01*
X29725206Y-91556659D01*
X29748797Y-91622426D01*
X29733086Y-91690506D01*
X29683063Y-91739286D01*
X29667442Y-91746229D01*
X29666513Y-91746567D01*
X29452422Y-91846399D01*
X29452420Y-91846400D01*
X29258926Y-91981886D01*
X29258920Y-91981891D01*
X29091891Y-92148920D01*
X29091886Y-92148926D01*
X28956400Y-92342420D01*
X28956399Y-92342422D01*
X28856570Y-92556507D01*
X28856567Y-92556513D01*
X28799364Y-92769999D01*
X28799364Y-92770000D01*
X29696988Y-92770000D01*
X29664075Y-92827007D01*
X29630000Y-92954174D01*
X29630000Y-93085826D01*
X29664075Y-93212993D01*
X29696988Y-93270000D01*
X28799364Y-93270000D01*
X28856567Y-93483486D01*
X28856570Y-93483492D01*
X28956399Y-93697578D01*
X29091894Y-93891082D01*
X29258917Y-94058105D01*
X29452421Y-94193600D01*
X29666507Y-94293429D01*
X29666516Y-94293433D01*
X29880000Y-94350634D01*
X29880000Y-93453012D01*
X29937007Y-93485925D01*
X30064174Y-93520000D01*
X30195826Y-93520000D01*
X30322993Y-93485925D01*
X30380000Y-93453012D01*
X30380000Y-94350633D01*
X30593483Y-94293433D01*
X30593492Y-94293429D01*
X30807578Y-94193600D01*
X31001082Y-94058105D01*
X31168105Y-93891082D01*
X31303600Y-93697578D01*
X31403429Y-93483492D01*
X31403432Y-93483486D01*
X31460636Y-93270000D01*
X30563012Y-93270000D01*
X30595925Y-93212993D01*
X30630000Y-93085826D01*
X30630000Y-92954174D01*
X30595925Y-92827007D01*
X30563012Y-92770000D01*
X31460636Y-92770000D01*
X31460635Y-92769999D01*
X31403432Y-92556513D01*
X31403429Y-92556507D01*
X31303600Y-92342422D01*
X31303599Y-92342420D01*
X31168113Y-92148926D01*
X31168108Y-92148920D01*
X31001082Y-91981894D01*
X30807578Y-91846399D01*
X30593484Y-91746566D01*
X30592564Y-91746231D01*
X30592215Y-91745974D01*
X30588584Y-91744281D01*
X30588924Y-91743550D01*
X30536305Y-91704798D01*
X30511377Y-91639526D01*
X30525695Y-91571139D01*
X30574713Y-91521349D01*
X30590196Y-91514087D01*
X30636057Y-91496321D01*
X30636061Y-91496318D01*
X30636066Y-91496317D01*
X30798161Y-91395952D01*
X30814194Y-91386025D01*
X30814194Y-91386024D01*
X30814197Y-91386023D01*
X30969029Y-91244876D01*
X31095288Y-91077681D01*
X31188676Y-90890133D01*
X31246012Y-90688619D01*
X31265343Y-90480000D01*
X31261453Y-90438024D01*
X31246012Y-90271381D01*
X31229708Y-90214078D01*
X31188676Y-90069867D01*
X31095288Y-89882319D01*
X30969029Y-89715124D01*
X30969026Y-89715121D01*
X30969023Y-89715118D01*
X30814199Y-89573978D01*
X30814194Y-89573974D01*
X30636069Y-89463684D01*
X30636063Y-89463682D01*
X30440701Y-89387998D01*
X30234756Y-89349500D01*
X30025244Y-89349500D01*
X30025242Y-89349500D01*
X30025203Y-89349504D01*
X30025183Y-89349500D01*
X30019511Y-89349500D01*
X30019511Y-89348390D01*
X29956634Y-89336086D01*
X29926086Y-89313713D01*
X29887307Y-89274934D01*
X29853822Y-89213611D01*
X29858806Y-89143919D01*
X29900678Y-89087986D01*
X29966142Y-89063569D01*
X29997774Y-89065365D01*
X30025244Y-89070500D01*
X30025245Y-89070500D01*
X30234754Y-89070500D01*
X30234756Y-89070500D01*
X30440701Y-89032002D01*
X30636066Y-88956317D01*
X30798161Y-88855952D01*
X30814194Y-88846025D01*
X30814194Y-88846024D01*
X30814197Y-88846023D01*
X30969029Y-88704876D01*
X31095288Y-88537681D01*
X31188676Y-88350133D01*
X31246012Y-88148619D01*
X31265343Y-87940000D01*
X31246012Y-87731381D01*
X31188676Y-87529867D01*
X31184499Y-87521479D01*
X31120185Y-87392319D01*
X31095288Y-87342319D01*
X30969029Y-87175124D01*
X30969026Y-87175121D01*
X30969023Y-87175118D01*
X30814199Y-87033978D01*
X30814194Y-87033974D01*
X30636069Y-86923684D01*
X30636063Y-86923682D01*
X30440701Y-86847998D01*
X30234756Y-86809500D01*
X30025244Y-86809500D01*
X29819299Y-86847998D01*
X29695752Y-86895860D01*
X29623936Y-86923682D01*
X29623930Y-86923684D01*
X29445805Y-87033974D01*
X29445800Y-87033978D01*
X29290976Y-87175118D01*
X29290973Y-87175121D01*
X29164712Y-87342318D01*
X29075500Y-87521479D01*
X29027997Y-87572716D01*
X28960334Y-87590137D01*
X28893994Y-87568211D01*
X28850039Y-87513900D01*
X28840500Y-87466207D01*
X28840500Y-85873792D01*
X28860185Y-85806753D01*
X28912989Y-85760998D01*
X28982147Y-85751054D01*
X29045703Y-85780079D01*
X29075500Y-85818520D01*
X29164712Y-85997681D01*
X29290973Y-86164878D01*
X29290976Y-86164881D01*
X29445800Y-86306021D01*
X29445805Y-86306025D01*
X29623930Y-86416315D01*
X29623931Y-86416315D01*
X29623934Y-86416317D01*
X29819299Y-86492002D01*
X30025244Y-86530500D01*
X30025246Y-86530500D01*
X30234754Y-86530500D01*
X30234756Y-86530500D01*
X30440701Y-86492002D01*
X30636066Y-86416317D01*
X30798161Y-86315952D01*
X30814194Y-86306025D01*
X30814194Y-86306024D01*
X30814197Y-86306023D01*
X30969029Y-86164876D01*
X31095288Y-85997681D01*
X31188676Y-85810133D01*
X31246012Y-85608619D01*
X31265343Y-85400000D01*
X31246012Y-85191381D01*
X31188676Y-84989867D01*
X31184499Y-84981479D01*
X31120185Y-84852319D01*
X31095288Y-84802319D01*
X30969029Y-84635124D01*
X30969026Y-84635121D01*
X30969023Y-84635118D01*
X30814199Y-84493978D01*
X30814194Y-84493974D01*
X30636069Y-84383684D01*
X30636063Y-84383682D01*
X30440701Y-84307998D01*
X30234756Y-84269500D01*
X30025244Y-84269500D01*
X29819299Y-84307998D01*
X29695752Y-84355860D01*
X29623936Y-84383682D01*
X29623930Y-84383684D01*
X29445805Y-84493974D01*
X29445800Y-84493978D01*
X29290976Y-84635118D01*
X29290973Y-84635121D01*
X29164712Y-84802318D01*
X29075500Y-84981479D01*
X29027997Y-85032716D01*
X28960334Y-85050137D01*
X28893994Y-85028211D01*
X28850039Y-84973900D01*
X28840500Y-84926207D01*
X28840500Y-83333792D01*
X28860185Y-83266753D01*
X28912989Y-83220998D01*
X28982147Y-83211054D01*
X29045703Y-83240079D01*
X29075500Y-83278520D01*
X29164712Y-83457681D01*
X29235767Y-83551774D01*
X29290973Y-83624878D01*
X29290976Y-83624881D01*
X29445800Y-83766021D01*
X29445805Y-83766025D01*
X29623930Y-83876315D01*
X29623931Y-83876315D01*
X29623934Y-83876317D01*
X29819299Y-83952002D01*
X30025244Y-83990500D01*
X30025246Y-83990500D01*
X30234754Y-83990500D01*
X30234756Y-83990500D01*
X30440701Y-83952002D01*
X30636066Y-83876317D01*
X30798161Y-83775952D01*
X30814194Y-83766025D01*
X30814194Y-83766024D01*
X30814197Y-83766023D01*
X30969029Y-83624876D01*
X31095288Y-83457681D01*
X31188676Y-83270133D01*
X31246012Y-83068619D01*
X31265343Y-82860000D01*
X31246012Y-82651381D01*
X31188676Y-82449867D01*
X31184499Y-82441479D01*
X31133346Y-82338750D01*
X31095288Y-82262319D01*
X30969029Y-82095124D01*
X30969026Y-82095121D01*
X30969023Y-82095118D01*
X30814199Y-81953978D01*
X30814194Y-81953974D01*
X30636069Y-81843684D01*
X30636063Y-81843682D01*
X30440701Y-81767998D01*
X30234756Y-81729500D01*
X30025244Y-81729500D01*
X29819299Y-81767998D01*
X29695752Y-81815860D01*
X29623936Y-81843682D01*
X29623930Y-81843684D01*
X29445805Y-81953974D01*
X29445800Y-81953978D01*
X29290976Y-82095118D01*
X29290973Y-82095121D01*
X29164712Y-82262318D01*
X29075500Y-82441479D01*
X29027997Y-82492716D01*
X28960334Y-82510137D01*
X28893994Y-82488211D01*
X28850039Y-82433900D01*
X28840500Y-82386207D01*
X28840500Y-80793792D01*
X28860185Y-80726753D01*
X28912989Y-80680998D01*
X28982147Y-80671054D01*
X29045703Y-80700079D01*
X29075500Y-80738520D01*
X29164712Y-80917681D01*
X29290973Y-81084878D01*
X29290976Y-81084881D01*
X29445800Y-81226021D01*
X29445805Y-81226025D01*
X29623930Y-81336315D01*
X29623931Y-81336315D01*
X29623934Y-81336317D01*
X29819299Y-81412002D01*
X30025244Y-81450500D01*
X30025246Y-81450500D01*
X30234754Y-81450500D01*
X30234756Y-81450500D01*
X30440701Y-81412002D01*
X30636066Y-81336317D01*
X30798161Y-81235952D01*
X30814194Y-81226025D01*
X30814194Y-81226024D01*
X30814197Y-81226023D01*
X30969029Y-81084876D01*
X31095288Y-80917681D01*
X31188676Y-80730133D01*
X31246012Y-80528619D01*
X31265343Y-80320000D01*
X31246012Y-80111381D01*
X31188676Y-79909867D01*
X31184499Y-79901479D01*
X31120185Y-79772319D01*
X31095288Y-79722319D01*
X30969029Y-79555124D01*
X30969026Y-79555121D01*
X30969023Y-79555118D01*
X30814199Y-79413978D01*
X30814194Y-79413974D01*
X30636069Y-79303684D01*
X30636063Y-79303682D01*
X30440701Y-79227998D01*
X30234756Y-79189500D01*
X30025244Y-79189500D01*
X29819299Y-79227998D01*
X29695752Y-79275860D01*
X29623936Y-79303682D01*
X29623930Y-79303684D01*
X29445805Y-79413974D01*
X29445800Y-79413978D01*
X29290976Y-79555118D01*
X29290973Y-79555121D01*
X29164712Y-79722318D01*
X29075500Y-79901479D01*
X29027997Y-79952716D01*
X28960334Y-79970137D01*
X28893994Y-79948211D01*
X28850039Y-79893900D01*
X28840500Y-79846207D01*
X28840500Y-78253792D01*
X28860185Y-78186753D01*
X28912989Y-78140998D01*
X28982147Y-78131054D01*
X29045703Y-78160079D01*
X29075500Y-78198520D01*
X29164712Y-78377681D01*
X29290973Y-78544878D01*
X29290976Y-78544881D01*
X29445800Y-78686021D01*
X29445805Y-78686025D01*
X29623930Y-78796315D01*
X29623931Y-78796315D01*
X29623934Y-78796317D01*
X29819299Y-78872002D01*
X30025244Y-78910500D01*
X30025246Y-78910500D01*
X30234754Y-78910500D01*
X30234756Y-78910500D01*
X30440701Y-78872002D01*
X30636066Y-78796317D01*
X30798161Y-78695952D01*
X30814194Y-78686025D01*
X30814194Y-78686024D01*
X30814197Y-78686023D01*
X30969029Y-78544876D01*
X31095288Y-78377681D01*
X31188676Y-78190133D01*
X31246012Y-77988619D01*
X31265343Y-77780000D01*
X31246012Y-77571381D01*
X31188676Y-77369867D01*
X31184499Y-77361479D01*
X31120185Y-77232319D01*
X31095288Y-77182319D01*
X30969029Y-77015124D01*
X30969026Y-77015121D01*
X30969023Y-77015118D01*
X30814199Y-76873978D01*
X30814194Y-76873974D01*
X30636069Y-76763684D01*
X30636063Y-76763682D01*
X30440701Y-76687998D01*
X30234756Y-76649500D01*
X30025244Y-76649500D01*
X29819299Y-76687998D01*
X29695752Y-76735860D01*
X29623936Y-76763682D01*
X29623930Y-76763684D01*
X29445805Y-76873974D01*
X29445800Y-76873978D01*
X29290976Y-77015118D01*
X29290973Y-77015121D01*
X29164712Y-77182318D01*
X29075500Y-77361479D01*
X29027997Y-77412716D01*
X28960334Y-77430137D01*
X28893994Y-77408211D01*
X28850039Y-77353900D01*
X28840500Y-77306207D01*
X28840500Y-75713792D01*
X28860185Y-75646753D01*
X28912989Y-75600998D01*
X28982147Y-75591054D01*
X29045703Y-75620079D01*
X29075500Y-75658520D01*
X29164712Y-75837681D01*
X29290973Y-76004878D01*
X29290976Y-76004881D01*
X29445800Y-76146021D01*
X29445805Y-76146025D01*
X29623930Y-76256315D01*
X29623931Y-76256315D01*
X29623934Y-76256317D01*
X29819299Y-76332002D01*
X30025244Y-76370500D01*
X30025246Y-76370500D01*
X30234754Y-76370500D01*
X30234756Y-76370500D01*
X30440701Y-76332002D01*
X30636066Y-76256317D01*
X30798161Y-76155952D01*
X30814194Y-76146025D01*
X30814194Y-76146024D01*
X30814197Y-76146023D01*
X30969029Y-76004876D01*
X31095288Y-75837681D01*
X31188676Y-75650133D01*
X31246012Y-75448619D01*
X31265343Y-75240000D01*
X31246012Y-75031381D01*
X31188676Y-74829867D01*
X31184499Y-74821479D01*
X31120185Y-74692319D01*
X31095288Y-74642319D01*
X30969029Y-74475124D01*
X30969026Y-74475121D01*
X30969023Y-74475118D01*
X30814199Y-74333978D01*
X30814194Y-74333974D01*
X30636069Y-74223684D01*
X30636063Y-74223682D01*
X30440701Y-74147998D01*
X30234756Y-74109500D01*
X30025244Y-74109500D01*
X29819299Y-74147998D01*
X29710957Y-74189970D01*
X29623936Y-74223682D01*
X29623930Y-74223684D01*
X29445805Y-74333974D01*
X29445800Y-74333978D01*
X29290976Y-74475118D01*
X29290973Y-74475121D01*
X29164712Y-74642318D01*
X29075500Y-74821479D01*
X29027997Y-74872716D01*
X28960334Y-74890137D01*
X28893994Y-74868211D01*
X28850039Y-74813900D01*
X28840500Y-74766207D01*
X28840500Y-73173792D01*
X28860185Y-73106753D01*
X28912989Y-73060998D01*
X28982147Y-73051054D01*
X29045703Y-73080079D01*
X29075500Y-73118520D01*
X29164712Y-73297681D01*
X29290973Y-73464878D01*
X29290976Y-73464881D01*
X29445800Y-73606021D01*
X29445805Y-73606025D01*
X29623930Y-73716315D01*
X29623931Y-73716315D01*
X29623934Y-73716317D01*
X29819299Y-73792002D01*
X30025244Y-73830500D01*
X30025246Y-73830500D01*
X30234754Y-73830500D01*
X30234756Y-73830500D01*
X30440701Y-73792002D01*
X30636066Y-73716317D01*
X30798161Y-73615952D01*
X30814194Y-73606025D01*
X30814194Y-73606024D01*
X30814197Y-73606023D01*
X30969029Y-73464876D01*
X31095288Y-73297681D01*
X31188676Y-73110133D01*
X31246012Y-72908619D01*
X31265343Y-72700000D01*
X31246012Y-72491381D01*
X31188676Y-72289867D01*
X31184499Y-72281479D01*
X31120185Y-72152319D01*
X31095288Y-72102319D01*
X30969029Y-71935124D01*
X30969026Y-71935121D01*
X30969023Y-71935118D01*
X30814199Y-71793978D01*
X30814194Y-71793974D01*
X30636069Y-71683684D01*
X30636063Y-71683682D01*
X30440701Y-71607998D01*
X30234756Y-71569500D01*
X30025244Y-71569500D01*
X29819299Y-71607998D01*
X29695752Y-71655860D01*
X29623936Y-71683682D01*
X29623930Y-71683684D01*
X29445805Y-71793974D01*
X29445800Y-71793978D01*
X29290976Y-71935118D01*
X29290973Y-71935121D01*
X29164712Y-72102318D01*
X29075500Y-72281479D01*
X29027997Y-72332716D01*
X28960334Y-72350137D01*
X28893994Y-72328211D01*
X28850039Y-72273900D01*
X28840500Y-72226207D01*
X28840500Y-70633792D01*
X28860185Y-70566753D01*
X28912989Y-70520998D01*
X28982147Y-70511054D01*
X29045703Y-70540079D01*
X29075500Y-70578520D01*
X29164712Y-70757681D01*
X29235767Y-70851774D01*
X29290973Y-70924878D01*
X29290976Y-70924881D01*
X29445800Y-71066021D01*
X29445805Y-71066025D01*
X29623930Y-71176315D01*
X29623931Y-71176315D01*
X29623934Y-71176317D01*
X29819299Y-71252002D01*
X30025244Y-71290500D01*
X30025246Y-71290500D01*
X30234754Y-71290500D01*
X30234756Y-71290500D01*
X30440701Y-71252002D01*
X30636066Y-71176317D01*
X30798161Y-71075952D01*
X30814194Y-71066025D01*
X30814194Y-71066024D01*
X30814197Y-71066023D01*
X30969029Y-70924876D01*
X31095288Y-70757681D01*
X31188676Y-70570133D01*
X31246012Y-70368619D01*
X31265343Y-70160000D01*
X31246012Y-69951381D01*
X31188676Y-69749867D01*
X31188668Y-69749851D01*
X31097566Y-69566894D01*
X31095288Y-69562319D01*
X30969029Y-69395124D01*
X30969026Y-69395121D01*
X30969023Y-69395118D01*
X30814199Y-69253978D01*
X30814194Y-69253974D01*
X30636069Y-69143684D01*
X30636063Y-69143682D01*
X30440701Y-69067998D01*
X30234756Y-69029500D01*
X30025244Y-69029500D01*
X29819299Y-69067998D01*
X29762583Y-69089970D01*
X29623936Y-69143682D01*
X29623930Y-69143684D01*
X29445805Y-69253974D01*
X29445800Y-69253978D01*
X29290976Y-69395118D01*
X29290973Y-69395121D01*
X29164712Y-69562318D01*
X29075500Y-69741479D01*
X29027997Y-69792716D01*
X28960334Y-69810137D01*
X28893994Y-69788211D01*
X28850039Y-69733900D01*
X28840500Y-69686207D01*
X28840500Y-68093792D01*
X28860185Y-68026753D01*
X28912989Y-67980998D01*
X28982147Y-67971054D01*
X29045703Y-68000079D01*
X29075500Y-68038520D01*
X29164712Y-68217681D01*
X29290973Y-68384878D01*
X29290976Y-68384881D01*
X29445800Y-68526021D01*
X29445805Y-68526025D01*
X29623930Y-68636315D01*
X29623931Y-68636315D01*
X29623934Y-68636317D01*
X29819299Y-68712002D01*
X30025244Y-68750500D01*
X30025246Y-68750500D01*
X30234754Y-68750500D01*
X30234756Y-68750500D01*
X30440701Y-68712002D01*
X30636066Y-68636317D01*
X30798161Y-68535952D01*
X30814194Y-68526025D01*
X30814194Y-68526024D01*
X30814197Y-68526023D01*
X30969029Y-68384876D01*
X31095288Y-68217681D01*
X31188676Y-68030133D01*
X31246012Y-67828619D01*
X31265343Y-67620000D01*
X31246012Y-67411381D01*
X31188676Y-67209867D01*
X31184499Y-67201479D01*
X31120185Y-67072319D01*
X31095288Y-67022319D01*
X30969029Y-66855124D01*
X30969026Y-66855121D01*
X30969023Y-66855118D01*
X30814199Y-66713978D01*
X30814194Y-66713974D01*
X30636069Y-66603684D01*
X30636063Y-66603682D01*
X30440701Y-66527998D01*
X30234756Y-66489500D01*
X30025244Y-66489500D01*
X29819299Y-66527998D01*
X29695752Y-66575860D01*
X29623936Y-66603682D01*
X29623930Y-66603684D01*
X29445805Y-66713974D01*
X29445800Y-66713978D01*
X29290976Y-66855118D01*
X29290973Y-66855121D01*
X29164712Y-67022318D01*
X29075500Y-67201479D01*
X29027997Y-67252716D01*
X28960334Y-67270137D01*
X28893994Y-67248211D01*
X28850039Y-67193900D01*
X28840500Y-67146207D01*
X28840500Y-65553792D01*
X28860185Y-65486753D01*
X28912989Y-65440998D01*
X28982147Y-65431054D01*
X29045703Y-65460079D01*
X29075500Y-65498520D01*
X29164712Y-65677681D01*
X29290973Y-65844878D01*
X29290976Y-65844881D01*
X29445800Y-65986021D01*
X29445805Y-65986025D01*
X29623930Y-66096315D01*
X29623931Y-66096315D01*
X29623934Y-66096317D01*
X29819299Y-66172002D01*
X30025244Y-66210500D01*
X30025246Y-66210500D01*
X30234754Y-66210500D01*
X30234756Y-66210500D01*
X30440701Y-66172002D01*
X30636066Y-66096317D01*
X30798161Y-65995952D01*
X30814194Y-65986025D01*
X30814194Y-65986024D01*
X30814197Y-65986023D01*
X30969029Y-65844876D01*
X31095288Y-65677681D01*
X31188676Y-65490133D01*
X31246012Y-65288619D01*
X31265343Y-65080000D01*
X31246012Y-64871381D01*
X31188676Y-64669867D01*
X31184499Y-64661479D01*
X31120185Y-64532319D01*
X31095288Y-64482319D01*
X30969029Y-64315124D01*
X30969026Y-64315121D01*
X30969023Y-64315118D01*
X30814199Y-64173978D01*
X30814194Y-64173974D01*
X30636069Y-64063684D01*
X30636063Y-64063682D01*
X30440701Y-63987998D01*
X30234756Y-63949500D01*
X30025244Y-63949500D01*
X29819299Y-63987998D01*
X29695752Y-64035860D01*
X29623936Y-64063682D01*
X29623930Y-64063684D01*
X29445805Y-64173974D01*
X29445800Y-64173978D01*
X29290976Y-64315118D01*
X29290973Y-64315121D01*
X29164712Y-64482318D01*
X29075500Y-64661479D01*
X29027997Y-64712716D01*
X28960334Y-64730137D01*
X28893994Y-64708211D01*
X28850039Y-64653900D01*
X28840500Y-64606207D01*
X28840500Y-63922977D01*
X28834589Y-63893260D01*
X28834589Y-63893259D01*
X28814350Y-63791505D01*
X28768992Y-63682002D01*
X28768616Y-63681095D01*
X28763052Y-63667662D01*
X28688580Y-63556207D01*
X28657393Y-63525020D01*
X28593794Y-63461421D01*
X27875879Y-62743506D01*
X27842394Y-62682183D01*
X27840089Y-62644382D01*
X27845129Y-62590000D01*
X27840496Y-62539999D01*
X28994657Y-62539999D01*
X28994657Y-62540000D01*
X29013987Y-62748618D01*
X29071323Y-62950130D01*
X29071328Y-62950143D01*
X29114243Y-63036326D01*
X29164712Y-63137681D01*
X29194119Y-63176623D01*
X29290973Y-63304878D01*
X29290976Y-63304881D01*
X29445800Y-63446021D01*
X29445805Y-63446025D01*
X29623930Y-63556315D01*
X29623931Y-63556315D01*
X29623934Y-63556317D01*
X29819299Y-63632002D01*
X30025244Y-63670500D01*
X30025246Y-63670500D01*
X30234754Y-63670500D01*
X30234756Y-63670500D01*
X30440701Y-63632002D01*
X30636066Y-63556317D01*
X30789327Y-63461422D01*
X30814194Y-63446025D01*
X30814194Y-63446024D01*
X30814197Y-63446023D01*
X30969029Y-63304876D01*
X31095288Y-63137681D01*
X31188676Y-62950133D01*
X31246012Y-62748619D01*
X31265343Y-62540000D01*
X31265096Y-62537339D01*
X31246012Y-62331381D01*
X31205785Y-62190000D01*
X31188676Y-62129867D01*
X31188668Y-62129851D01*
X31120185Y-61992319D01*
X31095288Y-61942319D01*
X30969029Y-61775124D01*
X30969026Y-61775121D01*
X30969023Y-61775118D01*
X30814199Y-61633978D01*
X30814194Y-61633974D01*
X30636069Y-61523684D01*
X30636063Y-61523682D01*
X30440701Y-61447998D01*
X30234756Y-61409500D01*
X30025244Y-61409500D01*
X29819299Y-61447998D01*
X29695752Y-61495860D01*
X29623936Y-61523682D01*
X29623930Y-61523684D01*
X29445805Y-61633974D01*
X29445800Y-61633978D01*
X29290976Y-61775118D01*
X29290973Y-61775121D01*
X29164712Y-61942318D01*
X29071328Y-62129856D01*
X29071323Y-62129869D01*
X29013987Y-62331381D01*
X28994657Y-62539999D01*
X27840496Y-62539999D01*
X27826653Y-62390608D01*
X27771853Y-62198006D01*
X27771848Y-62197995D01*
X27682598Y-62018758D01*
X27682593Y-62018750D01*
X27561918Y-61858950D01*
X27413937Y-61724049D01*
X27413936Y-61724048D01*
X27268469Y-61633978D01*
X27243685Y-61618632D01*
X27243683Y-61618631D01*
X27107152Y-61565739D01*
X27056960Y-61546295D01*
X26860123Y-61509500D01*
X26659877Y-61509500D01*
X26463040Y-61546295D01*
X26463037Y-61546295D01*
X26463037Y-61546296D01*
X26276316Y-61618631D01*
X26276314Y-61618632D01*
X26106062Y-61724049D01*
X25958081Y-61858950D01*
X25837406Y-62018750D01*
X25837401Y-62018758D01*
X25748151Y-62197995D01*
X25748145Y-62198010D01*
X25693347Y-62390606D01*
X25693346Y-62390608D01*
X25674871Y-62589999D01*
X25674871Y-62590000D01*
X25693346Y-62789391D01*
X25693347Y-62789393D01*
X25748145Y-62981989D01*
X25748151Y-62982004D01*
X25837401Y-63161241D01*
X25837406Y-63161249D01*
X25958081Y-63321049D01*
X26085386Y-63437102D01*
X26106064Y-63455952D01*
X26170781Y-63496023D01*
X26267980Y-63556207D01*
X26276316Y-63561368D01*
X26463040Y-63633705D01*
X26659877Y-63670500D01*
X26659879Y-63670500D01*
X26826765Y-63670500D01*
X26893804Y-63690185D01*
X26914446Y-63706819D01*
X27065253Y-63857626D01*
X27098738Y-63918949D01*
X27093754Y-63988641D01*
X27051882Y-64044574D01*
X26986418Y-64068991D01*
X26954789Y-64067196D01*
X26860123Y-64049500D01*
X26659877Y-64049500D01*
X26463040Y-64086295D01*
X26463037Y-64086295D01*
X26463037Y-64086296D01*
X26276316Y-64158631D01*
X26276314Y-64158632D01*
X26106062Y-64264049D01*
X25958081Y-64398950D01*
X25837406Y-64558750D01*
X25837401Y-64558758D01*
X25748151Y-64737995D01*
X25748145Y-64738010D01*
X25693347Y-64930606D01*
X25693346Y-64930608D01*
X25674871Y-65129999D01*
X25674871Y-65130000D01*
X25693346Y-65329391D01*
X25693347Y-65329393D01*
X25748145Y-65521989D01*
X25748151Y-65522004D01*
X25837401Y-65701241D01*
X25837406Y-65701249D01*
X25958081Y-65861049D01*
X26076532Y-65969030D01*
X26106064Y-65995952D01*
X26170781Y-66036023D01*
X26276312Y-66101366D01*
X26276316Y-66101368D01*
X26463040Y-66173705D01*
X26659877Y-66210500D01*
X26659879Y-66210500D01*
X26860121Y-66210500D01*
X26860123Y-66210500D01*
X27056960Y-66173705D01*
X27243684Y-66101368D01*
X27290222Y-66072552D01*
X27357581Y-66053996D01*
X27424281Y-66074803D01*
X27469143Y-66128368D01*
X27479500Y-66177979D01*
X27479500Y-66622020D01*
X27459815Y-66689059D01*
X27407011Y-66734814D01*
X27337853Y-66744758D01*
X27290222Y-66727447D01*
X27243685Y-66698632D01*
X27243683Y-66698631D01*
X27107152Y-66645739D01*
X27056960Y-66626295D01*
X26860123Y-66589500D01*
X26659877Y-66589500D01*
X26463040Y-66626295D01*
X26463037Y-66626295D01*
X26463037Y-66626296D01*
X26276316Y-66698631D01*
X26276314Y-66698632D01*
X26106062Y-66804049D01*
X25958081Y-66938950D01*
X25837406Y-67098750D01*
X25837401Y-67098758D01*
X25748151Y-67277995D01*
X25748145Y-67278010D01*
X25693347Y-67470606D01*
X25693346Y-67470608D01*
X25674871Y-67669999D01*
X25674871Y-67670000D01*
X25693346Y-67869391D01*
X25693347Y-67869393D01*
X25748145Y-68061989D01*
X25748151Y-68062004D01*
X25837401Y-68241241D01*
X25837406Y-68241249D01*
X25958081Y-68401049D01*
X26085386Y-68517102D01*
X26106064Y-68535952D01*
X26170781Y-68576023D01*
X26276312Y-68641366D01*
X26276316Y-68641368D01*
X26463040Y-68713705D01*
X26659877Y-68750500D01*
X26659879Y-68750500D01*
X26860121Y-68750500D01*
X26860123Y-68750500D01*
X27056960Y-68713705D01*
X27243684Y-68641368D01*
X27290222Y-68612552D01*
X27357581Y-68593996D01*
X27424281Y-68614803D01*
X27469143Y-68668368D01*
X27479500Y-68717979D01*
X27479500Y-69162020D01*
X27459815Y-69229059D01*
X27407011Y-69274814D01*
X27337853Y-69284758D01*
X27290222Y-69267447D01*
X27243685Y-69238632D01*
X27243683Y-69238631D01*
X27107152Y-69185739D01*
X27056960Y-69166295D01*
X26860123Y-69129500D01*
X26659877Y-69129500D01*
X26463040Y-69166295D01*
X26463037Y-69166295D01*
X26463037Y-69166296D01*
X26276316Y-69238631D01*
X26276314Y-69238632D01*
X26106062Y-69344049D01*
X25958081Y-69478950D01*
X25837406Y-69638750D01*
X25837401Y-69638758D01*
X25748151Y-69817995D01*
X25748145Y-69818010D01*
X25693347Y-70010606D01*
X25693346Y-70010608D01*
X25674871Y-70209999D01*
X25674871Y-70210000D01*
X25693346Y-70409391D01*
X25693347Y-70409393D01*
X25748145Y-70601989D01*
X25748151Y-70602004D01*
X25837401Y-70781241D01*
X25837406Y-70781249D01*
X25958081Y-70941049D01*
X26040499Y-71016182D01*
X26106064Y-71075952D01*
X26199808Y-71133996D01*
X26276312Y-71181366D01*
X26276316Y-71181368D01*
X26463040Y-71253705D01*
X26659877Y-71290500D01*
X26659879Y-71290500D01*
X26860121Y-71290500D01*
X26860123Y-71290500D01*
X27056960Y-71253705D01*
X27243684Y-71181368D01*
X27290222Y-71152552D01*
X27357581Y-71133996D01*
X27424281Y-71154803D01*
X27469143Y-71208368D01*
X27479500Y-71257979D01*
X27479500Y-71702020D01*
X27459815Y-71769059D01*
X27407011Y-71814814D01*
X27337853Y-71824758D01*
X27290222Y-71807447D01*
X27243685Y-71778632D01*
X27243683Y-71778631D01*
X27063023Y-71708644D01*
X27056960Y-71706295D01*
X26860123Y-71669500D01*
X26659877Y-71669500D01*
X26463040Y-71706295D01*
X26463037Y-71706295D01*
X26463037Y-71706296D01*
X26276316Y-71778631D01*
X26276314Y-71778632D01*
X26106062Y-71884049D01*
X25958081Y-72018950D01*
X25837406Y-72178750D01*
X25837401Y-72178758D01*
X25748151Y-72357995D01*
X25748145Y-72358010D01*
X25693347Y-72550606D01*
X25693347Y-72550608D01*
X25676981Y-72727218D01*
X25651195Y-72792155D01*
X25594394Y-72832842D01*
X25524613Y-72836362D01*
X25465829Y-72803457D01*
X25389590Y-72727218D01*
X25100819Y-72438446D01*
X25067334Y-72377123D01*
X25064500Y-72350765D01*
X25064500Y-58906976D01*
X25064499Y-58906972D01*
X25038351Y-58775512D01*
X25038348Y-58775503D01*
X25036926Y-58772071D01*
X25022097Y-58736269D01*
X24987055Y-58651667D01*
X24987048Y-58651655D01*
X24912580Y-58540207D01*
X24882030Y-58509657D01*
X24817794Y-58445421D01*
X23632372Y-57259999D01*
X25481127Y-57259999D01*
X25481128Y-57260000D01*
X26444314Y-57260000D01*
X26439920Y-57264394D01*
X26387259Y-57355606D01*
X26360000Y-57457339D01*
X26360000Y-57562661D01*
X26387259Y-57664394D01*
X26439920Y-57755606D01*
X26444314Y-57760000D01*
X25481128Y-57760000D01*
X25533730Y-57956317D01*
X25533734Y-57956326D01*
X25629865Y-58162482D01*
X25760342Y-58348820D01*
X25921179Y-58509657D01*
X26107517Y-58640134D01*
X26313673Y-58736265D01*
X26313682Y-58736269D01*
X26447297Y-58772071D01*
X26506958Y-58808436D01*
X26537487Y-58871283D01*
X26529192Y-58940658D01*
X26484707Y-58994536D01*
X26459998Y-59007473D01*
X26276316Y-59078631D01*
X26276314Y-59078632D01*
X26106062Y-59184049D01*
X25958081Y-59318950D01*
X25837406Y-59478750D01*
X25837401Y-59478758D01*
X25748151Y-59657995D01*
X25748145Y-59658010D01*
X25693347Y-59850606D01*
X25693346Y-59850608D01*
X25674871Y-60049999D01*
X25674871Y-60050000D01*
X25693346Y-60249391D01*
X25693347Y-60249393D01*
X25748145Y-60441989D01*
X25748151Y-60442004D01*
X25837401Y-60621241D01*
X25837406Y-60621249D01*
X25958081Y-60781049D01*
X26079656Y-60891878D01*
X26106064Y-60915952D01*
X26276316Y-61021368D01*
X26463040Y-61093705D01*
X26659877Y-61130500D01*
X26659879Y-61130500D01*
X26860121Y-61130500D01*
X26860123Y-61130500D01*
X27056960Y-61093705D01*
X27243684Y-61021368D01*
X27413936Y-60915952D01*
X27561920Y-60781047D01*
X27682595Y-60621247D01*
X27771853Y-60441994D01*
X27826653Y-60249392D01*
X27845129Y-60050000D01*
X27826653Y-59850608D01*
X27771853Y-59658006D01*
X27762821Y-59639867D01*
X27682598Y-59478758D01*
X27682593Y-59478750D01*
X27561918Y-59318950D01*
X27413937Y-59184049D01*
X27413936Y-59184048D01*
X27349101Y-59143903D01*
X27291306Y-59108118D01*
X28999500Y-59108118D01*
X28999500Y-60891881D01*
X29002221Y-60915333D01*
X29002221Y-60915335D01*
X29020187Y-60956023D01*
X29044580Y-61011267D01*
X29118733Y-61085420D01*
X29214667Y-61127779D01*
X29238120Y-61130500D01*
X29238121Y-61130500D01*
X31021879Y-61130500D01*
X31021880Y-61130500D01*
X31045333Y-61127779D01*
X31141267Y-61085420D01*
X31215420Y-61011267D01*
X31257779Y-60915333D01*
X31260500Y-60891880D01*
X31260500Y-59108120D01*
X31257779Y-59084667D01*
X31255114Y-59078632D01*
X31235265Y-59033678D01*
X31215420Y-58988733D01*
X31141267Y-58914580D01*
X31045334Y-58872221D01*
X31021881Y-58869500D01*
X31021880Y-58869500D01*
X29238120Y-58869500D01*
X29238118Y-58869500D01*
X29214666Y-58872221D01*
X29214664Y-58872221D01*
X29118732Y-58914580D01*
X29044580Y-58988732D01*
X29002221Y-59084664D01*
X29002221Y-59084666D01*
X28999500Y-59108118D01*
X27291306Y-59108118D01*
X27243685Y-59078632D01*
X27243683Y-59078631D01*
X27060001Y-59007473D01*
X27004600Y-58964900D01*
X26981009Y-58899133D01*
X26996720Y-58831053D01*
X27046744Y-58782274D01*
X27072702Y-58772071D01*
X27206317Y-58736269D01*
X27206326Y-58736265D01*
X27412482Y-58640134D01*
X27598820Y-58509657D01*
X27759657Y-58348820D01*
X27890134Y-58162482D01*
X27986265Y-57956326D01*
X27986269Y-57956317D01*
X28038872Y-57760000D01*
X27075686Y-57760000D01*
X27080080Y-57755606D01*
X27132741Y-57664394D01*
X27160000Y-57562661D01*
X27160000Y-57457339D01*
X27132741Y-57355606D01*
X27080080Y-57264394D01*
X27075686Y-57260000D01*
X28038872Y-57260000D01*
X28038872Y-57259999D01*
X27986269Y-57063682D01*
X27986265Y-57063673D01*
X27890134Y-56857517D01*
X27759657Y-56671179D01*
X27598820Y-56510342D01*
X27412482Y-56379865D01*
X27206326Y-56283734D01*
X27206319Y-56283731D01*
X27072701Y-56247928D01*
X27013041Y-56211563D01*
X26982512Y-56148716D01*
X26990807Y-56079340D01*
X27035292Y-56025462D01*
X27059998Y-56012528D01*
X27243684Y-55941368D01*
X27413936Y-55835952D01*
X27561920Y-55701047D01*
X27562880Y-55699776D01*
X27563495Y-55699319D01*
X27565783Y-55696810D01*
X27566273Y-55697257D01*
X27618988Y-55658138D01*
X27661836Y-55650500D01*
X30252765Y-55650500D01*
X30319804Y-55670185D01*
X30340446Y-55686819D01*
X31963181Y-57309553D01*
X31996666Y-57370876D01*
X31999500Y-57397234D01*
X31999500Y-103105020D01*
X32000097Y-103111081D01*
X31998492Y-103111239D01*
X31998492Y-103136760D01*
X32000097Y-103136919D01*
X31999500Y-103142980D01*
X31999500Y-105477027D01*
X32025648Y-105608487D01*
X32025651Y-105608496D01*
X32076944Y-105732332D01*
X32076951Y-105732344D01*
X32151420Y-105843793D01*
X32151423Y-105843797D01*
X32246202Y-105938576D01*
X32246206Y-105938579D01*
X32357655Y-106013048D01*
X32357667Y-106013055D01*
X32462196Y-106056351D01*
X32481505Y-106064349D01*
X32481507Y-106064349D01*
X32481512Y-106064351D01*
X32612972Y-106090499D01*
X32612976Y-106090500D01*
X32612977Y-106090500D01*
X32747024Y-106090500D01*
X32747025Y-106090499D01*
X32790847Y-106081783D01*
X32878487Y-106064351D01*
X32878490Y-106064349D01*
X32878495Y-106064349D01*
X32944411Y-106037045D01*
X33002332Y-106013055D01*
X33002335Y-106013053D01*
X33002338Y-106013052D01*
X33113794Y-105938579D01*
X33142373Y-105910000D01*
X36784755Y-105910000D01*
X36803710Y-106187126D01*
X36803710Y-106187130D01*
X36803711Y-106187132D01*
X36807879Y-106207190D01*
X36860227Y-106459105D01*
X36860228Y-106459108D01*
X36953248Y-106720840D01*
X36953247Y-106720840D01*
X37081047Y-106967482D01*
X37081051Y-106967488D01*
X37241235Y-107194417D01*
X37241241Y-107194424D01*
X37430829Y-107397422D01*
X37430832Y-107397425D01*
X37430837Y-107397430D01*
X37646314Y-107572734D01*
X37646316Y-107572735D01*
X37646317Y-107572736D01*
X37883656Y-107717065D01*
X38090443Y-107806885D01*
X38138438Y-107827732D01*
X38405917Y-107902676D01*
X38647855Y-107935929D01*
X38681109Y-107940500D01*
X38681110Y-107940500D01*
X38958891Y-107940500D01*
X38988559Y-107936422D01*
X39234083Y-107902676D01*
X39501562Y-107827732D01*
X39756345Y-107717064D01*
X39993686Y-107572734D01*
X40209163Y-107397430D01*
X40398763Y-107194419D01*
X40558953Y-106967481D01*
X40686750Y-106720844D01*
X40779773Y-106459103D01*
X40836289Y-106187132D01*
X40855245Y-105910000D01*
X40836289Y-105632868D01*
X40779773Y-105360897D01*
X40760620Y-105307007D01*
X40686751Y-105099159D01*
X40686752Y-105099159D01*
X40558952Y-104852517D01*
X40558948Y-104852511D01*
X40398764Y-104625582D01*
X40398758Y-104625575D01*
X40209170Y-104422577D01*
X40209166Y-104422573D01*
X40209163Y-104422570D01*
X39993686Y-104247266D01*
X39993684Y-104247265D01*
X39993682Y-104247263D01*
X39756343Y-104102934D01*
X39501563Y-103992268D01*
X39234088Y-103917325D01*
X39234084Y-103917324D01*
X39234083Y-103917324D01*
X39096486Y-103898412D01*
X38958891Y-103879500D01*
X38958890Y-103879500D01*
X38681110Y-103879500D01*
X38681109Y-103879500D01*
X38405917Y-103917324D01*
X38405911Y-103917325D01*
X38138436Y-103992268D01*
X37883656Y-104102934D01*
X37646317Y-104247263D01*
X37430843Y-104422564D01*
X37430829Y-104422577D01*
X37241241Y-104625575D01*
X37241235Y-104625582D01*
X37081051Y-104852511D01*
X37081047Y-104852517D01*
X36953248Y-105099159D01*
X36860228Y-105360891D01*
X36860227Y-105360894D01*
X36803710Y-105632873D01*
X36784755Y-105910000D01*
X33142373Y-105910000D01*
X33208579Y-105843794D01*
X33283052Y-105732338D01*
X33283053Y-105732335D01*
X33283055Y-105732332D01*
X33324253Y-105632868D01*
X33334349Y-105608495D01*
X33347805Y-105540849D01*
X33360499Y-105477027D01*
X33360500Y-105477024D01*
X33360500Y-103142973D01*
X33359903Y-103136910D01*
X33361538Y-103136749D01*
X33361538Y-103111250D01*
X33359903Y-103111090D01*
X33360500Y-103105027D01*
X33360500Y-100689999D01*
X34074657Y-100689999D01*
X34074657Y-100690000D01*
X34093987Y-100898618D01*
X34151323Y-101100130D01*
X34151328Y-101100143D01*
X34244712Y-101287681D01*
X34370973Y-101454878D01*
X34370976Y-101454881D01*
X34525800Y-101596021D01*
X34525805Y-101596025D01*
X34703930Y-101706315D01*
X34703931Y-101706315D01*
X34703934Y-101706317D01*
X34899299Y-101782002D01*
X35105244Y-101820500D01*
X35105246Y-101820500D01*
X35314754Y-101820500D01*
X35314756Y-101820500D01*
X35520701Y-101782002D01*
X35716066Y-101706317D01*
X35894197Y-101596023D01*
X36049029Y-101454876D01*
X36175288Y-101287681D01*
X36268676Y-101100133D01*
X36326012Y-100898619D01*
X36345343Y-100690000D01*
X36326012Y-100481381D01*
X36268676Y-100279867D01*
X36255030Y-100252463D01*
X36223156Y-100188451D01*
X36175288Y-100092319D01*
X36049029Y-99925124D01*
X36049026Y-99925121D01*
X36049023Y-99925118D01*
X35894199Y-99783978D01*
X35894194Y-99783974D01*
X35716069Y-99673684D01*
X35716063Y-99673682D01*
X35520701Y-99597998D01*
X35314756Y-99559500D01*
X35105244Y-99559500D01*
X34899299Y-99597998D01*
X34775752Y-99645860D01*
X34703936Y-99673682D01*
X34703930Y-99673684D01*
X34525805Y-99783974D01*
X34525800Y-99783978D01*
X34370976Y-99925118D01*
X34370973Y-99925121D01*
X34244712Y-100092318D01*
X34151328Y-100279856D01*
X34151323Y-100279869D01*
X34093987Y-100481381D01*
X34074657Y-100689999D01*
X33360500Y-100689999D01*
X33360500Y-95359999D01*
X33879364Y-95359999D01*
X33879364Y-95360000D01*
X34776988Y-95360000D01*
X34744075Y-95417007D01*
X34710000Y-95544174D01*
X34710000Y-95675826D01*
X34744075Y-95802993D01*
X34776988Y-95860000D01*
X33879364Y-95860000D01*
X33936567Y-96073486D01*
X33936570Y-96073492D01*
X34036399Y-96287578D01*
X34171894Y-96481082D01*
X34338917Y-96648105D01*
X34532421Y-96783600D01*
X34746506Y-96883429D01*
X34747425Y-96883764D01*
X34747772Y-96884020D01*
X34751416Y-96885719D01*
X34751074Y-96886451D01*
X34803687Y-96925192D01*
X34828621Y-96990461D01*
X34814310Y-97058849D01*
X34765297Y-97108644D01*
X34749806Y-97115911D01*
X34703942Y-97133678D01*
X34703930Y-97133684D01*
X34525805Y-97243974D01*
X34525800Y-97243978D01*
X34370976Y-97385118D01*
X34370973Y-97385121D01*
X34244712Y-97552318D01*
X34151328Y-97739856D01*
X34151323Y-97739869D01*
X34093987Y-97941381D01*
X34074657Y-98149999D01*
X34074657Y-98150000D01*
X34093987Y-98358618D01*
X34151323Y-98560130D01*
X34151328Y-98560143D01*
X34244712Y-98747681D01*
X34370973Y-98914878D01*
X34370976Y-98914881D01*
X34525800Y-99056021D01*
X34525805Y-99056025D01*
X34703930Y-99166315D01*
X34703931Y-99166315D01*
X34703934Y-99166317D01*
X34899299Y-99242002D01*
X35105244Y-99280500D01*
X35105246Y-99280500D01*
X35314754Y-99280500D01*
X35314756Y-99280500D01*
X35520701Y-99242002D01*
X35716066Y-99166317D01*
X35894197Y-99056023D01*
X36049029Y-98914876D01*
X36175288Y-98747681D01*
X36268676Y-98560133D01*
X36326012Y-98358619D01*
X36345343Y-98150000D01*
X36326012Y-97941381D01*
X36268676Y-97739867D01*
X36266461Y-97735419D01*
X36181768Y-97565333D01*
X36175288Y-97552319D01*
X36049029Y-97385124D01*
X36049026Y-97385121D01*
X36049023Y-97385118D01*
X35894199Y-97243978D01*
X35894194Y-97243974D01*
X35716069Y-97133684D01*
X35716063Y-97133681D01*
X35670194Y-97115912D01*
X35614792Y-97073339D01*
X35591202Y-97007572D01*
X35606913Y-96939492D01*
X35656937Y-96890713D01*
X35672581Y-96883762D01*
X35673491Y-96883430D01*
X35887578Y-96783600D01*
X36081082Y-96648105D01*
X36248105Y-96481082D01*
X36383600Y-96287578D01*
X36483429Y-96073492D01*
X36483432Y-96073486D01*
X36540636Y-95860000D01*
X35643012Y-95860000D01*
X35675925Y-95802993D01*
X35710000Y-95675826D01*
X35710000Y-95544174D01*
X35675925Y-95417007D01*
X35643012Y-95360000D01*
X36540636Y-95360000D01*
X36540635Y-95359999D01*
X36483432Y-95146513D01*
X36483429Y-95146507D01*
X36383600Y-94932422D01*
X36383599Y-94932420D01*
X36248113Y-94738926D01*
X36248108Y-94738920D01*
X36081082Y-94571894D01*
X35887578Y-94436399D01*
X35673484Y-94336566D01*
X35672564Y-94336231D01*
X35672215Y-94335974D01*
X35668584Y-94334281D01*
X35668924Y-94333550D01*
X35616305Y-94294798D01*
X35591377Y-94229526D01*
X35605695Y-94161139D01*
X35654713Y-94111349D01*
X35670196Y-94104087D01*
X35716057Y-94086321D01*
X35716061Y-94086318D01*
X35716066Y-94086317D01*
X35894197Y-93976023D01*
X36049029Y-93834876D01*
X36175288Y-93667681D01*
X36268676Y-93480133D01*
X36326012Y-93278619D01*
X36345343Y-93070000D01*
X36326012Y-92861381D01*
X36268676Y-92659867D01*
X36252755Y-92627894D01*
X36194903Y-92511712D01*
X36175288Y-92472319D01*
X36049029Y-92305124D01*
X36049026Y-92305121D01*
X36049023Y-92305118D01*
X35894199Y-92163978D01*
X35894194Y-92163974D01*
X35716069Y-92053684D01*
X35716063Y-92053682D01*
X35520701Y-91977998D01*
X35314756Y-91939500D01*
X35105244Y-91939500D01*
X34899299Y-91977998D01*
X34775752Y-92025860D01*
X34703936Y-92053682D01*
X34703930Y-92053684D01*
X34525805Y-92163974D01*
X34525800Y-92163978D01*
X34370976Y-92305118D01*
X34370973Y-92305121D01*
X34244712Y-92472318D01*
X34151328Y-92659856D01*
X34151323Y-92659869D01*
X34093987Y-92861381D01*
X34074657Y-93069999D01*
X34074657Y-93070000D01*
X34093987Y-93278618D01*
X34151323Y-93480130D01*
X34151328Y-93480143D01*
X34244712Y-93667681D01*
X34370973Y-93834878D01*
X34370976Y-93834881D01*
X34525800Y-93976021D01*
X34525805Y-93976025D01*
X34703930Y-94086315D01*
X34703932Y-94086316D01*
X34703934Y-94086317D01*
X34703937Y-94086318D01*
X34703939Y-94086319D01*
X34749804Y-94104087D01*
X34805206Y-94146659D01*
X34828797Y-94212426D01*
X34813086Y-94280506D01*
X34763063Y-94329286D01*
X34747442Y-94336229D01*
X34746513Y-94336567D01*
X34532422Y-94436399D01*
X34532420Y-94436400D01*
X34338926Y-94571886D01*
X34338920Y-94571891D01*
X34171891Y-94738920D01*
X34171886Y-94738926D01*
X34036400Y-94932420D01*
X34036399Y-94932422D01*
X33936570Y-95146507D01*
X33936567Y-95146513D01*
X33879364Y-95359999D01*
X33360500Y-95359999D01*
X33360500Y-90529999D01*
X34074657Y-90529999D01*
X34074657Y-90530000D01*
X34093987Y-90738618D01*
X34151323Y-90940130D01*
X34151328Y-90940143D01*
X34219815Y-91077681D01*
X34244712Y-91127681D01*
X34345426Y-91261049D01*
X34370973Y-91294878D01*
X34370976Y-91294881D01*
X34525800Y-91436021D01*
X34525805Y-91436025D01*
X34703930Y-91546315D01*
X34703931Y-91546315D01*
X34703934Y-91546317D01*
X34899299Y-91622002D01*
X35105244Y-91660500D01*
X35105246Y-91660500D01*
X35314754Y-91660500D01*
X35314756Y-91660500D01*
X35520701Y-91622002D01*
X35716066Y-91546317D01*
X35863159Y-91455241D01*
X35894194Y-91436025D01*
X35894194Y-91436024D01*
X35894197Y-91436023D01*
X36049029Y-91294876D01*
X36175288Y-91127681D01*
X36268676Y-90940133D01*
X36326012Y-90738619D01*
X36345343Y-90530000D01*
X36345343Y-90529999D01*
X40914871Y-90529999D01*
X40914871Y-90530000D01*
X40933346Y-90729391D01*
X40933347Y-90729393D01*
X40988145Y-90921989D01*
X40988151Y-90922004D01*
X41077401Y-91101241D01*
X41077406Y-91101249D01*
X41198081Y-91261049D01*
X41320279Y-91372446D01*
X41346064Y-91395952D01*
X41435423Y-91451281D01*
X41516312Y-91501366D01*
X41516316Y-91501368D01*
X41703040Y-91573705D01*
X41899877Y-91610500D01*
X41899879Y-91610500D01*
X42100121Y-91610500D01*
X42100123Y-91610500D01*
X42296960Y-91573705D01*
X42483684Y-91501368D01*
X42653936Y-91395952D01*
X42801920Y-91261047D01*
X42922595Y-91101247D01*
X43011853Y-90921994D01*
X43066653Y-90729392D01*
X43085129Y-90530000D01*
X43066653Y-90330608D01*
X43011853Y-90138006D01*
X43002821Y-90119867D01*
X42922598Y-89958758D01*
X42922593Y-89958750D01*
X42801918Y-89798950D01*
X42653937Y-89664049D01*
X42653936Y-89664048D01*
X42565152Y-89609075D01*
X42483685Y-89558632D01*
X42483683Y-89558631D01*
X42347152Y-89505739D01*
X42296960Y-89486295D01*
X42100123Y-89449500D01*
X41899877Y-89449500D01*
X41703040Y-89486295D01*
X41703037Y-89486295D01*
X41703037Y-89486296D01*
X41516316Y-89558631D01*
X41516314Y-89558632D01*
X41346062Y-89664049D01*
X41198081Y-89798950D01*
X41077406Y-89958750D01*
X41077401Y-89958758D01*
X40988151Y-90137995D01*
X40988145Y-90138010D01*
X40933347Y-90330606D01*
X40933346Y-90330608D01*
X40914871Y-90529999D01*
X36345343Y-90529999D01*
X36326012Y-90321381D01*
X36268676Y-90119867D01*
X36243773Y-90069856D01*
X36188453Y-89958758D01*
X36175288Y-89932319D01*
X36049029Y-89765124D01*
X36049026Y-89765121D01*
X36049023Y-89765118D01*
X35894199Y-89623978D01*
X35894194Y-89623974D01*
X35716069Y-89513684D01*
X35716063Y-89513682D01*
X35520701Y-89437998D01*
X35314756Y-89399500D01*
X35105244Y-89399500D01*
X34899299Y-89437998D01*
X34785665Y-89482020D01*
X34703936Y-89513682D01*
X34703930Y-89513684D01*
X34525805Y-89623974D01*
X34525800Y-89623978D01*
X34370976Y-89765118D01*
X34370973Y-89765121D01*
X34244712Y-89932318D01*
X34151328Y-90119856D01*
X34151323Y-90119869D01*
X34093987Y-90321381D01*
X34074657Y-90529999D01*
X33360500Y-90529999D01*
X33360500Y-87989999D01*
X34074657Y-87989999D01*
X34074657Y-87990000D01*
X34093987Y-88198618D01*
X34151323Y-88400130D01*
X34151328Y-88400143D01*
X34219815Y-88537681D01*
X34244712Y-88587681D01*
X34370945Y-88754842D01*
X34370973Y-88754878D01*
X34370976Y-88754881D01*
X34525800Y-88896021D01*
X34525805Y-88896025D01*
X34703930Y-89006315D01*
X34703931Y-89006315D01*
X34703934Y-89006317D01*
X34899299Y-89082002D01*
X35105244Y-89120500D01*
X35105246Y-89120500D01*
X35314754Y-89120500D01*
X35314756Y-89120500D01*
X35520701Y-89082002D01*
X35716066Y-89006317D01*
X35894197Y-88896023D01*
X36049029Y-88754876D01*
X36175288Y-88587681D01*
X36268676Y-88400133D01*
X36326012Y-88198619D01*
X36345343Y-87990000D01*
X36345343Y-87989999D01*
X40914871Y-87989999D01*
X40914871Y-87990000D01*
X40933346Y-88189391D01*
X40933347Y-88189393D01*
X40988145Y-88381989D01*
X40988151Y-88382004D01*
X41077401Y-88561241D01*
X41077406Y-88561249D01*
X41198081Y-88721049D01*
X41318401Y-88830734D01*
X41346064Y-88855952D01*
X41441819Y-88915241D01*
X41516312Y-88961366D01*
X41516316Y-88961368D01*
X41703040Y-89033705D01*
X41899877Y-89070500D01*
X41899879Y-89070500D01*
X42100121Y-89070500D01*
X42100123Y-89070500D01*
X42296960Y-89033705D01*
X42483684Y-88961368D01*
X42653936Y-88855952D01*
X42801920Y-88721047D01*
X42922595Y-88561247D01*
X43011853Y-88381994D01*
X43066653Y-88189392D01*
X43085129Y-87990000D01*
X43066653Y-87790608D01*
X43011853Y-87598006D01*
X43002821Y-87579867D01*
X42922598Y-87418758D01*
X42922593Y-87418750D01*
X42801918Y-87258950D01*
X42653937Y-87124049D01*
X42653936Y-87124048D01*
X42573907Y-87074496D01*
X42483685Y-87018632D01*
X42483683Y-87018631D01*
X42347152Y-86965739D01*
X42296960Y-86946295D01*
X42100123Y-86909500D01*
X41899877Y-86909500D01*
X41703040Y-86946295D01*
X41703037Y-86946295D01*
X41703037Y-86946296D01*
X41516316Y-87018631D01*
X41516314Y-87018632D01*
X41346062Y-87124049D01*
X41198081Y-87258950D01*
X41077406Y-87418750D01*
X41077401Y-87418758D01*
X40988151Y-87597995D01*
X40988145Y-87598010D01*
X40933347Y-87790606D01*
X40933346Y-87790608D01*
X40914871Y-87989999D01*
X36345343Y-87989999D01*
X36326012Y-87781381D01*
X36268676Y-87579867D01*
X36265115Y-87572716D01*
X36212080Y-87466207D01*
X36175288Y-87392319D01*
X36049029Y-87225124D01*
X36049026Y-87225121D01*
X36049023Y-87225118D01*
X35894199Y-87083978D01*
X35894194Y-87083974D01*
X35716069Y-86973684D01*
X35716063Y-86973682D01*
X35520701Y-86897998D01*
X35314756Y-86859500D01*
X35105244Y-86859500D01*
X34899299Y-86897998D01*
X34785665Y-86942020D01*
X34703936Y-86973682D01*
X34703930Y-86973684D01*
X34525805Y-87083974D01*
X34525800Y-87083978D01*
X34370976Y-87225118D01*
X34370973Y-87225121D01*
X34244712Y-87392318D01*
X34151328Y-87579856D01*
X34151323Y-87579869D01*
X34093987Y-87781381D01*
X34074657Y-87989999D01*
X33360500Y-87989999D01*
X33360500Y-82659999D01*
X33879364Y-82659999D01*
X33879364Y-82660000D01*
X34776988Y-82660000D01*
X34744075Y-82717007D01*
X34710000Y-82844174D01*
X34710000Y-82975826D01*
X34744075Y-83102993D01*
X34776988Y-83160000D01*
X33879364Y-83160000D01*
X33936567Y-83373486D01*
X33936570Y-83373492D01*
X34036399Y-83587578D01*
X34171894Y-83781082D01*
X34338917Y-83948105D01*
X34532421Y-84083600D01*
X34746506Y-84183429D01*
X34747425Y-84183764D01*
X34747772Y-84184020D01*
X34751416Y-84185719D01*
X34751074Y-84186451D01*
X34803687Y-84225192D01*
X34828621Y-84290461D01*
X34814310Y-84358849D01*
X34765297Y-84408644D01*
X34749806Y-84415911D01*
X34703942Y-84433678D01*
X34703930Y-84433684D01*
X34525805Y-84543974D01*
X34525800Y-84543978D01*
X34370976Y-84685118D01*
X34370973Y-84685121D01*
X34244712Y-84852318D01*
X34151328Y-85039856D01*
X34151323Y-85039869D01*
X34093987Y-85241381D01*
X34074657Y-85449999D01*
X34074657Y-85450000D01*
X34093987Y-85658618D01*
X34151323Y-85860130D01*
X34151328Y-85860143D01*
X34209428Y-85976822D01*
X34244712Y-86047681D01*
X34345426Y-86181049D01*
X34370973Y-86214878D01*
X34370976Y-86214881D01*
X34525800Y-86356021D01*
X34525805Y-86356025D01*
X34703930Y-86466315D01*
X34703931Y-86466315D01*
X34703934Y-86466317D01*
X34899299Y-86542002D01*
X35105244Y-86580500D01*
X35105246Y-86580500D01*
X35314754Y-86580500D01*
X35314756Y-86580500D01*
X35520701Y-86542002D01*
X35716066Y-86466317D01*
X35894197Y-86356023D01*
X36049029Y-86214876D01*
X36175288Y-86047681D01*
X36268676Y-85860133D01*
X36326012Y-85658619D01*
X36345343Y-85450000D01*
X36345343Y-85449999D01*
X40914871Y-85449999D01*
X40914871Y-85450000D01*
X40933346Y-85649391D01*
X40933347Y-85649393D01*
X40988145Y-85841989D01*
X40988151Y-85842004D01*
X41077401Y-86021241D01*
X41077406Y-86021249D01*
X41198081Y-86181049D01*
X41247969Y-86226527D01*
X41346064Y-86315952D01*
X41410781Y-86356023D01*
X41516312Y-86421366D01*
X41516316Y-86421368D01*
X41703040Y-86493705D01*
X41899877Y-86530500D01*
X41899879Y-86530500D01*
X42100121Y-86530500D01*
X42100123Y-86530500D01*
X42296960Y-86493705D01*
X42483684Y-86421368D01*
X42653936Y-86315952D01*
X42801920Y-86181047D01*
X42922595Y-86021247D01*
X43011853Y-85841994D01*
X43066653Y-85649392D01*
X43085129Y-85450000D01*
X43066653Y-85250608D01*
X43011853Y-85058006D01*
X43002821Y-85039867D01*
X42922598Y-84878758D01*
X42922593Y-84878750D01*
X42801918Y-84718950D01*
X42653937Y-84584049D01*
X42653936Y-84584048D01*
X42589101Y-84543903D01*
X42483685Y-84478632D01*
X42483683Y-84478631D01*
X42303023Y-84408644D01*
X42296960Y-84406295D01*
X42100123Y-84369500D01*
X41899877Y-84369500D01*
X41703040Y-84406295D01*
X41703037Y-84406295D01*
X41703037Y-84406296D01*
X41516316Y-84478631D01*
X41516314Y-84478632D01*
X41346062Y-84584049D01*
X41198081Y-84718950D01*
X41077406Y-84878750D01*
X41077401Y-84878758D01*
X40988151Y-85057995D01*
X40988145Y-85058010D01*
X40933347Y-85250606D01*
X40933346Y-85250608D01*
X40914871Y-85449999D01*
X36345343Y-85449999D01*
X36326012Y-85241381D01*
X36268676Y-85039867D01*
X36265115Y-85032716D01*
X36188453Y-84878758D01*
X36175288Y-84852319D01*
X36049029Y-84685124D01*
X36049026Y-84685121D01*
X36049023Y-84685118D01*
X35894199Y-84543978D01*
X35894194Y-84543974D01*
X35716069Y-84433684D01*
X35716063Y-84433681D01*
X35670194Y-84415912D01*
X35614792Y-84373339D01*
X35591202Y-84307572D01*
X35606913Y-84239492D01*
X35656937Y-84190713D01*
X35672581Y-84183762D01*
X35673491Y-84183430D01*
X35887578Y-84083600D01*
X36081082Y-83948105D01*
X36248105Y-83781082D01*
X36383600Y-83587578D01*
X36483429Y-83373492D01*
X36483432Y-83373486D01*
X36540636Y-83160000D01*
X35643012Y-83160000D01*
X35675925Y-83102993D01*
X35710000Y-82975826D01*
X35710000Y-82909999D01*
X40914871Y-82909999D01*
X40914871Y-82910000D01*
X40933346Y-83109391D01*
X40933347Y-83109393D01*
X40988145Y-83301989D01*
X40988151Y-83302004D01*
X41077401Y-83481241D01*
X41077406Y-83481249D01*
X41198081Y-83641049D01*
X41280499Y-83716182D01*
X41346064Y-83775952D01*
X41439808Y-83833996D01*
X41516312Y-83881366D01*
X41516316Y-83881368D01*
X41703040Y-83953705D01*
X41899877Y-83990500D01*
X41899879Y-83990500D01*
X42100121Y-83990500D01*
X42100123Y-83990500D01*
X42296960Y-83953705D01*
X42483684Y-83881368D01*
X42653936Y-83775952D01*
X42801920Y-83641047D01*
X42922595Y-83481247D01*
X43011853Y-83301994D01*
X43066653Y-83109392D01*
X43085129Y-82910000D01*
X43079029Y-82844174D01*
X43066653Y-82710608D01*
X43066652Y-82710606D01*
X43057854Y-82679685D01*
X43011853Y-82518006D01*
X43007935Y-82510137D01*
X42922598Y-82338758D01*
X42922593Y-82338750D01*
X42801918Y-82178950D01*
X42653937Y-82044049D01*
X42653936Y-82044048D01*
X42589101Y-82003903D01*
X42483685Y-81938632D01*
X42483683Y-81938631D01*
X42347152Y-81885739D01*
X42296960Y-81866295D01*
X42100123Y-81829500D01*
X41899877Y-81829500D01*
X41703040Y-81866295D01*
X41703037Y-81866295D01*
X41703037Y-81866296D01*
X41516316Y-81938631D01*
X41516314Y-81938632D01*
X41346062Y-82044049D01*
X41198081Y-82178950D01*
X41077406Y-82338750D01*
X41077401Y-82338758D01*
X40988151Y-82517995D01*
X40988145Y-82518010D01*
X40933347Y-82710606D01*
X40933346Y-82710608D01*
X40914871Y-82909999D01*
X35710000Y-82909999D01*
X35710000Y-82844174D01*
X35675925Y-82717007D01*
X35643012Y-82660000D01*
X36540636Y-82660000D01*
X36540635Y-82659999D01*
X36483432Y-82446513D01*
X36483429Y-82446507D01*
X36383600Y-82232422D01*
X36383599Y-82232420D01*
X36248113Y-82038926D01*
X36248108Y-82038920D01*
X36081082Y-81871894D01*
X35887578Y-81736399D01*
X35673484Y-81636566D01*
X35672564Y-81636231D01*
X35672215Y-81635974D01*
X35668584Y-81634281D01*
X35668924Y-81633550D01*
X35616305Y-81594798D01*
X35591377Y-81529526D01*
X35605695Y-81461139D01*
X35654713Y-81411349D01*
X35670196Y-81404087D01*
X35716057Y-81386321D01*
X35716061Y-81386318D01*
X35716066Y-81386317D01*
X35894197Y-81276023D01*
X36049029Y-81134876D01*
X36175288Y-80967681D01*
X36268676Y-80780133D01*
X36326012Y-80578619D01*
X36345343Y-80370000D01*
X36345343Y-80369999D01*
X40914871Y-80369999D01*
X40914871Y-80370000D01*
X40933346Y-80569391D01*
X40933347Y-80569393D01*
X40988145Y-80761989D01*
X40988151Y-80762004D01*
X41077401Y-80941241D01*
X41077406Y-80941249D01*
X41198081Y-81101049D01*
X41325386Y-81217102D01*
X41346064Y-81235952D01*
X41410781Y-81276023D01*
X41516312Y-81341366D01*
X41516316Y-81341368D01*
X41703040Y-81413705D01*
X41899877Y-81450500D01*
X41899879Y-81450500D01*
X42100121Y-81450500D01*
X42100123Y-81450500D01*
X42296960Y-81413705D01*
X42483684Y-81341368D01*
X42653936Y-81235952D01*
X42801920Y-81101047D01*
X42922595Y-80941247D01*
X43011853Y-80761994D01*
X43066653Y-80569392D01*
X43085129Y-80370000D01*
X43066653Y-80170608D01*
X43011853Y-79978006D01*
X43002821Y-79959867D01*
X42922598Y-79798758D01*
X42922593Y-79798750D01*
X42801918Y-79638950D01*
X42653937Y-79504049D01*
X42653936Y-79504048D01*
X42589101Y-79463903D01*
X42483685Y-79398632D01*
X42483683Y-79398631D01*
X42347152Y-79345739D01*
X42296960Y-79326295D01*
X42100123Y-79289500D01*
X41899877Y-79289500D01*
X41703040Y-79326295D01*
X41703037Y-79326295D01*
X41703037Y-79326296D01*
X41516316Y-79398631D01*
X41516314Y-79398632D01*
X41346062Y-79504049D01*
X41198081Y-79638950D01*
X41077406Y-79798750D01*
X41077401Y-79798758D01*
X40988151Y-79977995D01*
X40988145Y-79978010D01*
X40933347Y-80170606D01*
X40933346Y-80170608D01*
X40914871Y-80369999D01*
X36345343Y-80369999D01*
X36326012Y-80161381D01*
X36268676Y-79959867D01*
X36265115Y-79952716D01*
X36188453Y-79798758D01*
X36175288Y-79772319D01*
X36049029Y-79605124D01*
X36049026Y-79605121D01*
X36049023Y-79605118D01*
X35894199Y-79463978D01*
X35894194Y-79463974D01*
X35716069Y-79353684D01*
X35716063Y-79353682D01*
X35520701Y-79277998D01*
X35314756Y-79239500D01*
X35105244Y-79239500D01*
X34899299Y-79277998D01*
X34785665Y-79322020D01*
X34703936Y-79353682D01*
X34703930Y-79353684D01*
X34525805Y-79463974D01*
X34525800Y-79463978D01*
X34370976Y-79605118D01*
X34370973Y-79605121D01*
X34244712Y-79772318D01*
X34151328Y-79959856D01*
X34151323Y-79959869D01*
X34093987Y-80161381D01*
X34074657Y-80369999D01*
X34074657Y-80370000D01*
X34093987Y-80578618D01*
X34151323Y-80780130D01*
X34151328Y-80780143D01*
X34231546Y-80941241D01*
X34244712Y-80967681D01*
X34345426Y-81101049D01*
X34370973Y-81134878D01*
X34370976Y-81134881D01*
X34525800Y-81276021D01*
X34525805Y-81276025D01*
X34703930Y-81386315D01*
X34703932Y-81386316D01*
X34703934Y-81386317D01*
X34703937Y-81386318D01*
X34703939Y-81386319D01*
X34749804Y-81404087D01*
X34805206Y-81446659D01*
X34828797Y-81512426D01*
X34813086Y-81580506D01*
X34763063Y-81629286D01*
X34747442Y-81636229D01*
X34746513Y-81636567D01*
X34532422Y-81736399D01*
X34532420Y-81736400D01*
X34338926Y-81871886D01*
X34338920Y-81871891D01*
X34171891Y-82038920D01*
X34171886Y-82038926D01*
X34036400Y-82232420D01*
X34036399Y-82232422D01*
X33936570Y-82446507D01*
X33936567Y-82446513D01*
X33879364Y-82659999D01*
X33360500Y-82659999D01*
X33360500Y-77829999D01*
X34074657Y-77829999D01*
X34074657Y-77830000D01*
X34093987Y-78038618D01*
X34151323Y-78240130D01*
X34151328Y-78240143D01*
X34219815Y-78377681D01*
X34244712Y-78427681D01*
X34345426Y-78561049D01*
X34370973Y-78594878D01*
X34370976Y-78594881D01*
X34525800Y-78736021D01*
X34525805Y-78736025D01*
X34703930Y-78846315D01*
X34703931Y-78846315D01*
X34703934Y-78846317D01*
X34899299Y-78922002D01*
X35105244Y-78960500D01*
X35105246Y-78960500D01*
X35314754Y-78960500D01*
X35314756Y-78960500D01*
X35520701Y-78922002D01*
X35716066Y-78846317D01*
X35894197Y-78736023D01*
X36049029Y-78594876D01*
X36175288Y-78427681D01*
X36268676Y-78240133D01*
X36326012Y-78038619D01*
X36345343Y-77830000D01*
X36345343Y-77829999D01*
X40914871Y-77829999D01*
X40914871Y-77830000D01*
X40933346Y-78029391D01*
X40933347Y-78029393D01*
X40988145Y-78221989D01*
X40988151Y-78222004D01*
X41077401Y-78401241D01*
X41077406Y-78401249D01*
X41198081Y-78561049D01*
X41325386Y-78677102D01*
X41346064Y-78695952D01*
X41410781Y-78736023D01*
X41516312Y-78801366D01*
X41516316Y-78801368D01*
X41703040Y-78873705D01*
X41899877Y-78910500D01*
X41899879Y-78910500D01*
X42100121Y-78910500D01*
X42100123Y-78910500D01*
X42296960Y-78873705D01*
X42483684Y-78801368D01*
X42653936Y-78695952D01*
X42801920Y-78561047D01*
X42922595Y-78401247D01*
X43011853Y-78221994D01*
X43066653Y-78029392D01*
X43085129Y-77830000D01*
X43066653Y-77630608D01*
X43011853Y-77438006D01*
X43002821Y-77419867D01*
X42922598Y-77258758D01*
X42922593Y-77258750D01*
X42801918Y-77098950D01*
X42653937Y-76964049D01*
X42653936Y-76964048D01*
X42589101Y-76923903D01*
X42483685Y-76858632D01*
X42483683Y-76858631D01*
X42347152Y-76805739D01*
X42296960Y-76786295D01*
X42100123Y-76749500D01*
X41899877Y-76749500D01*
X41703040Y-76786295D01*
X41703037Y-76786295D01*
X41703037Y-76786296D01*
X41516316Y-76858631D01*
X41516314Y-76858632D01*
X41346062Y-76964049D01*
X41198081Y-77098950D01*
X41077406Y-77258750D01*
X41077401Y-77258758D01*
X40988151Y-77437995D01*
X40988145Y-77438010D01*
X40933347Y-77630606D01*
X40933346Y-77630608D01*
X40914871Y-77829999D01*
X36345343Y-77829999D01*
X36326012Y-77621381D01*
X36268676Y-77419867D01*
X36265115Y-77412716D01*
X36188453Y-77258758D01*
X36175288Y-77232319D01*
X36049029Y-77065124D01*
X36049026Y-77065121D01*
X36049023Y-77065118D01*
X35894199Y-76923978D01*
X35894194Y-76923974D01*
X35716069Y-76813684D01*
X35716063Y-76813682D01*
X35520701Y-76737998D01*
X35314756Y-76699500D01*
X35105244Y-76699500D01*
X34899299Y-76737998D01*
X34832999Y-76763683D01*
X34703936Y-76813682D01*
X34703930Y-76813684D01*
X34525805Y-76923974D01*
X34525800Y-76923978D01*
X34370976Y-77065118D01*
X34370973Y-77065121D01*
X34244712Y-77232318D01*
X34151328Y-77419856D01*
X34151323Y-77419869D01*
X34093987Y-77621381D01*
X34074657Y-77829999D01*
X33360500Y-77829999D01*
X33360500Y-75289999D01*
X34074657Y-75289999D01*
X34074657Y-75290000D01*
X34093987Y-75498618D01*
X34151323Y-75700130D01*
X34151328Y-75700143D01*
X34219815Y-75837681D01*
X34244712Y-75887681D01*
X34345426Y-76021049D01*
X34370973Y-76054878D01*
X34370976Y-76054881D01*
X34525800Y-76196021D01*
X34525805Y-76196025D01*
X34703930Y-76306315D01*
X34703931Y-76306315D01*
X34703934Y-76306317D01*
X34899299Y-76382002D01*
X35105244Y-76420500D01*
X35105246Y-76420500D01*
X35314754Y-76420500D01*
X35314756Y-76420500D01*
X35520701Y-76382002D01*
X35716066Y-76306317D01*
X35894197Y-76196023D01*
X36049029Y-76054876D01*
X36175288Y-75887681D01*
X36268676Y-75700133D01*
X36326012Y-75498619D01*
X36345343Y-75290000D01*
X36345343Y-75289999D01*
X40914871Y-75289999D01*
X40914871Y-75290000D01*
X40933346Y-75489391D01*
X40933347Y-75489393D01*
X40988145Y-75681989D01*
X40988151Y-75682004D01*
X41077401Y-75861241D01*
X41077406Y-75861249D01*
X41198081Y-76021049D01*
X41325386Y-76137102D01*
X41346064Y-76155952D01*
X41410781Y-76196023D01*
X41516312Y-76261366D01*
X41516316Y-76261368D01*
X41703040Y-76333705D01*
X41899877Y-76370500D01*
X41899879Y-76370500D01*
X42100121Y-76370500D01*
X42100123Y-76370500D01*
X42296960Y-76333705D01*
X42483684Y-76261368D01*
X42653936Y-76155952D01*
X42801920Y-76021047D01*
X42922595Y-75861247D01*
X43011853Y-75681994D01*
X43066653Y-75489392D01*
X43085129Y-75290000D01*
X43066653Y-75090608D01*
X43011853Y-74898006D01*
X43002821Y-74879867D01*
X42922598Y-74718758D01*
X42922593Y-74718750D01*
X42801918Y-74558950D01*
X42653937Y-74424049D01*
X42653936Y-74424048D01*
X42589101Y-74383903D01*
X42483685Y-74318632D01*
X42483683Y-74318631D01*
X42347152Y-74265739D01*
X42296960Y-74246295D01*
X42100123Y-74209500D01*
X41899877Y-74209500D01*
X41703040Y-74246295D01*
X41703037Y-74246295D01*
X41703037Y-74246296D01*
X41516316Y-74318631D01*
X41516314Y-74318632D01*
X41346062Y-74424049D01*
X41198081Y-74558950D01*
X41077406Y-74718750D01*
X41077401Y-74718758D01*
X40988151Y-74897995D01*
X40988145Y-74898010D01*
X40933347Y-75090606D01*
X40933346Y-75090608D01*
X40914871Y-75289999D01*
X36345343Y-75289999D01*
X36326012Y-75081381D01*
X36268676Y-74879867D01*
X36265115Y-74872716D01*
X36188453Y-74718758D01*
X36175288Y-74692319D01*
X36049029Y-74525124D01*
X36049026Y-74525121D01*
X36049023Y-74525118D01*
X35894199Y-74383978D01*
X35894194Y-74383974D01*
X35716069Y-74273684D01*
X35716063Y-74273682D01*
X35520701Y-74197998D01*
X35314756Y-74159500D01*
X35105244Y-74159500D01*
X34899299Y-74197998D01*
X34808443Y-74233196D01*
X34703936Y-74273682D01*
X34703930Y-74273684D01*
X34525805Y-74383974D01*
X34525800Y-74383978D01*
X34370976Y-74525118D01*
X34370973Y-74525121D01*
X34244712Y-74692318D01*
X34151328Y-74879856D01*
X34151323Y-74879869D01*
X34093987Y-75081381D01*
X34074657Y-75289999D01*
X33360500Y-75289999D01*
X33360500Y-69959999D01*
X33879364Y-69959999D01*
X33879364Y-69960000D01*
X34776988Y-69960000D01*
X34744075Y-70017007D01*
X34710000Y-70144174D01*
X34710000Y-70275826D01*
X34744075Y-70402993D01*
X34776988Y-70460000D01*
X33879364Y-70460000D01*
X33936567Y-70673486D01*
X33936570Y-70673492D01*
X34036399Y-70887578D01*
X34171894Y-71081082D01*
X34338917Y-71248105D01*
X34532421Y-71383600D01*
X34746506Y-71483429D01*
X34747425Y-71483764D01*
X34747772Y-71484020D01*
X34751416Y-71485719D01*
X34751074Y-71486451D01*
X34803687Y-71525192D01*
X34828621Y-71590461D01*
X34814310Y-71658849D01*
X34765297Y-71708644D01*
X34749806Y-71715911D01*
X34703942Y-71733678D01*
X34703930Y-71733684D01*
X34525805Y-71843974D01*
X34525800Y-71843978D01*
X34370976Y-71985118D01*
X34370973Y-71985121D01*
X34244712Y-72152318D01*
X34151328Y-72339856D01*
X34151323Y-72339869D01*
X34093987Y-72541381D01*
X34074657Y-72749999D01*
X34074657Y-72750000D01*
X34093987Y-72958618D01*
X34151323Y-73160130D01*
X34151328Y-73160143D01*
X34219815Y-73297681D01*
X34244712Y-73347681D01*
X34345426Y-73481049D01*
X34370973Y-73514878D01*
X34370976Y-73514881D01*
X34525800Y-73656021D01*
X34525805Y-73656025D01*
X34703930Y-73766315D01*
X34703931Y-73766315D01*
X34703934Y-73766317D01*
X34899299Y-73842002D01*
X35105244Y-73880500D01*
X35105246Y-73880500D01*
X35314754Y-73880500D01*
X35314756Y-73880500D01*
X35520701Y-73842002D01*
X35716066Y-73766317D01*
X35894197Y-73656023D01*
X36049029Y-73514876D01*
X36175288Y-73347681D01*
X36268676Y-73160133D01*
X36326012Y-72958619D01*
X36345343Y-72750000D01*
X36345343Y-72749999D01*
X40914871Y-72749999D01*
X40914871Y-72750000D01*
X40933346Y-72949391D01*
X40933347Y-72949393D01*
X40988145Y-73141989D01*
X40988151Y-73142004D01*
X41077401Y-73321241D01*
X41077406Y-73321249D01*
X41198081Y-73481049D01*
X41320862Y-73592977D01*
X41346064Y-73615952D01*
X41410781Y-73656023D01*
X41516312Y-73721366D01*
X41516316Y-73721368D01*
X41703040Y-73793705D01*
X41899877Y-73830500D01*
X41899879Y-73830500D01*
X42100121Y-73830500D01*
X42100123Y-73830500D01*
X42296960Y-73793705D01*
X42483684Y-73721368D01*
X42653936Y-73615952D01*
X42801920Y-73481047D01*
X42922595Y-73321247D01*
X43011853Y-73141994D01*
X43066653Y-72949392D01*
X43085129Y-72750000D01*
X43066653Y-72550608D01*
X43011853Y-72358006D01*
X43011848Y-72357995D01*
X42922598Y-72178758D01*
X42922593Y-72178750D01*
X42801918Y-72018950D01*
X42653937Y-71884049D01*
X42653936Y-71884048D01*
X42508469Y-71793978D01*
X42483685Y-71778632D01*
X42483683Y-71778631D01*
X42303023Y-71708644D01*
X42296960Y-71706295D01*
X42100123Y-71669500D01*
X41899877Y-71669500D01*
X41703040Y-71706295D01*
X41703037Y-71706295D01*
X41703037Y-71706296D01*
X41516316Y-71778631D01*
X41516314Y-71778632D01*
X41346062Y-71884049D01*
X41198081Y-72018950D01*
X41077406Y-72178750D01*
X41077401Y-72178758D01*
X40988151Y-72357995D01*
X40988145Y-72358010D01*
X40933347Y-72550606D01*
X40933346Y-72550608D01*
X40914871Y-72749999D01*
X36345343Y-72749999D01*
X36326012Y-72541381D01*
X36268676Y-72339867D01*
X36265115Y-72332716D01*
X36188453Y-72178758D01*
X36175288Y-72152319D01*
X36049029Y-71985124D01*
X36049026Y-71985121D01*
X36049023Y-71985118D01*
X35894199Y-71843978D01*
X35894194Y-71843974D01*
X35716069Y-71733684D01*
X35716063Y-71733681D01*
X35670194Y-71715912D01*
X35614792Y-71673339D01*
X35591202Y-71607572D01*
X35606913Y-71539492D01*
X35656937Y-71490713D01*
X35672581Y-71483762D01*
X35673491Y-71483430D01*
X35887578Y-71383600D01*
X36081082Y-71248105D01*
X36248105Y-71081082D01*
X36383600Y-70887578D01*
X36483429Y-70673492D01*
X36483432Y-70673486D01*
X36540636Y-70460000D01*
X35643012Y-70460000D01*
X35675925Y-70402993D01*
X35710000Y-70275826D01*
X35710000Y-70209999D01*
X40914871Y-70209999D01*
X40914871Y-70210000D01*
X40933346Y-70409391D01*
X40933347Y-70409393D01*
X40988145Y-70601989D01*
X40988151Y-70602004D01*
X41077401Y-70781241D01*
X41077406Y-70781249D01*
X41198081Y-70941049D01*
X41280499Y-71016182D01*
X41346064Y-71075952D01*
X41439808Y-71133996D01*
X41516312Y-71181366D01*
X41516316Y-71181368D01*
X41703040Y-71253705D01*
X41899877Y-71290500D01*
X41899879Y-71290500D01*
X42100121Y-71290500D01*
X42100123Y-71290500D01*
X42296960Y-71253705D01*
X42483684Y-71181368D01*
X42653936Y-71075952D01*
X42801920Y-70941047D01*
X42922595Y-70781247D01*
X43011853Y-70601994D01*
X43066653Y-70409392D01*
X43085129Y-70210000D01*
X43079029Y-70144174D01*
X43066653Y-70010608D01*
X43066652Y-70010606D01*
X43057854Y-69979685D01*
X43011853Y-69818006D01*
X43007935Y-69810137D01*
X42922598Y-69638758D01*
X42922593Y-69638750D01*
X42801918Y-69478950D01*
X42653937Y-69344049D01*
X42653936Y-69344048D01*
X42508469Y-69253978D01*
X42483685Y-69238632D01*
X42483683Y-69238631D01*
X42347152Y-69185739D01*
X42296960Y-69166295D01*
X42100123Y-69129500D01*
X41899877Y-69129500D01*
X41703040Y-69166295D01*
X41703037Y-69166295D01*
X41703037Y-69166296D01*
X41516316Y-69238631D01*
X41516314Y-69238632D01*
X41346062Y-69344049D01*
X41198081Y-69478950D01*
X41077406Y-69638750D01*
X41077401Y-69638758D01*
X40988151Y-69817995D01*
X40988145Y-69818010D01*
X40933347Y-70010606D01*
X40933346Y-70010608D01*
X40914871Y-70209999D01*
X35710000Y-70209999D01*
X35710000Y-70144174D01*
X35675925Y-70017007D01*
X35643012Y-69960000D01*
X36540636Y-69960000D01*
X36540635Y-69959999D01*
X36483432Y-69746513D01*
X36483429Y-69746507D01*
X36383600Y-69532422D01*
X36383599Y-69532420D01*
X36248113Y-69338926D01*
X36248108Y-69338920D01*
X36081082Y-69171894D01*
X35887578Y-69036399D01*
X35673484Y-68936566D01*
X35672564Y-68936231D01*
X35672215Y-68935974D01*
X35668584Y-68934281D01*
X35668924Y-68933550D01*
X35616305Y-68894798D01*
X35591377Y-68829526D01*
X35605695Y-68761139D01*
X35654713Y-68711349D01*
X35670196Y-68704087D01*
X35716057Y-68686321D01*
X35716061Y-68686318D01*
X35716066Y-68686317D01*
X35894197Y-68576023D01*
X36049029Y-68434876D01*
X36175288Y-68267681D01*
X36268676Y-68080133D01*
X36326012Y-67878619D01*
X36345343Y-67670000D01*
X36345343Y-67669999D01*
X40914871Y-67669999D01*
X40914871Y-67670000D01*
X40933346Y-67869391D01*
X40933347Y-67869393D01*
X40988145Y-68061989D01*
X40988151Y-68062004D01*
X41077401Y-68241241D01*
X41077406Y-68241249D01*
X41198081Y-68401049D01*
X41325386Y-68517102D01*
X41346064Y-68535952D01*
X41410781Y-68576023D01*
X41516312Y-68641366D01*
X41516316Y-68641368D01*
X41703040Y-68713705D01*
X41899877Y-68750500D01*
X41899879Y-68750500D01*
X42100121Y-68750500D01*
X42100123Y-68750500D01*
X42296960Y-68713705D01*
X42483684Y-68641368D01*
X42653936Y-68535952D01*
X42801920Y-68401047D01*
X42922595Y-68241247D01*
X43011853Y-68061994D01*
X43066653Y-67869392D01*
X43085129Y-67670000D01*
X43066653Y-67470608D01*
X43011853Y-67278006D01*
X43002821Y-67259867D01*
X42922598Y-67098758D01*
X42922593Y-67098750D01*
X42801918Y-66938950D01*
X42653937Y-66804049D01*
X42653936Y-66804048D01*
X42530222Y-66727447D01*
X42483685Y-66698632D01*
X42483683Y-66698631D01*
X42347152Y-66645739D01*
X42296960Y-66626295D01*
X42100123Y-66589500D01*
X41899877Y-66589500D01*
X41703040Y-66626295D01*
X41703037Y-66626295D01*
X41703037Y-66626296D01*
X41516316Y-66698631D01*
X41516314Y-66698632D01*
X41346062Y-66804049D01*
X41198081Y-66938950D01*
X41077406Y-67098750D01*
X41077401Y-67098758D01*
X40988151Y-67277995D01*
X40988145Y-67278010D01*
X40933347Y-67470606D01*
X40933346Y-67470608D01*
X40914871Y-67669999D01*
X36345343Y-67669999D01*
X36326012Y-67461381D01*
X36268676Y-67259867D01*
X36265115Y-67252716D01*
X36188453Y-67098758D01*
X36175288Y-67072319D01*
X36049029Y-66905124D01*
X36049026Y-66905121D01*
X36049023Y-66905118D01*
X35894199Y-66763978D01*
X35894194Y-66763974D01*
X35716069Y-66653684D01*
X35716063Y-66653682D01*
X35520701Y-66577998D01*
X35314756Y-66539500D01*
X35105244Y-66539500D01*
X34899299Y-66577998D01*
X34832999Y-66603683D01*
X34703936Y-66653682D01*
X34703930Y-66653684D01*
X34525805Y-66763974D01*
X34525800Y-66763978D01*
X34370976Y-66905118D01*
X34370973Y-66905121D01*
X34244712Y-67072318D01*
X34151328Y-67259856D01*
X34151323Y-67259869D01*
X34093987Y-67461381D01*
X34074657Y-67669999D01*
X34074657Y-67670000D01*
X34093987Y-67878618D01*
X34151323Y-68080130D01*
X34151328Y-68080143D01*
X34192039Y-68161900D01*
X34244712Y-68267681D01*
X34345426Y-68401049D01*
X34370973Y-68434878D01*
X34370976Y-68434881D01*
X34525800Y-68576021D01*
X34525805Y-68576025D01*
X34703930Y-68686315D01*
X34703932Y-68686316D01*
X34703934Y-68686317D01*
X34703937Y-68686318D01*
X34703939Y-68686319D01*
X34749804Y-68704087D01*
X34805206Y-68746659D01*
X34828797Y-68812426D01*
X34813086Y-68880506D01*
X34763063Y-68929286D01*
X34747442Y-68936229D01*
X34746513Y-68936567D01*
X34532422Y-69036399D01*
X34532420Y-69036400D01*
X34338926Y-69171886D01*
X34338920Y-69171891D01*
X34171891Y-69338920D01*
X34171886Y-69338926D01*
X34036400Y-69532420D01*
X34036399Y-69532422D01*
X33936570Y-69746507D01*
X33936567Y-69746513D01*
X33879364Y-69959999D01*
X33360500Y-69959999D01*
X33360500Y-65129999D01*
X34074657Y-65129999D01*
X34074657Y-65130000D01*
X34093987Y-65338618D01*
X34151323Y-65540130D01*
X34151328Y-65540143D01*
X34192039Y-65621900D01*
X34244712Y-65727681D01*
X34345426Y-65861049D01*
X34370973Y-65894878D01*
X34370976Y-65894881D01*
X34525800Y-66036021D01*
X34525805Y-66036025D01*
X34703930Y-66146315D01*
X34703931Y-66146315D01*
X34703934Y-66146317D01*
X34899299Y-66222002D01*
X35105244Y-66260500D01*
X35105246Y-66260500D01*
X35314754Y-66260500D01*
X35314756Y-66260500D01*
X35520701Y-66222002D01*
X35716066Y-66146317D01*
X35894197Y-66036023D01*
X36049029Y-65894876D01*
X36175288Y-65727681D01*
X36268676Y-65540133D01*
X36326012Y-65338619D01*
X36345343Y-65130000D01*
X36326012Y-64921381D01*
X36268676Y-64719867D01*
X36265115Y-64712716D01*
X36188453Y-64558758D01*
X36175288Y-64532319D01*
X36049029Y-64365124D01*
X36049026Y-64365121D01*
X36049023Y-64365118D01*
X35894199Y-64223978D01*
X35894194Y-64223974D01*
X35716069Y-64113684D01*
X35716063Y-64113682D01*
X35520701Y-64037998D01*
X35314756Y-63999500D01*
X35105244Y-63999500D01*
X34899299Y-64037998D01*
X34819297Y-64068991D01*
X34703936Y-64113682D01*
X34703930Y-64113684D01*
X34525805Y-64223974D01*
X34525800Y-64223978D01*
X34370976Y-64365118D01*
X34370973Y-64365121D01*
X34244712Y-64532318D01*
X34151328Y-64719856D01*
X34151323Y-64719869D01*
X34093987Y-64921381D01*
X34074657Y-65129999D01*
X33360500Y-65129999D01*
X33360500Y-62589999D01*
X34074657Y-62589999D01*
X34074657Y-62590000D01*
X34093987Y-62798618D01*
X34151323Y-63000130D01*
X34151328Y-63000143D01*
X34192039Y-63081900D01*
X34244712Y-63187681D01*
X34345426Y-63321049D01*
X34370973Y-63354878D01*
X34370976Y-63354881D01*
X34525800Y-63496021D01*
X34525805Y-63496025D01*
X34703930Y-63606315D01*
X34703931Y-63606315D01*
X34703934Y-63606317D01*
X34899299Y-63682002D01*
X35105244Y-63720500D01*
X35105246Y-63720500D01*
X35314754Y-63720500D01*
X35314756Y-63720500D01*
X35520701Y-63682002D01*
X35716066Y-63606317D01*
X35894197Y-63496023D01*
X36049029Y-63354876D01*
X36175288Y-63187681D01*
X36268676Y-63000133D01*
X36326012Y-62798619D01*
X36345343Y-62590000D01*
X36326012Y-62381381D01*
X36314238Y-62339999D01*
X40721127Y-62339999D01*
X40721128Y-62340000D01*
X41684314Y-62340000D01*
X41679920Y-62344394D01*
X41627259Y-62435606D01*
X41600000Y-62537339D01*
X41600000Y-62642661D01*
X41627259Y-62744394D01*
X41679920Y-62835606D01*
X41684314Y-62840000D01*
X40721128Y-62840000D01*
X40773730Y-63036317D01*
X40773734Y-63036326D01*
X40869865Y-63242482D01*
X41000342Y-63428820D01*
X41161179Y-63589657D01*
X41347517Y-63720134D01*
X41553673Y-63816265D01*
X41553682Y-63816269D01*
X41687297Y-63852071D01*
X41746958Y-63888436D01*
X41777487Y-63951283D01*
X41769192Y-64020658D01*
X41724707Y-64074536D01*
X41699998Y-64087473D01*
X41516316Y-64158631D01*
X41516314Y-64158632D01*
X41346062Y-64264049D01*
X41198081Y-64398950D01*
X41077406Y-64558750D01*
X41077401Y-64558758D01*
X40988151Y-64737995D01*
X40988145Y-64738010D01*
X40933347Y-64930606D01*
X40933346Y-64930608D01*
X40914871Y-65129999D01*
X40914871Y-65130000D01*
X40933346Y-65329391D01*
X40933347Y-65329393D01*
X40988145Y-65521989D01*
X40988151Y-65522004D01*
X41077401Y-65701241D01*
X41077406Y-65701249D01*
X41198081Y-65861049D01*
X41316532Y-65969030D01*
X41346064Y-65995952D01*
X41410781Y-66036023D01*
X41516312Y-66101366D01*
X41516316Y-66101368D01*
X41703040Y-66173705D01*
X41899877Y-66210500D01*
X41899879Y-66210500D01*
X42100121Y-66210500D01*
X42100123Y-66210500D01*
X42296960Y-66173705D01*
X42483684Y-66101368D01*
X42653936Y-65995952D01*
X42801920Y-65861047D01*
X42922595Y-65701247D01*
X43011853Y-65521994D01*
X43066653Y-65329392D01*
X43085129Y-65130000D01*
X43066653Y-64930608D01*
X43011853Y-64738006D01*
X43002821Y-64719867D01*
X42922598Y-64558758D01*
X42922593Y-64558750D01*
X42801918Y-64398950D01*
X42653937Y-64264049D01*
X42653936Y-64264048D01*
X42589101Y-64223903D01*
X42483685Y-64158632D01*
X42483683Y-64158631D01*
X42300001Y-64087473D01*
X42244600Y-64044900D01*
X42221009Y-63979133D01*
X42236720Y-63911053D01*
X42286744Y-63862274D01*
X42312702Y-63852071D01*
X42446317Y-63816269D01*
X42446326Y-63816265D01*
X42652482Y-63720134D01*
X42838820Y-63589657D01*
X42999657Y-63428820D01*
X43130134Y-63242482D01*
X43226265Y-63036326D01*
X43226269Y-63036317D01*
X43278872Y-62840000D01*
X42315686Y-62840000D01*
X42320080Y-62835606D01*
X42372741Y-62744394D01*
X42400000Y-62642661D01*
X42400000Y-62537339D01*
X42372741Y-62435606D01*
X42320080Y-62344394D01*
X42315686Y-62340000D01*
X43278872Y-62340000D01*
X43278872Y-62339999D01*
X43226269Y-62143682D01*
X43226265Y-62143673D01*
X43130134Y-61937517D01*
X42999657Y-61751179D01*
X42838820Y-61590342D01*
X42652482Y-61459865D01*
X42446326Y-61363734D01*
X42446319Y-61363731D01*
X42312701Y-61327928D01*
X42253041Y-61291563D01*
X42222512Y-61228716D01*
X42230807Y-61159340D01*
X42275292Y-61105462D01*
X42299998Y-61092528D01*
X42483684Y-61021368D01*
X42653936Y-60915952D01*
X42801920Y-60781047D01*
X42922595Y-60621247D01*
X43011853Y-60441994D01*
X43066653Y-60249392D01*
X43085129Y-60050000D01*
X43066653Y-59850608D01*
X43011853Y-59658006D01*
X43002821Y-59639867D01*
X42922598Y-59478758D01*
X42922593Y-59478750D01*
X42801918Y-59318950D01*
X42653937Y-59184049D01*
X42653936Y-59184048D01*
X42589101Y-59143903D01*
X42483685Y-59078632D01*
X42483683Y-59078631D01*
X42303023Y-59008644D01*
X42296960Y-59006295D01*
X42100123Y-58969500D01*
X41899877Y-58969500D01*
X41703040Y-59006295D01*
X41703037Y-59006295D01*
X41703037Y-59006296D01*
X41516316Y-59078631D01*
X41516314Y-59078632D01*
X41346062Y-59184049D01*
X41198081Y-59318950D01*
X41077406Y-59478750D01*
X41077401Y-59478758D01*
X40988151Y-59657995D01*
X40988145Y-59658010D01*
X40933347Y-59850606D01*
X40933346Y-59850608D01*
X40914871Y-60049999D01*
X40914871Y-60050000D01*
X40933346Y-60249391D01*
X40933347Y-60249393D01*
X40988145Y-60441989D01*
X40988151Y-60442004D01*
X41077401Y-60621241D01*
X41077406Y-60621249D01*
X41198081Y-60781049D01*
X41319656Y-60891878D01*
X41346064Y-60915952D01*
X41516316Y-61021368D01*
X41699999Y-61092527D01*
X41755399Y-61135099D01*
X41778990Y-61200866D01*
X41763279Y-61268946D01*
X41713255Y-61317725D01*
X41687298Y-61327928D01*
X41553680Y-61363731D01*
X41553673Y-61363734D01*
X41347517Y-61459865D01*
X41161179Y-61590342D01*
X41000342Y-61751179D01*
X40869865Y-61937517D01*
X40773734Y-62143673D01*
X40773730Y-62143682D01*
X40721127Y-62339999D01*
X36314238Y-62339999D01*
X36268676Y-62179867D01*
X36250653Y-62143673D01*
X36188453Y-62018758D01*
X36175288Y-61992319D01*
X36049029Y-61825124D01*
X36049026Y-61825121D01*
X36049023Y-61825118D01*
X35894199Y-61683978D01*
X35894194Y-61683974D01*
X35716069Y-61573684D01*
X35716063Y-61573682D01*
X35520701Y-61497998D01*
X35314756Y-61459500D01*
X35105244Y-61459500D01*
X34899299Y-61497998D01*
X34775752Y-61545860D01*
X34703936Y-61573682D01*
X34703930Y-61573684D01*
X34525805Y-61683974D01*
X34525800Y-61683978D01*
X34370976Y-61825118D01*
X34370973Y-61825121D01*
X34244712Y-61992318D01*
X34151328Y-62179856D01*
X34151323Y-62179869D01*
X34093987Y-62381381D01*
X34074657Y-62589999D01*
X33360500Y-62589999D01*
X33360500Y-57259999D01*
X33879364Y-57259999D01*
X33879364Y-57260000D01*
X34776988Y-57260000D01*
X34744075Y-57317007D01*
X34710000Y-57444174D01*
X34710000Y-57575826D01*
X34744075Y-57702993D01*
X34776988Y-57760000D01*
X33879364Y-57760000D01*
X33936567Y-57973486D01*
X33936570Y-57973492D01*
X34036399Y-58187578D01*
X34171894Y-58381082D01*
X34338917Y-58548105D01*
X34532421Y-58683600D01*
X34746506Y-58783429D01*
X34747425Y-58783764D01*
X34747772Y-58784020D01*
X34751416Y-58785719D01*
X34751074Y-58786451D01*
X34803687Y-58825192D01*
X34828621Y-58890461D01*
X34814310Y-58958849D01*
X34765297Y-59008644D01*
X34749806Y-59015911D01*
X34703942Y-59033678D01*
X34703930Y-59033684D01*
X34525805Y-59143974D01*
X34525800Y-59143978D01*
X34370976Y-59285118D01*
X34370973Y-59285121D01*
X34244712Y-59452318D01*
X34151328Y-59639856D01*
X34151323Y-59639869D01*
X34093987Y-59841381D01*
X34074657Y-60049999D01*
X34074657Y-60050000D01*
X34093987Y-60258618D01*
X34151323Y-60460130D01*
X34151328Y-60460143D01*
X34231546Y-60621241D01*
X34244712Y-60647681D01*
X34345426Y-60781049D01*
X34370973Y-60814878D01*
X34370976Y-60814881D01*
X34525800Y-60956021D01*
X34525805Y-60956025D01*
X34703930Y-61066315D01*
X34703931Y-61066315D01*
X34703934Y-61066317D01*
X34899299Y-61142002D01*
X35105244Y-61180500D01*
X35105246Y-61180500D01*
X35314754Y-61180500D01*
X35314756Y-61180500D01*
X35520701Y-61142002D01*
X35716066Y-61066317D01*
X35894197Y-60956023D01*
X36049029Y-60814876D01*
X36175288Y-60647681D01*
X36268676Y-60460133D01*
X36326012Y-60258619D01*
X36345343Y-60050000D01*
X36326012Y-59841381D01*
X36268676Y-59639867D01*
X36175288Y-59452319D01*
X36049029Y-59285124D01*
X36049026Y-59285121D01*
X36049023Y-59285118D01*
X35894199Y-59143978D01*
X35894194Y-59143974D01*
X35716069Y-59033684D01*
X35716063Y-59033681D01*
X35670194Y-59015912D01*
X35614792Y-58973339D01*
X35591202Y-58907572D01*
X35606913Y-58839492D01*
X35656937Y-58790713D01*
X35672581Y-58783762D01*
X35673491Y-58783430D01*
X35887578Y-58683600D01*
X36081082Y-58548105D01*
X36248105Y-58381082D01*
X36383600Y-58187578D01*
X36483429Y-57973492D01*
X36483432Y-57973486D01*
X36540636Y-57760000D01*
X35643012Y-57760000D01*
X35675925Y-57702993D01*
X35710000Y-57575826D01*
X35710000Y-57509999D01*
X40914871Y-57509999D01*
X40914871Y-57510000D01*
X40933346Y-57709391D01*
X40933347Y-57709393D01*
X40988145Y-57901989D01*
X40988151Y-57902004D01*
X41077401Y-58081241D01*
X41077406Y-58081249D01*
X41198081Y-58241049D01*
X41325386Y-58357102D01*
X41346064Y-58375952D01*
X41516316Y-58481368D01*
X41703040Y-58553705D01*
X41899877Y-58590500D01*
X41899879Y-58590500D01*
X42100121Y-58590500D01*
X42100123Y-58590500D01*
X42296960Y-58553705D01*
X42483684Y-58481368D01*
X42653936Y-58375952D01*
X42801920Y-58241047D01*
X42922595Y-58081247D01*
X43011853Y-57901994D01*
X43066653Y-57709392D01*
X43085129Y-57510000D01*
X43079029Y-57444174D01*
X43066653Y-57310608D01*
X43066652Y-57310606D01*
X43066352Y-57309553D01*
X43011853Y-57118006D01*
X43011848Y-57117995D01*
X42922598Y-56938758D01*
X42922593Y-56938750D01*
X42801918Y-56778950D01*
X42653937Y-56644049D01*
X42653936Y-56644048D01*
X42589101Y-56603903D01*
X42483685Y-56538632D01*
X42483683Y-56538631D01*
X42347152Y-56485739D01*
X42296960Y-56466295D01*
X42100123Y-56429500D01*
X41899877Y-56429500D01*
X41703040Y-56466295D01*
X41703037Y-56466295D01*
X41703037Y-56466296D01*
X41516316Y-56538631D01*
X41516314Y-56538632D01*
X41346062Y-56644049D01*
X41198081Y-56778950D01*
X41077406Y-56938750D01*
X41077401Y-56938758D01*
X40988151Y-57117995D01*
X40988145Y-57118010D01*
X40933347Y-57310606D01*
X40933346Y-57310608D01*
X40914871Y-57509999D01*
X35710000Y-57509999D01*
X35710000Y-57444174D01*
X35675925Y-57317007D01*
X35643012Y-57260000D01*
X36540636Y-57260000D01*
X36540635Y-57259999D01*
X36483432Y-57046513D01*
X36483429Y-57046507D01*
X36383600Y-56832422D01*
X36383599Y-56832420D01*
X36248113Y-56638926D01*
X36248108Y-56638920D01*
X36081082Y-56471894D01*
X35887578Y-56336399D01*
X35673484Y-56236566D01*
X35672564Y-56236231D01*
X35672215Y-56235974D01*
X35668584Y-56234281D01*
X35668924Y-56233550D01*
X35616305Y-56194798D01*
X35591377Y-56129526D01*
X35605695Y-56061139D01*
X35654713Y-56011349D01*
X35670196Y-56004087D01*
X35716057Y-55986321D01*
X35716061Y-55986318D01*
X35716066Y-55986317D01*
X35894197Y-55876023D01*
X36049029Y-55734876D01*
X36175288Y-55567681D01*
X36268676Y-55380133D01*
X36326012Y-55178619D01*
X36345343Y-54970000D01*
X36326012Y-54761381D01*
X36268676Y-54559867D01*
X36175288Y-54372319D01*
X36049029Y-54205124D01*
X36049026Y-54205121D01*
X36049023Y-54205118D01*
X35894199Y-54063978D01*
X35894194Y-54063974D01*
X35716069Y-53953684D01*
X35716063Y-53953682D01*
X35520701Y-53877998D01*
X35314756Y-53839500D01*
X35105244Y-53839500D01*
X34899299Y-53877998D01*
X34775752Y-53925860D01*
X34703936Y-53953682D01*
X34703930Y-53953684D01*
X34525805Y-54063974D01*
X34525800Y-54063978D01*
X34370976Y-54205118D01*
X34370973Y-54205121D01*
X34244712Y-54372318D01*
X34151328Y-54559856D01*
X34151323Y-54559869D01*
X34093987Y-54761381D01*
X34074657Y-54969999D01*
X34074657Y-54970000D01*
X34093987Y-55178618D01*
X34151323Y-55380130D01*
X34151328Y-55380143D01*
X34231546Y-55541241D01*
X34244712Y-55567681D01*
X34345426Y-55701049D01*
X34370973Y-55734878D01*
X34370976Y-55734881D01*
X34525800Y-55876021D01*
X34525805Y-55876025D01*
X34703930Y-55986315D01*
X34703932Y-55986316D01*
X34703934Y-55986317D01*
X34703937Y-55986318D01*
X34703939Y-55986319D01*
X34749804Y-56004087D01*
X34805206Y-56046659D01*
X34828797Y-56112426D01*
X34813086Y-56180506D01*
X34763063Y-56229286D01*
X34747442Y-56236229D01*
X34746513Y-56236567D01*
X34532422Y-56336399D01*
X34532420Y-56336400D01*
X34338926Y-56471886D01*
X34338920Y-56471891D01*
X34171891Y-56638920D01*
X34171886Y-56638926D01*
X34036400Y-56832420D01*
X34036399Y-56832422D01*
X33936570Y-57046507D01*
X33936567Y-57046513D01*
X33879364Y-57259999D01*
X33360500Y-57259999D01*
X33360500Y-56996976D01*
X33360499Y-56996972D01*
X33334351Y-56865512D01*
X33334348Y-56865503D01*
X33283055Y-56741667D01*
X33283048Y-56741655D01*
X33208579Y-56630206D01*
X33208576Y-56630202D01*
X33109475Y-56531101D01*
X33109452Y-56531080D01*
X31019797Y-54441423D01*
X31019789Y-54441417D01*
X30955938Y-54398753D01*
X30955937Y-54398753D01*
X30908335Y-54366946D01*
X30908333Y-54366945D01*
X30868630Y-54350500D01*
X30868629Y-54350500D01*
X30784497Y-54315651D01*
X30784495Y-54315650D01*
X30653023Y-54289500D01*
X30653022Y-54289500D01*
X27661836Y-54289500D01*
X27594797Y-54269815D01*
X27565932Y-54243053D01*
X27565783Y-54243190D01*
X27564166Y-54241416D01*
X27562880Y-54240224D01*
X27561919Y-54238951D01*
X27413937Y-54104049D01*
X27413936Y-54104048D01*
X27259998Y-54008733D01*
X27243685Y-53998632D01*
X27243683Y-53998631D01*
X27078346Y-53934580D01*
X27056960Y-53926295D01*
X26860123Y-53889500D01*
X26659877Y-53889500D01*
X26463040Y-53926295D01*
X26463037Y-53926295D01*
X26463037Y-53926296D01*
X26276316Y-53998631D01*
X26276314Y-53998632D01*
X26106062Y-54104049D01*
X25958081Y-54238950D01*
X25837406Y-54398750D01*
X25837405Y-54398753D01*
X25748151Y-54577995D01*
X25748145Y-54578010D01*
X25693347Y-54770606D01*
X25693346Y-54770608D01*
X25674871Y-54969999D01*
X25674871Y-54970000D01*
X25693346Y-55169391D01*
X25693347Y-55169393D01*
X25748145Y-55361989D01*
X25748151Y-55362004D01*
X25837401Y-55541241D01*
X25837406Y-55541249D01*
X25958081Y-55701049D01*
X26079656Y-55811878D01*
X26106064Y-55835952D01*
X26276316Y-55941368D01*
X26459999Y-56012527D01*
X26515399Y-56055099D01*
X26538990Y-56120866D01*
X26523279Y-56188946D01*
X26473255Y-56237725D01*
X26447298Y-56247928D01*
X26313680Y-56283731D01*
X26313673Y-56283734D01*
X26107517Y-56379865D01*
X25921179Y-56510342D01*
X25760342Y-56671179D01*
X25629865Y-56857517D01*
X25533734Y-57063673D01*
X25533730Y-57063682D01*
X25481127Y-57259999D01*
X23632372Y-57259999D01*
X22838668Y-56466295D01*
X20813797Y-54441423D01*
X20813789Y-54441417D01*
X20749938Y-54398753D01*
X20749937Y-54398753D01*
X20702335Y-54366946D01*
X20702333Y-54366945D01*
X20662630Y-54350500D01*
X20662629Y-54350500D01*
X20578497Y-54315651D01*
X20578495Y-54315650D01*
X20447023Y-54289500D01*
X20447022Y-54289500D01*
X18394491Y-54289500D01*
X18327452Y-54269815D01*
X18295536Y-54240226D01*
X18295534Y-54240224D01*
X18269029Y-54205124D01*
X18269027Y-54205121D01*
X18114199Y-54063978D01*
X18114194Y-54063974D01*
X17936069Y-53953684D01*
X17936063Y-53953682D01*
X17740701Y-53877998D01*
X17534756Y-53839500D01*
X17325244Y-53839500D01*
X17119299Y-53877998D01*
X16995752Y-53925860D01*
X16923936Y-53953682D01*
X16923930Y-53953684D01*
X16745805Y-54063974D01*
X16745800Y-54063978D01*
X16590976Y-54205118D01*
X16590973Y-54205121D01*
X16464712Y-54372318D01*
X16371328Y-54559856D01*
X16371323Y-54559869D01*
X16313987Y-54761381D01*
X16294657Y-54969999D01*
X16294657Y-54970000D01*
X16313987Y-55178618D01*
X16371323Y-55380130D01*
X16371328Y-55380143D01*
X16451546Y-55541241D01*
X16464712Y-55567681D01*
X16565426Y-55701049D01*
X16590973Y-55734878D01*
X16590976Y-55734881D01*
X16745800Y-55876021D01*
X16745805Y-55876025D01*
X16923930Y-55986315D01*
X16923932Y-55986316D01*
X16923934Y-55986317D01*
X16923937Y-55986318D01*
X16923939Y-55986319D01*
X16969804Y-56004087D01*
X17025206Y-56046659D01*
X17048797Y-56112426D01*
X17033086Y-56180506D01*
X16983063Y-56229286D01*
X16967442Y-56236229D01*
X16966513Y-56236567D01*
X16752422Y-56336399D01*
X16752420Y-56336400D01*
X16558926Y-56471886D01*
X16558920Y-56471891D01*
X16391891Y-56638920D01*
X16391886Y-56638926D01*
X16256400Y-56832420D01*
X16256399Y-56832422D01*
X16156570Y-57046507D01*
X16156567Y-57046513D01*
X16099364Y-57259999D01*
X16099364Y-57260000D01*
X16996988Y-57260000D01*
X16964075Y-57317007D01*
X16930000Y-57444174D01*
X16930000Y-57575826D01*
X16964075Y-57702993D01*
X16996988Y-57760000D01*
X16099364Y-57760000D01*
X16156567Y-57973486D01*
X16156570Y-57973492D01*
X16256399Y-58187578D01*
X16391894Y-58381082D01*
X16558917Y-58548105D01*
X16752421Y-58683600D01*
X16966506Y-58783429D01*
X16967425Y-58783764D01*
X16967772Y-58784020D01*
X16971416Y-58785719D01*
X16971074Y-58786451D01*
X17023687Y-58825192D01*
X17048621Y-58890461D01*
X17034310Y-58958849D01*
X16985297Y-59008644D01*
X16969806Y-59015911D01*
X16923942Y-59033678D01*
X16923930Y-59033684D01*
X16745805Y-59143974D01*
X16745800Y-59143978D01*
X16590976Y-59285118D01*
X16590973Y-59285121D01*
X16464712Y-59452318D01*
X16371328Y-59639856D01*
X16371323Y-59639869D01*
X16313987Y-59841381D01*
X16294657Y-60049999D01*
X16294657Y-60050000D01*
X16313987Y-60258618D01*
X16371323Y-60460130D01*
X16371328Y-60460143D01*
X16451546Y-60621241D01*
X16464712Y-60647681D01*
X16565426Y-60781049D01*
X16590973Y-60814878D01*
X16590976Y-60814881D01*
X16745800Y-60956021D01*
X16745805Y-60956025D01*
X16923930Y-61066315D01*
X16923931Y-61066315D01*
X16923934Y-61066317D01*
X17119299Y-61142002D01*
X17325244Y-61180500D01*
X17325246Y-61180500D01*
X17534754Y-61180500D01*
X17534756Y-61180500D01*
X17740701Y-61142002D01*
X17936066Y-61066317D01*
X18114197Y-60956023D01*
X18269029Y-60814876D01*
X18395288Y-60647681D01*
X18488676Y-60460133D01*
X18546012Y-60258619D01*
X18565343Y-60050000D01*
X18546012Y-59841381D01*
X18488676Y-59639867D01*
X18395288Y-59452319D01*
X18269029Y-59285124D01*
X18269026Y-59285121D01*
X18269023Y-59285118D01*
X18114199Y-59143978D01*
X18114194Y-59143974D01*
X17936069Y-59033684D01*
X17936063Y-59033681D01*
X17890194Y-59015912D01*
X17834792Y-58973339D01*
X17811202Y-58907572D01*
X17826913Y-58839492D01*
X17876937Y-58790713D01*
X17892581Y-58783762D01*
X17893491Y-58783430D01*
X18107578Y-58683600D01*
X18301082Y-58548105D01*
X18468105Y-58381082D01*
X18603600Y-58187578D01*
X18703429Y-57973492D01*
X18703432Y-57973486D01*
X18760636Y-57760000D01*
X17863012Y-57760000D01*
X17895925Y-57702993D01*
X17930000Y-57575826D01*
X17930000Y-57444174D01*
X17895925Y-57317007D01*
X17863012Y-57260000D01*
X18760636Y-57260000D01*
X18760635Y-57259999D01*
X18703432Y-57046513D01*
X18703429Y-57046507D01*
X18603600Y-56832422D01*
X18603599Y-56832420D01*
X18468113Y-56638926D01*
X18468108Y-56638920D01*
X18301082Y-56471894D01*
X18107578Y-56336399D01*
X17893484Y-56236566D01*
X17892564Y-56236231D01*
X17892215Y-56235974D01*
X17888584Y-56234281D01*
X17888924Y-56233550D01*
X17836305Y-56194798D01*
X17811377Y-56129526D01*
X17825695Y-56061139D01*
X17874713Y-56011349D01*
X17890196Y-56004087D01*
X17936057Y-55986321D01*
X17936061Y-55986318D01*
X17936066Y-55986317D01*
X18114197Y-55876023D01*
X18269029Y-55734876D01*
X18295537Y-55699773D01*
X18351645Y-55658138D01*
X18394491Y-55650500D01*
X20046765Y-55650500D01*
X20113804Y-55670185D01*
X20134446Y-55686819D01*
X23105446Y-58657819D01*
X23138931Y-58719142D01*
X23133947Y-58788834D01*
X23092075Y-58844767D01*
X23026611Y-58869184D01*
X23017765Y-58869500D01*
X21618118Y-58869500D01*
X21594666Y-58872221D01*
X21594664Y-58872221D01*
X21498732Y-58914580D01*
X21424580Y-58988732D01*
X21382221Y-59084664D01*
X21382221Y-59084666D01*
X21379500Y-59108118D01*
X21379500Y-60399608D01*
X21359815Y-60466647D01*
X21343181Y-60487289D01*
X18687331Y-63143138D01*
X18626008Y-63176623D01*
X18556316Y-63171639D01*
X18500383Y-63129767D01*
X18475966Y-63064303D01*
X18487532Y-63005849D01*
X18486601Y-63005489D01*
X18488652Y-63000192D01*
X18488656Y-63000174D01*
X18488671Y-63000143D01*
X18488676Y-63000133D01*
X18546012Y-62798619D01*
X18565343Y-62590000D01*
X18546012Y-62381381D01*
X18488676Y-62179867D01*
X18470653Y-62143673D01*
X18408453Y-62018758D01*
X18395288Y-61992319D01*
X18269029Y-61825124D01*
X18269026Y-61825121D01*
X18269023Y-61825118D01*
X18114199Y-61683978D01*
X18114194Y-61683974D01*
X17936069Y-61573684D01*
X17936063Y-61573682D01*
X17740701Y-61497998D01*
X17534756Y-61459500D01*
X17325244Y-61459500D01*
X17119299Y-61497998D01*
X16995752Y-61545860D01*
X16923936Y-61573682D01*
X16923930Y-61573684D01*
X16745805Y-61683974D01*
X16745800Y-61683978D01*
X16590976Y-61825118D01*
X16590973Y-61825121D01*
X16464712Y-61992318D01*
X16371328Y-62179856D01*
X16371323Y-62179869D01*
X16313987Y-62381381D01*
X16294657Y-62589999D01*
X16294657Y-62590000D01*
X16313987Y-62798618D01*
X16371323Y-63000130D01*
X16371328Y-63000143D01*
X16412039Y-63081900D01*
X16464712Y-63187681D01*
X16565426Y-63321049D01*
X16590973Y-63354878D01*
X16590976Y-63354881D01*
X16745800Y-63496021D01*
X16745805Y-63496025D01*
X16923930Y-63606315D01*
X16923931Y-63606315D01*
X16923934Y-63606317D01*
X17119299Y-63682002D01*
X17325244Y-63720500D01*
X17325246Y-63720500D01*
X17534754Y-63720500D01*
X17534756Y-63720500D01*
X17740701Y-63682002D01*
X17936066Y-63606317D01*
X18037397Y-63543575D01*
X18104756Y-63525020D01*
X18171455Y-63545828D01*
X18216317Y-63599393D01*
X18225097Y-63668709D01*
X18222448Y-63681095D01*
X18199500Y-63766739D01*
X18199500Y-64054171D01*
X18179815Y-64121210D01*
X18127011Y-64166965D01*
X18057853Y-64176909D01*
X18010223Y-64159598D01*
X17936069Y-64113685D01*
X17936070Y-64113685D01*
X17936066Y-64113683D01*
X17740701Y-64037998D01*
X17534756Y-63999500D01*
X17325244Y-63999500D01*
X17119299Y-64037998D01*
X17039297Y-64068991D01*
X16923936Y-64113682D01*
X16923930Y-64113684D01*
X16745805Y-64223974D01*
X16745800Y-64223978D01*
X16590976Y-64365118D01*
X16590973Y-64365121D01*
X16464712Y-64532318D01*
X16371328Y-64719856D01*
X16371323Y-64719869D01*
X16313987Y-64921381D01*
X16294657Y-65129999D01*
X16294657Y-65130000D01*
X16313987Y-65338618D01*
X16371323Y-65540130D01*
X16371328Y-65540143D01*
X16412039Y-65621900D01*
X16464712Y-65727681D01*
X16565426Y-65861049D01*
X16590973Y-65894878D01*
X16590976Y-65894881D01*
X16745800Y-66036021D01*
X16745805Y-66036025D01*
X16923930Y-66146315D01*
X16923931Y-66146315D01*
X16923934Y-66146317D01*
X17119299Y-66222002D01*
X17325244Y-66260500D01*
X17325246Y-66260500D01*
X17534754Y-66260500D01*
X17534756Y-66260500D01*
X17740701Y-66222002D01*
X17936066Y-66146317D01*
X18010223Y-66100400D01*
X18077583Y-66081845D01*
X18144282Y-66102653D01*
X18189144Y-66156219D01*
X18199500Y-66205828D01*
X18199500Y-66594171D01*
X18179815Y-66661210D01*
X18127011Y-66706965D01*
X18057853Y-66716909D01*
X18010223Y-66699598D01*
X17936069Y-66653685D01*
X17936070Y-66653685D01*
X17936066Y-66653683D01*
X17740701Y-66577998D01*
X17534756Y-66539500D01*
X17325244Y-66539500D01*
X17119299Y-66577998D01*
X17052999Y-66603683D01*
X16923936Y-66653682D01*
X16923930Y-66653684D01*
X16745805Y-66763974D01*
X16745800Y-66763978D01*
X16590976Y-66905118D01*
X16590973Y-66905121D01*
X16464712Y-67072318D01*
X16371328Y-67259856D01*
X16371323Y-67259869D01*
X16313987Y-67461381D01*
X16294657Y-67669999D01*
X16294657Y-67670000D01*
X16313987Y-67878618D01*
X16371323Y-68080130D01*
X16371328Y-68080143D01*
X16412039Y-68161900D01*
X16464712Y-68267681D01*
X16565426Y-68401049D01*
X16590973Y-68434878D01*
X16590976Y-68434881D01*
X16745800Y-68576021D01*
X16745805Y-68576025D01*
X16923930Y-68686315D01*
X16923932Y-68686316D01*
X16923934Y-68686317D01*
X16923937Y-68686318D01*
X16923939Y-68686319D01*
X16969804Y-68704087D01*
X17025206Y-68746659D01*
X17048797Y-68812426D01*
X17033086Y-68880506D01*
X16983063Y-68929286D01*
X16967442Y-68936229D01*
X16966513Y-68936567D01*
X16752422Y-69036399D01*
X16752420Y-69036400D01*
X16558926Y-69171886D01*
X16558920Y-69171891D01*
X16391891Y-69338920D01*
X16391886Y-69338926D01*
X16256400Y-69532420D01*
X16256399Y-69532422D01*
X16156570Y-69746507D01*
X16156567Y-69746513D01*
X16099364Y-69959999D01*
X16099364Y-69960000D01*
X16996988Y-69960000D01*
X16964075Y-70017007D01*
X16930000Y-70144174D01*
X16930000Y-70275826D01*
X16964075Y-70402993D01*
X16996988Y-70460000D01*
X16099364Y-70460000D01*
X16156567Y-70673486D01*
X16156570Y-70673492D01*
X16256399Y-70887578D01*
X16391894Y-71081082D01*
X16558917Y-71248105D01*
X16752421Y-71383600D01*
X16966506Y-71483429D01*
X16967425Y-71483764D01*
X16967772Y-71484020D01*
X16971416Y-71485719D01*
X16971074Y-71486451D01*
X17023687Y-71525192D01*
X17048621Y-71590461D01*
X17034310Y-71658849D01*
X16985297Y-71708644D01*
X16969806Y-71715911D01*
X16923942Y-71733678D01*
X16923930Y-71733684D01*
X16745805Y-71843974D01*
X16745800Y-71843978D01*
X16590976Y-71985118D01*
X16590973Y-71985121D01*
X16464712Y-72152318D01*
X16371328Y-72339856D01*
X16371323Y-72339869D01*
X16313987Y-72541381D01*
X16294657Y-72749999D01*
X16294657Y-72750000D01*
X16313987Y-72958618D01*
X16371323Y-73160130D01*
X16371328Y-73160143D01*
X16439815Y-73297681D01*
X16464712Y-73347681D01*
X16565426Y-73481049D01*
X16590973Y-73514878D01*
X16590976Y-73514881D01*
X16745800Y-73656021D01*
X16745805Y-73656025D01*
X16923930Y-73766315D01*
X16923931Y-73766315D01*
X16923934Y-73766317D01*
X17119299Y-73842002D01*
X17325244Y-73880500D01*
X17325246Y-73880500D01*
X17534754Y-73880500D01*
X17534756Y-73880500D01*
X17740701Y-73842002D01*
X17936066Y-73766317D01*
X18010223Y-73720400D01*
X18077583Y-73701845D01*
X18144282Y-73722653D01*
X18189144Y-73776219D01*
X18199500Y-73825828D01*
X18199500Y-74214171D01*
X18179815Y-74281210D01*
X18127011Y-74326965D01*
X18057853Y-74336909D01*
X18010223Y-74319598D01*
X17936069Y-74273685D01*
X17936070Y-74273685D01*
X17936066Y-74273683D01*
X17740701Y-74197998D01*
X17534756Y-74159500D01*
X17325244Y-74159500D01*
X17119299Y-74197998D01*
X17028443Y-74233196D01*
X16923936Y-74273682D01*
X16923930Y-74273684D01*
X16745805Y-74383974D01*
X16745800Y-74383978D01*
X16590976Y-74525118D01*
X16590973Y-74525121D01*
X16464712Y-74692318D01*
X16371328Y-74879856D01*
X16371323Y-74879869D01*
X16313987Y-75081381D01*
X16294657Y-75289999D01*
X16294657Y-75290000D01*
X16313987Y-75498618D01*
X16371323Y-75700130D01*
X16371328Y-75700143D01*
X16439815Y-75837681D01*
X16464712Y-75887681D01*
X16565426Y-76021049D01*
X16590973Y-76054878D01*
X16590976Y-76054881D01*
X16745800Y-76196021D01*
X16745805Y-76196025D01*
X16923930Y-76306315D01*
X16923931Y-76306315D01*
X16923934Y-76306317D01*
X17119299Y-76382002D01*
X17325244Y-76420500D01*
X17325246Y-76420500D01*
X17534754Y-76420500D01*
X17534756Y-76420500D01*
X17740701Y-76382002D01*
X17936066Y-76306317D01*
X18010223Y-76260400D01*
X18077583Y-76241845D01*
X18144282Y-76262653D01*
X18189144Y-76316219D01*
X18199500Y-76365828D01*
X18199500Y-76754171D01*
X18179815Y-76821210D01*
X18127011Y-76866965D01*
X18057853Y-76876909D01*
X18010223Y-76859598D01*
X17936069Y-76813685D01*
X17936070Y-76813685D01*
X17936066Y-76813683D01*
X17740701Y-76737998D01*
X17534756Y-76699500D01*
X17325244Y-76699500D01*
X17119299Y-76737998D01*
X17052999Y-76763683D01*
X16923936Y-76813682D01*
X16923930Y-76813684D01*
X16745805Y-76923974D01*
X16745800Y-76923978D01*
X16590976Y-77065118D01*
X16590973Y-77065121D01*
X16464712Y-77232318D01*
X16371328Y-77419856D01*
X16371323Y-77419869D01*
X16313987Y-77621381D01*
X16294657Y-77829999D01*
X16294657Y-77830000D01*
X16313987Y-78038618D01*
X16371323Y-78240130D01*
X16371328Y-78240143D01*
X16439815Y-78377681D01*
X16464712Y-78427681D01*
X16565426Y-78561049D01*
X16590973Y-78594878D01*
X16590976Y-78594881D01*
X16745800Y-78736021D01*
X16745805Y-78736025D01*
X16923930Y-78846315D01*
X16923931Y-78846315D01*
X16923934Y-78846317D01*
X17119299Y-78922002D01*
X17325244Y-78960500D01*
X17325246Y-78960500D01*
X17534754Y-78960500D01*
X17534756Y-78960500D01*
X17740701Y-78922002D01*
X17936066Y-78846317D01*
X17936067Y-78846315D01*
X17939826Y-78844860D01*
X18009450Y-78838998D01*
X18071190Y-78871708D01*
X18105445Y-78932605D01*
X18101338Y-79002354D01*
X18072301Y-79048168D01*
X17871187Y-79249281D01*
X17809864Y-79282766D01*
X17746599Y-79278241D01*
X17746222Y-79279568D01*
X17740712Y-79278000D01*
X17713769Y-79272963D01*
X17534756Y-79239500D01*
X17325244Y-79239500D01*
X17119299Y-79277998D01*
X17005665Y-79322020D01*
X16923936Y-79353682D01*
X16923930Y-79353684D01*
X16745805Y-79463974D01*
X16745800Y-79463978D01*
X16590976Y-79605118D01*
X16590973Y-79605121D01*
X16464712Y-79772318D01*
X16371328Y-79959856D01*
X16371323Y-79959869D01*
X16313987Y-80161381D01*
X16294657Y-80369999D01*
X16294657Y-80370000D01*
X16313987Y-80578618D01*
X16371323Y-80780130D01*
X16371328Y-80780143D01*
X16451546Y-80941241D01*
X16464712Y-80967681D01*
X16565426Y-81101049D01*
X16590973Y-81134878D01*
X16590976Y-81134881D01*
X16745800Y-81276021D01*
X16745805Y-81276025D01*
X16923930Y-81386315D01*
X16923932Y-81386316D01*
X16923934Y-81386317D01*
X16923937Y-81386318D01*
X16923939Y-81386319D01*
X16969804Y-81404087D01*
X17025206Y-81446659D01*
X17048797Y-81512426D01*
X17033086Y-81580506D01*
X16983063Y-81629286D01*
X16967442Y-81636229D01*
X16966513Y-81636567D01*
X16752422Y-81736399D01*
X16752420Y-81736400D01*
X16558926Y-81871886D01*
X16558920Y-81871891D01*
X16391891Y-82038920D01*
X16391886Y-82038926D01*
X16256400Y-82232420D01*
X16256399Y-82232422D01*
X16156570Y-82446507D01*
X16156567Y-82446513D01*
X16099364Y-82659999D01*
X16099364Y-82660000D01*
X16996988Y-82660000D01*
X16964075Y-82717007D01*
X16930000Y-82844174D01*
X16930000Y-82975826D01*
X16964075Y-83102993D01*
X16996988Y-83160000D01*
X16099364Y-83160000D01*
X16156567Y-83373486D01*
X16156570Y-83373492D01*
X16256399Y-83587578D01*
X16391894Y-83781082D01*
X16558917Y-83948105D01*
X16752421Y-84083600D01*
X16966506Y-84183429D01*
X16967425Y-84183764D01*
X16967772Y-84184020D01*
X16971416Y-84185719D01*
X16971074Y-84186451D01*
X17023687Y-84225192D01*
X17048621Y-84290461D01*
X17034310Y-84358849D01*
X16985297Y-84408644D01*
X16969806Y-84415911D01*
X16923942Y-84433678D01*
X16923930Y-84433684D01*
X16745805Y-84543974D01*
X16745800Y-84543978D01*
X16590976Y-84685118D01*
X16590973Y-84685121D01*
X16464712Y-84852318D01*
X16371328Y-85039856D01*
X16371323Y-85039869D01*
X16313987Y-85241381D01*
X16294657Y-85449999D01*
X16294657Y-85450000D01*
X16313987Y-85658618D01*
X16371323Y-85860130D01*
X16371328Y-85860143D01*
X16429428Y-85976822D01*
X16464712Y-86047681D01*
X16565426Y-86181049D01*
X16590973Y-86214878D01*
X16590976Y-86214881D01*
X16745800Y-86356021D01*
X16745805Y-86356025D01*
X16923930Y-86466315D01*
X16923931Y-86466315D01*
X16923934Y-86466317D01*
X17119299Y-86542002D01*
X17325244Y-86580500D01*
X17325246Y-86580500D01*
X17534754Y-86580500D01*
X17534756Y-86580500D01*
X17740701Y-86542002D01*
X17936066Y-86466317D01*
X17936067Y-86466315D01*
X17939826Y-86464860D01*
X18009450Y-86458998D01*
X18071190Y-86491708D01*
X18105445Y-86552605D01*
X18101338Y-86622354D01*
X18072301Y-86668168D01*
X17871188Y-86869281D01*
X17809865Y-86902766D01*
X17746599Y-86898241D01*
X17746222Y-86899568D01*
X17740712Y-86898000D01*
X17713769Y-86892963D01*
X17534756Y-86859500D01*
X17325244Y-86859500D01*
X17119299Y-86897998D01*
X17005665Y-86942020D01*
X16923936Y-86973682D01*
X16923930Y-86973684D01*
X16745805Y-87083974D01*
X16745800Y-87083978D01*
X16590976Y-87225118D01*
X16590973Y-87225121D01*
X16464712Y-87392318D01*
X16371328Y-87579856D01*
X16371323Y-87579869D01*
X16313987Y-87781381D01*
X16294657Y-87989999D01*
X16294657Y-87990000D01*
X16313987Y-88198618D01*
X16371323Y-88400130D01*
X16371328Y-88400143D01*
X16439815Y-88537681D01*
X16464712Y-88587681D01*
X16590945Y-88754842D01*
X16590973Y-88754878D01*
X16590976Y-88754881D01*
X16745800Y-88896021D01*
X16745805Y-88896025D01*
X16923930Y-89006315D01*
X16923931Y-89006315D01*
X16923934Y-89006317D01*
X17119299Y-89082002D01*
X17325244Y-89120500D01*
X17325246Y-89120500D01*
X17534754Y-89120500D01*
X17534756Y-89120500D01*
X17740701Y-89082002D01*
X17936066Y-89006317D01*
X17936069Y-89006314D01*
X17939825Y-89004860D01*
X18009448Y-88998998D01*
X18071189Y-89031708D01*
X18105444Y-89092604D01*
X18101338Y-89162353D01*
X18072300Y-89208168D01*
X17871187Y-89409281D01*
X17809864Y-89442766D01*
X17746599Y-89438241D01*
X17746222Y-89439568D01*
X17740712Y-89438000D01*
X17711001Y-89432446D01*
X17534756Y-89399500D01*
X17325244Y-89399500D01*
X17119299Y-89437998D01*
X17005665Y-89482020D01*
X16923936Y-89513682D01*
X16923930Y-89513684D01*
X16745805Y-89623974D01*
X16745800Y-89623978D01*
X16590976Y-89765118D01*
X16590973Y-89765121D01*
X16464712Y-89932318D01*
X16371328Y-90119856D01*
X16371323Y-90119869D01*
X16313987Y-90321381D01*
X16294657Y-90529999D01*
X16294657Y-90530000D01*
X16313987Y-90738618D01*
X16371323Y-90940130D01*
X16371328Y-90940143D01*
X16439815Y-91077681D01*
X16464712Y-91127681D01*
X16565426Y-91261049D01*
X16590973Y-91294878D01*
X16590976Y-91294881D01*
X16745800Y-91436021D01*
X16745805Y-91436025D01*
X16923930Y-91546315D01*
X16923931Y-91546315D01*
X16923934Y-91546317D01*
X17119299Y-91622002D01*
X17325244Y-91660500D01*
X17325246Y-91660500D01*
X17534754Y-91660500D01*
X17534756Y-91660500D01*
X17740701Y-91622002D01*
X17936066Y-91546317D01*
X17936069Y-91546314D01*
X17939825Y-91544860D01*
X18009448Y-91538998D01*
X18071189Y-91571708D01*
X18105444Y-91632604D01*
X18101338Y-91702353D01*
X18072300Y-91748168D01*
X17871187Y-91949281D01*
X17809864Y-91982766D01*
X17746599Y-91978241D01*
X17746222Y-91979568D01*
X17740712Y-91978000D01*
X17713769Y-91972963D01*
X17534756Y-91939500D01*
X17325244Y-91939500D01*
X17119299Y-91977998D01*
X16995752Y-92025860D01*
X16923936Y-92053682D01*
X16923930Y-92053684D01*
X16745805Y-92163974D01*
X16745800Y-92163978D01*
X16590976Y-92305118D01*
X16590973Y-92305121D01*
X16464712Y-92472318D01*
X16371328Y-92659856D01*
X16371323Y-92659869D01*
X16313987Y-92861381D01*
X16294657Y-93069999D01*
X16294657Y-93070000D01*
X16313987Y-93278618D01*
X16371323Y-93480130D01*
X16371328Y-93480143D01*
X16464712Y-93667681D01*
X16589029Y-93832304D01*
X16613721Y-93897666D01*
X16599156Y-93966000D01*
X16577756Y-93994712D01*
X15884966Y-94687504D01*
X15795505Y-94776964D01*
X15731887Y-94887154D01*
X15681320Y-94935370D01*
X15612713Y-94948592D01*
X15547848Y-94922624D01*
X15507320Y-94865710D01*
X15500500Y-94825154D01*
X15500500Y-51538118D01*
X16299500Y-51538118D01*
X16299500Y-53321881D01*
X16302221Y-53345333D01*
X16302221Y-53345335D01*
X16344580Y-53441267D01*
X16418733Y-53515420D01*
X16514667Y-53557779D01*
X16538120Y-53560500D01*
X16538121Y-53560500D01*
X18321879Y-53560500D01*
X18321880Y-53560500D01*
X18345333Y-53557779D01*
X18441267Y-53515420D01*
X18515420Y-53441267D01*
X18557779Y-53345333D01*
X18560500Y-53321880D01*
X18560500Y-51538120D01*
X18560500Y-51538118D01*
X34079500Y-51538118D01*
X34079500Y-53321881D01*
X34082221Y-53345333D01*
X34082221Y-53345335D01*
X34124580Y-53441267D01*
X34198733Y-53515420D01*
X34294667Y-53557779D01*
X34318120Y-53560500D01*
X34318121Y-53560500D01*
X36101879Y-53560500D01*
X36101880Y-53560500D01*
X36125333Y-53557779D01*
X36221267Y-53515420D01*
X36295420Y-53441267D01*
X36337779Y-53345333D01*
X36340500Y-53321880D01*
X36340500Y-52893713D01*
X37149500Y-52893713D01*
X37149500Y-53106286D01*
X37182753Y-53316239D01*
X37248444Y-53518414D01*
X37344951Y-53707820D01*
X37469890Y-53879786D01*
X37620213Y-54030109D01*
X37792179Y-54155048D01*
X37792181Y-54155049D01*
X37792184Y-54155051D01*
X37981588Y-54251557D01*
X38183757Y-54317246D01*
X38393713Y-54350500D01*
X38393714Y-54350500D01*
X38606286Y-54350500D01*
X38606287Y-54350500D01*
X38816243Y-54317246D01*
X39018412Y-54251557D01*
X39207816Y-54155051D01*
X39244886Y-54128118D01*
X40919500Y-54128118D01*
X40919500Y-55811881D01*
X40922221Y-55835333D01*
X40922221Y-55835335D01*
X40940187Y-55876023D01*
X40964580Y-55931267D01*
X41038733Y-56005420D01*
X41134667Y-56047779D01*
X41158120Y-56050500D01*
X41158121Y-56050500D01*
X42841879Y-56050500D01*
X42841880Y-56050500D01*
X42865333Y-56047779D01*
X42961267Y-56005420D01*
X43035420Y-55931267D01*
X43077779Y-55835333D01*
X43080500Y-55811880D01*
X43080500Y-54128120D01*
X43077779Y-54104667D01*
X43035420Y-54008733D01*
X42961267Y-53934580D01*
X42942503Y-53926295D01*
X42865334Y-53892221D01*
X42841881Y-53889500D01*
X42841880Y-53889500D01*
X41158120Y-53889500D01*
X41158118Y-53889500D01*
X41134666Y-53892221D01*
X41134664Y-53892221D01*
X41038732Y-53934580D01*
X40964580Y-54008732D01*
X40922221Y-54104664D01*
X40922221Y-54104666D01*
X40919500Y-54128118D01*
X39244886Y-54128118D01*
X39277164Y-54104667D01*
X39379786Y-54030109D01*
X39379788Y-54030106D01*
X39379792Y-54030104D01*
X39530104Y-53879792D01*
X39530106Y-53879788D01*
X39530109Y-53879786D01*
X39655048Y-53707820D01*
X39655047Y-53707820D01*
X39655051Y-53707816D01*
X39751557Y-53518412D01*
X39817246Y-53316243D01*
X39850500Y-53106287D01*
X39850500Y-52893713D01*
X39817246Y-52683757D01*
X39751557Y-52481588D01*
X39655051Y-52292184D01*
X39655049Y-52292181D01*
X39655048Y-52292179D01*
X39530109Y-52120213D01*
X39379786Y-51969890D01*
X39207820Y-51844951D01*
X39018414Y-51748444D01*
X39018413Y-51748443D01*
X39018412Y-51748443D01*
X38816243Y-51682754D01*
X38816241Y-51682753D01*
X38816240Y-51682753D01*
X38654957Y-51657208D01*
X38606287Y-51649500D01*
X38393713Y-51649500D01*
X38345042Y-51657208D01*
X38183760Y-51682753D01*
X37981585Y-51748444D01*
X37792179Y-51844951D01*
X37620213Y-51969890D01*
X37469890Y-52120213D01*
X37344951Y-52292179D01*
X37248444Y-52481585D01*
X37182753Y-52683760D01*
X37149500Y-52893713D01*
X36340500Y-52893713D01*
X36340500Y-51538120D01*
X36337779Y-51514667D01*
X36295420Y-51418733D01*
X36221267Y-51344580D01*
X36125334Y-51302221D01*
X36101881Y-51299500D01*
X36101880Y-51299500D01*
X34318120Y-51299500D01*
X34318118Y-51299500D01*
X34294666Y-51302221D01*
X34294664Y-51302221D01*
X34198732Y-51344580D01*
X34124580Y-51418732D01*
X34082221Y-51514664D01*
X34082221Y-51514666D01*
X34079500Y-51538118D01*
X18560500Y-51538118D01*
X18557779Y-51514667D01*
X18515420Y-51418733D01*
X18441267Y-51344580D01*
X18345334Y-51302221D01*
X18321881Y-51299500D01*
X18321880Y-51299500D01*
X16538120Y-51299500D01*
X16538118Y-51299500D01*
X16514666Y-51302221D01*
X16514664Y-51302221D01*
X16418732Y-51344580D01*
X16344580Y-51418732D01*
X16302221Y-51514664D01*
X16302221Y-51514666D01*
X16299500Y-51538118D01*
X15500500Y-51538118D01*
X15500500Y-50624500D01*
X15520185Y-50557461D01*
X15572989Y-50511706D01*
X15624500Y-50500500D01*
X44375500Y-50500500D01*
X44442539Y-50520185D01*
G37*
%TD.AperFunction*%
%TA.AperFunction,Conductor*%
G36*
X20538098Y-92511712D02*
G01*
X20594031Y-92553584D01*
X20618448Y-92619048D01*
X20618764Y-92627894D01*
X20618764Y-94230343D01*
X20599079Y-94297382D01*
X20582445Y-94318024D01*
X18982113Y-95918354D01*
X18920790Y-95951839D01*
X18851098Y-95946855D01*
X18796057Y-95906160D01*
X18760637Y-95860000D01*
X17863012Y-95860000D01*
X17895925Y-95802993D01*
X17930000Y-95675826D01*
X17930000Y-95544174D01*
X17895925Y-95417007D01*
X17863012Y-95360000D01*
X18760636Y-95360000D01*
X18760635Y-95359999D01*
X18703432Y-95146513D01*
X18703429Y-95146507D01*
X18603600Y-94932422D01*
X18603599Y-94932420D01*
X18468113Y-94738926D01*
X18468108Y-94738920D01*
X18425922Y-94696734D01*
X18392437Y-94635411D01*
X18397421Y-94565719D01*
X18425918Y-94521377D01*
X19378707Y-93568587D01*
X19378712Y-93568584D01*
X19388915Y-93558380D01*
X19388917Y-93558380D01*
X19478379Y-93468918D01*
X19478379Y-93468917D01*
X20407083Y-92540213D01*
X20468406Y-92506728D01*
X20538098Y-92511712D01*
G37*
%TD.AperFunction*%
%TD*%
M02*
