M48
; DRILL file {KiCad 8.0.5} date 2024-11-21T14:29:41+0000
; FORMAT={-:-/ absolute / inch / decimal}
; #@! TF.CreationDate,2024-11-21T14:29:41+00:00
; #@! TF.GenerationSoftware,Kicad,Pcbnew,8.0.5
; #@! TF.FileFunction,MixedPlating,1,2
FMAT,2
INCH
; #@! TA.AperFunction,Plated,PTH,ViaDrill
T1C0.0118
; #@! TA.AperFunction,Plated,PTH,ComponentDrill
T2C0.0295
; #@! TA.AperFunction,Plated,PTH,ComponentDrill
T3C0.0315
; #@! TA.AperFunction,Plated,PTH,ComponentDrill
T4C0.0394
; #@! TA.AperFunction,NonPlated,NPTH,ComponentDrill
T5C0.0866
%
G90
G05
T1
X2.0114Y-3.0524
X2.0291Y-3.3835
X2.03Y-4.07
X2.03Y-4.49
X2.06Y-4.22
X2.08Y-4.86
X2.09Y-5.59
X2.0909Y-4.9697
X2.11Y-4.76
X2.1398Y-3.3846
X2.14Y-4.07
X2.14Y-4.489
X2.1551Y-3.0524
X2.1972Y-3.91
X2.22Y-4.96
X2.23Y-5.82
X2.26Y-3.91
X2.3594Y-2.1201
X2.37Y-4.49
X2.38Y-4.18
X2.4327Y-5.69
X2.4539Y-3.91
X2.4539Y-4.18
X2.4563Y-4.3654
X2.54Y-2.07
X2.5575Y-5.32
X2.56Y-5.47
X2.63Y-3.41
X2.63Y-4.34
X2.65Y-2.91
X2.66Y-2.31
X2.67Y-5.69
X2.68Y-5.32
X2.69Y-3.35
X2.69Y-4.14
X2.7Y-2.1917
X2.72Y-2.41
X2.7307Y-2.6689
X2.74Y-5.44
X2.75Y-4.34
X2.83Y-4.14
X2.87Y-4.34
X2.87Y-4.55
X2.89Y-4.2
X2.8958Y-4.52
X2.9043Y-2.9728
X2.93Y-2.23
X3.0224Y-4.9583
X3.0795Y-3.2823
X3.1Y-4.63
T2
X2.7583Y-2.3543
X2.8083Y-2.3543
X2.8583Y-2.3543
X2.9843Y-2.3543
X3.0343Y-2.3543
X3.0843Y-2.3543
T3
X2.0276Y-2.0394
X2.0276Y-5.2362
X2.0276Y-5.4331
X2.0276Y-5.5433
X2.0276Y-5.8433
X2.0295Y-2.1496
X2.0295Y-2.3465
X2.0295Y-2.4449
X2.0295Y-2.7449
X2.0315Y-2.8417
X2.0315Y-3.1417
X2.0315Y-3.2394
X2.0315Y-3.5394
X2.0315Y-3.9961
X2.0315Y-4.2961
X2.0315Y-4.3898
X2.0315Y-4.6898
X2.0315Y-4.8181
X2.0315Y-5.1181
X2.1457Y-2.8417
X2.1457Y-3.1417
X2.1457Y-3.2394
X2.1457Y-3.5394
X2.1457Y-3.9961
X2.1457Y-4.2961
X2.1457Y-4.3898
X2.1457Y-4.6898
X2.1457Y-5.2362
X2.1457Y-5.4331
X2.1457Y-5.5433
X2.1457Y-5.8433
X2.1496Y-2.1496
X2.1496Y-2.3465
X2.1496Y-2.4449
X2.1496Y-2.7449
X2.1496Y-4.8181
X2.1496Y-5.1181
X2.2598Y-3.9961
X2.2598Y-4.2961
X2.2598Y-4.3898
X2.2598Y-4.6898
X2.2638Y-5.2394
X2.2638Y-5.5394
X2.2677Y-4.8181
X2.2677Y-5.1181
X2.2717Y-5.7575
X2.3276Y-2.0394
X2.3701Y-5.7575
X2.374Y-3.9961
X2.374Y-4.2961
X2.374Y-4.3898
X2.374Y-4.6898
X2.3819Y-5.2394
X2.3819Y-5.5394
X2.4035Y-4.8264
X2.4035Y-4.9264
X2.4035Y-5.0264
X2.4035Y-5.1264
X2.4213Y-2.0394
X2.5Y-5.2394
X2.5Y-5.5394
X2.5539Y-4.8783
X2.5539Y-5.0752
X2.5709Y-3.9961
X2.5709Y-4.2961
X2.5709Y-4.3898
X2.5709Y-4.6898
X2.6181Y-5.2394
X2.6181Y-5.5394
X2.689Y-3.9961
X2.689Y-4.2961
X2.689Y-4.3898
X2.689Y-4.6898
X2.7035Y-4.8264
X2.7035Y-4.9264
X2.7035Y-5.0264
X2.7035Y-5.1264
X2.7213Y-2.0394
X2.7283Y-2.5197
X2.7283Y-2.8197
X2.7283Y-3.7047
X2.7283Y-3.9016
X2.7362Y-5.2394
X2.7362Y-5.5394
X2.748Y-5.7575
X2.8071Y-3.9961
X2.8071Y-4.2961
X2.8071Y-4.3898
X2.8071Y-4.6898
X2.8465Y-2.5197
X2.8465Y-2.8197
X2.8465Y-2.9087
X2.8465Y-3.2087
X2.8465Y-3.2992
X2.8465Y-3.5992
X2.8465Y-3.7047
X2.8465Y-3.9016
X2.8465Y-4.8181
X2.8465Y-5.1181
X2.8465Y-5.7575
X2.8543Y-5.2394
X2.8543Y-5.5394
X2.9252Y-3.9961
X2.9252Y-4.2961
X2.9252Y-4.3898
X2.9252Y-4.6898
X2.9646Y-2.5197
X2.9646Y-2.8197
X2.9646Y-2.9087
X2.9646Y-3.2087
X2.9646Y-3.2992
X2.9646Y-3.5992
X2.9646Y-3.7047
X2.9646Y-3.9016
X2.9646Y-4.8181
X2.9646Y-5.1181
X2.9724Y-5.2362
X2.9724Y-5.4331
X2.9724Y-5.5433
X2.9724Y-5.8433
X3.0827Y-2.5197
X3.0827Y-2.8197
X3.0827Y-3.7047
X3.0827Y-3.9016
X3.0827Y-4.8181
X3.0827Y-5.1181
X3.0906Y-5.2362
X3.0906Y-5.4331
X3.0906Y-5.5433
X3.0906Y-5.8433
T4
X2.2642Y-2.3622
X2.2642Y-2.4622
X2.2642Y-2.5622
X2.2642Y-2.6622
X2.2642Y-2.7622
X2.2642Y-2.8622
X2.2642Y-2.9622
X2.2642Y-3.0622
X2.2642Y-3.1622
X2.2642Y-3.2622
X2.2642Y-3.3622
X2.2642Y-3.4622
X2.2642Y-3.5622
X2.2642Y-3.6622
X2.2787Y-2.2047
X2.2787Y-3.8268
X2.3642Y-2.3622
X2.3642Y-2.4622
X2.3642Y-2.5622
X2.3642Y-2.6622
X2.3642Y-2.7622
X2.3642Y-2.8622
X2.3642Y-2.9622
X2.3642Y-3.0622
X2.3642Y-3.1622
X2.3642Y-3.2622
X2.3642Y-3.3622
X2.3642Y-3.4622
X2.3642Y-3.5622
X2.3642Y-3.6622
X2.3787Y-2.2047
X2.3787Y-3.8268
X2.4642Y-2.3622
X2.4642Y-2.4622
X2.4642Y-2.5622
X2.4642Y-2.6622
X2.4642Y-2.7622
X2.4642Y-2.8622
X2.4642Y-2.9622
X2.4642Y-3.0622
X2.4642Y-3.1622
X2.4642Y-3.2622
X2.4642Y-3.3622
X2.4642Y-3.4622
X2.4642Y-3.5622
X2.4642Y-3.6622
X2.4787Y-2.2047
X2.4787Y-3.8268
X2.5091Y-5.8268
X2.5642Y-2.3622
X2.5642Y-2.4622
X2.5642Y-2.5622
X2.5642Y-2.6622
X2.5642Y-2.7622
X2.5642Y-2.8622
X2.5642Y-2.9622
X2.5642Y-3.0622
X2.5642Y-3.1622
X2.5642Y-3.2622
X2.5642Y-3.3622
X2.5642Y-3.4622
X2.5642Y-3.5622
X2.5642Y-3.6622
X2.5787Y-2.2047
X2.5787Y-3.8268
X2.6091Y-5.8268
X2.7098Y-2.9795
X2.7098Y-3.0795
X2.7098Y-3.1795
X2.7098Y-3.2795
X3.0827Y-2.0616
X3.0827Y-2.1616
X3.0827Y-3.0795
X3.0827Y-3.1795
X3.0827Y-4.1898
X3.0827Y-4.2898
X3.0827Y-4.3898
X3.0827Y-4.4898
T5
X2.0866Y-3.8189
X2.5591Y-5.6772
X2.8937Y-2.0866
M30
