%TF.GenerationSoftware,KiCad,Pcbnew,8.0.5*%
%TF.CreationDate,2024-12-21T15:11:58+00:00*%
%TF.ProjectId,EuroRackDaisy,4575726f-5261-4636-9b44-616973792e6b,rev?*%
%TF.SameCoordinates,Original*%
%TF.FileFunction,Copper,L2,Bot*%
%TF.FilePolarity,Positive*%
%FSLAX46Y46*%
G04 Gerber Fmt 4.6, Leading zero omitted, Abs format (unit mm)*
G04 Created by KiCad (PCBNEW 8.0.5) date 2024-12-21 15:11:58*
%MOMM*%
%LPD*%
G01*
G04 APERTURE LIST*
G04 Aperture macros list*
%AMRoundRect*
0 Rectangle with rounded corners*
0 $1 Rounding radius*
0 $2 $3 $4 $5 $6 $7 $8 $9 X,Y pos of 4 corners*
0 Add a 4 corners polygon primitive as box body*
4,1,4,$2,$3,$4,$5,$6,$7,$8,$9,$2,$3,0*
0 Add four circle primitives for the rounded corners*
1,1,$1+$1,$2,$3*
1,1,$1+$1,$4,$5*
1,1,$1+$1,$6,$7*
1,1,$1+$1,$8,$9*
0 Add four rect primitives between the rounded corners*
20,1,$1+$1,$2,$3,$4,$5,0*
20,1,$1+$1,$4,$5,$6,$7,0*
20,1,$1+$1,$6,$7,$8,$9,0*
20,1,$1+$1,$8,$9,$2,$3,0*%
%AMFreePoly0*
4,1,19,0.500000,-0.750000,0.000000,-0.750000,0.000000,-0.744911,-0.071157,-0.744911,-0.207708,-0.704816,-0.327430,-0.627875,-0.420627,-0.520320,-0.479746,-0.390866,-0.500000,-0.250000,-0.500000,0.250000,-0.479746,0.390866,-0.420627,0.520320,-0.327430,0.627875,-0.207708,0.704816,-0.071157,0.744911,0.000000,0.744911,0.000000,0.750000,0.500000,0.750000,0.500000,-0.750000,0.500000,-0.750000,
$1*%
%AMFreePoly1*
4,1,19,0.000000,0.744911,0.071157,0.744911,0.207708,0.704816,0.327430,0.627875,0.420627,0.520320,0.479746,0.390866,0.500000,0.250000,0.500000,-0.250000,0.479746,-0.390866,0.420627,-0.520320,0.327430,-0.627875,0.207708,-0.704816,0.071157,-0.744911,0.000000,-0.744911,0.000000,-0.750000,-0.500000,-0.750000,-0.500000,0.750000,0.000000,0.750000,0.000000,0.744911,0.000000,0.744911,
$1*%
G04 Aperture macros list end*
%TA.AperFunction,ComponentPad*%
%ADD10R,1.700000X1.700000*%
%TD*%
%TA.AperFunction,ComponentPad*%
%ADD11O,1.700000X1.700000*%
%TD*%
%TA.AperFunction,SMDPad,CuDef*%
%ADD12FreePoly0,270.000000*%
%TD*%
%TA.AperFunction,SMDPad,CuDef*%
%ADD13FreePoly1,270.000000*%
%TD*%
%TA.AperFunction,ComponentPad*%
%ADD14C,1.700000*%
%TD*%
%TA.AperFunction,ComponentPad*%
%ADD15C,1.400000*%
%TD*%
%TA.AperFunction,ComponentPad*%
%ADD16O,1.400000X1.400000*%
%TD*%
%TA.AperFunction,ComponentPad*%
%ADD17R,2.200000X2.200000*%
%TD*%
%TA.AperFunction,ComponentPad*%
%ADD18O,2.200000X2.200000*%
%TD*%
%TA.AperFunction,ComponentPad*%
%ADD19C,1.600000*%
%TD*%
%TA.AperFunction,ComponentPad*%
%ADD20O,1.600000X1.600000*%
%TD*%
%TA.AperFunction,ComponentPad*%
%ADD21RoundRect,0.250000X0.600000X-0.600000X0.600000X0.600000X-0.600000X0.600000X-0.600000X-0.600000X0*%
%TD*%
%TA.AperFunction,ComponentPad*%
%ADD22R,1.600000X1.600000*%
%TD*%
%TA.AperFunction,ViaPad*%
%ADD23C,0.600000*%
%TD*%
%TA.AperFunction,Conductor*%
%ADD24C,0.250000*%
%TD*%
%TA.AperFunction,Conductor*%
%ADD25C,0.400000*%
%TD*%
%TA.AperFunction,Conductor*%
%ADD26C,0.600000*%
%TD*%
%TA.AperFunction,Conductor*%
%ADD27C,0.800000*%
%TD*%
G04 APERTURE END LIST*
D10*
%TO.P,J9,1,Pin_1*%
%TO.N,GNDA*%
X43180000Y-100833000D03*
D11*
%TO.P,J9,2,Pin_2*%
%TO.N,Net-(A1-AUDIO_OUT_2)*%
X43180000Y-98293000D03*
%TO.P,J9,3,Pin_3*%
%TO.N,Net-(A1-AUDIO_OUT_1)*%
X43180000Y-95753000D03*
%TO.P,J9,4,Pin_4*%
%TO.N,Net-(A1-AUDIO_IN_2)*%
X43180000Y-93213000D03*
%TO.P,J9,5,Pin_5*%
%TO.N,/ADC6*%
X43180000Y-90673000D03*
%TD*%
D12*
%TO.P,JP1,1,A*%
%TO.N,GND*%
X30226000Y-96378000D03*
D13*
%TO.P,JP1,2,B*%
%TO.N,GNDA*%
X30226000Y-97678000D03*
%TD*%
D11*
%TO.P,J1,1,Pin_1*%
%TO.N,/ADC6*%
X40100000Y-90170000D03*
%TO.P,J1,2,Pin_2*%
%TO.N,Net-(A1-AUDIO_IN_2)*%
X37560000Y-90170000D03*
%TD*%
D10*
%TO.P,J8,1,Pin_1*%
%TO.N,GND*%
X42570000Y-105000000D03*
D11*
%TO.P,J8,2,Pin_2*%
%TO.N,unconnected-(J8-Pin_2-Pad2)*%
X42570000Y-107540000D03*
%TO.P,J8,3,Pin_3*%
%TO.N,+12V*%
X42570000Y-110080000D03*
%TD*%
%TO.P,J7,1,Pin_1*%
%TO.N,Net-(A1-USB_ID)*%
X38600000Y-73914000D03*
%TO.P,J7,2,Pin_2*%
%TO.N,Net-(A1-USB_D_-)*%
X38600000Y-76454000D03*
%TO.P,J7,3,Pin_3*%
%TO.N,Net-(A1-USB_D_+)*%
X38600000Y-78994000D03*
%TO.P,J7,4,Pin_4*%
%TO.N,/IO13*%
X38600000Y-81534000D03*
%TO.P,J7,5,Pin_5*%
%TO.N,Net-(A1-USART1_RX)*%
X38600000Y-84074000D03*
%TD*%
%TO.P,J4,5,Pin_5*%
%TO.N,Net-(A1-SAI2_SCK)*%
X38600000Y-59944000D03*
%TO.P,J4,4,Pin_4*%
%TO.N,Net-(A1-SAI2_FS)*%
X38600000Y-62484000D03*
%TO.P,J4,3,Pin_3*%
%TO.N,Net-(A1-SAI2_SD_A)*%
X38600000Y-65024000D03*
%TO.P,J4,2,Pin_2*%
%TO.N,Net-(A1-SAI2_SD_B)*%
X38600000Y-67564000D03*
%TO.P,J4,1,Pin_1*%
%TO.N,Net-(A1-SAI2_MCLK)*%
X38600000Y-70104000D03*
%TD*%
D10*
%TO.P,A1,1,USB_ID*%
%TO.N,Net-(A1-USB_ID)*%
X34000000Y-52000000D03*
D14*
%TO.P,A1,2,SD_DATA_3*%
%TO.N,/IO1*%
X34000000Y-54540000D03*
%TO.P,A1,3,SD_DATA_2*%
%TO.N,/IO2*%
X34000000Y-57080000D03*
%TO.P,A1,4,SD_DATA_1*%
%TO.N,/IO3*%
X34000000Y-59620000D03*
%TO.P,A1,5,SD_DATA_0*%
%TO.N,/IO4*%
X34000000Y-62160000D03*
%TO.P,A1,6,SD_CMD*%
%TO.N,/IO5*%
X34000000Y-64700000D03*
%TO.P,A1,7,SD_CLK*%
%TO.N,/IO6*%
X34000000Y-67240000D03*
%TO.P,A1,8,SPI1_CS*%
%TO.N,/IO7*%
X34000000Y-69780000D03*
%TO.P,A1,9,SPI1_SCK*%
%TO.N,/IO8*%
X34000000Y-72320000D03*
%TO.P,A1,10,SPI1_POCI*%
%TO.N,/IO9*%
X34000000Y-74860000D03*
%TO.P,A1,11,SPI1_PICO*%
%TO.N,/IO10*%
X34000000Y-77400000D03*
%TO.P,A1,12,I2C1_SCL*%
%TO.N,/IO11*%
X34000000Y-79940000D03*
%TO.P,A1,13,I2C1_SDA*%
%TO.N,/IO12*%
X34000000Y-82480000D03*
%TO.P,A1,14,USART1_TX*%
%TO.N,/IO13*%
X34000000Y-85020000D03*
%TO.P,A1,15,USART1_RX*%
%TO.N,Net-(A1-USART1_RX)*%
X34000000Y-87560000D03*
%TO.P,A1,16,AUDIO_IN_1*%
%TO.N,/ADC6*%
X34000000Y-90100000D03*
%TO.P,A1,17,AUDIO_IN_2*%
%TO.N,Net-(A1-AUDIO_IN_2)*%
X34000000Y-92640000D03*
%TO.P,A1,18,AUDIO_OUT_1*%
%TO.N,Net-(A1-AUDIO_OUT_1)*%
X34000000Y-95180000D03*
%TO.P,A1,19,AUDIO_OUT_2*%
%TO.N,Net-(A1-AUDIO_OUT_2)*%
X34000000Y-97720000D03*
%TO.P,A1,20,AGND*%
%TO.N,GNDA*%
X34000000Y-100260000D03*
%TO.P,A1,21,3V3_A*%
%TO.N,unconnected-(A1-3V3_A-Pad21)*%
X18760000Y-100260000D03*
%TO.P,A1,22,ADC_0*%
%TO.N,/ADC0*%
X18760000Y-97720000D03*
%TO.P,A1,23,ADC_1*%
%TO.N,/ADC1*%
X18760000Y-95180000D03*
%TO.P,A1,24,ADC_2*%
%TO.N,/ADC2*%
X18760000Y-92640000D03*
%TO.P,A1,25,ADC_3*%
%TO.N,/ADC3*%
X18760000Y-90100000D03*
%TO.P,A1,26,ADC_4*%
%TO.N,/ADC4*%
X18760000Y-87560000D03*
%TO.P,A1,27,ADC_5*%
%TO.N,/ADC5*%
X18760000Y-85020000D03*
%TO.P,A1,28,ADC_6*%
%TO.N,/IO0*%
X18760000Y-82480000D03*
%TO.P,A1,29,DAC_OUT2*%
%TO.N,/IO22*%
X18760000Y-79940000D03*
%TO.P,A1,30,DAC_OUT1*%
%TO.N,/IO16*%
X18760000Y-77400000D03*
%TO.P,A1,31,SAI2_MCLK*%
%TO.N,Net-(A1-SAI2_MCLK)*%
X18760000Y-74860000D03*
%TO.P,A1,32,SAI2_SD_B*%
%TO.N,Net-(A1-SAI2_SD_B)*%
X18760000Y-72320000D03*
%TO.P,A1,33,SAI2_SD_A*%
%TO.N,Net-(A1-SAI2_SD_A)*%
X18760000Y-69780000D03*
%TO.P,A1,34,SAI2_FS*%
%TO.N,Net-(A1-SAI2_FS)*%
X18760000Y-67240000D03*
%TO.P,A1,35,SAI2_SCK*%
%TO.N,Net-(A1-SAI2_SCK)*%
X18760000Y-64700000D03*
%TO.P,A1,36,USB_D_-*%
%TO.N,Net-(A1-USB_D_-)*%
X18760000Y-62160000D03*
%TO.P,A1,37,USB_D_+*%
%TO.N,Net-(A1-USB_D_+)*%
X18760000Y-59620000D03*
%TO.P,A1,38,3V3_D*%
%TO.N,VCC*%
X18760000Y-57080000D03*
%TO.P,A1,39,VIN*%
%TO.N,+12V*%
X18760000Y-54540000D03*
%TO.P,A1,40,DGND*%
%TO.N,GND*%
X18760000Y-52000000D03*
%TD*%
D15*
%TO.P,R3,1*%
%TO.N,/ADC7*%
X37592000Y-100838000D03*
D16*
%TO.P,R3,2*%
%TO.N,Net-(A1-AUDIO_OUT_2)*%
X37592000Y-93218000D03*
%TD*%
D10*
%TO.P,J3,1,Pin_1*%
%TO.N,/IO22*%
X22510000Y-60000000D03*
D11*
%TO.P,J3,2,Pin_2*%
%TO.N,/ADC7*%
X22510000Y-62540000D03*
%TO.P,J3,3,Pin_3*%
%TO.N,/ADC6*%
X22510000Y-65080000D03*
%TO.P,J3,4,Pin_4*%
%TO.N,/ADC5*%
X22510000Y-67620000D03*
%TO.P,J3,5,Pin_5*%
%TO.N,/ADC4*%
X22510000Y-70160000D03*
%TO.P,J3,6,Pin_6*%
%TO.N,/ADC3*%
X22510000Y-72700000D03*
%TO.P,J3,7,Pin_7*%
%TO.N,/ADC2*%
X22510000Y-75240000D03*
%TO.P,J3,8,Pin_8*%
%TO.N,/ADC1*%
X22510000Y-77780000D03*
%TO.P,J3,9,Pin_9*%
%TO.N,/ADC0*%
X22510000Y-80320000D03*
%TO.P,J3,10,Pin_10*%
%TO.N,/IO16*%
X22510000Y-82860000D03*
%TO.P,J3,11,Pin_11*%
%TO.N,/IO13*%
X22510000Y-85400000D03*
%TO.P,J3,12,Pin_12*%
%TO.N,/IO12*%
X22510000Y-87940000D03*
%TO.P,J3,13,Pin_13*%
%TO.N,VCC*%
X22510000Y-90480000D03*
%TO.P,J3,14,Pin_14*%
%TO.N,GND*%
X22510000Y-93020000D03*
%TD*%
D15*
%TO.P,R2,1*%
%TO.N,/ADC7*%
X40132000Y-100838000D03*
D16*
%TO.P,R2,2*%
%TO.N,Net-(A1-AUDIO_OUT_1)*%
X40132000Y-93218000D03*
%TD*%
D10*
%TO.P,J2,1,Pin_1*%
%TO.N,/IO0*%
X30130000Y-60000000D03*
D11*
%TO.P,J2,2,Pin_2*%
%TO.N,/IO1*%
X30130000Y-62540000D03*
%TO.P,J2,3,Pin_3*%
%TO.N,/IO2*%
X30130000Y-65080000D03*
%TO.P,J2,4,Pin_4*%
%TO.N,/IO3*%
X30130000Y-67620000D03*
%TO.P,J2,5,Pin_5*%
%TO.N,/IO4*%
X30130000Y-70160000D03*
%TO.P,J2,6,Pin_6*%
%TO.N,/IO5*%
X30130000Y-72700000D03*
%TO.P,J2,7,Pin_7*%
%TO.N,/IO6*%
X30130000Y-75240000D03*
%TO.P,J2,8,Pin_8*%
%TO.N,/IO7*%
X30130000Y-77780000D03*
%TO.P,J2,9,Pin_9*%
%TO.N,/IO8*%
X30130000Y-80320000D03*
%TO.P,J2,10,Pin_10*%
%TO.N,/IO9*%
X30130000Y-82860000D03*
%TO.P,J2,11,Pin_11*%
%TO.N,/IO10*%
X30130000Y-85400000D03*
%TO.P,J2,12,Pin_12*%
%TO.N,/IO11*%
X30130000Y-87940000D03*
%TO.P,J2,13,Pin_13*%
%TO.N,VCC*%
X30130000Y-90480000D03*
%TO.P,J2,14,Pin_14*%
%TO.N,GND*%
X30130000Y-93020000D03*
%TD*%
D17*
%TO.P,D1,1,K*%
%TO.N,Net-(D1-K)*%
X30010000Y-127040000D03*
D18*
%TO.P,D1,2,A*%
%TO.N,Net-(D1-A)*%
X19850000Y-127040000D03*
%TD*%
D19*
%TO.P,R1,1*%
%TO.N,Net-(D1-K)*%
X33740000Y-127000000D03*
D20*
%TO.P,R1,2*%
%TO.N,+12V*%
X41360000Y-127000000D03*
%TD*%
D10*
%TO.P,J6,1,Pin_1*%
%TO.N,GND*%
X17430000Y-105000000D03*
D11*
%TO.P,J6,2,Pin_2*%
%TO.N,unconnected-(J6-Pin_2-Pad2)*%
X17430000Y-107540000D03*
%TO.P,J6,3,Pin_3*%
%TO.N,+12V*%
X17430000Y-110080000D03*
%TD*%
D21*
%TO.P,J5,1,Pin_1*%
%TO.N,unconnected-(J5-Pin_1-Pad1)*%
X38890000Y-136640000D03*
D14*
%TO.P,J5,2,Pin_2*%
%TO.N,unconnected-(J5-Pin_2-Pad2)*%
X38890000Y-134100000D03*
%TO.P,J5,3,Pin_3*%
%TO.N,unconnected-(J5-Pin_3-Pad3)*%
X36350000Y-136640000D03*
%TO.P,J5,4,Pin_4*%
%TO.N,unconnected-(J5-Pin_4-Pad4)*%
X36350000Y-134100000D03*
%TO.P,J5,5,Pin_5*%
%TO.N,unconnected-(J5-Pin_5-Pad5)*%
X33810000Y-136640000D03*
%TO.P,J5,6,Pin_6*%
%TO.N,unconnected-(J5-Pin_6-Pad6)*%
X33810000Y-134100000D03*
%TO.P,J5,7,Pin_7*%
%TO.N,GND*%
X31270000Y-136640000D03*
%TO.P,J5,8,Pin_8*%
X31270000Y-134100000D03*
%TO.P,J5,9,Pin_9*%
%TO.N,Net-(D1-A)*%
X28730000Y-136640000D03*
%TO.P,J5,10,Pin_10*%
X28730000Y-134100000D03*
%TO.P,J5,11,Pin_11*%
%TO.N,unconnected-(J5-Pin_11-Pad11)*%
X26190000Y-136640000D03*
%TO.P,J5,12,Pin_12*%
%TO.N,unconnected-(J5-Pin_12-Pad12)*%
X26190000Y-134100000D03*
%TO.P,J5,13,Pin_13*%
%TO.N,unconnected-(J5-Pin_13-Pad13)*%
X23650000Y-136640000D03*
%TO.P,J5,14,Pin_14*%
%TO.N,unconnected-(J5-Pin_14-Pad14)*%
X23650000Y-134100000D03*
%TO.P,J5,15,Pin_15*%
%TO.N,unconnected-(J5-Pin_15-Pad15)*%
X21110000Y-136640000D03*
%TO.P,J5,16,Pin_16*%
%TO.N,unconnected-(J5-Pin_16-Pad16)*%
X21110000Y-134100000D03*
%TD*%
D22*
%TO.P,C1,1*%
%TO.N,+12V*%
X30970000Y-121560000D03*
D19*
%TO.P,C1,2*%
%TO.N,GND*%
X28470000Y-121560000D03*
%TD*%
D23*
%TO.N,GND*%
X26924000Y-96266000D03*
%TO.N,GNDA*%
X30226000Y-100330000D03*
X38862000Y-99314000D03*
X32512000Y-89916000D03*
X33020000Y-93980000D03*
X35560000Y-89916000D03*
X36322000Y-91694000D03*
X36322000Y-93980000D03*
X37592000Y-95758000D03*
X41656000Y-89408000D03*
X41656000Y-93218000D03*
X38862000Y-93980000D03*
X41656000Y-96520000D03*
%TO.N,GND*%
X26416000Y-102870000D03*
X17272000Y-98806000D03*
X17780000Y-73660000D03*
X17780000Y-71120000D03*
X42672000Y-81280000D03*
X42926000Y-67818000D03*
X26416000Y-51562000D03*
X42926000Y-52578000D03*
X38608000Y-71882000D03*
X37338000Y-57658000D03*
X37338000Y-61214000D03*
X37338000Y-63500000D03*
X35052000Y-68580000D03*
X35052000Y-63500000D03*
X28194000Y-88138000D03*
X23876000Y-67818000D03*
X23876000Y-74676000D03*
X29464000Y-56642000D03*
X25146000Y-56642000D03*
X30734000Y-54610000D03*
X21844000Y-54610000D03*
%TO.N,Net-(A1-SAI2_SCK)*%
X32258000Y-57150000D03*
%TO.N,GND*%
X27940000Y-74676000D03*
X27940000Y-66294000D03*
X27432000Y-59182000D03*
%TO.N,Net-(A1-SAI2_SD_B)*%
X27940000Y-68834000D03*
%TO.N,Net-(A1-SAI2_MCLK)*%
X27940000Y-71374000D03*
%TO.N,GND*%
X17272000Y-91440000D03*
X17272000Y-83820000D03*
X23876000Y-89154000D03*
X25856401Y-88133799D03*
X28194000Y-85344000D03*
X25869262Y-85351015D03*
X25840208Y-74690092D03*
X25849893Y-82542519D03*
X20320000Y-67564000D03*
X20320000Y-63500000D03*
X24892000Y-64516000D03*
X24892000Y-61468000D03*
X41148000Y-120142000D03*
X34290000Y-110490000D03*
X17860000Y-146370000D03*
X38608000Y-114046000D03*
X24638000Y-130810000D03*
X41390000Y-130750000D03*
X24384000Y-110490000D03*
X41470000Y-146640000D03*
X32980000Y-130840000D03*
X18050000Y-130950000D03*
X21082000Y-114808000D03*
X29972000Y-148082000D03*
%TD*%
D24*
%TO.N,Net-(A1-SAI2_MCLK)*%
X27940000Y-71374000D02*
X27432000Y-71374000D01*
X22174299Y-71374000D02*
X27432000Y-71374000D01*
%TO.N,Net-(A1-SAI2_SD_B)*%
X27178000Y-68834000D02*
X27940000Y-68834000D01*
X22098000Y-68834000D02*
X27178000Y-68834000D01*
%TO.N,Net-(A1-SAI2_MCLK)*%
X18760000Y-74788299D02*
X22174299Y-71374000D01*
X18760000Y-74860000D02*
X18760000Y-74788299D01*
%TO.N,Net-(A1-SAI2_SD_B)*%
X18760000Y-72320000D02*
X18760000Y-72172000D01*
X18760000Y-72172000D02*
X22098000Y-68834000D01*
D25*
%TO.N,GNDA*%
X44300000Y-99713000D02*
X44300000Y-99314000D01*
X43180000Y-100833000D02*
X44300000Y-99713000D01*
D24*
%TO.N,Net-(A1-USB_D_-)*%
X38991701Y-80264000D02*
X39775000Y-79480701D01*
X38208299Y-80264000D02*
X38991701Y-80264000D01*
X35970000Y-78025701D02*
X38208299Y-80264000D01*
X39775000Y-77629000D02*
X38600000Y-76454000D01*
X35970000Y-77978000D02*
X35970000Y-78025701D01*
X39775000Y-79480701D02*
X39775000Y-77629000D01*
X35970000Y-61820000D02*
X35970000Y-77978000D01*
%TO.N,Net-(A1-USB_D_+)*%
X36420000Y-74168000D02*
X36420000Y-76814000D01*
X36420000Y-59534000D02*
X36420000Y-74168000D01*
X36420000Y-76814000D02*
X38600000Y-78994000D01*
X35331000Y-58445000D02*
X36420000Y-59534000D01*
X33078000Y-57970000D02*
X33553000Y-58445000D01*
X31242000Y-57970000D02*
X33078000Y-57970000D01*
X33553000Y-58445000D02*
X35331000Y-58445000D01*
%TO.N,Net-(A1-USB_D_-)*%
X35135000Y-60985000D02*
X35970000Y-61820000D01*
X32002604Y-59284305D02*
X33703299Y-60985000D01*
X33703299Y-60985000D02*
X35135000Y-60985000D01*
X32002604Y-58675396D02*
X32002604Y-59284305D01*
X31747208Y-58420000D02*
X32002604Y-58675396D01*
X21844000Y-58420000D02*
X31747208Y-58420000D01*
X18760000Y-61504000D02*
X21844000Y-58420000D01*
X18760000Y-62160000D02*
X18760000Y-61504000D01*
%TO.N,Net-(A1-SAI2_SCK)*%
X30734000Y-57520000D02*
X31888000Y-57520000D01*
X31888000Y-57520000D02*
X32258000Y-57150000D01*
X20204000Y-57520000D02*
X30734000Y-57520000D01*
%TO.N,Net-(A1-SAI2_SD_A)*%
X35098096Y-53340000D02*
X37742048Y-55983952D01*
X16685000Y-54953299D02*
X18298299Y-53340000D01*
X16685000Y-67705000D02*
X16685000Y-54953299D01*
X18760000Y-69780000D02*
X16685000Y-67705000D01*
X18298299Y-53340000D02*
X35098096Y-53340000D01*
%TO.N,Net-(A1-SAI2_FS)*%
X39878000Y-58756299D02*
X39878000Y-61214000D01*
X18298299Y-55880000D02*
X37001701Y-55880000D01*
X17135000Y-57043299D02*
X18298299Y-55880000D01*
X17135000Y-65615000D02*
X17135000Y-57043299D01*
X37001701Y-55880000D02*
X39878000Y-58756299D01*
X39878000Y-61214000D02*
X38608000Y-62484000D01*
X18760000Y-67240000D02*
X17135000Y-65615000D01*
%TO.N,Net-(A1-SAI2_SCK)*%
X20066000Y-57658000D02*
X20204000Y-57520000D01*
X19469000Y-58255000D02*
X20066000Y-57658000D01*
%TO.N,Net-(A1-SAI2_SD_A)*%
X37742048Y-55983952D02*
X40386000Y-58627903D01*
%TO.N,Net-(A1-SAI2_SCK)*%
X18463299Y-58255000D02*
X19469000Y-58255000D01*
X17585000Y-59133299D02*
X18463299Y-58255000D01*
X17585000Y-63525000D02*
X17585000Y-59133299D01*
X18760000Y-64700000D02*
X17585000Y-63525000D01*
%TO.N,Net-(A1-USB_D_+)*%
X20410000Y-57970000D02*
X31242000Y-57970000D01*
X18760000Y-59620000D02*
X20410000Y-57970000D01*
%TO.N,/IO0*%
X28702000Y-71628000D02*
X28702000Y-61428000D01*
X26416000Y-73914000D02*
X28702000Y-71628000D01*
X21844000Y-74065000D02*
X21995000Y-73914000D01*
X19469000Y-76035000D02*
X21439000Y-74065000D01*
X18004000Y-76035000D02*
X19469000Y-76035000D01*
X17585000Y-76454000D02*
X18004000Y-76035000D01*
X21439000Y-74065000D02*
X21844000Y-74065000D01*
X17585000Y-81305000D02*
X17585000Y-76454000D01*
X18760000Y-82480000D02*
X17585000Y-81305000D01*
X21995000Y-73914000D02*
X26416000Y-73914000D01*
X28702000Y-61428000D02*
X30130000Y-60000000D01*
%TO.N,Net-(A1-SAI2_SD_A)*%
X40386000Y-63246000D02*
X38608000Y-65024000D01*
X40386000Y-58627903D02*
X40386000Y-63246000D01*
%TO.N,/IO12*%
X21335000Y-86765000D02*
X22510000Y-87940000D01*
X21335000Y-84913299D02*
X21335000Y-86765000D01*
X22213299Y-84035000D02*
X21335000Y-84913299D01*
X32445000Y-84035000D02*
X22213299Y-84035000D01*
X34000000Y-82480000D02*
X32445000Y-84035000D01*
%TO.N,/IO13*%
X23685000Y-86575000D02*
X22510000Y-85400000D01*
X34000000Y-85020000D02*
X32445000Y-86575000D01*
X32445000Y-86575000D02*
X23685000Y-86575000D01*
%TO.N,/IO16*%
X23685000Y-77025000D02*
X23685000Y-81685000D01*
X23210000Y-76550000D02*
X23685000Y-77025000D01*
X19610000Y-76550000D02*
X23210000Y-76550000D01*
X18760000Y-77400000D02*
X19610000Y-76550000D01*
X23685000Y-81685000D02*
X22510000Y-82860000D01*
%TO.N,/ADC0*%
X20385000Y-96095000D02*
X18760000Y-97720000D01*
X22510000Y-80320000D02*
X20385000Y-82445000D01*
X20385000Y-82445000D02*
X20385000Y-96095000D01*
%TO.N,/ADC1*%
X19935000Y-94005000D02*
X18760000Y-95180000D01*
X19935000Y-80355000D02*
X19935000Y-94005000D01*
X22510000Y-77780000D02*
X19935000Y-80355000D01*
D26*
%TO.N,VCC*%
X22510000Y-90480000D02*
X30130000Y-90480000D01*
D24*
%TO.N,/IO8*%
X32655000Y-77795000D02*
X30130000Y-80320000D01*
X32655000Y-73665000D02*
X32655000Y-77795000D01*
X34000000Y-72320000D02*
X32655000Y-73665000D01*
%TO.N,/IO7*%
X32205000Y-75705000D02*
X30130000Y-77780000D01*
X32205000Y-71575000D02*
X32205000Y-75705000D01*
X34000000Y-69780000D02*
X32205000Y-71575000D01*
%TO.N,/IO6*%
X31755000Y-73615000D02*
X30130000Y-75240000D01*
X31755000Y-69485000D02*
X31755000Y-73615000D01*
X34000000Y-67240000D02*
X31755000Y-69485000D01*
%TO.N,/IO5*%
X31305000Y-67395000D02*
X31305000Y-71525000D01*
X31305000Y-71525000D02*
X30130000Y-72700000D01*
X34000000Y-64700000D02*
X31305000Y-67395000D01*
D27*
%TO.N,GND*%
X31270000Y-136640000D02*
X31270000Y-138148000D01*
X31270000Y-134100000D02*
X31270000Y-136640000D01*
X31270000Y-134100000D02*
X31270000Y-132616000D01*
%TO.N,+12V*%
X30970000Y-121560000D02*
X19490000Y-110080000D01*
X19490000Y-110080000D02*
X17430000Y-110080000D01*
%TD*%
%TA.AperFunction,Conductor*%
%TO.N,GND*%
G36*
X29522226Y-84379407D02*
G01*
X29558190Y-84428907D01*
X29558190Y-84490093D01*
X29526840Y-84536028D01*
X29383595Y-84653585D01*
X29383585Y-84653595D01*
X29252316Y-84813547D01*
X29154768Y-84996045D01*
X29094699Y-85194065D01*
X29094698Y-85194070D01*
X29074417Y-85399996D01*
X29074417Y-85400003D01*
X29094698Y-85605929D01*
X29094699Y-85605934D01*
X29154768Y-85803954D01*
X29252316Y-85986452D01*
X29335404Y-86087695D01*
X29357704Y-86144672D01*
X29342255Y-86203875D01*
X29294958Y-86242690D01*
X29258876Y-86249500D01*
X23860835Y-86249500D01*
X23802644Y-86230593D01*
X23790831Y-86220504D01*
X23498502Y-85928175D01*
X23470725Y-85873658D01*
X23480296Y-85813226D01*
X23481154Y-85811582D01*
X23485232Y-85803954D01*
X23545300Y-85605934D01*
X23545301Y-85605929D01*
X23565583Y-85400003D01*
X23565583Y-85399996D01*
X23545301Y-85194070D01*
X23545300Y-85194065D01*
X23519587Y-85109300D01*
X23485232Y-84996046D01*
X23387685Y-84813550D01*
X23366440Y-84787663D01*
X23256414Y-84653595D01*
X23256410Y-84653590D01*
X23210661Y-84616045D01*
X23113160Y-84536028D01*
X23080173Y-84484497D01*
X23083775Y-84423417D01*
X23122590Y-84376121D01*
X23175965Y-84360500D01*
X29464035Y-84360500D01*
X29522226Y-84379407D01*
G37*
%TD.AperFunction*%
%TA.AperFunction,Conductor*%
G36*
X18446422Y-50519407D02*
G01*
X18482386Y-50568907D01*
X18482386Y-50630093D01*
X18446422Y-50679593D01*
X18413854Y-50695127D01*
X18296505Y-50726570D01*
X18082432Y-50826394D01*
X18082420Y-50826401D01*
X18040216Y-50855951D01*
X18645534Y-51461269D01*
X18547708Y-51487482D01*
X18422292Y-51559890D01*
X18319890Y-51662292D01*
X18247482Y-51787708D01*
X18221269Y-51885534D01*
X17615951Y-51280216D01*
X17586401Y-51322420D01*
X17586394Y-51322432D01*
X17486570Y-51536505D01*
X17425429Y-51764686D01*
X17404843Y-51999996D01*
X17404843Y-52000003D01*
X17425429Y-52235313D01*
X17486569Y-52463489D01*
X17586400Y-52677579D01*
X17586400Y-52677580D01*
X17615951Y-52719782D01*
X18221268Y-52114464D01*
X18247482Y-52212292D01*
X18319890Y-52337708D01*
X18422292Y-52440110D01*
X18547708Y-52512518D01*
X18645532Y-52538730D01*
X18122535Y-53061726D01*
X18102040Y-53077454D01*
X18098440Y-53079532D01*
X16424531Y-54753441D01*
X16381682Y-54827659D01*
X16381681Y-54827659D01*
X16381682Y-54827660D01*
X16381682Y-54827661D01*
X16359500Y-54910446D01*
X16359500Y-67662147D01*
X16359500Y-67747853D01*
X16379062Y-67820863D01*
X16381683Y-67830643D01*
X16424531Y-67904857D01*
X16424532Y-67904858D01*
X16424533Y-67904859D01*
X16424535Y-67904862D01*
X17104655Y-68584982D01*
X17771497Y-69251824D01*
X17799274Y-69306341D01*
X17789703Y-69366773D01*
X17788803Y-69368496D01*
X17784770Y-69376040D01*
X17784768Y-69376045D01*
X17724699Y-69574065D01*
X17724698Y-69574070D01*
X17704417Y-69779996D01*
X17704417Y-69780003D01*
X17724698Y-69985929D01*
X17724699Y-69985934D01*
X17784768Y-70183954D01*
X17882316Y-70366452D01*
X17998444Y-70507954D01*
X18013590Y-70526410D01*
X18013595Y-70526414D01*
X18173547Y-70657683D01*
X18173548Y-70657683D01*
X18173550Y-70657685D01*
X18356046Y-70755232D01*
X18493997Y-70797078D01*
X18554065Y-70815300D01*
X18554070Y-70815301D01*
X18759997Y-70835583D01*
X18760000Y-70835583D01*
X18760003Y-70835583D01*
X18965929Y-70815301D01*
X18965934Y-70815300D01*
X19163954Y-70755232D01*
X19346450Y-70657685D01*
X19506410Y-70526410D01*
X19637685Y-70366450D01*
X19735232Y-70183954D01*
X19795300Y-69985934D01*
X19795301Y-69985929D01*
X19815583Y-69780003D01*
X19815583Y-69779996D01*
X19795301Y-69574070D01*
X19795300Y-69574065D01*
X19746622Y-69413595D01*
X19735232Y-69376046D01*
X19637685Y-69193550D01*
X19546973Y-69083017D01*
X19506414Y-69033595D01*
X19506410Y-69033590D01*
X19506404Y-69033585D01*
X19346452Y-68902316D01*
X19163954Y-68804768D01*
X18965934Y-68744699D01*
X18965929Y-68744698D01*
X18760003Y-68724417D01*
X18759997Y-68724417D01*
X18554070Y-68744698D01*
X18554065Y-68744699D01*
X18356045Y-68804768D01*
X18356040Y-68804770D01*
X18348496Y-68808803D01*
X18288263Y-68819559D01*
X18233212Y-68792857D01*
X18231824Y-68791497D01*
X17039496Y-67599169D01*
X17011719Y-67544652D01*
X17010500Y-67529165D01*
X17010500Y-66189835D01*
X17029407Y-66131644D01*
X17078907Y-66095680D01*
X17140093Y-66095680D01*
X17179504Y-66119831D01*
X17771497Y-66711824D01*
X17799274Y-66766341D01*
X17789703Y-66826773D01*
X17788803Y-66828496D01*
X17784770Y-66836040D01*
X17784768Y-66836045D01*
X17724699Y-67034065D01*
X17724698Y-67034070D01*
X17704417Y-67239996D01*
X17704417Y-67240003D01*
X17724698Y-67445929D01*
X17724699Y-67445934D01*
X17784768Y-67643954D01*
X17882316Y-67826452D01*
X17998444Y-67967954D01*
X18013590Y-67986410D01*
X18013595Y-67986414D01*
X18173547Y-68117683D01*
X18173548Y-68117683D01*
X18173550Y-68117685D01*
X18356046Y-68215232D01*
X18493997Y-68257078D01*
X18554065Y-68275300D01*
X18554070Y-68275301D01*
X18759997Y-68295583D01*
X18760000Y-68295583D01*
X18760003Y-68295583D01*
X18965929Y-68275301D01*
X18965934Y-68275300D01*
X19163954Y-68215232D01*
X19346450Y-68117685D01*
X19506410Y-67986410D01*
X19637685Y-67826450D01*
X19735232Y-67643954D01*
X19795300Y-67445934D01*
X19795301Y-67445929D01*
X19815583Y-67240003D01*
X19815583Y-67239996D01*
X19795301Y-67034070D01*
X19795300Y-67034065D01*
X19746622Y-66873595D01*
X19735232Y-66836046D01*
X19637685Y-66653550D01*
X19506410Y-66493590D01*
X19506404Y-66493585D01*
X19346452Y-66362316D01*
X19163954Y-66264768D01*
X18965934Y-66204699D01*
X18965929Y-66204698D01*
X18760003Y-66184417D01*
X18759997Y-66184417D01*
X18554070Y-66204698D01*
X18554065Y-66204699D01*
X18356045Y-66264768D01*
X18356040Y-66264770D01*
X18348496Y-66268803D01*
X18288263Y-66279559D01*
X18233212Y-66252857D01*
X18231824Y-66251497D01*
X17489496Y-65509169D01*
X17461719Y-65454652D01*
X17460500Y-65439165D01*
X17460500Y-64099835D01*
X17479407Y-64041644D01*
X17528907Y-64005680D01*
X17590093Y-64005680D01*
X17629504Y-64029831D01*
X17771497Y-64171824D01*
X17799274Y-64226341D01*
X17789703Y-64286773D01*
X17788803Y-64288496D01*
X17784770Y-64296040D01*
X17784768Y-64296045D01*
X17724699Y-64494065D01*
X17724698Y-64494070D01*
X17704417Y-64699996D01*
X17704417Y-64700003D01*
X17724698Y-64905929D01*
X17724699Y-64905934D01*
X17784768Y-65103954D01*
X17882316Y-65286452D01*
X17998444Y-65427954D01*
X18013590Y-65446410D01*
X18013595Y-65446414D01*
X18173547Y-65577683D01*
X18173548Y-65577683D01*
X18173550Y-65577685D01*
X18356046Y-65675232D01*
X18493997Y-65717078D01*
X18554065Y-65735300D01*
X18554070Y-65735301D01*
X18759997Y-65755583D01*
X18760000Y-65755583D01*
X18760003Y-65755583D01*
X18965929Y-65735301D01*
X18965934Y-65735300D01*
X19163954Y-65675232D01*
X19346450Y-65577685D01*
X19506410Y-65446410D01*
X19637685Y-65286450D01*
X19735232Y-65103954D01*
X19742499Y-65079996D01*
X21454417Y-65079996D01*
X21454417Y-65080003D01*
X21474698Y-65285929D01*
X21474699Y-65285934D01*
X21534768Y-65483954D01*
X21632316Y-65666452D01*
X21763585Y-65826404D01*
X21763590Y-65826410D01*
X21763595Y-65826414D01*
X21923547Y-65957683D01*
X21923548Y-65957683D01*
X21923550Y-65957685D01*
X22106046Y-66055232D01*
X22239387Y-66095680D01*
X22304065Y-66115300D01*
X22304070Y-66115301D01*
X22509997Y-66135583D01*
X22510000Y-66135583D01*
X22510003Y-66135583D01*
X22715929Y-66115301D01*
X22715934Y-66115300D01*
X22913954Y-66055232D01*
X23096450Y-65957685D01*
X23256410Y-65826410D01*
X23387685Y-65666450D01*
X23485232Y-65483954D01*
X23545300Y-65285934D01*
X23545301Y-65285929D01*
X23565583Y-65080003D01*
X23565583Y-65079996D01*
X23545301Y-64874070D01*
X23545300Y-64874065D01*
X23492498Y-64700000D01*
X23485232Y-64676046D01*
X23387685Y-64493550D01*
X23341727Y-64437550D01*
X23256414Y-64333595D01*
X23256410Y-64333590D01*
X23256404Y-64333585D01*
X23096452Y-64202316D01*
X22913954Y-64104768D01*
X22715934Y-64044699D01*
X22715929Y-64044698D01*
X22510003Y-64024417D01*
X22509997Y-64024417D01*
X22304070Y-64044698D01*
X22304065Y-64044699D01*
X22106045Y-64104768D01*
X21923547Y-64202316D01*
X21763595Y-64333585D01*
X21763585Y-64333595D01*
X21632316Y-64493547D01*
X21534768Y-64676045D01*
X21474699Y-64874065D01*
X21474698Y-64874070D01*
X21454417Y-65079996D01*
X19742499Y-65079996D01*
X19795300Y-64905934D01*
X19795301Y-64905929D01*
X19815583Y-64700003D01*
X19815583Y-64699996D01*
X19795301Y-64494070D01*
X19795300Y-64494065D01*
X19746622Y-64333595D01*
X19735232Y-64296046D01*
X19637685Y-64113550D01*
X19626429Y-64099835D01*
X19506414Y-63953595D01*
X19506410Y-63953590D01*
X19506404Y-63953585D01*
X19346452Y-63822316D01*
X19163954Y-63724768D01*
X18965934Y-63664699D01*
X18965929Y-63664698D01*
X18760003Y-63644417D01*
X18759997Y-63644417D01*
X18554070Y-63664698D01*
X18554065Y-63664699D01*
X18356045Y-63724768D01*
X18356040Y-63724770D01*
X18348496Y-63728803D01*
X18288263Y-63739559D01*
X18233212Y-63712857D01*
X18231824Y-63711497D01*
X17939496Y-63419169D01*
X17911719Y-63364652D01*
X17910500Y-63349165D01*
X17910500Y-63031123D01*
X17929407Y-62972932D01*
X17978907Y-62936968D01*
X18040093Y-62936968D01*
X18072301Y-62954593D01*
X18094648Y-62972932D01*
X18173547Y-63037683D01*
X18173548Y-63037683D01*
X18173550Y-63037685D01*
X18356046Y-63135232D01*
X18493997Y-63177078D01*
X18554065Y-63195300D01*
X18554070Y-63195301D01*
X18759997Y-63215583D01*
X18760000Y-63215583D01*
X18760003Y-63215583D01*
X18965929Y-63195301D01*
X18965934Y-63195300D01*
X19163954Y-63135232D01*
X19346450Y-63037685D01*
X19506410Y-62906410D01*
X19637685Y-62746450D01*
X19735232Y-62563954D01*
X19742499Y-62539996D01*
X21454417Y-62539996D01*
X21454417Y-62540003D01*
X21474698Y-62745929D01*
X21474699Y-62745934D01*
X21534768Y-62943954D01*
X21632316Y-63126452D01*
X21763585Y-63286404D01*
X21763590Y-63286410D01*
X21763595Y-63286414D01*
X21923547Y-63417683D01*
X21923548Y-63417683D01*
X21923550Y-63417685D01*
X22106046Y-63515232D01*
X22243997Y-63557078D01*
X22304065Y-63575300D01*
X22304070Y-63575301D01*
X22509997Y-63595583D01*
X22510000Y-63595583D01*
X22510003Y-63595583D01*
X22715929Y-63575301D01*
X22715934Y-63575300D01*
X22913954Y-63515232D01*
X23096450Y-63417685D01*
X23256410Y-63286410D01*
X23387685Y-63126450D01*
X23485232Y-62943954D01*
X23545300Y-62745934D01*
X23545301Y-62745929D01*
X23565583Y-62540003D01*
X23565583Y-62539996D01*
X23545301Y-62334070D01*
X23545300Y-62334065D01*
X23492498Y-62160000D01*
X23485232Y-62136046D01*
X23387685Y-61953550D01*
X23341727Y-61897550D01*
X23256414Y-61793595D01*
X23256410Y-61793590D01*
X23256404Y-61793585D01*
X23096452Y-61662316D01*
X22913954Y-61564768D01*
X22715934Y-61504699D01*
X22715929Y-61504698D01*
X22510003Y-61484417D01*
X22509997Y-61484417D01*
X22304070Y-61504698D01*
X22304065Y-61504699D01*
X22106045Y-61564768D01*
X21923547Y-61662316D01*
X21763595Y-61793585D01*
X21763585Y-61793595D01*
X21632316Y-61953547D01*
X21534768Y-62136045D01*
X21474699Y-62334065D01*
X21474698Y-62334070D01*
X21454417Y-62539996D01*
X19742499Y-62539996D01*
X19795300Y-62365934D01*
X19795301Y-62365929D01*
X19815583Y-62160003D01*
X19815583Y-62159996D01*
X19795301Y-61954070D01*
X19795300Y-61954065D01*
X19746622Y-61793595D01*
X19735232Y-61756046D01*
X19637685Y-61573550D01*
X19614783Y-61545644D01*
X19506414Y-61413595D01*
X19506410Y-61413590D01*
X19506408Y-61413588D01*
X19506407Y-61413587D01*
X19483373Y-61394683D01*
X19450386Y-61343151D01*
X19453988Y-61282072D01*
X19476172Y-61248153D01*
X21290496Y-59433830D01*
X21345013Y-59406053D01*
X21405445Y-59415624D01*
X21448710Y-59458889D01*
X21459500Y-59503834D01*
X21459500Y-60869746D01*
X21459501Y-60869758D01*
X21471132Y-60928227D01*
X21471134Y-60928233D01*
X21505257Y-60979301D01*
X21515448Y-60994552D01*
X21581769Y-61038867D01*
X21626231Y-61047711D01*
X21640241Y-61050498D01*
X21640246Y-61050498D01*
X21640252Y-61050500D01*
X21640253Y-61050500D01*
X23379747Y-61050500D01*
X23379748Y-61050500D01*
X23438231Y-61038867D01*
X23504552Y-60994552D01*
X23548867Y-60928231D01*
X23560500Y-60869748D01*
X23560500Y-59130252D01*
X23548867Y-59071769D01*
X23504552Y-59005448D01*
X23504548Y-59005445D01*
X23438233Y-58961134D01*
X23438231Y-58961133D01*
X23438228Y-58961132D01*
X23438227Y-58961132D01*
X23379758Y-58949501D01*
X23379748Y-58949500D01*
X23379747Y-58949500D01*
X22013834Y-58949500D01*
X21955643Y-58930593D01*
X21919679Y-58881093D01*
X21919679Y-58819907D01*
X21943830Y-58780496D01*
X21949830Y-58774496D01*
X22004347Y-58746719D01*
X22019834Y-58745500D01*
X31571373Y-58745500D01*
X31629564Y-58764407D01*
X31641377Y-58774496D01*
X31648108Y-58781227D01*
X31675885Y-58835744D01*
X31677104Y-58851231D01*
X31677104Y-59241452D01*
X31677104Y-59327158D01*
X31696666Y-59400168D01*
X31699287Y-59409948D01*
X31742135Y-59484162D01*
X31742137Y-59484164D01*
X31742139Y-59484167D01*
X33405924Y-61147952D01*
X33433700Y-61202467D01*
X33424129Y-61262899D01*
X33398724Y-61294482D01*
X33253595Y-61413585D01*
X33253585Y-61413595D01*
X33122316Y-61573547D01*
X33024768Y-61756045D01*
X32964699Y-61954065D01*
X32964698Y-61954070D01*
X32944417Y-62159996D01*
X32944417Y-62160003D01*
X32964698Y-62365929D01*
X32964699Y-62365934D01*
X33024768Y-62563954D01*
X33122316Y-62746452D01*
X33150499Y-62780793D01*
X33253590Y-62906410D01*
X33253595Y-62906414D01*
X33413547Y-63037683D01*
X33413548Y-63037683D01*
X33413550Y-63037685D01*
X33596046Y-63135232D01*
X33733997Y-63177078D01*
X33794065Y-63195300D01*
X33794070Y-63195301D01*
X33999997Y-63215583D01*
X34000000Y-63215583D01*
X34000003Y-63215583D01*
X34205929Y-63195301D01*
X34205934Y-63195300D01*
X34403954Y-63135232D01*
X34586450Y-63037685D01*
X34746410Y-62906410D01*
X34877685Y-62746450D01*
X34975232Y-62563954D01*
X35035300Y-62365934D01*
X35035301Y-62365929D01*
X35055583Y-62160003D01*
X35055583Y-62159996D01*
X35035301Y-61954070D01*
X35035300Y-61954065D01*
X34986622Y-61793595D01*
X34975232Y-61756046D01*
X34877685Y-61573550D01*
X34854783Y-61545644D01*
X34794596Y-61472305D01*
X34772296Y-61415328D01*
X34787745Y-61356125D01*
X34835042Y-61317310D01*
X34871124Y-61310500D01*
X34959165Y-61310500D01*
X35017356Y-61329407D01*
X35029169Y-61339496D01*
X35615504Y-61925831D01*
X35643281Y-61980348D01*
X35644500Y-61995835D01*
X35644500Y-77935147D01*
X35644500Y-77982848D01*
X35644500Y-78068554D01*
X35657297Y-78116315D01*
X35666683Y-78151344D01*
X35709531Y-78225558D01*
X35709533Y-78225560D01*
X35709535Y-78225563D01*
X37947832Y-80463859D01*
X37947834Y-80463862D01*
X38005924Y-80521952D01*
X38033700Y-80576467D01*
X38024129Y-80636899D01*
X37998724Y-80668482D01*
X37853595Y-80787585D01*
X37853585Y-80787595D01*
X37722316Y-80947547D01*
X37624768Y-81130045D01*
X37564699Y-81328065D01*
X37564698Y-81328070D01*
X37544417Y-81533996D01*
X37544417Y-81534003D01*
X37564698Y-81739929D01*
X37564699Y-81739934D01*
X37624768Y-81937954D01*
X37722316Y-82120452D01*
X37847958Y-82273547D01*
X37853590Y-82280410D01*
X37853595Y-82280414D01*
X38013547Y-82411683D01*
X38013548Y-82411683D01*
X38013550Y-82411685D01*
X38196046Y-82509232D01*
X38333175Y-82550829D01*
X38394065Y-82569300D01*
X38394070Y-82569301D01*
X38599997Y-82589583D01*
X38600000Y-82589583D01*
X38600003Y-82589583D01*
X38805929Y-82569301D01*
X38805934Y-82569300D01*
X39003954Y-82509232D01*
X39186450Y-82411685D01*
X39346410Y-82280410D01*
X39477685Y-82120450D01*
X39575232Y-81937954D01*
X39635300Y-81739934D01*
X39635301Y-81739929D01*
X39655583Y-81534003D01*
X39655583Y-81533996D01*
X39635301Y-81328070D01*
X39635300Y-81328065D01*
X39596200Y-81199169D01*
X39575232Y-81130046D01*
X39477685Y-80947550D01*
X39451162Y-80915232D01*
X39346414Y-80787595D01*
X39346410Y-80787590D01*
X39201274Y-80668480D01*
X39168288Y-80616951D01*
X39171890Y-80555872D01*
X39194072Y-80521955D01*
X40035465Y-79680563D01*
X40078318Y-79606340D01*
X40100500Y-79523554D01*
X40100500Y-79437848D01*
X40100500Y-77586147D01*
X40078318Y-77503362D01*
X40078318Y-77503361D01*
X40078318Y-77503360D01*
X40035468Y-77429142D01*
X40035464Y-77429137D01*
X39588502Y-76982174D01*
X39560725Y-76927658D01*
X39570296Y-76867226D01*
X39571154Y-76865582D01*
X39575232Y-76857954D01*
X39635300Y-76659934D01*
X39635301Y-76659929D01*
X39655583Y-76454003D01*
X39655583Y-76453996D01*
X39635301Y-76248070D01*
X39635300Y-76248065D01*
X39609066Y-76161583D01*
X39575232Y-76050046D01*
X39477685Y-75867550D01*
X39451162Y-75835232D01*
X39346414Y-75707595D01*
X39346410Y-75707590D01*
X39268869Y-75643954D01*
X39186452Y-75576316D01*
X39003954Y-75478768D01*
X38805934Y-75418699D01*
X38805929Y-75418698D01*
X38600003Y-75398417D01*
X38599997Y-75398417D01*
X38394070Y-75418698D01*
X38394065Y-75418699D01*
X38196045Y-75478768D01*
X38013547Y-75576316D01*
X37853595Y-75707585D01*
X37853585Y-75707595D01*
X37722316Y-75867547D01*
X37624768Y-76050045D01*
X37564699Y-76248065D01*
X37564698Y-76248070D01*
X37544417Y-76453996D01*
X37544417Y-76454003D01*
X37564698Y-76659929D01*
X37564699Y-76659934D01*
X37624768Y-76857954D01*
X37722316Y-77040452D01*
X37805637Y-77141979D01*
X37853590Y-77200410D01*
X37853595Y-77200414D01*
X38013547Y-77331683D01*
X38013548Y-77331683D01*
X38013550Y-77331685D01*
X38196046Y-77429232D01*
X38333997Y-77471078D01*
X38394065Y-77489300D01*
X38394070Y-77489301D01*
X38599997Y-77509583D01*
X38600000Y-77509583D01*
X38600003Y-77509583D01*
X38805929Y-77489301D01*
X38805934Y-77489300D01*
X39003954Y-77429232D01*
X39011499Y-77425198D01*
X39071729Y-77414439D01*
X39126782Y-77441137D01*
X39128175Y-77442502D01*
X39420504Y-77734831D01*
X39448281Y-77789348D01*
X39449500Y-77804835D01*
X39449500Y-78122876D01*
X39430593Y-78181067D01*
X39381093Y-78217031D01*
X39319907Y-78217031D01*
X39287695Y-78199404D01*
X39223114Y-78146404D01*
X39186452Y-78116316D01*
X39003954Y-78018768D01*
X38805934Y-77958699D01*
X38805929Y-77958698D01*
X38600003Y-77938417D01*
X38599997Y-77938417D01*
X38394070Y-77958698D01*
X38394065Y-77958699D01*
X38196052Y-78018766D01*
X38196049Y-78018767D01*
X38196046Y-78018768D01*
X38196044Y-78018768D01*
X38196041Y-78018770D01*
X38188489Y-78022807D01*
X38128255Y-78033558D01*
X38073206Y-78006852D01*
X38071823Y-78005497D01*
X36774496Y-76708169D01*
X36746719Y-76653652D01*
X36745500Y-76638165D01*
X36745500Y-73913996D01*
X37544417Y-73913996D01*
X37544417Y-73914003D01*
X37564698Y-74119929D01*
X37564699Y-74119934D01*
X37624768Y-74317954D01*
X37722316Y-74500452D01*
X37738435Y-74520093D01*
X37853590Y-74660410D01*
X37853595Y-74660414D01*
X38013547Y-74791683D01*
X38013548Y-74791683D01*
X38013550Y-74791685D01*
X38196046Y-74889232D01*
X38333997Y-74931078D01*
X38394065Y-74949300D01*
X38394070Y-74949301D01*
X38599997Y-74969583D01*
X38600000Y-74969583D01*
X38600003Y-74969583D01*
X38805929Y-74949301D01*
X38805934Y-74949300D01*
X39003954Y-74889232D01*
X39186450Y-74791685D01*
X39346410Y-74660410D01*
X39477685Y-74500450D01*
X39575232Y-74317954D01*
X39635300Y-74119934D01*
X39635301Y-74119929D01*
X39655583Y-73914003D01*
X39655583Y-73913996D01*
X39635301Y-73708070D01*
X39635300Y-73708065D01*
X39599030Y-73588500D01*
X39575232Y-73510046D01*
X39477685Y-73327550D01*
X39451162Y-73295232D01*
X39346414Y-73167595D01*
X39346410Y-73167590D01*
X39252066Y-73090164D01*
X39186452Y-73036316D01*
X39003954Y-72938768D01*
X38805934Y-72878699D01*
X38805929Y-72878698D01*
X38600003Y-72858417D01*
X38599997Y-72858417D01*
X38394070Y-72878698D01*
X38394065Y-72878699D01*
X38196045Y-72938768D01*
X38013547Y-73036316D01*
X37853595Y-73167585D01*
X37853585Y-73167595D01*
X37722316Y-73327547D01*
X37624768Y-73510045D01*
X37564699Y-73708065D01*
X37564698Y-73708070D01*
X37544417Y-73913996D01*
X36745500Y-73913996D01*
X36745500Y-70103996D01*
X37544417Y-70103996D01*
X37544417Y-70104003D01*
X37564698Y-70309929D01*
X37564699Y-70309934D01*
X37624768Y-70507954D01*
X37722316Y-70690452D01*
X37786370Y-70768502D01*
X37853590Y-70850410D01*
X37853595Y-70850414D01*
X38013547Y-70981683D01*
X38013548Y-70981683D01*
X38013550Y-70981685D01*
X38196046Y-71079232D01*
X38333997Y-71121078D01*
X38394065Y-71139300D01*
X38394070Y-71139301D01*
X38599997Y-71159583D01*
X38600000Y-71159583D01*
X38600003Y-71159583D01*
X38805929Y-71139301D01*
X38805934Y-71139300D01*
X38809801Y-71138127D01*
X39003954Y-71079232D01*
X39186450Y-70981685D01*
X39346410Y-70850410D01*
X39477685Y-70690450D01*
X39575232Y-70507954D01*
X39635300Y-70309934D01*
X39635301Y-70309929D01*
X39655583Y-70104003D01*
X39655583Y-70103996D01*
X39635301Y-69898070D01*
X39635300Y-69898065D01*
X39592219Y-69756046D01*
X39575232Y-69700046D01*
X39477685Y-69517550D01*
X39346410Y-69357590D01*
X39318275Y-69334500D01*
X39186452Y-69226316D01*
X39003954Y-69128768D01*
X38805934Y-69068699D01*
X38805929Y-69068698D01*
X38600003Y-69048417D01*
X38599997Y-69048417D01*
X38394070Y-69068698D01*
X38394065Y-69068699D01*
X38196045Y-69128768D01*
X38013547Y-69226316D01*
X37853595Y-69357585D01*
X37853585Y-69357595D01*
X37722316Y-69517547D01*
X37624768Y-69700045D01*
X37564699Y-69898065D01*
X37564698Y-69898070D01*
X37544417Y-70103996D01*
X36745500Y-70103996D01*
X36745500Y-67563996D01*
X37544417Y-67563996D01*
X37544417Y-67564003D01*
X37564698Y-67769929D01*
X37564699Y-67769934D01*
X37624768Y-67967954D01*
X37722316Y-68150452D01*
X37786370Y-68228502D01*
X37853590Y-68310410D01*
X37853595Y-68310414D01*
X38013547Y-68441683D01*
X38013548Y-68441683D01*
X38013550Y-68441685D01*
X38196046Y-68539232D01*
X38333997Y-68581078D01*
X38394065Y-68599300D01*
X38394070Y-68599301D01*
X38599997Y-68619583D01*
X38600000Y-68619583D01*
X38600003Y-68619583D01*
X38805929Y-68599301D01*
X38805934Y-68599300D01*
X38811350Y-68597657D01*
X39003954Y-68539232D01*
X39186450Y-68441685D01*
X39346410Y-68310410D01*
X39477685Y-68150450D01*
X39575232Y-67967954D01*
X39635300Y-67769934D01*
X39635301Y-67769929D01*
X39655583Y-67564003D01*
X39655583Y-67563996D01*
X39635301Y-67358070D01*
X39635300Y-67358065D01*
X39592219Y-67216046D01*
X39575232Y-67160046D01*
X39477685Y-66977550D01*
X39346410Y-66817590D01*
X39254687Y-66742315D01*
X39186452Y-66686316D01*
X39003954Y-66588768D01*
X38805934Y-66528699D01*
X38805929Y-66528698D01*
X38600003Y-66508417D01*
X38599997Y-66508417D01*
X38394070Y-66528698D01*
X38394065Y-66528699D01*
X38196045Y-66588768D01*
X38013547Y-66686316D01*
X37853595Y-66817585D01*
X37853585Y-66817595D01*
X37722316Y-66977547D01*
X37624768Y-67160045D01*
X37564699Y-67358065D01*
X37564698Y-67358070D01*
X37544417Y-67563996D01*
X36745500Y-67563996D01*
X36745500Y-59584840D01*
X36745501Y-59584827D01*
X36745501Y-59491147D01*
X36745500Y-59491145D01*
X36723319Y-59408365D01*
X36723317Y-59408360D01*
X36696003Y-59361050D01*
X36696003Y-59361051D01*
X36696002Y-59361049D01*
X36680465Y-59334138D01*
X36619862Y-59273535D01*
X36619859Y-59273533D01*
X35530862Y-58184535D01*
X35530859Y-58184533D01*
X35530857Y-58184531D01*
X35456642Y-58141683D01*
X35456644Y-58141683D01*
X35424521Y-58133076D01*
X35373853Y-58119500D01*
X35373851Y-58119500D01*
X34665965Y-58119500D01*
X34607774Y-58100593D01*
X34571810Y-58051093D01*
X34571810Y-57989907D01*
X34603160Y-57943972D01*
X34650849Y-57904833D01*
X34746410Y-57826410D01*
X34877685Y-57666450D01*
X34975232Y-57483954D01*
X35035300Y-57285934D01*
X35035301Y-57285929D01*
X35055583Y-57080003D01*
X35055583Y-57079996D01*
X35035301Y-56874070D01*
X35035300Y-56874065D01*
X35003082Y-56767857D01*
X34975232Y-56676046D01*
X34877685Y-56493550D01*
X34774078Y-56367304D01*
X34751779Y-56310328D01*
X34767228Y-56251125D01*
X34814525Y-56212310D01*
X34850607Y-56205500D01*
X36825866Y-56205500D01*
X36884057Y-56224407D01*
X36895870Y-56234496D01*
X39523504Y-58862130D01*
X39551281Y-58916647D01*
X39552500Y-58932134D01*
X39552500Y-59172025D01*
X39533593Y-59230216D01*
X39484093Y-59266180D01*
X39422907Y-59266180D01*
X39376972Y-59234830D01*
X39346414Y-59197595D01*
X39346410Y-59197590D01*
X39280796Y-59143742D01*
X39186452Y-59066316D01*
X39003954Y-58968768D01*
X38805934Y-58908699D01*
X38805929Y-58908698D01*
X38600003Y-58888417D01*
X38599997Y-58888417D01*
X38394070Y-58908698D01*
X38394065Y-58908699D01*
X38196045Y-58968768D01*
X38013547Y-59066316D01*
X37853595Y-59197585D01*
X37853585Y-59197595D01*
X37722316Y-59357547D01*
X37624768Y-59540045D01*
X37564699Y-59738065D01*
X37564698Y-59738070D01*
X37544417Y-59943996D01*
X37544417Y-59944003D01*
X37564698Y-60149929D01*
X37564699Y-60149934D01*
X37624768Y-60347954D01*
X37722316Y-60530452D01*
X37798911Y-60623783D01*
X37853590Y-60690410D01*
X37853595Y-60690414D01*
X38013547Y-60821683D01*
X38013548Y-60821683D01*
X38013550Y-60821685D01*
X38196046Y-60919232D01*
X38333997Y-60961078D01*
X38394065Y-60979300D01*
X38394070Y-60979301D01*
X38599997Y-60999583D01*
X38600000Y-60999583D01*
X38600003Y-60999583D01*
X38805929Y-60979301D01*
X38805934Y-60979300D01*
X39003954Y-60919232D01*
X39186450Y-60821685D01*
X39346410Y-60690410D01*
X39376972Y-60653168D01*
X39428502Y-60620182D01*
X39489581Y-60623783D01*
X39536879Y-60662598D01*
X39552500Y-60715974D01*
X39552500Y-61038165D01*
X39533593Y-61096356D01*
X39523503Y-61108169D01*
X39133388Y-61498283D01*
X39078872Y-61526060D01*
X39018440Y-61516489D01*
X39016719Y-61515590D01*
X39003960Y-61508770D01*
X39003954Y-61508768D01*
X38805934Y-61448699D01*
X38805929Y-61448698D01*
X38600003Y-61428417D01*
X38599997Y-61428417D01*
X38394070Y-61448698D01*
X38394065Y-61448699D01*
X38196045Y-61508768D01*
X38013547Y-61606316D01*
X37853595Y-61737585D01*
X37853585Y-61737595D01*
X37722316Y-61897547D01*
X37624768Y-62080045D01*
X37564699Y-62278065D01*
X37564698Y-62278070D01*
X37544417Y-62483996D01*
X37544417Y-62484003D01*
X37564698Y-62689929D01*
X37564699Y-62689934D01*
X37624768Y-62887954D01*
X37722316Y-63070452D01*
X37824776Y-63195300D01*
X37853590Y-63230410D01*
X37853595Y-63230414D01*
X38013547Y-63361683D01*
X38013548Y-63361683D01*
X38013550Y-63361685D01*
X38196046Y-63459232D01*
X38333997Y-63501078D01*
X38394065Y-63519300D01*
X38394070Y-63519301D01*
X38599997Y-63539583D01*
X38600000Y-63539583D01*
X38600003Y-63539583D01*
X38805929Y-63519301D01*
X38805934Y-63519300D01*
X39003954Y-63459232D01*
X39186450Y-63361685D01*
X39346410Y-63230410D01*
X39477685Y-63070450D01*
X39575232Y-62887954D01*
X39635300Y-62689934D01*
X39635301Y-62689929D01*
X39655583Y-62484003D01*
X39655583Y-62483996D01*
X39635301Y-62278070D01*
X39635300Y-62278065D01*
X39592219Y-62136046D01*
X39575232Y-62080046D01*
X39575230Y-62080042D01*
X39575229Y-62080039D01*
X39573982Y-62077706D01*
X39573769Y-62076514D01*
X39573369Y-62075548D01*
X39573580Y-62075460D01*
X39563227Y-62017473D01*
X39589930Y-61962423D01*
X39591290Y-61961036D01*
X39891497Y-61660830D01*
X39946013Y-61633053D01*
X40006445Y-61642624D01*
X40049710Y-61685889D01*
X40060500Y-61730834D01*
X40060500Y-63070165D01*
X40041593Y-63128356D01*
X40031504Y-63140169D01*
X39133389Y-64038283D01*
X39078872Y-64066060D01*
X39018440Y-64056489D01*
X39016719Y-64055590D01*
X39003960Y-64048770D01*
X39003954Y-64048768D01*
X38805934Y-63988699D01*
X38805929Y-63988698D01*
X38600003Y-63968417D01*
X38599997Y-63968417D01*
X38394070Y-63988698D01*
X38394065Y-63988699D01*
X38196045Y-64048768D01*
X38013547Y-64146316D01*
X37853595Y-64277585D01*
X37853585Y-64277595D01*
X37722316Y-64437547D01*
X37624768Y-64620045D01*
X37564699Y-64818065D01*
X37564698Y-64818070D01*
X37544417Y-65023996D01*
X37544417Y-65024003D01*
X37564698Y-65229929D01*
X37564699Y-65229934D01*
X37624768Y-65427954D01*
X37722316Y-65610452D01*
X37786370Y-65688502D01*
X37853590Y-65770410D01*
X37853595Y-65770414D01*
X38013547Y-65901683D01*
X38013548Y-65901683D01*
X38013550Y-65901685D01*
X38196046Y-65999232D01*
X38333997Y-66041078D01*
X38394065Y-66059300D01*
X38394070Y-66059301D01*
X38599997Y-66079583D01*
X38600000Y-66079583D01*
X38600003Y-66079583D01*
X38805929Y-66059301D01*
X38805934Y-66059300D01*
X39003954Y-65999232D01*
X39186450Y-65901685D01*
X39346410Y-65770410D01*
X39477685Y-65610450D01*
X39575232Y-65427954D01*
X39635300Y-65229934D01*
X39635301Y-65229929D01*
X39655583Y-65024003D01*
X39655583Y-65023996D01*
X39635301Y-64818070D01*
X39635300Y-64818065D01*
X39592219Y-64676046D01*
X39575232Y-64620046D01*
X39575230Y-64620042D01*
X39575229Y-64620039D01*
X39573982Y-64617706D01*
X39573769Y-64616514D01*
X39573369Y-64615548D01*
X39573580Y-64615460D01*
X39563227Y-64557473D01*
X39589930Y-64502423D01*
X39591242Y-64501083D01*
X40585859Y-63506466D01*
X40585862Y-63506465D01*
X40646465Y-63445862D01*
X40673312Y-63399361D01*
X40689318Y-63371639D01*
X40711501Y-63288853D01*
X40711501Y-63203147D01*
X40711501Y-63197085D01*
X40711500Y-63197067D01*
X40711500Y-58585051D01*
X40711406Y-58584700D01*
X40707638Y-58570638D01*
X40689318Y-58502264D01*
X40689315Y-58502258D01*
X40646468Y-58428045D01*
X40646467Y-58428044D01*
X40646466Y-58428043D01*
X40646465Y-58428041D01*
X37941910Y-55723487D01*
X37941907Y-55723485D01*
X35297958Y-53079535D01*
X35297955Y-53079533D01*
X35297953Y-53079531D01*
X35223738Y-53036683D01*
X35223740Y-53036683D01*
X35140946Y-53014499D01*
X35134515Y-53013653D01*
X35134729Y-53012027D01*
X35084148Y-52995593D01*
X35048184Y-52946093D01*
X35045241Y-52896185D01*
X35045733Y-52893713D01*
X35045734Y-52893709D01*
X37149500Y-52893709D01*
X37149500Y-53106290D01*
X37182752Y-53316238D01*
X37248443Y-53518412D01*
X37344948Y-53707815D01*
X37344950Y-53707819D01*
X37469891Y-53879786D01*
X37469893Y-53879788D01*
X37469896Y-53879792D01*
X37620208Y-54030104D01*
X37620211Y-54030106D01*
X37620213Y-54030108D01*
X37792180Y-54155049D01*
X37792184Y-54155051D01*
X37981588Y-54251557D01*
X38183757Y-54317246D01*
X38183758Y-54317246D01*
X38183761Y-54317247D01*
X38393710Y-54350500D01*
X38393713Y-54350500D01*
X38606290Y-54350500D01*
X38816238Y-54317247D01*
X38816239Y-54317246D01*
X38816243Y-54317246D01*
X39018412Y-54251557D01*
X39207816Y-54155051D01*
X39379792Y-54030104D01*
X39530104Y-53879792D01*
X39655051Y-53707816D01*
X39751557Y-53518412D01*
X39817246Y-53316243D01*
X39850500Y-53106287D01*
X39850500Y-52893713D01*
X39850500Y-52893709D01*
X39817247Y-52683761D01*
X39815239Y-52677580D01*
X39751557Y-52481588D01*
X39655051Y-52292184D01*
X39655049Y-52292180D01*
X39530108Y-52120213D01*
X39530106Y-52120211D01*
X39530104Y-52120208D01*
X39379792Y-51969896D01*
X39379788Y-51969893D01*
X39379786Y-51969891D01*
X39207819Y-51844950D01*
X39207815Y-51844948D01*
X39018412Y-51748443D01*
X38816238Y-51682752D01*
X38606290Y-51649500D01*
X38606287Y-51649500D01*
X38393713Y-51649500D01*
X38393710Y-51649500D01*
X38183761Y-51682752D01*
X37981587Y-51748443D01*
X37792184Y-51844948D01*
X37792180Y-51844950D01*
X37620213Y-51969891D01*
X37469891Y-52120213D01*
X37344950Y-52292180D01*
X37344948Y-52292184D01*
X37248443Y-52481587D01*
X37182752Y-52683761D01*
X37149500Y-52893709D01*
X35045734Y-52893709D01*
X35050500Y-52869748D01*
X35050500Y-51130252D01*
X35038867Y-51071769D01*
X34994552Y-51005448D01*
X34994548Y-51005445D01*
X34928233Y-50961134D01*
X34928231Y-50961133D01*
X34928228Y-50961132D01*
X34928227Y-50961132D01*
X34869758Y-50949501D01*
X34869748Y-50949500D01*
X33130252Y-50949500D01*
X33130251Y-50949500D01*
X33130241Y-50949501D01*
X33071772Y-50961132D01*
X33071766Y-50961134D01*
X33005451Y-51005445D01*
X33005445Y-51005451D01*
X32961134Y-51071766D01*
X32961132Y-51071772D01*
X32949501Y-51130241D01*
X32949500Y-51130251D01*
X32949500Y-51130252D01*
X32949500Y-52869748D01*
X32952515Y-52884907D01*
X32954759Y-52896185D01*
X32947568Y-52956946D01*
X32906035Y-53001877D01*
X32857661Y-53014500D01*
X19887862Y-53014500D01*
X19829671Y-52995593D01*
X19793707Y-52946093D01*
X19793707Y-52884907D01*
X19806766Y-52858716D01*
X19933600Y-52677577D01*
X20033430Y-52463489D01*
X20094570Y-52235313D01*
X20115157Y-52000003D01*
X20115157Y-51999996D01*
X20094570Y-51764686D01*
X20033429Y-51536505D01*
X19933605Y-51322432D01*
X19933601Y-51322424D01*
X19904047Y-51280216D01*
X19298730Y-51885533D01*
X19272518Y-51787708D01*
X19200110Y-51662292D01*
X19097708Y-51559890D01*
X18972292Y-51487482D01*
X18874464Y-51461268D01*
X19479782Y-50855951D01*
X19437580Y-50826400D01*
X19223489Y-50726569D01*
X19106146Y-50695127D01*
X19054832Y-50661803D01*
X19032905Y-50604681D01*
X19048741Y-50545581D01*
X19096290Y-50507076D01*
X19131769Y-50500500D01*
X44400500Y-50500500D01*
X44458691Y-50519407D01*
X44494655Y-50568907D01*
X44499500Y-50599500D01*
X44499500Y-88547000D01*
X44480593Y-88605191D01*
X44431093Y-88641155D01*
X44400500Y-88646000D01*
X34591950Y-88646000D01*
X34533759Y-88627093D01*
X34497795Y-88577593D01*
X34497795Y-88516407D01*
X34533759Y-88466907D01*
X34545275Y-88459693D01*
X34586450Y-88437685D01*
X34746410Y-88306410D01*
X34877685Y-88146450D01*
X34975232Y-87963954D01*
X35035300Y-87765934D01*
X35035301Y-87765929D01*
X35055583Y-87560003D01*
X35055583Y-87559996D01*
X35035301Y-87354070D01*
X35035300Y-87354065D01*
X34986622Y-87193595D01*
X34975232Y-87156046D01*
X34877685Y-86973550D01*
X34873789Y-86968803D01*
X34746414Y-86813595D01*
X34746410Y-86813590D01*
X34746404Y-86813585D01*
X34586452Y-86682316D01*
X34403954Y-86584768D01*
X34205934Y-86524699D01*
X34205929Y-86524698D01*
X34000003Y-86504417D01*
X33999997Y-86504417D01*
X33794070Y-86524698D01*
X33794065Y-86524699D01*
X33596045Y-86584768D01*
X33413547Y-86682316D01*
X33253595Y-86813585D01*
X33253585Y-86813595D01*
X33122316Y-86973547D01*
X33024768Y-87156045D01*
X32964699Y-87354065D01*
X32964698Y-87354070D01*
X32944417Y-87559996D01*
X32944417Y-87560003D01*
X32964698Y-87765929D01*
X32964699Y-87765934D01*
X33024768Y-87963954D01*
X33122316Y-88146452D01*
X33150499Y-88180793D01*
X33253590Y-88306410D01*
X33253595Y-88306414D01*
X33413547Y-88437683D01*
X33413548Y-88437683D01*
X33413550Y-88437685D01*
X33454719Y-88459690D01*
X33497125Y-88503796D01*
X33505508Y-88564404D01*
X33476665Y-88618365D01*
X33421614Y-88645066D01*
X33408050Y-88646000D01*
X31750000Y-88646000D01*
X31756319Y-96731496D01*
X31756353Y-96774023D01*
X31737491Y-96832228D01*
X31688019Y-96868231D01*
X31657353Y-96873100D01*
X28454430Y-96873100D01*
X28447999Y-102616000D01*
X28448000Y-102616000D01*
X44400500Y-102616000D01*
X44458691Y-102634907D01*
X44494655Y-102684407D01*
X44499500Y-102715000D01*
X44499500Y-149400500D01*
X44480593Y-149458691D01*
X44431093Y-149494655D01*
X44400500Y-149499500D01*
X15599500Y-149499500D01*
X15541309Y-149480593D01*
X15505345Y-149431093D01*
X15500500Y-149400500D01*
X15500500Y-144093709D01*
X28649500Y-144093709D01*
X28649500Y-144306290D01*
X28682752Y-144516238D01*
X28748443Y-144718412D01*
X28844948Y-144907815D01*
X28844950Y-144907819D01*
X28969891Y-145079786D01*
X28969893Y-145079788D01*
X28969896Y-145079792D01*
X29120208Y-145230104D01*
X29120211Y-145230106D01*
X29120213Y-145230108D01*
X29292180Y-145355049D01*
X29292184Y-145355051D01*
X29481588Y-145451557D01*
X29683757Y-145517246D01*
X29683758Y-145517246D01*
X29683761Y-145517247D01*
X29893710Y-145550500D01*
X29893713Y-145550500D01*
X30106290Y-145550500D01*
X30316238Y-145517247D01*
X30316239Y-145517246D01*
X30316243Y-145517246D01*
X30518412Y-145451557D01*
X30707816Y-145355051D01*
X30879792Y-145230104D01*
X31030104Y-145079792D01*
X31155051Y-144907816D01*
X31251557Y-144718412D01*
X31317246Y-144516243D01*
X31350500Y-144306287D01*
X31350500Y-144093713D01*
X31350500Y-144093709D01*
X31317247Y-143883761D01*
X31317246Y-143883757D01*
X31251557Y-143681588D01*
X31155051Y-143492184D01*
X31155049Y-143492180D01*
X31030108Y-143320213D01*
X31030106Y-143320211D01*
X31030104Y-143320208D01*
X30879792Y-143169896D01*
X30879788Y-143169893D01*
X30879786Y-143169891D01*
X30707819Y-143044950D01*
X30707815Y-143044948D01*
X30518412Y-142948443D01*
X30316238Y-142882752D01*
X30106290Y-142849500D01*
X30106287Y-142849500D01*
X29893713Y-142849500D01*
X29893710Y-142849500D01*
X29683761Y-142882752D01*
X29481587Y-142948443D01*
X29292184Y-143044948D01*
X29292180Y-143044950D01*
X29120213Y-143169891D01*
X28969891Y-143320213D01*
X28844950Y-143492180D01*
X28844948Y-143492184D01*
X28748443Y-143681587D01*
X28682752Y-143883761D01*
X28649500Y-144093709D01*
X15500500Y-144093709D01*
X15500500Y-136639996D01*
X20054417Y-136639996D01*
X20054417Y-136640003D01*
X20074698Y-136845929D01*
X20074699Y-136845934D01*
X20134768Y-137043954D01*
X20232316Y-137226452D01*
X20341736Y-137359781D01*
X20363590Y-137386410D01*
X20363595Y-137386414D01*
X20523547Y-137517683D01*
X20523548Y-137517683D01*
X20523550Y-137517685D01*
X20706046Y-137615232D01*
X20796904Y-137642793D01*
X20904065Y-137675300D01*
X20904070Y-137675301D01*
X21109997Y-137695583D01*
X21110000Y-137695583D01*
X21110003Y-137695583D01*
X21315929Y-137675301D01*
X21315934Y-137675300D01*
X21513954Y-137615232D01*
X21696450Y-137517685D01*
X21856410Y-137386410D01*
X21987685Y-137226450D01*
X22085232Y-137043954D01*
X22145300Y-136845934D01*
X22145301Y-136845929D01*
X22165583Y-136640003D01*
X22165583Y-136639996D01*
X22594417Y-136639996D01*
X22594417Y-136640003D01*
X22614698Y-136845929D01*
X22614699Y-136845934D01*
X22674768Y-137043954D01*
X22772316Y-137226452D01*
X22881736Y-137359781D01*
X22903590Y-137386410D01*
X22903595Y-137386414D01*
X23063547Y-137517683D01*
X23063548Y-137517683D01*
X23063550Y-137517685D01*
X23246046Y-137615232D01*
X23336904Y-137642793D01*
X23444065Y-137675300D01*
X23444070Y-137675301D01*
X23649997Y-137695583D01*
X23650000Y-137695583D01*
X23650003Y-137695583D01*
X23855929Y-137675301D01*
X23855934Y-137675300D01*
X24053954Y-137615232D01*
X24236450Y-137517685D01*
X24396410Y-137386410D01*
X24527685Y-137226450D01*
X24625232Y-137043954D01*
X24685300Y-136845934D01*
X24685301Y-136845929D01*
X24705583Y-136640003D01*
X24705583Y-136639996D01*
X25134417Y-136639996D01*
X25134417Y-136640003D01*
X25154698Y-136845929D01*
X25154699Y-136845934D01*
X25214768Y-137043954D01*
X25312316Y-137226452D01*
X25421736Y-137359781D01*
X25443590Y-137386410D01*
X25443595Y-137386414D01*
X25603547Y-137517683D01*
X25603548Y-137517683D01*
X25603550Y-137517685D01*
X25786046Y-137615232D01*
X25876904Y-137642793D01*
X25984065Y-137675300D01*
X25984070Y-137675301D01*
X26189997Y-137695583D01*
X26190000Y-137695583D01*
X26190003Y-137695583D01*
X26395929Y-137675301D01*
X26395934Y-137675300D01*
X26593954Y-137615232D01*
X26776450Y-137517685D01*
X26936410Y-137386410D01*
X27067685Y-137226450D01*
X27165232Y-137043954D01*
X27225300Y-136845934D01*
X27225301Y-136845929D01*
X27245583Y-136640003D01*
X27245583Y-136639996D01*
X27225301Y-136434070D01*
X27225300Y-136434065D01*
X27166401Y-136239901D01*
X27165232Y-136236046D01*
X27067685Y-136053550D01*
X27012024Y-135985727D01*
X26936414Y-135893595D01*
X26936410Y-135893590D01*
X26936404Y-135893585D01*
X26776452Y-135762316D01*
X26593954Y-135664768D01*
X26395934Y-135604699D01*
X26395929Y-135604698D01*
X26190003Y-135584417D01*
X26189997Y-135584417D01*
X25984070Y-135604698D01*
X25984065Y-135604699D01*
X25786045Y-135664768D01*
X25603547Y-135762316D01*
X25443595Y-135893585D01*
X25443585Y-135893595D01*
X25312316Y-136053547D01*
X25214768Y-136236045D01*
X25154699Y-136434065D01*
X25154698Y-136434070D01*
X25134417Y-136639996D01*
X24705583Y-136639996D01*
X24685301Y-136434070D01*
X24685300Y-136434065D01*
X24626401Y-136239901D01*
X24625232Y-136236046D01*
X24527685Y-136053550D01*
X24472024Y-135985727D01*
X24396414Y-135893595D01*
X24396410Y-135893590D01*
X24396404Y-135893585D01*
X24236452Y-135762316D01*
X24053954Y-135664768D01*
X23855934Y-135604699D01*
X23855929Y-135604698D01*
X23650003Y-135584417D01*
X23649997Y-135584417D01*
X23444070Y-135604698D01*
X23444065Y-135604699D01*
X23246045Y-135664768D01*
X23063547Y-135762316D01*
X22903595Y-135893585D01*
X22903585Y-135893595D01*
X22772316Y-136053547D01*
X22674768Y-136236045D01*
X22614699Y-136434065D01*
X22614698Y-136434070D01*
X22594417Y-136639996D01*
X22165583Y-136639996D01*
X22145301Y-136434070D01*
X22145300Y-136434065D01*
X22086401Y-136239901D01*
X22085232Y-136236046D01*
X21987685Y-136053550D01*
X21932024Y-135985727D01*
X21856414Y-135893595D01*
X21856410Y-135893590D01*
X21856404Y-135893585D01*
X21696452Y-135762316D01*
X21513954Y-135664768D01*
X21315934Y-135604699D01*
X21315929Y-135604698D01*
X21110003Y-135584417D01*
X21109997Y-135584417D01*
X20904070Y-135604698D01*
X20904065Y-135604699D01*
X20706045Y-135664768D01*
X20523547Y-135762316D01*
X20363595Y-135893585D01*
X20363585Y-135893595D01*
X20232316Y-136053547D01*
X20134768Y-136236045D01*
X20074699Y-136434065D01*
X20074698Y-136434070D01*
X20054417Y-136639996D01*
X15500500Y-136639996D01*
X15500500Y-134099996D01*
X20054417Y-134099996D01*
X20054417Y-134100003D01*
X20074698Y-134305929D01*
X20074699Y-134305934D01*
X20134768Y-134503954D01*
X20232316Y-134686452D01*
X20307096Y-134777572D01*
X20363590Y-134846410D01*
X20363595Y-134846414D01*
X20523547Y-134977683D01*
X20523548Y-134977683D01*
X20523550Y-134977685D01*
X20706046Y-135075232D01*
X20843997Y-135117078D01*
X20904065Y-135135300D01*
X20904070Y-135135301D01*
X21109997Y-135155583D01*
X21110000Y-135155583D01*
X21110003Y-135155583D01*
X21315929Y-135135301D01*
X21315934Y-135135300D01*
X21513954Y-135075232D01*
X21696450Y-134977685D01*
X21856410Y-134846410D01*
X21987685Y-134686450D01*
X22085232Y-134503954D01*
X22145300Y-134305934D01*
X22145301Y-134305929D01*
X22165583Y-134100003D01*
X22165583Y-134099996D01*
X22594417Y-134099996D01*
X22594417Y-134100003D01*
X22614698Y-134305929D01*
X22614699Y-134305934D01*
X22674768Y-134503954D01*
X22772316Y-134686452D01*
X22847096Y-134777572D01*
X22903590Y-134846410D01*
X22903595Y-134846414D01*
X23063547Y-134977683D01*
X23063548Y-134977683D01*
X23063550Y-134977685D01*
X23246046Y-135075232D01*
X23383997Y-135117078D01*
X23444065Y-135135300D01*
X23444070Y-135135301D01*
X23649997Y-135155583D01*
X23650000Y-135155583D01*
X23650003Y-135155583D01*
X23855929Y-135135301D01*
X23855934Y-135135300D01*
X24053954Y-135075232D01*
X24236450Y-134977685D01*
X24396410Y-134846410D01*
X24527685Y-134686450D01*
X24625232Y-134503954D01*
X24685300Y-134305934D01*
X24685301Y-134305929D01*
X24705583Y-134100003D01*
X24705583Y-134099996D01*
X25134417Y-134099996D01*
X25134417Y-134100003D01*
X25154698Y-134305929D01*
X25154699Y-134305934D01*
X25214768Y-134503954D01*
X25312316Y-134686452D01*
X25387096Y-134777572D01*
X25443590Y-134846410D01*
X25443595Y-134846414D01*
X25603547Y-134977683D01*
X25603548Y-134977683D01*
X25603550Y-134977685D01*
X25786046Y-135075232D01*
X25923997Y-135117078D01*
X25984065Y-135135300D01*
X25984070Y-135135301D01*
X26189997Y-135155583D01*
X26190000Y-135155583D01*
X26190003Y-135155583D01*
X26395929Y-135135301D01*
X26395934Y-135135300D01*
X26593954Y-135075232D01*
X26776450Y-134977685D01*
X26936410Y-134846410D01*
X27067685Y-134686450D01*
X27165232Y-134503954D01*
X27225300Y-134305934D01*
X27225301Y-134305929D01*
X27245583Y-134100003D01*
X27245583Y-134099996D01*
X27674417Y-134099996D01*
X27674417Y-134100003D01*
X27694698Y-134305929D01*
X27694699Y-134305934D01*
X27754768Y-134503954D01*
X27852316Y-134686452D01*
X27927096Y-134777572D01*
X27983590Y-134846410D01*
X27983595Y-134846414D01*
X28143547Y-134977683D01*
X28143548Y-134977683D01*
X28143550Y-134977685D01*
X28326046Y-135075232D01*
X28463997Y-135117078D01*
X28524065Y-135135300D01*
X28524070Y-135135301D01*
X28729997Y-135155583D01*
X28730000Y-135155583D01*
X28730003Y-135155583D01*
X28935929Y-135135301D01*
X28935934Y-135135300D01*
X29133954Y-135075232D01*
X29316450Y-134977685D01*
X29476410Y-134846410D01*
X29607685Y-134686450D01*
X29705232Y-134503954D01*
X29750819Y-134353670D01*
X29785804Y-134303474D01*
X29843612Y-134283428D01*
X29902163Y-134301189D01*
X29939092Y-134349973D01*
X29941183Y-134356786D01*
X29996569Y-134563489D01*
X30096400Y-134777579D01*
X30096400Y-134777580D01*
X30125951Y-134819782D01*
X30772093Y-134173639D01*
X30804075Y-134292993D01*
X30869901Y-134407007D01*
X30962993Y-134500099D01*
X31077007Y-134565925D01*
X31196357Y-134597905D01*
X30550215Y-135244046D01*
X30592417Y-135273598D01*
X30592424Y-135273601D01*
X30606735Y-135280275D01*
X30651484Y-135322003D01*
X30663159Y-135382064D01*
X30637302Y-135437517D01*
X30606739Y-135459723D01*
X30592429Y-135466396D01*
X30592420Y-135466401D01*
X30550216Y-135495951D01*
X31196359Y-136142094D01*
X31077007Y-136174075D01*
X30962993Y-136239901D01*
X30869901Y-136332993D01*
X30804075Y-136447007D01*
X30772094Y-136566359D01*
X30125951Y-135920216D01*
X30096401Y-135962420D01*
X30096394Y-135962432D01*
X29996570Y-136176505D01*
X29941183Y-136383213D01*
X29907859Y-136434527D01*
X29850737Y-136456454D01*
X29791637Y-136440618D01*
X29753132Y-136393068D01*
X29750819Y-136386328D01*
X29706401Y-136239901D01*
X29705232Y-136236046D01*
X29607685Y-136053550D01*
X29552024Y-135985727D01*
X29476414Y-135893595D01*
X29476410Y-135893590D01*
X29476404Y-135893585D01*
X29316452Y-135762316D01*
X29133954Y-135664768D01*
X28935934Y-135604699D01*
X28935929Y-135604698D01*
X28730003Y-135584417D01*
X28729997Y-135584417D01*
X28524070Y-135604698D01*
X28524065Y-135604699D01*
X28326045Y-135664768D01*
X28143547Y-135762316D01*
X27983595Y-135893585D01*
X27983585Y-135893595D01*
X27852316Y-136053547D01*
X27754768Y-136236045D01*
X27694699Y-136434065D01*
X27694698Y-136434070D01*
X27674417Y-136639996D01*
X27674417Y-136640003D01*
X27694698Y-136845929D01*
X27694699Y-136845934D01*
X27754768Y-137043954D01*
X27852316Y-137226452D01*
X27961736Y-137359781D01*
X27983590Y-137386410D01*
X27983595Y-137386414D01*
X28143547Y-137517683D01*
X28143548Y-137517683D01*
X28143550Y-137517685D01*
X28326046Y-137615232D01*
X28416904Y-137642793D01*
X28524065Y-137675300D01*
X28524070Y-137675301D01*
X28729997Y-137695583D01*
X28730000Y-137695583D01*
X28730003Y-137695583D01*
X28935929Y-137675301D01*
X28935934Y-137675300D01*
X29133954Y-137615232D01*
X29316450Y-137517685D01*
X29476410Y-137386410D01*
X29607685Y-137226450D01*
X29705232Y-137043954D01*
X29750819Y-136893670D01*
X29785804Y-136843474D01*
X29843612Y-136823428D01*
X29902163Y-136841189D01*
X29939092Y-136889973D01*
X29941183Y-136896786D01*
X29996569Y-137103489D01*
X30096400Y-137317579D01*
X30096400Y-137317580D01*
X30125951Y-137359782D01*
X30772093Y-136713639D01*
X30804075Y-136832993D01*
X30869901Y-136947007D01*
X30962993Y-137040099D01*
X31077007Y-137105925D01*
X31196357Y-137137905D01*
X30550215Y-137784046D01*
X30592417Y-137813598D01*
X30592420Y-137813599D01*
X30806510Y-137913430D01*
X31034686Y-137974570D01*
X31269997Y-137995157D01*
X31270003Y-137995157D01*
X31505313Y-137974570D01*
X31733494Y-137913429D01*
X31947572Y-137813603D01*
X31947580Y-137813598D01*
X31989781Y-137784046D01*
X31343640Y-137137905D01*
X31462993Y-137105925D01*
X31577007Y-137040099D01*
X31670099Y-136947007D01*
X31735925Y-136832993D01*
X31767905Y-136713640D01*
X32414046Y-137359781D01*
X32443598Y-137317580D01*
X32443603Y-137317572D01*
X32543429Y-137103495D01*
X32598816Y-136896786D01*
X32632140Y-136845472D01*
X32689261Y-136823545D01*
X32748362Y-136839380D01*
X32786867Y-136886930D01*
X32789180Y-136893671D01*
X32834768Y-137043954D01*
X32932316Y-137226452D01*
X33041736Y-137359781D01*
X33063590Y-137386410D01*
X33063595Y-137386414D01*
X33223547Y-137517683D01*
X33223548Y-137517683D01*
X33223550Y-137517685D01*
X33406046Y-137615232D01*
X33496904Y-137642793D01*
X33604065Y-137675300D01*
X33604070Y-137675301D01*
X33809997Y-137695583D01*
X33810000Y-137695583D01*
X33810003Y-137695583D01*
X34015929Y-137675301D01*
X34015934Y-137675300D01*
X34213954Y-137615232D01*
X34396450Y-137517685D01*
X34556410Y-137386410D01*
X34687685Y-137226450D01*
X34785232Y-137043954D01*
X34845300Y-136845934D01*
X34845301Y-136845929D01*
X34865583Y-136640003D01*
X34865583Y-136639996D01*
X35294417Y-136639996D01*
X35294417Y-136640003D01*
X35314698Y-136845929D01*
X35314699Y-136845934D01*
X35374768Y-137043954D01*
X35472316Y-137226452D01*
X35581736Y-137359781D01*
X35603590Y-137386410D01*
X35603595Y-137386414D01*
X35763547Y-137517683D01*
X35763548Y-137517683D01*
X35763550Y-137517685D01*
X35946046Y-137615232D01*
X36036904Y-137642793D01*
X36144065Y-137675300D01*
X36144070Y-137675301D01*
X36349997Y-137695583D01*
X36350000Y-137695583D01*
X36350003Y-137695583D01*
X36555929Y-137675301D01*
X36555934Y-137675300D01*
X36753954Y-137615232D01*
X36936450Y-137517685D01*
X37096410Y-137386410D01*
X37227685Y-137226450D01*
X37325232Y-137043954D01*
X37385300Y-136845934D01*
X37385301Y-136845929D01*
X37405583Y-136640003D01*
X37405583Y-136639996D01*
X37385301Y-136434070D01*
X37385300Y-136434065D01*
X37326401Y-136239901D01*
X37325232Y-136236046D01*
X37227685Y-136053550D01*
X37172024Y-135985727D01*
X37172022Y-135985725D01*
X37839500Y-135985725D01*
X37839500Y-137294274D01*
X37842353Y-137324694D01*
X37842355Y-137324703D01*
X37887207Y-137452883D01*
X37967845Y-137562144D01*
X37967847Y-137562146D01*
X37967850Y-137562150D01*
X37967853Y-137562152D01*
X37967855Y-137562154D01*
X38077116Y-137642792D01*
X38077117Y-137642792D01*
X38077118Y-137642793D01*
X38205301Y-137687646D01*
X38235725Y-137690499D01*
X38235727Y-137690500D01*
X38235734Y-137690500D01*
X39544273Y-137690500D01*
X39544273Y-137690499D01*
X39574699Y-137687646D01*
X39702882Y-137642793D01*
X39812150Y-137562150D01*
X39892793Y-137452882D01*
X39937646Y-137324699D01*
X39940499Y-137294273D01*
X39940500Y-137294273D01*
X39940500Y-135985727D01*
X39940499Y-135985725D01*
X39937646Y-135955301D01*
X39892793Y-135827118D01*
X39844967Y-135762316D01*
X39812154Y-135717855D01*
X39812152Y-135717853D01*
X39812150Y-135717850D01*
X39812146Y-135717847D01*
X39812144Y-135717845D01*
X39702883Y-135637207D01*
X39574703Y-135592355D01*
X39574694Y-135592353D01*
X39544274Y-135589500D01*
X39544266Y-135589500D01*
X38235734Y-135589500D01*
X38235725Y-135589500D01*
X38205305Y-135592353D01*
X38205296Y-135592355D01*
X38077116Y-135637207D01*
X37967855Y-135717845D01*
X37967845Y-135717855D01*
X37887207Y-135827116D01*
X37842355Y-135955296D01*
X37842353Y-135955305D01*
X37839500Y-135985725D01*
X37172022Y-135985725D01*
X37096414Y-135893595D01*
X37096410Y-135893590D01*
X37096404Y-135893585D01*
X36936452Y-135762316D01*
X36753954Y-135664768D01*
X36555934Y-135604699D01*
X36555929Y-135604698D01*
X36350003Y-135584417D01*
X36349997Y-135584417D01*
X36144070Y-135604698D01*
X36144065Y-135604699D01*
X35946045Y-135664768D01*
X35763547Y-135762316D01*
X35603595Y-135893585D01*
X35603585Y-135893595D01*
X35472316Y-136053547D01*
X35374768Y-136236045D01*
X35314699Y-136434065D01*
X35314698Y-136434070D01*
X35294417Y-136639996D01*
X34865583Y-136639996D01*
X34845301Y-136434070D01*
X34845300Y-136434065D01*
X34786401Y-136239901D01*
X34785232Y-136236046D01*
X34687685Y-136053550D01*
X34632024Y-135985727D01*
X34556414Y-135893595D01*
X34556410Y-135893590D01*
X34556404Y-135893585D01*
X34396452Y-135762316D01*
X34213954Y-135664768D01*
X34015934Y-135604699D01*
X34015929Y-135604698D01*
X33810003Y-135584417D01*
X33809997Y-135584417D01*
X33604070Y-135604698D01*
X33604065Y-135604699D01*
X33406045Y-135664768D01*
X33223547Y-135762316D01*
X33063595Y-135893585D01*
X33063585Y-135893595D01*
X32932316Y-136053547D01*
X32834769Y-136236044D01*
X32789180Y-136386329D01*
X32754195Y-136436525D01*
X32696386Y-136456571D01*
X32637836Y-136438810D01*
X32600907Y-136390025D01*
X32598816Y-136383213D01*
X32543429Y-136176504D01*
X32443605Y-135962432D01*
X32443601Y-135962424D01*
X32414047Y-135920216D01*
X31767905Y-136566357D01*
X31735925Y-136447007D01*
X31670099Y-136332993D01*
X31577007Y-136239901D01*
X31462993Y-136174075D01*
X31343639Y-136142093D01*
X31989782Y-135495951D01*
X31947580Y-135466400D01*
X31947575Y-135466398D01*
X31933265Y-135459725D01*
X31888516Y-135417997D01*
X31876841Y-135357936D01*
X31902698Y-135302483D01*
X31933265Y-135280275D01*
X31947571Y-135273604D01*
X31947578Y-135273600D01*
X31989781Y-135244046D01*
X31343640Y-134597905D01*
X31462993Y-134565925D01*
X31577007Y-134500099D01*
X31670099Y-134407007D01*
X31735925Y-134292993D01*
X31767905Y-134173640D01*
X32414046Y-134819781D01*
X32443598Y-134777580D01*
X32443603Y-134777572D01*
X32543429Y-134563495D01*
X32598816Y-134356786D01*
X32632140Y-134305472D01*
X32689261Y-134283545D01*
X32748362Y-134299380D01*
X32786867Y-134346930D01*
X32789180Y-134353671D01*
X32834768Y-134503954D01*
X32932316Y-134686452D01*
X33007096Y-134777572D01*
X33063590Y-134846410D01*
X33063595Y-134846414D01*
X33223547Y-134977683D01*
X33223548Y-134977683D01*
X33223550Y-134977685D01*
X33406046Y-135075232D01*
X33543997Y-135117078D01*
X33604065Y-135135300D01*
X33604070Y-135135301D01*
X33809997Y-135155583D01*
X33810000Y-135155583D01*
X33810003Y-135155583D01*
X34015929Y-135135301D01*
X34015934Y-135135300D01*
X34213954Y-135075232D01*
X34396450Y-134977685D01*
X34556410Y-134846410D01*
X34687685Y-134686450D01*
X34785232Y-134503954D01*
X34845300Y-134305934D01*
X34845301Y-134305929D01*
X34865583Y-134100003D01*
X34865583Y-134099996D01*
X35294417Y-134099996D01*
X35294417Y-134100003D01*
X35314698Y-134305929D01*
X35314699Y-134305934D01*
X35374768Y-134503954D01*
X35472316Y-134686452D01*
X35547096Y-134777572D01*
X35603590Y-134846410D01*
X35603595Y-134846414D01*
X35763547Y-134977683D01*
X35763548Y-134977683D01*
X35763550Y-134977685D01*
X35946046Y-135075232D01*
X36083997Y-135117078D01*
X36144065Y-135135300D01*
X36144070Y-135135301D01*
X36349997Y-135155583D01*
X36350000Y-135155583D01*
X36350003Y-135155583D01*
X36555929Y-135135301D01*
X36555934Y-135135300D01*
X36753954Y-135075232D01*
X36936450Y-134977685D01*
X37096410Y-134846410D01*
X37227685Y-134686450D01*
X37325232Y-134503954D01*
X37385300Y-134305934D01*
X37385301Y-134305929D01*
X37405583Y-134100003D01*
X37405583Y-134099996D01*
X37834417Y-134099996D01*
X37834417Y-134100003D01*
X37854698Y-134305929D01*
X37854699Y-134305934D01*
X37914768Y-134503954D01*
X38012316Y-134686452D01*
X38087096Y-134777572D01*
X38143590Y-134846410D01*
X38143595Y-134846414D01*
X38303547Y-134977683D01*
X38303548Y-134977683D01*
X38303550Y-134977685D01*
X38486046Y-135075232D01*
X38623997Y-135117078D01*
X38684065Y-135135300D01*
X38684070Y-135135301D01*
X38889997Y-135155583D01*
X38890000Y-135155583D01*
X38890003Y-135155583D01*
X39095929Y-135135301D01*
X39095934Y-135135300D01*
X39293954Y-135075232D01*
X39476450Y-134977685D01*
X39636410Y-134846410D01*
X39767685Y-134686450D01*
X39865232Y-134503954D01*
X39925300Y-134305934D01*
X39925301Y-134305929D01*
X39945583Y-134100003D01*
X39945583Y-134099996D01*
X39925301Y-133894070D01*
X39925300Y-133894065D01*
X39866401Y-133699901D01*
X39865232Y-133696046D01*
X39767685Y-133513550D01*
X39636410Y-133353590D01*
X39636404Y-133353585D01*
X39476452Y-133222316D01*
X39293954Y-133124768D01*
X39095934Y-133064699D01*
X39095929Y-133064698D01*
X38890003Y-133044417D01*
X38889997Y-133044417D01*
X38684070Y-133064698D01*
X38684065Y-133064699D01*
X38486045Y-133124768D01*
X38303547Y-133222316D01*
X38143595Y-133353585D01*
X38143585Y-133353595D01*
X38012316Y-133513547D01*
X37914768Y-133696045D01*
X37854699Y-133894065D01*
X37854698Y-133894070D01*
X37834417Y-134099996D01*
X37405583Y-134099996D01*
X37385301Y-133894070D01*
X37385300Y-133894065D01*
X37326401Y-133699901D01*
X37325232Y-133696046D01*
X37227685Y-133513550D01*
X37096410Y-133353590D01*
X37096404Y-133353585D01*
X36936452Y-133222316D01*
X36753954Y-133124768D01*
X36555934Y-133064699D01*
X36555929Y-133064698D01*
X36350003Y-133044417D01*
X36349997Y-133044417D01*
X36144070Y-133064698D01*
X36144065Y-133064699D01*
X35946045Y-133124768D01*
X35763547Y-133222316D01*
X35603595Y-133353585D01*
X35603585Y-133353595D01*
X35472316Y-133513547D01*
X35374768Y-133696045D01*
X35314699Y-133894065D01*
X35314698Y-133894070D01*
X35294417Y-134099996D01*
X34865583Y-134099996D01*
X34845301Y-133894070D01*
X34845300Y-133894065D01*
X34786401Y-133699901D01*
X34785232Y-133696046D01*
X34687685Y-133513550D01*
X34556410Y-133353590D01*
X34556404Y-133353585D01*
X34396452Y-133222316D01*
X34213954Y-133124768D01*
X34015934Y-133064699D01*
X34015929Y-133064698D01*
X33810003Y-133044417D01*
X33809997Y-133044417D01*
X33604070Y-133064698D01*
X33604065Y-133064699D01*
X33406045Y-133124768D01*
X33223547Y-133222316D01*
X33063595Y-133353585D01*
X33063585Y-133353595D01*
X32932316Y-133513547D01*
X32834769Y-133696044D01*
X32789180Y-133846329D01*
X32754195Y-133896525D01*
X32696386Y-133916571D01*
X32637836Y-133898810D01*
X32600907Y-133850025D01*
X32598816Y-133843213D01*
X32543429Y-133636504D01*
X32443605Y-133422432D01*
X32443601Y-133422424D01*
X32414047Y-133380216D01*
X31767905Y-134026357D01*
X31735925Y-133907007D01*
X31670099Y-133792993D01*
X31577007Y-133699901D01*
X31462993Y-133634075D01*
X31343639Y-133602093D01*
X31989782Y-132955951D01*
X31947580Y-132926400D01*
X31733489Y-132826569D01*
X31505313Y-132765429D01*
X31270003Y-132744843D01*
X31269997Y-132744843D01*
X31034686Y-132765429D01*
X30806505Y-132826570D01*
X30592432Y-132926394D01*
X30592420Y-132926401D01*
X30550216Y-132955951D01*
X31196359Y-133602094D01*
X31077007Y-133634075D01*
X30962993Y-133699901D01*
X30869901Y-133792993D01*
X30804075Y-133907007D01*
X30772094Y-134026359D01*
X30125951Y-133380216D01*
X30096401Y-133422420D01*
X30096394Y-133422432D01*
X29996570Y-133636505D01*
X29941183Y-133843213D01*
X29907859Y-133894527D01*
X29850737Y-133916454D01*
X29791637Y-133900618D01*
X29753132Y-133853068D01*
X29750819Y-133846328D01*
X29706401Y-133699901D01*
X29705232Y-133696046D01*
X29607685Y-133513550D01*
X29476410Y-133353590D01*
X29476404Y-133353585D01*
X29316452Y-133222316D01*
X29133954Y-133124768D01*
X28935934Y-133064699D01*
X28935929Y-133064698D01*
X28730003Y-133044417D01*
X28729997Y-133044417D01*
X28524070Y-133064698D01*
X28524065Y-133064699D01*
X28326045Y-133124768D01*
X28143547Y-133222316D01*
X27983595Y-133353585D01*
X27983585Y-133353595D01*
X27852316Y-133513547D01*
X27754768Y-133696045D01*
X27694699Y-133894065D01*
X27694698Y-133894070D01*
X27674417Y-134099996D01*
X27245583Y-134099996D01*
X27225301Y-133894070D01*
X27225300Y-133894065D01*
X27166401Y-133699901D01*
X27165232Y-133696046D01*
X27067685Y-133513550D01*
X26936410Y-133353590D01*
X26936404Y-133353585D01*
X26776452Y-133222316D01*
X26593954Y-133124768D01*
X26395934Y-133064699D01*
X26395929Y-133064698D01*
X26190003Y-133044417D01*
X26189997Y-133044417D01*
X25984070Y-133064698D01*
X25984065Y-133064699D01*
X25786045Y-133124768D01*
X25603547Y-133222316D01*
X25443595Y-133353585D01*
X25443585Y-133353595D01*
X25312316Y-133513547D01*
X25214768Y-133696045D01*
X25154699Y-133894065D01*
X25154698Y-133894070D01*
X25134417Y-134099996D01*
X24705583Y-134099996D01*
X24685301Y-133894070D01*
X24685300Y-133894065D01*
X24626401Y-133699901D01*
X24625232Y-133696046D01*
X24527685Y-133513550D01*
X24396410Y-133353590D01*
X24396404Y-133353585D01*
X24236452Y-133222316D01*
X24053954Y-133124768D01*
X23855934Y-133064699D01*
X23855929Y-133064698D01*
X23650003Y-133044417D01*
X23649997Y-133044417D01*
X23444070Y-133064698D01*
X23444065Y-133064699D01*
X23246045Y-133124768D01*
X23063547Y-133222316D01*
X22903595Y-133353585D01*
X22903585Y-133353595D01*
X22772316Y-133513547D01*
X22674768Y-133696045D01*
X22614699Y-133894065D01*
X22614698Y-133894070D01*
X22594417Y-134099996D01*
X22165583Y-134099996D01*
X22145301Y-133894070D01*
X22145300Y-133894065D01*
X22086401Y-133699901D01*
X22085232Y-133696046D01*
X21987685Y-133513550D01*
X21856410Y-133353590D01*
X21856404Y-133353585D01*
X21696452Y-133222316D01*
X21513954Y-133124768D01*
X21315934Y-133064699D01*
X21315929Y-133064698D01*
X21110003Y-133044417D01*
X21109997Y-133044417D01*
X20904070Y-133064698D01*
X20904065Y-133064699D01*
X20706045Y-133124768D01*
X20523547Y-133222316D01*
X20363595Y-133353585D01*
X20363585Y-133353595D01*
X20232316Y-133513547D01*
X20134768Y-133696045D01*
X20074699Y-133894065D01*
X20074698Y-133894070D01*
X20054417Y-134099996D01*
X15500500Y-134099996D01*
X15500500Y-127039996D01*
X18544532Y-127039996D01*
X18544532Y-127040003D01*
X18564363Y-127266684D01*
X18623262Y-127486500D01*
X18719426Y-127692723D01*
X18719434Y-127692737D01*
X18849946Y-127879130D01*
X18849947Y-127879132D01*
X18849950Y-127879135D01*
X18849953Y-127879139D01*
X19010861Y-128040047D01*
X19010864Y-128040049D01*
X19010867Y-128040052D01*
X19010869Y-128040053D01*
X19135131Y-128127061D01*
X19197266Y-128170568D01*
X19197272Y-128170571D01*
X19197276Y-128170573D01*
X19403500Y-128266737D01*
X19403504Y-128266739D01*
X19623308Y-128325635D01*
X19623312Y-128325635D01*
X19623315Y-128325636D01*
X19849997Y-128345468D01*
X19850000Y-128345468D01*
X19850003Y-128345468D01*
X20076684Y-128325636D01*
X20076685Y-128325635D01*
X20076692Y-128325635D01*
X20296496Y-128266739D01*
X20502734Y-128170568D01*
X20689139Y-128040047D01*
X20850047Y-127879139D01*
X20980568Y-127692734D01*
X21076739Y-127486496D01*
X21135635Y-127266692D01*
X21141809Y-127196129D01*
X21155468Y-127040003D01*
X21155468Y-127039996D01*
X21135636Y-126813315D01*
X21135635Y-126813312D01*
X21135635Y-126813308D01*
X21076739Y-126593504D01*
X21005843Y-126441467D01*
X20980573Y-126387276D01*
X20980571Y-126387272D01*
X20980568Y-126387266D01*
X20911844Y-126289117D01*
X20850053Y-126200869D01*
X20850052Y-126200867D01*
X20850049Y-126200864D01*
X20850047Y-126200861D01*
X20689139Y-126039953D01*
X20689135Y-126039950D01*
X20689132Y-126039947D01*
X20689130Y-126039946D01*
X20518188Y-125920253D01*
X28709500Y-125920253D01*
X28709500Y-128159746D01*
X28709501Y-128159758D01*
X28721132Y-128218227D01*
X28721134Y-128218233D01*
X28765445Y-128284548D01*
X28765448Y-128284552D01*
X28831769Y-128328867D01*
X28876231Y-128337711D01*
X28890241Y-128340498D01*
X28890246Y-128340498D01*
X28890252Y-128340500D01*
X28890253Y-128340500D01*
X31129747Y-128340500D01*
X31129748Y-128340500D01*
X31188231Y-128328867D01*
X31254552Y-128284552D01*
X31298867Y-128218231D01*
X31310500Y-128159748D01*
X31310500Y-126999996D01*
X32734659Y-126999996D01*
X32734659Y-127000003D01*
X32753974Y-127196126D01*
X32753975Y-127196129D01*
X32811187Y-127384730D01*
X32811188Y-127384732D01*
X32865583Y-127486496D01*
X32904090Y-127558538D01*
X32904092Y-127558540D01*
X32904093Y-127558542D01*
X33029112Y-127710878D01*
X33029121Y-127710887D01*
X33181457Y-127835906D01*
X33181462Y-127835910D01*
X33355273Y-127928814D01*
X33543868Y-127986024D01*
X33543870Y-127986024D01*
X33543873Y-127986025D01*
X33739997Y-128005341D01*
X33740000Y-128005341D01*
X33740003Y-128005341D01*
X33936126Y-127986025D01*
X33936127Y-127986024D01*
X33936132Y-127986024D01*
X34124727Y-127928814D01*
X34298538Y-127835910D01*
X34450883Y-127710883D01*
X34575910Y-127558538D01*
X34668814Y-127384727D01*
X34726024Y-127196132D01*
X34741402Y-127040000D01*
X34745341Y-127000003D01*
X34745341Y-126999996D01*
X40354659Y-126999996D01*
X40354659Y-127000003D01*
X40373974Y-127196126D01*
X40373975Y-127196129D01*
X40431187Y-127384730D01*
X40431188Y-127384732D01*
X40485583Y-127486496D01*
X40524090Y-127558538D01*
X40524092Y-127558540D01*
X40524093Y-127558542D01*
X40649112Y-127710878D01*
X40649121Y-127710887D01*
X40801457Y-127835906D01*
X40801462Y-127835910D01*
X40975273Y-127928814D01*
X41163868Y-127986024D01*
X41163870Y-127986024D01*
X41163873Y-127986025D01*
X41359997Y-128005341D01*
X41360000Y-128005341D01*
X41360003Y-128005341D01*
X41556126Y-127986025D01*
X41556127Y-127986024D01*
X41556132Y-127986024D01*
X41744727Y-127928814D01*
X41918538Y-127835910D01*
X42070883Y-127710883D01*
X42195910Y-127558538D01*
X42288814Y-127384727D01*
X42346024Y-127196132D01*
X42361402Y-127040000D01*
X42365341Y-127000003D01*
X42365341Y-126999996D01*
X42346025Y-126803873D01*
X42346024Y-126803870D01*
X42346024Y-126803868D01*
X42288814Y-126615273D01*
X42195910Y-126441462D01*
X42195906Y-126441457D01*
X42070887Y-126289121D01*
X42070878Y-126289112D01*
X41918542Y-126164093D01*
X41918540Y-126164092D01*
X41918538Y-126164090D01*
X41877618Y-126142218D01*
X41744732Y-126071188D01*
X41744730Y-126071187D01*
X41556129Y-126013975D01*
X41556126Y-126013974D01*
X41360003Y-125994659D01*
X41359997Y-125994659D01*
X41163873Y-126013974D01*
X41163870Y-126013975D01*
X40975269Y-126071187D01*
X40975267Y-126071188D01*
X40801467Y-126164087D01*
X40801457Y-126164093D01*
X40649121Y-126289112D01*
X40649112Y-126289121D01*
X40524093Y-126441457D01*
X40524087Y-126441467D01*
X40431188Y-126615267D01*
X40431187Y-126615269D01*
X40373975Y-126803870D01*
X40373974Y-126803873D01*
X40354659Y-126999996D01*
X34745341Y-126999996D01*
X34726025Y-126803873D01*
X34726024Y-126803870D01*
X34726024Y-126803868D01*
X34668814Y-126615273D01*
X34575910Y-126441462D01*
X34575906Y-126441457D01*
X34450887Y-126289121D01*
X34450878Y-126289112D01*
X34298542Y-126164093D01*
X34298540Y-126164092D01*
X34298538Y-126164090D01*
X34257618Y-126142218D01*
X34124732Y-126071188D01*
X34124730Y-126071187D01*
X33936129Y-126013975D01*
X33936126Y-126013974D01*
X33740003Y-125994659D01*
X33739997Y-125994659D01*
X33543873Y-126013974D01*
X33543870Y-126013975D01*
X33355269Y-126071187D01*
X33355267Y-126071188D01*
X33181467Y-126164087D01*
X33181457Y-126164093D01*
X33029121Y-126289112D01*
X33029112Y-126289121D01*
X32904093Y-126441457D01*
X32904087Y-126441467D01*
X32811188Y-126615267D01*
X32811187Y-126615269D01*
X32753975Y-126803870D01*
X32753974Y-126803873D01*
X32734659Y-126999996D01*
X31310500Y-126999996D01*
X31310500Y-125920252D01*
X31298867Y-125861769D01*
X31254552Y-125795448D01*
X31193065Y-125754363D01*
X31188233Y-125751134D01*
X31188231Y-125751133D01*
X31188228Y-125751132D01*
X31188227Y-125751132D01*
X31129758Y-125739501D01*
X31129748Y-125739500D01*
X28890252Y-125739500D01*
X28890251Y-125739500D01*
X28890241Y-125739501D01*
X28831772Y-125751132D01*
X28831766Y-125751134D01*
X28765451Y-125795445D01*
X28765445Y-125795451D01*
X28721134Y-125861766D01*
X28721132Y-125861772D01*
X28709501Y-125920241D01*
X28709500Y-125920253D01*
X20518188Y-125920253D01*
X20502737Y-125909434D01*
X20502736Y-125909433D01*
X20502734Y-125909432D01*
X20502731Y-125909430D01*
X20502723Y-125909426D01*
X20296499Y-125813262D01*
X20296500Y-125813262D01*
X20223228Y-125793629D01*
X20076692Y-125754365D01*
X20076691Y-125754364D01*
X20076684Y-125754363D01*
X19850003Y-125734532D01*
X19849997Y-125734532D01*
X19623315Y-125754363D01*
X19403499Y-125813262D01*
X19197276Y-125909426D01*
X19197262Y-125909434D01*
X19010869Y-126039946D01*
X19010867Y-126039947D01*
X18849947Y-126200867D01*
X18849946Y-126200869D01*
X18719434Y-126387262D01*
X18719426Y-126387276D01*
X18623262Y-126593499D01*
X18564363Y-126813315D01*
X18544532Y-127039996D01*
X15500500Y-127039996D01*
X15500500Y-122668147D01*
X27786116Y-122668147D01*
X27817519Y-122690135D01*
X28023676Y-122786266D01*
X28243402Y-122845142D01*
X28469997Y-122864966D01*
X28470003Y-122864966D01*
X28696597Y-122845142D01*
X28916323Y-122786266D01*
X29122483Y-122690133D01*
X29122486Y-122690132D01*
X29153883Y-122668147D01*
X28470000Y-121984264D01*
X27786116Y-122668147D01*
X15500500Y-122668147D01*
X15500500Y-121559996D01*
X27165034Y-121559996D01*
X27165034Y-121560003D01*
X27184857Y-121786597D01*
X27243734Y-122006328D01*
X27339861Y-122212474D01*
X27339871Y-122212490D01*
X27361851Y-122243882D01*
X28045734Y-121559999D01*
X27361851Y-120876116D01*
X27339871Y-120907509D01*
X27339860Y-120907526D01*
X27243734Y-121113671D01*
X27184857Y-121333402D01*
X27165034Y-121559996D01*
X15500500Y-121559996D01*
X15500500Y-110079996D01*
X16374417Y-110079996D01*
X16374417Y-110080003D01*
X16394698Y-110285929D01*
X16394699Y-110285934D01*
X16454768Y-110483954D01*
X16552316Y-110666452D01*
X16683585Y-110826404D01*
X16683590Y-110826410D01*
X16683595Y-110826414D01*
X16843547Y-110957683D01*
X16843548Y-110957683D01*
X16843550Y-110957685D01*
X17026046Y-111055232D01*
X17163997Y-111097078D01*
X17224065Y-111115300D01*
X17224070Y-111115301D01*
X17429997Y-111135583D01*
X17430000Y-111135583D01*
X17430003Y-111135583D01*
X17635929Y-111115301D01*
X17635934Y-111115300D01*
X17833954Y-111055232D01*
X18016450Y-110957685D01*
X18176410Y-110826410D01*
X18266451Y-110716695D01*
X18317982Y-110683708D01*
X18342979Y-110680500D01*
X19200257Y-110680500D01*
X19258448Y-110699407D01*
X19270261Y-110709496D01*
X28656618Y-120095853D01*
X28684395Y-120150370D01*
X28674824Y-120210802D01*
X28631559Y-120254067D01*
X28577987Y-120264480D01*
X28470005Y-120255034D01*
X28469997Y-120255034D01*
X28243402Y-120274857D01*
X28023671Y-120333734D01*
X27817526Y-120429860D01*
X27817509Y-120429871D01*
X27786116Y-120451851D01*
X28470000Y-121135736D01*
X28494264Y-121160000D01*
X28417339Y-121160000D01*
X28315606Y-121187259D01*
X28224394Y-121239920D01*
X28149920Y-121314394D01*
X28097259Y-121405606D01*
X28070000Y-121507339D01*
X28070000Y-121612661D01*
X28097259Y-121714394D01*
X28149920Y-121805606D01*
X28224394Y-121880080D01*
X28315606Y-121932741D01*
X28417339Y-121960000D01*
X28522661Y-121960000D01*
X28624394Y-121932741D01*
X28715606Y-121880080D01*
X28790080Y-121805606D01*
X28842741Y-121714394D01*
X28870000Y-121612661D01*
X28870000Y-121535736D01*
X29578147Y-122243883D01*
X29600132Y-122212486D01*
X29600133Y-122212483D01*
X29696266Y-122006323D01*
X29755142Y-121786597D01*
X29771877Y-121595312D01*
X29795784Y-121538990D01*
X29848230Y-121507477D01*
X29909182Y-121512810D01*
X29955359Y-121552951D01*
X29969500Y-121603940D01*
X29969500Y-122379746D01*
X29969501Y-122379758D01*
X29981132Y-122438227D01*
X29981133Y-122438231D01*
X30025448Y-122504552D01*
X30091769Y-122548867D01*
X30136231Y-122557711D01*
X30150241Y-122560498D01*
X30150246Y-122560498D01*
X30150252Y-122560500D01*
X30150253Y-122560500D01*
X31789747Y-122560500D01*
X31789748Y-122560500D01*
X31848231Y-122548867D01*
X31914552Y-122504552D01*
X31958867Y-122438231D01*
X31970500Y-122379748D01*
X31970500Y-120740252D01*
X31958867Y-120681769D01*
X31914552Y-120615448D01*
X31914548Y-120615445D01*
X31848233Y-120571134D01*
X31848231Y-120571133D01*
X31848228Y-120571132D01*
X31848227Y-120571132D01*
X31789758Y-120559501D01*
X31789748Y-120559500D01*
X31789747Y-120559500D01*
X30859744Y-120559500D01*
X30801553Y-120540593D01*
X30789740Y-120530504D01*
X20339231Y-110079996D01*
X41514417Y-110079996D01*
X41514417Y-110080003D01*
X41534698Y-110285929D01*
X41534699Y-110285934D01*
X41594768Y-110483954D01*
X41692316Y-110666452D01*
X41823585Y-110826404D01*
X41823590Y-110826410D01*
X41823595Y-110826414D01*
X41983547Y-110957683D01*
X41983548Y-110957683D01*
X41983550Y-110957685D01*
X42166046Y-111055232D01*
X42303997Y-111097078D01*
X42364065Y-111115300D01*
X42364070Y-111115301D01*
X42569997Y-111135583D01*
X42570000Y-111135583D01*
X42570003Y-111135583D01*
X42775929Y-111115301D01*
X42775934Y-111115300D01*
X42973954Y-111055232D01*
X43156450Y-110957685D01*
X43316410Y-110826410D01*
X43447685Y-110666450D01*
X43545232Y-110483954D01*
X43605300Y-110285934D01*
X43605301Y-110285929D01*
X43625583Y-110080003D01*
X43625583Y-110079996D01*
X43605301Y-109874070D01*
X43605300Y-109874065D01*
X43587078Y-109813997D01*
X43545232Y-109676046D01*
X43447685Y-109493550D01*
X43406450Y-109443305D01*
X43316414Y-109333595D01*
X43316410Y-109333590D01*
X43316404Y-109333585D01*
X43156452Y-109202316D01*
X42973954Y-109104768D01*
X42775934Y-109044699D01*
X42775929Y-109044698D01*
X42570003Y-109024417D01*
X42569997Y-109024417D01*
X42364070Y-109044698D01*
X42364065Y-109044699D01*
X42166045Y-109104768D01*
X41983547Y-109202316D01*
X41823595Y-109333585D01*
X41823585Y-109333595D01*
X41692316Y-109493547D01*
X41594768Y-109676045D01*
X41534699Y-109874065D01*
X41534698Y-109874070D01*
X41514417Y-110079996D01*
X20339231Y-110079996D01*
X19970521Y-109711286D01*
X19970520Y-109711284D01*
X19858716Y-109599480D01*
X19771904Y-109549360D01*
X19771903Y-109549359D01*
X19721788Y-109520425D01*
X19721785Y-109520423D01*
X19569057Y-109479499D01*
X19410943Y-109479499D01*
X19404880Y-109479499D01*
X19404864Y-109479500D01*
X18342979Y-109479500D01*
X18284788Y-109460593D01*
X18266451Y-109443305D01*
X18176412Y-109333592D01*
X18176403Y-109333585D01*
X18119042Y-109286509D01*
X18016452Y-109202316D01*
X17833954Y-109104768D01*
X17635934Y-109044699D01*
X17635929Y-109044698D01*
X17430003Y-109024417D01*
X17429997Y-109024417D01*
X17224070Y-109044698D01*
X17224065Y-109044699D01*
X17026045Y-109104768D01*
X16843547Y-109202316D01*
X16683595Y-109333585D01*
X16683585Y-109333595D01*
X16552316Y-109493547D01*
X16454768Y-109676045D01*
X16394699Y-109874065D01*
X16394698Y-109874070D01*
X16374417Y-110079996D01*
X15500500Y-110079996D01*
X15500500Y-105897824D01*
X16079999Y-105897824D01*
X16086401Y-105957370D01*
X16086403Y-105957381D01*
X16136646Y-106092088D01*
X16136647Y-106092090D01*
X16222807Y-106207184D01*
X16222815Y-106207192D01*
X16337909Y-106293352D01*
X16337911Y-106293353D01*
X16472618Y-106343596D01*
X16472629Y-106343598D01*
X16532176Y-106350000D01*
X17066639Y-106350000D01*
X17124830Y-106368907D01*
X17160794Y-106418407D01*
X17160794Y-106479593D01*
X17124830Y-106529093D01*
X17095377Y-106543737D01*
X17026045Y-106564768D01*
X16843547Y-106662316D01*
X16683595Y-106793585D01*
X16683585Y-106793595D01*
X16552316Y-106953547D01*
X16454768Y-107136045D01*
X16394699Y-107334065D01*
X16394698Y-107334070D01*
X16374417Y-107539996D01*
X16374417Y-107540003D01*
X16394698Y-107745929D01*
X16394699Y-107745934D01*
X16454768Y-107943954D01*
X16552316Y-108126452D01*
X16683585Y-108286404D01*
X16683590Y-108286410D01*
X16683595Y-108286414D01*
X16843547Y-108417683D01*
X16843548Y-108417683D01*
X16843550Y-108417685D01*
X17026046Y-108515232D01*
X17163997Y-108557078D01*
X17224065Y-108575300D01*
X17224070Y-108575301D01*
X17429997Y-108595583D01*
X17430000Y-108595583D01*
X17430003Y-108595583D01*
X17635929Y-108575301D01*
X17635934Y-108575300D01*
X17833954Y-108515232D01*
X18016450Y-108417685D01*
X18176410Y-108286410D01*
X18307685Y-108126450D01*
X18405232Y-107943954D01*
X18465300Y-107745934D01*
X18465301Y-107745929D01*
X18485583Y-107540003D01*
X18485583Y-107539996D01*
X18465301Y-107334070D01*
X18465300Y-107334065D01*
X18447078Y-107273997D01*
X18405232Y-107136046D01*
X18307685Y-106953550D01*
X18176410Y-106793590D01*
X18176404Y-106793585D01*
X18016452Y-106662316D01*
X17833954Y-106564768D01*
X17764623Y-106543737D01*
X17714426Y-106508752D01*
X17694380Y-106450944D01*
X17712141Y-106392393D01*
X17760925Y-106355464D01*
X17793361Y-106350000D01*
X18327824Y-106350000D01*
X18387370Y-106343598D01*
X18387381Y-106343596D01*
X18522088Y-106293353D01*
X18522090Y-106293352D01*
X18637184Y-106207192D01*
X18637192Y-106207184D01*
X18723352Y-106092090D01*
X18723353Y-106092088D01*
X18773596Y-105957381D01*
X18773598Y-105957370D01*
X18780000Y-105897824D01*
X41219999Y-105897824D01*
X41226401Y-105957370D01*
X41226403Y-105957381D01*
X41276646Y-106092088D01*
X41276647Y-106092090D01*
X41362807Y-106207184D01*
X41362815Y-106207192D01*
X41477909Y-106293352D01*
X41477911Y-106293353D01*
X41612618Y-106343596D01*
X41612629Y-106343598D01*
X41672176Y-106350000D01*
X42206639Y-106350000D01*
X42264830Y-106368907D01*
X42300794Y-106418407D01*
X42300794Y-106479593D01*
X42264830Y-106529093D01*
X42235377Y-106543737D01*
X42166045Y-106564768D01*
X41983547Y-106662316D01*
X41823595Y-106793585D01*
X41823585Y-106793595D01*
X41692316Y-106953547D01*
X41594768Y-107136045D01*
X41534699Y-107334065D01*
X41534698Y-107334070D01*
X41514417Y-107539996D01*
X41514417Y-107540003D01*
X41534698Y-107745929D01*
X41534699Y-107745934D01*
X41594768Y-107943954D01*
X41692316Y-108126452D01*
X41823585Y-108286404D01*
X41823590Y-108286410D01*
X41823595Y-108286414D01*
X41983547Y-108417683D01*
X41983548Y-108417683D01*
X41983550Y-108417685D01*
X42166046Y-108515232D01*
X42303997Y-108557078D01*
X42364065Y-108575300D01*
X42364070Y-108575301D01*
X42569997Y-108595583D01*
X42570000Y-108595583D01*
X42570003Y-108595583D01*
X42775929Y-108575301D01*
X42775934Y-108575300D01*
X42973954Y-108515232D01*
X43156450Y-108417685D01*
X43316410Y-108286410D01*
X43447685Y-108126450D01*
X43545232Y-107943954D01*
X43605300Y-107745934D01*
X43605301Y-107745929D01*
X43625583Y-107540003D01*
X43625583Y-107539996D01*
X43605301Y-107334070D01*
X43605300Y-107334065D01*
X43587078Y-107273997D01*
X43545232Y-107136046D01*
X43447685Y-106953550D01*
X43316410Y-106793590D01*
X43316404Y-106793585D01*
X43156452Y-106662316D01*
X42973954Y-106564768D01*
X42904623Y-106543737D01*
X42854426Y-106508752D01*
X42834380Y-106450944D01*
X42852141Y-106392393D01*
X42900925Y-106355464D01*
X42933361Y-106350000D01*
X43467824Y-106350000D01*
X43527370Y-106343598D01*
X43527381Y-106343596D01*
X43662088Y-106293353D01*
X43662090Y-106293352D01*
X43777184Y-106207192D01*
X43777192Y-106207184D01*
X43863352Y-106092090D01*
X43863353Y-106092088D01*
X43913596Y-105957381D01*
X43913598Y-105957370D01*
X43920000Y-105897824D01*
X43920000Y-105300001D01*
X43919999Y-105300000D01*
X42974144Y-105300000D01*
X43035925Y-105192993D01*
X43070000Y-105065826D01*
X43070000Y-104934174D01*
X43035925Y-104807007D01*
X42974144Y-104700000D01*
X43919999Y-104700000D01*
X43920000Y-104699999D01*
X43920000Y-104102175D01*
X43913598Y-104042629D01*
X43913596Y-104042618D01*
X43863353Y-103907911D01*
X43863352Y-103907909D01*
X43777192Y-103792815D01*
X43777184Y-103792807D01*
X43662090Y-103706647D01*
X43662088Y-103706646D01*
X43527381Y-103656403D01*
X43527370Y-103656401D01*
X43467824Y-103650000D01*
X42870001Y-103650000D01*
X42870000Y-103650001D01*
X42870000Y-104595855D01*
X42762993Y-104534075D01*
X42635826Y-104500000D01*
X42504174Y-104500000D01*
X42377007Y-104534075D01*
X42270000Y-104595855D01*
X42270000Y-103650001D01*
X42269999Y-103650000D01*
X41672176Y-103650000D01*
X41612629Y-103656401D01*
X41612618Y-103656403D01*
X41477911Y-103706646D01*
X41477909Y-103706647D01*
X41362815Y-103792807D01*
X41362807Y-103792815D01*
X41276647Y-103907909D01*
X41276646Y-103907911D01*
X41226403Y-104042618D01*
X41226401Y-104042629D01*
X41220000Y-104102175D01*
X41220000Y-104699999D01*
X41220001Y-104700000D01*
X42165856Y-104700000D01*
X42104075Y-104807007D01*
X42070000Y-104934174D01*
X42070000Y-105065826D01*
X42104075Y-105192993D01*
X42165856Y-105300000D01*
X41220001Y-105300000D01*
X41220000Y-105300001D01*
X41220000Y-105897824D01*
X41219999Y-105897824D01*
X18780000Y-105897824D01*
X18780000Y-105300001D01*
X18779999Y-105300000D01*
X17834144Y-105300000D01*
X17895925Y-105192993D01*
X17930000Y-105065826D01*
X17930000Y-104934174D01*
X17895925Y-104807007D01*
X17834144Y-104700000D01*
X18779999Y-104700000D01*
X18780000Y-104699999D01*
X18780000Y-104102175D01*
X18773598Y-104042629D01*
X18773596Y-104042618D01*
X18723353Y-103907911D01*
X18723352Y-103907909D01*
X18637192Y-103792815D01*
X18637184Y-103792807D01*
X18522090Y-103706647D01*
X18522088Y-103706646D01*
X18387381Y-103656403D01*
X18387370Y-103656401D01*
X18327824Y-103650000D01*
X17730001Y-103650000D01*
X17730000Y-103650001D01*
X17730000Y-104595855D01*
X17622993Y-104534075D01*
X17495826Y-104500000D01*
X17364174Y-104500000D01*
X17237007Y-104534075D01*
X17130000Y-104595855D01*
X17130000Y-103650001D01*
X17129999Y-103650000D01*
X16532176Y-103650000D01*
X16472629Y-103656401D01*
X16472618Y-103656403D01*
X16337911Y-103706646D01*
X16337909Y-103706647D01*
X16222815Y-103792807D01*
X16222807Y-103792815D01*
X16136647Y-103907909D01*
X16136646Y-103907911D01*
X16086403Y-104042618D01*
X16086401Y-104042629D01*
X16080000Y-104102175D01*
X16080000Y-104699999D01*
X16080001Y-104700000D01*
X17025856Y-104700000D01*
X16964075Y-104807007D01*
X16930000Y-104934174D01*
X16930000Y-105065826D01*
X16964075Y-105192993D01*
X17025856Y-105300000D01*
X16080001Y-105300000D01*
X16080000Y-105300001D01*
X16080000Y-105897824D01*
X16079999Y-105897824D01*
X15500500Y-105897824D01*
X15500500Y-100259996D01*
X17704417Y-100259996D01*
X17704417Y-100260003D01*
X17724698Y-100465929D01*
X17724699Y-100465934D01*
X17784768Y-100663954D01*
X17882316Y-100846452D01*
X18013585Y-101006404D01*
X18013590Y-101006410D01*
X18013595Y-101006414D01*
X18173547Y-101137683D01*
X18173548Y-101137683D01*
X18173550Y-101137685D01*
X18356046Y-101235232D01*
X18493997Y-101277078D01*
X18554065Y-101295300D01*
X18554070Y-101295301D01*
X18759997Y-101315583D01*
X18760000Y-101315583D01*
X18760003Y-101315583D01*
X18965929Y-101295301D01*
X18965934Y-101295300D01*
X19163954Y-101235232D01*
X19346450Y-101137685D01*
X19506410Y-101006410D01*
X19637685Y-100846450D01*
X19735232Y-100663954D01*
X19795300Y-100465934D01*
X19795301Y-100465929D01*
X19815583Y-100260003D01*
X19815583Y-100259996D01*
X19795301Y-100054070D01*
X19795300Y-100054065D01*
X19762576Y-99946189D01*
X19735232Y-99856046D01*
X19637685Y-99673550D01*
X19580981Y-99604456D01*
X19506414Y-99513595D01*
X19506410Y-99513590D01*
X19490167Y-99500260D01*
X19346452Y-99382316D01*
X19163954Y-99284768D01*
X18965934Y-99224699D01*
X18965929Y-99224698D01*
X18760003Y-99204417D01*
X18759997Y-99204417D01*
X18554070Y-99224698D01*
X18554065Y-99224699D01*
X18356045Y-99284768D01*
X18173547Y-99382316D01*
X18013595Y-99513585D01*
X18013585Y-99513595D01*
X17882316Y-99673547D01*
X17784768Y-99856045D01*
X17724699Y-100054065D01*
X17724698Y-100054070D01*
X17704417Y-100259996D01*
X15500500Y-100259996D01*
X15500500Y-76411147D01*
X17259500Y-76411147D01*
X17259500Y-81262147D01*
X17259500Y-81347853D01*
X17261496Y-81355301D01*
X17281683Y-81430643D01*
X17324531Y-81504857D01*
X17324535Y-81504862D01*
X17771497Y-81951825D01*
X17799274Y-82006341D01*
X17789703Y-82066773D01*
X17788803Y-82068496D01*
X17784770Y-82076040D01*
X17784768Y-82076045D01*
X17724699Y-82274065D01*
X17724698Y-82274070D01*
X17704417Y-82479996D01*
X17704417Y-82480003D01*
X17724698Y-82685929D01*
X17724699Y-82685934D01*
X17784768Y-82883954D01*
X17882316Y-83066452D01*
X18013585Y-83226404D01*
X18013590Y-83226410D01*
X18013595Y-83226414D01*
X18173547Y-83357683D01*
X18173548Y-83357683D01*
X18173550Y-83357685D01*
X18356046Y-83455232D01*
X18493997Y-83497078D01*
X18554065Y-83515300D01*
X18554070Y-83515301D01*
X18759997Y-83535583D01*
X18760000Y-83535583D01*
X18760003Y-83535583D01*
X18965929Y-83515301D01*
X18965934Y-83515300D01*
X19163954Y-83455232D01*
X19346450Y-83357685D01*
X19447697Y-83274594D01*
X19504671Y-83252295D01*
X19563874Y-83267743D01*
X19602690Y-83315040D01*
X19609500Y-83351123D01*
X19609500Y-84148876D01*
X19590593Y-84207067D01*
X19541093Y-84243031D01*
X19479907Y-84243031D01*
X19447695Y-84225404D01*
X19420627Y-84203190D01*
X19346452Y-84142316D01*
X19163954Y-84044768D01*
X18965934Y-83984699D01*
X18965929Y-83984698D01*
X18760003Y-83964417D01*
X18759997Y-83964417D01*
X18554070Y-83984698D01*
X18554065Y-83984699D01*
X18356045Y-84044768D01*
X18173547Y-84142316D01*
X18013595Y-84273585D01*
X18013585Y-84273595D01*
X17882316Y-84433547D01*
X17784768Y-84616045D01*
X17724699Y-84814065D01*
X17724698Y-84814070D01*
X17704417Y-85019996D01*
X17704417Y-85020003D01*
X17724698Y-85225929D01*
X17724699Y-85225934D01*
X17784768Y-85423954D01*
X17882316Y-85606452D01*
X17910499Y-85640793D01*
X18013590Y-85766410D01*
X18013595Y-85766414D01*
X18173547Y-85897683D01*
X18173548Y-85897683D01*
X18173550Y-85897685D01*
X18356046Y-85995232D01*
X18493997Y-86037078D01*
X18554065Y-86055300D01*
X18554070Y-86055301D01*
X18759997Y-86075583D01*
X18760000Y-86075583D01*
X18760003Y-86075583D01*
X18965929Y-86055301D01*
X18965934Y-86055300D01*
X19163954Y-85995232D01*
X19346450Y-85897685D01*
X19447697Y-85814594D01*
X19504671Y-85792295D01*
X19563874Y-85807743D01*
X19602690Y-85855040D01*
X19609500Y-85891123D01*
X19609500Y-86688876D01*
X19590593Y-86747067D01*
X19541093Y-86783031D01*
X19479907Y-86783031D01*
X19447695Y-86765404D01*
X19394986Y-86722147D01*
X19346452Y-86682316D01*
X19163954Y-86584768D01*
X18965934Y-86524699D01*
X18965929Y-86524698D01*
X18760003Y-86504417D01*
X18759997Y-86504417D01*
X18554070Y-86524698D01*
X18554065Y-86524699D01*
X18356045Y-86584768D01*
X18173547Y-86682316D01*
X18013595Y-86813585D01*
X18013585Y-86813595D01*
X17882316Y-86973547D01*
X17784768Y-87156045D01*
X17724699Y-87354065D01*
X17724698Y-87354070D01*
X17704417Y-87559996D01*
X17704417Y-87560003D01*
X17724698Y-87765929D01*
X17724699Y-87765934D01*
X17784768Y-87963954D01*
X17882316Y-88146452D01*
X17910499Y-88180793D01*
X18013590Y-88306410D01*
X18013595Y-88306414D01*
X18173547Y-88437683D01*
X18173548Y-88437683D01*
X18173550Y-88437685D01*
X18356046Y-88535232D01*
X18493997Y-88577078D01*
X18554065Y-88595300D01*
X18554070Y-88595301D01*
X18759997Y-88615583D01*
X18760000Y-88615583D01*
X18760003Y-88615583D01*
X18965929Y-88595301D01*
X18965934Y-88595300D01*
X19163954Y-88535232D01*
X19346450Y-88437685D01*
X19447697Y-88354594D01*
X19504671Y-88332295D01*
X19563874Y-88347743D01*
X19602690Y-88395040D01*
X19609500Y-88431123D01*
X19609500Y-89228876D01*
X19590593Y-89287067D01*
X19541093Y-89323031D01*
X19479907Y-89323031D01*
X19447695Y-89305404D01*
X19420627Y-89283190D01*
X19346452Y-89222316D01*
X19163954Y-89124768D01*
X18965934Y-89064699D01*
X18965929Y-89064698D01*
X18760003Y-89044417D01*
X18759997Y-89044417D01*
X18554070Y-89064698D01*
X18554065Y-89064699D01*
X18356045Y-89124768D01*
X18173547Y-89222316D01*
X18013595Y-89353585D01*
X18013585Y-89353595D01*
X17882316Y-89513547D01*
X17784768Y-89696045D01*
X17724699Y-89894065D01*
X17724698Y-89894070D01*
X17704417Y-90099996D01*
X17704417Y-90100003D01*
X17724698Y-90305929D01*
X17724699Y-90305934D01*
X17784768Y-90503954D01*
X17882316Y-90686452D01*
X17910499Y-90720793D01*
X18013590Y-90846410D01*
X18013595Y-90846414D01*
X18173547Y-90977683D01*
X18173548Y-90977683D01*
X18173550Y-90977685D01*
X18356046Y-91075232D01*
X18493997Y-91117078D01*
X18554065Y-91135300D01*
X18554070Y-91135301D01*
X18759997Y-91155583D01*
X18760000Y-91155583D01*
X18760003Y-91155583D01*
X18965929Y-91135301D01*
X18965934Y-91135300D01*
X19163954Y-91075232D01*
X19346450Y-90977685D01*
X19447697Y-90894594D01*
X19504671Y-90872295D01*
X19563874Y-90887743D01*
X19602690Y-90935040D01*
X19609500Y-90971123D01*
X19609500Y-91768876D01*
X19590593Y-91827067D01*
X19541093Y-91863031D01*
X19479907Y-91863031D01*
X19447695Y-91845404D01*
X19420627Y-91823190D01*
X19346452Y-91762316D01*
X19163954Y-91664768D01*
X18965934Y-91604699D01*
X18965929Y-91604698D01*
X18760003Y-91584417D01*
X18759997Y-91584417D01*
X18554070Y-91604698D01*
X18554065Y-91604699D01*
X18356045Y-91664768D01*
X18173547Y-91762316D01*
X18013595Y-91893585D01*
X18013585Y-91893595D01*
X17882316Y-92053547D01*
X17784768Y-92236045D01*
X17724699Y-92434065D01*
X17724698Y-92434070D01*
X17704417Y-92639996D01*
X17704417Y-92640003D01*
X17724698Y-92845929D01*
X17724699Y-92845934D01*
X17784768Y-93043954D01*
X17882316Y-93226452D01*
X18013585Y-93386404D01*
X18013590Y-93386410D01*
X18013595Y-93386414D01*
X18173547Y-93517683D01*
X18173548Y-93517683D01*
X18173550Y-93517685D01*
X18356046Y-93615232D01*
X18493997Y-93657078D01*
X18554065Y-93675300D01*
X18554070Y-93675301D01*
X18759997Y-93695583D01*
X18760000Y-93695583D01*
X18760003Y-93695583D01*
X18965929Y-93675301D01*
X18965934Y-93675300D01*
X19163954Y-93615232D01*
X19346450Y-93517685D01*
X19447697Y-93434594D01*
X19504671Y-93412295D01*
X19563874Y-93427743D01*
X19602690Y-93475040D01*
X19609500Y-93511123D01*
X19609500Y-93829165D01*
X19590593Y-93887356D01*
X19580504Y-93899168D01*
X19288174Y-94191497D01*
X19233659Y-94219274D01*
X19173227Y-94209703D01*
X19171504Y-94208803D01*
X19163959Y-94204770D01*
X19163954Y-94204768D01*
X18965934Y-94144699D01*
X18965929Y-94144698D01*
X18760003Y-94124417D01*
X18759997Y-94124417D01*
X18554070Y-94144698D01*
X18554065Y-94144699D01*
X18356045Y-94204768D01*
X18173547Y-94302316D01*
X18013595Y-94433585D01*
X18013585Y-94433595D01*
X17882316Y-94593547D01*
X17784768Y-94776045D01*
X17724699Y-94974065D01*
X17724698Y-94974070D01*
X17704417Y-95179996D01*
X17704417Y-95180003D01*
X17724698Y-95385929D01*
X17724699Y-95385934D01*
X17784768Y-95583954D01*
X17882316Y-95766452D01*
X18007643Y-95919164D01*
X18013590Y-95926410D01*
X18013595Y-95926414D01*
X18173547Y-96057683D01*
X18173548Y-96057683D01*
X18173550Y-96057685D01*
X18356046Y-96155232D01*
X18493997Y-96197078D01*
X18554065Y-96215300D01*
X18554070Y-96215301D01*
X18759997Y-96235583D01*
X18760000Y-96235583D01*
X18760003Y-96235583D01*
X18965929Y-96215301D01*
X18965934Y-96215300D01*
X19163954Y-96155232D01*
X19346450Y-96057685D01*
X19506410Y-95926410D01*
X19637685Y-95766450D01*
X19735232Y-95583954D01*
X19795300Y-95385934D01*
X19795301Y-95385929D01*
X19815583Y-95180003D01*
X19815583Y-95179996D01*
X19795301Y-94974070D01*
X19795300Y-94974065D01*
X19777078Y-94913997D01*
X19735232Y-94776046D01*
X19731195Y-94768493D01*
X19720440Y-94708261D01*
X19747142Y-94653210D01*
X19748445Y-94651880D01*
X19890498Y-94509828D01*
X19945013Y-94482052D01*
X20005445Y-94491624D01*
X20048710Y-94534888D01*
X20059500Y-94579833D01*
X20059500Y-95919164D01*
X20040593Y-95977355D01*
X20030504Y-95989168D01*
X19288175Y-96731496D01*
X19233658Y-96759273D01*
X19173226Y-96749702D01*
X19171506Y-96748804D01*
X19163957Y-96744769D01*
X19163954Y-96744768D01*
X18965934Y-96684699D01*
X18965929Y-96684698D01*
X18760003Y-96664417D01*
X18759997Y-96664417D01*
X18554070Y-96684698D01*
X18554065Y-96684699D01*
X18356045Y-96744768D01*
X18173547Y-96842316D01*
X18013595Y-96973585D01*
X18013585Y-96973595D01*
X17882316Y-97133547D01*
X17784768Y-97316045D01*
X17724699Y-97514065D01*
X17724698Y-97514070D01*
X17704417Y-97719996D01*
X17704417Y-97720003D01*
X17724698Y-97925929D01*
X17724699Y-97925934D01*
X17784768Y-98123954D01*
X17882316Y-98306452D01*
X18013585Y-98466404D01*
X18013590Y-98466410D01*
X18013595Y-98466414D01*
X18173547Y-98597683D01*
X18173548Y-98597683D01*
X18173550Y-98597685D01*
X18356046Y-98695232D01*
X18493997Y-98737078D01*
X18554065Y-98755300D01*
X18554070Y-98755301D01*
X18759997Y-98775583D01*
X18760000Y-98775583D01*
X18760003Y-98775583D01*
X18965929Y-98755301D01*
X18965934Y-98755300D01*
X19163954Y-98695232D01*
X19346450Y-98597685D01*
X19506410Y-98466410D01*
X19637685Y-98306450D01*
X19735232Y-98123954D01*
X19795300Y-97925934D01*
X19795301Y-97925929D01*
X19815583Y-97720003D01*
X19815583Y-97719996D01*
X19795301Y-97514070D01*
X19795300Y-97514065D01*
X19781319Y-97467977D01*
X19735232Y-97316046D01*
X19731196Y-97308496D01*
X19720439Y-97248265D01*
X19747140Y-97193213D01*
X19748450Y-97191875D01*
X20645465Y-96294862D01*
X20688318Y-96220639D01*
X20710500Y-96137853D01*
X20710500Y-96052147D01*
X20710500Y-92720000D01*
X21192762Y-92720000D01*
X22105856Y-92720000D01*
X22044075Y-92827007D01*
X22010000Y-92954174D01*
X22010000Y-93085826D01*
X22044075Y-93212993D01*
X22105856Y-93320000D01*
X21192762Y-93320000D01*
X21236569Y-93483489D01*
X21336399Y-93697577D01*
X21471886Y-93891073D01*
X21638926Y-94058113D01*
X21832422Y-94193600D01*
X22046510Y-94293430D01*
X22210000Y-94337238D01*
X22210000Y-93424144D01*
X22317007Y-93485925D01*
X22444174Y-93520000D01*
X22575826Y-93520000D01*
X22702993Y-93485925D01*
X22810000Y-93424144D01*
X22810000Y-94337237D01*
X22973489Y-94293430D01*
X23187577Y-94193600D01*
X23381073Y-94058113D01*
X23548113Y-93891073D01*
X23683600Y-93697577D01*
X23783430Y-93483489D01*
X23827238Y-93320000D01*
X22914144Y-93320000D01*
X22975925Y-93212993D01*
X23010000Y-93085826D01*
X23010000Y-92954174D01*
X22975925Y-92827007D01*
X22914144Y-92720000D01*
X23827238Y-92720000D01*
X23783429Y-92556505D01*
X23683605Y-92342432D01*
X23683601Y-92342424D01*
X23548113Y-92148926D01*
X23381073Y-91981886D01*
X23187577Y-91846399D01*
X22973489Y-91746569D01*
X22766786Y-91691183D01*
X22715472Y-91657859D01*
X22693545Y-91600737D01*
X22709381Y-91541637D01*
X22756931Y-91503132D01*
X22763663Y-91500821D01*
X22913954Y-91455232D01*
X23096450Y-91357685D01*
X23256410Y-91226410D01*
X23387685Y-91066450D01*
X23405656Y-91032830D01*
X23449762Y-90990424D01*
X23492965Y-90980500D01*
X29147035Y-90980500D01*
X29205226Y-90999407D01*
X29234344Y-91032830D01*
X29252315Y-91066450D01*
X29383590Y-91226410D01*
X29383595Y-91226414D01*
X29543547Y-91357683D01*
X29543548Y-91357683D01*
X29543550Y-91357685D01*
X29726046Y-91455232D01*
X29876328Y-91500819D01*
X29926525Y-91535804D01*
X29946571Y-91593612D01*
X29928810Y-91652163D01*
X29880026Y-91689092D01*
X29873213Y-91691183D01*
X29666505Y-91746570D01*
X29452432Y-91846394D01*
X29452424Y-91846398D01*
X29258926Y-91981886D01*
X29091886Y-92148926D01*
X28956398Y-92342424D01*
X28956394Y-92342432D01*
X28856570Y-92556505D01*
X28812762Y-92720000D01*
X29725856Y-92720000D01*
X29664075Y-92827007D01*
X29630000Y-92954174D01*
X29630000Y-93085826D01*
X29664075Y-93212993D01*
X29725856Y-93320000D01*
X28812762Y-93320000D01*
X28856569Y-93483489D01*
X28956399Y-93697577D01*
X29091886Y-93891073D01*
X29258926Y-94058113D01*
X29452422Y-94193600D01*
X29666510Y-94293430D01*
X29830000Y-94337238D01*
X29830000Y-93424144D01*
X29937007Y-93485925D01*
X30064174Y-93520000D01*
X30195826Y-93520000D01*
X30322993Y-93485925D01*
X30430000Y-93424144D01*
X30430000Y-94337237D01*
X30593489Y-94293430D01*
X30807577Y-94193600D01*
X31001073Y-94058113D01*
X31168113Y-93891073D01*
X31303600Y-93697577D01*
X31403430Y-93483489D01*
X31447238Y-93320000D01*
X30534144Y-93320000D01*
X30595925Y-93212993D01*
X30630000Y-93085826D01*
X30630000Y-92954174D01*
X30595925Y-92827007D01*
X30534144Y-92720000D01*
X31447238Y-92720000D01*
X31403429Y-92556505D01*
X31303605Y-92342432D01*
X31303601Y-92342424D01*
X31168113Y-92148926D01*
X31001073Y-91981886D01*
X30807577Y-91846399D01*
X30593489Y-91746569D01*
X30386786Y-91691183D01*
X30335472Y-91657859D01*
X30313545Y-91600737D01*
X30329381Y-91541637D01*
X30376931Y-91503132D01*
X30383663Y-91500821D01*
X30533954Y-91455232D01*
X30716450Y-91357685D01*
X30876410Y-91226410D01*
X31007685Y-91066450D01*
X31105232Y-90883954D01*
X31165300Y-90685934D01*
X31165301Y-90685929D01*
X31185583Y-90480003D01*
X31185583Y-90479996D01*
X31165301Y-90274070D01*
X31165300Y-90274065D01*
X31112498Y-90100000D01*
X31105232Y-90076046D01*
X31007685Y-89893550D01*
X30876410Y-89733590D01*
X30876404Y-89733585D01*
X30716452Y-89602316D01*
X30533954Y-89504768D01*
X30335934Y-89444699D01*
X30335929Y-89444698D01*
X30130003Y-89424417D01*
X30129997Y-89424417D01*
X29924070Y-89444698D01*
X29924065Y-89444699D01*
X29726045Y-89504768D01*
X29543547Y-89602316D01*
X29383595Y-89733585D01*
X29383585Y-89733595D01*
X29252313Y-89893552D01*
X29252313Y-89893553D01*
X29234344Y-89927170D01*
X29190238Y-89969576D01*
X29147035Y-89979500D01*
X23492965Y-89979500D01*
X23434774Y-89960593D01*
X23405656Y-89927170D01*
X23398126Y-89913084D01*
X23387685Y-89893550D01*
X23256410Y-89733590D01*
X23256404Y-89733585D01*
X23096452Y-89602316D01*
X22913954Y-89504768D01*
X22715934Y-89444699D01*
X22715929Y-89444698D01*
X22510003Y-89424417D01*
X22509997Y-89424417D01*
X22304070Y-89444698D01*
X22304065Y-89444699D01*
X22106045Y-89504768D01*
X21923547Y-89602316D01*
X21763595Y-89733585D01*
X21763585Y-89733595D01*
X21632316Y-89893547D01*
X21534768Y-90076045D01*
X21474699Y-90274065D01*
X21474698Y-90274070D01*
X21454417Y-90479996D01*
X21454417Y-90480003D01*
X21474698Y-90685929D01*
X21474699Y-90685934D01*
X21534768Y-90883954D01*
X21632316Y-91066452D01*
X21639521Y-91075231D01*
X21763590Y-91226410D01*
X21763595Y-91226414D01*
X21923547Y-91357683D01*
X21923548Y-91357683D01*
X21923550Y-91357685D01*
X22106046Y-91455232D01*
X22256328Y-91500819D01*
X22306525Y-91535804D01*
X22326571Y-91593612D01*
X22308810Y-91652163D01*
X22260026Y-91689092D01*
X22253213Y-91691183D01*
X22046505Y-91746570D01*
X21832432Y-91846394D01*
X21832424Y-91846398D01*
X21638926Y-91981886D01*
X21471886Y-92148926D01*
X21336398Y-92342424D01*
X21336394Y-92342432D01*
X21236570Y-92556505D01*
X21192762Y-92720000D01*
X20710500Y-92720000D01*
X20710500Y-82620833D01*
X20729407Y-82562642D01*
X20739490Y-82550835D01*
X21981824Y-81308500D01*
X22036339Y-81280725D01*
X22096771Y-81290296D01*
X22098493Y-81291195D01*
X22106046Y-81295232D01*
X22214300Y-81328070D01*
X22304065Y-81355300D01*
X22304070Y-81355301D01*
X22509997Y-81375583D01*
X22510000Y-81375583D01*
X22510003Y-81375583D01*
X22715929Y-81355301D01*
X22715934Y-81355300D01*
X22913954Y-81295232D01*
X23096450Y-81197685D01*
X23197697Y-81114594D01*
X23254671Y-81092295D01*
X23313874Y-81107743D01*
X23352690Y-81155040D01*
X23359500Y-81191123D01*
X23359500Y-81509165D01*
X23340593Y-81567356D01*
X23330504Y-81579168D01*
X23038174Y-81871497D01*
X22983659Y-81899274D01*
X22923227Y-81889703D01*
X22921504Y-81888803D01*
X22913959Y-81884770D01*
X22913954Y-81884768D01*
X22715934Y-81824699D01*
X22715929Y-81824698D01*
X22510003Y-81804417D01*
X22509997Y-81804417D01*
X22304070Y-81824698D01*
X22304065Y-81824699D01*
X22106045Y-81884768D01*
X21923547Y-81982316D01*
X21763595Y-82113585D01*
X21763585Y-82113595D01*
X21632316Y-82273547D01*
X21534768Y-82456045D01*
X21474699Y-82654065D01*
X21474698Y-82654070D01*
X21454417Y-82859996D01*
X21454417Y-82860003D01*
X21474698Y-83065929D01*
X21474699Y-83065934D01*
X21534768Y-83263954D01*
X21632316Y-83446452D01*
X21688818Y-83515300D01*
X21763590Y-83606410D01*
X21763595Y-83606414D01*
X21763599Y-83606418D01*
X21908722Y-83725516D01*
X21941710Y-83777047D01*
X21938108Y-83838126D01*
X21915922Y-83872047D01*
X21074535Y-84713436D01*
X21031680Y-84787663D01*
X21031679Y-84787665D01*
X21022980Y-84820136D01*
X21022980Y-84820137D01*
X21022907Y-84820410D01*
X21009500Y-84870446D01*
X21009500Y-86722147D01*
X21009500Y-86807853D01*
X21028380Y-86878316D01*
X21031683Y-86890643D01*
X21074531Y-86964857D01*
X21074535Y-86964862D01*
X21521497Y-87411825D01*
X21549274Y-87466341D01*
X21539703Y-87526773D01*
X21538803Y-87528496D01*
X21534770Y-87536040D01*
X21534768Y-87536045D01*
X21474699Y-87734065D01*
X21474698Y-87734070D01*
X21454417Y-87939996D01*
X21454417Y-87940003D01*
X21474698Y-88145929D01*
X21474699Y-88145934D01*
X21534768Y-88343954D01*
X21632316Y-88526452D01*
X21763585Y-88686404D01*
X21763590Y-88686410D01*
X21763595Y-88686414D01*
X21923547Y-88817683D01*
X21923548Y-88817683D01*
X21923550Y-88817685D01*
X22106046Y-88915232D01*
X22243997Y-88957078D01*
X22304065Y-88975300D01*
X22304070Y-88975301D01*
X22509997Y-88995583D01*
X22510000Y-88995583D01*
X22510003Y-88995583D01*
X22715929Y-88975301D01*
X22715934Y-88975300D01*
X22738657Y-88968407D01*
X22913954Y-88915232D01*
X23096450Y-88817685D01*
X23256410Y-88686410D01*
X23387685Y-88526450D01*
X23485232Y-88343954D01*
X23545300Y-88145934D01*
X23545301Y-88145929D01*
X23565583Y-87940003D01*
X23565583Y-87939996D01*
X23545301Y-87734070D01*
X23545300Y-87734065D01*
X23492498Y-87560000D01*
X23485232Y-87536046D01*
X23387685Y-87353550D01*
X23256410Y-87193590D01*
X23256404Y-87193585D01*
X23096452Y-87062316D01*
X22913954Y-86964768D01*
X22715934Y-86904699D01*
X22715929Y-86904698D01*
X22510003Y-86884417D01*
X22509997Y-86884417D01*
X22304070Y-86904698D01*
X22304065Y-86904699D01*
X22106045Y-86964768D01*
X22106040Y-86964770D01*
X22098496Y-86968803D01*
X22038263Y-86979559D01*
X21983212Y-86952857D01*
X21981824Y-86951497D01*
X21689496Y-86659169D01*
X21661719Y-86604652D01*
X21660500Y-86589165D01*
X21660500Y-86271123D01*
X21679407Y-86212932D01*
X21728907Y-86176968D01*
X21790093Y-86176968D01*
X21822301Y-86194593D01*
X21866168Y-86230593D01*
X21923547Y-86277683D01*
X21923548Y-86277683D01*
X21923550Y-86277685D01*
X22106046Y-86375232D01*
X22243997Y-86417078D01*
X22304065Y-86435300D01*
X22304070Y-86435301D01*
X22509997Y-86455583D01*
X22510000Y-86455583D01*
X22510003Y-86455583D01*
X22715929Y-86435301D01*
X22715934Y-86435300D01*
X22913954Y-86375232D01*
X22921499Y-86371198D01*
X22981729Y-86360439D01*
X23036782Y-86387137D01*
X23038174Y-86388502D01*
X23485137Y-86835464D01*
X23485142Y-86835468D01*
X23559357Y-86878316D01*
X23559355Y-86878316D01*
X23559359Y-86878317D01*
X23559361Y-86878318D01*
X23642147Y-86900500D01*
X29464035Y-86900500D01*
X29522226Y-86919407D01*
X29558190Y-86968907D01*
X29558190Y-87030093D01*
X29526840Y-87076028D01*
X29383595Y-87193585D01*
X29383585Y-87193595D01*
X29252316Y-87353547D01*
X29154768Y-87536045D01*
X29094699Y-87734065D01*
X29094698Y-87734070D01*
X29074417Y-87939996D01*
X29074417Y-87940003D01*
X29094698Y-88145929D01*
X29094699Y-88145934D01*
X29154768Y-88343954D01*
X29252316Y-88526452D01*
X29383585Y-88686404D01*
X29383590Y-88686410D01*
X29383595Y-88686414D01*
X29543547Y-88817683D01*
X29543548Y-88817683D01*
X29543550Y-88817685D01*
X29726046Y-88915232D01*
X29863997Y-88957078D01*
X29924065Y-88975300D01*
X29924070Y-88975301D01*
X30129997Y-88995583D01*
X30130000Y-88995583D01*
X30130003Y-88995583D01*
X30335929Y-88975301D01*
X30335934Y-88975300D01*
X30358657Y-88968407D01*
X30533954Y-88915232D01*
X30716450Y-88817685D01*
X30876410Y-88686410D01*
X31007685Y-88526450D01*
X31105232Y-88343954D01*
X31165300Y-88145934D01*
X31165301Y-88145929D01*
X31185583Y-87940003D01*
X31185583Y-87939996D01*
X31165301Y-87734070D01*
X31165300Y-87734065D01*
X31112498Y-87560000D01*
X31105232Y-87536046D01*
X31007685Y-87353550D01*
X30876410Y-87193590D01*
X30830661Y-87156045D01*
X30733160Y-87076028D01*
X30700173Y-87024497D01*
X30703775Y-86963417D01*
X30742590Y-86916121D01*
X30795965Y-86900500D01*
X32487851Y-86900500D01*
X32487853Y-86900500D01*
X32570639Y-86878318D01*
X32570641Y-86878316D01*
X32570643Y-86878316D01*
X32644857Y-86835468D01*
X32644857Y-86835467D01*
X32644862Y-86835465D01*
X33471825Y-86008500D01*
X33526340Y-85980725D01*
X33586772Y-85990296D01*
X33588463Y-85991178D01*
X33596046Y-85995232D01*
X33747977Y-86041319D01*
X33794065Y-86055300D01*
X33794070Y-86055301D01*
X33999997Y-86075583D01*
X34000000Y-86075583D01*
X34000003Y-86075583D01*
X34205929Y-86055301D01*
X34205934Y-86055300D01*
X34403954Y-85995232D01*
X34586450Y-85897685D01*
X34746410Y-85766410D01*
X34877685Y-85606450D01*
X34975232Y-85423954D01*
X35035300Y-85225934D01*
X35035301Y-85225929D01*
X35055583Y-85020003D01*
X35055583Y-85019996D01*
X35035301Y-84814070D01*
X35035300Y-84814065D01*
X35004775Y-84713437D01*
X34975232Y-84616046D01*
X34877685Y-84433550D01*
X34869369Y-84423417D01*
X34746414Y-84273595D01*
X34746410Y-84273590D01*
X34594445Y-84148876D01*
X34586452Y-84142316D01*
X34458635Y-84073996D01*
X37544417Y-84073996D01*
X37544417Y-84074003D01*
X37564698Y-84279929D01*
X37564699Y-84279934D01*
X37624768Y-84477954D01*
X37722316Y-84660452D01*
X37765799Y-84713436D01*
X37853590Y-84820410D01*
X37853595Y-84820414D01*
X38013547Y-84951683D01*
X38013548Y-84951683D01*
X38013550Y-84951685D01*
X38196046Y-85049232D01*
X38333997Y-85091078D01*
X38394065Y-85109300D01*
X38394070Y-85109301D01*
X38599997Y-85129583D01*
X38600000Y-85129583D01*
X38600003Y-85129583D01*
X38805929Y-85109301D01*
X38805934Y-85109300D01*
X39003954Y-85049232D01*
X39186450Y-84951685D01*
X39346410Y-84820410D01*
X39477685Y-84660450D01*
X39575232Y-84477954D01*
X39635300Y-84279934D01*
X39635301Y-84279929D01*
X39655583Y-84074003D01*
X39655583Y-84073996D01*
X39635301Y-83868070D01*
X39635300Y-83868065D01*
X39607690Y-83777047D01*
X39575232Y-83670046D01*
X39477685Y-83487550D01*
X39451162Y-83455232D01*
X39346414Y-83327595D01*
X39346410Y-83327590D01*
X39268869Y-83263954D01*
X39186452Y-83196316D01*
X39003954Y-83098768D01*
X38805934Y-83038699D01*
X38805929Y-83038698D01*
X38600003Y-83018417D01*
X38599997Y-83018417D01*
X38394070Y-83038698D01*
X38394065Y-83038699D01*
X38196045Y-83098768D01*
X38013547Y-83196316D01*
X37853595Y-83327585D01*
X37853585Y-83327595D01*
X37722316Y-83487547D01*
X37624768Y-83670045D01*
X37564699Y-83868065D01*
X37564698Y-83868070D01*
X37544417Y-84073996D01*
X34458635Y-84073996D01*
X34403954Y-84044768D01*
X34205934Y-83984699D01*
X34205929Y-83984698D01*
X34000003Y-83964417D01*
X33999997Y-83964417D01*
X33794070Y-83984698D01*
X33794065Y-83984699D01*
X33596045Y-84044768D01*
X33413547Y-84142316D01*
X33253595Y-84273585D01*
X33253585Y-84273595D01*
X33122316Y-84433547D01*
X33024768Y-84616045D01*
X32964699Y-84814065D01*
X32964698Y-84814070D01*
X32944417Y-85019996D01*
X32944417Y-85020003D01*
X32964698Y-85225929D01*
X32964699Y-85225934D01*
X33024768Y-85423954D01*
X33024769Y-85423957D01*
X33028804Y-85431506D01*
X33039558Y-85491739D01*
X33012854Y-85546789D01*
X33011496Y-85548174D01*
X32339169Y-86220503D01*
X32284652Y-86248281D01*
X32269165Y-86249500D01*
X31001124Y-86249500D01*
X30942933Y-86230593D01*
X30906969Y-86181093D01*
X30906969Y-86119907D01*
X30924596Y-86087695D01*
X30934536Y-86075583D01*
X31007685Y-85986450D01*
X31105232Y-85803954D01*
X31165300Y-85605934D01*
X31165301Y-85605929D01*
X31185583Y-85400003D01*
X31185583Y-85399996D01*
X31165301Y-85194070D01*
X31165300Y-85194065D01*
X31139587Y-85109300D01*
X31105232Y-84996046D01*
X31007685Y-84813550D01*
X30986440Y-84787663D01*
X30876414Y-84653595D01*
X30876410Y-84653590D01*
X30830661Y-84616045D01*
X30733160Y-84536028D01*
X30700173Y-84484497D01*
X30703775Y-84423417D01*
X30742590Y-84376121D01*
X30795965Y-84360500D01*
X32487851Y-84360500D01*
X32487853Y-84360500D01*
X32570639Y-84338318D01*
X32570641Y-84338316D01*
X32570643Y-84338316D01*
X32644857Y-84295468D01*
X32644857Y-84295467D01*
X32644862Y-84295465D01*
X33471825Y-83468500D01*
X33526340Y-83440725D01*
X33586772Y-83450296D01*
X33588463Y-83451178D01*
X33596046Y-83455232D01*
X33747977Y-83501319D01*
X33794065Y-83515300D01*
X33794070Y-83515301D01*
X33999997Y-83535583D01*
X34000000Y-83535583D01*
X34000003Y-83535583D01*
X34205929Y-83515301D01*
X34205934Y-83515300D01*
X34403954Y-83455232D01*
X34586450Y-83357685D01*
X34746410Y-83226410D01*
X34877685Y-83066450D01*
X34975232Y-82883954D01*
X35035300Y-82685934D01*
X35035301Y-82685929D01*
X35055583Y-82480003D01*
X35055583Y-82479996D01*
X35035301Y-82274070D01*
X35035300Y-82274065D01*
X34988702Y-82120452D01*
X34975232Y-82076046D01*
X34877685Y-81893550D01*
X34873789Y-81888803D01*
X34746414Y-81733595D01*
X34746410Y-81733590D01*
X34746404Y-81733585D01*
X34586452Y-81602316D01*
X34403954Y-81504768D01*
X34205934Y-81444699D01*
X34205929Y-81444698D01*
X34000003Y-81424417D01*
X33999997Y-81424417D01*
X33794070Y-81444698D01*
X33794065Y-81444699D01*
X33596045Y-81504768D01*
X33413547Y-81602316D01*
X33253595Y-81733585D01*
X33253585Y-81733595D01*
X33122316Y-81893547D01*
X33024768Y-82076045D01*
X32964699Y-82274065D01*
X32964698Y-82274070D01*
X32944417Y-82479996D01*
X32944417Y-82480003D01*
X32964698Y-82685929D01*
X32964699Y-82685934D01*
X33024768Y-82883954D01*
X33024769Y-82883957D01*
X33028804Y-82891506D01*
X33039558Y-82951739D01*
X33012854Y-83006789D01*
X33011496Y-83008174D01*
X32339169Y-83680503D01*
X32284652Y-83708281D01*
X32269165Y-83709500D01*
X31001124Y-83709500D01*
X30942933Y-83690593D01*
X30906969Y-83641093D01*
X30906969Y-83579907D01*
X30924596Y-83547695D01*
X30934536Y-83535583D01*
X31007685Y-83446450D01*
X31105232Y-83263954D01*
X31165300Y-83065934D01*
X31165301Y-83065929D01*
X31185583Y-82860003D01*
X31185583Y-82859996D01*
X31165301Y-82654070D01*
X31165300Y-82654065D01*
X31133984Y-82550829D01*
X31105232Y-82456046D01*
X31007685Y-82273550D01*
X30876410Y-82113590D01*
X30871028Y-82109173D01*
X30716452Y-81982316D01*
X30533954Y-81884768D01*
X30335934Y-81824699D01*
X30335929Y-81824698D01*
X30130003Y-81804417D01*
X30129997Y-81804417D01*
X29924070Y-81824698D01*
X29924065Y-81824699D01*
X29726045Y-81884768D01*
X29543547Y-81982316D01*
X29383595Y-82113585D01*
X29383585Y-82113595D01*
X29252316Y-82273547D01*
X29154768Y-82456045D01*
X29094699Y-82654065D01*
X29094698Y-82654070D01*
X29074417Y-82859996D01*
X29074417Y-82860003D01*
X29094698Y-83065929D01*
X29094699Y-83065934D01*
X29154768Y-83263954D01*
X29252316Y-83446452D01*
X29335404Y-83547695D01*
X29357704Y-83604672D01*
X29342255Y-83663875D01*
X29294958Y-83702690D01*
X29258876Y-83709500D01*
X23381124Y-83709500D01*
X23322933Y-83690593D01*
X23286969Y-83641093D01*
X23286969Y-83579907D01*
X23304596Y-83547695D01*
X23314536Y-83535583D01*
X23387685Y-83446450D01*
X23485232Y-83263954D01*
X23545300Y-83065934D01*
X23545301Y-83065929D01*
X23565583Y-82860003D01*
X23565583Y-82859996D01*
X23545301Y-82654070D01*
X23545300Y-82654065D01*
X23531319Y-82607977D01*
X23485232Y-82456046D01*
X23481196Y-82448496D01*
X23470439Y-82388265D01*
X23497140Y-82333213D01*
X23498503Y-82331823D01*
X23556779Y-82273547D01*
X23945465Y-81884862D01*
X23953181Y-81871497D01*
X23988316Y-81810643D01*
X23988316Y-81810641D01*
X23988318Y-81810639D01*
X24010500Y-81727853D01*
X24010500Y-81642147D01*
X24010500Y-76982147D01*
X23988318Y-76899362D01*
X23945465Y-76825138D01*
X23922182Y-76801855D01*
X23884863Y-76764535D01*
X23409862Y-76289535D01*
X23409857Y-76289531D01*
X23335642Y-76246683D01*
X23335644Y-76246683D01*
X23291626Y-76234889D01*
X23252853Y-76224500D01*
X23252851Y-76224500D01*
X23242983Y-76224500D01*
X23184792Y-76205593D01*
X23148828Y-76156093D01*
X23148828Y-76094907D01*
X23180178Y-76048972D01*
X23202631Y-76030544D01*
X23256410Y-75986410D01*
X23387685Y-75826450D01*
X23485232Y-75643954D01*
X23545300Y-75445934D01*
X23545301Y-75445929D01*
X23565583Y-75240003D01*
X23565583Y-75239996D01*
X23545301Y-75034070D01*
X23545300Y-75034065D01*
X23519587Y-74949300D01*
X23485232Y-74836046D01*
X23387685Y-74653550D01*
X23256410Y-74493590D01*
X23256404Y-74493585D01*
X23160682Y-74415028D01*
X23127695Y-74363497D01*
X23131297Y-74302417D01*
X23170112Y-74255120D01*
X23223487Y-74239500D01*
X26458851Y-74239500D01*
X26458853Y-74239500D01*
X26541639Y-74217318D01*
X26541641Y-74217316D01*
X26541643Y-74217316D01*
X26615857Y-74174468D01*
X26615857Y-74174467D01*
X26615862Y-74174465D01*
X28962465Y-71827862D01*
X29000250Y-71762417D01*
X29005316Y-71753643D01*
X29005316Y-71753641D01*
X29005318Y-71753639D01*
X29027500Y-71670853D01*
X29027500Y-71585147D01*
X29027500Y-70721081D01*
X29046407Y-70662890D01*
X29095907Y-70626926D01*
X29157093Y-70626926D01*
X29206593Y-70662890D01*
X29213806Y-70674407D01*
X29236351Y-70716584D01*
X29252316Y-70746452D01*
X29360496Y-70878270D01*
X29383590Y-70906410D01*
X29383595Y-70906414D01*
X29543547Y-71037683D01*
X29543548Y-71037683D01*
X29543550Y-71037685D01*
X29726046Y-71135232D01*
X29847417Y-71172049D01*
X29924065Y-71195300D01*
X29924070Y-71195301D01*
X30129997Y-71215583D01*
X30130000Y-71215583D01*
X30130003Y-71215583D01*
X30335929Y-71195301D01*
X30335934Y-71195300D01*
X30533954Y-71135232D01*
X30716450Y-71037685D01*
X30817697Y-70954594D01*
X30874671Y-70932295D01*
X30933874Y-70947743D01*
X30972690Y-70995040D01*
X30979500Y-71031123D01*
X30979500Y-71349165D01*
X30960593Y-71407356D01*
X30950504Y-71419168D01*
X30658174Y-71711497D01*
X30603659Y-71739274D01*
X30543227Y-71729703D01*
X30541504Y-71728803D01*
X30533959Y-71724770D01*
X30533954Y-71724768D01*
X30335934Y-71664699D01*
X30335929Y-71664698D01*
X30130003Y-71644417D01*
X30129997Y-71644417D01*
X29924070Y-71664698D01*
X29924065Y-71664699D01*
X29726045Y-71724768D01*
X29543547Y-71822316D01*
X29383595Y-71953585D01*
X29383585Y-71953595D01*
X29252316Y-72113547D01*
X29154768Y-72296045D01*
X29094699Y-72494065D01*
X29094698Y-72494070D01*
X29074417Y-72699996D01*
X29074417Y-72700003D01*
X29094698Y-72905929D01*
X29094699Y-72905934D01*
X29154768Y-73103954D01*
X29252316Y-73286452D01*
X29308818Y-73355300D01*
X29383590Y-73446410D01*
X29383595Y-73446414D01*
X29543547Y-73577683D01*
X29543548Y-73577683D01*
X29543550Y-73577685D01*
X29726046Y-73675232D01*
X29834300Y-73708070D01*
X29924065Y-73735300D01*
X29924070Y-73735301D01*
X30129997Y-73755583D01*
X30130000Y-73755583D01*
X30130003Y-73755583D01*
X30335929Y-73735301D01*
X30335934Y-73735300D01*
X30533954Y-73675232D01*
X30716450Y-73577685D01*
X30876410Y-73446410D01*
X31007685Y-73286450D01*
X31105232Y-73103954D01*
X31165300Y-72905934D01*
X31165301Y-72905929D01*
X31185583Y-72700003D01*
X31185583Y-72699996D01*
X31165301Y-72494070D01*
X31165300Y-72494065D01*
X31112498Y-72320000D01*
X31105232Y-72296046D01*
X31101195Y-72288493D01*
X31090440Y-72228261D01*
X31117142Y-72173210D01*
X31118445Y-72171880D01*
X31260498Y-72029828D01*
X31315013Y-72002052D01*
X31375445Y-72011624D01*
X31418710Y-72054888D01*
X31429500Y-72099833D01*
X31429500Y-73439164D01*
X31410593Y-73497355D01*
X31400504Y-73509168D01*
X30658175Y-74251496D01*
X30603658Y-74279273D01*
X30543226Y-74269702D01*
X30541506Y-74268804D01*
X30533957Y-74264769D01*
X30533954Y-74264768D01*
X30335934Y-74204699D01*
X30335929Y-74204698D01*
X30130003Y-74184417D01*
X30129997Y-74184417D01*
X29924070Y-74204698D01*
X29924065Y-74204699D01*
X29726045Y-74264768D01*
X29543547Y-74362316D01*
X29383595Y-74493585D01*
X29383585Y-74493595D01*
X29252316Y-74653547D01*
X29154768Y-74836045D01*
X29094699Y-75034065D01*
X29094698Y-75034070D01*
X29074417Y-75239996D01*
X29074417Y-75240003D01*
X29094698Y-75445929D01*
X29094699Y-75445934D01*
X29154768Y-75643954D01*
X29252316Y-75826452D01*
X29308818Y-75895300D01*
X29383590Y-75986410D01*
X29383595Y-75986414D01*
X29543547Y-76117683D01*
X29543548Y-76117683D01*
X29543550Y-76117685D01*
X29726046Y-76215232D01*
X29854317Y-76254142D01*
X29924065Y-76275300D01*
X29924070Y-76275301D01*
X30129997Y-76295583D01*
X30130000Y-76295583D01*
X30130003Y-76295583D01*
X30335929Y-76275301D01*
X30335934Y-76275300D01*
X30533954Y-76215232D01*
X30716450Y-76117685D01*
X30876410Y-75986410D01*
X31007685Y-75826450D01*
X31105232Y-75643954D01*
X31165300Y-75445934D01*
X31165301Y-75445929D01*
X31185583Y-75240003D01*
X31185583Y-75239996D01*
X31165301Y-75034070D01*
X31165300Y-75034065D01*
X31151319Y-74987977D01*
X31105232Y-74836046D01*
X31101196Y-74828496D01*
X31090439Y-74768265D01*
X31117140Y-74713213D01*
X31118450Y-74711875D01*
X31710497Y-74119829D01*
X31765013Y-74092053D01*
X31825445Y-74101624D01*
X31868710Y-74144889D01*
X31879500Y-74189834D01*
X31879500Y-75529164D01*
X31860593Y-75587355D01*
X31850504Y-75599168D01*
X30658175Y-76791496D01*
X30603658Y-76819273D01*
X30543226Y-76809702D01*
X30541506Y-76808804D01*
X30533957Y-76804769D01*
X30533954Y-76804768D01*
X30335934Y-76744699D01*
X30335929Y-76744698D01*
X30130003Y-76724417D01*
X30129997Y-76724417D01*
X29924070Y-76744698D01*
X29924065Y-76744699D01*
X29726045Y-76804768D01*
X29543547Y-76902316D01*
X29383595Y-77033585D01*
X29383585Y-77033595D01*
X29252316Y-77193547D01*
X29154768Y-77376045D01*
X29094699Y-77574065D01*
X29094698Y-77574070D01*
X29074417Y-77779996D01*
X29074417Y-77780003D01*
X29094698Y-77985929D01*
X29094699Y-77985934D01*
X29154768Y-78183954D01*
X29252316Y-78366452D01*
X29383585Y-78526404D01*
X29383590Y-78526410D01*
X29383595Y-78526414D01*
X29543547Y-78657683D01*
X29543548Y-78657683D01*
X29543550Y-78657685D01*
X29726046Y-78755232D01*
X29834303Y-78788071D01*
X29924065Y-78815300D01*
X29924070Y-78815301D01*
X30129997Y-78835583D01*
X30130000Y-78835583D01*
X30130003Y-78835583D01*
X30335929Y-78815301D01*
X30335934Y-78815300D01*
X30533954Y-78755232D01*
X30716450Y-78657685D01*
X30876410Y-78526410D01*
X31007685Y-78366450D01*
X31105232Y-78183954D01*
X31165300Y-77985934D01*
X31165301Y-77985929D01*
X31185583Y-77780003D01*
X31185583Y-77779996D01*
X31165301Y-77574070D01*
X31165300Y-77574065D01*
X31151319Y-77527977D01*
X31105232Y-77376046D01*
X31101196Y-77368496D01*
X31090439Y-77308265D01*
X31117140Y-77253213D01*
X31118451Y-77251874D01*
X32160497Y-76209829D01*
X32215013Y-76182053D01*
X32275445Y-76191624D01*
X32318710Y-76234889D01*
X32329500Y-76279834D01*
X32329500Y-77619164D01*
X32310593Y-77677355D01*
X32300504Y-77689168D01*
X30658175Y-79331496D01*
X30603658Y-79359273D01*
X30543226Y-79349702D01*
X30541506Y-79348804D01*
X30533957Y-79344769D01*
X30533954Y-79344768D01*
X30335934Y-79284699D01*
X30335929Y-79284698D01*
X30130003Y-79264417D01*
X30129997Y-79264417D01*
X29924070Y-79284698D01*
X29924065Y-79284699D01*
X29726045Y-79344768D01*
X29543547Y-79442316D01*
X29383595Y-79573585D01*
X29383585Y-79573595D01*
X29252316Y-79733547D01*
X29154768Y-79916045D01*
X29094699Y-80114065D01*
X29094698Y-80114070D01*
X29074417Y-80319996D01*
X29074417Y-80320003D01*
X29094698Y-80525929D01*
X29094699Y-80525934D01*
X29154768Y-80723954D01*
X29252316Y-80906452D01*
X29308818Y-80975300D01*
X29383590Y-81066410D01*
X29383595Y-81066414D01*
X29543547Y-81197683D01*
X29543548Y-81197683D01*
X29543550Y-81197685D01*
X29726046Y-81295232D01*
X29834300Y-81328070D01*
X29924065Y-81355300D01*
X29924070Y-81355301D01*
X30129997Y-81375583D01*
X30130000Y-81375583D01*
X30130003Y-81375583D01*
X30335929Y-81355301D01*
X30335934Y-81355300D01*
X30533954Y-81295232D01*
X30716450Y-81197685D01*
X30876410Y-81066410D01*
X31007685Y-80906450D01*
X31105232Y-80723954D01*
X31165300Y-80525934D01*
X31165301Y-80525929D01*
X31185583Y-80320003D01*
X31185583Y-80319996D01*
X31165301Y-80114070D01*
X31165300Y-80114065D01*
X31137428Y-80022184D01*
X31112497Y-79939996D01*
X32944417Y-79939996D01*
X32944417Y-79940003D01*
X32964698Y-80145929D01*
X32964699Y-80145934D01*
X33024768Y-80343954D01*
X33122316Y-80526452D01*
X33228892Y-80656315D01*
X33253590Y-80686410D01*
X33253595Y-80686414D01*
X33413547Y-80817683D01*
X33413548Y-80817683D01*
X33413550Y-80817685D01*
X33596046Y-80915232D01*
X33733997Y-80957078D01*
X33794065Y-80975300D01*
X33794070Y-80975301D01*
X33999997Y-80995583D01*
X34000000Y-80995583D01*
X34000003Y-80995583D01*
X34205929Y-80975301D01*
X34205934Y-80975300D01*
X34403954Y-80915232D01*
X34586450Y-80817685D01*
X34746410Y-80686410D01*
X34877685Y-80526450D01*
X34975232Y-80343954D01*
X35035300Y-80145934D01*
X35035301Y-80145929D01*
X35055583Y-79940003D01*
X35055583Y-79939996D01*
X35035301Y-79734070D01*
X35035300Y-79734065D01*
X34986622Y-79573595D01*
X34975232Y-79536046D01*
X34877685Y-79353550D01*
X34873790Y-79348804D01*
X34746414Y-79193595D01*
X34746410Y-79193590D01*
X34687695Y-79145404D01*
X34586452Y-79062316D01*
X34403954Y-78964768D01*
X34205934Y-78904699D01*
X34205929Y-78904698D01*
X34000003Y-78884417D01*
X33999997Y-78884417D01*
X33794070Y-78904698D01*
X33794065Y-78904699D01*
X33596045Y-78964768D01*
X33413547Y-79062316D01*
X33253595Y-79193585D01*
X33253585Y-79193595D01*
X33122316Y-79353547D01*
X33024768Y-79536045D01*
X32964699Y-79734065D01*
X32964698Y-79734070D01*
X32944417Y-79939996D01*
X31112497Y-79939996D01*
X31105232Y-79916046D01*
X31101196Y-79908496D01*
X31090439Y-79848265D01*
X31117140Y-79793213D01*
X31118451Y-79791874D01*
X32915465Y-77994862D01*
X32936138Y-77959054D01*
X32981607Y-77918113D01*
X33042457Y-77911717D01*
X33095446Y-77942309D01*
X33109185Y-77961885D01*
X33122316Y-77986452D01*
X33228893Y-78116317D01*
X33253590Y-78146410D01*
X33253595Y-78146414D01*
X33413547Y-78277683D01*
X33413548Y-78277683D01*
X33413550Y-78277685D01*
X33596046Y-78375232D01*
X33733997Y-78417078D01*
X33794065Y-78435300D01*
X33794070Y-78435301D01*
X33999997Y-78455583D01*
X34000000Y-78455583D01*
X34000003Y-78455583D01*
X34205929Y-78435301D01*
X34205934Y-78435300D01*
X34403954Y-78375232D01*
X34586450Y-78277685D01*
X34746410Y-78146410D01*
X34877685Y-77986450D01*
X34975232Y-77803954D01*
X35035300Y-77605934D01*
X35035301Y-77605929D01*
X35055583Y-77400003D01*
X35055583Y-77399996D01*
X35035301Y-77194070D01*
X35035300Y-77194065D01*
X34988702Y-77040452D01*
X34975232Y-76996046D01*
X34877685Y-76813550D01*
X34873790Y-76808804D01*
X34746414Y-76653595D01*
X34746410Y-76653590D01*
X34746404Y-76653585D01*
X34586452Y-76522316D01*
X34403954Y-76424768D01*
X34205934Y-76364699D01*
X34205929Y-76364698D01*
X34000003Y-76344417D01*
X33999997Y-76344417D01*
X33794070Y-76364698D01*
X33794065Y-76364699D01*
X33596045Y-76424768D01*
X33413547Y-76522316D01*
X33253595Y-76653585D01*
X33253585Y-76653595D01*
X33156028Y-76772470D01*
X33104497Y-76805457D01*
X33043418Y-76801855D01*
X32996121Y-76763040D01*
X32980500Y-76709665D01*
X32980500Y-75550334D01*
X32999407Y-75492143D01*
X33048907Y-75456179D01*
X33110093Y-75456179D01*
X33156026Y-75487528D01*
X33253590Y-75606410D01*
X33253595Y-75606414D01*
X33413547Y-75737683D01*
X33413548Y-75737683D01*
X33413550Y-75737685D01*
X33596046Y-75835232D01*
X33733997Y-75877078D01*
X33794065Y-75895300D01*
X33794070Y-75895301D01*
X33999997Y-75915583D01*
X34000000Y-75915583D01*
X34000003Y-75915583D01*
X34205929Y-75895301D01*
X34205934Y-75895300D01*
X34403954Y-75835232D01*
X34586450Y-75737685D01*
X34746410Y-75606410D01*
X34877685Y-75446450D01*
X34975232Y-75263954D01*
X35035300Y-75065934D01*
X35035301Y-75065929D01*
X35055583Y-74860003D01*
X35055583Y-74859996D01*
X35035301Y-74654070D01*
X35035300Y-74654065D01*
X35017078Y-74593997D01*
X34975232Y-74456046D01*
X34877685Y-74273550D01*
X34873790Y-74268804D01*
X34770413Y-74142838D01*
X34746410Y-74113590D01*
X34720167Y-74092053D01*
X34586452Y-73982316D01*
X34403954Y-73884768D01*
X34205934Y-73824699D01*
X34205929Y-73824698D01*
X34000003Y-73804417D01*
X33999997Y-73804417D01*
X33794070Y-73824698D01*
X33794065Y-73824699D01*
X33596045Y-73884768D01*
X33413547Y-73982316D01*
X33253595Y-74113585D01*
X33253585Y-74113595D01*
X33156028Y-74232470D01*
X33104497Y-74265457D01*
X33043418Y-74261855D01*
X32996121Y-74223040D01*
X32980500Y-74169665D01*
X32980500Y-73840834D01*
X32999407Y-73782643D01*
X33009496Y-73770831D01*
X33220823Y-73559504D01*
X33471823Y-73308502D01*
X33526340Y-73280725D01*
X33586772Y-73290296D01*
X33588463Y-73291178D01*
X33596046Y-73295232D01*
X33747977Y-73341319D01*
X33794065Y-73355300D01*
X33794070Y-73355301D01*
X33999997Y-73375583D01*
X34000000Y-73375583D01*
X34000003Y-73375583D01*
X34205929Y-73355301D01*
X34205934Y-73355300D01*
X34403954Y-73295232D01*
X34586450Y-73197685D01*
X34746410Y-73066410D01*
X34877685Y-72906450D01*
X34975232Y-72723954D01*
X35035300Y-72525934D01*
X35035301Y-72525929D01*
X35055583Y-72320003D01*
X35055583Y-72319996D01*
X35035301Y-72114070D01*
X35035300Y-72114065D01*
X35009747Y-72029829D01*
X34975232Y-71916046D01*
X34877685Y-71733550D01*
X34873789Y-71728803D01*
X34770413Y-71602838D01*
X34746410Y-71573590D01*
X34746404Y-71573585D01*
X34586452Y-71442316D01*
X34403954Y-71344768D01*
X34205934Y-71284699D01*
X34205929Y-71284698D01*
X34000003Y-71264417D01*
X33999997Y-71264417D01*
X33794070Y-71284698D01*
X33794065Y-71284699D01*
X33596045Y-71344768D01*
X33413547Y-71442316D01*
X33253595Y-71573585D01*
X33253585Y-71573595D01*
X33122316Y-71733547D01*
X33024768Y-71916045D01*
X32964699Y-72114065D01*
X32964698Y-72114070D01*
X32944417Y-72319996D01*
X32944417Y-72320003D01*
X32964698Y-72525929D01*
X32964699Y-72525934D01*
X33024768Y-72723954D01*
X33024769Y-72723957D01*
X33028804Y-72731506D01*
X33039558Y-72791739D01*
X33012854Y-72846789D01*
X33011496Y-72848174D01*
X32699504Y-73160167D01*
X32644987Y-73187945D01*
X32584555Y-73178374D01*
X32541290Y-73135109D01*
X32530500Y-73090164D01*
X32530500Y-71750834D01*
X32549407Y-71692643D01*
X32559490Y-71680836D01*
X33471825Y-70768500D01*
X33526340Y-70740725D01*
X33586772Y-70750296D01*
X33588463Y-70751178D01*
X33596046Y-70755232D01*
X33747977Y-70801319D01*
X33794065Y-70815300D01*
X33794070Y-70815301D01*
X33999997Y-70835583D01*
X34000000Y-70835583D01*
X34000003Y-70835583D01*
X34205929Y-70815301D01*
X34205934Y-70815300D01*
X34403954Y-70755232D01*
X34586450Y-70657685D01*
X34746410Y-70526410D01*
X34877685Y-70366450D01*
X34975232Y-70183954D01*
X35035300Y-69985934D01*
X35035301Y-69985929D01*
X35055583Y-69780003D01*
X35055583Y-69779996D01*
X35035301Y-69574070D01*
X35035300Y-69574065D01*
X34986622Y-69413595D01*
X34975232Y-69376046D01*
X34877685Y-69193550D01*
X34786973Y-69083017D01*
X34746414Y-69033595D01*
X34746410Y-69033590D01*
X34746404Y-69033585D01*
X34586452Y-68902316D01*
X34403954Y-68804768D01*
X34205934Y-68744699D01*
X34205929Y-68744698D01*
X34000003Y-68724417D01*
X33999997Y-68724417D01*
X33794070Y-68744698D01*
X33794065Y-68744699D01*
X33596045Y-68804768D01*
X33413547Y-68902316D01*
X33253595Y-69033585D01*
X33253585Y-69033595D01*
X33122316Y-69193547D01*
X33024768Y-69376045D01*
X32964699Y-69574065D01*
X32964698Y-69574070D01*
X32944417Y-69779996D01*
X32944417Y-69780003D01*
X32964698Y-69985929D01*
X32964699Y-69985934D01*
X33024768Y-70183954D01*
X33024769Y-70183957D01*
X33028804Y-70191506D01*
X33039558Y-70251739D01*
X33012854Y-70306789D01*
X33011496Y-70308175D01*
X32249504Y-71070168D01*
X32194987Y-71097945D01*
X32134555Y-71088374D01*
X32091290Y-71045109D01*
X32080500Y-71000164D01*
X32080500Y-69660834D01*
X32099407Y-69602643D01*
X32109490Y-69590836D01*
X33471825Y-68228500D01*
X33526340Y-68200725D01*
X33586772Y-68210296D01*
X33588463Y-68211178D01*
X33596046Y-68215232D01*
X33747977Y-68261319D01*
X33794065Y-68275300D01*
X33794070Y-68275301D01*
X33999997Y-68295583D01*
X34000000Y-68295583D01*
X34000003Y-68295583D01*
X34205929Y-68275301D01*
X34205934Y-68275300D01*
X34403954Y-68215232D01*
X34586450Y-68117685D01*
X34746410Y-67986410D01*
X34877685Y-67826450D01*
X34975232Y-67643954D01*
X35035300Y-67445934D01*
X35035301Y-67445929D01*
X35055583Y-67240003D01*
X35055583Y-67239996D01*
X35035301Y-67034070D01*
X35035300Y-67034065D01*
X34986622Y-66873595D01*
X34975232Y-66836046D01*
X34877685Y-66653550D01*
X34746410Y-66493590D01*
X34746404Y-66493585D01*
X34586452Y-66362316D01*
X34403954Y-66264768D01*
X34205934Y-66204699D01*
X34205929Y-66204698D01*
X34000003Y-66184417D01*
X33999997Y-66184417D01*
X33794070Y-66204698D01*
X33794065Y-66204699D01*
X33596045Y-66264768D01*
X33413547Y-66362316D01*
X33253595Y-66493585D01*
X33253585Y-66493595D01*
X33122316Y-66653547D01*
X33024768Y-66836045D01*
X32964699Y-67034065D01*
X32964698Y-67034070D01*
X32944417Y-67239996D01*
X32944417Y-67240003D01*
X32964698Y-67445929D01*
X32964699Y-67445934D01*
X33024768Y-67643954D01*
X33024769Y-67643957D01*
X33028804Y-67651506D01*
X33039558Y-67711739D01*
X33012854Y-67766789D01*
X33011496Y-67768175D01*
X31799504Y-68980168D01*
X31744987Y-69007945D01*
X31684555Y-68998374D01*
X31641290Y-68955109D01*
X31630500Y-68910164D01*
X31630500Y-67570833D01*
X31649407Y-67512642D01*
X31659490Y-67500835D01*
X33471824Y-65688500D01*
X33526339Y-65660725D01*
X33586771Y-65670296D01*
X33588493Y-65671195D01*
X33596046Y-65675232D01*
X33707841Y-65709144D01*
X33794065Y-65735300D01*
X33794070Y-65735301D01*
X33999997Y-65755583D01*
X34000000Y-65755583D01*
X34000003Y-65755583D01*
X34205929Y-65735301D01*
X34205934Y-65735300D01*
X34403954Y-65675232D01*
X34586450Y-65577685D01*
X34746410Y-65446410D01*
X34877685Y-65286450D01*
X34975232Y-65103954D01*
X35035300Y-64905934D01*
X35035301Y-64905929D01*
X35055583Y-64700003D01*
X35055583Y-64699996D01*
X35035301Y-64494070D01*
X35035300Y-64494065D01*
X34986622Y-64333595D01*
X34975232Y-64296046D01*
X34877685Y-64113550D01*
X34866429Y-64099835D01*
X34746414Y-63953595D01*
X34746410Y-63953590D01*
X34746404Y-63953585D01*
X34586452Y-63822316D01*
X34403954Y-63724768D01*
X34205934Y-63664699D01*
X34205929Y-63664698D01*
X34000003Y-63644417D01*
X33999997Y-63644417D01*
X33794070Y-63664698D01*
X33794065Y-63664699D01*
X33596045Y-63724768D01*
X33413547Y-63822316D01*
X33253595Y-63953585D01*
X33253585Y-63953595D01*
X33122316Y-64113547D01*
X33024768Y-64296045D01*
X32964699Y-64494065D01*
X32964698Y-64494070D01*
X32944417Y-64699996D01*
X32944417Y-64700003D01*
X32964698Y-64905929D01*
X32964699Y-64905934D01*
X33000515Y-65024003D01*
X33024768Y-65103954D01*
X33028802Y-65111501D01*
X33039560Y-65171732D01*
X33012860Y-65226785D01*
X33011497Y-65228175D01*
X31171195Y-67068476D01*
X31116678Y-67096253D01*
X31056246Y-67086682D01*
X31013881Y-67045140D01*
X31007687Y-67033552D01*
X30876414Y-66873595D01*
X30876410Y-66873590D01*
X30876404Y-66873585D01*
X30716452Y-66742316D01*
X30533954Y-66644768D01*
X30335934Y-66584699D01*
X30335929Y-66584698D01*
X30130003Y-66564417D01*
X30129997Y-66564417D01*
X29924070Y-66584698D01*
X29924065Y-66584699D01*
X29726045Y-66644768D01*
X29543547Y-66742316D01*
X29383595Y-66873585D01*
X29383585Y-66873595D01*
X29252316Y-67033547D01*
X29213810Y-67105587D01*
X29169704Y-67147993D01*
X29109095Y-67156376D01*
X29055135Y-67127533D01*
X29028434Y-67072481D01*
X29027500Y-67058918D01*
X29027500Y-65641081D01*
X29046407Y-65582890D01*
X29095907Y-65546926D01*
X29157093Y-65546926D01*
X29206593Y-65582890D01*
X29213806Y-65594407D01*
X29236351Y-65636584D01*
X29252316Y-65666452D01*
X29383585Y-65826404D01*
X29383590Y-65826410D01*
X29383595Y-65826414D01*
X29543547Y-65957683D01*
X29543548Y-65957683D01*
X29543550Y-65957685D01*
X29726046Y-66055232D01*
X29859387Y-66095680D01*
X29924065Y-66115300D01*
X29924070Y-66115301D01*
X30129997Y-66135583D01*
X30130000Y-66135583D01*
X30130003Y-66135583D01*
X30335929Y-66115301D01*
X30335934Y-66115300D01*
X30533954Y-66055232D01*
X30716450Y-65957685D01*
X30876410Y-65826410D01*
X31007685Y-65666450D01*
X31105232Y-65483954D01*
X31165300Y-65285934D01*
X31165301Y-65285929D01*
X31185583Y-65080003D01*
X31185583Y-65079996D01*
X31165301Y-64874070D01*
X31165300Y-64874065D01*
X31112498Y-64700000D01*
X31105232Y-64676046D01*
X31007685Y-64493550D01*
X30961727Y-64437550D01*
X30876414Y-64333595D01*
X30876410Y-64333590D01*
X30876404Y-64333585D01*
X30716452Y-64202316D01*
X30533954Y-64104768D01*
X30335934Y-64044699D01*
X30335929Y-64044698D01*
X30130003Y-64024417D01*
X30129997Y-64024417D01*
X29924070Y-64044698D01*
X29924065Y-64044699D01*
X29726045Y-64104768D01*
X29543547Y-64202316D01*
X29383595Y-64333585D01*
X29383585Y-64333595D01*
X29252316Y-64493547D01*
X29213810Y-64565587D01*
X29169704Y-64607993D01*
X29109095Y-64616376D01*
X29055135Y-64587533D01*
X29028434Y-64532481D01*
X29027500Y-64518918D01*
X29027500Y-63101081D01*
X29046407Y-63042890D01*
X29095907Y-63006926D01*
X29157093Y-63006926D01*
X29206593Y-63042890D01*
X29213806Y-63054407D01*
X29238755Y-63101081D01*
X29252316Y-63126452D01*
X29383585Y-63286404D01*
X29383590Y-63286410D01*
X29383595Y-63286414D01*
X29543547Y-63417683D01*
X29543548Y-63417683D01*
X29543550Y-63417685D01*
X29726046Y-63515232D01*
X29863997Y-63557078D01*
X29924065Y-63575300D01*
X29924070Y-63575301D01*
X30129997Y-63595583D01*
X30130000Y-63595583D01*
X30130003Y-63595583D01*
X30335929Y-63575301D01*
X30335934Y-63575300D01*
X30533954Y-63515232D01*
X30716450Y-63417685D01*
X30876410Y-63286410D01*
X31007685Y-63126450D01*
X31105232Y-62943954D01*
X31165300Y-62745934D01*
X31165301Y-62745929D01*
X31185583Y-62540003D01*
X31185583Y-62539996D01*
X31165301Y-62334070D01*
X31165300Y-62334065D01*
X31112498Y-62160000D01*
X31105232Y-62136046D01*
X31007685Y-61953550D01*
X30961727Y-61897550D01*
X30876414Y-61793595D01*
X30876410Y-61793590D01*
X30876404Y-61793585D01*
X30716452Y-61662316D01*
X30533954Y-61564768D01*
X30335934Y-61504699D01*
X30335929Y-61504698D01*
X30130003Y-61484417D01*
X30129997Y-61484417D01*
X29924070Y-61504698D01*
X29924065Y-61504699D01*
X29726045Y-61564768D01*
X29543547Y-61662316D01*
X29383595Y-61793585D01*
X29383585Y-61793595D01*
X29252316Y-61953547D01*
X29213810Y-62025587D01*
X29169704Y-62067993D01*
X29109095Y-62076376D01*
X29055135Y-62047533D01*
X29028434Y-61992481D01*
X29027500Y-61978918D01*
X29027500Y-61603835D01*
X29046407Y-61545644D01*
X29056496Y-61533831D01*
X29510831Y-61079496D01*
X29565348Y-61051719D01*
X29580835Y-61050500D01*
X30999747Y-61050500D01*
X30999748Y-61050500D01*
X31058231Y-61038867D01*
X31124552Y-60994552D01*
X31168867Y-60928231D01*
X31180500Y-60869748D01*
X31180500Y-59130252D01*
X31168867Y-59071769D01*
X31124552Y-59005448D01*
X31124548Y-59005445D01*
X31058233Y-58961134D01*
X31058231Y-58961133D01*
X31058228Y-58961132D01*
X31058227Y-58961132D01*
X30999758Y-58949501D01*
X30999748Y-58949500D01*
X29260252Y-58949500D01*
X29260251Y-58949500D01*
X29260241Y-58949501D01*
X29201772Y-58961132D01*
X29201766Y-58961134D01*
X29135451Y-59005445D01*
X29135445Y-59005451D01*
X29091134Y-59071766D01*
X29091132Y-59071772D01*
X29079501Y-59130241D01*
X29079500Y-59130253D01*
X29079500Y-60549165D01*
X29060593Y-60607356D01*
X29050504Y-60619169D01*
X28441531Y-61228142D01*
X28398682Y-61302360D01*
X28398681Y-61302360D01*
X28398682Y-61302361D01*
X28376500Y-61385147D01*
X28376500Y-68338270D01*
X28357593Y-68396461D01*
X28308093Y-68432425D01*
X28246907Y-68432425D01*
X28223977Y-68421554D01*
X28150057Y-68374049D01*
X28150054Y-68374047D01*
X28150053Y-68374047D01*
X28150050Y-68374046D01*
X28011964Y-68333500D01*
X28011961Y-68333500D01*
X27868039Y-68333500D01*
X27868035Y-68333500D01*
X27729949Y-68374046D01*
X27729942Y-68374049D01*
X27608872Y-68451856D01*
X27608871Y-68451857D01*
X27589399Y-68474330D01*
X27537003Y-68505927D01*
X27514579Y-68508500D01*
X23349118Y-68508500D01*
X23290927Y-68489593D01*
X23254963Y-68440093D01*
X23254963Y-68378907D01*
X23272590Y-68346695D01*
X23314536Y-68295583D01*
X23387685Y-68206450D01*
X23485232Y-68023954D01*
X23545300Y-67825934D01*
X23545301Y-67825929D01*
X23565583Y-67620003D01*
X23565583Y-67619996D01*
X23545301Y-67414070D01*
X23545300Y-67414065D01*
X23492498Y-67240000D01*
X23485232Y-67216046D01*
X23387685Y-67033550D01*
X23341727Y-66977550D01*
X23256414Y-66873595D01*
X23256410Y-66873590D01*
X23256404Y-66873585D01*
X23096452Y-66742316D01*
X22913954Y-66644768D01*
X22715934Y-66584699D01*
X22715929Y-66584698D01*
X22510003Y-66564417D01*
X22509997Y-66564417D01*
X22304070Y-66584698D01*
X22304065Y-66584699D01*
X22106045Y-66644768D01*
X21923547Y-66742316D01*
X21763595Y-66873585D01*
X21763585Y-66873595D01*
X21632316Y-67033547D01*
X21534768Y-67216045D01*
X21474699Y-67414065D01*
X21474698Y-67414070D01*
X21454417Y-67619996D01*
X21454417Y-67620003D01*
X21474698Y-67825929D01*
X21474699Y-67825934D01*
X21534768Y-68023954D01*
X21632316Y-68206452D01*
X21740496Y-68338270D01*
X21763590Y-68366410D01*
X21763595Y-68366414D01*
X21763599Y-68366418D01*
X21866816Y-68451125D01*
X21899804Y-68502656D01*
X21896203Y-68563735D01*
X21874016Y-68597657D01*
X19177485Y-71294186D01*
X19122968Y-71321963D01*
X19078744Y-71318919D01*
X18965937Y-71284700D01*
X18965929Y-71284698D01*
X18760003Y-71264417D01*
X18759997Y-71264417D01*
X18554070Y-71284698D01*
X18554065Y-71284699D01*
X18356045Y-71344768D01*
X18173547Y-71442316D01*
X18013595Y-71573585D01*
X18013585Y-71573595D01*
X17882316Y-71733547D01*
X17784768Y-71916045D01*
X17724699Y-72114065D01*
X17724698Y-72114070D01*
X17704417Y-72319996D01*
X17704417Y-72320003D01*
X17724698Y-72525929D01*
X17724699Y-72525934D01*
X17784768Y-72723954D01*
X17882316Y-72906452D01*
X18013585Y-73066404D01*
X18013590Y-73066410D01*
X18013595Y-73066414D01*
X18173547Y-73197683D01*
X18173548Y-73197683D01*
X18173550Y-73197685D01*
X18356046Y-73295232D01*
X18467936Y-73329173D01*
X18554065Y-73355300D01*
X18554070Y-73355301D01*
X18759997Y-73375583D01*
X18760000Y-73375583D01*
X18760003Y-73375583D01*
X18965929Y-73355301D01*
X18965934Y-73355300D01*
X19163954Y-73295232D01*
X19346450Y-73197685D01*
X19506410Y-73066410D01*
X19637685Y-72906450D01*
X19735232Y-72723954D01*
X19795300Y-72525934D01*
X19795301Y-72525929D01*
X19815583Y-72320003D01*
X19815583Y-72319996D01*
X19795301Y-72114070D01*
X19795300Y-72114065D01*
X19769747Y-72029829D01*
X19735232Y-71916046D01*
X19679642Y-71812047D01*
X19668886Y-71751817D01*
X19695588Y-71696765D01*
X19696900Y-71695425D01*
X21286495Y-70105830D01*
X21341010Y-70078055D01*
X21401442Y-70087626D01*
X21444707Y-70130891D01*
X21455020Y-70166132D01*
X21474698Y-70365928D01*
X21474699Y-70365934D01*
X21534768Y-70563954D01*
X21632316Y-70746452D01*
X21740496Y-70878270D01*
X21763590Y-70906410D01*
X21813955Y-70947743D01*
X21908723Y-71025517D01*
X21941710Y-71077048D01*
X21938108Y-71138127D01*
X21915922Y-71172049D01*
X19236026Y-73851944D01*
X19181509Y-73879721D01*
X19137284Y-73876677D01*
X18965934Y-73824699D01*
X18965929Y-73824698D01*
X18760003Y-73804417D01*
X18759997Y-73804417D01*
X18554070Y-73824698D01*
X18554065Y-73824699D01*
X18356045Y-73884768D01*
X18173547Y-73982316D01*
X18013595Y-74113585D01*
X18013585Y-74113595D01*
X17882316Y-74273547D01*
X17784768Y-74456045D01*
X17724699Y-74654065D01*
X17724698Y-74654070D01*
X17704417Y-74859996D01*
X17704417Y-74860003D01*
X17724698Y-75065929D01*
X17724699Y-75065934D01*
X17784768Y-75263954D01*
X17882316Y-75446452D01*
X17976082Y-75560706D01*
X17998382Y-75617683D01*
X17982933Y-75676886D01*
X17935636Y-75715701D01*
X17925178Y-75719137D01*
X17878365Y-75731680D01*
X17878360Y-75731682D01*
X17850353Y-75747851D01*
X17850354Y-75747852D01*
X17804139Y-75774534D01*
X17324531Y-76254142D01*
X17281682Y-76328360D01*
X17281681Y-76328360D01*
X17281682Y-76328361D01*
X17271945Y-76364700D01*
X17259500Y-76411147D01*
X15500500Y-76411147D01*
X15500500Y-50599500D01*
X15519407Y-50541309D01*
X15568907Y-50505345D01*
X15599500Y-50500500D01*
X18388231Y-50500500D01*
X18446422Y-50519407D01*
G37*
%TD.AperFunction*%
%TA.AperFunction,Conductor*%
G36*
X33207584Y-56224407D02*
G01*
X33243548Y-56273907D01*
X33243548Y-56335093D01*
X33225921Y-56367305D01*
X33122316Y-56493547D01*
X33024768Y-56676045D01*
X32964699Y-56874065D01*
X32964698Y-56874071D01*
X32946982Y-57053946D01*
X32922462Y-57110003D01*
X32908653Y-57118096D01*
X32944200Y-57152641D01*
X32955165Y-57189138D01*
X32964698Y-57285928D01*
X32964699Y-57285934D01*
X33024768Y-57483954D01*
X33024770Y-57483959D01*
X33032720Y-57498832D01*
X33043476Y-57559064D01*
X33016775Y-57614116D01*
X32962814Y-57642958D01*
X32945410Y-57644500D01*
X32708550Y-57644500D01*
X32650359Y-57625593D01*
X32614395Y-57576093D01*
X32614395Y-57514907D01*
X32633730Y-57480669D01*
X32683377Y-57423373D01*
X32743165Y-57292457D01*
X32758650Y-57184753D01*
X32785645Y-57129846D01*
X32796564Y-57124084D01*
X32763048Y-57094302D01*
X32750467Y-57058334D01*
X32743165Y-57007543D01*
X32683377Y-56876627D01*
X32589128Y-56767857D01*
X32589127Y-56767856D01*
X32589126Y-56767855D01*
X32468057Y-56690049D01*
X32468054Y-56690047D01*
X32468053Y-56690047D01*
X32468050Y-56690046D01*
X32329964Y-56649500D01*
X32329961Y-56649500D01*
X32186039Y-56649500D01*
X32186035Y-56649500D01*
X32047949Y-56690046D01*
X32047942Y-56690049D01*
X31926873Y-56767855D01*
X31832622Y-56876628D01*
X31772834Y-57007543D01*
X31758163Y-57109589D01*
X31731168Y-57164496D01*
X31677053Y-57193050D01*
X31660171Y-57194500D01*
X30776853Y-57194500D01*
X20161147Y-57194500D01*
X20119754Y-57205591D01*
X20078360Y-57216682D01*
X20032499Y-57243159D01*
X20032500Y-57243160D01*
X20004136Y-57259536D01*
X19971013Y-57292658D01*
X19916495Y-57320435D01*
X19856064Y-57310861D01*
X19812800Y-57267596D01*
X19802488Y-57212949D01*
X19804306Y-57194500D01*
X19815583Y-57080000D01*
X19815296Y-57077084D01*
X19795301Y-56874070D01*
X19795300Y-56874065D01*
X19763082Y-56767857D01*
X19735232Y-56676046D01*
X19637685Y-56493550D01*
X19534078Y-56367304D01*
X19511779Y-56310328D01*
X19527228Y-56251125D01*
X19574525Y-56212310D01*
X19610607Y-56205500D01*
X33149393Y-56205500D01*
X33207584Y-56224407D01*
G37*
%TD.AperFunction*%
%TA.AperFunction,Conductor*%
G36*
X33207584Y-53684407D02*
G01*
X33243548Y-53733907D01*
X33243548Y-53795093D01*
X33225921Y-53827305D01*
X33122316Y-53953547D01*
X33024768Y-54136045D01*
X32964699Y-54334065D01*
X32964698Y-54334070D01*
X32944417Y-54539996D01*
X32944417Y-54540003D01*
X32964698Y-54745929D01*
X32964699Y-54745934D01*
X33024768Y-54943954D01*
X33122316Y-55126452D01*
X33253585Y-55286404D01*
X33253590Y-55286410D01*
X33253595Y-55286414D01*
X33366378Y-55378972D01*
X33399365Y-55430503D01*
X33395763Y-55491582D01*
X33356948Y-55538879D01*
X33303573Y-55554500D01*
X19456427Y-55554500D01*
X19398236Y-55535593D01*
X19362272Y-55486093D01*
X19362272Y-55424907D01*
X19393622Y-55378972D01*
X19506410Y-55286410D01*
X19637685Y-55126450D01*
X19735232Y-54943954D01*
X19795300Y-54745934D01*
X19795301Y-54745929D01*
X19815583Y-54540003D01*
X19815583Y-54539996D01*
X19795301Y-54334070D01*
X19795300Y-54334065D01*
X19770271Y-54251556D01*
X19735232Y-54136046D01*
X19637685Y-53953550D01*
X19534078Y-53827304D01*
X19511779Y-53770328D01*
X19527228Y-53711125D01*
X19574525Y-53672310D01*
X19610607Y-53665500D01*
X33149393Y-53665500D01*
X33207584Y-53684407D01*
G37*
%TD.AperFunction*%
%TD*%
%TA.AperFunction,Conductor*%
%TO.N,GNDA*%
G36*
X33727796Y-88918907D02*
G01*
X33763760Y-88968407D01*
X33763760Y-89029593D01*
X33727796Y-89079093D01*
X33698343Y-89093737D01*
X33596045Y-89124768D01*
X33413547Y-89222316D01*
X33253595Y-89353585D01*
X33253585Y-89353595D01*
X33122316Y-89513547D01*
X33024768Y-89696045D01*
X32964699Y-89894065D01*
X32964698Y-89894070D01*
X32944417Y-90099996D01*
X32944417Y-90100003D01*
X32964698Y-90305929D01*
X32964699Y-90305934D01*
X33024768Y-90503954D01*
X33122316Y-90686452D01*
X33205091Y-90787314D01*
X33253590Y-90846410D01*
X33253595Y-90846414D01*
X33413547Y-90977683D01*
X33413548Y-90977683D01*
X33413550Y-90977685D01*
X33596046Y-91075232D01*
X33733997Y-91117078D01*
X33794065Y-91135300D01*
X33794070Y-91135301D01*
X33999997Y-91155583D01*
X34000000Y-91155583D01*
X34000003Y-91155583D01*
X34205929Y-91135301D01*
X34205934Y-91135300D01*
X34403954Y-91075232D01*
X34586450Y-90977685D01*
X34746410Y-90846410D01*
X34877685Y-90686450D01*
X34975232Y-90503954D01*
X35035300Y-90305934D01*
X35035301Y-90305929D01*
X35048689Y-90169996D01*
X36504417Y-90169996D01*
X36504417Y-90170003D01*
X36524698Y-90375929D01*
X36524699Y-90375934D01*
X36584768Y-90573954D01*
X36682316Y-90756452D01*
X36786954Y-90883954D01*
X36813590Y-90916410D01*
X36813595Y-90916414D01*
X36973547Y-91047683D01*
X36973548Y-91047683D01*
X36973550Y-91047685D01*
X37156046Y-91145232D01*
X37293997Y-91187078D01*
X37354065Y-91205300D01*
X37354070Y-91205301D01*
X37559997Y-91225583D01*
X37560000Y-91225583D01*
X37560003Y-91225583D01*
X37765929Y-91205301D01*
X37765934Y-91205300D01*
X37963954Y-91145232D01*
X38146450Y-91047685D01*
X38306410Y-90916410D01*
X38437685Y-90756450D01*
X38535232Y-90573954D01*
X38595300Y-90375934D01*
X38595301Y-90375929D01*
X38615583Y-90170003D01*
X38615583Y-90169996D01*
X39044417Y-90169996D01*
X39044417Y-90170003D01*
X39064698Y-90375929D01*
X39064699Y-90375934D01*
X39124768Y-90573954D01*
X39222316Y-90756452D01*
X39326954Y-90883954D01*
X39353590Y-90916410D01*
X39353595Y-90916414D01*
X39513547Y-91047683D01*
X39513548Y-91047683D01*
X39513550Y-91047685D01*
X39696046Y-91145232D01*
X39833997Y-91187078D01*
X39894065Y-91205300D01*
X39894070Y-91205301D01*
X40099997Y-91225583D01*
X40100000Y-91225583D01*
X40100003Y-91225583D01*
X40305929Y-91205301D01*
X40305934Y-91205300D01*
X40503954Y-91145232D01*
X40686450Y-91047685D01*
X40846410Y-90916410D01*
X40977685Y-90756450D01*
X41022292Y-90672996D01*
X42124417Y-90672996D01*
X42124417Y-90673003D01*
X42144698Y-90878929D01*
X42144699Y-90878934D01*
X42204768Y-91076954D01*
X42302316Y-91259452D01*
X42382934Y-91357685D01*
X42433590Y-91419410D01*
X42433595Y-91419414D01*
X42593547Y-91550683D01*
X42593548Y-91550683D01*
X42593550Y-91550685D01*
X42776046Y-91648232D01*
X42913997Y-91690078D01*
X42974065Y-91708300D01*
X42974070Y-91708301D01*
X43179997Y-91728583D01*
X43180000Y-91728583D01*
X43180003Y-91728583D01*
X43385929Y-91708301D01*
X43385934Y-91708300D01*
X43583954Y-91648232D01*
X43766450Y-91550685D01*
X43926410Y-91419410D01*
X44057685Y-91259450D01*
X44155232Y-91076954D01*
X44215300Y-90878934D01*
X44215301Y-90878929D01*
X44235583Y-90673003D01*
X44235583Y-90672996D01*
X44215301Y-90467070D01*
X44215300Y-90467065D01*
X44187654Y-90375929D01*
X44155232Y-90269046D01*
X44057685Y-90086550D01*
X44051899Y-90079500D01*
X43926414Y-89926595D01*
X43926410Y-89926590D01*
X43886778Y-89894065D01*
X43766452Y-89795316D01*
X43583954Y-89697768D01*
X43385934Y-89637699D01*
X43385929Y-89637698D01*
X43180003Y-89617417D01*
X43179997Y-89617417D01*
X42974070Y-89637698D01*
X42974065Y-89637699D01*
X42776045Y-89697768D01*
X42593547Y-89795316D01*
X42433595Y-89926585D01*
X42433585Y-89926595D01*
X42302316Y-90086547D01*
X42204768Y-90269045D01*
X42144699Y-90467065D01*
X42144698Y-90467070D01*
X42124417Y-90672996D01*
X41022292Y-90672996D01*
X41075232Y-90573954D01*
X41135300Y-90375934D01*
X41135301Y-90375929D01*
X41155583Y-90170003D01*
X41155583Y-90169996D01*
X41135301Y-89964070D01*
X41135300Y-89964065D01*
X41113909Y-89893550D01*
X41075232Y-89766046D01*
X40977685Y-89583550D01*
X40920235Y-89513547D01*
X40846414Y-89423595D01*
X40846410Y-89423590D01*
X40846404Y-89423585D01*
X40686452Y-89292316D01*
X40503954Y-89194768D01*
X40305934Y-89134699D01*
X40305929Y-89134698D01*
X40100003Y-89114417D01*
X40099997Y-89114417D01*
X39894070Y-89134698D01*
X39894065Y-89134699D01*
X39696045Y-89194768D01*
X39513547Y-89292316D01*
X39353595Y-89423585D01*
X39353585Y-89423595D01*
X39222316Y-89583547D01*
X39124768Y-89766045D01*
X39064699Y-89964065D01*
X39064698Y-89964070D01*
X39044417Y-90169996D01*
X38615583Y-90169996D01*
X38595301Y-89964070D01*
X38595300Y-89964065D01*
X38573909Y-89893550D01*
X38535232Y-89766046D01*
X38437685Y-89583550D01*
X38380235Y-89513547D01*
X38306414Y-89423595D01*
X38306410Y-89423590D01*
X38306404Y-89423585D01*
X38146452Y-89292316D01*
X37963954Y-89194768D01*
X37765934Y-89134699D01*
X37765929Y-89134698D01*
X37560003Y-89114417D01*
X37559997Y-89114417D01*
X37354070Y-89134698D01*
X37354065Y-89134699D01*
X37156045Y-89194768D01*
X36973547Y-89292316D01*
X36813595Y-89423585D01*
X36813585Y-89423595D01*
X36682316Y-89583547D01*
X36584768Y-89766045D01*
X36524699Y-89964065D01*
X36524698Y-89964070D01*
X36504417Y-90169996D01*
X35048689Y-90169996D01*
X35055583Y-90100003D01*
X35055583Y-90099996D01*
X35035301Y-89894070D01*
X35035300Y-89894065D01*
X35005345Y-89795316D01*
X34975232Y-89696046D01*
X34877685Y-89513550D01*
X34746410Y-89353590D01*
X34671746Y-89292315D01*
X34586452Y-89222316D01*
X34403954Y-89124768D01*
X34301657Y-89093737D01*
X34251460Y-89058752D01*
X34231414Y-89000944D01*
X34249175Y-88942393D01*
X34297959Y-88905464D01*
X34330395Y-88900000D01*
X44400500Y-88900000D01*
X44458691Y-88918907D01*
X44494655Y-88968407D01*
X44499500Y-88999000D01*
X44499500Y-99512108D01*
X44480593Y-99570299D01*
X44431093Y-99606263D01*
X44369907Y-99606263D01*
X44341171Y-99591361D01*
X44272090Y-99539647D01*
X44272088Y-99539646D01*
X44137381Y-99489403D01*
X44137370Y-99489401D01*
X44077824Y-99483000D01*
X43543361Y-99483000D01*
X43485170Y-99464093D01*
X43449206Y-99414593D01*
X43449206Y-99353407D01*
X43485170Y-99303907D01*
X43514623Y-99289263D01*
X43583954Y-99268232D01*
X43766450Y-99170685D01*
X43926410Y-99039410D01*
X44057685Y-98879450D01*
X44155232Y-98696954D01*
X44215300Y-98498934D01*
X44215301Y-98498929D01*
X44235583Y-98293003D01*
X44235583Y-98292996D01*
X44215301Y-98087070D01*
X44215300Y-98087065D01*
X44197078Y-98026997D01*
X44155232Y-97889046D01*
X44057685Y-97706550D01*
X43926410Y-97546590D01*
X43886778Y-97514065D01*
X43766452Y-97415316D01*
X43583954Y-97317768D01*
X43385934Y-97257699D01*
X43385929Y-97257698D01*
X43180003Y-97237417D01*
X43179997Y-97237417D01*
X42974070Y-97257698D01*
X42974065Y-97257699D01*
X42776045Y-97317768D01*
X42593547Y-97415316D01*
X42433595Y-97546585D01*
X42433585Y-97546595D01*
X42302316Y-97706547D01*
X42204768Y-97889045D01*
X42144699Y-98087065D01*
X42144698Y-98087070D01*
X42124417Y-98292996D01*
X42124417Y-98293003D01*
X42144698Y-98498929D01*
X42144699Y-98498934D01*
X42204768Y-98696954D01*
X42302316Y-98879452D01*
X42433585Y-99039404D01*
X42433590Y-99039410D01*
X42433595Y-99039414D01*
X42593547Y-99170683D01*
X42593548Y-99170683D01*
X42593550Y-99170685D01*
X42776046Y-99268232D01*
X42845377Y-99289263D01*
X42895574Y-99324248D01*
X42915620Y-99382056D01*
X42897859Y-99440607D01*
X42849075Y-99477536D01*
X42816639Y-99483000D01*
X42282176Y-99483000D01*
X42222629Y-99489401D01*
X42222618Y-99489403D01*
X42087911Y-99539646D01*
X42087909Y-99539647D01*
X41972815Y-99625807D01*
X41972807Y-99625815D01*
X41886647Y-99740909D01*
X41886646Y-99740911D01*
X41836403Y-99875618D01*
X41836401Y-99875629D01*
X41830000Y-99935175D01*
X41830000Y-100532999D01*
X41830001Y-100533000D01*
X42775856Y-100533000D01*
X42714075Y-100640007D01*
X42680000Y-100767174D01*
X42680000Y-100898826D01*
X42714075Y-101025993D01*
X42775856Y-101133000D01*
X41830001Y-101133000D01*
X41830000Y-101133001D01*
X41830000Y-101730824D01*
X41829999Y-101730824D01*
X41836401Y-101790370D01*
X41836403Y-101790381D01*
X41886646Y-101925088D01*
X41886647Y-101925090D01*
X41905048Y-101949671D01*
X41924785Y-102007586D01*
X41906711Y-102066041D01*
X41857729Y-102102708D01*
X41825795Y-102108000D01*
X29054869Y-102108000D01*
X28996678Y-102089093D01*
X28960714Y-102039593D01*
X28955869Y-102009131D01*
X28953549Y-100259996D01*
X32644843Y-100259996D01*
X32644843Y-100260003D01*
X32665429Y-100495313D01*
X32726569Y-100723489D01*
X32826400Y-100937579D01*
X32826400Y-100937580D01*
X32855951Y-100979782D01*
X33461268Y-100374464D01*
X33487482Y-100472292D01*
X33559890Y-100597708D01*
X33662292Y-100700110D01*
X33787708Y-100772518D01*
X33885532Y-100798730D01*
X33280215Y-101404046D01*
X33322417Y-101433598D01*
X33322420Y-101433599D01*
X33536510Y-101533430D01*
X33764686Y-101594570D01*
X33999997Y-101615157D01*
X34000003Y-101615157D01*
X34235313Y-101594570D01*
X34463494Y-101533429D01*
X34677572Y-101433603D01*
X34677580Y-101433598D01*
X34719781Y-101404046D01*
X34114465Y-100798730D01*
X34212292Y-100772518D01*
X34337708Y-100700110D01*
X34440110Y-100597708D01*
X34512518Y-100472292D01*
X34538730Y-100374465D01*
X35144046Y-100979781D01*
X35173598Y-100937580D01*
X35173603Y-100937572D01*
X35220034Y-100838000D01*
X36686540Y-100838000D01*
X36706298Y-101025993D01*
X36706327Y-101026261D01*
X36764819Y-101206279D01*
X36764825Y-101206293D01*
X36818307Y-101298925D01*
X36859467Y-101370216D01*
X36859469Y-101370218D01*
X36916536Y-101433598D01*
X36986129Y-101510888D01*
X37139270Y-101622151D01*
X37312197Y-101699144D01*
X37497354Y-101738500D01*
X37497357Y-101738500D01*
X37686643Y-101738500D01*
X37686646Y-101738500D01*
X37871803Y-101699144D01*
X38044730Y-101622151D01*
X38197871Y-101510888D01*
X38324533Y-101370216D01*
X38419179Y-101206284D01*
X38477674Y-101026256D01*
X38497460Y-100838000D01*
X39226540Y-100838000D01*
X39246298Y-101025993D01*
X39246327Y-101026261D01*
X39304819Y-101206279D01*
X39304825Y-101206293D01*
X39358307Y-101298925D01*
X39399467Y-101370216D01*
X39399469Y-101370218D01*
X39456536Y-101433598D01*
X39526129Y-101510888D01*
X39679270Y-101622151D01*
X39852197Y-101699144D01*
X40037354Y-101738500D01*
X40037357Y-101738500D01*
X40226643Y-101738500D01*
X40226646Y-101738500D01*
X40411803Y-101699144D01*
X40584730Y-101622151D01*
X40737871Y-101510888D01*
X40864533Y-101370216D01*
X40959179Y-101206284D01*
X41017674Y-101026256D01*
X41037460Y-100838000D01*
X41017674Y-100649744D01*
X40959179Y-100469716D01*
X40959176Y-100469711D01*
X40959174Y-100469706D01*
X40880246Y-100333000D01*
X40864533Y-100305784D01*
X40810249Y-100245496D01*
X40737875Y-100165116D01*
X40737870Y-100165111D01*
X40584731Y-100053850D01*
X40584732Y-100053850D01*
X40584730Y-100053849D01*
X40584725Y-100053847D01*
X40584722Y-100053845D01*
X40411805Y-99976857D01*
X40411803Y-99976856D01*
X40411800Y-99976855D01*
X40411799Y-99976855D01*
X40376580Y-99969369D01*
X40226646Y-99937500D01*
X40037354Y-99937500D01*
X39919289Y-99962595D01*
X39852200Y-99976855D01*
X39852194Y-99976857D01*
X39679277Y-100053845D01*
X39679268Y-100053850D01*
X39526129Y-100165111D01*
X39526124Y-100165116D01*
X39399469Y-100305781D01*
X39399465Y-100305787D01*
X39304825Y-100469706D01*
X39304819Y-100469720D01*
X39246327Y-100649738D01*
X39246326Y-100649742D01*
X39246326Y-100649744D01*
X39226540Y-100838000D01*
X38497460Y-100838000D01*
X38477674Y-100649744D01*
X38419179Y-100469716D01*
X38419176Y-100469711D01*
X38419174Y-100469706D01*
X38340246Y-100333000D01*
X38324533Y-100305784D01*
X38270249Y-100245496D01*
X38197875Y-100165116D01*
X38197870Y-100165111D01*
X38044731Y-100053850D01*
X38044732Y-100053850D01*
X38044730Y-100053849D01*
X38044725Y-100053847D01*
X38044722Y-100053845D01*
X37871805Y-99976857D01*
X37871803Y-99976856D01*
X37871800Y-99976855D01*
X37871799Y-99976855D01*
X37836580Y-99969369D01*
X37686646Y-99937500D01*
X37497354Y-99937500D01*
X37379289Y-99962595D01*
X37312200Y-99976855D01*
X37312194Y-99976857D01*
X37139277Y-100053845D01*
X37139268Y-100053850D01*
X36986129Y-100165111D01*
X36986124Y-100165116D01*
X36859469Y-100305781D01*
X36859465Y-100305787D01*
X36764825Y-100469706D01*
X36764819Y-100469720D01*
X36706327Y-100649738D01*
X36706326Y-100649742D01*
X36706326Y-100649744D01*
X36686540Y-100838000D01*
X35220034Y-100838000D01*
X35273429Y-100723494D01*
X35334570Y-100495313D01*
X35355157Y-100260003D01*
X35355157Y-100259996D01*
X35334570Y-100024686D01*
X35273429Y-99796505D01*
X35173605Y-99582432D01*
X35173601Y-99582424D01*
X35144047Y-99540216D01*
X34538730Y-100145532D01*
X34512518Y-100047708D01*
X34440110Y-99922292D01*
X34337708Y-99819890D01*
X34212292Y-99747482D01*
X34114464Y-99721268D01*
X34719782Y-99115951D01*
X34677580Y-99086400D01*
X34463489Y-98986569D01*
X34256786Y-98931183D01*
X34205472Y-98897859D01*
X34183545Y-98840737D01*
X34199381Y-98781637D01*
X34246931Y-98743132D01*
X34253663Y-98740821D01*
X34403954Y-98695232D01*
X34586450Y-98597685D01*
X34746410Y-98466410D01*
X34877685Y-98306450D01*
X34975232Y-98123954D01*
X35035300Y-97925934D01*
X35035301Y-97925929D01*
X35055583Y-97720003D01*
X35055583Y-97719996D01*
X35035301Y-97514070D01*
X35035300Y-97514065D01*
X35005345Y-97415316D01*
X34975232Y-97316046D01*
X34877685Y-97133550D01*
X34839113Y-97086550D01*
X34746414Y-96973595D01*
X34746410Y-96973590D01*
X34629933Y-96878000D01*
X34586452Y-96842316D01*
X34403954Y-96744768D01*
X34205934Y-96684699D01*
X34205929Y-96684698D01*
X34000003Y-96664417D01*
X33999997Y-96664417D01*
X33794070Y-96684698D01*
X33794065Y-96684699D01*
X33596045Y-96744768D01*
X33413547Y-96842316D01*
X33253595Y-96973585D01*
X33253585Y-96973595D01*
X33122316Y-97133547D01*
X33024768Y-97316045D01*
X32964699Y-97514065D01*
X32964698Y-97514070D01*
X32944417Y-97719996D01*
X32944417Y-97720003D01*
X32964698Y-97925929D01*
X32964699Y-97925934D01*
X33024768Y-98123954D01*
X33122316Y-98306452D01*
X33253585Y-98466404D01*
X33253590Y-98466410D01*
X33253595Y-98466414D01*
X33413547Y-98597683D01*
X33413548Y-98597683D01*
X33413550Y-98597685D01*
X33596046Y-98695232D01*
X33746328Y-98740819D01*
X33796525Y-98775804D01*
X33816571Y-98833612D01*
X33798810Y-98892163D01*
X33750026Y-98929092D01*
X33743213Y-98931183D01*
X33536505Y-98986570D01*
X33322432Y-99086394D01*
X33322420Y-99086401D01*
X33280216Y-99115951D01*
X33885534Y-99721269D01*
X33787708Y-99747482D01*
X33662292Y-99819890D01*
X33559890Y-99922292D01*
X33487482Y-100047708D01*
X33461269Y-100145534D01*
X32855951Y-99540216D01*
X32826401Y-99582420D01*
X32826394Y-99582432D01*
X32726570Y-99796505D01*
X32665429Y-100024686D01*
X32644843Y-100259996D01*
X28953549Y-100259996D01*
X28949598Y-97282133D01*
X28968428Y-97223918D01*
X29017880Y-97187888D01*
X29048598Y-97183002D01*
X31997466Y-97183002D01*
X31998727Y-95583954D01*
X31999046Y-95179996D01*
X32944417Y-95179996D01*
X32944417Y-95180003D01*
X32964698Y-95385929D01*
X32964699Y-95385934D01*
X33024768Y-95583954D01*
X33122316Y-95766452D01*
X33225264Y-95891895D01*
X33253590Y-95926410D01*
X33253595Y-95926414D01*
X33413547Y-96057683D01*
X33413548Y-96057683D01*
X33413550Y-96057685D01*
X33596046Y-96155232D01*
X33733997Y-96197078D01*
X33794065Y-96215300D01*
X33794070Y-96215301D01*
X33999997Y-96235583D01*
X34000000Y-96235583D01*
X34000003Y-96235583D01*
X34205929Y-96215301D01*
X34205934Y-96215300D01*
X34403954Y-96155232D01*
X34586450Y-96057685D01*
X34746410Y-95926410D01*
X34877685Y-95766450D01*
X34884876Y-95752996D01*
X42124417Y-95752996D01*
X42124417Y-95753003D01*
X42144698Y-95958929D01*
X42144699Y-95958934D01*
X42204768Y-96156954D01*
X42302316Y-96339452D01*
X42433585Y-96499404D01*
X42433590Y-96499410D01*
X42433595Y-96499414D01*
X42593547Y-96630683D01*
X42593548Y-96630683D01*
X42593550Y-96630685D01*
X42776046Y-96728232D01*
X42913997Y-96770078D01*
X42974065Y-96788300D01*
X42974070Y-96788301D01*
X43179997Y-96808583D01*
X43180000Y-96808583D01*
X43180003Y-96808583D01*
X43385929Y-96788301D01*
X43385934Y-96788300D01*
X43583954Y-96728232D01*
X43766450Y-96630685D01*
X43926410Y-96499410D01*
X44057685Y-96339450D01*
X44155232Y-96156954D01*
X44215300Y-95958934D01*
X44215301Y-95958929D01*
X44235583Y-95753003D01*
X44235583Y-95752996D01*
X44215301Y-95547070D01*
X44215300Y-95547065D01*
X44197078Y-95486997D01*
X44155232Y-95349046D01*
X44057685Y-95166550D01*
X43926410Y-95006590D01*
X43838090Y-94934108D01*
X43766452Y-94875316D01*
X43583954Y-94777768D01*
X43385934Y-94717699D01*
X43385929Y-94717698D01*
X43180003Y-94697417D01*
X43179997Y-94697417D01*
X42974070Y-94717698D01*
X42974065Y-94717699D01*
X42776045Y-94777768D01*
X42593547Y-94875316D01*
X42433595Y-95006585D01*
X42433585Y-95006595D01*
X42302316Y-95166547D01*
X42204768Y-95349045D01*
X42144699Y-95547065D01*
X42144698Y-95547070D01*
X42124417Y-95752996D01*
X34884876Y-95752996D01*
X34975232Y-95583954D01*
X35035300Y-95385934D01*
X35035301Y-95385929D01*
X35055583Y-95180003D01*
X35055583Y-95179996D01*
X35035301Y-94974070D01*
X35035300Y-94974065D01*
X35005345Y-94875316D01*
X34975232Y-94776046D01*
X34877685Y-94593550D01*
X34746410Y-94433590D01*
X34746404Y-94433585D01*
X34586452Y-94302316D01*
X34403954Y-94204768D01*
X34205934Y-94144699D01*
X34205929Y-94144698D01*
X34000003Y-94124417D01*
X33999997Y-94124417D01*
X33794070Y-94144698D01*
X33794065Y-94144699D01*
X33596045Y-94204768D01*
X33413547Y-94302316D01*
X33253595Y-94433585D01*
X33253585Y-94433595D01*
X33122316Y-94593547D01*
X33024768Y-94776045D01*
X32964699Y-94974065D01*
X32964698Y-94974070D01*
X32944417Y-95179996D01*
X31999046Y-95179996D01*
X32001050Y-92639996D01*
X32944417Y-92639996D01*
X32944417Y-92640003D01*
X32964698Y-92845929D01*
X32964699Y-92845934D01*
X33024768Y-93043954D01*
X33122316Y-93226452D01*
X33253585Y-93386404D01*
X33253590Y-93386410D01*
X33253595Y-93386414D01*
X33413547Y-93517683D01*
X33413548Y-93517683D01*
X33413550Y-93517685D01*
X33596046Y-93615232D01*
X33733997Y-93657078D01*
X33794065Y-93675300D01*
X33794070Y-93675301D01*
X33999997Y-93695583D01*
X34000000Y-93695583D01*
X34000003Y-93695583D01*
X34205929Y-93675301D01*
X34205934Y-93675300D01*
X34403954Y-93615232D01*
X34586450Y-93517685D01*
X34746410Y-93386410D01*
X34877685Y-93226450D01*
X34882202Y-93218000D01*
X36686540Y-93218000D01*
X36704240Y-93386410D01*
X36706327Y-93406261D01*
X36764819Y-93586279D01*
X36764825Y-93586293D01*
X36840015Y-93716525D01*
X36859467Y-93750216D01*
X36986129Y-93890888D01*
X37139270Y-94002151D01*
X37312197Y-94079144D01*
X37497354Y-94118500D01*
X37497357Y-94118500D01*
X37686643Y-94118500D01*
X37686646Y-94118500D01*
X37871803Y-94079144D01*
X38044730Y-94002151D01*
X38197871Y-93890888D01*
X38324533Y-93750216D01*
X38419179Y-93586284D01*
X38477674Y-93406256D01*
X38497460Y-93218000D01*
X39226540Y-93218000D01*
X39244240Y-93386410D01*
X39246327Y-93406261D01*
X39304819Y-93586279D01*
X39304825Y-93586293D01*
X39380015Y-93716525D01*
X39399467Y-93750216D01*
X39526129Y-93890888D01*
X39679270Y-94002151D01*
X39852197Y-94079144D01*
X40037354Y-94118500D01*
X40037357Y-94118500D01*
X40226643Y-94118500D01*
X40226646Y-94118500D01*
X40411803Y-94079144D01*
X40584730Y-94002151D01*
X40737871Y-93890888D01*
X40864533Y-93750216D01*
X40959179Y-93586284D01*
X41017674Y-93406256D01*
X41037460Y-93218000D01*
X41036934Y-93212996D01*
X42124417Y-93212996D01*
X42124417Y-93213003D01*
X42144698Y-93418929D01*
X42144699Y-93418934D01*
X42204768Y-93616954D01*
X42302316Y-93799452D01*
X42382934Y-93897685D01*
X42433590Y-93959410D01*
X42433595Y-93959414D01*
X42593547Y-94090683D01*
X42593548Y-94090683D01*
X42593550Y-94090685D01*
X42776046Y-94188232D01*
X42913997Y-94230078D01*
X42974065Y-94248300D01*
X42974070Y-94248301D01*
X43179997Y-94268583D01*
X43180000Y-94268583D01*
X43180003Y-94268583D01*
X43385929Y-94248301D01*
X43385934Y-94248300D01*
X43583954Y-94188232D01*
X43766450Y-94090685D01*
X43926410Y-93959410D01*
X44057685Y-93799450D01*
X44155232Y-93616954D01*
X44215300Y-93418934D01*
X44215301Y-93418929D01*
X44235583Y-93213003D01*
X44235583Y-93212996D01*
X44215301Y-93007070D01*
X44215300Y-93007065D01*
X44167570Y-92849720D01*
X44155232Y-92809046D01*
X44057685Y-92626550D01*
X43926410Y-92466590D01*
X43886510Y-92433845D01*
X43766452Y-92335316D01*
X43583954Y-92237768D01*
X43385934Y-92177699D01*
X43385929Y-92177698D01*
X43180003Y-92157417D01*
X43179997Y-92157417D01*
X42974070Y-92177698D01*
X42974065Y-92177699D01*
X42776045Y-92237768D01*
X42593547Y-92335316D01*
X42433595Y-92466585D01*
X42433585Y-92466595D01*
X42302316Y-92626547D01*
X42204768Y-92809045D01*
X42144699Y-93007065D01*
X42144698Y-93007070D01*
X42124417Y-93212996D01*
X41036934Y-93212996D01*
X41017674Y-93029744D01*
X40959179Y-92849716D01*
X40959176Y-92849711D01*
X40959174Y-92849706D01*
X40910551Y-92765490D01*
X40864533Y-92685784D01*
X40737871Y-92545112D01*
X40584730Y-92433849D01*
X40584725Y-92433847D01*
X40584722Y-92433845D01*
X40411805Y-92356857D01*
X40411803Y-92356856D01*
X40411800Y-92356855D01*
X40411799Y-92356855D01*
X40376580Y-92349369D01*
X40226646Y-92317500D01*
X40037354Y-92317500D01*
X39953536Y-92335316D01*
X39852200Y-92356855D01*
X39852194Y-92356857D01*
X39679277Y-92433845D01*
X39679268Y-92433850D01*
X39526129Y-92545111D01*
X39526124Y-92545116D01*
X39399469Y-92685781D01*
X39399465Y-92685787D01*
X39304825Y-92849706D01*
X39304819Y-92849720D01*
X39246327Y-93029738D01*
X39246326Y-93029742D01*
X39246326Y-93029744D01*
X39226540Y-93218000D01*
X38497460Y-93218000D01*
X38477674Y-93029744D01*
X38419179Y-92849716D01*
X38419176Y-92849711D01*
X38419174Y-92849706D01*
X38370551Y-92765490D01*
X38324533Y-92685784D01*
X38197871Y-92545112D01*
X38044730Y-92433849D01*
X38044725Y-92433847D01*
X38044722Y-92433845D01*
X37871805Y-92356857D01*
X37871803Y-92356856D01*
X37871800Y-92356855D01*
X37871799Y-92356855D01*
X37836580Y-92349369D01*
X37686646Y-92317500D01*
X37497354Y-92317500D01*
X37413536Y-92335316D01*
X37312200Y-92356855D01*
X37312194Y-92356857D01*
X37139277Y-92433845D01*
X37139268Y-92433850D01*
X36986129Y-92545111D01*
X36986124Y-92545116D01*
X36859469Y-92685781D01*
X36859465Y-92685787D01*
X36764825Y-92849706D01*
X36764819Y-92849720D01*
X36706327Y-93029738D01*
X36706326Y-93029742D01*
X36706326Y-93029744D01*
X36686540Y-93218000D01*
X34882202Y-93218000D01*
X34975232Y-93043954D01*
X35035300Y-92845934D01*
X35035301Y-92845929D01*
X35055583Y-92640003D01*
X35055583Y-92639996D01*
X35035301Y-92434070D01*
X35035300Y-92434065D01*
X35011879Y-92356856D01*
X34975232Y-92236046D01*
X34877685Y-92053550D01*
X34746410Y-91893590D01*
X34746404Y-91893585D01*
X34586452Y-91762316D01*
X34403954Y-91664768D01*
X34205934Y-91604699D01*
X34205929Y-91604698D01*
X34000003Y-91584417D01*
X33999997Y-91584417D01*
X33794070Y-91604698D01*
X33794065Y-91604699D01*
X33596045Y-91664768D01*
X33413547Y-91762316D01*
X33253595Y-91893585D01*
X33253585Y-91893595D01*
X33122316Y-92053547D01*
X33024768Y-92236045D01*
X32964699Y-92434065D01*
X32964698Y-92434070D01*
X32944417Y-92639996D01*
X32001050Y-92639996D01*
X32003922Y-88998922D01*
X32022875Y-88940746D01*
X32072404Y-88904821D01*
X32102922Y-88900000D01*
X33669605Y-88900000D01*
X33727796Y-88918907D01*
G37*
%TD.AperFunction*%
%TD*%
M02*
