%TF.GenerationSoftware,KiCad,Pcbnew,8.0.5*%
%TF.CreationDate,2024-12-21T15:11:58+00:00*%
%TF.ProjectId,EuroRackDaisy,4575726f-5261-4636-9b44-616973792e6b,rev?*%
%TF.SameCoordinates,Original*%
%TF.FileFunction,Copper,L1,Top*%
%TF.FilePolarity,Positive*%
%FSLAX46Y46*%
G04 Gerber Fmt 4.6, Leading zero omitted, Abs format (unit mm)*
G04 Created by KiCad (PCBNEW 8.0.5) date 2024-12-21 15:11:58*
%MOMM*%
%LPD*%
G01*
G04 APERTURE LIST*
G04 Aperture macros list*
%AMRoundRect*
0 Rectangle with rounded corners*
0 $1 Rounding radius*
0 $2 $3 $4 $5 $6 $7 $8 $9 X,Y pos of 4 corners*
0 Add a 4 corners polygon primitive as box body*
4,1,4,$2,$3,$4,$5,$6,$7,$8,$9,$2,$3,0*
0 Add four circle primitives for the rounded corners*
1,1,$1+$1,$2,$3*
1,1,$1+$1,$4,$5*
1,1,$1+$1,$6,$7*
1,1,$1+$1,$8,$9*
0 Add four rect primitives between the rounded corners*
20,1,$1+$1,$2,$3,$4,$5,0*
20,1,$1+$1,$4,$5,$6,$7,0*
20,1,$1+$1,$6,$7,$8,$9,0*
20,1,$1+$1,$8,$9,$2,$3,0*%
G04 Aperture macros list end*
%TA.AperFunction,ComponentPad*%
%ADD10R,1.700000X1.700000*%
%TD*%
%TA.AperFunction,ComponentPad*%
%ADD11O,1.700000X1.700000*%
%TD*%
%TA.AperFunction,ComponentPad*%
%ADD12C,1.700000*%
%TD*%
%TA.AperFunction,ComponentPad*%
%ADD13C,1.400000*%
%TD*%
%TA.AperFunction,ComponentPad*%
%ADD14O,1.400000X1.400000*%
%TD*%
%TA.AperFunction,ComponentPad*%
%ADD15R,2.200000X2.200000*%
%TD*%
%TA.AperFunction,ComponentPad*%
%ADD16O,2.200000X2.200000*%
%TD*%
%TA.AperFunction,ComponentPad*%
%ADD17C,1.600000*%
%TD*%
%TA.AperFunction,ComponentPad*%
%ADD18O,1.600000X1.600000*%
%TD*%
%TA.AperFunction,ComponentPad*%
%ADD19RoundRect,0.250000X0.600000X-0.600000X0.600000X0.600000X-0.600000X0.600000X-0.600000X-0.600000X0*%
%TD*%
%TA.AperFunction,ComponentPad*%
%ADD20R,1.600000X1.600000*%
%TD*%
%TA.AperFunction,ViaPad*%
%ADD21C,0.600000*%
%TD*%
%TA.AperFunction,Conductor*%
%ADD22C,0.600000*%
%TD*%
%TA.AperFunction,Conductor*%
%ADD23C,0.250000*%
%TD*%
%TA.AperFunction,Conductor*%
%ADD24C,0.400000*%
%TD*%
%TA.AperFunction,Conductor*%
%ADD25C,0.800000*%
%TD*%
G04 APERTURE END LIST*
D10*
%TO.P,J9,1,Pin_1*%
%TO.N,GNDA*%
X43180000Y-100833000D03*
D11*
%TO.P,J9,2,Pin_2*%
%TO.N,Net-(A1-AUDIO_OUT_2)*%
X43180000Y-98293000D03*
%TO.P,J9,3,Pin_3*%
%TO.N,Net-(A1-AUDIO_OUT_1)*%
X43180000Y-95753000D03*
%TO.P,J9,4,Pin_4*%
%TO.N,Net-(A1-AUDIO_IN_2)*%
X43180000Y-93213000D03*
%TO.P,J9,5,Pin_5*%
%TO.N,/ADC6*%
X43180000Y-90673000D03*
%TD*%
%TO.P,J1,1,Pin_1*%
%TO.N,/ADC6*%
X40100000Y-90170000D03*
%TO.P,J1,2,Pin_2*%
%TO.N,Net-(A1-AUDIO_IN_2)*%
X37560000Y-90170000D03*
%TD*%
D10*
%TO.P,J8,1,Pin_1*%
%TO.N,GND*%
X42570000Y-105000000D03*
D11*
%TO.P,J8,2,Pin_2*%
%TO.N,unconnected-(J8-Pin_2-Pad2)*%
X42570000Y-107540000D03*
%TO.P,J8,3,Pin_3*%
%TO.N,+12V*%
X42570000Y-110080000D03*
%TD*%
%TO.P,J7,1,Pin_1*%
%TO.N,Net-(A1-USB_ID)*%
X38600000Y-73914000D03*
%TO.P,J7,2,Pin_2*%
%TO.N,Net-(A1-USB_D_-)*%
X38600000Y-76454000D03*
%TO.P,J7,3,Pin_3*%
%TO.N,Net-(A1-USB_D_+)*%
X38600000Y-78994000D03*
%TO.P,J7,4,Pin_4*%
%TO.N,/IO13*%
X38600000Y-81534000D03*
%TO.P,J7,5,Pin_5*%
%TO.N,Net-(A1-USART1_RX)*%
X38600000Y-84074000D03*
%TD*%
%TO.P,J4,5,Pin_5*%
%TO.N,Net-(A1-SAI2_SCK)*%
X38600000Y-59944000D03*
%TO.P,J4,4,Pin_4*%
%TO.N,Net-(A1-SAI2_FS)*%
X38600000Y-62484000D03*
%TO.P,J4,3,Pin_3*%
%TO.N,Net-(A1-SAI2_SD_A)*%
X38600000Y-65024000D03*
%TO.P,J4,2,Pin_2*%
%TO.N,Net-(A1-SAI2_SD_B)*%
X38600000Y-67564000D03*
%TO.P,J4,1,Pin_1*%
%TO.N,Net-(A1-SAI2_MCLK)*%
X38600000Y-70104000D03*
%TD*%
D10*
%TO.P,A1,1,USB_ID*%
%TO.N,Net-(A1-USB_ID)*%
X34000000Y-52000000D03*
D12*
%TO.P,A1,2,SD_DATA_3*%
%TO.N,/IO1*%
X34000000Y-54540000D03*
%TO.P,A1,3,SD_DATA_2*%
%TO.N,/IO2*%
X34000000Y-57080000D03*
%TO.P,A1,4,SD_DATA_1*%
%TO.N,/IO3*%
X34000000Y-59620000D03*
%TO.P,A1,5,SD_DATA_0*%
%TO.N,/IO4*%
X34000000Y-62160000D03*
%TO.P,A1,6,SD_CMD*%
%TO.N,/IO5*%
X34000000Y-64700000D03*
%TO.P,A1,7,SD_CLK*%
%TO.N,/IO6*%
X34000000Y-67240000D03*
%TO.P,A1,8,SPI1_CS*%
%TO.N,/IO7*%
X34000000Y-69780000D03*
%TO.P,A1,9,SPI1_SCK*%
%TO.N,/IO8*%
X34000000Y-72320000D03*
%TO.P,A1,10,SPI1_POCI*%
%TO.N,/IO9*%
X34000000Y-74860000D03*
%TO.P,A1,11,SPI1_PICO*%
%TO.N,/IO10*%
X34000000Y-77400000D03*
%TO.P,A1,12,I2C1_SCL*%
%TO.N,/IO11*%
X34000000Y-79940000D03*
%TO.P,A1,13,I2C1_SDA*%
%TO.N,/IO12*%
X34000000Y-82480000D03*
%TO.P,A1,14,USART1_TX*%
%TO.N,/IO13*%
X34000000Y-85020000D03*
%TO.P,A1,15,USART1_RX*%
%TO.N,Net-(A1-USART1_RX)*%
X34000000Y-87560000D03*
%TO.P,A1,16,AUDIO_IN_1*%
%TO.N,/ADC6*%
X34000000Y-90100000D03*
%TO.P,A1,17,AUDIO_IN_2*%
%TO.N,Net-(A1-AUDIO_IN_2)*%
X34000000Y-92640000D03*
%TO.P,A1,18,AUDIO_OUT_1*%
%TO.N,Net-(A1-AUDIO_OUT_1)*%
X34000000Y-95180000D03*
%TO.P,A1,19,AUDIO_OUT_2*%
%TO.N,Net-(A1-AUDIO_OUT_2)*%
X34000000Y-97720000D03*
%TO.P,A1,20,AGND*%
%TO.N,GNDA*%
X34000000Y-100260000D03*
%TO.P,A1,21,3V3_A*%
%TO.N,unconnected-(A1-3V3_A-Pad21)*%
X18760000Y-100260000D03*
%TO.P,A1,22,ADC_0*%
%TO.N,/ADC0*%
X18760000Y-97720000D03*
%TO.P,A1,23,ADC_1*%
%TO.N,/ADC1*%
X18760000Y-95180000D03*
%TO.P,A1,24,ADC_2*%
%TO.N,/ADC2*%
X18760000Y-92640000D03*
%TO.P,A1,25,ADC_3*%
%TO.N,/ADC3*%
X18760000Y-90100000D03*
%TO.P,A1,26,ADC_4*%
%TO.N,/ADC4*%
X18760000Y-87560000D03*
%TO.P,A1,27,ADC_5*%
%TO.N,/ADC5*%
X18760000Y-85020000D03*
%TO.P,A1,28,ADC_6*%
%TO.N,/IO0*%
X18760000Y-82480000D03*
%TO.P,A1,29,DAC_OUT2*%
%TO.N,/IO22*%
X18760000Y-79940000D03*
%TO.P,A1,30,DAC_OUT1*%
%TO.N,/IO16*%
X18760000Y-77400000D03*
%TO.P,A1,31,SAI2_MCLK*%
%TO.N,Net-(A1-SAI2_MCLK)*%
X18760000Y-74860000D03*
%TO.P,A1,32,SAI2_SD_B*%
%TO.N,Net-(A1-SAI2_SD_B)*%
X18760000Y-72320000D03*
%TO.P,A1,33,SAI2_SD_A*%
%TO.N,Net-(A1-SAI2_SD_A)*%
X18760000Y-69780000D03*
%TO.P,A1,34,SAI2_FS*%
%TO.N,Net-(A1-SAI2_FS)*%
X18760000Y-67240000D03*
%TO.P,A1,35,SAI2_SCK*%
%TO.N,Net-(A1-SAI2_SCK)*%
X18760000Y-64700000D03*
%TO.P,A1,36,USB_D_-*%
%TO.N,Net-(A1-USB_D_-)*%
X18760000Y-62160000D03*
%TO.P,A1,37,USB_D_+*%
%TO.N,Net-(A1-USB_D_+)*%
X18760000Y-59620000D03*
%TO.P,A1,38,3V3_D*%
%TO.N,VCC*%
X18760000Y-57080000D03*
%TO.P,A1,39,VIN*%
%TO.N,+12V*%
X18760000Y-54540000D03*
%TO.P,A1,40,DGND*%
%TO.N,GND*%
X18760000Y-52000000D03*
%TD*%
D13*
%TO.P,R3,1*%
%TO.N,/ADC7*%
X37592000Y-100838000D03*
D14*
%TO.P,R3,2*%
%TO.N,Net-(A1-AUDIO_OUT_2)*%
X37592000Y-93218000D03*
%TD*%
D10*
%TO.P,J3,1,Pin_1*%
%TO.N,/IO22*%
X22510000Y-60000000D03*
D11*
%TO.P,J3,2,Pin_2*%
%TO.N,/ADC7*%
X22510000Y-62540000D03*
%TO.P,J3,3,Pin_3*%
%TO.N,/ADC6*%
X22510000Y-65080000D03*
%TO.P,J3,4,Pin_4*%
%TO.N,/ADC5*%
X22510000Y-67620000D03*
%TO.P,J3,5,Pin_5*%
%TO.N,/ADC4*%
X22510000Y-70160000D03*
%TO.P,J3,6,Pin_6*%
%TO.N,/ADC3*%
X22510000Y-72700000D03*
%TO.P,J3,7,Pin_7*%
%TO.N,/ADC2*%
X22510000Y-75240000D03*
%TO.P,J3,8,Pin_8*%
%TO.N,/ADC1*%
X22510000Y-77780000D03*
%TO.P,J3,9,Pin_9*%
%TO.N,/ADC0*%
X22510000Y-80320000D03*
%TO.P,J3,10,Pin_10*%
%TO.N,/IO16*%
X22510000Y-82860000D03*
%TO.P,J3,11,Pin_11*%
%TO.N,/IO13*%
X22510000Y-85400000D03*
%TO.P,J3,12,Pin_12*%
%TO.N,/IO12*%
X22510000Y-87940000D03*
%TO.P,J3,13,Pin_13*%
%TO.N,VCC*%
X22510000Y-90480000D03*
%TO.P,J3,14,Pin_14*%
%TO.N,GND*%
X22510000Y-93020000D03*
%TD*%
D13*
%TO.P,R2,1*%
%TO.N,/ADC7*%
X40132000Y-100838000D03*
D14*
%TO.P,R2,2*%
%TO.N,Net-(A1-AUDIO_OUT_1)*%
X40132000Y-93218000D03*
%TD*%
D10*
%TO.P,J2,1,Pin_1*%
%TO.N,/IO0*%
X30130000Y-60000000D03*
D11*
%TO.P,J2,2,Pin_2*%
%TO.N,/IO1*%
X30130000Y-62540000D03*
%TO.P,J2,3,Pin_3*%
%TO.N,/IO2*%
X30130000Y-65080000D03*
%TO.P,J2,4,Pin_4*%
%TO.N,/IO3*%
X30130000Y-67620000D03*
%TO.P,J2,5,Pin_5*%
%TO.N,/IO4*%
X30130000Y-70160000D03*
%TO.P,J2,6,Pin_6*%
%TO.N,/IO5*%
X30130000Y-72700000D03*
%TO.P,J2,7,Pin_7*%
%TO.N,/IO6*%
X30130000Y-75240000D03*
%TO.P,J2,8,Pin_8*%
%TO.N,/IO7*%
X30130000Y-77780000D03*
%TO.P,J2,9,Pin_9*%
%TO.N,/IO8*%
X30130000Y-80320000D03*
%TO.P,J2,10,Pin_10*%
%TO.N,/IO9*%
X30130000Y-82860000D03*
%TO.P,J2,11,Pin_11*%
%TO.N,/IO10*%
X30130000Y-85400000D03*
%TO.P,J2,12,Pin_12*%
%TO.N,/IO11*%
X30130000Y-87940000D03*
%TO.P,J2,13,Pin_13*%
%TO.N,VCC*%
X30130000Y-90480000D03*
%TO.P,J2,14,Pin_14*%
%TO.N,GND*%
X30130000Y-93020000D03*
%TD*%
D15*
%TO.P,D1,1,K*%
%TO.N,Net-(D1-K)*%
X30010000Y-127040000D03*
D16*
%TO.P,D1,2,A*%
%TO.N,Net-(D1-A)*%
X19850000Y-127040000D03*
%TD*%
D17*
%TO.P,R1,1*%
%TO.N,Net-(D1-K)*%
X33740000Y-127000000D03*
D18*
%TO.P,R1,2*%
%TO.N,+12V*%
X41360000Y-127000000D03*
%TD*%
D10*
%TO.P,J6,1,Pin_1*%
%TO.N,GND*%
X17430000Y-105000000D03*
D11*
%TO.P,J6,2,Pin_2*%
%TO.N,unconnected-(J6-Pin_2-Pad2)*%
X17430000Y-107540000D03*
%TO.P,J6,3,Pin_3*%
%TO.N,+12V*%
X17430000Y-110080000D03*
%TD*%
D19*
%TO.P,J5,1,Pin_1*%
%TO.N,unconnected-(J5-Pin_1-Pad1)*%
X38890000Y-136640000D03*
D12*
%TO.P,J5,2,Pin_2*%
%TO.N,unconnected-(J5-Pin_2-Pad2)*%
X38890000Y-134100000D03*
%TO.P,J5,3,Pin_3*%
%TO.N,unconnected-(J5-Pin_3-Pad3)*%
X36350000Y-136640000D03*
%TO.P,J5,4,Pin_4*%
%TO.N,unconnected-(J5-Pin_4-Pad4)*%
X36350000Y-134100000D03*
%TO.P,J5,5,Pin_5*%
%TO.N,unconnected-(J5-Pin_5-Pad5)*%
X33810000Y-136640000D03*
%TO.P,J5,6,Pin_6*%
%TO.N,unconnected-(J5-Pin_6-Pad6)*%
X33810000Y-134100000D03*
%TO.P,J5,7,Pin_7*%
%TO.N,GND*%
X31270000Y-136640000D03*
%TO.P,J5,8,Pin_8*%
X31270000Y-134100000D03*
%TO.P,J5,9,Pin_9*%
%TO.N,Net-(D1-A)*%
X28730000Y-136640000D03*
%TO.P,J5,10,Pin_10*%
X28730000Y-134100000D03*
%TO.P,J5,11,Pin_11*%
%TO.N,unconnected-(J5-Pin_11-Pad11)*%
X26190000Y-136640000D03*
%TO.P,J5,12,Pin_12*%
%TO.N,unconnected-(J5-Pin_12-Pad12)*%
X26190000Y-134100000D03*
%TO.P,J5,13,Pin_13*%
%TO.N,unconnected-(J5-Pin_13-Pad13)*%
X23650000Y-136640000D03*
%TO.P,J5,14,Pin_14*%
%TO.N,unconnected-(J5-Pin_14-Pad14)*%
X23650000Y-134100000D03*
%TO.P,J5,15,Pin_15*%
%TO.N,unconnected-(J5-Pin_15-Pad15)*%
X21110000Y-136640000D03*
%TO.P,J5,16,Pin_16*%
%TO.N,unconnected-(J5-Pin_16-Pad16)*%
X21110000Y-134100000D03*
%TD*%
D20*
%TO.P,C1,1*%
%TO.N,+12V*%
X30970000Y-121560000D03*
D17*
%TO.P,C1,2*%
%TO.N,GND*%
X28470000Y-121560000D03*
%TD*%
D21*
%TO.N,GND*%
X26924000Y-96266000D03*
%TO.N,GNDA*%
X30226000Y-100330000D03*
X38862000Y-99314000D03*
X32512000Y-89916000D03*
X33020000Y-93980000D03*
X35560000Y-89916000D03*
X36322000Y-91694000D03*
X36322000Y-93980000D03*
X37592000Y-95758000D03*
X41656000Y-89408000D03*
X41656000Y-93218000D03*
X38862000Y-93980000D03*
X41656000Y-96520000D03*
%TO.N,GND*%
X26416000Y-102870000D03*
X17272000Y-98806000D03*
X17780000Y-73660000D03*
X17780000Y-71120000D03*
X42672000Y-81280000D03*
X42926000Y-67818000D03*
X26416000Y-51562000D03*
X42926000Y-52578000D03*
X38608000Y-71882000D03*
X37338000Y-57658000D03*
X37338000Y-61214000D03*
X37338000Y-63500000D03*
X35052000Y-68580000D03*
X35052000Y-63500000D03*
X28194000Y-88138000D03*
X23876000Y-67818000D03*
X23876000Y-74676000D03*
X29464000Y-56642000D03*
X25146000Y-56642000D03*
X30734000Y-54610000D03*
X21844000Y-54610000D03*
%TO.N,Net-(A1-SAI2_SCK)*%
X32258000Y-57150000D03*
%TO.N,GND*%
X27940000Y-74676000D03*
X27940000Y-66294000D03*
X27432000Y-59182000D03*
%TO.N,Net-(A1-SAI2_SD_B)*%
X27940000Y-68834000D03*
%TO.N,Net-(A1-SAI2_MCLK)*%
X27940000Y-71374000D03*
%TO.N,GND*%
X17272000Y-91440000D03*
X17272000Y-83820000D03*
X23876000Y-89154000D03*
X25856401Y-88133799D03*
X28194000Y-85344000D03*
X25869262Y-85351015D03*
X25840208Y-74690092D03*
X25849893Y-82542519D03*
X20320000Y-67564000D03*
X20320000Y-63500000D03*
X24892000Y-64516000D03*
X24892000Y-61468000D03*
X41148000Y-120142000D03*
X34290000Y-110490000D03*
X17860000Y-146370000D03*
X38608000Y-114046000D03*
X24638000Y-130810000D03*
X41390000Y-130750000D03*
X24384000Y-110490000D03*
X41470000Y-146640000D03*
X32980000Y-130840000D03*
X18050000Y-130950000D03*
X21082000Y-114808000D03*
X29972000Y-148082000D03*
%TD*%
D22*
%TO.N,VCC*%
X26708000Y-88684000D02*
X28504000Y-90480000D01*
X28504000Y-90480000D02*
X30130000Y-90480000D01*
X26708000Y-60928000D02*
X26708000Y-88684000D01*
X22860000Y-57080000D02*
X26708000Y-60928000D01*
X18760000Y-57080000D02*
X22860000Y-57080000D01*
D23*
%TO.N,/IO22*%
X21715000Y-60795000D02*
X22510000Y-60000000D01*
X18463299Y-60795000D02*
X21715000Y-60795000D01*
X17035000Y-62223299D02*
X18463299Y-60795000D01*
X17035000Y-78215000D02*
X17035000Y-62223299D01*
X17035000Y-78215000D02*
X18760000Y-79940000D01*
%TO.N,Net-(A1-SAI2_MCLK)*%
X28430149Y-72661851D02*
X27940000Y-72171702D01*
X27940000Y-72171702D02*
X27940000Y-71374000D01*
X29643299Y-73875000D02*
X28430149Y-72661851D01*
%TO.N,Net-(A1-SAI2_SD_B)*%
X27940000Y-69631702D02*
X27940000Y-68834000D01*
X28557149Y-70248851D02*
X27940000Y-69631702D01*
X29682299Y-71374000D02*
X28557149Y-70248851D01*
X35052000Y-71120000D02*
X32512000Y-71120000D01*
X38608000Y-67564000D02*
X35052000Y-71120000D01*
X32512000Y-71120000D02*
X32258000Y-71374000D01*
X32258000Y-71374000D02*
X29682299Y-71374000D01*
%TO.N,/ADC7*%
X20828000Y-64222000D02*
X22510000Y-62540000D01*
X21487000Y-66445000D02*
X20828000Y-65786000D01*
X24027000Y-66445000D02*
X21487000Y-66445000D01*
X24667000Y-67085000D02*
X24027000Y-66445000D01*
X24667000Y-90678000D02*
X24667000Y-67085000D01*
X20828000Y-65786000D02*
X20828000Y-64222000D01*
D22*
%TO.N,+12V*%
X17088000Y-54540000D02*
X18760000Y-54540000D01*
X15800000Y-55828000D02*
X17088000Y-54540000D01*
X15800000Y-108450000D02*
X15800000Y-55828000D01*
X17430000Y-110080000D02*
X15800000Y-108450000D01*
D23*
%TO.N,/ADC6*%
X25197000Y-92507000D02*
X25197000Y-89662000D01*
X27686000Y-94996000D02*
X25197000Y-92507000D01*
X30988000Y-94996000D02*
X27686000Y-94996000D01*
X32205000Y-93779000D02*
X30988000Y-94996000D01*
X32205000Y-91895000D02*
X32205000Y-93779000D01*
X34000000Y-90100000D02*
X32205000Y-91895000D01*
X25197000Y-66091000D02*
X25197000Y-89662000D01*
D24*
%TO.N,GNDA*%
X44300000Y-99713000D02*
X44300000Y-99314000D01*
X43180000Y-100833000D02*
X44300000Y-99713000D01*
D23*
%TO.N,Net-(A1-AUDIO_OUT_1)*%
X36987000Y-92193000D02*
X34000000Y-95180000D01*
X40132000Y-93218000D02*
X39107000Y-92193000D01*
X39107000Y-92193000D02*
X36987000Y-92193000D01*
%TO.N,Net-(A1-AUDIO_OUT_2)*%
X41651000Y-98293000D02*
X43180000Y-98293000D01*
X37592000Y-94234000D02*
X41651000Y-98293000D01*
X37592000Y-94128000D02*
X37592000Y-94234000D01*
X37592000Y-93218000D02*
X37592000Y-94128000D01*
X34000000Y-97720000D02*
X37592000Y-94128000D01*
%TO.N,/ADC7*%
X29464000Y-101854000D02*
X24667000Y-97057000D01*
X36576000Y-101854000D02*
X29464000Y-101854000D01*
X37592000Y-100838000D02*
X36576000Y-101854000D01*
X24667000Y-97057000D02*
X24667000Y-90678000D01*
X40132000Y-100838000D02*
X37592000Y-100838000D01*
%TO.N,Net-(A1-AUDIO_OUT_2)*%
X42667000Y-98293000D02*
X43180000Y-98293000D01*
%TO.N,Net-(A1-AUDIO_OUT_1)*%
X42667000Y-95753000D02*
X43180000Y-95753000D01*
X40132000Y-93218000D02*
X42667000Y-95753000D01*
%TO.N,Net-(A1-AUDIO_IN_2)*%
X41661000Y-91694000D02*
X39121000Y-91694000D01*
X39121000Y-91694000D02*
X37597000Y-90170000D01*
X43180000Y-93213000D02*
X41661000Y-91694000D01*
%TO.N,/ADC6*%
X40640000Y-90673000D02*
X40137000Y-90170000D01*
X43180000Y-90673000D02*
X40640000Y-90673000D01*
%TO.N,Net-(A1-USART1_RX)*%
X37486000Y-84074000D02*
X38600000Y-84074000D01*
X34000000Y-87560000D02*
X37486000Y-84074000D01*
%TO.N,/IO13*%
X37486000Y-81534000D02*
X38600000Y-81534000D01*
X34000000Y-85020000D02*
X37486000Y-81534000D01*
%TO.N,Net-(A1-USB_ID)*%
X41148000Y-71366000D02*
X41148000Y-70612000D01*
X38600000Y-73914000D02*
X41148000Y-71366000D01*
X41148000Y-59148000D02*
X41148000Y-70612000D01*
%TO.N,/ADC6*%
X38952000Y-88995000D02*
X35105000Y-88995000D01*
X40127000Y-90170000D02*
X38952000Y-88995000D01*
X35105000Y-88995000D02*
X34000000Y-90100000D01*
%TO.N,Net-(A1-AUDIO_IN_2)*%
X34000000Y-92640000D02*
X36470000Y-90170000D01*
X36470000Y-90170000D02*
X37587000Y-90170000D01*
%TO.N,/IO1*%
X31305000Y-61365000D02*
X30130000Y-62540000D01*
X31305000Y-55563000D02*
X31305000Y-61365000D01*
X34000000Y-54540000D02*
X32328000Y-54540000D01*
X32328000Y-54540000D02*
X31305000Y-55563000D01*
D25*
%TO.N,+12V*%
X37748000Y-110080000D02*
X30970000Y-116858000D01*
X30970000Y-116858000D02*
X30970000Y-121560000D01*
X42570000Y-110080000D02*
X37748000Y-110080000D01*
X35454000Y-121560000D02*
X30970000Y-121560000D01*
X40894000Y-127000000D02*
X35454000Y-121560000D01*
X41360000Y-127000000D02*
X40894000Y-127000000D01*
D23*
%TO.N,/ADC6*%
X22510000Y-65080000D02*
X24186000Y-65080000D01*
X24186000Y-65080000D02*
X25197000Y-66091000D01*
%TO.N,Net-(A1-SAI2_SCK)*%
X32268298Y-57150000D02*
X33152149Y-56266149D01*
X33152149Y-56266149D02*
X33538299Y-55880000D01*
X32258000Y-57150000D02*
X32268298Y-57150000D01*
X34544000Y-55880000D02*
X38608000Y-59944000D01*
X33538299Y-55880000D02*
X34544000Y-55880000D01*
%TO.N,Net-(A1-USB_ID)*%
X34000000Y-52000000D02*
X41148000Y-59148000D01*
%TO.N,Net-(A1-AUDIO_IN_2)*%
X37527000Y-90100000D02*
X37597000Y-90170000D01*
%TO.N,/ADC2*%
X21335000Y-90065000D02*
X18760000Y-92640000D01*
X22510000Y-75240000D02*
X21335000Y-76415000D01*
X21335000Y-76415000D02*
X21335000Y-90065000D01*
%TO.N,/ADC3*%
X20835000Y-74375000D02*
X20835000Y-88025000D01*
X22510000Y-72700000D02*
X20835000Y-74375000D01*
X20835000Y-88025000D02*
X18760000Y-90100000D01*
%TO.N,/ADC4*%
X20385000Y-72285000D02*
X20385000Y-85935000D01*
X20385000Y-85935000D02*
X18760000Y-87560000D01*
X22510000Y-70160000D02*
X20385000Y-72285000D01*
%TO.N,/ADC5*%
X19935000Y-83845000D02*
X18760000Y-85020000D01*
X19935000Y-70195000D02*
X19935000Y-83845000D01*
X22510000Y-67620000D02*
X19935000Y-70195000D01*
%TO.N,/IO11*%
X32205000Y-85865000D02*
X30130000Y-87940000D01*
X34000000Y-79940000D02*
X32205000Y-81735000D01*
X32205000Y-81735000D02*
X32205000Y-85865000D01*
%TO.N,/IO10*%
X31755000Y-79645000D02*
X31755000Y-83775000D01*
X31755000Y-83775000D02*
X30130000Y-85400000D01*
X34000000Y-77400000D02*
X31755000Y-79645000D01*
%TO.N,/IO9*%
X31305000Y-81685000D02*
X30130000Y-82860000D01*
X34000000Y-74860000D02*
X31305000Y-77555000D01*
X31305000Y-77555000D02*
X31305000Y-81685000D01*
%TO.N,/IO4*%
X32655000Y-63505000D02*
X32655000Y-67635000D01*
X32655000Y-67635000D02*
X30130000Y-70160000D01*
X34000000Y-62160000D02*
X32655000Y-63505000D01*
%TO.N,/IO3*%
X32205000Y-65545000D02*
X30130000Y-67620000D01*
X32205000Y-61415000D02*
X32205000Y-65545000D01*
X34000000Y-59620000D02*
X32205000Y-61415000D01*
%TO.N,/IO2*%
X31755000Y-63455000D02*
X30130000Y-65080000D01*
X31755000Y-59325000D02*
X31755000Y-63455000D01*
X34000000Y-57080000D02*
X31755000Y-59325000D01*
D25*
%TO.N,GND*%
X31270000Y-134100000D02*
X31270000Y-132616000D01*
X31270000Y-136640000D02*
X31270000Y-138148000D01*
%TO.N,Net-(D1-K)*%
X33740000Y-127000000D02*
X30050000Y-127000000D01*
X30050000Y-127000000D02*
X30010000Y-127040000D01*
%TO.N,Net-(D1-A)*%
X28730000Y-132020000D02*
X28730000Y-134100000D01*
X23750000Y-127040000D02*
X28730000Y-132020000D01*
X19850000Y-127040000D02*
X23750000Y-127040000D01*
X28730000Y-134100000D02*
X28730000Y-136640000D01*
D23*
%TO.N,Net-(A1-SAI2_MCLK)*%
X38608000Y-70104000D02*
X35217000Y-73495000D01*
X35217000Y-73495000D02*
X32638000Y-73495000D01*
X32638000Y-73495000D02*
X32258000Y-73875000D01*
X32258000Y-73875000D02*
X29643299Y-73875000D01*
%TD*%
%TA.AperFunction,Conductor*%
%TO.N,GND*%
G36*
X30804075Y-134292993D02*
G01*
X30869901Y-134407007D01*
X30962993Y-134500099D01*
X31077007Y-134565925D01*
X31196357Y-134597905D01*
X30550215Y-135244046D01*
X30592417Y-135273598D01*
X30592424Y-135273601D01*
X30606735Y-135280275D01*
X30651484Y-135322003D01*
X30663159Y-135382064D01*
X30637302Y-135437517D01*
X30606739Y-135459723D01*
X30592429Y-135466396D01*
X30592420Y-135466401D01*
X30550216Y-135495951D01*
X31196359Y-136142094D01*
X31077007Y-136174075D01*
X30962993Y-136239901D01*
X30869901Y-136332993D01*
X30804075Y-136447007D01*
X30772094Y-136566359D01*
X30125951Y-135920216D01*
X30096401Y-135962420D01*
X30096394Y-135962432D01*
X29996570Y-136176505D01*
X29941183Y-136383213D01*
X29907859Y-136434527D01*
X29850737Y-136456454D01*
X29791637Y-136440618D01*
X29753132Y-136393068D01*
X29750819Y-136386328D01*
X29706401Y-136239901D01*
X29705232Y-136236046D01*
X29607685Y-136053550D01*
X29476410Y-135893590D01*
X29476408Y-135893588D01*
X29476407Y-135893587D01*
X29366695Y-135803549D01*
X29333708Y-135752018D01*
X29330500Y-135727021D01*
X29330500Y-135012977D01*
X29349407Y-134954786D01*
X29366691Y-134936452D01*
X29476410Y-134846410D01*
X29607685Y-134686450D01*
X29705232Y-134503954D01*
X29750819Y-134353670D01*
X29785804Y-134303474D01*
X29843612Y-134283428D01*
X29902163Y-134301189D01*
X29939092Y-134349973D01*
X29941183Y-134356786D01*
X29996569Y-134563489D01*
X30096400Y-134777579D01*
X30096400Y-134777580D01*
X30125951Y-134819782D01*
X30772093Y-134173639D01*
X30804075Y-134292993D01*
G37*
%TD.AperFunction*%
%TA.AperFunction,Conductor*%
G36*
X44458691Y-50519407D02*
G01*
X44494655Y-50568907D01*
X44499500Y-50599500D01*
X44499500Y-88547000D01*
X44480593Y-88605191D01*
X44431093Y-88641155D01*
X44400500Y-88646000D01*
X34591950Y-88646000D01*
X34533759Y-88627093D01*
X34497795Y-88577593D01*
X34497795Y-88516407D01*
X34533759Y-88466907D01*
X34545275Y-88459693D01*
X34586450Y-88437685D01*
X34746410Y-88306410D01*
X34877685Y-88146450D01*
X34975232Y-87963954D01*
X35035300Y-87765934D01*
X35035301Y-87765929D01*
X35055583Y-87560003D01*
X35055583Y-87559996D01*
X35035301Y-87354070D01*
X35035300Y-87354065D01*
X35021319Y-87307977D01*
X34975232Y-87156046D01*
X34971196Y-87148496D01*
X34960439Y-87088265D01*
X34987140Y-87033213D01*
X34988453Y-87031872D01*
X37501680Y-84518645D01*
X37556195Y-84490870D01*
X37616627Y-84500441D01*
X37658992Y-84541982D01*
X37722316Y-84660452D01*
X37819775Y-84779206D01*
X37853590Y-84820410D01*
X37853595Y-84820414D01*
X38013547Y-84951683D01*
X38013548Y-84951683D01*
X38013550Y-84951685D01*
X38196046Y-85049232D01*
X38333997Y-85091078D01*
X38394065Y-85109300D01*
X38394070Y-85109301D01*
X38599997Y-85129583D01*
X38600000Y-85129583D01*
X38600003Y-85129583D01*
X38805929Y-85109301D01*
X38805934Y-85109300D01*
X39003954Y-85049232D01*
X39186450Y-84951685D01*
X39346410Y-84820410D01*
X39477685Y-84660450D01*
X39575232Y-84477954D01*
X39635300Y-84279934D01*
X39635301Y-84279929D01*
X39655583Y-84074003D01*
X39655583Y-84073996D01*
X39635301Y-83868070D01*
X39635300Y-83868065D01*
X39599030Y-83748500D01*
X39575232Y-83670046D01*
X39477685Y-83487550D01*
X39451162Y-83455232D01*
X39346414Y-83327595D01*
X39346410Y-83327590D01*
X39268869Y-83263954D01*
X39186452Y-83196316D01*
X39003954Y-83098768D01*
X38805934Y-83038699D01*
X38805929Y-83038698D01*
X38600003Y-83018417D01*
X38599997Y-83018417D01*
X38394070Y-83038698D01*
X38394065Y-83038699D01*
X38196045Y-83098768D01*
X38013547Y-83196316D01*
X37853595Y-83327585D01*
X37853585Y-83327595D01*
X37722316Y-83487547D01*
X37624769Y-83670043D01*
X37624768Y-83670045D01*
X37624768Y-83670046D01*
X37622282Y-83678241D01*
X37587297Y-83728436D01*
X37529488Y-83748481D01*
X37527546Y-83748500D01*
X37443147Y-83748500D01*
X37401754Y-83759591D01*
X37360360Y-83770682D01*
X37305864Y-83802145D01*
X37305865Y-83802146D01*
X37286138Y-83813535D01*
X34528175Y-86571496D01*
X34473658Y-86599273D01*
X34413226Y-86589702D01*
X34411506Y-86588804D01*
X34403957Y-86584769D01*
X34403954Y-86584768D01*
X34205934Y-86524699D01*
X34205929Y-86524698D01*
X34000003Y-86504417D01*
X33999997Y-86504417D01*
X33794070Y-86524698D01*
X33794065Y-86524699D01*
X33596045Y-86584768D01*
X33413547Y-86682316D01*
X33253595Y-86813585D01*
X33253585Y-86813595D01*
X33122316Y-86973547D01*
X33024768Y-87156045D01*
X32964699Y-87354065D01*
X32964698Y-87354070D01*
X32944417Y-87559996D01*
X32944417Y-87560003D01*
X32964698Y-87765929D01*
X32964699Y-87765934D01*
X33024768Y-87963954D01*
X33122316Y-88146452D01*
X33253585Y-88306404D01*
X33253590Y-88306410D01*
X33253595Y-88306414D01*
X33413547Y-88437683D01*
X33413548Y-88437683D01*
X33413550Y-88437685D01*
X33454719Y-88459690D01*
X33497125Y-88503796D01*
X33505508Y-88564404D01*
X33476665Y-88618365D01*
X33421614Y-88645066D01*
X33408050Y-88646000D01*
X31750000Y-88646000D01*
X31748652Y-93734037D01*
X31729729Y-93792223D01*
X31719656Y-93804014D01*
X30882169Y-94641503D01*
X30827652Y-94669281D01*
X30812165Y-94670500D01*
X27861834Y-94670500D01*
X27803643Y-94651593D01*
X27791830Y-94641504D01*
X25551496Y-92401169D01*
X25523719Y-92346652D01*
X25522500Y-92331165D01*
X25522500Y-66048149D01*
X25522500Y-66048147D01*
X25522049Y-66046465D01*
X25500318Y-65965361D01*
X25500316Y-65965358D01*
X25500316Y-65965356D01*
X25457468Y-65891142D01*
X25457466Y-65891140D01*
X25457465Y-65891138D01*
X24385862Y-64819535D01*
X24385859Y-64819533D01*
X24385857Y-64819531D01*
X24311642Y-64776683D01*
X24311644Y-64776683D01*
X24279521Y-64768076D01*
X24228853Y-64754500D01*
X24228851Y-64754500D01*
X23582454Y-64754500D01*
X23524263Y-64735593D01*
X23488299Y-64686093D01*
X23487732Y-64684290D01*
X23485232Y-64676046D01*
X23387685Y-64493550D01*
X23341727Y-64437550D01*
X23275480Y-64356827D01*
X23256410Y-64333590D01*
X23256404Y-64333585D01*
X23096452Y-64202316D01*
X22913954Y-64104768D01*
X22715934Y-64044699D01*
X22715929Y-64044698D01*
X22510003Y-64024417D01*
X22509997Y-64024417D01*
X22304070Y-64044698D01*
X22304065Y-64044699D01*
X22106045Y-64104768D01*
X21923547Y-64202316D01*
X21763595Y-64333585D01*
X21763585Y-64333595D01*
X21632316Y-64493547D01*
X21534768Y-64676045D01*
X21474699Y-64874065D01*
X21474698Y-64874070D01*
X21454417Y-65079996D01*
X21454417Y-65080003D01*
X21474698Y-65285929D01*
X21474699Y-65285934D01*
X21534768Y-65483954D01*
X21632316Y-65666452D01*
X21763585Y-65826404D01*
X21763590Y-65826410D01*
X21763595Y-65826414D01*
X21906840Y-65943972D01*
X21939827Y-65995503D01*
X21936225Y-66056583D01*
X21897410Y-66103879D01*
X21844035Y-66119500D01*
X21662833Y-66119500D01*
X21604642Y-66100593D01*
X21592829Y-66090503D01*
X21182496Y-65680169D01*
X21154719Y-65625653D01*
X21153500Y-65610166D01*
X21153500Y-64397834D01*
X21172407Y-64339643D01*
X21182490Y-64327836D01*
X21981825Y-63528500D01*
X22036340Y-63500725D01*
X22096772Y-63510296D01*
X22098463Y-63511178D01*
X22106046Y-63515232D01*
X22257977Y-63561319D01*
X22304065Y-63575300D01*
X22304070Y-63575301D01*
X22509997Y-63595583D01*
X22510000Y-63595583D01*
X22510003Y-63595583D01*
X22715929Y-63575301D01*
X22715934Y-63575300D01*
X22913954Y-63515232D01*
X23096450Y-63417685D01*
X23256410Y-63286410D01*
X23387685Y-63126450D01*
X23485232Y-62943954D01*
X23545300Y-62745934D01*
X23545301Y-62745929D01*
X23565583Y-62540003D01*
X23565583Y-62539996D01*
X23545301Y-62334070D01*
X23545300Y-62334065D01*
X23515428Y-62235590D01*
X23485232Y-62136046D01*
X23387685Y-61953550D01*
X23341727Y-61897550D01*
X23256414Y-61793595D01*
X23256410Y-61793590D01*
X23256404Y-61793585D01*
X23096452Y-61662316D01*
X22913954Y-61564768D01*
X22715934Y-61504699D01*
X22715929Y-61504698D01*
X22510003Y-61484417D01*
X22509997Y-61484417D01*
X22304070Y-61504698D01*
X22304065Y-61504699D01*
X22106045Y-61564768D01*
X21923547Y-61662316D01*
X21763595Y-61793585D01*
X21763585Y-61793595D01*
X21632316Y-61953547D01*
X21534768Y-62136045D01*
X21474699Y-62334065D01*
X21474698Y-62334070D01*
X21454417Y-62539996D01*
X21454417Y-62540003D01*
X21474698Y-62745929D01*
X21474699Y-62745934D01*
X21534768Y-62943954D01*
X21534769Y-62943957D01*
X21538804Y-62951506D01*
X21549558Y-63011739D01*
X21522854Y-63066789D01*
X21521496Y-63068174D01*
X20567535Y-64022137D01*
X20567531Y-64022142D01*
X20524684Y-64096355D01*
X20524682Y-64096359D01*
X20524682Y-64096361D01*
X20511297Y-64146315D01*
X20511297Y-64146316D01*
X20511296Y-64146315D01*
X20502500Y-64179144D01*
X20502500Y-64179147D01*
X20502500Y-65743147D01*
X20502500Y-65828853D01*
X20516426Y-65880827D01*
X20524683Y-65911643D01*
X20567531Y-65985857D01*
X20567533Y-65985859D01*
X20567535Y-65985862D01*
X21226533Y-66644859D01*
X21226535Y-66644862D01*
X21287138Y-66705465D01*
X21324247Y-66726889D01*
X21324249Y-66726891D01*
X21350964Y-66742315D01*
X21361361Y-66748318D01*
X21444147Y-66770501D01*
X21444149Y-66770501D01*
X21535916Y-66770501D01*
X21535932Y-66770500D01*
X21638876Y-66770500D01*
X21697067Y-66789407D01*
X21733031Y-66838907D01*
X21733031Y-66900093D01*
X21715404Y-66932305D01*
X21632317Y-67033547D01*
X21632316Y-67033547D01*
X21534768Y-67216045D01*
X21474699Y-67414065D01*
X21474698Y-67414070D01*
X21454417Y-67619996D01*
X21454417Y-67620003D01*
X21474698Y-67825929D01*
X21474699Y-67825934D01*
X21534768Y-68023954D01*
X21534769Y-68023957D01*
X21538804Y-68031506D01*
X21549558Y-68091739D01*
X21522854Y-68146789D01*
X21521496Y-68148175D01*
X19970236Y-69699435D01*
X19915719Y-69727212D01*
X19855287Y-69717641D01*
X19812022Y-69674376D01*
X19801709Y-69639134D01*
X19795301Y-69574071D01*
X19795300Y-69574065D01*
X19746622Y-69413595D01*
X19735232Y-69376046D01*
X19637685Y-69193550D01*
X19633790Y-69188804D01*
X19506414Y-69033595D01*
X19506410Y-69033590D01*
X19436792Y-68976456D01*
X19346452Y-68902316D01*
X19163954Y-68804768D01*
X18965934Y-68744699D01*
X18965929Y-68744698D01*
X18760003Y-68724417D01*
X18759997Y-68724417D01*
X18554070Y-68744698D01*
X18554065Y-68744699D01*
X18356045Y-68804768D01*
X18173547Y-68902316D01*
X18013595Y-69033585D01*
X18013585Y-69033595D01*
X17882316Y-69193547D01*
X17784768Y-69376045D01*
X17724699Y-69574065D01*
X17724698Y-69574070D01*
X17704417Y-69779996D01*
X17704417Y-69780003D01*
X17724698Y-69985929D01*
X17724699Y-69985934D01*
X17784768Y-70183954D01*
X17882316Y-70366452D01*
X17910499Y-70400793D01*
X18013590Y-70526410D01*
X18013595Y-70526414D01*
X18173547Y-70657683D01*
X18173548Y-70657683D01*
X18173550Y-70657685D01*
X18356046Y-70755232D01*
X18481478Y-70793281D01*
X18554065Y-70815300D01*
X18554070Y-70815301D01*
X18759997Y-70835583D01*
X18760000Y-70835583D01*
X18760003Y-70835583D01*
X18965929Y-70815301D01*
X18965934Y-70815300D01*
X19163954Y-70755232D01*
X19346450Y-70657685D01*
X19447697Y-70574594D01*
X19504671Y-70552295D01*
X19563874Y-70567743D01*
X19602690Y-70615040D01*
X19609500Y-70651123D01*
X19609500Y-71448876D01*
X19590593Y-71507067D01*
X19541093Y-71543031D01*
X19479907Y-71543031D01*
X19447695Y-71525404D01*
X19406552Y-71491639D01*
X19346452Y-71442316D01*
X19163954Y-71344768D01*
X18965934Y-71284699D01*
X18965929Y-71284698D01*
X18760003Y-71264417D01*
X18759997Y-71264417D01*
X18554070Y-71284698D01*
X18554065Y-71284699D01*
X18356045Y-71344768D01*
X18173547Y-71442316D01*
X18013595Y-71573585D01*
X18013585Y-71573595D01*
X17882316Y-71733547D01*
X17784768Y-71916045D01*
X17724699Y-72114065D01*
X17724698Y-72114070D01*
X17704417Y-72319996D01*
X17704417Y-72320003D01*
X17724698Y-72525929D01*
X17724699Y-72525934D01*
X17784768Y-72723954D01*
X17882316Y-72906452D01*
X17991840Y-73039907D01*
X18013590Y-73066410D01*
X18013595Y-73066414D01*
X18173547Y-73197683D01*
X18173548Y-73197683D01*
X18173550Y-73197685D01*
X18356046Y-73295232D01*
X18493997Y-73337078D01*
X18554065Y-73355300D01*
X18554070Y-73355301D01*
X18759997Y-73375583D01*
X18760000Y-73375583D01*
X18760003Y-73375583D01*
X18965929Y-73355301D01*
X18965934Y-73355300D01*
X19163954Y-73295232D01*
X19346450Y-73197685D01*
X19447697Y-73114594D01*
X19504671Y-73092295D01*
X19563874Y-73107743D01*
X19602690Y-73155040D01*
X19609500Y-73191123D01*
X19609500Y-73988876D01*
X19590593Y-74047067D01*
X19541093Y-74083031D01*
X19479907Y-74083031D01*
X19447695Y-74065404D01*
X19363159Y-73996028D01*
X19346452Y-73982316D01*
X19163954Y-73884768D01*
X18965934Y-73824699D01*
X18965929Y-73824698D01*
X18760003Y-73804417D01*
X18759997Y-73804417D01*
X18554070Y-73824698D01*
X18554065Y-73824699D01*
X18356045Y-73884768D01*
X18173547Y-73982316D01*
X18013595Y-74113585D01*
X18013585Y-74113595D01*
X17882316Y-74273547D01*
X17784768Y-74456045D01*
X17724699Y-74654065D01*
X17724698Y-74654070D01*
X17704417Y-74859996D01*
X17704417Y-74860003D01*
X17724698Y-75065929D01*
X17724699Y-75065934D01*
X17784768Y-75263954D01*
X17882316Y-75446452D01*
X18013585Y-75606404D01*
X18013590Y-75606410D01*
X18013595Y-75606414D01*
X18173547Y-75737683D01*
X18173548Y-75737683D01*
X18173550Y-75737685D01*
X18356046Y-75835232D01*
X18493997Y-75877078D01*
X18554065Y-75895300D01*
X18554070Y-75895301D01*
X18759997Y-75915583D01*
X18760000Y-75915583D01*
X18760003Y-75915583D01*
X18965929Y-75895301D01*
X18965934Y-75895300D01*
X18982862Y-75890165D01*
X19163954Y-75835232D01*
X19346450Y-75737685D01*
X19447697Y-75654594D01*
X19504671Y-75632295D01*
X19563874Y-75647743D01*
X19602690Y-75695040D01*
X19609500Y-75731123D01*
X19609500Y-76528876D01*
X19590593Y-76587067D01*
X19541093Y-76623031D01*
X19479907Y-76623031D01*
X19447695Y-76605404D01*
X19420627Y-76583190D01*
X19346452Y-76522316D01*
X19163954Y-76424768D01*
X18965934Y-76364699D01*
X18965929Y-76364698D01*
X18760003Y-76344417D01*
X18759997Y-76344417D01*
X18554070Y-76364698D01*
X18554065Y-76364699D01*
X18356045Y-76424768D01*
X18173547Y-76522316D01*
X18013595Y-76653585D01*
X18013585Y-76653595D01*
X17882316Y-76813547D01*
X17784768Y-76996045D01*
X17724699Y-77194065D01*
X17724698Y-77194070D01*
X17704417Y-77399996D01*
X17704417Y-77400003D01*
X17724698Y-77605929D01*
X17724699Y-77605934D01*
X17784768Y-77803954D01*
X17882316Y-77986452D01*
X18013585Y-78146404D01*
X18013590Y-78146410D01*
X18013595Y-78146414D01*
X18173547Y-78277683D01*
X18173548Y-78277683D01*
X18173550Y-78277685D01*
X18356046Y-78375232D01*
X18486674Y-78414857D01*
X18554065Y-78435300D01*
X18554070Y-78435301D01*
X18759997Y-78455583D01*
X18760000Y-78455583D01*
X18760003Y-78455583D01*
X18965929Y-78435301D01*
X18965934Y-78435300D01*
X19163954Y-78375232D01*
X19346450Y-78277685D01*
X19447697Y-78194594D01*
X19504671Y-78172295D01*
X19563874Y-78187743D01*
X19602690Y-78235040D01*
X19609500Y-78271123D01*
X19609500Y-79068876D01*
X19590593Y-79127067D01*
X19541093Y-79163031D01*
X19479907Y-79163031D01*
X19447695Y-79145404D01*
X19356014Y-79070164D01*
X19346452Y-79062316D01*
X19163954Y-78964768D01*
X18965934Y-78904699D01*
X18965929Y-78904698D01*
X18760003Y-78884417D01*
X18759997Y-78884417D01*
X18554070Y-78904698D01*
X18554065Y-78904699D01*
X18356045Y-78964768D01*
X18356040Y-78964770D01*
X18348496Y-78968803D01*
X18288263Y-78979559D01*
X18233212Y-78952857D01*
X18231824Y-78951497D01*
X17389496Y-78109169D01*
X17361719Y-78054652D01*
X17360500Y-78039165D01*
X17360500Y-67239996D01*
X17704417Y-67239996D01*
X17704417Y-67240003D01*
X17724698Y-67445929D01*
X17724699Y-67445934D01*
X17784768Y-67643954D01*
X17882316Y-67826452D01*
X17998444Y-67967954D01*
X18013590Y-67986410D01*
X18013595Y-67986414D01*
X18173547Y-68117683D01*
X18173548Y-68117683D01*
X18173550Y-68117685D01*
X18356046Y-68215232D01*
X18493997Y-68257078D01*
X18554065Y-68275300D01*
X18554070Y-68275301D01*
X18759997Y-68295583D01*
X18760000Y-68295583D01*
X18760003Y-68295583D01*
X18965929Y-68275301D01*
X18965934Y-68275300D01*
X19163954Y-68215232D01*
X19346450Y-68117685D01*
X19506410Y-67986410D01*
X19637685Y-67826450D01*
X19735232Y-67643954D01*
X19795300Y-67445934D01*
X19795301Y-67445929D01*
X19815583Y-67240003D01*
X19815583Y-67239996D01*
X19795301Y-67034070D01*
X19795300Y-67034065D01*
X19777078Y-66973997D01*
X19735232Y-66836046D01*
X19637685Y-66653550D01*
X19633790Y-66648804D01*
X19506414Y-66493595D01*
X19506410Y-66493590D01*
X19506404Y-66493585D01*
X19346452Y-66362316D01*
X19163954Y-66264768D01*
X18965934Y-66204699D01*
X18965929Y-66204698D01*
X18760003Y-66184417D01*
X18759997Y-66184417D01*
X18554070Y-66204698D01*
X18554065Y-66204699D01*
X18356045Y-66264768D01*
X18173547Y-66362316D01*
X18013595Y-66493585D01*
X18013585Y-66493595D01*
X17882316Y-66653547D01*
X17784768Y-66836045D01*
X17724699Y-67034065D01*
X17724698Y-67034070D01*
X17704417Y-67239996D01*
X17360500Y-67239996D01*
X17360500Y-64699996D01*
X17704417Y-64699996D01*
X17704417Y-64700003D01*
X17724698Y-64905929D01*
X17724699Y-64905934D01*
X17784768Y-65103954D01*
X17882316Y-65286452D01*
X17890299Y-65296179D01*
X18013590Y-65446410D01*
X18013595Y-65446414D01*
X18173547Y-65577683D01*
X18173548Y-65577683D01*
X18173550Y-65577685D01*
X18356046Y-65675232D01*
X18493997Y-65717078D01*
X18554065Y-65735300D01*
X18554070Y-65735301D01*
X18759997Y-65755583D01*
X18760000Y-65755583D01*
X18760003Y-65755583D01*
X18965929Y-65735301D01*
X18965934Y-65735300D01*
X19163954Y-65675232D01*
X19346450Y-65577685D01*
X19506410Y-65446410D01*
X19637685Y-65286450D01*
X19735232Y-65103954D01*
X19795300Y-64905934D01*
X19795301Y-64905929D01*
X19815583Y-64700003D01*
X19815583Y-64699996D01*
X19795301Y-64494070D01*
X19795300Y-64494065D01*
X19753669Y-64356827D01*
X19735232Y-64296046D01*
X19637685Y-64113550D01*
X19633790Y-64108804D01*
X19506414Y-63953595D01*
X19506410Y-63953590D01*
X19480167Y-63932053D01*
X19346452Y-63822316D01*
X19163954Y-63724768D01*
X18965934Y-63664699D01*
X18965929Y-63664698D01*
X18760003Y-63644417D01*
X18759997Y-63644417D01*
X18554070Y-63664698D01*
X18554065Y-63664699D01*
X18356045Y-63724768D01*
X18173547Y-63822316D01*
X18013595Y-63953585D01*
X18013585Y-63953595D01*
X17882316Y-64113547D01*
X17784768Y-64296045D01*
X17724699Y-64494065D01*
X17724698Y-64494070D01*
X17704417Y-64699996D01*
X17360500Y-64699996D01*
X17360500Y-62399133D01*
X17379407Y-62340942D01*
X17389496Y-62329130D01*
X17543334Y-62175291D01*
X17597851Y-62147513D01*
X17658283Y-62157084D01*
X17701547Y-62200349D01*
X17711861Y-62235590D01*
X17724698Y-62365928D01*
X17724699Y-62365934D01*
X17784768Y-62563954D01*
X17882316Y-62746452D01*
X17998444Y-62887954D01*
X18013590Y-62906410D01*
X18013595Y-62906414D01*
X18173547Y-63037683D01*
X18173548Y-63037683D01*
X18173550Y-63037685D01*
X18356046Y-63135232D01*
X18467936Y-63169173D01*
X18554065Y-63195300D01*
X18554070Y-63195301D01*
X18759997Y-63215583D01*
X18760000Y-63215583D01*
X18760003Y-63215583D01*
X18965929Y-63195301D01*
X18965934Y-63195300D01*
X19163954Y-63135232D01*
X19346450Y-63037685D01*
X19506410Y-62906410D01*
X19637685Y-62746450D01*
X19735232Y-62563954D01*
X19795300Y-62365934D01*
X19795301Y-62365929D01*
X19815583Y-62160003D01*
X19815583Y-62159996D01*
X19795301Y-61954070D01*
X19795300Y-61954065D01*
X19746622Y-61793595D01*
X19735232Y-61756046D01*
X19637685Y-61573550D01*
X19633789Y-61568803D01*
X19506414Y-61413595D01*
X19506410Y-61413590D01*
X19506404Y-61413585D01*
X19363160Y-61296028D01*
X19330173Y-61244497D01*
X19333775Y-61183417D01*
X19372590Y-61136121D01*
X19425965Y-61120500D01*
X21757851Y-61120500D01*
X21757853Y-61120500D01*
X21840639Y-61098318D01*
X21840641Y-61098316D01*
X21840643Y-61098316D01*
X21900489Y-61063764D01*
X21949989Y-61050500D01*
X23379747Y-61050500D01*
X23379748Y-61050500D01*
X23438231Y-61038867D01*
X23504552Y-60994552D01*
X23548867Y-60928231D01*
X23560500Y-60869748D01*
X23560500Y-59130252D01*
X23548867Y-59071769D01*
X23504552Y-59005448D01*
X23503325Y-59004628D01*
X23438233Y-58961134D01*
X23438231Y-58961133D01*
X23438228Y-58961132D01*
X23438227Y-58961132D01*
X23379758Y-58949501D01*
X23379748Y-58949500D01*
X21640252Y-58949500D01*
X21640251Y-58949500D01*
X21640241Y-58949501D01*
X21581772Y-58961132D01*
X21581766Y-58961134D01*
X21515451Y-59005445D01*
X21515445Y-59005451D01*
X21471134Y-59071766D01*
X21471132Y-59071772D01*
X21459501Y-59130241D01*
X21459500Y-59130253D01*
X21459500Y-60370500D01*
X21440593Y-60428691D01*
X21391093Y-60464655D01*
X21360500Y-60469500D01*
X19631124Y-60469500D01*
X19572933Y-60450593D01*
X19536969Y-60401093D01*
X19536969Y-60339907D01*
X19554596Y-60307695D01*
X19561896Y-60298799D01*
X19637685Y-60206450D01*
X19735232Y-60023954D01*
X19795300Y-59825934D01*
X19795301Y-59825929D01*
X19815583Y-59620003D01*
X19815583Y-59619996D01*
X19795301Y-59414070D01*
X19795300Y-59414065D01*
X19755489Y-59282826D01*
X19735232Y-59216046D01*
X19637685Y-59033550D01*
X19628503Y-59022362D01*
X19506414Y-58873595D01*
X19506410Y-58873590D01*
X19478275Y-58850500D01*
X19346452Y-58742316D01*
X19163954Y-58644768D01*
X18965934Y-58584699D01*
X18965929Y-58584698D01*
X18760003Y-58564417D01*
X18759997Y-58564417D01*
X18554070Y-58584698D01*
X18554065Y-58584699D01*
X18356045Y-58644768D01*
X18173547Y-58742316D01*
X18013595Y-58873585D01*
X18013585Y-58873595D01*
X17882316Y-59033547D01*
X17784768Y-59216045D01*
X17724699Y-59414065D01*
X17724698Y-59414070D01*
X17704417Y-59619996D01*
X17704417Y-59620003D01*
X17724698Y-59825929D01*
X17724699Y-59825934D01*
X17784768Y-60023954D01*
X17882316Y-60206452D01*
X17965404Y-60307695D01*
X18013590Y-60366410D01*
X18013595Y-60366414D01*
X18158723Y-60485517D01*
X18191710Y-60537048D01*
X18188108Y-60598127D01*
X18165922Y-60632049D01*
X16774532Y-62023440D01*
X16774531Y-62023441D01*
X16731682Y-62097659D01*
X16731681Y-62097659D01*
X16731682Y-62097660D01*
X16714978Y-62160000D01*
X16709500Y-62180446D01*
X16709500Y-78172147D01*
X16709500Y-78257853D01*
X16714814Y-78277685D01*
X16731683Y-78340643D01*
X16774531Y-78414857D01*
X16774532Y-78414858D01*
X16774533Y-78414859D01*
X16774535Y-78414862D01*
X17311170Y-78951497D01*
X17771497Y-79411824D01*
X17799274Y-79466341D01*
X17789703Y-79526773D01*
X17788803Y-79528496D01*
X17784770Y-79536040D01*
X17784768Y-79536045D01*
X17724699Y-79734065D01*
X17724698Y-79734070D01*
X17704417Y-79939996D01*
X17704417Y-79940003D01*
X17724698Y-80145929D01*
X17724699Y-80145934D01*
X17784768Y-80343954D01*
X17882316Y-80526452D01*
X18013585Y-80686404D01*
X18013590Y-80686410D01*
X18013595Y-80686414D01*
X18173547Y-80817683D01*
X18173548Y-80817683D01*
X18173550Y-80817685D01*
X18356046Y-80915232D01*
X18493997Y-80957078D01*
X18554065Y-80975300D01*
X18554070Y-80975301D01*
X18759997Y-80995583D01*
X18760000Y-80995583D01*
X18760003Y-80995583D01*
X18965929Y-80975301D01*
X18965934Y-80975300D01*
X19163954Y-80915232D01*
X19346450Y-80817685D01*
X19447697Y-80734594D01*
X19504671Y-80712295D01*
X19563874Y-80727743D01*
X19602690Y-80775040D01*
X19609500Y-80811123D01*
X19609500Y-81608876D01*
X19590593Y-81667067D01*
X19541093Y-81703031D01*
X19479907Y-81703031D01*
X19447695Y-81685404D01*
X19420627Y-81663190D01*
X19346452Y-81602316D01*
X19163954Y-81504768D01*
X18965934Y-81444699D01*
X18965929Y-81444698D01*
X18760003Y-81424417D01*
X18759997Y-81424417D01*
X18554070Y-81444698D01*
X18554065Y-81444699D01*
X18356045Y-81504768D01*
X18173547Y-81602316D01*
X18013595Y-81733585D01*
X18013585Y-81733595D01*
X17882316Y-81893547D01*
X17784768Y-82076045D01*
X17724699Y-82274065D01*
X17724698Y-82274070D01*
X17704417Y-82479996D01*
X17704417Y-82480003D01*
X17724698Y-82685929D01*
X17724699Y-82685934D01*
X17784768Y-82883954D01*
X17882316Y-83066452D01*
X18013585Y-83226404D01*
X18013590Y-83226410D01*
X18013595Y-83226414D01*
X18173547Y-83357683D01*
X18173548Y-83357683D01*
X18173550Y-83357685D01*
X18356046Y-83455232D01*
X18493997Y-83497078D01*
X18554065Y-83515300D01*
X18554070Y-83515301D01*
X18759997Y-83535583D01*
X18760000Y-83535583D01*
X18760003Y-83535583D01*
X18965929Y-83515301D01*
X18965934Y-83515300D01*
X19163954Y-83455232D01*
X19346450Y-83357685D01*
X19447697Y-83274594D01*
X19504671Y-83252295D01*
X19563874Y-83267743D01*
X19602690Y-83315040D01*
X19609500Y-83351123D01*
X19609500Y-83669165D01*
X19590593Y-83727356D01*
X19580504Y-83739168D01*
X19288174Y-84031497D01*
X19233659Y-84059274D01*
X19173227Y-84049703D01*
X19171504Y-84048803D01*
X19163959Y-84044770D01*
X19163954Y-84044768D01*
X18965934Y-83984699D01*
X18965929Y-83984698D01*
X18760003Y-83964417D01*
X18759997Y-83964417D01*
X18554070Y-83984698D01*
X18554065Y-83984699D01*
X18356045Y-84044768D01*
X18173547Y-84142316D01*
X18013595Y-84273585D01*
X18013585Y-84273595D01*
X17882316Y-84433547D01*
X17784768Y-84616045D01*
X17724699Y-84814065D01*
X17724698Y-84814070D01*
X17704417Y-85019996D01*
X17704417Y-85020003D01*
X17724698Y-85225929D01*
X17724699Y-85225934D01*
X17784768Y-85423954D01*
X17882316Y-85606452D01*
X17950196Y-85689164D01*
X18013590Y-85766410D01*
X18013595Y-85766414D01*
X18173547Y-85897683D01*
X18173548Y-85897683D01*
X18173550Y-85897685D01*
X18356046Y-85995232D01*
X18493997Y-86037078D01*
X18554065Y-86055300D01*
X18554070Y-86055301D01*
X18759997Y-86075583D01*
X18760000Y-86075583D01*
X18760003Y-86075583D01*
X18965929Y-86055301D01*
X18965934Y-86055300D01*
X19163954Y-85995232D01*
X19346450Y-85897685D01*
X19506410Y-85766410D01*
X19637685Y-85606450D01*
X19735232Y-85423954D01*
X19795300Y-85225934D01*
X19795301Y-85225929D01*
X19815583Y-85020003D01*
X19815583Y-85019996D01*
X19795301Y-84814070D01*
X19795300Y-84814065D01*
X19748702Y-84660452D01*
X19735232Y-84616046D01*
X19733206Y-84612255D01*
X19731195Y-84608493D01*
X19720440Y-84548261D01*
X19747142Y-84493210D01*
X19748445Y-84491880D01*
X19890498Y-84349828D01*
X19945013Y-84322052D01*
X20005445Y-84331624D01*
X20048710Y-84374888D01*
X20059500Y-84419833D01*
X20059500Y-85759164D01*
X20040593Y-85817355D01*
X20030504Y-85829168D01*
X19288175Y-86571496D01*
X19233658Y-86599273D01*
X19173226Y-86589702D01*
X19171506Y-86588804D01*
X19163957Y-86584769D01*
X19163954Y-86584768D01*
X18965934Y-86524699D01*
X18965929Y-86524698D01*
X18760003Y-86504417D01*
X18759997Y-86504417D01*
X18554070Y-86524698D01*
X18554065Y-86524699D01*
X18356045Y-86584768D01*
X18173547Y-86682316D01*
X18013595Y-86813585D01*
X18013585Y-86813595D01*
X17882316Y-86973547D01*
X17784768Y-87156045D01*
X17724699Y-87354065D01*
X17724698Y-87354070D01*
X17704417Y-87559996D01*
X17704417Y-87560003D01*
X17724698Y-87765929D01*
X17724699Y-87765934D01*
X17784768Y-87963954D01*
X17882316Y-88146452D01*
X18013585Y-88306404D01*
X18013590Y-88306410D01*
X18013595Y-88306414D01*
X18173547Y-88437683D01*
X18173548Y-88437683D01*
X18173550Y-88437685D01*
X18356046Y-88535232D01*
X18493997Y-88577078D01*
X18554065Y-88595300D01*
X18554070Y-88595301D01*
X18759997Y-88615583D01*
X18760000Y-88615583D01*
X18760003Y-88615583D01*
X18965929Y-88595301D01*
X18965934Y-88595300D01*
X19163954Y-88535232D01*
X19346450Y-88437685D01*
X19506410Y-88306410D01*
X19637685Y-88146450D01*
X19735232Y-87963954D01*
X19795300Y-87765934D01*
X19795301Y-87765929D01*
X19815583Y-87560003D01*
X19815583Y-87559996D01*
X19795301Y-87354070D01*
X19795300Y-87354065D01*
X19781319Y-87307977D01*
X19735232Y-87156046D01*
X19731196Y-87148496D01*
X19720439Y-87088265D01*
X19747140Y-87033213D01*
X19748450Y-87031875D01*
X20340497Y-86439829D01*
X20395013Y-86412053D01*
X20455445Y-86421624D01*
X20498710Y-86464889D01*
X20509500Y-86509834D01*
X20509500Y-87849164D01*
X20490593Y-87907355D01*
X20480504Y-87919168D01*
X19288175Y-89111496D01*
X19233658Y-89139273D01*
X19173226Y-89129702D01*
X19171506Y-89128804D01*
X19163957Y-89124769D01*
X19163954Y-89124768D01*
X18965934Y-89064699D01*
X18965929Y-89064698D01*
X18760003Y-89044417D01*
X18759997Y-89044417D01*
X18554070Y-89064698D01*
X18554065Y-89064699D01*
X18356045Y-89124768D01*
X18173547Y-89222316D01*
X18013595Y-89353585D01*
X18013585Y-89353595D01*
X17882316Y-89513547D01*
X17784768Y-89696045D01*
X17724699Y-89894065D01*
X17724698Y-89894070D01*
X17704417Y-90099996D01*
X17704417Y-90100003D01*
X17724698Y-90305929D01*
X17724699Y-90305934D01*
X17784768Y-90503954D01*
X17882316Y-90686452D01*
X17965091Y-90787314D01*
X18013590Y-90846410D01*
X18013595Y-90846414D01*
X18173547Y-90977683D01*
X18173548Y-90977683D01*
X18173550Y-90977685D01*
X18356046Y-91075232D01*
X18493997Y-91117078D01*
X18554065Y-91135300D01*
X18554070Y-91135301D01*
X18759997Y-91155583D01*
X18760000Y-91155583D01*
X18760003Y-91155583D01*
X18965929Y-91135301D01*
X18965934Y-91135300D01*
X19163954Y-91075232D01*
X19346450Y-90977685D01*
X19506410Y-90846410D01*
X19637685Y-90686450D01*
X19735232Y-90503954D01*
X19795300Y-90305934D01*
X19795301Y-90305929D01*
X19815583Y-90100003D01*
X19815583Y-90099996D01*
X19795301Y-89894070D01*
X19795300Y-89894065D01*
X19781319Y-89847977D01*
X19735232Y-89696046D01*
X19731196Y-89688496D01*
X19720439Y-89628265D01*
X19747140Y-89573213D01*
X19748451Y-89571874D01*
X20840497Y-88479829D01*
X20895013Y-88452053D01*
X20955445Y-88461624D01*
X20998710Y-88504889D01*
X21009500Y-88549834D01*
X21009500Y-89889164D01*
X20990593Y-89947355D01*
X20980504Y-89959168D01*
X19288175Y-91651496D01*
X19233658Y-91679273D01*
X19173226Y-91669702D01*
X19171506Y-91668804D01*
X19163957Y-91664769D01*
X19163954Y-91664768D01*
X18965934Y-91604699D01*
X18965929Y-91604698D01*
X18760003Y-91584417D01*
X18759997Y-91584417D01*
X18554070Y-91604698D01*
X18554065Y-91604699D01*
X18356045Y-91664768D01*
X18173547Y-91762316D01*
X18013595Y-91893585D01*
X18013585Y-91893595D01*
X17882316Y-92053547D01*
X17784768Y-92236045D01*
X17724699Y-92434065D01*
X17724698Y-92434070D01*
X17704417Y-92639996D01*
X17704417Y-92640003D01*
X17724698Y-92845929D01*
X17724699Y-92845934D01*
X17784768Y-93043954D01*
X17882316Y-93226452D01*
X18013585Y-93386404D01*
X18013590Y-93386410D01*
X18013595Y-93386414D01*
X18173547Y-93517683D01*
X18173548Y-93517683D01*
X18173550Y-93517685D01*
X18356046Y-93615232D01*
X18493997Y-93657078D01*
X18554065Y-93675300D01*
X18554070Y-93675301D01*
X18759997Y-93695583D01*
X18760000Y-93695583D01*
X18760003Y-93695583D01*
X18965929Y-93675301D01*
X18965934Y-93675300D01*
X19163954Y-93615232D01*
X19346450Y-93517685D01*
X19506410Y-93386410D01*
X19637685Y-93226450D01*
X19735232Y-93043954D01*
X19795300Y-92845934D01*
X19795301Y-92845929D01*
X19815583Y-92640003D01*
X19815583Y-92639996D01*
X19795301Y-92434070D01*
X19795300Y-92434065D01*
X19776525Y-92372173D01*
X19735232Y-92236046D01*
X19731196Y-92228496D01*
X19720439Y-92168265D01*
X19747140Y-92113213D01*
X19748453Y-92111872D01*
X21299765Y-90560560D01*
X21354280Y-90532785D01*
X21414712Y-90542356D01*
X21457977Y-90585621D01*
X21468290Y-90620862D01*
X21474698Y-90685928D01*
X21474699Y-90685934D01*
X21534768Y-90883954D01*
X21632316Y-91066452D01*
X21639521Y-91075231D01*
X21763590Y-91226410D01*
X21763595Y-91226414D01*
X21923547Y-91357683D01*
X21923548Y-91357683D01*
X21923550Y-91357685D01*
X22106046Y-91455232D01*
X22225518Y-91491473D01*
X22256328Y-91500819D01*
X22306525Y-91535804D01*
X22326571Y-91593612D01*
X22308810Y-91652163D01*
X22260026Y-91689092D01*
X22253213Y-91691183D01*
X22046505Y-91746570D01*
X21832432Y-91846394D01*
X21832424Y-91846398D01*
X21638926Y-91981886D01*
X21471886Y-92148926D01*
X21336398Y-92342424D01*
X21336394Y-92342432D01*
X21236570Y-92556505D01*
X21192762Y-92720000D01*
X22105856Y-92720000D01*
X22044075Y-92827007D01*
X22010000Y-92954174D01*
X22010000Y-93085826D01*
X22044075Y-93212993D01*
X22105856Y-93320000D01*
X21192762Y-93320000D01*
X21236569Y-93483489D01*
X21336399Y-93697577D01*
X21471886Y-93891073D01*
X21638926Y-94058113D01*
X21832422Y-94193600D01*
X22046510Y-94293430D01*
X22210000Y-94337238D01*
X22210000Y-93424144D01*
X22317007Y-93485925D01*
X22444174Y-93520000D01*
X22575826Y-93520000D01*
X22702993Y-93485925D01*
X22810000Y-93424144D01*
X22810000Y-94337237D01*
X22973489Y-94293430D01*
X23187577Y-94193600D01*
X23381073Y-94058113D01*
X23548113Y-93891073D01*
X23683600Y-93697577D01*
X23783430Y-93483489D01*
X23827238Y-93320000D01*
X22914144Y-93320000D01*
X22975925Y-93212993D01*
X23010000Y-93085826D01*
X23010000Y-92954174D01*
X22975925Y-92827007D01*
X22914144Y-92720000D01*
X23827238Y-92720000D01*
X23783429Y-92556505D01*
X23683605Y-92342432D01*
X23683601Y-92342424D01*
X23548113Y-92148926D01*
X23381073Y-91981886D01*
X23187577Y-91846399D01*
X22973489Y-91746569D01*
X22766786Y-91691183D01*
X22715472Y-91657859D01*
X22693545Y-91600737D01*
X22709381Y-91541637D01*
X22756931Y-91503132D01*
X22763663Y-91500821D01*
X22913954Y-91455232D01*
X23096450Y-91357685D01*
X23256410Y-91226410D01*
X23387685Y-91066450D01*
X23485232Y-90883954D01*
X23545300Y-90685934D01*
X23545301Y-90685929D01*
X23565583Y-90480003D01*
X23565583Y-90479996D01*
X23545301Y-90274070D01*
X23545300Y-90274065D01*
X23492498Y-90100000D01*
X23485232Y-90076046D01*
X23387685Y-89893550D01*
X23256410Y-89733590D01*
X23224868Y-89707704D01*
X23096452Y-89602316D01*
X22913954Y-89504768D01*
X22715934Y-89444699D01*
X22715929Y-89444698D01*
X22510003Y-89424417D01*
X22509997Y-89424417D01*
X22304070Y-89444698D01*
X22304065Y-89444699D01*
X22106045Y-89504768D01*
X21923547Y-89602316D01*
X21923547Y-89602317D01*
X21822305Y-89685404D01*
X21765328Y-89707704D01*
X21706125Y-89692255D01*
X21667310Y-89644958D01*
X21660500Y-89608876D01*
X21660500Y-88811123D01*
X21679407Y-88752932D01*
X21728907Y-88716968D01*
X21790093Y-88716968D01*
X21822301Y-88734593D01*
X21840944Y-88749892D01*
X21923547Y-88817683D01*
X21923548Y-88817683D01*
X21923550Y-88817685D01*
X22106046Y-88915232D01*
X22243997Y-88957078D01*
X22304065Y-88975300D01*
X22304070Y-88975301D01*
X22509997Y-88995583D01*
X22510000Y-88995583D01*
X22510003Y-88995583D01*
X22715929Y-88975301D01*
X22715934Y-88975300D01*
X22738657Y-88968407D01*
X22913954Y-88915232D01*
X23096450Y-88817685D01*
X23256410Y-88686410D01*
X23387685Y-88526450D01*
X23485232Y-88343954D01*
X23545300Y-88145934D01*
X23545301Y-88145929D01*
X23565583Y-87940003D01*
X23565583Y-87939996D01*
X23545301Y-87734070D01*
X23545300Y-87734065D01*
X23492498Y-87560000D01*
X23485232Y-87536046D01*
X23387685Y-87353550D01*
X23256410Y-87193590D01*
X23224868Y-87167704D01*
X23096452Y-87062316D01*
X22913954Y-86964768D01*
X22715934Y-86904699D01*
X22715929Y-86904698D01*
X22510003Y-86884417D01*
X22509997Y-86884417D01*
X22304070Y-86904698D01*
X22304065Y-86904699D01*
X22106045Y-86964768D01*
X21923547Y-87062316D01*
X21923547Y-87062317D01*
X21822305Y-87145404D01*
X21765328Y-87167704D01*
X21706125Y-87152255D01*
X21667310Y-87104958D01*
X21660500Y-87068876D01*
X21660500Y-86271123D01*
X21679407Y-86212932D01*
X21728907Y-86176968D01*
X21790093Y-86176968D01*
X21822301Y-86194593D01*
X21844648Y-86212932D01*
X21923547Y-86277683D01*
X21923548Y-86277683D01*
X21923550Y-86277685D01*
X22106046Y-86375232D01*
X22227430Y-86412053D01*
X22304065Y-86435300D01*
X22304070Y-86435301D01*
X22509997Y-86455583D01*
X22510000Y-86455583D01*
X22510003Y-86455583D01*
X22715929Y-86435301D01*
X22715934Y-86435300D01*
X22761018Y-86421624D01*
X22913954Y-86375232D01*
X23096450Y-86277685D01*
X23256410Y-86146410D01*
X23387685Y-85986450D01*
X23485232Y-85803954D01*
X23545300Y-85605934D01*
X23545301Y-85605929D01*
X23565583Y-85400003D01*
X23565583Y-85399996D01*
X23545301Y-85194070D01*
X23545300Y-85194065D01*
X23519587Y-85109300D01*
X23485232Y-84996046D01*
X23387685Y-84813550D01*
X23256410Y-84653590D01*
X23224868Y-84627704D01*
X23096452Y-84522316D01*
X22913954Y-84424768D01*
X22715934Y-84364699D01*
X22715929Y-84364698D01*
X22510003Y-84344417D01*
X22509997Y-84344417D01*
X22304070Y-84364698D01*
X22304065Y-84364699D01*
X22106045Y-84424768D01*
X21923547Y-84522316D01*
X21923547Y-84522317D01*
X21822305Y-84605404D01*
X21765328Y-84627704D01*
X21706125Y-84612255D01*
X21667310Y-84564958D01*
X21660500Y-84528876D01*
X21660500Y-83731123D01*
X21679407Y-83672932D01*
X21728907Y-83636968D01*
X21790093Y-83636968D01*
X21822301Y-83654593D01*
X21844648Y-83672932D01*
X21923547Y-83737683D01*
X21923548Y-83737683D01*
X21923550Y-83737685D01*
X22106046Y-83835232D01*
X22214300Y-83868070D01*
X22304065Y-83895300D01*
X22304070Y-83895301D01*
X22509997Y-83915583D01*
X22510000Y-83915583D01*
X22510003Y-83915583D01*
X22715929Y-83895301D01*
X22715934Y-83895300D01*
X22913954Y-83835232D01*
X23096450Y-83737685D01*
X23256410Y-83606410D01*
X23387685Y-83446450D01*
X23485232Y-83263954D01*
X23545300Y-83065934D01*
X23545301Y-83065929D01*
X23565583Y-82860003D01*
X23565583Y-82859996D01*
X23545301Y-82654070D01*
X23545300Y-82654065D01*
X23519587Y-82569300D01*
X23485232Y-82456046D01*
X23387685Y-82273550D01*
X23318977Y-82189829D01*
X23256414Y-82113595D01*
X23256410Y-82113590D01*
X23224868Y-82087704D01*
X23096452Y-81982316D01*
X22913954Y-81884768D01*
X22715934Y-81824699D01*
X22715929Y-81824698D01*
X22510003Y-81804417D01*
X22509997Y-81804417D01*
X22304070Y-81824698D01*
X22304065Y-81824699D01*
X22106045Y-81884768D01*
X21923547Y-81982316D01*
X21923547Y-81982317D01*
X21822305Y-82065404D01*
X21765328Y-82087704D01*
X21706125Y-82072255D01*
X21667310Y-82024958D01*
X21660500Y-81988876D01*
X21660500Y-81191123D01*
X21679407Y-81132932D01*
X21728907Y-81096968D01*
X21790093Y-81096968D01*
X21822301Y-81114593D01*
X21844648Y-81132932D01*
X21923547Y-81197683D01*
X21923548Y-81197683D01*
X21923550Y-81197685D01*
X22106046Y-81295232D01*
X22214300Y-81328070D01*
X22304065Y-81355300D01*
X22304070Y-81355301D01*
X22509997Y-81375583D01*
X22510000Y-81375583D01*
X22510003Y-81375583D01*
X22715929Y-81355301D01*
X22715934Y-81355300D01*
X22913954Y-81295232D01*
X23096450Y-81197685D01*
X23256410Y-81066410D01*
X23387685Y-80906450D01*
X23485232Y-80723954D01*
X23545300Y-80525934D01*
X23545301Y-80525929D01*
X23565583Y-80320003D01*
X23565583Y-80319996D01*
X23545301Y-80114070D01*
X23545300Y-80114065D01*
X23519587Y-80029300D01*
X23485232Y-79916046D01*
X23387685Y-79733550D01*
X23256410Y-79573590D01*
X23219174Y-79543031D01*
X23096452Y-79442316D01*
X22913954Y-79344768D01*
X22715934Y-79284699D01*
X22715929Y-79284698D01*
X22510003Y-79264417D01*
X22509997Y-79264417D01*
X22304070Y-79284698D01*
X22304065Y-79284699D01*
X22106045Y-79344768D01*
X21923547Y-79442316D01*
X21923547Y-79442317D01*
X21822305Y-79525404D01*
X21765328Y-79547704D01*
X21706125Y-79532255D01*
X21667310Y-79484958D01*
X21660500Y-79448876D01*
X21660500Y-78651123D01*
X21679407Y-78592932D01*
X21728907Y-78556968D01*
X21790093Y-78556968D01*
X21822301Y-78574593D01*
X21844648Y-78592932D01*
X21923547Y-78657683D01*
X21923548Y-78657683D01*
X21923550Y-78657685D01*
X22106046Y-78755232D01*
X22214300Y-78788070D01*
X22304065Y-78815300D01*
X22304070Y-78815301D01*
X22509997Y-78835583D01*
X22510000Y-78835583D01*
X22510003Y-78835583D01*
X22715929Y-78815301D01*
X22715934Y-78815300D01*
X22913954Y-78755232D01*
X23096450Y-78657685D01*
X23256410Y-78526410D01*
X23387685Y-78366450D01*
X23485232Y-78183954D01*
X23545300Y-77985934D01*
X23545301Y-77985929D01*
X23565583Y-77780003D01*
X23565583Y-77779996D01*
X23545301Y-77574070D01*
X23545300Y-77574065D01*
X23519587Y-77489300D01*
X23485232Y-77376046D01*
X23387685Y-77193550D01*
X23256410Y-77033590D01*
X23224868Y-77007704D01*
X23096452Y-76902316D01*
X22913954Y-76804768D01*
X22715934Y-76744699D01*
X22715929Y-76744698D01*
X22510003Y-76724417D01*
X22509997Y-76724417D01*
X22304070Y-76744698D01*
X22304065Y-76744699D01*
X22106045Y-76804768D01*
X21923547Y-76902316D01*
X21923547Y-76902317D01*
X21822305Y-76985404D01*
X21765328Y-77007704D01*
X21706125Y-76992255D01*
X21667310Y-76944958D01*
X21660500Y-76908876D01*
X21660500Y-76590833D01*
X21679407Y-76532642D01*
X21689490Y-76520836D01*
X21981824Y-76228501D01*
X22036339Y-76200725D01*
X22096771Y-76210296D01*
X22098493Y-76211195D01*
X22106046Y-76215232D01*
X22214300Y-76248070D01*
X22304065Y-76275300D01*
X22304070Y-76275301D01*
X22509997Y-76295583D01*
X22510000Y-76295583D01*
X22510003Y-76295583D01*
X22715929Y-76275301D01*
X22715934Y-76275300D01*
X22913954Y-76215232D01*
X23096450Y-76117685D01*
X23256410Y-75986410D01*
X23387685Y-75826450D01*
X23485232Y-75643954D01*
X23545300Y-75445934D01*
X23545301Y-75445929D01*
X23565583Y-75240003D01*
X23565583Y-75239996D01*
X23545301Y-75034070D01*
X23545300Y-75034065D01*
X23519587Y-74949300D01*
X23485232Y-74836046D01*
X23387685Y-74653550D01*
X23256410Y-74493590D01*
X23240862Y-74480830D01*
X23096452Y-74362316D01*
X22913954Y-74264768D01*
X22715934Y-74204699D01*
X22715929Y-74204698D01*
X22510003Y-74184417D01*
X22509997Y-74184417D01*
X22304070Y-74204698D01*
X22304065Y-74204699D01*
X22106045Y-74264768D01*
X21923547Y-74362316D01*
X21763595Y-74493585D01*
X21763585Y-74493595D01*
X21632316Y-74653547D01*
X21534768Y-74836045D01*
X21474699Y-75034065D01*
X21474698Y-75034070D01*
X21454417Y-75239996D01*
X21454417Y-75240003D01*
X21474698Y-75445929D01*
X21474699Y-75445934D01*
X21534768Y-75643954D01*
X21534770Y-75643959D01*
X21538803Y-75651504D01*
X21549559Y-75711737D01*
X21522857Y-75766788D01*
X21521539Y-75768132D01*
X21354563Y-75935110D01*
X21329504Y-75960169D01*
X21274987Y-75987946D01*
X21214555Y-75978375D01*
X21171290Y-75935110D01*
X21160500Y-75890165D01*
X21160500Y-74550834D01*
X21179407Y-74492643D01*
X21189496Y-74480830D01*
X21556741Y-74113585D01*
X21981825Y-73688500D01*
X22036340Y-73660725D01*
X22096772Y-73670296D01*
X22098463Y-73671178D01*
X22106046Y-73675232D01*
X22257977Y-73721319D01*
X22304065Y-73735300D01*
X22304070Y-73735301D01*
X22509997Y-73755583D01*
X22510000Y-73755583D01*
X22510003Y-73755583D01*
X22715929Y-73735301D01*
X22715934Y-73735300D01*
X22913954Y-73675232D01*
X23096450Y-73577685D01*
X23256410Y-73446410D01*
X23387685Y-73286450D01*
X23485232Y-73103954D01*
X23545300Y-72905934D01*
X23545301Y-72905929D01*
X23565583Y-72700003D01*
X23565583Y-72699996D01*
X23545301Y-72494070D01*
X23545300Y-72494065D01*
X23508140Y-72371564D01*
X23485232Y-72296046D01*
X23387685Y-72113550D01*
X23303815Y-72011354D01*
X23256414Y-71953595D01*
X23256410Y-71953590D01*
X23251028Y-71949173D01*
X23096452Y-71822316D01*
X22913954Y-71724768D01*
X22715934Y-71664699D01*
X22715929Y-71664698D01*
X22510003Y-71644417D01*
X22509997Y-71644417D01*
X22304070Y-71664698D01*
X22304065Y-71664699D01*
X22106045Y-71724768D01*
X21923547Y-71822316D01*
X21763595Y-71953585D01*
X21763585Y-71953595D01*
X21632316Y-72113547D01*
X21534768Y-72296045D01*
X21474699Y-72494065D01*
X21474698Y-72494070D01*
X21454417Y-72699996D01*
X21454417Y-72700003D01*
X21474698Y-72905929D01*
X21474699Y-72905934D01*
X21534768Y-73103954D01*
X21534769Y-73103957D01*
X21538804Y-73111506D01*
X21549558Y-73171739D01*
X21522854Y-73226789D01*
X21521496Y-73228175D01*
X20879504Y-73870168D01*
X20824987Y-73897945D01*
X20764555Y-73888374D01*
X20721290Y-73845109D01*
X20710500Y-73800164D01*
X20710500Y-72460833D01*
X20729407Y-72402642D01*
X20739490Y-72390835D01*
X21981824Y-71148500D01*
X22036339Y-71120725D01*
X22096771Y-71130296D01*
X22098493Y-71131195D01*
X22106046Y-71135232D01*
X22217841Y-71169144D01*
X22304065Y-71195300D01*
X22304070Y-71195301D01*
X22509997Y-71215583D01*
X22510000Y-71215583D01*
X22510003Y-71215583D01*
X22715929Y-71195301D01*
X22715934Y-71195300D01*
X22732865Y-71190164D01*
X22913954Y-71135232D01*
X23096450Y-71037685D01*
X23256410Y-70906410D01*
X23387685Y-70746450D01*
X23485232Y-70563954D01*
X23545300Y-70365934D01*
X23545301Y-70365929D01*
X23565583Y-70160003D01*
X23565583Y-70159996D01*
X23545301Y-69954070D01*
X23545300Y-69954065D01*
X23508140Y-69831564D01*
X23485232Y-69756046D01*
X23387685Y-69573550D01*
X23341727Y-69517550D01*
X23256414Y-69413595D01*
X23256410Y-69413590D01*
X23256404Y-69413585D01*
X23096452Y-69282316D01*
X22913954Y-69184768D01*
X22715934Y-69124699D01*
X22715929Y-69124698D01*
X22510003Y-69104417D01*
X22509997Y-69104417D01*
X22304070Y-69124698D01*
X22304065Y-69124699D01*
X22106045Y-69184768D01*
X21923547Y-69282316D01*
X21763595Y-69413585D01*
X21763585Y-69413595D01*
X21632316Y-69573547D01*
X21534768Y-69756045D01*
X21474699Y-69954065D01*
X21474698Y-69954070D01*
X21454417Y-70159996D01*
X21454417Y-70160003D01*
X21474698Y-70365929D01*
X21474699Y-70365934D01*
X21499810Y-70448712D01*
X21534768Y-70563954D01*
X21538802Y-70571501D01*
X21549560Y-70631732D01*
X21522860Y-70686785D01*
X21521497Y-70688175D01*
X20429504Y-71780169D01*
X20374987Y-71807946D01*
X20314555Y-71798375D01*
X20271290Y-71755110D01*
X20260500Y-71710165D01*
X20260500Y-70370834D01*
X20279407Y-70312643D01*
X20289490Y-70300836D01*
X21981825Y-68608500D01*
X22036340Y-68580725D01*
X22096772Y-68590296D01*
X22098463Y-68591178D01*
X22106046Y-68595232D01*
X22257977Y-68641319D01*
X22304065Y-68655300D01*
X22304070Y-68655301D01*
X22509997Y-68675583D01*
X22510000Y-68675583D01*
X22510003Y-68675583D01*
X22715929Y-68655301D01*
X22715934Y-68655300D01*
X22913954Y-68595232D01*
X23096450Y-68497685D01*
X23256410Y-68366410D01*
X23387685Y-68206450D01*
X23485232Y-68023954D01*
X23545300Y-67825934D01*
X23545301Y-67825929D01*
X23565583Y-67620003D01*
X23565583Y-67619996D01*
X23545301Y-67414070D01*
X23545300Y-67414065D01*
X23527078Y-67353997D01*
X23485232Y-67216046D01*
X23387685Y-67033550D01*
X23341727Y-66977550D01*
X23304596Y-66932305D01*
X23282296Y-66875328D01*
X23297745Y-66816125D01*
X23345042Y-66777310D01*
X23381124Y-66770500D01*
X23851166Y-66770500D01*
X23909357Y-66789407D01*
X23921169Y-66799496D01*
X24312503Y-67190829D01*
X24340281Y-67245346D01*
X24341500Y-67260833D01*
X24341500Y-90635147D01*
X24341500Y-97014147D01*
X24341500Y-97099853D01*
X24350528Y-97133547D01*
X24363683Y-97182643D01*
X24406531Y-97256857D01*
X24406532Y-97256858D01*
X24406533Y-97256859D01*
X24406535Y-97256862D01*
X26434441Y-99284768D01*
X28418518Y-101268845D01*
X28446295Y-101323362D01*
X28447514Y-101338811D01*
X28448000Y-102616000D01*
X44400500Y-102616000D01*
X44458691Y-102634907D01*
X44494655Y-102684407D01*
X44499500Y-102715000D01*
X44499500Y-149400500D01*
X44480593Y-149458691D01*
X44431093Y-149494655D01*
X44400500Y-149499500D01*
X15599500Y-149499500D01*
X15541309Y-149480593D01*
X15505345Y-149431093D01*
X15500500Y-149400500D01*
X15500500Y-144093709D01*
X28649500Y-144093709D01*
X28649500Y-144306290D01*
X28682752Y-144516238D01*
X28748443Y-144718412D01*
X28844948Y-144907815D01*
X28844950Y-144907819D01*
X28969891Y-145079786D01*
X28969893Y-145079788D01*
X28969896Y-145079792D01*
X29120208Y-145230104D01*
X29120211Y-145230106D01*
X29120213Y-145230108D01*
X29292180Y-145355049D01*
X29292184Y-145355051D01*
X29481588Y-145451557D01*
X29683757Y-145517246D01*
X29683758Y-145517246D01*
X29683761Y-145517247D01*
X29893710Y-145550500D01*
X29893713Y-145550500D01*
X30106290Y-145550500D01*
X30316238Y-145517247D01*
X30316239Y-145517246D01*
X30316243Y-145517246D01*
X30518412Y-145451557D01*
X30707816Y-145355051D01*
X30879792Y-145230104D01*
X31030104Y-145079792D01*
X31155051Y-144907816D01*
X31251557Y-144718412D01*
X31317246Y-144516243D01*
X31350500Y-144306287D01*
X31350500Y-144093713D01*
X31350500Y-144093709D01*
X31317247Y-143883761D01*
X31317246Y-143883757D01*
X31251557Y-143681588D01*
X31155051Y-143492184D01*
X31155049Y-143492180D01*
X31030108Y-143320213D01*
X31030106Y-143320211D01*
X31030104Y-143320208D01*
X30879792Y-143169896D01*
X30879788Y-143169893D01*
X30879786Y-143169891D01*
X30707819Y-143044950D01*
X30707815Y-143044948D01*
X30518412Y-142948443D01*
X30316238Y-142882752D01*
X30106290Y-142849500D01*
X30106287Y-142849500D01*
X29893713Y-142849500D01*
X29893710Y-142849500D01*
X29683761Y-142882752D01*
X29481587Y-142948443D01*
X29292184Y-143044948D01*
X29292180Y-143044950D01*
X29120213Y-143169891D01*
X28969891Y-143320213D01*
X28844950Y-143492180D01*
X28844948Y-143492184D01*
X28748443Y-143681587D01*
X28682752Y-143883761D01*
X28649500Y-144093709D01*
X15500500Y-144093709D01*
X15500500Y-136639996D01*
X20054417Y-136639996D01*
X20054417Y-136640003D01*
X20074698Y-136845929D01*
X20074699Y-136845934D01*
X20134768Y-137043954D01*
X20232316Y-137226452D01*
X20341736Y-137359781D01*
X20363590Y-137386410D01*
X20363595Y-137386414D01*
X20523547Y-137517683D01*
X20523548Y-137517683D01*
X20523550Y-137517685D01*
X20706046Y-137615232D01*
X20796904Y-137642793D01*
X20904065Y-137675300D01*
X20904070Y-137675301D01*
X21109997Y-137695583D01*
X21110000Y-137695583D01*
X21110003Y-137695583D01*
X21315929Y-137675301D01*
X21315934Y-137675300D01*
X21513954Y-137615232D01*
X21696450Y-137517685D01*
X21856410Y-137386410D01*
X21987685Y-137226450D01*
X22085232Y-137043954D01*
X22145300Y-136845934D01*
X22145301Y-136845929D01*
X22165583Y-136640003D01*
X22165583Y-136639996D01*
X22594417Y-136639996D01*
X22594417Y-136640003D01*
X22614698Y-136845929D01*
X22614699Y-136845934D01*
X22674768Y-137043954D01*
X22772316Y-137226452D01*
X22881736Y-137359781D01*
X22903590Y-137386410D01*
X22903595Y-137386414D01*
X23063547Y-137517683D01*
X23063548Y-137517683D01*
X23063550Y-137517685D01*
X23246046Y-137615232D01*
X23336904Y-137642793D01*
X23444065Y-137675300D01*
X23444070Y-137675301D01*
X23649997Y-137695583D01*
X23650000Y-137695583D01*
X23650003Y-137695583D01*
X23855929Y-137675301D01*
X23855934Y-137675300D01*
X24053954Y-137615232D01*
X24236450Y-137517685D01*
X24396410Y-137386410D01*
X24527685Y-137226450D01*
X24625232Y-137043954D01*
X24685300Y-136845934D01*
X24685301Y-136845929D01*
X24705583Y-136640003D01*
X24705583Y-136639996D01*
X25134417Y-136639996D01*
X25134417Y-136640003D01*
X25154698Y-136845929D01*
X25154699Y-136845934D01*
X25214768Y-137043954D01*
X25312316Y-137226452D01*
X25421736Y-137359781D01*
X25443590Y-137386410D01*
X25443595Y-137386414D01*
X25603547Y-137517683D01*
X25603548Y-137517683D01*
X25603550Y-137517685D01*
X25786046Y-137615232D01*
X25876904Y-137642793D01*
X25984065Y-137675300D01*
X25984070Y-137675301D01*
X26189997Y-137695583D01*
X26190000Y-137695583D01*
X26190003Y-137695583D01*
X26395929Y-137675301D01*
X26395934Y-137675300D01*
X26593954Y-137615232D01*
X26776450Y-137517685D01*
X26936410Y-137386410D01*
X27067685Y-137226450D01*
X27165232Y-137043954D01*
X27225300Y-136845934D01*
X27225301Y-136845929D01*
X27245583Y-136640003D01*
X27245583Y-136639996D01*
X27225301Y-136434070D01*
X27225300Y-136434065D01*
X27166401Y-136239901D01*
X27165232Y-136236046D01*
X27067685Y-136053550D01*
X27012024Y-135985727D01*
X26936414Y-135893595D01*
X26936410Y-135893590D01*
X26936404Y-135893585D01*
X26776452Y-135762316D01*
X26593954Y-135664768D01*
X26395934Y-135604699D01*
X26395929Y-135604698D01*
X26190003Y-135584417D01*
X26189997Y-135584417D01*
X25984070Y-135604698D01*
X25984065Y-135604699D01*
X25786045Y-135664768D01*
X25603547Y-135762316D01*
X25443595Y-135893585D01*
X25443585Y-135893595D01*
X25312316Y-136053547D01*
X25214768Y-136236045D01*
X25154699Y-136434065D01*
X25154698Y-136434070D01*
X25134417Y-136639996D01*
X24705583Y-136639996D01*
X24685301Y-136434070D01*
X24685300Y-136434065D01*
X24626401Y-136239901D01*
X24625232Y-136236046D01*
X24527685Y-136053550D01*
X24472024Y-135985727D01*
X24396414Y-135893595D01*
X24396410Y-135893590D01*
X24396404Y-135893585D01*
X24236452Y-135762316D01*
X24053954Y-135664768D01*
X23855934Y-135604699D01*
X23855929Y-135604698D01*
X23650003Y-135584417D01*
X23649997Y-135584417D01*
X23444070Y-135604698D01*
X23444065Y-135604699D01*
X23246045Y-135664768D01*
X23063547Y-135762316D01*
X22903595Y-135893585D01*
X22903585Y-135893595D01*
X22772316Y-136053547D01*
X22674768Y-136236045D01*
X22614699Y-136434065D01*
X22614698Y-136434070D01*
X22594417Y-136639996D01*
X22165583Y-136639996D01*
X22145301Y-136434070D01*
X22145300Y-136434065D01*
X22086401Y-136239901D01*
X22085232Y-136236046D01*
X21987685Y-136053550D01*
X21932024Y-135985727D01*
X21856414Y-135893595D01*
X21856410Y-135893590D01*
X21856404Y-135893585D01*
X21696452Y-135762316D01*
X21513954Y-135664768D01*
X21315934Y-135604699D01*
X21315929Y-135604698D01*
X21110003Y-135584417D01*
X21109997Y-135584417D01*
X20904070Y-135604698D01*
X20904065Y-135604699D01*
X20706045Y-135664768D01*
X20523547Y-135762316D01*
X20363595Y-135893585D01*
X20363585Y-135893595D01*
X20232316Y-136053547D01*
X20134768Y-136236045D01*
X20074699Y-136434065D01*
X20074698Y-136434070D01*
X20054417Y-136639996D01*
X15500500Y-136639996D01*
X15500500Y-134099996D01*
X20054417Y-134099996D01*
X20054417Y-134100003D01*
X20074698Y-134305929D01*
X20074699Y-134305934D01*
X20134768Y-134503954D01*
X20232316Y-134686452D01*
X20307096Y-134777572D01*
X20363590Y-134846410D01*
X20363595Y-134846414D01*
X20523547Y-134977683D01*
X20523548Y-134977683D01*
X20523550Y-134977685D01*
X20706046Y-135075232D01*
X20843997Y-135117078D01*
X20904065Y-135135300D01*
X20904070Y-135135301D01*
X21109997Y-135155583D01*
X21110000Y-135155583D01*
X21110003Y-135155583D01*
X21315929Y-135135301D01*
X21315934Y-135135300D01*
X21513954Y-135075232D01*
X21696450Y-134977685D01*
X21856410Y-134846410D01*
X21987685Y-134686450D01*
X22085232Y-134503954D01*
X22145300Y-134305934D01*
X22145301Y-134305929D01*
X22165583Y-134100003D01*
X22165583Y-134099996D01*
X22594417Y-134099996D01*
X22594417Y-134100003D01*
X22614698Y-134305929D01*
X22614699Y-134305934D01*
X22674768Y-134503954D01*
X22772316Y-134686452D01*
X22847096Y-134777572D01*
X22903590Y-134846410D01*
X22903595Y-134846414D01*
X23063547Y-134977683D01*
X23063548Y-134977683D01*
X23063550Y-134977685D01*
X23246046Y-135075232D01*
X23383997Y-135117078D01*
X23444065Y-135135300D01*
X23444070Y-135135301D01*
X23649997Y-135155583D01*
X23650000Y-135155583D01*
X23650003Y-135155583D01*
X23855929Y-135135301D01*
X23855934Y-135135300D01*
X24053954Y-135075232D01*
X24236450Y-134977685D01*
X24396410Y-134846410D01*
X24527685Y-134686450D01*
X24625232Y-134503954D01*
X24685300Y-134305934D01*
X24685301Y-134305929D01*
X24705583Y-134100003D01*
X24705583Y-134099996D01*
X25134417Y-134099996D01*
X25134417Y-134100003D01*
X25154698Y-134305929D01*
X25154699Y-134305934D01*
X25214768Y-134503954D01*
X25312316Y-134686452D01*
X25387096Y-134777572D01*
X25443590Y-134846410D01*
X25443595Y-134846414D01*
X25603547Y-134977683D01*
X25603548Y-134977683D01*
X25603550Y-134977685D01*
X25786046Y-135075232D01*
X25923997Y-135117078D01*
X25984065Y-135135300D01*
X25984070Y-135135301D01*
X26189997Y-135155583D01*
X26190000Y-135155583D01*
X26190003Y-135155583D01*
X26395929Y-135135301D01*
X26395934Y-135135300D01*
X26593954Y-135075232D01*
X26776450Y-134977685D01*
X26936410Y-134846410D01*
X27067685Y-134686450D01*
X27165232Y-134503954D01*
X27225300Y-134305934D01*
X27225301Y-134305929D01*
X27245583Y-134100003D01*
X27245583Y-134099996D01*
X27225301Y-133894070D01*
X27225300Y-133894065D01*
X27166401Y-133699901D01*
X27165232Y-133696046D01*
X27067685Y-133513550D01*
X26936410Y-133353590D01*
X26936404Y-133353585D01*
X26776452Y-133222316D01*
X26593954Y-133124768D01*
X26395934Y-133064699D01*
X26395929Y-133064698D01*
X26190003Y-133044417D01*
X26189997Y-133044417D01*
X25984070Y-133064698D01*
X25984065Y-133064699D01*
X25786045Y-133124768D01*
X25603547Y-133222316D01*
X25443595Y-133353585D01*
X25443585Y-133353595D01*
X25312316Y-133513547D01*
X25214768Y-133696045D01*
X25154699Y-133894065D01*
X25154698Y-133894070D01*
X25134417Y-134099996D01*
X24705583Y-134099996D01*
X24685301Y-133894070D01*
X24685300Y-133894065D01*
X24626401Y-133699901D01*
X24625232Y-133696046D01*
X24527685Y-133513550D01*
X24396410Y-133353590D01*
X24396404Y-133353585D01*
X24236452Y-133222316D01*
X24053954Y-133124768D01*
X23855934Y-133064699D01*
X23855929Y-133064698D01*
X23650003Y-133044417D01*
X23649997Y-133044417D01*
X23444070Y-133064698D01*
X23444065Y-133064699D01*
X23246045Y-133124768D01*
X23063547Y-133222316D01*
X22903595Y-133353585D01*
X22903585Y-133353595D01*
X22772316Y-133513547D01*
X22674768Y-133696045D01*
X22614699Y-133894065D01*
X22614698Y-133894070D01*
X22594417Y-134099996D01*
X22165583Y-134099996D01*
X22145301Y-133894070D01*
X22145300Y-133894065D01*
X22086401Y-133699901D01*
X22085232Y-133696046D01*
X21987685Y-133513550D01*
X21856410Y-133353590D01*
X21856404Y-133353585D01*
X21696452Y-133222316D01*
X21513954Y-133124768D01*
X21315934Y-133064699D01*
X21315929Y-133064698D01*
X21110003Y-133044417D01*
X21109997Y-133044417D01*
X20904070Y-133064698D01*
X20904065Y-133064699D01*
X20706045Y-133124768D01*
X20523547Y-133222316D01*
X20363595Y-133353585D01*
X20363585Y-133353595D01*
X20232316Y-133513547D01*
X20134768Y-133696045D01*
X20074699Y-133894065D01*
X20074698Y-133894070D01*
X20054417Y-134099996D01*
X15500500Y-134099996D01*
X15500500Y-127039996D01*
X18544532Y-127039996D01*
X18544532Y-127040003D01*
X18564363Y-127266684D01*
X18623262Y-127486500D01*
X18719426Y-127692723D01*
X18719434Y-127692737D01*
X18849946Y-127879130D01*
X18849947Y-127879132D01*
X18849950Y-127879135D01*
X18849953Y-127879139D01*
X19010861Y-128040047D01*
X19010864Y-128040049D01*
X19010867Y-128040052D01*
X19010869Y-128040053D01*
X19135131Y-128127061D01*
X19197266Y-128170568D01*
X19197272Y-128170571D01*
X19197276Y-128170573D01*
X19403500Y-128266737D01*
X19403504Y-128266739D01*
X19623308Y-128325635D01*
X19623312Y-128325635D01*
X19623315Y-128325636D01*
X19849997Y-128345468D01*
X19850000Y-128345468D01*
X19850003Y-128345468D01*
X20076684Y-128325636D01*
X20076685Y-128325635D01*
X20076692Y-128325635D01*
X20296496Y-128266739D01*
X20502734Y-128170568D01*
X20689139Y-128040047D01*
X20850047Y-127879139D01*
X20980568Y-127692734D01*
X20980573Y-127692723D01*
X20982149Y-127689995D01*
X21027621Y-127649057D01*
X21067883Y-127640500D01*
X23460257Y-127640500D01*
X23518448Y-127659407D01*
X23530261Y-127669496D01*
X28100504Y-132239739D01*
X28128281Y-132294256D01*
X28129500Y-132309743D01*
X28129500Y-133187021D01*
X28110593Y-133245212D01*
X28093305Y-133263549D01*
X27983592Y-133353587D01*
X27852316Y-133513547D01*
X27754768Y-133696045D01*
X27694699Y-133894065D01*
X27694698Y-133894070D01*
X27674417Y-134099996D01*
X27674417Y-134100003D01*
X27694698Y-134305929D01*
X27694699Y-134305934D01*
X27754768Y-134503954D01*
X27852316Y-134686452D01*
X27927096Y-134777572D01*
X27983590Y-134846410D01*
X28093305Y-134936450D01*
X28126292Y-134987979D01*
X28129500Y-135012977D01*
X28129500Y-135727021D01*
X28110593Y-135785212D01*
X28093305Y-135803549D01*
X27983592Y-135893587D01*
X27852316Y-136053547D01*
X27754768Y-136236045D01*
X27694699Y-136434065D01*
X27694698Y-136434070D01*
X27674417Y-136639996D01*
X27674417Y-136640003D01*
X27694698Y-136845929D01*
X27694699Y-136845934D01*
X27754768Y-137043954D01*
X27852316Y-137226452D01*
X27961736Y-137359781D01*
X27983590Y-137386410D01*
X27983595Y-137386414D01*
X28143547Y-137517683D01*
X28143548Y-137517683D01*
X28143550Y-137517685D01*
X28326046Y-137615232D01*
X28416904Y-137642793D01*
X28524065Y-137675300D01*
X28524070Y-137675301D01*
X28729997Y-137695583D01*
X28730000Y-137695583D01*
X28730003Y-137695583D01*
X28935929Y-137675301D01*
X28935934Y-137675300D01*
X29133954Y-137615232D01*
X29316450Y-137517685D01*
X29476410Y-137386410D01*
X29607685Y-137226450D01*
X29705232Y-137043954D01*
X29750819Y-136893670D01*
X29785804Y-136843474D01*
X29843612Y-136823428D01*
X29902163Y-136841189D01*
X29939092Y-136889973D01*
X29941183Y-136896786D01*
X29996569Y-137103489D01*
X30096400Y-137317579D01*
X30096400Y-137317580D01*
X30125951Y-137359782D01*
X30772093Y-136713639D01*
X30804075Y-136832993D01*
X30869901Y-136947007D01*
X30962993Y-137040099D01*
X31077007Y-137105925D01*
X31196357Y-137137905D01*
X30550215Y-137784046D01*
X30592417Y-137813598D01*
X30592420Y-137813599D01*
X30806510Y-137913430D01*
X31034686Y-137974570D01*
X31269997Y-137995157D01*
X31270003Y-137995157D01*
X31505313Y-137974570D01*
X31733494Y-137913429D01*
X31947572Y-137813603D01*
X31947580Y-137813598D01*
X31989781Y-137784046D01*
X31343640Y-137137905D01*
X31462993Y-137105925D01*
X31577007Y-137040099D01*
X31670099Y-136947007D01*
X31735925Y-136832993D01*
X31767905Y-136713640D01*
X32414046Y-137359781D01*
X32443598Y-137317580D01*
X32443603Y-137317572D01*
X32543429Y-137103495D01*
X32598816Y-136896786D01*
X32632140Y-136845472D01*
X32689261Y-136823545D01*
X32748362Y-136839380D01*
X32786867Y-136886930D01*
X32789180Y-136893671D01*
X32834768Y-137043954D01*
X32932316Y-137226452D01*
X33041736Y-137359781D01*
X33063590Y-137386410D01*
X33063595Y-137386414D01*
X33223547Y-137517683D01*
X33223548Y-137517683D01*
X33223550Y-137517685D01*
X33406046Y-137615232D01*
X33496904Y-137642793D01*
X33604065Y-137675300D01*
X33604070Y-137675301D01*
X33809997Y-137695583D01*
X33810000Y-137695583D01*
X33810003Y-137695583D01*
X34015929Y-137675301D01*
X34015934Y-137675300D01*
X34213954Y-137615232D01*
X34396450Y-137517685D01*
X34556410Y-137386410D01*
X34687685Y-137226450D01*
X34785232Y-137043954D01*
X34845300Y-136845934D01*
X34845301Y-136845929D01*
X34865583Y-136640003D01*
X34865583Y-136639996D01*
X35294417Y-136639996D01*
X35294417Y-136640003D01*
X35314698Y-136845929D01*
X35314699Y-136845934D01*
X35374768Y-137043954D01*
X35472316Y-137226452D01*
X35581736Y-137359781D01*
X35603590Y-137386410D01*
X35603595Y-137386414D01*
X35763547Y-137517683D01*
X35763548Y-137517683D01*
X35763550Y-137517685D01*
X35946046Y-137615232D01*
X36036904Y-137642793D01*
X36144065Y-137675300D01*
X36144070Y-137675301D01*
X36349997Y-137695583D01*
X36350000Y-137695583D01*
X36350003Y-137695583D01*
X36555929Y-137675301D01*
X36555934Y-137675300D01*
X36753954Y-137615232D01*
X36936450Y-137517685D01*
X37096410Y-137386410D01*
X37227685Y-137226450D01*
X37325232Y-137043954D01*
X37385300Y-136845934D01*
X37385301Y-136845929D01*
X37405583Y-136640003D01*
X37405583Y-136639996D01*
X37385301Y-136434070D01*
X37385300Y-136434065D01*
X37326401Y-136239901D01*
X37325232Y-136236046D01*
X37227685Y-136053550D01*
X37172024Y-135985727D01*
X37172022Y-135985725D01*
X37839500Y-135985725D01*
X37839500Y-137294274D01*
X37842353Y-137324694D01*
X37842355Y-137324703D01*
X37887207Y-137452883D01*
X37967845Y-137562144D01*
X37967847Y-137562146D01*
X37967850Y-137562150D01*
X37967853Y-137562152D01*
X37967855Y-137562154D01*
X38077116Y-137642792D01*
X38077117Y-137642792D01*
X38077118Y-137642793D01*
X38205301Y-137687646D01*
X38235725Y-137690499D01*
X38235727Y-137690500D01*
X38235734Y-137690500D01*
X39544273Y-137690500D01*
X39544273Y-137690499D01*
X39574699Y-137687646D01*
X39702882Y-137642793D01*
X39812150Y-137562150D01*
X39892793Y-137452882D01*
X39937646Y-137324699D01*
X39940499Y-137294273D01*
X39940500Y-137294273D01*
X39940500Y-135985727D01*
X39940499Y-135985725D01*
X39937646Y-135955301D01*
X39892793Y-135827118D01*
X39875398Y-135803549D01*
X39812154Y-135717855D01*
X39812152Y-135717853D01*
X39812150Y-135717850D01*
X39812146Y-135717847D01*
X39812144Y-135717845D01*
X39702883Y-135637207D01*
X39574703Y-135592355D01*
X39574694Y-135592353D01*
X39544274Y-135589500D01*
X39544266Y-135589500D01*
X38235734Y-135589500D01*
X38235725Y-135589500D01*
X38205305Y-135592353D01*
X38205296Y-135592355D01*
X38077116Y-135637207D01*
X37967855Y-135717845D01*
X37967845Y-135717855D01*
X37887207Y-135827116D01*
X37842355Y-135955296D01*
X37842353Y-135955305D01*
X37839500Y-135985725D01*
X37172022Y-135985725D01*
X37096414Y-135893595D01*
X37096410Y-135893590D01*
X37096404Y-135893585D01*
X36936452Y-135762316D01*
X36753954Y-135664768D01*
X36555934Y-135604699D01*
X36555929Y-135604698D01*
X36350003Y-135584417D01*
X36349997Y-135584417D01*
X36144070Y-135604698D01*
X36144065Y-135604699D01*
X35946045Y-135664768D01*
X35763547Y-135762316D01*
X35603595Y-135893585D01*
X35603585Y-135893595D01*
X35472316Y-136053547D01*
X35374768Y-136236045D01*
X35314699Y-136434065D01*
X35314698Y-136434070D01*
X35294417Y-136639996D01*
X34865583Y-136639996D01*
X34845301Y-136434070D01*
X34845300Y-136434065D01*
X34786401Y-136239901D01*
X34785232Y-136236046D01*
X34687685Y-136053550D01*
X34632024Y-135985727D01*
X34556414Y-135893595D01*
X34556410Y-135893590D01*
X34556404Y-135893585D01*
X34396452Y-135762316D01*
X34213954Y-135664768D01*
X34015934Y-135604699D01*
X34015929Y-135604698D01*
X33810003Y-135584417D01*
X33809997Y-135584417D01*
X33604070Y-135604698D01*
X33604065Y-135604699D01*
X33406045Y-135664768D01*
X33223547Y-135762316D01*
X33063595Y-135893585D01*
X33063585Y-135893595D01*
X32932316Y-136053547D01*
X32834769Y-136236044D01*
X32789180Y-136386329D01*
X32754195Y-136436525D01*
X32696386Y-136456571D01*
X32637836Y-136438810D01*
X32600907Y-136390025D01*
X32598816Y-136383213D01*
X32543429Y-136176504D01*
X32443605Y-135962432D01*
X32443601Y-135962424D01*
X32414047Y-135920216D01*
X31767905Y-136566357D01*
X31735925Y-136447007D01*
X31670099Y-136332993D01*
X31577007Y-136239901D01*
X31462993Y-136174075D01*
X31343639Y-136142093D01*
X31989782Y-135495951D01*
X31947580Y-135466400D01*
X31947575Y-135466398D01*
X31933265Y-135459725D01*
X31888516Y-135417997D01*
X31876841Y-135357936D01*
X31902698Y-135302483D01*
X31933265Y-135280275D01*
X31947571Y-135273604D01*
X31947578Y-135273600D01*
X31989781Y-135244046D01*
X31343640Y-134597905D01*
X31462993Y-134565925D01*
X31577007Y-134500099D01*
X31670099Y-134407007D01*
X31735925Y-134292993D01*
X31767905Y-134173640D01*
X32414046Y-134819781D01*
X32443598Y-134777580D01*
X32443603Y-134777572D01*
X32543429Y-134563495D01*
X32598816Y-134356786D01*
X32632140Y-134305472D01*
X32689261Y-134283545D01*
X32748362Y-134299380D01*
X32786867Y-134346930D01*
X32789180Y-134353671D01*
X32834768Y-134503954D01*
X32932316Y-134686452D01*
X33007096Y-134777572D01*
X33063590Y-134846410D01*
X33063595Y-134846414D01*
X33223547Y-134977683D01*
X33223548Y-134977683D01*
X33223550Y-134977685D01*
X33406046Y-135075232D01*
X33543997Y-135117078D01*
X33604065Y-135135300D01*
X33604070Y-135135301D01*
X33809997Y-135155583D01*
X33810000Y-135155583D01*
X33810003Y-135155583D01*
X34015929Y-135135301D01*
X34015934Y-135135300D01*
X34213954Y-135075232D01*
X34396450Y-134977685D01*
X34556410Y-134846410D01*
X34687685Y-134686450D01*
X34785232Y-134503954D01*
X34845300Y-134305934D01*
X34845301Y-134305929D01*
X34865583Y-134100003D01*
X34865583Y-134099996D01*
X35294417Y-134099996D01*
X35294417Y-134100003D01*
X35314698Y-134305929D01*
X35314699Y-134305934D01*
X35374768Y-134503954D01*
X35472316Y-134686452D01*
X35547096Y-134777572D01*
X35603590Y-134846410D01*
X35603595Y-134846414D01*
X35763547Y-134977683D01*
X35763548Y-134977683D01*
X35763550Y-134977685D01*
X35946046Y-135075232D01*
X36083997Y-135117078D01*
X36144065Y-135135300D01*
X36144070Y-135135301D01*
X36349997Y-135155583D01*
X36350000Y-135155583D01*
X36350003Y-135155583D01*
X36555929Y-135135301D01*
X36555934Y-135135300D01*
X36753954Y-135075232D01*
X36936450Y-134977685D01*
X37096410Y-134846410D01*
X37227685Y-134686450D01*
X37325232Y-134503954D01*
X37385300Y-134305934D01*
X37385301Y-134305929D01*
X37405583Y-134100003D01*
X37405583Y-134099996D01*
X37834417Y-134099996D01*
X37834417Y-134100003D01*
X37854698Y-134305929D01*
X37854699Y-134305934D01*
X37914768Y-134503954D01*
X38012316Y-134686452D01*
X38087096Y-134777572D01*
X38143590Y-134846410D01*
X38143595Y-134846414D01*
X38303547Y-134977683D01*
X38303548Y-134977683D01*
X38303550Y-134977685D01*
X38486046Y-135075232D01*
X38623997Y-135117078D01*
X38684065Y-135135300D01*
X38684070Y-135135301D01*
X38889997Y-135155583D01*
X38890000Y-135155583D01*
X38890003Y-135155583D01*
X39095929Y-135135301D01*
X39095934Y-135135300D01*
X39293954Y-135075232D01*
X39476450Y-134977685D01*
X39636410Y-134846410D01*
X39767685Y-134686450D01*
X39865232Y-134503954D01*
X39925300Y-134305934D01*
X39925301Y-134305929D01*
X39945583Y-134100003D01*
X39945583Y-134099996D01*
X39925301Y-133894070D01*
X39925300Y-133894065D01*
X39866401Y-133699901D01*
X39865232Y-133696046D01*
X39767685Y-133513550D01*
X39636410Y-133353590D01*
X39636404Y-133353585D01*
X39476452Y-133222316D01*
X39293954Y-133124768D01*
X39095934Y-133064699D01*
X39095929Y-133064698D01*
X38890003Y-133044417D01*
X38889997Y-133044417D01*
X38684070Y-133064698D01*
X38684065Y-133064699D01*
X38486045Y-133124768D01*
X38303547Y-133222316D01*
X38143595Y-133353585D01*
X38143585Y-133353595D01*
X38012316Y-133513547D01*
X37914768Y-133696045D01*
X37854699Y-133894065D01*
X37854698Y-133894070D01*
X37834417Y-134099996D01*
X37405583Y-134099996D01*
X37385301Y-133894070D01*
X37385300Y-133894065D01*
X37326401Y-133699901D01*
X37325232Y-133696046D01*
X37227685Y-133513550D01*
X37096410Y-133353590D01*
X37096404Y-133353585D01*
X36936452Y-133222316D01*
X36753954Y-133124768D01*
X36555934Y-133064699D01*
X36555929Y-133064698D01*
X36350003Y-133044417D01*
X36349997Y-133044417D01*
X36144070Y-133064698D01*
X36144065Y-133064699D01*
X35946045Y-133124768D01*
X35763547Y-133222316D01*
X35603595Y-133353585D01*
X35603585Y-133353595D01*
X35472316Y-133513547D01*
X35374768Y-133696045D01*
X35314699Y-133894065D01*
X35314698Y-133894070D01*
X35294417Y-134099996D01*
X34865583Y-134099996D01*
X34845301Y-133894070D01*
X34845300Y-133894065D01*
X34786401Y-133699901D01*
X34785232Y-133696046D01*
X34687685Y-133513550D01*
X34556410Y-133353590D01*
X34556404Y-133353585D01*
X34396452Y-133222316D01*
X34213954Y-133124768D01*
X34015934Y-133064699D01*
X34015929Y-133064698D01*
X33810003Y-133044417D01*
X33809997Y-133044417D01*
X33604070Y-133064698D01*
X33604065Y-133064699D01*
X33406045Y-133124768D01*
X33223547Y-133222316D01*
X33063595Y-133353585D01*
X33063585Y-133353595D01*
X32932316Y-133513547D01*
X32834769Y-133696044D01*
X32789180Y-133846329D01*
X32754195Y-133896525D01*
X32696386Y-133916571D01*
X32637836Y-133898810D01*
X32600907Y-133850025D01*
X32598816Y-133843213D01*
X32543429Y-133636504D01*
X32443605Y-133422432D01*
X32443601Y-133422424D01*
X32414047Y-133380216D01*
X31767905Y-134026357D01*
X31735925Y-133907007D01*
X31670099Y-133792993D01*
X31577007Y-133699901D01*
X31462993Y-133634075D01*
X31343639Y-133602093D01*
X31989782Y-132955951D01*
X31947580Y-132926400D01*
X31733489Y-132826569D01*
X31505313Y-132765429D01*
X31270003Y-132744843D01*
X31269997Y-132744843D01*
X31034686Y-132765429D01*
X30806505Y-132826570D01*
X30592432Y-132926394D01*
X30592420Y-132926401D01*
X30550216Y-132955951D01*
X31196359Y-133602094D01*
X31077007Y-133634075D01*
X30962993Y-133699901D01*
X30869901Y-133792993D01*
X30804075Y-133907007D01*
X30772094Y-134026359D01*
X30125951Y-133380216D01*
X30096401Y-133422420D01*
X30096394Y-133422432D01*
X29996570Y-133636505D01*
X29941183Y-133843213D01*
X29907859Y-133894527D01*
X29850737Y-133916454D01*
X29791637Y-133900618D01*
X29753132Y-133853068D01*
X29750819Y-133846328D01*
X29706401Y-133699901D01*
X29705232Y-133696046D01*
X29607685Y-133513550D01*
X29476410Y-133353590D01*
X29476408Y-133353588D01*
X29476407Y-133353587D01*
X29366695Y-133263549D01*
X29333708Y-133212018D01*
X29330500Y-133187021D01*
X29330500Y-132107045D01*
X29330501Y-132107032D01*
X29330501Y-131940942D01*
X29330500Y-131940940D01*
X29289578Y-131788219D01*
X29289578Y-131788218D01*
X29289577Y-131788216D01*
X29210520Y-131651284D01*
X24230521Y-126671286D01*
X24230520Y-126671284D01*
X24118716Y-126559480D01*
X24031904Y-126509360D01*
X24031903Y-126509359D01*
X23981788Y-126480425D01*
X23981785Y-126480423D01*
X23829057Y-126439499D01*
X23670943Y-126439499D01*
X23664880Y-126439499D01*
X23664864Y-126439500D01*
X21067883Y-126439500D01*
X21009692Y-126420593D01*
X20982149Y-126390005D01*
X20980563Y-126387258D01*
X20850053Y-126200869D01*
X20850052Y-126200867D01*
X20850049Y-126200864D01*
X20850047Y-126200861D01*
X20689139Y-126039953D01*
X20689135Y-126039950D01*
X20689132Y-126039947D01*
X20689130Y-126039946D01*
X20518188Y-125920253D01*
X28709500Y-125920253D01*
X28709500Y-128159746D01*
X28709501Y-128159758D01*
X28721132Y-128218227D01*
X28721134Y-128218233D01*
X28765445Y-128284548D01*
X28765448Y-128284552D01*
X28831769Y-128328867D01*
X28876231Y-128337711D01*
X28890241Y-128340498D01*
X28890246Y-128340498D01*
X28890252Y-128340500D01*
X28890253Y-128340500D01*
X31129747Y-128340500D01*
X31129748Y-128340500D01*
X31188231Y-128328867D01*
X31254552Y-128284552D01*
X31298867Y-128218231D01*
X31310500Y-128159748D01*
X31310500Y-127699500D01*
X31329407Y-127641309D01*
X31378907Y-127605345D01*
X31409500Y-127600500D01*
X32891704Y-127600500D01*
X32949895Y-127619407D01*
X32968232Y-127636695D01*
X33014213Y-127692723D01*
X33029117Y-127710883D01*
X33181462Y-127835910D01*
X33355273Y-127928814D01*
X33543868Y-127986024D01*
X33543870Y-127986024D01*
X33543873Y-127986025D01*
X33739997Y-128005341D01*
X33740000Y-128005341D01*
X33740003Y-128005341D01*
X33936126Y-127986025D01*
X33936127Y-127986024D01*
X33936132Y-127986024D01*
X34124727Y-127928814D01*
X34298538Y-127835910D01*
X34450883Y-127710883D01*
X34575910Y-127558538D01*
X34668814Y-127384727D01*
X34726024Y-127196132D01*
X34741402Y-127040000D01*
X34745341Y-127000003D01*
X34745341Y-126999996D01*
X34726025Y-126803873D01*
X34726024Y-126803870D01*
X34726024Y-126803868D01*
X34668814Y-126615273D01*
X34575910Y-126441462D01*
X34558783Y-126420593D01*
X34450887Y-126289121D01*
X34450878Y-126289112D01*
X34298542Y-126164093D01*
X34298540Y-126164092D01*
X34298538Y-126164090D01*
X34184917Y-126103358D01*
X34124732Y-126071188D01*
X34124730Y-126071187D01*
X33936129Y-126013975D01*
X33936126Y-126013974D01*
X33740003Y-125994659D01*
X33739997Y-125994659D01*
X33543873Y-126013974D01*
X33543870Y-126013975D01*
X33355269Y-126071187D01*
X33355267Y-126071188D01*
X33181467Y-126164087D01*
X33181457Y-126164093D01*
X33029121Y-126289113D01*
X33029112Y-126289122D01*
X32968232Y-126363305D01*
X32916700Y-126396292D01*
X32891704Y-126399500D01*
X31409500Y-126399500D01*
X31351309Y-126380593D01*
X31315345Y-126331093D01*
X31310500Y-126300500D01*
X31310500Y-125920253D01*
X31310498Y-125920241D01*
X31307711Y-125906231D01*
X31298867Y-125861769D01*
X31254552Y-125795448D01*
X31193065Y-125754363D01*
X31188233Y-125751134D01*
X31188231Y-125751133D01*
X31188228Y-125751132D01*
X31188227Y-125751132D01*
X31129758Y-125739501D01*
X31129748Y-125739500D01*
X28890252Y-125739500D01*
X28890251Y-125739500D01*
X28890241Y-125739501D01*
X28831772Y-125751132D01*
X28831766Y-125751134D01*
X28765451Y-125795445D01*
X28765445Y-125795451D01*
X28721134Y-125861766D01*
X28721132Y-125861772D01*
X28709501Y-125920241D01*
X28709500Y-125920253D01*
X20518188Y-125920253D01*
X20502737Y-125909434D01*
X20502736Y-125909433D01*
X20502734Y-125909432D01*
X20502731Y-125909430D01*
X20502723Y-125909426D01*
X20296499Y-125813262D01*
X20296500Y-125813262D01*
X20223228Y-125793629D01*
X20076692Y-125754365D01*
X20076691Y-125754364D01*
X20076684Y-125754363D01*
X19850003Y-125734532D01*
X19849997Y-125734532D01*
X19623315Y-125754363D01*
X19403499Y-125813262D01*
X19197276Y-125909426D01*
X19197262Y-125909434D01*
X19010869Y-126039946D01*
X19010867Y-126039947D01*
X18849947Y-126200867D01*
X18849946Y-126200869D01*
X18719434Y-126387262D01*
X18719426Y-126387276D01*
X18623262Y-126593499D01*
X18564363Y-126813315D01*
X18544532Y-127039996D01*
X15500500Y-127039996D01*
X15500500Y-122668147D01*
X27786116Y-122668147D01*
X27817519Y-122690135D01*
X28023676Y-122786266D01*
X28243402Y-122845142D01*
X28469997Y-122864966D01*
X28470003Y-122864966D01*
X28696597Y-122845142D01*
X28916323Y-122786266D01*
X29122483Y-122690133D01*
X29122486Y-122690132D01*
X29153883Y-122668147D01*
X28470000Y-121984264D01*
X27786116Y-122668147D01*
X15500500Y-122668147D01*
X15500500Y-121559996D01*
X27165034Y-121559996D01*
X27165034Y-121560003D01*
X27184857Y-121786597D01*
X27243734Y-122006328D01*
X27339861Y-122212474D01*
X27339871Y-122212490D01*
X27361851Y-122243882D01*
X28045734Y-121559999D01*
X27993074Y-121507339D01*
X28070000Y-121507339D01*
X28070000Y-121612661D01*
X28097259Y-121714394D01*
X28149920Y-121805606D01*
X28224394Y-121880080D01*
X28315606Y-121932741D01*
X28417339Y-121960000D01*
X28522661Y-121960000D01*
X28624394Y-121932741D01*
X28715606Y-121880080D01*
X28790080Y-121805606D01*
X28842741Y-121714394D01*
X28870000Y-121612661D01*
X28870000Y-121560000D01*
X28894264Y-121560000D01*
X29578147Y-122243883D01*
X29600132Y-122212486D01*
X29600133Y-122212483D01*
X29696266Y-122006323D01*
X29755142Y-121786597D01*
X29771877Y-121595312D01*
X29785916Y-121562237D01*
X29783782Y-121556528D01*
X29956351Y-121556528D01*
X29969500Y-121603940D01*
X29969500Y-122379746D01*
X29969501Y-122379758D01*
X29981132Y-122438227D01*
X29981133Y-122438231D01*
X30025448Y-122504552D01*
X30091769Y-122548867D01*
X30136231Y-122557711D01*
X30150241Y-122560498D01*
X30150246Y-122560498D01*
X30150252Y-122560500D01*
X30150253Y-122560500D01*
X31789747Y-122560500D01*
X31789748Y-122560500D01*
X31848231Y-122548867D01*
X31914552Y-122504552D01*
X31958867Y-122438231D01*
X31970500Y-122379748D01*
X31970500Y-122259500D01*
X31989407Y-122201309D01*
X32038907Y-122165345D01*
X32069500Y-122160500D01*
X35164257Y-122160500D01*
X35222448Y-122179407D01*
X35234261Y-122189496D01*
X40422750Y-127377986D01*
X40440056Y-127401322D01*
X40524090Y-127558538D01*
X40524092Y-127558540D01*
X40524093Y-127558542D01*
X40649112Y-127710878D01*
X40649121Y-127710887D01*
X40801457Y-127835906D01*
X40801462Y-127835910D01*
X40975273Y-127928814D01*
X41163868Y-127986024D01*
X41163870Y-127986024D01*
X41163873Y-127986025D01*
X41359997Y-128005341D01*
X41360000Y-128005341D01*
X41360003Y-128005341D01*
X41556126Y-127986025D01*
X41556127Y-127986024D01*
X41556132Y-127986024D01*
X41744727Y-127928814D01*
X41918538Y-127835910D01*
X42070883Y-127710883D01*
X42195910Y-127558538D01*
X42288814Y-127384727D01*
X42346024Y-127196132D01*
X42361402Y-127040000D01*
X42365341Y-127000003D01*
X42365341Y-126999996D01*
X42346025Y-126803873D01*
X42346024Y-126803870D01*
X42346024Y-126803868D01*
X42288814Y-126615273D01*
X42195910Y-126441462D01*
X42178783Y-126420593D01*
X42070887Y-126289121D01*
X42070878Y-126289112D01*
X41918542Y-126164093D01*
X41918540Y-126164092D01*
X41918538Y-126164090D01*
X41804917Y-126103358D01*
X41744732Y-126071188D01*
X41744730Y-126071187D01*
X41556129Y-126013975D01*
X41556126Y-126013974D01*
X41360003Y-125994659D01*
X41359997Y-125994659D01*
X41163873Y-126013974D01*
X41163870Y-126013975D01*
X40975270Y-126071187D01*
X40935203Y-126092603D01*
X40874970Y-126103358D01*
X40819919Y-126076655D01*
X40818532Y-126075296D01*
X35934521Y-121191286D01*
X35934520Y-121191284D01*
X35822716Y-121079480D01*
X35735904Y-121029360D01*
X35735903Y-121029359D01*
X35685788Y-121000425D01*
X35685785Y-121000423D01*
X35533057Y-120959499D01*
X35374943Y-120959499D01*
X35368880Y-120959499D01*
X35368864Y-120959500D01*
X32069500Y-120959500D01*
X32011309Y-120940593D01*
X31975345Y-120891093D01*
X31970500Y-120860500D01*
X31970500Y-120740253D01*
X31970498Y-120740241D01*
X31967711Y-120726231D01*
X31958867Y-120681769D01*
X31914552Y-120615448D01*
X31914548Y-120615445D01*
X31848233Y-120571134D01*
X31848231Y-120571133D01*
X31848228Y-120571132D01*
X31848227Y-120571132D01*
X31789758Y-120559501D01*
X31789748Y-120559500D01*
X31789747Y-120559500D01*
X31669500Y-120559500D01*
X31611309Y-120540593D01*
X31575345Y-120491093D01*
X31570500Y-120460500D01*
X31570500Y-117147743D01*
X31589407Y-117089552D01*
X31599496Y-117077739D01*
X37967740Y-110709496D01*
X38022257Y-110681719D01*
X38037744Y-110680500D01*
X41657021Y-110680500D01*
X41715212Y-110699407D01*
X41733549Y-110716695D01*
X41823587Y-110826407D01*
X41823588Y-110826408D01*
X41823590Y-110826410D01*
X41909642Y-110897030D01*
X41983547Y-110957683D01*
X41983548Y-110957683D01*
X41983550Y-110957685D01*
X42166046Y-111055232D01*
X42303997Y-111097078D01*
X42364065Y-111115300D01*
X42364070Y-111115301D01*
X42569997Y-111135583D01*
X42570000Y-111135583D01*
X42570003Y-111135583D01*
X42775929Y-111115301D01*
X42775934Y-111115300D01*
X42973954Y-111055232D01*
X43156450Y-110957685D01*
X43316410Y-110826410D01*
X43447685Y-110666450D01*
X43545232Y-110483954D01*
X43605300Y-110285934D01*
X43605301Y-110285929D01*
X43625583Y-110080003D01*
X43625583Y-110079996D01*
X43605301Y-109874070D01*
X43605300Y-109874065D01*
X43580819Y-109793363D01*
X43545232Y-109676046D01*
X43447685Y-109493550D01*
X43406450Y-109443305D01*
X43316414Y-109333595D01*
X43316410Y-109333590D01*
X43316404Y-109333585D01*
X43156452Y-109202316D01*
X42973954Y-109104768D01*
X42775934Y-109044699D01*
X42775929Y-109044698D01*
X42570003Y-109024417D01*
X42569997Y-109024417D01*
X42364070Y-109044698D01*
X42364065Y-109044699D01*
X42166045Y-109104768D01*
X41983547Y-109202316D01*
X41823587Y-109333592D01*
X41733549Y-109443305D01*
X41682018Y-109476292D01*
X41657021Y-109479500D01*
X37833137Y-109479500D01*
X37833121Y-109479499D01*
X37827058Y-109479499D01*
X37668943Y-109479499D01*
X37668940Y-109479499D01*
X37516219Y-109520421D01*
X37516218Y-109520421D01*
X37379284Y-109599480D01*
X30601286Y-116377478D01*
X30601284Y-116377480D01*
X30601283Y-116377479D01*
X30489479Y-116489284D01*
X30439359Y-116576095D01*
X30410425Y-116626209D01*
X30410423Y-116626213D01*
X30410423Y-116626215D01*
X30369499Y-116778943D01*
X30369499Y-116778945D01*
X30369499Y-116945031D01*
X30369500Y-116945044D01*
X30369500Y-120460500D01*
X30350593Y-120518691D01*
X30301093Y-120554655D01*
X30270500Y-120559500D01*
X30150252Y-120559500D01*
X30150251Y-120559500D01*
X30150241Y-120559501D01*
X30091772Y-120571132D01*
X30091766Y-120571134D01*
X30025451Y-120615445D01*
X30025445Y-120615451D01*
X29981134Y-120681766D01*
X29981132Y-120681772D01*
X29969501Y-120740241D01*
X29969500Y-120740253D01*
X29969500Y-121516059D01*
X29956351Y-121556528D01*
X29783782Y-121556528D01*
X29771877Y-121524687D01*
X29755142Y-121333402D01*
X29696266Y-121113676D01*
X29600135Y-120907519D01*
X29578147Y-120876116D01*
X28894264Y-121560000D01*
X28870000Y-121560000D01*
X28870000Y-121507339D01*
X28842741Y-121405606D01*
X28790080Y-121314394D01*
X28715606Y-121239920D01*
X28624394Y-121187259D01*
X28522661Y-121160000D01*
X28417339Y-121160000D01*
X28315606Y-121187259D01*
X28224394Y-121239920D01*
X28149920Y-121314394D01*
X28097259Y-121405606D01*
X28070000Y-121507339D01*
X27993074Y-121507339D01*
X27361851Y-120876116D01*
X27339871Y-120907509D01*
X27339860Y-120907526D01*
X27243734Y-121113671D01*
X27184857Y-121333402D01*
X27165034Y-121559996D01*
X15500500Y-121559996D01*
X15500500Y-120451851D01*
X27786116Y-120451851D01*
X28469999Y-121135734D01*
X29153882Y-120451851D01*
X29122490Y-120429871D01*
X29122474Y-120429861D01*
X28916328Y-120333734D01*
X28916329Y-120333734D01*
X28696597Y-120274857D01*
X28470003Y-120255034D01*
X28469997Y-120255034D01*
X28243402Y-120274857D01*
X28023671Y-120333734D01*
X27817526Y-120429860D01*
X27817509Y-120429871D01*
X27786116Y-120451851D01*
X15500500Y-120451851D01*
X15500500Y-109097322D01*
X15519407Y-109039131D01*
X15568907Y-109003167D01*
X15630093Y-109003167D01*
X15669504Y-109027318D01*
X16381032Y-109738846D01*
X16408809Y-109793363D01*
X16405765Y-109837588D01*
X16394699Y-109874065D01*
X16394698Y-109874070D01*
X16374417Y-110079996D01*
X16374417Y-110080003D01*
X16394698Y-110285929D01*
X16394699Y-110285934D01*
X16454768Y-110483954D01*
X16552316Y-110666452D01*
X16683585Y-110826404D01*
X16683590Y-110826410D01*
X16683595Y-110826414D01*
X16843547Y-110957683D01*
X16843548Y-110957683D01*
X16843550Y-110957685D01*
X17026046Y-111055232D01*
X17163997Y-111097078D01*
X17224065Y-111115300D01*
X17224070Y-111115301D01*
X17429997Y-111135583D01*
X17430000Y-111135583D01*
X17430003Y-111135583D01*
X17635929Y-111115301D01*
X17635934Y-111115300D01*
X17833954Y-111055232D01*
X18016450Y-110957685D01*
X18176410Y-110826410D01*
X18307685Y-110666450D01*
X18405232Y-110483954D01*
X18465300Y-110285934D01*
X18465301Y-110285929D01*
X18485583Y-110080003D01*
X18485583Y-110079996D01*
X18465301Y-109874070D01*
X18465300Y-109874065D01*
X18440819Y-109793363D01*
X18405232Y-109676046D01*
X18307685Y-109493550D01*
X18266450Y-109443305D01*
X18176414Y-109333595D01*
X18176410Y-109333590D01*
X18176404Y-109333585D01*
X18016452Y-109202316D01*
X17833954Y-109104768D01*
X17635934Y-109044699D01*
X17635929Y-109044698D01*
X17430003Y-109024417D01*
X17429997Y-109024417D01*
X17224070Y-109044698D01*
X17224065Y-109044699D01*
X17187588Y-109055765D01*
X17126414Y-109054564D01*
X17088846Y-109031032D01*
X16329496Y-108271682D01*
X16301719Y-108217165D01*
X16300500Y-108201678D01*
X16300500Y-108050568D01*
X16319407Y-107992377D01*
X16368907Y-107956413D01*
X16430093Y-107956413D01*
X16479593Y-107992377D01*
X16486810Y-108003899D01*
X16552316Y-108126452D01*
X16626762Y-108217165D01*
X16683590Y-108286410D01*
X16683595Y-108286414D01*
X16843547Y-108417683D01*
X16843548Y-108417683D01*
X16843550Y-108417685D01*
X17026046Y-108515232D01*
X17163997Y-108557078D01*
X17224065Y-108575300D01*
X17224070Y-108575301D01*
X17429997Y-108595583D01*
X17430000Y-108595583D01*
X17430003Y-108595583D01*
X17635929Y-108575301D01*
X17635934Y-108575300D01*
X17833954Y-108515232D01*
X18016450Y-108417685D01*
X18176410Y-108286410D01*
X18307685Y-108126450D01*
X18405232Y-107943954D01*
X18465300Y-107745934D01*
X18465301Y-107745929D01*
X18485583Y-107540003D01*
X18485583Y-107539996D01*
X18465301Y-107334070D01*
X18465300Y-107334065D01*
X18447078Y-107273997D01*
X18405232Y-107136046D01*
X18307685Y-106953550D01*
X18176410Y-106793590D01*
X18176404Y-106793585D01*
X18016452Y-106662316D01*
X17833954Y-106564768D01*
X17764623Y-106543737D01*
X17714426Y-106508752D01*
X17694380Y-106450944D01*
X17712141Y-106392393D01*
X17760925Y-106355464D01*
X17793361Y-106350000D01*
X18327824Y-106350000D01*
X18387370Y-106343598D01*
X18387381Y-106343596D01*
X18522088Y-106293353D01*
X18522090Y-106293352D01*
X18637184Y-106207192D01*
X18637192Y-106207184D01*
X18723352Y-106092090D01*
X18723353Y-106092088D01*
X18773596Y-105957381D01*
X18773598Y-105957370D01*
X18780000Y-105897824D01*
X41219999Y-105897824D01*
X41226401Y-105957370D01*
X41226403Y-105957381D01*
X41276646Y-106092088D01*
X41276647Y-106092090D01*
X41362807Y-106207184D01*
X41362815Y-106207192D01*
X41477909Y-106293352D01*
X41477911Y-106293353D01*
X41612618Y-106343596D01*
X41612629Y-106343598D01*
X41672176Y-106350000D01*
X42206639Y-106350000D01*
X42264830Y-106368907D01*
X42300794Y-106418407D01*
X42300794Y-106479593D01*
X42264830Y-106529093D01*
X42235377Y-106543737D01*
X42166045Y-106564768D01*
X41983547Y-106662316D01*
X41823595Y-106793585D01*
X41823585Y-106793595D01*
X41692316Y-106953547D01*
X41594768Y-107136045D01*
X41534699Y-107334065D01*
X41534698Y-107334070D01*
X41514417Y-107539996D01*
X41514417Y-107540003D01*
X41534698Y-107745929D01*
X41534699Y-107745934D01*
X41594768Y-107943954D01*
X41692316Y-108126452D01*
X41766762Y-108217165D01*
X41823590Y-108286410D01*
X41823595Y-108286414D01*
X41983547Y-108417683D01*
X41983548Y-108417683D01*
X41983550Y-108417685D01*
X42166046Y-108515232D01*
X42303997Y-108557078D01*
X42364065Y-108575300D01*
X42364070Y-108575301D01*
X42569997Y-108595583D01*
X42570000Y-108595583D01*
X42570003Y-108595583D01*
X42775929Y-108575301D01*
X42775934Y-108575300D01*
X42973954Y-108515232D01*
X43156450Y-108417685D01*
X43316410Y-108286410D01*
X43447685Y-108126450D01*
X43545232Y-107943954D01*
X43605300Y-107745934D01*
X43605301Y-107745929D01*
X43625583Y-107540003D01*
X43625583Y-107539996D01*
X43605301Y-107334070D01*
X43605300Y-107334065D01*
X43587078Y-107273997D01*
X43545232Y-107136046D01*
X43447685Y-106953550D01*
X43316410Y-106793590D01*
X43316404Y-106793585D01*
X43156452Y-106662316D01*
X42973954Y-106564768D01*
X42904623Y-106543737D01*
X42854426Y-106508752D01*
X42834380Y-106450944D01*
X42852141Y-106392393D01*
X42900925Y-106355464D01*
X42933361Y-106350000D01*
X43467824Y-106350000D01*
X43527370Y-106343598D01*
X43527381Y-106343596D01*
X43662088Y-106293353D01*
X43662090Y-106293352D01*
X43777184Y-106207192D01*
X43777192Y-106207184D01*
X43863352Y-106092090D01*
X43863353Y-106092088D01*
X43913596Y-105957381D01*
X43913598Y-105957370D01*
X43920000Y-105897824D01*
X43920000Y-105300001D01*
X43919999Y-105300000D01*
X42974144Y-105300000D01*
X43035925Y-105192993D01*
X43070000Y-105065826D01*
X43070000Y-104934174D01*
X43035925Y-104807007D01*
X42974144Y-104700000D01*
X43919999Y-104700000D01*
X43920000Y-104699999D01*
X43920000Y-104102175D01*
X43913598Y-104042629D01*
X43913596Y-104042618D01*
X43863353Y-103907911D01*
X43863352Y-103907909D01*
X43777192Y-103792815D01*
X43777184Y-103792807D01*
X43662090Y-103706647D01*
X43662088Y-103706646D01*
X43527381Y-103656403D01*
X43527370Y-103656401D01*
X43467824Y-103650000D01*
X42870001Y-103650000D01*
X42870000Y-103650001D01*
X42870000Y-104595855D01*
X42762993Y-104534075D01*
X42635826Y-104500000D01*
X42504174Y-104500000D01*
X42377007Y-104534075D01*
X42270000Y-104595855D01*
X42270000Y-103650001D01*
X42269999Y-103650000D01*
X41672176Y-103650000D01*
X41612629Y-103656401D01*
X41612618Y-103656403D01*
X41477911Y-103706646D01*
X41477909Y-103706647D01*
X41362815Y-103792807D01*
X41362807Y-103792815D01*
X41276647Y-103907909D01*
X41276646Y-103907911D01*
X41226403Y-104042618D01*
X41226401Y-104042629D01*
X41220000Y-104102175D01*
X41220000Y-104699999D01*
X41220001Y-104700000D01*
X42165856Y-104700000D01*
X42104075Y-104807007D01*
X42070000Y-104934174D01*
X42070000Y-105065826D01*
X42104075Y-105192993D01*
X42165856Y-105300000D01*
X41220001Y-105300000D01*
X41220000Y-105300001D01*
X41220000Y-105897824D01*
X41219999Y-105897824D01*
X18780000Y-105897824D01*
X18780000Y-105300001D01*
X18779999Y-105300000D01*
X17834144Y-105300000D01*
X17895925Y-105192993D01*
X17930000Y-105065826D01*
X17930000Y-104934174D01*
X17895925Y-104807007D01*
X17834144Y-104700000D01*
X18779999Y-104700000D01*
X18780000Y-104699999D01*
X18780000Y-104102175D01*
X18773598Y-104042629D01*
X18773596Y-104042618D01*
X18723353Y-103907911D01*
X18723352Y-103907909D01*
X18637192Y-103792815D01*
X18637184Y-103792807D01*
X18522090Y-103706647D01*
X18522088Y-103706646D01*
X18387381Y-103656403D01*
X18387370Y-103656401D01*
X18327824Y-103650000D01*
X17730001Y-103650000D01*
X17730000Y-103650001D01*
X17730000Y-104595855D01*
X17622993Y-104534075D01*
X17495826Y-104500000D01*
X17364174Y-104500000D01*
X17237007Y-104534075D01*
X17130000Y-104595855D01*
X17130000Y-103650001D01*
X17129999Y-103650000D01*
X16532176Y-103650000D01*
X16472629Y-103656401D01*
X16472622Y-103656402D01*
X16434095Y-103670772D01*
X16372965Y-103673391D01*
X16321971Y-103639579D01*
X16300591Y-103582250D01*
X16300500Y-103578013D01*
X16300500Y-100259996D01*
X17704417Y-100259996D01*
X17704417Y-100260003D01*
X17724698Y-100465929D01*
X17724699Y-100465934D01*
X17784768Y-100663954D01*
X17882316Y-100846452D01*
X18013585Y-101006404D01*
X18013590Y-101006410D01*
X18013595Y-101006414D01*
X18173547Y-101137683D01*
X18173548Y-101137683D01*
X18173550Y-101137685D01*
X18356046Y-101235232D01*
X18466855Y-101268845D01*
X18554065Y-101295300D01*
X18554070Y-101295301D01*
X18759997Y-101315583D01*
X18760000Y-101315583D01*
X18760003Y-101315583D01*
X18965929Y-101295301D01*
X18965934Y-101295300D01*
X19163954Y-101235232D01*
X19346450Y-101137685D01*
X19506410Y-101006410D01*
X19637685Y-100846450D01*
X19735232Y-100663954D01*
X19795300Y-100465934D01*
X19795301Y-100465929D01*
X19815583Y-100260003D01*
X19815583Y-100259996D01*
X19795301Y-100054070D01*
X19795300Y-100054065D01*
X19762576Y-99946189D01*
X19735232Y-99856046D01*
X19637685Y-99673550D01*
X19580981Y-99604456D01*
X19506414Y-99513595D01*
X19506410Y-99513590D01*
X19490167Y-99500260D01*
X19346452Y-99382316D01*
X19163954Y-99284768D01*
X18965934Y-99224699D01*
X18965929Y-99224698D01*
X18760003Y-99204417D01*
X18759997Y-99204417D01*
X18554070Y-99224698D01*
X18554065Y-99224699D01*
X18356045Y-99284768D01*
X18173547Y-99382316D01*
X18013595Y-99513585D01*
X18013585Y-99513595D01*
X17882316Y-99673547D01*
X17784768Y-99856045D01*
X17724699Y-100054065D01*
X17724698Y-100054070D01*
X17704417Y-100259996D01*
X16300500Y-100259996D01*
X16300500Y-97719996D01*
X17704417Y-97719996D01*
X17704417Y-97720003D01*
X17724698Y-97925929D01*
X17724699Y-97925934D01*
X17784768Y-98123954D01*
X17882316Y-98306452D01*
X18013585Y-98466404D01*
X18013590Y-98466410D01*
X18013595Y-98466414D01*
X18173547Y-98597683D01*
X18173548Y-98597683D01*
X18173550Y-98597685D01*
X18356046Y-98695232D01*
X18493997Y-98737078D01*
X18554065Y-98755300D01*
X18554070Y-98755301D01*
X18759997Y-98775583D01*
X18760000Y-98775583D01*
X18760003Y-98775583D01*
X18965929Y-98755301D01*
X18965934Y-98755300D01*
X19163954Y-98695232D01*
X19346450Y-98597685D01*
X19506410Y-98466410D01*
X19637685Y-98306450D01*
X19735232Y-98123954D01*
X19795300Y-97925934D01*
X19795301Y-97925929D01*
X19815583Y-97720003D01*
X19815583Y-97719996D01*
X19795301Y-97514070D01*
X19795300Y-97514065D01*
X19777078Y-97453997D01*
X19735232Y-97316046D01*
X19637685Y-97133550D01*
X19506410Y-96973590D01*
X19443758Y-96922173D01*
X19346452Y-96842316D01*
X19163954Y-96744768D01*
X18965934Y-96684699D01*
X18965929Y-96684698D01*
X18760003Y-96664417D01*
X18759997Y-96664417D01*
X18554070Y-96684698D01*
X18554065Y-96684699D01*
X18356045Y-96744768D01*
X18173547Y-96842316D01*
X18013595Y-96973585D01*
X18013585Y-96973595D01*
X17882316Y-97133547D01*
X17784768Y-97316045D01*
X17724699Y-97514065D01*
X17724698Y-97514070D01*
X17704417Y-97719996D01*
X16300500Y-97719996D01*
X16300500Y-95179996D01*
X17704417Y-95179996D01*
X17704417Y-95180003D01*
X17724698Y-95385929D01*
X17724699Y-95385934D01*
X17784768Y-95583954D01*
X17882316Y-95766452D01*
X18013585Y-95926404D01*
X18013590Y-95926410D01*
X18013595Y-95926414D01*
X18173547Y-96057683D01*
X18173548Y-96057683D01*
X18173550Y-96057685D01*
X18356046Y-96155232D01*
X18493997Y-96197078D01*
X18554065Y-96215300D01*
X18554070Y-96215301D01*
X18759997Y-96235583D01*
X18760000Y-96235583D01*
X18760003Y-96235583D01*
X18965929Y-96215301D01*
X18965934Y-96215300D01*
X19163954Y-96155232D01*
X19346450Y-96057685D01*
X19506410Y-95926410D01*
X19637685Y-95766450D01*
X19735232Y-95583954D01*
X19795300Y-95385934D01*
X19795301Y-95385929D01*
X19815583Y-95180003D01*
X19815583Y-95179996D01*
X19795301Y-94974070D01*
X19795300Y-94974065D01*
X19753787Y-94837215D01*
X19735232Y-94776046D01*
X19637685Y-94593550D01*
X19506410Y-94433590D01*
X19506404Y-94433585D01*
X19346452Y-94302316D01*
X19163954Y-94204768D01*
X18965934Y-94144699D01*
X18965929Y-94144698D01*
X18760003Y-94124417D01*
X18759997Y-94124417D01*
X18554070Y-94144698D01*
X18554065Y-94144699D01*
X18356045Y-94204768D01*
X18173547Y-94302316D01*
X18013595Y-94433585D01*
X18013585Y-94433595D01*
X17882316Y-94593547D01*
X17784768Y-94776045D01*
X17724699Y-94974065D01*
X17724698Y-94974070D01*
X17704417Y-95179996D01*
X16300500Y-95179996D01*
X16300500Y-57079996D01*
X17704417Y-57079996D01*
X17704417Y-57080003D01*
X17724698Y-57285929D01*
X17724699Y-57285934D01*
X17784768Y-57483954D01*
X17882316Y-57666452D01*
X18013585Y-57826404D01*
X18013590Y-57826410D01*
X18013595Y-57826414D01*
X18173547Y-57957683D01*
X18173548Y-57957683D01*
X18173550Y-57957685D01*
X18356046Y-58055232D01*
X18493997Y-58097078D01*
X18554065Y-58115300D01*
X18554070Y-58115301D01*
X18759997Y-58135583D01*
X18760000Y-58135583D01*
X18760003Y-58135583D01*
X18965929Y-58115301D01*
X18965934Y-58115300D01*
X19163954Y-58055232D01*
X19346450Y-57957685D01*
X19506410Y-57826410D01*
X19637685Y-57666450D01*
X19655656Y-57632830D01*
X19699762Y-57590424D01*
X19742965Y-57580500D01*
X22611678Y-57580500D01*
X22669869Y-57599407D01*
X22681682Y-57609496D01*
X26178504Y-61106318D01*
X26206281Y-61160835D01*
X26207500Y-61176322D01*
X26207500Y-88618108D01*
X26207500Y-88749892D01*
X26225665Y-88817685D01*
X26241609Y-88877190D01*
X26307496Y-88991309D01*
X26307497Y-88991310D01*
X26307498Y-88991311D01*
X26307500Y-88991314D01*
X28103500Y-90787314D01*
X28103499Y-90787314D01*
X28196685Y-90880499D01*
X28196690Y-90880503D01*
X28310810Y-90946390D01*
X28310808Y-90946390D01*
X28310812Y-90946391D01*
X28310814Y-90946392D01*
X28438108Y-90980500D01*
X29147035Y-90980500D01*
X29205226Y-90999407D01*
X29234344Y-91032830D01*
X29252315Y-91066450D01*
X29383590Y-91226410D01*
X29383595Y-91226414D01*
X29543547Y-91357683D01*
X29543548Y-91357683D01*
X29543550Y-91357685D01*
X29726046Y-91455232D01*
X29845518Y-91491473D01*
X29876328Y-91500819D01*
X29926525Y-91535804D01*
X29946571Y-91593612D01*
X29928810Y-91652163D01*
X29880026Y-91689092D01*
X29873213Y-91691183D01*
X29666505Y-91746570D01*
X29452432Y-91846394D01*
X29452424Y-91846398D01*
X29258926Y-91981886D01*
X29091886Y-92148926D01*
X28956398Y-92342424D01*
X28956394Y-92342432D01*
X28856570Y-92556505D01*
X28812762Y-92720000D01*
X29725856Y-92720000D01*
X29664075Y-92827007D01*
X29630000Y-92954174D01*
X29630000Y-93085826D01*
X29664075Y-93212993D01*
X29725856Y-93320000D01*
X28812762Y-93320000D01*
X28856569Y-93483489D01*
X28956399Y-93697577D01*
X29091886Y-93891073D01*
X29258926Y-94058113D01*
X29452422Y-94193600D01*
X29666510Y-94293430D01*
X29830000Y-94337238D01*
X29830000Y-93424144D01*
X29937007Y-93485925D01*
X30064174Y-93520000D01*
X30195826Y-93520000D01*
X30322993Y-93485925D01*
X30430000Y-93424144D01*
X30430000Y-94337237D01*
X30593489Y-94293430D01*
X30807577Y-94193600D01*
X31001073Y-94058113D01*
X31168113Y-93891073D01*
X31303600Y-93697577D01*
X31403430Y-93483489D01*
X31447238Y-93320000D01*
X30534144Y-93320000D01*
X30595925Y-93212993D01*
X30630000Y-93085826D01*
X30630000Y-92954174D01*
X30595925Y-92827007D01*
X30534144Y-92720000D01*
X31447238Y-92720000D01*
X31403429Y-92556505D01*
X31303605Y-92342432D01*
X31303601Y-92342424D01*
X31168113Y-92148926D01*
X31001073Y-91981886D01*
X30807577Y-91846399D01*
X30593489Y-91746569D01*
X30386786Y-91691183D01*
X30335472Y-91657859D01*
X30313545Y-91600737D01*
X30329381Y-91541637D01*
X30376931Y-91503132D01*
X30383663Y-91500821D01*
X30533954Y-91455232D01*
X30716450Y-91357685D01*
X30876410Y-91226410D01*
X31007685Y-91066450D01*
X31105232Y-90883954D01*
X31165300Y-90685934D01*
X31165301Y-90685929D01*
X31185583Y-90480003D01*
X31185583Y-90479996D01*
X31165301Y-90274070D01*
X31165300Y-90274065D01*
X31112498Y-90100000D01*
X31105232Y-90076046D01*
X31007685Y-89893550D01*
X30876410Y-89733590D01*
X30844868Y-89707704D01*
X30716452Y-89602316D01*
X30533954Y-89504768D01*
X30335934Y-89444699D01*
X30335929Y-89444698D01*
X30130003Y-89424417D01*
X30129997Y-89424417D01*
X29924070Y-89444698D01*
X29924065Y-89444699D01*
X29726045Y-89504768D01*
X29543547Y-89602316D01*
X29383595Y-89733585D01*
X29383585Y-89733595D01*
X29252313Y-89893552D01*
X29252313Y-89893553D01*
X29234344Y-89927170D01*
X29190238Y-89969576D01*
X29147035Y-89979500D01*
X28752322Y-89979500D01*
X28694131Y-89960593D01*
X28682318Y-89950504D01*
X27237496Y-88505682D01*
X27209719Y-88451165D01*
X27208500Y-88435678D01*
X27208500Y-68833997D01*
X27434353Y-68833997D01*
X27434353Y-68834002D01*
X27454834Y-68976456D01*
X27496961Y-69068699D01*
X27514623Y-69107373D01*
X27589295Y-69193550D01*
X27590319Y-69194731D01*
X27614137Y-69251090D01*
X27614500Y-69259562D01*
X27614500Y-69588849D01*
X27614500Y-69674555D01*
X27626045Y-69717641D01*
X27636683Y-69757345D01*
X27679531Y-69831559D01*
X27679532Y-69831560D01*
X27679533Y-69831561D01*
X27679535Y-69831564D01*
X28296683Y-70448712D01*
X28296684Y-70448713D01*
X29421832Y-71573859D01*
X29421834Y-71573862D01*
X29482437Y-71634465D01*
X29482439Y-71634466D01*
X29528802Y-71661234D01*
X29569743Y-71706703D01*
X29576139Y-71767553D01*
X29545546Y-71820541D01*
X29542107Y-71823498D01*
X29383595Y-71953585D01*
X29383585Y-71953595D01*
X29252316Y-72113547D01*
X29154768Y-72296045D01*
X29094699Y-72494065D01*
X29094698Y-72494071D01*
X29081861Y-72624409D01*
X29057341Y-72680466D01*
X29004554Y-72711405D01*
X28943663Y-72705407D01*
X28913334Y-72684709D01*
X28294496Y-72065871D01*
X28266719Y-72011354D01*
X28265500Y-71995867D01*
X28265500Y-71799562D01*
X28284407Y-71741371D01*
X28289681Y-71734731D01*
X28365377Y-71647373D01*
X28425165Y-71516457D01*
X28444717Y-71380468D01*
X28445647Y-71374002D01*
X28445647Y-71373997D01*
X28425165Y-71231543D01*
X28408613Y-71195300D01*
X28365377Y-71100627D01*
X28271128Y-70991857D01*
X28271127Y-70991856D01*
X28271126Y-70991855D01*
X28150057Y-70914049D01*
X28150054Y-70914047D01*
X28150053Y-70914047D01*
X28150050Y-70914046D01*
X28011964Y-70873500D01*
X28011961Y-70873500D01*
X27868039Y-70873500D01*
X27868035Y-70873500D01*
X27729949Y-70914046D01*
X27729942Y-70914049D01*
X27608873Y-70991855D01*
X27514622Y-71100628D01*
X27454834Y-71231543D01*
X27434353Y-71373997D01*
X27434353Y-71374002D01*
X27454834Y-71516456D01*
X27508729Y-71634468D01*
X27514623Y-71647373D01*
X27589295Y-71733550D01*
X27590319Y-71734731D01*
X27614137Y-71791090D01*
X27614500Y-71799562D01*
X27614500Y-72128849D01*
X27614500Y-72214555D01*
X27634062Y-72287565D01*
X27636683Y-72297345D01*
X27679531Y-72371559D01*
X27679532Y-72371560D01*
X27679533Y-72371561D01*
X27679535Y-72371564D01*
X27932380Y-72624409D01*
X28169683Y-72861712D01*
X28169684Y-72861713D01*
X29382833Y-74074861D01*
X29382834Y-74074862D01*
X29382833Y-74074862D01*
X29421557Y-74113585D01*
X29443437Y-74135465D01*
X29517661Y-74178318D01*
X29522208Y-74179536D01*
X29573523Y-74212859D01*
X29595450Y-74269981D01*
X29579615Y-74329081D01*
X29547124Y-74358919D01*
X29547590Y-74359616D01*
X29543547Y-74362316D01*
X29383595Y-74493585D01*
X29383585Y-74493595D01*
X29252316Y-74653547D01*
X29154768Y-74836045D01*
X29094699Y-75034065D01*
X29094698Y-75034070D01*
X29074417Y-75239996D01*
X29074417Y-75240003D01*
X29094698Y-75445929D01*
X29094699Y-75445934D01*
X29154768Y-75643954D01*
X29252316Y-75826452D01*
X29304604Y-75890165D01*
X29383590Y-75986410D01*
X29383595Y-75986414D01*
X29543547Y-76117683D01*
X29543548Y-76117683D01*
X29543550Y-76117685D01*
X29726046Y-76215232D01*
X29834300Y-76248070D01*
X29924065Y-76275300D01*
X29924070Y-76275301D01*
X30129997Y-76295583D01*
X30130000Y-76295583D01*
X30130003Y-76295583D01*
X30335929Y-76275301D01*
X30335934Y-76275300D01*
X30533954Y-76215232D01*
X30716450Y-76117685D01*
X30876410Y-75986410D01*
X31007685Y-75826450D01*
X31105232Y-75643954D01*
X31165300Y-75445934D01*
X31165301Y-75445929D01*
X31185583Y-75240003D01*
X31185583Y-75239996D01*
X31165301Y-75034070D01*
X31165300Y-75034065D01*
X31139587Y-74949300D01*
X31105232Y-74836046D01*
X31007685Y-74653550D01*
X30876410Y-74493590D01*
X30830661Y-74456045D01*
X30733160Y-74376028D01*
X30700173Y-74324497D01*
X30703775Y-74263417D01*
X30742590Y-74216121D01*
X30795965Y-74200500D01*
X32300851Y-74200500D01*
X32300853Y-74200500D01*
X32383639Y-74178318D01*
X32383641Y-74178316D01*
X32383643Y-74178316D01*
X32457857Y-74135468D01*
X32457857Y-74135467D01*
X32457862Y-74135465D01*
X32648830Y-73944497D01*
X32743832Y-73849496D01*
X32798348Y-73821719D01*
X32813835Y-73820500D01*
X33334035Y-73820500D01*
X33392226Y-73839407D01*
X33428190Y-73888907D01*
X33428190Y-73950093D01*
X33396840Y-73996028D01*
X33253595Y-74113585D01*
X33253585Y-74113595D01*
X33122316Y-74273547D01*
X33024768Y-74456045D01*
X32964699Y-74654065D01*
X32964698Y-74654070D01*
X32944417Y-74859996D01*
X32944417Y-74860003D01*
X32964698Y-75065929D01*
X32964699Y-75065934D01*
X33010787Y-75217865D01*
X33024768Y-75263954D01*
X33028802Y-75271501D01*
X33039560Y-75331732D01*
X33012860Y-75386785D01*
X33011497Y-75388175D01*
X31171195Y-77228476D01*
X31116678Y-77256253D01*
X31056246Y-77246682D01*
X31013881Y-77205140D01*
X31007687Y-77193552D01*
X30876414Y-77033595D01*
X30876410Y-77033590D01*
X30844868Y-77007704D01*
X30716452Y-76902316D01*
X30533954Y-76804768D01*
X30335934Y-76744699D01*
X30335929Y-76744698D01*
X30130003Y-76724417D01*
X30129997Y-76724417D01*
X29924070Y-76744698D01*
X29924065Y-76744699D01*
X29726045Y-76804768D01*
X29543547Y-76902316D01*
X29383595Y-77033585D01*
X29383585Y-77033595D01*
X29252316Y-77193547D01*
X29154768Y-77376045D01*
X29094699Y-77574065D01*
X29094698Y-77574070D01*
X29074417Y-77779996D01*
X29074417Y-77780003D01*
X29094698Y-77985929D01*
X29094699Y-77985934D01*
X29154768Y-78183954D01*
X29252316Y-78366452D01*
X29292041Y-78414857D01*
X29383590Y-78526410D01*
X29383595Y-78526414D01*
X29543547Y-78657683D01*
X29543548Y-78657683D01*
X29543550Y-78657685D01*
X29726046Y-78755232D01*
X29834300Y-78788070D01*
X29924065Y-78815300D01*
X29924070Y-78815301D01*
X30129997Y-78835583D01*
X30130000Y-78835583D01*
X30130003Y-78835583D01*
X30335929Y-78815301D01*
X30335934Y-78815300D01*
X30533954Y-78755232D01*
X30716450Y-78657685D01*
X30817697Y-78574594D01*
X30874671Y-78552295D01*
X30933874Y-78567743D01*
X30972690Y-78615040D01*
X30979500Y-78651123D01*
X30979500Y-79448876D01*
X30960593Y-79507067D01*
X30911093Y-79543031D01*
X30849907Y-79543031D01*
X30817695Y-79525404D01*
X30742559Y-79463742D01*
X30716452Y-79442316D01*
X30533954Y-79344768D01*
X30335934Y-79284699D01*
X30335929Y-79284698D01*
X30130003Y-79264417D01*
X30129997Y-79264417D01*
X29924070Y-79284698D01*
X29924065Y-79284699D01*
X29726045Y-79344768D01*
X29543547Y-79442316D01*
X29383595Y-79573585D01*
X29383585Y-79573595D01*
X29252316Y-79733547D01*
X29154768Y-79916045D01*
X29094699Y-80114065D01*
X29094698Y-80114070D01*
X29074417Y-80319996D01*
X29074417Y-80320003D01*
X29094698Y-80525929D01*
X29094699Y-80525934D01*
X29154768Y-80723954D01*
X29252316Y-80906452D01*
X29308818Y-80975300D01*
X29383590Y-81066410D01*
X29383595Y-81066414D01*
X29543547Y-81197683D01*
X29543548Y-81197683D01*
X29543550Y-81197685D01*
X29726046Y-81295232D01*
X29834300Y-81328070D01*
X29924065Y-81355300D01*
X29924070Y-81355301D01*
X30129997Y-81375583D01*
X30130000Y-81375583D01*
X30130003Y-81375583D01*
X30335929Y-81355301D01*
X30335934Y-81355300D01*
X30533954Y-81295232D01*
X30716450Y-81197685D01*
X30817697Y-81114594D01*
X30874671Y-81092295D01*
X30933874Y-81107743D01*
X30972690Y-81155040D01*
X30979500Y-81191123D01*
X30979500Y-81509165D01*
X30960593Y-81567356D01*
X30950504Y-81579168D01*
X30658174Y-81871497D01*
X30603659Y-81899274D01*
X30543227Y-81889703D01*
X30541504Y-81888803D01*
X30533959Y-81884770D01*
X30533954Y-81884768D01*
X30335934Y-81824699D01*
X30335929Y-81824698D01*
X30130003Y-81804417D01*
X30129997Y-81804417D01*
X29924070Y-81824698D01*
X29924065Y-81824699D01*
X29726045Y-81884768D01*
X29543547Y-81982316D01*
X29383595Y-82113585D01*
X29383585Y-82113595D01*
X29252316Y-82273547D01*
X29154768Y-82456045D01*
X29094699Y-82654065D01*
X29094698Y-82654070D01*
X29074417Y-82859996D01*
X29074417Y-82860003D01*
X29094698Y-83065929D01*
X29094699Y-83065934D01*
X29154768Y-83263954D01*
X29252316Y-83446452D01*
X29308818Y-83515300D01*
X29383590Y-83606410D01*
X29383595Y-83606414D01*
X29543547Y-83737683D01*
X29543548Y-83737683D01*
X29543550Y-83737685D01*
X29726046Y-83835232D01*
X29834300Y-83868070D01*
X29924065Y-83895300D01*
X29924070Y-83895301D01*
X30129997Y-83915583D01*
X30130000Y-83915583D01*
X30130003Y-83915583D01*
X30335929Y-83895301D01*
X30335934Y-83895300D01*
X30533954Y-83835232D01*
X30716450Y-83737685D01*
X30876410Y-83606410D01*
X31007685Y-83446450D01*
X31105232Y-83263954D01*
X31165300Y-83065934D01*
X31165301Y-83065929D01*
X31185583Y-82860003D01*
X31185583Y-82859996D01*
X31165301Y-82654070D01*
X31165300Y-82654065D01*
X31139587Y-82569300D01*
X31105232Y-82456046D01*
X31101195Y-82448493D01*
X31090440Y-82388261D01*
X31117142Y-82333210D01*
X31118445Y-82331880D01*
X31260498Y-82189828D01*
X31315013Y-82162052D01*
X31375445Y-82171624D01*
X31418710Y-82214888D01*
X31429500Y-82259833D01*
X31429500Y-83599164D01*
X31410593Y-83657355D01*
X31400504Y-83669168D01*
X30658175Y-84411496D01*
X30603658Y-84439273D01*
X30543226Y-84429702D01*
X30541506Y-84428804D01*
X30533957Y-84424769D01*
X30533954Y-84424768D01*
X30335934Y-84364699D01*
X30335929Y-84364698D01*
X30130003Y-84344417D01*
X30129997Y-84344417D01*
X29924070Y-84364698D01*
X29924065Y-84364699D01*
X29726045Y-84424768D01*
X29543547Y-84522316D01*
X29383595Y-84653585D01*
X29383585Y-84653595D01*
X29252316Y-84813547D01*
X29154768Y-84996045D01*
X29094699Y-85194065D01*
X29094698Y-85194070D01*
X29074417Y-85399996D01*
X29074417Y-85400003D01*
X29094698Y-85605929D01*
X29094699Y-85605934D01*
X29154768Y-85803954D01*
X29252316Y-85986452D01*
X29325464Y-86075583D01*
X29383590Y-86146410D01*
X29383595Y-86146414D01*
X29543547Y-86277683D01*
X29543548Y-86277683D01*
X29543550Y-86277685D01*
X29726046Y-86375232D01*
X29847430Y-86412053D01*
X29924065Y-86435300D01*
X29924070Y-86435301D01*
X30129997Y-86455583D01*
X30130000Y-86455583D01*
X30130003Y-86455583D01*
X30335929Y-86435301D01*
X30335934Y-86435300D01*
X30381018Y-86421624D01*
X30533954Y-86375232D01*
X30716450Y-86277685D01*
X30876410Y-86146410D01*
X31007685Y-85986450D01*
X31105232Y-85803954D01*
X31165300Y-85605934D01*
X31165301Y-85605929D01*
X31185583Y-85400003D01*
X31185583Y-85399996D01*
X31165301Y-85194070D01*
X31165300Y-85194065D01*
X31151319Y-85147977D01*
X31105232Y-84996046D01*
X31101196Y-84988496D01*
X31090439Y-84928265D01*
X31117140Y-84873213D01*
X31118450Y-84871875D01*
X31710497Y-84279829D01*
X31765013Y-84252053D01*
X31825445Y-84261624D01*
X31868710Y-84304889D01*
X31879500Y-84349834D01*
X31879500Y-85689164D01*
X31860593Y-85747355D01*
X31850504Y-85759168D01*
X30658175Y-86951496D01*
X30603658Y-86979273D01*
X30543226Y-86969702D01*
X30541506Y-86968804D01*
X30533957Y-86964769D01*
X30533954Y-86964768D01*
X30335934Y-86904699D01*
X30335929Y-86904698D01*
X30130003Y-86884417D01*
X30129997Y-86884417D01*
X29924070Y-86904698D01*
X29924065Y-86904699D01*
X29726045Y-86964768D01*
X29543547Y-87062316D01*
X29383595Y-87193585D01*
X29383585Y-87193595D01*
X29252316Y-87353547D01*
X29154768Y-87536045D01*
X29094699Y-87734065D01*
X29094698Y-87734070D01*
X29074417Y-87939996D01*
X29074417Y-87940003D01*
X29094698Y-88145929D01*
X29094699Y-88145934D01*
X29154768Y-88343954D01*
X29252316Y-88526452D01*
X29369712Y-88669500D01*
X29383590Y-88686410D01*
X29402389Y-88701838D01*
X29543547Y-88817683D01*
X29543548Y-88817683D01*
X29543550Y-88817685D01*
X29726046Y-88915232D01*
X29863997Y-88957078D01*
X29924065Y-88975300D01*
X29924070Y-88975301D01*
X30129997Y-88995583D01*
X30130000Y-88995583D01*
X30130003Y-88995583D01*
X30335929Y-88975301D01*
X30335934Y-88975300D01*
X30358657Y-88968407D01*
X30533954Y-88915232D01*
X30716450Y-88817685D01*
X30876410Y-88686410D01*
X31007685Y-88526450D01*
X31105232Y-88343954D01*
X31165300Y-88145934D01*
X31165301Y-88145929D01*
X31185583Y-87940003D01*
X31185583Y-87939996D01*
X31165301Y-87734070D01*
X31165300Y-87734065D01*
X31151319Y-87687977D01*
X31105232Y-87536046D01*
X31101196Y-87528496D01*
X31090439Y-87468265D01*
X31117140Y-87413213D01*
X31118451Y-87411874D01*
X32465465Y-86064862D01*
X32470986Y-86055300D01*
X32508316Y-85990643D01*
X32508316Y-85990641D01*
X32508318Y-85990639D01*
X32530500Y-85907853D01*
X32530500Y-85822147D01*
X32530500Y-85019996D01*
X32944417Y-85019996D01*
X32944417Y-85020003D01*
X32964698Y-85225929D01*
X32964699Y-85225934D01*
X33024768Y-85423954D01*
X33122316Y-85606452D01*
X33190196Y-85689164D01*
X33253590Y-85766410D01*
X33253595Y-85766414D01*
X33413547Y-85897683D01*
X33413548Y-85897683D01*
X33413550Y-85897685D01*
X33596046Y-85995232D01*
X33733997Y-86037078D01*
X33794065Y-86055300D01*
X33794070Y-86055301D01*
X33999997Y-86075583D01*
X34000000Y-86075583D01*
X34000003Y-86075583D01*
X34205929Y-86055301D01*
X34205934Y-86055300D01*
X34403954Y-85995232D01*
X34586450Y-85897685D01*
X34746410Y-85766410D01*
X34877685Y-85606450D01*
X34975232Y-85423954D01*
X35035300Y-85225934D01*
X35035301Y-85225929D01*
X35055583Y-85020003D01*
X35055583Y-85019996D01*
X35035301Y-84814070D01*
X35035300Y-84814065D01*
X34988702Y-84660452D01*
X34975232Y-84616046D01*
X34971196Y-84608496D01*
X34960439Y-84548265D01*
X34987140Y-84493213D01*
X34988453Y-84491872D01*
X37501680Y-81978645D01*
X37556195Y-81950870D01*
X37616627Y-81960441D01*
X37658992Y-82001982D01*
X37722316Y-82120452D01*
X37819775Y-82239206D01*
X37853590Y-82280410D01*
X37853595Y-82280414D01*
X38013547Y-82411683D01*
X38013548Y-82411683D01*
X38013550Y-82411685D01*
X38196046Y-82509232D01*
X38333997Y-82551078D01*
X38394065Y-82569300D01*
X38394070Y-82569301D01*
X38599997Y-82589583D01*
X38600000Y-82589583D01*
X38600003Y-82589583D01*
X38805929Y-82569301D01*
X38805934Y-82569300D01*
X39003954Y-82509232D01*
X39186450Y-82411685D01*
X39346410Y-82280410D01*
X39477685Y-82120450D01*
X39575232Y-81937954D01*
X39635300Y-81739934D01*
X39635301Y-81739929D01*
X39655583Y-81534003D01*
X39655583Y-81533996D01*
X39635301Y-81328070D01*
X39635300Y-81328065D01*
X39599030Y-81208500D01*
X39575232Y-81130046D01*
X39477685Y-80947550D01*
X39451162Y-80915232D01*
X39346414Y-80787595D01*
X39346410Y-80787590D01*
X39268869Y-80723954D01*
X39186452Y-80656316D01*
X39003954Y-80558768D01*
X38805934Y-80498699D01*
X38805929Y-80498698D01*
X38600003Y-80478417D01*
X38599997Y-80478417D01*
X38394070Y-80498698D01*
X38394065Y-80498699D01*
X38196045Y-80558768D01*
X38013547Y-80656316D01*
X37853595Y-80787585D01*
X37853585Y-80787595D01*
X37722316Y-80947547D01*
X37624769Y-81130043D01*
X37624768Y-81130045D01*
X37624768Y-81130046D01*
X37622282Y-81138241D01*
X37587297Y-81188436D01*
X37529488Y-81208481D01*
X37527546Y-81208500D01*
X37443147Y-81208500D01*
X37362280Y-81230168D01*
X37360362Y-81230682D01*
X37286138Y-81273535D01*
X34528175Y-84031496D01*
X34473658Y-84059273D01*
X34413226Y-84049702D01*
X34411506Y-84048804D01*
X34403957Y-84044769D01*
X34403954Y-84044768D01*
X34205934Y-83984699D01*
X34205929Y-83984698D01*
X34000003Y-83964417D01*
X33999997Y-83964417D01*
X33794070Y-83984698D01*
X33794065Y-83984699D01*
X33596045Y-84044768D01*
X33413547Y-84142316D01*
X33253595Y-84273585D01*
X33253585Y-84273595D01*
X33122316Y-84433547D01*
X33024768Y-84616045D01*
X32964699Y-84814065D01*
X32964698Y-84814070D01*
X32944417Y-85019996D01*
X32530500Y-85019996D01*
X32530500Y-82479996D01*
X32944417Y-82479996D01*
X32944417Y-82480003D01*
X32964698Y-82685929D01*
X32964699Y-82685934D01*
X33024768Y-82883954D01*
X33122316Y-83066452D01*
X33253585Y-83226404D01*
X33253590Y-83226410D01*
X33253595Y-83226414D01*
X33413547Y-83357683D01*
X33413548Y-83357683D01*
X33413550Y-83357685D01*
X33596046Y-83455232D01*
X33733997Y-83497078D01*
X33794065Y-83515300D01*
X33794070Y-83515301D01*
X33999997Y-83535583D01*
X34000000Y-83535583D01*
X34000003Y-83535583D01*
X34205929Y-83515301D01*
X34205934Y-83515300D01*
X34403954Y-83455232D01*
X34586450Y-83357685D01*
X34746410Y-83226410D01*
X34877685Y-83066450D01*
X34975232Y-82883954D01*
X35035300Y-82685934D01*
X35035301Y-82685929D01*
X35055583Y-82480003D01*
X35055583Y-82479996D01*
X35035301Y-82274070D01*
X35035300Y-82274065D01*
X34988702Y-82120452D01*
X34975232Y-82076046D01*
X34877685Y-81893550D01*
X34873789Y-81888803D01*
X34746414Y-81733595D01*
X34746410Y-81733590D01*
X34594445Y-81608876D01*
X34586452Y-81602316D01*
X34403954Y-81504768D01*
X34205934Y-81444699D01*
X34205929Y-81444698D01*
X34000003Y-81424417D01*
X33999997Y-81424417D01*
X33794070Y-81444698D01*
X33794065Y-81444699D01*
X33596045Y-81504768D01*
X33413547Y-81602316D01*
X33253595Y-81733585D01*
X33253585Y-81733595D01*
X33122316Y-81893547D01*
X33024768Y-82076045D01*
X32964699Y-82274065D01*
X32964698Y-82274070D01*
X32944417Y-82479996D01*
X32530500Y-82479996D01*
X32530500Y-81910834D01*
X32549407Y-81852643D01*
X32559490Y-81840836D01*
X33471825Y-80928500D01*
X33526340Y-80900725D01*
X33586772Y-80910296D01*
X33588463Y-80911178D01*
X33596046Y-80915232D01*
X33747977Y-80961319D01*
X33794065Y-80975300D01*
X33794070Y-80975301D01*
X33999997Y-80995583D01*
X34000000Y-80995583D01*
X34000003Y-80995583D01*
X34205929Y-80975301D01*
X34205934Y-80975300D01*
X34403954Y-80915232D01*
X34586450Y-80817685D01*
X34746410Y-80686410D01*
X34877685Y-80526450D01*
X34975232Y-80343954D01*
X35035300Y-80145934D01*
X35035301Y-80145929D01*
X35055583Y-79940003D01*
X35055583Y-79939996D01*
X35035301Y-79734070D01*
X35035300Y-79734065D01*
X34988702Y-79580452D01*
X34975232Y-79536046D01*
X34877685Y-79353550D01*
X34746410Y-79193590D01*
X34746404Y-79193585D01*
X34586452Y-79062316D01*
X34458635Y-78993996D01*
X37544417Y-78993996D01*
X37544417Y-78994003D01*
X37564698Y-79199929D01*
X37564699Y-79199934D01*
X37624768Y-79397954D01*
X37722316Y-79580452D01*
X37819775Y-79699206D01*
X37853590Y-79740410D01*
X37853595Y-79740414D01*
X38013547Y-79871683D01*
X38013548Y-79871683D01*
X38013550Y-79871685D01*
X38196046Y-79969232D01*
X38333997Y-80011078D01*
X38394065Y-80029300D01*
X38394070Y-80029301D01*
X38599997Y-80049583D01*
X38600000Y-80049583D01*
X38600003Y-80049583D01*
X38805929Y-80029301D01*
X38805934Y-80029300D01*
X39003954Y-79969232D01*
X39186450Y-79871685D01*
X39346410Y-79740410D01*
X39477685Y-79580450D01*
X39575232Y-79397954D01*
X39635300Y-79199934D01*
X39635301Y-79199929D01*
X39655583Y-78994003D01*
X39655583Y-78993996D01*
X39635301Y-78788070D01*
X39635300Y-78788065D01*
X39617078Y-78727997D01*
X39575232Y-78590046D01*
X39477685Y-78407550D01*
X39451162Y-78375232D01*
X39346414Y-78247595D01*
X39346410Y-78247590D01*
X39268869Y-78183954D01*
X39186452Y-78116316D01*
X39003954Y-78018768D01*
X38805934Y-77958699D01*
X38805929Y-77958698D01*
X38600003Y-77938417D01*
X38599997Y-77938417D01*
X38394070Y-77958698D01*
X38394065Y-77958699D01*
X38196045Y-78018768D01*
X38013547Y-78116316D01*
X37853595Y-78247585D01*
X37853585Y-78247595D01*
X37722316Y-78407547D01*
X37624768Y-78590045D01*
X37564699Y-78788065D01*
X37564698Y-78788070D01*
X37544417Y-78993996D01*
X34458635Y-78993996D01*
X34403954Y-78964768D01*
X34205934Y-78904699D01*
X34205929Y-78904698D01*
X34000003Y-78884417D01*
X33999997Y-78884417D01*
X33794070Y-78904698D01*
X33794065Y-78904699D01*
X33596045Y-78964768D01*
X33413547Y-79062316D01*
X33253595Y-79193585D01*
X33253585Y-79193595D01*
X33122316Y-79353547D01*
X33024768Y-79536045D01*
X32964699Y-79734065D01*
X32964698Y-79734070D01*
X32944417Y-79939996D01*
X32944417Y-79940003D01*
X32964698Y-80145929D01*
X32964699Y-80145934D01*
X33024768Y-80343954D01*
X33024769Y-80343957D01*
X33028804Y-80351506D01*
X33039558Y-80411739D01*
X33012854Y-80466789D01*
X33011496Y-80468175D01*
X32249504Y-81230168D01*
X32194987Y-81257945D01*
X32134555Y-81248374D01*
X32091290Y-81205109D01*
X32080500Y-81160164D01*
X32080500Y-79820834D01*
X32099407Y-79762643D01*
X32109490Y-79750836D01*
X33471825Y-78388500D01*
X33526340Y-78360725D01*
X33586772Y-78370296D01*
X33588463Y-78371178D01*
X33596046Y-78375232D01*
X33747977Y-78421319D01*
X33794065Y-78435300D01*
X33794070Y-78435301D01*
X33999997Y-78455583D01*
X34000000Y-78455583D01*
X34000003Y-78455583D01*
X34205929Y-78435301D01*
X34205934Y-78435300D01*
X34403954Y-78375232D01*
X34586450Y-78277685D01*
X34746410Y-78146410D01*
X34877685Y-77986450D01*
X34975232Y-77803954D01*
X35035300Y-77605934D01*
X35035301Y-77605929D01*
X35055583Y-77400003D01*
X35055583Y-77399996D01*
X35035301Y-77194070D01*
X35035300Y-77194065D01*
X34988702Y-77040452D01*
X34975232Y-76996046D01*
X34877685Y-76813550D01*
X34746410Y-76653590D01*
X34594445Y-76528876D01*
X34586452Y-76522316D01*
X34458635Y-76453996D01*
X37544417Y-76453996D01*
X37544417Y-76454003D01*
X37564698Y-76659929D01*
X37564699Y-76659934D01*
X37624768Y-76857954D01*
X37722316Y-77040452D01*
X37819775Y-77159206D01*
X37853590Y-77200410D01*
X37853595Y-77200414D01*
X38013547Y-77331683D01*
X38013548Y-77331683D01*
X38013550Y-77331685D01*
X38196046Y-77429232D01*
X38333997Y-77471078D01*
X38394065Y-77489300D01*
X38394070Y-77489301D01*
X38599997Y-77509583D01*
X38600000Y-77509583D01*
X38600003Y-77509583D01*
X38805929Y-77489301D01*
X38805934Y-77489300D01*
X39003954Y-77429232D01*
X39186450Y-77331685D01*
X39346410Y-77200410D01*
X39477685Y-77040450D01*
X39575232Y-76857954D01*
X39635300Y-76659934D01*
X39635301Y-76659929D01*
X39655583Y-76454003D01*
X39655583Y-76453996D01*
X39635301Y-76248070D01*
X39635300Y-76248065D01*
X39613616Y-76176584D01*
X39575232Y-76050046D01*
X39477685Y-75867550D01*
X39451162Y-75835232D01*
X39346414Y-75707595D01*
X39346410Y-75707590D01*
X39268869Y-75643954D01*
X39186452Y-75576316D01*
X39003954Y-75478768D01*
X38805934Y-75418699D01*
X38805929Y-75418698D01*
X38600003Y-75398417D01*
X38599997Y-75398417D01*
X38394070Y-75418698D01*
X38394065Y-75418699D01*
X38196045Y-75478768D01*
X38013547Y-75576316D01*
X37853595Y-75707585D01*
X37853585Y-75707595D01*
X37722316Y-75867547D01*
X37624768Y-76050045D01*
X37564699Y-76248065D01*
X37564698Y-76248070D01*
X37544417Y-76453996D01*
X34458635Y-76453996D01*
X34403954Y-76424768D01*
X34205934Y-76364699D01*
X34205929Y-76364698D01*
X34000003Y-76344417D01*
X33999997Y-76344417D01*
X33794070Y-76364698D01*
X33794065Y-76364699D01*
X33596045Y-76424768D01*
X33413547Y-76522316D01*
X33253595Y-76653585D01*
X33253585Y-76653595D01*
X33122316Y-76813547D01*
X33024768Y-76996045D01*
X32964699Y-77194065D01*
X32964698Y-77194070D01*
X32944417Y-77399996D01*
X32944417Y-77400003D01*
X32964698Y-77605929D01*
X32964699Y-77605934D01*
X33024768Y-77803954D01*
X33024769Y-77803957D01*
X33028804Y-77811506D01*
X33039558Y-77871739D01*
X33012854Y-77926789D01*
X33011496Y-77928175D01*
X31799504Y-79140168D01*
X31744987Y-79167945D01*
X31684555Y-79158374D01*
X31641290Y-79115109D01*
X31630500Y-79070164D01*
X31630500Y-77730833D01*
X31649407Y-77672642D01*
X31659490Y-77660835D01*
X33471824Y-75848500D01*
X33526339Y-75820725D01*
X33586771Y-75830296D01*
X33588493Y-75831195D01*
X33596046Y-75835232D01*
X33702576Y-75867547D01*
X33794065Y-75895300D01*
X33794070Y-75895301D01*
X33999997Y-75915583D01*
X34000000Y-75915583D01*
X34000003Y-75915583D01*
X34205929Y-75895301D01*
X34205934Y-75895300D01*
X34222862Y-75890165D01*
X34403954Y-75835232D01*
X34586450Y-75737685D01*
X34746410Y-75606410D01*
X34877685Y-75446450D01*
X34975232Y-75263954D01*
X35035300Y-75065934D01*
X35035301Y-75065929D01*
X35055583Y-74860003D01*
X35055583Y-74859996D01*
X35035301Y-74654070D01*
X35035300Y-74654065D01*
X35003985Y-74550834D01*
X34975232Y-74456046D01*
X34877685Y-74273550D01*
X34869369Y-74263417D01*
X34746414Y-74113595D01*
X34746410Y-74113590D01*
X34699220Y-74074862D01*
X34603160Y-73996028D01*
X34570173Y-73944497D01*
X34573775Y-73883417D01*
X34612590Y-73836121D01*
X34665965Y-73820500D01*
X35259851Y-73820500D01*
X35259853Y-73820500D01*
X35342639Y-73798318D01*
X35342641Y-73798316D01*
X35342643Y-73798316D01*
X35416857Y-73755468D01*
X35416857Y-73755467D01*
X35416862Y-73755465D01*
X38077038Y-71095287D01*
X38131553Y-71067512D01*
X38191985Y-71077083D01*
X38193706Y-71077982D01*
X38196039Y-71079229D01*
X38196042Y-71079230D01*
X38196046Y-71079232D01*
X38332832Y-71120725D01*
X38394065Y-71139300D01*
X38394070Y-71139301D01*
X38599997Y-71159583D01*
X38600000Y-71159583D01*
X38600003Y-71159583D01*
X38805929Y-71139301D01*
X38805934Y-71139300D01*
X39003954Y-71079232D01*
X39186450Y-70981685D01*
X39346410Y-70850410D01*
X39477685Y-70690450D01*
X39575232Y-70507954D01*
X39635300Y-70309934D01*
X39635301Y-70309929D01*
X39655583Y-70104003D01*
X39655583Y-70103996D01*
X39635301Y-69898070D01*
X39635300Y-69898065D01*
X39592219Y-69756046D01*
X39575232Y-69700046D01*
X39477685Y-69517550D01*
X39427063Y-69455867D01*
X39361556Y-69376046D01*
X39346410Y-69357590D01*
X39216639Y-69251090D01*
X39186452Y-69226316D01*
X39003954Y-69128768D01*
X38805934Y-69068699D01*
X38805929Y-69068698D01*
X38600003Y-69048417D01*
X38599997Y-69048417D01*
X38394070Y-69068698D01*
X38394065Y-69068699D01*
X38196045Y-69128768D01*
X38013547Y-69226316D01*
X37853595Y-69357585D01*
X37853585Y-69357595D01*
X37722316Y-69517547D01*
X37624768Y-69700045D01*
X37564699Y-69898065D01*
X37564698Y-69898070D01*
X37544417Y-70103996D01*
X37544417Y-70104003D01*
X37564698Y-70309929D01*
X37564699Y-70309934D01*
X37624768Y-70507954D01*
X37624770Y-70507959D01*
X37631589Y-70520716D01*
X37642345Y-70580948D01*
X37615644Y-70635999D01*
X37614283Y-70637388D01*
X35111169Y-73140504D01*
X35056652Y-73168281D01*
X35041165Y-73169500D01*
X34871124Y-73169500D01*
X34812933Y-73150593D01*
X34776969Y-73101093D01*
X34776969Y-73039907D01*
X34794596Y-73007695D01*
X34819446Y-72977415D01*
X34877685Y-72906450D01*
X34975232Y-72723954D01*
X35035300Y-72525934D01*
X35035301Y-72525929D01*
X35055583Y-72320003D01*
X35055583Y-72319996D01*
X35035301Y-72114070D01*
X35035300Y-72114065D01*
X34986622Y-71953595D01*
X34975232Y-71916046D01*
X34877685Y-71733550D01*
X34855652Y-71706703D01*
X34774079Y-71607305D01*
X34751779Y-71550328D01*
X34767228Y-71491125D01*
X34814525Y-71452310D01*
X34850607Y-71445500D01*
X35094851Y-71445500D01*
X35094853Y-71445500D01*
X35177639Y-71423318D01*
X35177641Y-71423316D01*
X35177643Y-71423316D01*
X35251857Y-71380468D01*
X35251857Y-71380467D01*
X35251862Y-71380465D01*
X38077038Y-68555287D01*
X38131553Y-68527512D01*
X38191985Y-68537083D01*
X38193706Y-68537982D01*
X38196039Y-68539229D01*
X38196042Y-68539230D01*
X38196046Y-68539232D01*
X38332832Y-68580725D01*
X38394065Y-68599300D01*
X38394070Y-68599301D01*
X38599997Y-68619583D01*
X38600000Y-68619583D01*
X38600003Y-68619583D01*
X38805929Y-68599301D01*
X38805934Y-68599300D01*
X39003954Y-68539232D01*
X39186450Y-68441685D01*
X39346410Y-68310410D01*
X39477685Y-68150450D01*
X39575232Y-67967954D01*
X39635300Y-67769934D01*
X39635301Y-67769929D01*
X39655583Y-67564003D01*
X39655583Y-67563996D01*
X39635301Y-67358070D01*
X39635300Y-67358065D01*
X39599484Y-67239996D01*
X39575232Y-67160046D01*
X39477685Y-66977550D01*
X39346410Y-66817590D01*
X39312069Y-66789407D01*
X39186452Y-66686316D01*
X39003954Y-66588768D01*
X38805934Y-66528699D01*
X38805929Y-66528698D01*
X38600003Y-66508417D01*
X38599997Y-66508417D01*
X38394070Y-66528698D01*
X38394065Y-66528699D01*
X38196045Y-66588768D01*
X38013547Y-66686316D01*
X37853595Y-66817585D01*
X37853585Y-66817595D01*
X37722316Y-66977547D01*
X37624768Y-67160045D01*
X37564699Y-67358065D01*
X37564698Y-67358070D01*
X37544417Y-67563996D01*
X37544417Y-67564003D01*
X37564698Y-67769929D01*
X37564699Y-67769934D01*
X37624768Y-67967954D01*
X37624770Y-67967959D01*
X37631589Y-67980716D01*
X37642345Y-68040948D01*
X37615644Y-68095999D01*
X37614283Y-68097388D01*
X34946169Y-70765504D01*
X34891652Y-70793281D01*
X34876165Y-70794500D01*
X34696427Y-70794500D01*
X34638236Y-70775593D01*
X34602272Y-70726093D01*
X34602272Y-70664907D01*
X34633622Y-70618972D01*
X34638413Y-70615040D01*
X34746410Y-70526410D01*
X34877685Y-70366450D01*
X34975232Y-70183954D01*
X35035300Y-69985934D01*
X35035301Y-69985929D01*
X35055583Y-69780003D01*
X35055583Y-69779996D01*
X35035301Y-69574070D01*
X35035300Y-69574065D01*
X34986622Y-69413595D01*
X34975232Y-69376046D01*
X34877685Y-69193550D01*
X34873790Y-69188804D01*
X34746414Y-69033595D01*
X34746410Y-69033590D01*
X34676792Y-68976456D01*
X34586452Y-68902316D01*
X34403954Y-68804768D01*
X34205934Y-68744699D01*
X34205929Y-68744698D01*
X34000003Y-68724417D01*
X33999997Y-68724417D01*
X33794070Y-68744698D01*
X33794065Y-68744699D01*
X33596045Y-68804768D01*
X33413547Y-68902316D01*
X33253595Y-69033585D01*
X33253585Y-69033595D01*
X33122316Y-69193547D01*
X33024768Y-69376045D01*
X32964699Y-69574065D01*
X32964698Y-69574070D01*
X32944417Y-69779996D01*
X32944417Y-69780003D01*
X32964698Y-69985929D01*
X32964699Y-69985934D01*
X33024768Y-70183954D01*
X33122316Y-70366452D01*
X33150499Y-70400793D01*
X33253590Y-70526410D01*
X33305665Y-70569147D01*
X33366378Y-70618972D01*
X33399365Y-70670503D01*
X33395763Y-70731582D01*
X33356948Y-70778879D01*
X33303573Y-70794500D01*
X32554853Y-70794500D01*
X32469147Y-70794500D01*
X32418478Y-70808076D01*
X32386356Y-70816683D01*
X32312142Y-70859531D01*
X32312137Y-70859535D01*
X32152168Y-71019504D01*
X32097652Y-71047281D01*
X32082165Y-71048500D01*
X30969118Y-71048500D01*
X30910927Y-71029593D01*
X30874963Y-70980093D01*
X30874963Y-70918907D01*
X30892590Y-70886695D01*
X30934536Y-70835583D01*
X31007685Y-70746450D01*
X31105232Y-70563954D01*
X31165300Y-70365934D01*
X31165301Y-70365929D01*
X31185583Y-70160003D01*
X31185583Y-70159996D01*
X31165301Y-69954070D01*
X31165300Y-69954065D01*
X31137428Y-69862184D01*
X31105232Y-69756046D01*
X31101196Y-69748496D01*
X31090439Y-69688265D01*
X31117140Y-69633213D01*
X31118451Y-69631874D01*
X32915465Y-67834862D01*
X32936138Y-67799054D01*
X32981607Y-67758113D01*
X33042457Y-67751717D01*
X33095446Y-67782309D01*
X33109185Y-67801885D01*
X33122316Y-67826452D01*
X33238444Y-67967954D01*
X33253590Y-67986410D01*
X33253595Y-67986414D01*
X33413547Y-68117683D01*
X33413548Y-68117683D01*
X33413550Y-68117685D01*
X33596046Y-68215232D01*
X33733997Y-68257078D01*
X33794065Y-68275300D01*
X33794070Y-68275301D01*
X33999997Y-68295583D01*
X34000000Y-68295583D01*
X34000003Y-68295583D01*
X34205929Y-68275301D01*
X34205934Y-68275300D01*
X34403954Y-68215232D01*
X34586450Y-68117685D01*
X34746410Y-67986410D01*
X34877685Y-67826450D01*
X34975232Y-67643954D01*
X35035300Y-67445934D01*
X35035301Y-67445929D01*
X35055583Y-67240003D01*
X35055583Y-67239996D01*
X35035301Y-67034070D01*
X35035300Y-67034065D01*
X35017078Y-66973997D01*
X34975232Y-66836046D01*
X34877685Y-66653550D01*
X34873790Y-66648804D01*
X34746414Y-66493595D01*
X34746410Y-66493590D01*
X34746404Y-66493585D01*
X34586452Y-66362316D01*
X34403954Y-66264768D01*
X34205934Y-66204699D01*
X34205929Y-66204698D01*
X34000003Y-66184417D01*
X33999997Y-66184417D01*
X33794070Y-66204698D01*
X33794065Y-66204699D01*
X33596045Y-66264768D01*
X33413547Y-66362316D01*
X33253595Y-66493585D01*
X33253585Y-66493595D01*
X33156028Y-66612470D01*
X33104497Y-66645457D01*
X33043418Y-66641855D01*
X32996121Y-66603040D01*
X32980500Y-66549665D01*
X32980500Y-65390334D01*
X32999407Y-65332143D01*
X33048907Y-65296179D01*
X33110093Y-65296179D01*
X33156026Y-65327528D01*
X33253590Y-65446410D01*
X33253595Y-65446414D01*
X33413547Y-65577683D01*
X33413548Y-65577683D01*
X33413550Y-65577685D01*
X33596046Y-65675232D01*
X33733997Y-65717078D01*
X33794065Y-65735300D01*
X33794070Y-65735301D01*
X33999997Y-65755583D01*
X34000000Y-65755583D01*
X34000003Y-65755583D01*
X34205929Y-65735301D01*
X34205934Y-65735300D01*
X34403954Y-65675232D01*
X34586450Y-65577685D01*
X34746410Y-65446410D01*
X34877685Y-65286450D01*
X34975232Y-65103954D01*
X34999487Y-65023996D01*
X37544417Y-65023996D01*
X37544417Y-65024003D01*
X37564698Y-65229929D01*
X37564699Y-65229934D01*
X37624768Y-65427954D01*
X37722316Y-65610452D01*
X37824776Y-65735300D01*
X37853590Y-65770410D01*
X37853595Y-65770414D01*
X38013547Y-65901683D01*
X38013548Y-65901683D01*
X38013550Y-65901685D01*
X38196046Y-65999232D01*
X38333997Y-66041078D01*
X38394065Y-66059300D01*
X38394070Y-66059301D01*
X38599997Y-66079583D01*
X38600000Y-66079583D01*
X38600003Y-66079583D01*
X38805929Y-66059301D01*
X38805934Y-66059300D01*
X38814891Y-66056583D01*
X39003954Y-65999232D01*
X39186450Y-65901685D01*
X39346410Y-65770410D01*
X39477685Y-65610450D01*
X39575232Y-65427954D01*
X39635300Y-65229934D01*
X39635301Y-65229929D01*
X39655583Y-65024003D01*
X39655583Y-65023996D01*
X39635301Y-64818070D01*
X39635300Y-64818065D01*
X39595267Y-64686093D01*
X39575232Y-64620046D01*
X39477685Y-64437550D01*
X39346410Y-64277590D01*
X39254687Y-64202315D01*
X39186452Y-64146316D01*
X39003954Y-64048768D01*
X38805934Y-63988699D01*
X38805929Y-63988698D01*
X38600003Y-63968417D01*
X38599997Y-63968417D01*
X38394070Y-63988698D01*
X38394065Y-63988699D01*
X38196045Y-64048768D01*
X38013547Y-64146316D01*
X37853595Y-64277585D01*
X37853585Y-64277595D01*
X37722316Y-64437547D01*
X37624768Y-64620045D01*
X37564699Y-64818065D01*
X37564698Y-64818070D01*
X37544417Y-65023996D01*
X34999487Y-65023996D01*
X35035300Y-64905934D01*
X35035301Y-64905929D01*
X35055583Y-64700003D01*
X35055583Y-64699996D01*
X35035301Y-64494070D01*
X35035300Y-64494065D01*
X34993669Y-64356827D01*
X34975232Y-64296046D01*
X34877685Y-64113550D01*
X34873790Y-64108804D01*
X34746414Y-63953595D01*
X34746410Y-63953590D01*
X34720167Y-63932053D01*
X34586452Y-63822316D01*
X34403954Y-63724768D01*
X34205934Y-63664699D01*
X34205929Y-63664698D01*
X34000003Y-63644417D01*
X33999997Y-63644417D01*
X33794070Y-63664698D01*
X33794065Y-63664699D01*
X33596045Y-63724768D01*
X33413547Y-63822316D01*
X33253595Y-63953585D01*
X33253585Y-63953595D01*
X33156028Y-64072470D01*
X33104497Y-64105457D01*
X33043418Y-64101855D01*
X32996121Y-64063040D01*
X32980500Y-64009665D01*
X32980500Y-63680834D01*
X32999407Y-63622643D01*
X33009496Y-63610831D01*
X33471823Y-63148503D01*
X33526340Y-63120725D01*
X33586772Y-63130296D01*
X33588463Y-63131178D01*
X33596046Y-63135232D01*
X33747977Y-63181319D01*
X33794065Y-63195300D01*
X33794070Y-63195301D01*
X33999997Y-63215583D01*
X34000000Y-63215583D01*
X34000003Y-63215583D01*
X34205929Y-63195301D01*
X34205934Y-63195300D01*
X34403954Y-63135232D01*
X34586450Y-63037685D01*
X34746410Y-62906410D01*
X34877685Y-62746450D01*
X34975232Y-62563954D01*
X34999487Y-62483996D01*
X37544417Y-62483996D01*
X37544417Y-62484003D01*
X37564698Y-62689929D01*
X37564699Y-62689934D01*
X37624768Y-62887954D01*
X37722316Y-63070452D01*
X37786371Y-63148503D01*
X37853590Y-63230410D01*
X37853595Y-63230414D01*
X38013547Y-63361683D01*
X38013548Y-63361683D01*
X38013550Y-63361685D01*
X38196046Y-63459232D01*
X38332832Y-63500725D01*
X38394065Y-63519300D01*
X38394070Y-63519301D01*
X38599997Y-63539583D01*
X38600000Y-63539583D01*
X38600003Y-63539583D01*
X38805929Y-63519301D01*
X38805934Y-63519300D01*
X39003954Y-63459232D01*
X39186450Y-63361685D01*
X39346410Y-63230410D01*
X39477685Y-63070450D01*
X39575232Y-62887954D01*
X39635300Y-62689934D01*
X39635301Y-62689929D01*
X39655583Y-62484003D01*
X39655583Y-62483996D01*
X39635301Y-62278070D01*
X39635300Y-62278065D01*
X39611725Y-62200349D01*
X39575232Y-62080046D01*
X39477685Y-61897550D01*
X39475500Y-61894888D01*
X39361556Y-61756046D01*
X39346410Y-61737590D01*
X39254687Y-61662315D01*
X39186452Y-61606316D01*
X39003954Y-61508768D01*
X38805934Y-61448699D01*
X38805929Y-61448698D01*
X38600003Y-61428417D01*
X38599997Y-61428417D01*
X38394070Y-61448698D01*
X38394065Y-61448699D01*
X38196045Y-61508768D01*
X38013547Y-61606316D01*
X37853595Y-61737585D01*
X37853585Y-61737595D01*
X37722316Y-61897547D01*
X37624768Y-62080045D01*
X37564699Y-62278065D01*
X37564698Y-62278070D01*
X37544417Y-62483996D01*
X34999487Y-62483996D01*
X35035300Y-62365934D01*
X35035301Y-62365929D01*
X35055583Y-62160003D01*
X35055583Y-62159996D01*
X35035301Y-61954070D01*
X35035300Y-61954065D01*
X34986622Y-61793595D01*
X34975232Y-61756046D01*
X34877685Y-61573550D01*
X34873789Y-61568803D01*
X34746414Y-61413595D01*
X34746410Y-61413590D01*
X34746404Y-61413585D01*
X34586452Y-61282316D01*
X34403954Y-61184768D01*
X34205934Y-61124699D01*
X34205929Y-61124698D01*
X34000003Y-61104417D01*
X33999997Y-61104417D01*
X33794070Y-61124698D01*
X33794065Y-61124699D01*
X33596045Y-61184768D01*
X33413547Y-61282316D01*
X33253595Y-61413585D01*
X33253585Y-61413595D01*
X33122316Y-61573547D01*
X33024768Y-61756045D01*
X32964699Y-61954065D01*
X32964698Y-61954070D01*
X32944417Y-62159996D01*
X32944417Y-62160003D01*
X32964698Y-62365929D01*
X32964699Y-62365934D01*
X33024768Y-62563954D01*
X33024769Y-62563957D01*
X33028804Y-62571506D01*
X33039558Y-62631739D01*
X33012854Y-62686789D01*
X33011496Y-62688174D01*
X32699504Y-63000167D01*
X32644987Y-63027945D01*
X32584555Y-63018374D01*
X32541290Y-62975109D01*
X32530500Y-62930164D01*
X32530500Y-61590834D01*
X32549407Y-61532643D01*
X32559490Y-61520836D01*
X33471825Y-60608500D01*
X33526340Y-60580725D01*
X33586772Y-60590296D01*
X33588463Y-60591178D01*
X33596046Y-60595232D01*
X33717417Y-60632049D01*
X33794065Y-60655300D01*
X33794070Y-60655301D01*
X33999997Y-60675583D01*
X34000000Y-60675583D01*
X34000003Y-60675583D01*
X34205929Y-60655301D01*
X34205934Y-60655300D01*
X34403954Y-60595232D01*
X34586450Y-60497685D01*
X34746410Y-60366410D01*
X34877685Y-60206450D01*
X34975232Y-60023954D01*
X35035300Y-59825934D01*
X35035301Y-59825929D01*
X35055583Y-59620003D01*
X35055583Y-59619996D01*
X35035301Y-59414070D01*
X35035300Y-59414065D01*
X34995489Y-59282826D01*
X34975232Y-59216046D01*
X34877685Y-59033550D01*
X34868503Y-59022362D01*
X34746414Y-58873595D01*
X34746410Y-58873590D01*
X34718275Y-58850500D01*
X34586452Y-58742316D01*
X34403954Y-58644768D01*
X34205934Y-58584699D01*
X34205929Y-58584698D01*
X34000003Y-58564417D01*
X33999997Y-58564417D01*
X33794070Y-58584698D01*
X33794065Y-58584699D01*
X33596045Y-58644768D01*
X33413547Y-58742316D01*
X33253595Y-58873585D01*
X33253585Y-58873595D01*
X33122316Y-59033547D01*
X33024768Y-59216045D01*
X32964699Y-59414065D01*
X32964698Y-59414070D01*
X32944417Y-59619996D01*
X32944417Y-59620003D01*
X32964698Y-59825929D01*
X32964699Y-59825934D01*
X33024768Y-60023954D01*
X33024769Y-60023957D01*
X33028804Y-60031506D01*
X33039558Y-60091739D01*
X33012854Y-60146789D01*
X33011496Y-60148175D01*
X32249504Y-60910168D01*
X32194987Y-60937945D01*
X32134555Y-60928374D01*
X32091290Y-60885109D01*
X32080500Y-60840164D01*
X32080500Y-59500834D01*
X32099407Y-59442643D01*
X32109490Y-59430836D01*
X33471825Y-58068500D01*
X33526340Y-58040725D01*
X33586772Y-58050296D01*
X33588463Y-58051178D01*
X33596046Y-58055232D01*
X33747977Y-58101319D01*
X33794065Y-58115300D01*
X33794070Y-58115301D01*
X33999997Y-58135583D01*
X34000000Y-58135583D01*
X34000003Y-58135583D01*
X34205929Y-58115301D01*
X34205934Y-58115300D01*
X34403954Y-58055232D01*
X34586450Y-57957685D01*
X34746410Y-57826410D01*
X34877685Y-57666450D01*
X34975232Y-57483954D01*
X35035300Y-57285934D01*
X35035301Y-57285929D01*
X35055517Y-57080671D01*
X35080037Y-57024614D01*
X35132823Y-56993675D01*
X35193714Y-56999672D01*
X35224044Y-57020371D01*
X37614283Y-59410610D01*
X37642060Y-59465127D01*
X37632489Y-59525559D01*
X37631591Y-59527278D01*
X37624771Y-59540037D01*
X37624768Y-59540045D01*
X37564699Y-59738065D01*
X37564698Y-59738070D01*
X37544417Y-59943996D01*
X37544417Y-59944003D01*
X37564698Y-60149929D01*
X37564699Y-60149934D01*
X37624768Y-60347954D01*
X37722316Y-60530452D01*
X37824776Y-60655300D01*
X37853590Y-60690410D01*
X37853595Y-60690414D01*
X38013547Y-60821683D01*
X38013548Y-60821683D01*
X38013550Y-60821685D01*
X38196046Y-60919232D01*
X38333997Y-60961078D01*
X38394065Y-60979300D01*
X38394070Y-60979301D01*
X38599997Y-60999583D01*
X38600000Y-60999583D01*
X38600003Y-60999583D01*
X38805929Y-60979301D01*
X38805934Y-60979300D01*
X39003954Y-60919232D01*
X39186450Y-60821685D01*
X39346410Y-60690410D01*
X39477685Y-60530450D01*
X39575232Y-60347954D01*
X39635300Y-60149934D01*
X39635301Y-60149929D01*
X39655583Y-59944003D01*
X39655583Y-59943996D01*
X39635301Y-59738070D01*
X39635300Y-59738065D01*
X39599484Y-59619996D01*
X39575232Y-59540046D01*
X39477685Y-59357550D01*
X39450015Y-59323834D01*
X39361556Y-59216046D01*
X39346410Y-59197590D01*
X39338201Y-59190853D01*
X39186452Y-59066316D01*
X39003954Y-58968768D01*
X38805934Y-58908699D01*
X38805929Y-58908698D01*
X38600003Y-58888417D01*
X38599997Y-58888417D01*
X38394070Y-58908698D01*
X38394065Y-58908699D01*
X38196052Y-58968766D01*
X38196049Y-58968766D01*
X38196046Y-58968768D01*
X38196044Y-58968768D01*
X38196036Y-58968772D01*
X38193697Y-58970023D01*
X38192505Y-58970235D01*
X38191553Y-58970630D01*
X38191466Y-58970420D01*
X38133463Y-58980770D01*
X38078415Y-58954061D01*
X38077037Y-58952710D01*
X36416782Y-57292455D01*
X34743862Y-55619535D01*
X34743859Y-55619533D01*
X34743858Y-55619532D01*
X34743857Y-55619531D01*
X34669642Y-55576683D01*
X34669639Y-55576682D01*
X34647040Y-55570626D01*
X34595726Y-55537301D01*
X34573801Y-55480179D01*
X34589638Y-55421079D01*
X34609861Y-55398472D01*
X34746400Y-55286418D01*
X34746410Y-55286410D01*
X34877685Y-55126450D01*
X34975232Y-54943954D01*
X35035300Y-54745934D01*
X35035301Y-54745929D01*
X35055583Y-54540003D01*
X35055583Y-54539996D01*
X35035301Y-54334070D01*
X35035300Y-54334065D01*
X35010271Y-54251556D01*
X34975232Y-54136046D01*
X34877685Y-53953550D01*
X34746410Y-53793590D01*
X34746404Y-53793585D01*
X34586452Y-53662316D01*
X34403954Y-53564768D01*
X34205934Y-53504699D01*
X34205929Y-53504698D01*
X34000003Y-53484417D01*
X33999997Y-53484417D01*
X33794070Y-53504698D01*
X33794065Y-53504699D01*
X33596045Y-53564768D01*
X33413547Y-53662316D01*
X33253595Y-53793585D01*
X33253585Y-53793595D01*
X33122316Y-53953547D01*
X33024769Y-54136043D01*
X33024768Y-54136045D01*
X33024768Y-54136046D01*
X33022282Y-54144241D01*
X32987297Y-54194436D01*
X32929488Y-54214481D01*
X32927546Y-54214500D01*
X32285147Y-54214500D01*
X32202362Y-54236682D01*
X32202361Y-54236682D01*
X32202359Y-54236683D01*
X32181094Y-54248961D01*
X32176598Y-54251557D01*
X32128138Y-54279535D01*
X31044531Y-55363142D01*
X31001682Y-55437360D01*
X31001681Y-55437360D01*
X31001682Y-55437361D01*
X30979500Y-55520147D01*
X30979500Y-58850500D01*
X30960593Y-58908691D01*
X30911093Y-58944655D01*
X30880500Y-58949500D01*
X29260252Y-58949500D01*
X29260251Y-58949500D01*
X29260241Y-58949501D01*
X29201772Y-58961132D01*
X29201766Y-58961134D01*
X29135451Y-59005445D01*
X29135445Y-59005451D01*
X29091134Y-59071766D01*
X29091132Y-59071772D01*
X29079501Y-59130241D01*
X29079500Y-59130253D01*
X29079500Y-60869746D01*
X29079501Y-60869758D01*
X29091132Y-60928227D01*
X29091134Y-60928233D01*
X29125257Y-60979301D01*
X29135448Y-60994552D01*
X29201769Y-61038867D01*
X29246231Y-61047711D01*
X29260241Y-61050498D01*
X29260246Y-61050498D01*
X29260252Y-61050500D01*
X30880500Y-61050500D01*
X30938691Y-61069407D01*
X30974655Y-61118907D01*
X30979500Y-61149500D01*
X30979500Y-61189165D01*
X30960593Y-61247356D01*
X30950504Y-61259168D01*
X30658174Y-61551497D01*
X30603659Y-61579274D01*
X30543227Y-61569703D01*
X30541504Y-61568803D01*
X30533959Y-61564770D01*
X30533954Y-61564768D01*
X30335934Y-61504699D01*
X30335929Y-61504698D01*
X30130003Y-61484417D01*
X30129997Y-61484417D01*
X29924070Y-61504698D01*
X29924065Y-61504699D01*
X29726045Y-61564768D01*
X29543547Y-61662316D01*
X29383595Y-61793585D01*
X29383585Y-61793595D01*
X29252316Y-61953547D01*
X29154768Y-62136045D01*
X29094699Y-62334065D01*
X29094698Y-62334070D01*
X29074417Y-62539996D01*
X29074417Y-62540003D01*
X29094698Y-62745929D01*
X29094699Y-62745934D01*
X29154768Y-62943954D01*
X29252316Y-63126452D01*
X29377643Y-63279164D01*
X29383590Y-63286410D01*
X29383595Y-63286414D01*
X29543547Y-63417683D01*
X29543548Y-63417683D01*
X29543550Y-63417685D01*
X29726046Y-63515232D01*
X29863997Y-63557078D01*
X29924065Y-63575300D01*
X29924070Y-63575301D01*
X30129997Y-63595583D01*
X30130000Y-63595583D01*
X30130003Y-63595583D01*
X30335929Y-63575301D01*
X30335934Y-63575300D01*
X30533954Y-63515232D01*
X30716450Y-63417685D01*
X30876410Y-63286410D01*
X31007685Y-63126450D01*
X31105232Y-62943954D01*
X31165300Y-62745934D01*
X31165301Y-62745929D01*
X31185583Y-62540003D01*
X31185583Y-62539996D01*
X31165301Y-62334070D01*
X31165300Y-62334065D01*
X31135428Y-62235590D01*
X31105232Y-62136046D01*
X31101195Y-62128493D01*
X31090440Y-62068261D01*
X31117142Y-62013210D01*
X31118445Y-62011880D01*
X31260498Y-61869828D01*
X31315013Y-61842052D01*
X31375445Y-61851624D01*
X31418710Y-61894888D01*
X31429500Y-61939833D01*
X31429500Y-63279164D01*
X31410593Y-63337355D01*
X31400504Y-63349168D01*
X30658175Y-64091496D01*
X30603658Y-64119273D01*
X30543226Y-64109702D01*
X30541506Y-64108804D01*
X30533957Y-64104769D01*
X30533954Y-64104768D01*
X30335934Y-64044699D01*
X30335929Y-64044698D01*
X30130003Y-64024417D01*
X30129997Y-64024417D01*
X29924070Y-64044698D01*
X29924065Y-64044699D01*
X29726045Y-64104768D01*
X29543547Y-64202316D01*
X29383595Y-64333585D01*
X29383585Y-64333595D01*
X29252316Y-64493547D01*
X29154768Y-64676045D01*
X29094699Y-64874065D01*
X29094698Y-64874070D01*
X29074417Y-65079996D01*
X29074417Y-65080003D01*
X29094698Y-65285929D01*
X29094699Y-65285934D01*
X29154768Y-65483954D01*
X29252316Y-65666452D01*
X29383585Y-65826404D01*
X29383590Y-65826410D01*
X29383595Y-65826414D01*
X29543547Y-65957683D01*
X29543548Y-65957683D01*
X29543550Y-65957685D01*
X29726046Y-66055232D01*
X29863997Y-66097078D01*
X29924065Y-66115300D01*
X29924070Y-66115301D01*
X30129997Y-66135583D01*
X30130000Y-66135583D01*
X30130003Y-66135583D01*
X30335929Y-66115301D01*
X30335934Y-66115300D01*
X30373584Y-66103879D01*
X30533954Y-66055232D01*
X30716450Y-65957685D01*
X30876410Y-65826410D01*
X31007685Y-65666450D01*
X31105232Y-65483954D01*
X31165300Y-65285934D01*
X31165301Y-65285929D01*
X31185583Y-65080003D01*
X31185583Y-65079996D01*
X31165301Y-64874070D01*
X31165300Y-64874065D01*
X31148312Y-64818065D01*
X31105232Y-64676046D01*
X31101196Y-64668496D01*
X31090439Y-64608265D01*
X31117140Y-64553213D01*
X31118450Y-64551875D01*
X31710497Y-63959829D01*
X31765013Y-63932053D01*
X31825445Y-63941624D01*
X31868710Y-63984889D01*
X31879500Y-64029834D01*
X31879500Y-65369164D01*
X31860593Y-65427355D01*
X31850504Y-65439168D01*
X30658175Y-66631496D01*
X30603658Y-66659273D01*
X30543226Y-66649702D01*
X30541506Y-66648804D01*
X30533957Y-66644769D01*
X30533954Y-66644768D01*
X30335934Y-66584699D01*
X30335929Y-66584698D01*
X30130003Y-66564417D01*
X30129997Y-66564417D01*
X29924070Y-66584698D01*
X29924065Y-66584699D01*
X29726045Y-66644768D01*
X29543547Y-66742316D01*
X29383595Y-66873585D01*
X29383585Y-66873595D01*
X29252316Y-67033547D01*
X29154768Y-67216045D01*
X29094699Y-67414065D01*
X29094698Y-67414070D01*
X29074417Y-67619996D01*
X29074417Y-67620003D01*
X29094698Y-67825929D01*
X29094699Y-67825934D01*
X29154768Y-68023954D01*
X29252316Y-68206452D01*
X29383585Y-68366404D01*
X29383590Y-68366410D01*
X29383595Y-68366414D01*
X29543547Y-68497683D01*
X29543548Y-68497683D01*
X29543550Y-68497685D01*
X29726046Y-68595232D01*
X29863997Y-68637078D01*
X29924065Y-68655300D01*
X29924070Y-68655301D01*
X30129997Y-68675583D01*
X30130000Y-68675583D01*
X30130003Y-68675583D01*
X30335929Y-68655301D01*
X30335934Y-68655300D01*
X30533954Y-68595232D01*
X30716450Y-68497685D01*
X30876410Y-68366410D01*
X31007685Y-68206450D01*
X31105232Y-68023954D01*
X31165300Y-67825934D01*
X31165301Y-67825929D01*
X31185583Y-67620003D01*
X31185583Y-67619996D01*
X31165301Y-67414070D01*
X31165300Y-67414065D01*
X31148312Y-67358065D01*
X31105232Y-67216046D01*
X31101196Y-67208496D01*
X31090439Y-67148265D01*
X31117140Y-67093213D01*
X31118451Y-67091874D01*
X32160497Y-66049829D01*
X32215013Y-66022053D01*
X32275445Y-66031624D01*
X32318710Y-66074889D01*
X32329500Y-66119834D01*
X32329500Y-67459164D01*
X32310593Y-67517355D01*
X32300504Y-67529168D01*
X30658175Y-69171496D01*
X30603658Y-69199273D01*
X30543226Y-69189702D01*
X30541506Y-69188804D01*
X30533957Y-69184769D01*
X30533954Y-69184768D01*
X30335934Y-69124699D01*
X30335929Y-69124698D01*
X30130003Y-69104417D01*
X30129997Y-69104417D01*
X29924070Y-69124698D01*
X29924065Y-69124699D01*
X29726045Y-69184768D01*
X29543547Y-69282316D01*
X29383595Y-69413585D01*
X29383585Y-69413595D01*
X29252316Y-69573547D01*
X29154768Y-69756045D01*
X29094699Y-69954065D01*
X29094698Y-69954071D01*
X29081861Y-70084411D01*
X29057341Y-70140468D01*
X29004554Y-70171407D01*
X28943664Y-70165409D01*
X28913338Y-70144713D01*
X28817615Y-70048991D01*
X28817614Y-70048989D01*
X28294496Y-69525871D01*
X28266719Y-69471354D01*
X28265500Y-69455867D01*
X28265500Y-69259562D01*
X28284407Y-69201371D01*
X28289681Y-69194731D01*
X28365377Y-69107373D01*
X28425165Y-68976457D01*
X28445647Y-68834000D01*
X28432807Y-68744698D01*
X28425165Y-68691543D01*
X28408613Y-68655300D01*
X28365377Y-68560627D01*
X28271128Y-68451857D01*
X28271127Y-68451856D01*
X28271126Y-68451855D01*
X28150057Y-68374049D01*
X28150054Y-68374047D01*
X28150053Y-68374047D01*
X28150050Y-68374046D01*
X28011964Y-68333500D01*
X28011961Y-68333500D01*
X27868039Y-68333500D01*
X27868035Y-68333500D01*
X27729949Y-68374046D01*
X27729942Y-68374049D01*
X27608873Y-68451855D01*
X27514622Y-68560628D01*
X27454834Y-68691543D01*
X27434353Y-68833997D01*
X27208500Y-68833997D01*
X27208500Y-60862109D01*
X27202620Y-60840164D01*
X27174392Y-60734814D01*
X27174390Y-60734811D01*
X27174390Y-60734809D01*
X27108503Y-60620690D01*
X27108499Y-60620685D01*
X27015314Y-60527499D01*
X27015314Y-60527500D01*
X23167314Y-56679500D01*
X23167311Y-56679498D01*
X23167310Y-56679497D01*
X23167309Y-56679496D01*
X23053189Y-56613609D01*
X23053191Y-56613609D01*
X23003799Y-56600375D01*
X22925892Y-56579500D01*
X22925890Y-56579500D01*
X19742965Y-56579500D01*
X19684774Y-56560593D01*
X19655656Y-56527170D01*
X19648126Y-56513084D01*
X19637685Y-56493550D01*
X19506410Y-56333590D01*
X19506404Y-56333585D01*
X19346452Y-56202316D01*
X19163954Y-56104768D01*
X18965934Y-56044699D01*
X18965929Y-56044698D01*
X18760003Y-56024417D01*
X18759997Y-56024417D01*
X18554070Y-56044698D01*
X18554065Y-56044699D01*
X18356045Y-56104768D01*
X18173547Y-56202316D01*
X18013595Y-56333585D01*
X18013585Y-56333595D01*
X17882316Y-56493547D01*
X17784768Y-56676045D01*
X17724699Y-56874065D01*
X17724698Y-56874070D01*
X17704417Y-57079996D01*
X16300500Y-57079996D01*
X16300500Y-56076322D01*
X16319407Y-56018131D01*
X16329496Y-56006318D01*
X17266318Y-55069496D01*
X17320835Y-55041719D01*
X17336322Y-55040500D01*
X17777035Y-55040500D01*
X17835226Y-55059407D01*
X17864344Y-55092830D01*
X17882315Y-55126450D01*
X18013590Y-55286410D01*
X18013595Y-55286414D01*
X18173547Y-55417683D01*
X18173548Y-55417683D01*
X18173550Y-55417685D01*
X18356046Y-55515232D01*
X18485497Y-55554500D01*
X18554065Y-55575300D01*
X18554070Y-55575301D01*
X18759997Y-55595583D01*
X18760000Y-55595583D01*
X18760003Y-55595583D01*
X18965929Y-55575301D01*
X18965934Y-55575300D01*
X18981342Y-55570626D01*
X19163954Y-55515232D01*
X19346450Y-55417685D01*
X19506410Y-55286410D01*
X19637685Y-55126450D01*
X19735232Y-54943954D01*
X19795300Y-54745934D01*
X19795301Y-54745929D01*
X19815583Y-54540003D01*
X19815583Y-54539996D01*
X19795301Y-54334070D01*
X19795300Y-54334065D01*
X19770271Y-54251556D01*
X19735232Y-54136046D01*
X19637685Y-53953550D01*
X19506410Y-53793590D01*
X19506404Y-53793585D01*
X19346452Y-53662316D01*
X19163954Y-53564768D01*
X19013671Y-53519180D01*
X18963474Y-53484195D01*
X18943428Y-53426387D01*
X18961189Y-53367836D01*
X19009974Y-53330907D01*
X19016786Y-53328816D01*
X19223495Y-53273429D01*
X19437572Y-53173603D01*
X19437580Y-53173598D01*
X19479781Y-53144046D01*
X18874465Y-52538730D01*
X18972292Y-52512518D01*
X19097708Y-52440110D01*
X19200110Y-52337708D01*
X19272518Y-52212292D01*
X19298730Y-52114465D01*
X19904046Y-52719781D01*
X19933598Y-52677580D01*
X19933603Y-52677572D01*
X20033429Y-52463494D01*
X20094570Y-52235313D01*
X20115157Y-52000003D01*
X20115157Y-51999996D01*
X20094570Y-51764686D01*
X20033429Y-51536505D01*
X19933605Y-51322432D01*
X19933601Y-51322424D01*
X19904047Y-51280216D01*
X19298730Y-51885532D01*
X19272518Y-51787708D01*
X19200110Y-51662292D01*
X19097708Y-51559890D01*
X18972292Y-51487482D01*
X18874464Y-51461268D01*
X19205480Y-51130253D01*
X32949500Y-51130253D01*
X32949500Y-52869746D01*
X32949501Y-52869758D01*
X32961132Y-52928227D01*
X32961133Y-52928231D01*
X33005448Y-52994552D01*
X33071769Y-53038867D01*
X33116231Y-53047711D01*
X33130241Y-53050498D01*
X33130246Y-53050498D01*
X33130252Y-53050500D01*
X34549165Y-53050500D01*
X34607356Y-53069407D01*
X34619169Y-53079496D01*
X40793504Y-59253830D01*
X40821281Y-59308347D01*
X40822500Y-59323834D01*
X40822500Y-71190164D01*
X40803593Y-71248355D01*
X40793504Y-71260168D01*
X39128175Y-72925496D01*
X39073658Y-72953273D01*
X39013226Y-72943702D01*
X39011506Y-72942804D01*
X39003957Y-72938769D01*
X39003954Y-72938768D01*
X38805934Y-72878699D01*
X38805929Y-72878698D01*
X38600003Y-72858417D01*
X38599997Y-72858417D01*
X38394070Y-72878698D01*
X38394065Y-72878699D01*
X38196045Y-72938768D01*
X38013547Y-73036316D01*
X37853595Y-73167585D01*
X37853585Y-73167595D01*
X37722316Y-73327547D01*
X37624768Y-73510045D01*
X37564699Y-73708065D01*
X37564698Y-73708070D01*
X37544417Y-73913996D01*
X37544417Y-73914003D01*
X37564698Y-74119929D01*
X37564699Y-74119934D01*
X37624768Y-74317954D01*
X37722316Y-74500452D01*
X37847958Y-74653547D01*
X37853590Y-74660410D01*
X37853595Y-74660414D01*
X38013547Y-74791683D01*
X38013548Y-74791683D01*
X38013550Y-74791685D01*
X38196046Y-74889232D01*
X38333997Y-74931078D01*
X38394065Y-74949300D01*
X38394070Y-74949301D01*
X38599997Y-74969583D01*
X38600000Y-74969583D01*
X38600003Y-74969583D01*
X38805929Y-74949301D01*
X38805934Y-74949300D01*
X39003954Y-74889232D01*
X39186450Y-74791685D01*
X39346410Y-74660410D01*
X39477685Y-74500450D01*
X39575232Y-74317954D01*
X39635300Y-74119934D01*
X39635301Y-74119929D01*
X39655583Y-73914003D01*
X39655583Y-73913996D01*
X39635301Y-73708070D01*
X39635300Y-73708065D01*
X39613616Y-73636584D01*
X39575232Y-73510046D01*
X39571196Y-73502496D01*
X39560439Y-73442265D01*
X39587140Y-73387213D01*
X39588452Y-73385874D01*
X41408465Y-71565862D01*
X41436990Y-71516456D01*
X41451316Y-71491643D01*
X41451316Y-71491641D01*
X41451318Y-71491639D01*
X41473500Y-71408853D01*
X41473500Y-71323147D01*
X41473500Y-70569147D01*
X41473500Y-59198840D01*
X41473501Y-59198827D01*
X41473501Y-59105150D01*
X41473501Y-59105148D01*
X41451318Y-59022362D01*
X41437374Y-58998211D01*
X41427305Y-58980770D01*
X41408467Y-58948141D01*
X41408466Y-58948140D01*
X41408465Y-58948138D01*
X41347862Y-58887535D01*
X41347859Y-58887533D01*
X35354036Y-52893709D01*
X37149500Y-52893709D01*
X37149500Y-53106290D01*
X37182752Y-53316238D01*
X37248443Y-53518412D01*
X37344948Y-53707815D01*
X37344950Y-53707819D01*
X37469891Y-53879786D01*
X37469893Y-53879788D01*
X37469896Y-53879792D01*
X37620208Y-54030104D01*
X37620211Y-54030106D01*
X37620213Y-54030108D01*
X37792180Y-54155049D01*
X37792184Y-54155051D01*
X37981588Y-54251557D01*
X38183757Y-54317246D01*
X38183758Y-54317246D01*
X38183761Y-54317247D01*
X38393710Y-54350500D01*
X38393713Y-54350500D01*
X38606290Y-54350500D01*
X38816238Y-54317247D01*
X38816239Y-54317246D01*
X38816243Y-54317246D01*
X39018412Y-54251557D01*
X39207816Y-54155051D01*
X39233979Y-54136043D01*
X39379786Y-54030108D01*
X39379792Y-54030104D01*
X39530104Y-53879792D01*
X39655051Y-53707816D01*
X39751557Y-53518412D01*
X39817246Y-53316243D01*
X39824027Y-53273429D01*
X39850500Y-53106290D01*
X39850500Y-52893709D01*
X39817247Y-52683761D01*
X39815239Y-52677580D01*
X39751557Y-52481588D01*
X39655051Y-52292184D01*
X39655049Y-52292180D01*
X39530108Y-52120213D01*
X39530106Y-52120211D01*
X39530104Y-52120208D01*
X39379792Y-51969896D01*
X39379788Y-51969893D01*
X39379786Y-51969891D01*
X39207819Y-51844950D01*
X39207815Y-51844948D01*
X39018412Y-51748443D01*
X38816238Y-51682752D01*
X38606290Y-51649500D01*
X38606287Y-51649500D01*
X38393713Y-51649500D01*
X38393710Y-51649500D01*
X38183761Y-51682752D01*
X37981587Y-51748443D01*
X37792184Y-51844948D01*
X37792180Y-51844950D01*
X37620213Y-51969891D01*
X37469891Y-52120213D01*
X37344950Y-52292180D01*
X37344948Y-52292184D01*
X37248443Y-52481587D01*
X37182752Y-52683761D01*
X37149500Y-52893709D01*
X35354036Y-52893709D01*
X35079496Y-52619169D01*
X35051719Y-52564652D01*
X35050500Y-52549165D01*
X35050500Y-51130253D01*
X35050498Y-51130241D01*
X35047711Y-51116231D01*
X35038867Y-51071769D01*
X34994552Y-51005448D01*
X34994548Y-51005445D01*
X34928233Y-50961134D01*
X34928231Y-50961133D01*
X34928228Y-50961132D01*
X34928227Y-50961132D01*
X34869758Y-50949501D01*
X34869748Y-50949500D01*
X33130252Y-50949500D01*
X33130251Y-50949500D01*
X33130241Y-50949501D01*
X33071772Y-50961132D01*
X33071766Y-50961134D01*
X33005451Y-51005445D01*
X33005445Y-51005451D01*
X32961134Y-51071766D01*
X32961132Y-51071772D01*
X32949501Y-51130241D01*
X32949500Y-51130253D01*
X19205480Y-51130253D01*
X19479782Y-50855951D01*
X19437580Y-50826400D01*
X19223489Y-50726569D01*
X19106146Y-50695127D01*
X19054832Y-50661803D01*
X19032905Y-50604681D01*
X19048741Y-50545581D01*
X19096290Y-50507076D01*
X19131769Y-50500500D01*
X44400500Y-50500500D01*
X44458691Y-50519407D01*
G37*
%TD.AperFunction*%
%TA.AperFunction,Conductor*%
G36*
X25161504Y-92931830D02*
G01*
X27425533Y-95195859D01*
X27425535Y-95195862D01*
X27486138Y-95256465D01*
X27486140Y-95256466D01*
X27558156Y-95298045D01*
X27558163Y-95298048D01*
X27560362Y-95299318D01*
X27643148Y-95321501D01*
X27643149Y-95321501D01*
X27734916Y-95321501D01*
X27734932Y-95321500D01*
X31030851Y-95321500D01*
X31030853Y-95321500D01*
X31113639Y-95299318D01*
X31113641Y-95299316D01*
X31113643Y-95299316D01*
X31187857Y-95256468D01*
X31187857Y-95256467D01*
X31187862Y-95256465D01*
X31579335Y-94864990D01*
X31633848Y-94837215D01*
X31694280Y-94846786D01*
X31737544Y-94890051D01*
X31748335Y-94935022D01*
X31747848Y-96778429D01*
X31728925Y-96836615D01*
X31679416Y-96872566D01*
X31648848Y-96877403D01*
X28445822Y-96877403D01*
X28447059Y-100137686D01*
X28428174Y-100195884D01*
X28378687Y-100231867D01*
X28317502Y-100231890D01*
X28278055Y-100207728D01*
X25021496Y-96951169D01*
X24993719Y-96896652D01*
X24992500Y-96881165D01*
X24992500Y-93001834D01*
X25011407Y-92943643D01*
X25060907Y-92907679D01*
X25122093Y-92907679D01*
X25161504Y-92931830D01*
G37*
%TD.AperFunction*%
%TA.AperFunction,Conductor*%
G36*
X18446422Y-50519407D02*
G01*
X18482386Y-50568907D01*
X18482386Y-50630093D01*
X18446422Y-50679593D01*
X18413854Y-50695127D01*
X18296505Y-50726570D01*
X18082432Y-50826394D01*
X18082420Y-50826401D01*
X18040216Y-50855951D01*
X18645534Y-51461269D01*
X18547708Y-51487482D01*
X18422292Y-51559890D01*
X18319890Y-51662292D01*
X18247482Y-51787708D01*
X18221269Y-51885534D01*
X17615951Y-51280216D01*
X17586401Y-51322420D01*
X17586394Y-51322432D01*
X17486570Y-51536505D01*
X17425429Y-51764686D01*
X17404843Y-51999996D01*
X17404843Y-52000003D01*
X17425429Y-52235313D01*
X17486569Y-52463489D01*
X17586400Y-52677579D01*
X17586400Y-52677580D01*
X17615951Y-52719782D01*
X18221268Y-52114464D01*
X18247482Y-52212292D01*
X18319890Y-52337708D01*
X18422292Y-52440110D01*
X18547708Y-52512518D01*
X18645532Y-52538730D01*
X18040215Y-53144046D01*
X18082417Y-53173598D01*
X18082420Y-53173599D01*
X18296509Y-53273430D01*
X18503213Y-53328816D01*
X18554527Y-53362140D01*
X18576454Y-53419261D01*
X18560619Y-53478362D01*
X18513069Y-53516867D01*
X18506329Y-53519180D01*
X18410637Y-53548208D01*
X18356046Y-53564768D01*
X18356044Y-53564768D01*
X18356044Y-53564769D01*
X18173547Y-53662316D01*
X18013595Y-53793585D01*
X18013585Y-53793595D01*
X17882313Y-53953552D01*
X17882313Y-53953553D01*
X17864344Y-53987170D01*
X17820238Y-54029576D01*
X17777035Y-54039500D01*
X17153892Y-54039500D01*
X17022107Y-54039500D01*
X16944200Y-54060374D01*
X16894809Y-54073609D01*
X16780690Y-54139496D01*
X15669504Y-55250682D01*
X15614987Y-55278459D01*
X15554555Y-55268888D01*
X15511290Y-55225623D01*
X15500500Y-55180678D01*
X15500500Y-50599500D01*
X15519407Y-50541309D01*
X15568907Y-50505345D01*
X15599500Y-50500500D01*
X18388231Y-50500500D01*
X18446422Y-50519407D01*
G37*
%TD.AperFunction*%
%TD*%
%TA.AperFunction,Conductor*%
%TO.N,GNDA*%
G36*
X37583944Y-94693124D02*
G01*
X37609003Y-94711330D01*
X41451138Y-98553465D01*
X41451140Y-98553466D01*
X41451141Y-98553467D01*
X41451142Y-98553468D01*
X41525357Y-98596316D01*
X41525355Y-98596316D01*
X41525359Y-98596317D01*
X41525361Y-98596318D01*
X41608147Y-98618500D01*
X41693853Y-98618500D01*
X42107546Y-98618500D01*
X42165737Y-98637407D01*
X42201701Y-98686907D01*
X42202267Y-98688709D01*
X42204246Y-98695232D01*
X42204769Y-98696956D01*
X42302316Y-98879452D01*
X42433585Y-99039404D01*
X42433590Y-99039410D01*
X42433595Y-99039414D01*
X42593547Y-99170683D01*
X42593548Y-99170683D01*
X42593550Y-99170685D01*
X42776046Y-99268232D01*
X42845377Y-99289263D01*
X42895574Y-99324248D01*
X42915620Y-99382056D01*
X42897859Y-99440607D01*
X42849075Y-99477536D01*
X42816639Y-99483000D01*
X42282176Y-99483000D01*
X42222629Y-99489401D01*
X42222618Y-99489403D01*
X42087911Y-99539646D01*
X42087909Y-99539647D01*
X41972815Y-99625807D01*
X41972807Y-99625815D01*
X41886647Y-99740909D01*
X41886646Y-99740911D01*
X41836403Y-99875618D01*
X41836401Y-99875629D01*
X41830000Y-99935175D01*
X41830000Y-100532999D01*
X41830001Y-100533000D01*
X42775856Y-100533000D01*
X42714075Y-100640007D01*
X42680000Y-100767174D01*
X42680000Y-100898826D01*
X42714075Y-101025993D01*
X42775856Y-101133000D01*
X41830001Y-101133000D01*
X41830000Y-101133001D01*
X41830000Y-101730824D01*
X41829999Y-101730824D01*
X41836401Y-101790370D01*
X41836403Y-101790381D01*
X41886646Y-101925088D01*
X41886647Y-101925090D01*
X41905048Y-101949671D01*
X41924785Y-102007586D01*
X41906711Y-102066041D01*
X41857729Y-102102708D01*
X41825795Y-102108000D01*
X37021334Y-102108000D01*
X36963143Y-102089093D01*
X36927179Y-102039593D01*
X36927179Y-101978407D01*
X36951330Y-101938997D01*
X37099956Y-101790370D01*
X37180352Y-101709973D01*
X37234867Y-101682197D01*
X37290618Y-101689536D01*
X37312197Y-101699144D01*
X37497354Y-101738500D01*
X37497357Y-101738500D01*
X37686643Y-101738500D01*
X37686646Y-101738500D01*
X37871803Y-101699144D01*
X38044730Y-101622151D01*
X38197871Y-101510888D01*
X38324533Y-101370216D01*
X38395037Y-101248100D01*
X38415302Y-101213000D01*
X38460771Y-101172059D01*
X38501038Y-101163500D01*
X39222962Y-101163500D01*
X39281153Y-101182407D01*
X39308698Y-101213000D01*
X39328963Y-101248100D01*
X39399467Y-101370216D01*
X39399469Y-101370218D01*
X39524962Y-101509593D01*
X39526129Y-101510888D01*
X39679270Y-101622151D01*
X39852197Y-101699144D01*
X40037354Y-101738500D01*
X40037357Y-101738500D01*
X40226643Y-101738500D01*
X40226646Y-101738500D01*
X40411803Y-101699144D01*
X40584730Y-101622151D01*
X40737871Y-101510888D01*
X40864533Y-101370216D01*
X40959179Y-101206284D01*
X41017674Y-101026256D01*
X41037460Y-100838000D01*
X41017674Y-100649744D01*
X40959179Y-100469716D01*
X40959176Y-100469711D01*
X40959174Y-100469706D01*
X40880246Y-100333000D01*
X40864533Y-100305784D01*
X40810249Y-100245496D01*
X40737875Y-100165116D01*
X40737870Y-100165111D01*
X40584731Y-100053850D01*
X40584732Y-100053850D01*
X40584730Y-100053849D01*
X40584725Y-100053847D01*
X40584722Y-100053845D01*
X40411805Y-99976857D01*
X40411803Y-99976856D01*
X40411800Y-99976855D01*
X40411799Y-99976855D01*
X40376580Y-99969369D01*
X40226646Y-99937500D01*
X40037354Y-99937500D01*
X39919289Y-99962595D01*
X39852200Y-99976855D01*
X39852194Y-99976857D01*
X39679277Y-100053845D01*
X39679268Y-100053850D01*
X39526129Y-100165111D01*
X39526124Y-100165116D01*
X39399469Y-100305781D01*
X39399465Y-100305787D01*
X39308698Y-100463000D01*
X39263229Y-100503941D01*
X39222962Y-100512500D01*
X38501038Y-100512500D01*
X38442847Y-100493593D01*
X38415302Y-100463000D01*
X38340246Y-100333000D01*
X38324533Y-100305784D01*
X38270249Y-100245496D01*
X38197875Y-100165116D01*
X38197870Y-100165111D01*
X38044731Y-100053850D01*
X38044732Y-100053850D01*
X38044730Y-100053849D01*
X38044725Y-100053847D01*
X38044722Y-100053845D01*
X37871805Y-99976857D01*
X37871803Y-99976856D01*
X37871800Y-99976855D01*
X37871799Y-99976855D01*
X37836580Y-99969369D01*
X37686646Y-99937500D01*
X37497354Y-99937500D01*
X37379289Y-99962595D01*
X37312200Y-99976855D01*
X37312194Y-99976857D01*
X37139277Y-100053845D01*
X37139268Y-100053850D01*
X36986129Y-100165111D01*
X36986124Y-100165116D01*
X36859469Y-100305781D01*
X36859465Y-100305787D01*
X36764825Y-100469706D01*
X36764819Y-100469720D01*
X36706327Y-100649738D01*
X36706326Y-100649742D01*
X36706326Y-100649744D01*
X36698575Y-100723494D01*
X36686540Y-100838000D01*
X36706326Y-101026258D01*
X36745722Y-101147505D01*
X36745722Y-101208690D01*
X36721571Y-101248100D01*
X36470170Y-101499503D01*
X36415653Y-101527281D01*
X36400166Y-101528500D01*
X34816934Y-101528500D01*
X34758743Y-101509593D01*
X34722779Y-101460093D01*
X34718311Y-101420872D01*
X34719782Y-101404047D01*
X34114465Y-100798730D01*
X34212292Y-100772518D01*
X34337708Y-100700110D01*
X34440110Y-100597708D01*
X34512518Y-100472292D01*
X34538730Y-100374465D01*
X35144046Y-100979781D01*
X35173598Y-100937580D01*
X35173603Y-100937572D01*
X35273429Y-100723494D01*
X35334570Y-100495313D01*
X35355157Y-100260003D01*
X35355157Y-100259996D01*
X35334570Y-100024686D01*
X35273429Y-99796505D01*
X35173605Y-99582432D01*
X35173601Y-99582424D01*
X35144047Y-99540216D01*
X34538730Y-100145532D01*
X34512518Y-100047708D01*
X34440110Y-99922292D01*
X34337708Y-99819890D01*
X34212292Y-99747482D01*
X34114464Y-99721268D01*
X34719782Y-99115951D01*
X34677580Y-99086400D01*
X34463489Y-98986569D01*
X34256786Y-98931183D01*
X34205472Y-98897859D01*
X34183545Y-98840737D01*
X34199381Y-98781637D01*
X34246931Y-98743132D01*
X34253663Y-98740821D01*
X34403954Y-98695232D01*
X34586450Y-98597685D01*
X34746410Y-98466410D01*
X34877685Y-98306450D01*
X34975232Y-98123954D01*
X35035300Y-97925934D01*
X35035301Y-97925929D01*
X35055583Y-97720003D01*
X35055583Y-97719996D01*
X35035301Y-97514070D01*
X35035300Y-97514065D01*
X35005345Y-97415316D01*
X34975232Y-97316046D01*
X34971196Y-97308496D01*
X34960439Y-97248265D01*
X34987140Y-97193213D01*
X34988452Y-97191873D01*
X37468999Y-94711327D01*
X37523512Y-94683553D01*
X37583944Y-94693124D01*
G37*
%TD.AperFunction*%
%TA.AperFunction,Conductor*%
G36*
X36747067Y-89339407D02*
G01*
X36783031Y-89388907D01*
X36783031Y-89450093D01*
X36765404Y-89482305D01*
X36682317Y-89583547D01*
X36682316Y-89583547D01*
X36584769Y-89766043D01*
X36584768Y-89766045D01*
X36584768Y-89766046D01*
X36582282Y-89774241D01*
X36547297Y-89824436D01*
X36489488Y-89844481D01*
X36487546Y-89844500D01*
X36427147Y-89844500D01*
X36344362Y-89866682D01*
X36270138Y-89909535D01*
X34528175Y-91651496D01*
X34473658Y-91679273D01*
X34413226Y-91669702D01*
X34411506Y-91668804D01*
X34403957Y-91664769D01*
X34403954Y-91664768D01*
X34205934Y-91604699D01*
X34205929Y-91604698D01*
X34000003Y-91584417D01*
X33999997Y-91584417D01*
X33794070Y-91604698D01*
X33794065Y-91604699D01*
X33596045Y-91664768D01*
X33413547Y-91762316D01*
X33253595Y-91893585D01*
X33253585Y-91893595D01*
X33122316Y-92053547D01*
X33024768Y-92236045D01*
X32964699Y-92434065D01*
X32964698Y-92434070D01*
X32944417Y-92639996D01*
X32944417Y-92640003D01*
X32964698Y-92845929D01*
X32964699Y-92845934D01*
X33024768Y-93043954D01*
X33122316Y-93226452D01*
X33253585Y-93386404D01*
X33253590Y-93386410D01*
X33253595Y-93386414D01*
X33413547Y-93517683D01*
X33413548Y-93517683D01*
X33413550Y-93517685D01*
X33596046Y-93615232D01*
X33733997Y-93657078D01*
X33794065Y-93675300D01*
X33794070Y-93675301D01*
X33999997Y-93695583D01*
X34000000Y-93695583D01*
X34000003Y-93695583D01*
X34205929Y-93675301D01*
X34205934Y-93675300D01*
X34403954Y-93615232D01*
X34586450Y-93517685D01*
X34746410Y-93386410D01*
X34877685Y-93226450D01*
X34975232Y-93043954D01*
X35035300Y-92845934D01*
X35035301Y-92845929D01*
X35055583Y-92640003D01*
X35055583Y-92639996D01*
X35035301Y-92434070D01*
X35035300Y-92434065D01*
X35011879Y-92356856D01*
X34975232Y-92236046D01*
X34971196Y-92228496D01*
X34960439Y-92168265D01*
X34987140Y-92113213D01*
X34988453Y-92111872D01*
X36470040Y-90630285D01*
X36524555Y-90602510D01*
X36584987Y-90612081D01*
X36627352Y-90653622D01*
X36682316Y-90756452D01*
X36786954Y-90883954D01*
X36813590Y-90916410D01*
X36813595Y-90916414D01*
X36973547Y-91047683D01*
X36973548Y-91047683D01*
X36973550Y-91047685D01*
X37156046Y-91145232D01*
X37253398Y-91174763D01*
X37354065Y-91205300D01*
X37354070Y-91205301D01*
X37559997Y-91225583D01*
X37560000Y-91225583D01*
X37560003Y-91225583D01*
X37765929Y-91205301D01*
X37765934Y-91205300D01*
X37963954Y-91145232D01*
X37995612Y-91128309D01*
X38055843Y-91117551D01*
X38110896Y-91144251D01*
X38112287Y-91145614D01*
X38665169Y-91698496D01*
X38692946Y-91753013D01*
X38683375Y-91813445D01*
X38640110Y-91856710D01*
X38595165Y-91867500D01*
X37029853Y-91867500D01*
X36944147Y-91867500D01*
X36893478Y-91881076D01*
X36861356Y-91889683D01*
X36787142Y-91932531D01*
X36787141Y-91932532D01*
X34528175Y-94191496D01*
X34473658Y-94219273D01*
X34413226Y-94209702D01*
X34411506Y-94208804D01*
X34403957Y-94204769D01*
X34403954Y-94204768D01*
X34205934Y-94144699D01*
X34205929Y-94144698D01*
X34000003Y-94124417D01*
X33999997Y-94124417D01*
X33794070Y-94144698D01*
X33794065Y-94144699D01*
X33596045Y-94204768D01*
X33413547Y-94302316D01*
X33253595Y-94433585D01*
X33253585Y-94433595D01*
X33122316Y-94593547D01*
X33024768Y-94776045D01*
X32964699Y-94974065D01*
X32964698Y-94974070D01*
X32944417Y-95179996D01*
X32944417Y-95180003D01*
X32964698Y-95385929D01*
X32964699Y-95385934D01*
X33024768Y-95583954D01*
X33122316Y-95766452D01*
X33253585Y-95926404D01*
X33253590Y-95926410D01*
X33253595Y-95926414D01*
X33413547Y-96057683D01*
X33413548Y-96057683D01*
X33413550Y-96057685D01*
X33596046Y-96155232D01*
X33733997Y-96197078D01*
X33794065Y-96215300D01*
X33794070Y-96215301D01*
X33999997Y-96235583D01*
X34000000Y-96235583D01*
X34000003Y-96235583D01*
X34205929Y-96215301D01*
X34205934Y-96215300D01*
X34403954Y-96155232D01*
X34586450Y-96057685D01*
X34746410Y-95926410D01*
X34877685Y-95766450D01*
X34975232Y-95583954D01*
X35035300Y-95385934D01*
X35035301Y-95385929D01*
X35055583Y-95180003D01*
X35055583Y-95179996D01*
X35035301Y-94974070D01*
X35035300Y-94974065D01*
X35005345Y-94875316D01*
X34975232Y-94776046D01*
X34971196Y-94768496D01*
X34960439Y-94708265D01*
X34987140Y-94653213D01*
X34988453Y-94651872D01*
X36519889Y-93120436D01*
X36574404Y-93092661D01*
X36634836Y-93102232D01*
X36678101Y-93145497D01*
X36688349Y-93200790D01*
X36687066Y-93213000D01*
X36686540Y-93218000D01*
X36704240Y-93386410D01*
X36706327Y-93406261D01*
X36764819Y-93586279D01*
X36764825Y-93586293D01*
X36840015Y-93716525D01*
X36859467Y-93750216D01*
X36859469Y-93750218D01*
X36923967Y-93821851D01*
X36986129Y-93890888D01*
X37107215Y-93978862D01*
X37113982Y-93983778D01*
X37149946Y-94033278D01*
X37149947Y-94094463D01*
X37125796Y-94133875D01*
X34528175Y-96731496D01*
X34473658Y-96759273D01*
X34413226Y-96749702D01*
X34411506Y-96748804D01*
X34403957Y-96744769D01*
X34403954Y-96744768D01*
X34205934Y-96684699D01*
X34205929Y-96684698D01*
X34000003Y-96664417D01*
X33999997Y-96664417D01*
X33794070Y-96684698D01*
X33794065Y-96684699D01*
X33596045Y-96744768D01*
X33413547Y-96842316D01*
X33253595Y-96973585D01*
X33253585Y-96973595D01*
X33122316Y-97133547D01*
X33024768Y-97316045D01*
X32964699Y-97514065D01*
X32964698Y-97514070D01*
X32944417Y-97719996D01*
X32944417Y-97720003D01*
X32964698Y-97925929D01*
X32964699Y-97925934D01*
X33024768Y-98123954D01*
X33122316Y-98306452D01*
X33253585Y-98466404D01*
X33253590Y-98466410D01*
X33253595Y-98466414D01*
X33413547Y-98597683D01*
X33413548Y-98597683D01*
X33413550Y-98597685D01*
X33596046Y-98695232D01*
X33746328Y-98740819D01*
X33796525Y-98775804D01*
X33816571Y-98833612D01*
X33798810Y-98892163D01*
X33750026Y-98929092D01*
X33743213Y-98931183D01*
X33536505Y-98986570D01*
X33322432Y-99086394D01*
X33322420Y-99086401D01*
X33280216Y-99115951D01*
X33885534Y-99721269D01*
X33787708Y-99747482D01*
X33662292Y-99819890D01*
X33559890Y-99922292D01*
X33487482Y-100047708D01*
X33461269Y-100145534D01*
X32855951Y-99540216D01*
X32826401Y-99582420D01*
X32826394Y-99582432D01*
X32726570Y-99796505D01*
X32665429Y-100024686D01*
X32644843Y-100259996D01*
X32644843Y-100260003D01*
X32665429Y-100495313D01*
X32726569Y-100723489D01*
X32826400Y-100937579D01*
X32826400Y-100937580D01*
X32855951Y-100979782D01*
X33461268Y-100374464D01*
X33487482Y-100472292D01*
X33559890Y-100597708D01*
X33662292Y-100700110D01*
X33787708Y-100772518D01*
X33885532Y-100798730D01*
X33280215Y-101404046D01*
X33281688Y-101420871D01*
X33267925Y-101480488D01*
X33221748Y-101520630D01*
X33183065Y-101528500D01*
X29639835Y-101528500D01*
X29581644Y-101509593D01*
X29569831Y-101499504D01*
X28983317Y-100912990D01*
X28955540Y-100858473D01*
X28954321Y-100843128D01*
X28951169Y-98466404D01*
X28949598Y-97282133D01*
X28968428Y-97223918D01*
X29017880Y-97187888D01*
X29048598Y-97183002D01*
X31997466Y-97183002D01*
X31999593Y-94485658D01*
X32018546Y-94427485D01*
X32028578Y-94415748D01*
X32465465Y-93978862D01*
X32465468Y-93978857D01*
X32508316Y-93904643D01*
X32508316Y-93904641D01*
X32508318Y-93904639D01*
X32530500Y-93821853D01*
X32530500Y-93736147D01*
X32530500Y-92070834D01*
X32549407Y-92012643D01*
X32559490Y-92000836D01*
X33471825Y-91088500D01*
X33526340Y-91060725D01*
X33586772Y-91070296D01*
X33588463Y-91071178D01*
X33596046Y-91075232D01*
X33735555Y-91117551D01*
X33794065Y-91135300D01*
X33794070Y-91135301D01*
X33999997Y-91155583D01*
X34000000Y-91155583D01*
X34000003Y-91155583D01*
X34205929Y-91135301D01*
X34205934Y-91135300D01*
X34228977Y-91128310D01*
X34403954Y-91075232D01*
X34586450Y-90977685D01*
X34746410Y-90846410D01*
X34877685Y-90686450D01*
X34975232Y-90503954D01*
X35035300Y-90305934D01*
X35035301Y-90305929D01*
X35055583Y-90100003D01*
X35055583Y-90099996D01*
X35035301Y-89894070D01*
X35035300Y-89894065D01*
X35005345Y-89795316D01*
X34975232Y-89696046D01*
X34971195Y-89688493D01*
X34960440Y-89628261D01*
X34987142Y-89573210D01*
X34988443Y-89571882D01*
X35210831Y-89349496D01*
X35265347Y-89321719D01*
X35280834Y-89320500D01*
X36688876Y-89320500D01*
X36747067Y-89339407D01*
G37*
%TD.AperFunction*%
%TA.AperFunction,Conductor*%
G36*
X44458691Y-88918907D02*
G01*
X44494655Y-88968407D01*
X44499500Y-88999000D01*
X44499500Y-99512108D01*
X44480593Y-99570299D01*
X44431093Y-99606263D01*
X44369907Y-99606263D01*
X44341171Y-99591361D01*
X44272090Y-99539647D01*
X44272088Y-99539646D01*
X44137381Y-99489403D01*
X44137370Y-99489401D01*
X44077824Y-99483000D01*
X43543361Y-99483000D01*
X43485170Y-99464093D01*
X43449206Y-99414593D01*
X43449206Y-99353407D01*
X43485170Y-99303907D01*
X43514623Y-99289263D01*
X43583954Y-99268232D01*
X43766450Y-99170685D01*
X43926410Y-99039410D01*
X44057685Y-98879450D01*
X44155232Y-98696954D01*
X44215300Y-98498934D01*
X44215301Y-98498929D01*
X44235583Y-98293003D01*
X44235583Y-98292996D01*
X44215301Y-98087070D01*
X44215300Y-98087065D01*
X44179030Y-97967500D01*
X44155232Y-97889046D01*
X44057685Y-97706550D01*
X43926410Y-97546590D01*
X43886778Y-97514065D01*
X43766452Y-97415316D01*
X43583954Y-97317768D01*
X43385934Y-97257699D01*
X43385929Y-97257698D01*
X43180003Y-97237417D01*
X43179997Y-97237417D01*
X42974070Y-97257698D01*
X42974065Y-97257699D01*
X42776045Y-97317768D01*
X42593547Y-97415316D01*
X42433595Y-97546585D01*
X42433585Y-97546595D01*
X42302316Y-97706547D01*
X42204769Y-97889043D01*
X42204768Y-97889045D01*
X42204768Y-97889046D01*
X42202282Y-97897241D01*
X42167297Y-97947436D01*
X42109488Y-97967481D01*
X42107546Y-97967500D01*
X41826835Y-97967500D01*
X41768644Y-97948593D01*
X41756831Y-97938504D01*
X37991419Y-94173092D01*
X37963642Y-94118575D01*
X37973213Y-94058143D01*
X38016478Y-94014878D01*
X38021157Y-94012647D01*
X38044719Y-94002156D01*
X38044719Y-94002155D01*
X38044730Y-94002151D01*
X38197871Y-93890888D01*
X38324533Y-93750216D01*
X38419179Y-93586284D01*
X38477674Y-93406256D01*
X38497460Y-93218000D01*
X38477674Y-93029744D01*
X38419179Y-92849716D01*
X38419176Y-92849711D01*
X38419174Y-92849706D01*
X38355454Y-92739341D01*
X38324533Y-92685784D01*
X38322696Y-92683744D01*
X38322136Y-92682485D01*
X38321482Y-92681585D01*
X38321673Y-92681445D01*
X38297810Y-92627850D01*
X38310529Y-92568002D01*
X38355998Y-92527060D01*
X38396267Y-92518500D01*
X38931165Y-92518500D01*
X38989356Y-92537407D01*
X39001169Y-92547496D01*
X39261571Y-92807898D01*
X39289348Y-92862415D01*
X39285722Y-92908494D01*
X39246326Y-93029741D01*
X39227065Y-93213003D01*
X39226540Y-93218000D01*
X39244240Y-93386410D01*
X39246327Y-93406261D01*
X39304819Y-93586279D01*
X39304825Y-93586293D01*
X39380015Y-93716525D01*
X39399467Y-93750216D01*
X39399469Y-93750218D01*
X39463967Y-93821851D01*
X39526129Y-93890888D01*
X39679270Y-94002151D01*
X39852197Y-94079144D01*
X40037354Y-94118500D01*
X40037357Y-94118500D01*
X40226643Y-94118500D01*
X40226646Y-94118500D01*
X40411803Y-94079144D01*
X40433376Y-94069538D01*
X40494225Y-94063142D01*
X40543648Y-94089975D01*
X42098683Y-95645010D01*
X42126460Y-95699527D01*
X42127202Y-95724717D01*
X42124417Y-95752996D01*
X42124417Y-95753003D01*
X42144698Y-95958929D01*
X42144699Y-95958934D01*
X42204768Y-96156954D01*
X42302316Y-96339452D01*
X42433585Y-96499404D01*
X42433590Y-96499410D01*
X42433595Y-96499414D01*
X42593547Y-96630683D01*
X42593548Y-96630683D01*
X42593550Y-96630685D01*
X42776046Y-96728232D01*
X42878376Y-96759273D01*
X42974065Y-96788300D01*
X42974070Y-96788301D01*
X43179997Y-96808583D01*
X43180000Y-96808583D01*
X43180003Y-96808583D01*
X43385929Y-96788301D01*
X43385934Y-96788300D01*
X43402038Y-96783415D01*
X43583954Y-96728232D01*
X43766450Y-96630685D01*
X43926410Y-96499410D01*
X44057685Y-96339450D01*
X44155232Y-96156954D01*
X44215300Y-95958934D01*
X44215301Y-95958929D01*
X44235583Y-95753003D01*
X44235583Y-95752996D01*
X44215301Y-95547070D01*
X44215300Y-95547065D01*
X44197078Y-95486997D01*
X44155232Y-95349046D01*
X44057685Y-95166550D01*
X43926410Y-95006590D01*
X43926404Y-95006585D01*
X43766452Y-94875316D01*
X43583954Y-94777768D01*
X43385934Y-94717699D01*
X43385929Y-94717698D01*
X43180003Y-94697417D01*
X43179997Y-94697417D01*
X42974070Y-94717698D01*
X42974065Y-94717699D01*
X42776045Y-94777768D01*
X42593547Y-94875316D01*
X42593547Y-94875317D01*
X42474021Y-94973409D01*
X42417044Y-94995709D01*
X42357841Y-94980260D01*
X42341212Y-94966885D01*
X41002428Y-93628101D01*
X40974651Y-93573584D01*
X40978278Y-93527504D01*
X40994635Y-93477159D01*
X41017674Y-93406256D01*
X41037460Y-93218000D01*
X41017674Y-93029744D01*
X40959179Y-92849716D01*
X40959176Y-92849711D01*
X40959174Y-92849706D01*
X40895454Y-92739341D01*
X40864533Y-92685784D01*
X40801740Y-92616046D01*
X40737875Y-92545116D01*
X40737870Y-92545111D01*
X40585034Y-92434070D01*
X40584730Y-92433849D01*
X40584725Y-92433847D01*
X40584722Y-92433845D01*
X40411805Y-92356857D01*
X40411803Y-92356856D01*
X40411800Y-92356855D01*
X40411799Y-92356855D01*
X40360842Y-92346024D01*
X40226646Y-92317500D01*
X40037354Y-92317500D01*
X39908030Y-92344988D01*
X39852191Y-92356857D01*
X39830621Y-92366461D01*
X39769771Y-92372856D01*
X39720351Y-92346024D01*
X39562831Y-92188504D01*
X39535054Y-92133987D01*
X39544625Y-92073555D01*
X39587890Y-92030290D01*
X39632835Y-92019500D01*
X41485165Y-92019500D01*
X41543356Y-92038407D01*
X41555169Y-92048496D01*
X42191497Y-92684824D01*
X42219274Y-92739341D01*
X42209703Y-92799773D01*
X42208803Y-92801496D01*
X42204770Y-92809040D01*
X42204768Y-92809045D01*
X42144699Y-93007065D01*
X42144698Y-93007070D01*
X42124417Y-93212996D01*
X42124417Y-93213003D01*
X42144698Y-93418929D01*
X42144699Y-93418934D01*
X42204768Y-93616954D01*
X42302316Y-93799452D01*
X42382934Y-93897685D01*
X42433590Y-93959410D01*
X42433595Y-93959414D01*
X42593547Y-94090683D01*
X42593548Y-94090683D01*
X42593550Y-94090685D01*
X42776046Y-94188232D01*
X42878376Y-94219273D01*
X42974065Y-94248300D01*
X42974070Y-94248301D01*
X43179997Y-94268583D01*
X43180000Y-94268583D01*
X43180003Y-94268583D01*
X43385929Y-94248301D01*
X43385934Y-94248300D01*
X43402038Y-94243415D01*
X43583954Y-94188232D01*
X43766450Y-94090685D01*
X43926410Y-93959410D01*
X44057685Y-93799450D01*
X44155232Y-93616954D01*
X44215300Y-93418934D01*
X44215301Y-93418929D01*
X44235583Y-93213003D01*
X44235583Y-93212996D01*
X44215301Y-93007070D01*
X44215300Y-93007065D01*
X44171421Y-92862415D01*
X44155232Y-92809046D01*
X44057685Y-92626550D01*
X43992807Y-92547496D01*
X43926414Y-92466595D01*
X43926410Y-92466590D01*
X43886510Y-92433845D01*
X43766452Y-92335316D01*
X43583954Y-92237768D01*
X43385934Y-92177699D01*
X43385929Y-92177698D01*
X43180003Y-92157417D01*
X43179997Y-92157417D01*
X42974070Y-92177698D01*
X42974065Y-92177699D01*
X42776045Y-92237768D01*
X42776040Y-92237770D01*
X42768496Y-92241803D01*
X42708263Y-92252559D01*
X42653212Y-92225857D01*
X42651824Y-92224497D01*
X42279474Y-91852147D01*
X41860862Y-91433535D01*
X41860859Y-91433533D01*
X41860858Y-91433532D01*
X41860857Y-91433531D01*
X41786642Y-91390683D01*
X41786644Y-91390683D01*
X41754521Y-91382076D01*
X41703853Y-91368500D01*
X41703851Y-91368500D01*
X40435340Y-91368500D01*
X40377149Y-91349593D01*
X40341185Y-91300093D01*
X40341185Y-91238907D01*
X40377149Y-91189407D01*
X40406602Y-91174763D01*
X40503954Y-91145232D01*
X40686450Y-91047685D01*
X40719000Y-91020971D01*
X40775976Y-90998672D01*
X40781804Y-90998500D01*
X42107546Y-90998500D01*
X42165737Y-91017407D01*
X42201701Y-91066907D01*
X42202267Y-91068709D01*
X42204246Y-91075232D01*
X42204769Y-91076956D01*
X42302316Y-91259452D01*
X42416480Y-91398561D01*
X42433590Y-91419410D01*
X42462838Y-91443413D01*
X42593547Y-91550683D01*
X42593548Y-91550683D01*
X42593550Y-91550685D01*
X42776046Y-91648232D01*
X42878376Y-91679273D01*
X42974065Y-91708300D01*
X42974070Y-91708301D01*
X43179997Y-91728583D01*
X43180000Y-91728583D01*
X43180003Y-91728583D01*
X43385929Y-91708301D01*
X43385934Y-91708300D01*
X43402038Y-91703415D01*
X43583954Y-91648232D01*
X43766450Y-91550685D01*
X43926410Y-91419410D01*
X44057685Y-91259450D01*
X44155232Y-91076954D01*
X44215300Y-90878934D01*
X44215301Y-90878929D01*
X44235583Y-90673003D01*
X44235583Y-90672996D01*
X44215301Y-90467070D01*
X44215300Y-90467065D01*
X44179030Y-90347500D01*
X44155232Y-90269046D01*
X44057685Y-90086550D01*
X43926410Y-89926590D01*
X43886778Y-89894065D01*
X43766452Y-89795316D01*
X43583954Y-89697768D01*
X43385934Y-89637699D01*
X43385929Y-89637698D01*
X43180003Y-89617417D01*
X43179997Y-89617417D01*
X42974070Y-89637698D01*
X42974065Y-89637699D01*
X42776045Y-89697768D01*
X42593547Y-89795316D01*
X42433595Y-89926585D01*
X42433585Y-89926595D01*
X42302316Y-90086547D01*
X42204769Y-90269043D01*
X42204768Y-90269045D01*
X42204768Y-90269046D01*
X42202282Y-90277241D01*
X42167297Y-90327436D01*
X42109488Y-90347481D01*
X42107546Y-90347500D01*
X41247330Y-90347500D01*
X41189139Y-90328593D01*
X41153175Y-90279093D01*
X41148807Y-90238796D01*
X41155583Y-90170001D01*
X41155583Y-90169996D01*
X41135301Y-89964070D01*
X41135300Y-89964065D01*
X41099030Y-89844500D01*
X41075232Y-89766046D01*
X40977685Y-89583550D01*
X40969199Y-89573210D01*
X40846414Y-89423595D01*
X40846410Y-89423590D01*
X40846404Y-89423585D01*
X40686452Y-89292316D01*
X40503954Y-89194768D01*
X40305934Y-89134699D01*
X40305929Y-89134698D01*
X40100003Y-89114417D01*
X40099997Y-89114417D01*
X39894070Y-89134698D01*
X39894065Y-89134699D01*
X39723045Y-89186578D01*
X39696046Y-89194768D01*
X39696045Y-89194768D01*
X39691392Y-89196180D01*
X39690908Y-89194586D01*
X39636791Y-89198840D01*
X39589909Y-89172582D01*
X39486331Y-89069004D01*
X39458554Y-89014487D01*
X39468125Y-88954055D01*
X39511390Y-88910790D01*
X39556335Y-88900000D01*
X44400500Y-88900000D01*
X44458691Y-88918907D01*
G37*
%TD.AperFunction*%
%TA.AperFunction,Conductor*%
G36*
X33727796Y-88918907D02*
G01*
X33763760Y-88968407D01*
X33763760Y-89029593D01*
X33727796Y-89079093D01*
X33698343Y-89093737D01*
X33596045Y-89124768D01*
X33413547Y-89222316D01*
X33253595Y-89353585D01*
X33253585Y-89353595D01*
X33122316Y-89513547D01*
X33024768Y-89696045D01*
X32964699Y-89894065D01*
X32964698Y-89894070D01*
X32944417Y-90099996D01*
X32944417Y-90100003D01*
X32964698Y-90305929D01*
X32964699Y-90305934D01*
X33024768Y-90503954D01*
X33024769Y-90503957D01*
X33028804Y-90511506D01*
X33039558Y-90571739D01*
X33012854Y-90626789D01*
X33011496Y-90628175D01*
X32171032Y-91468639D01*
X32116515Y-91496416D01*
X32056083Y-91486845D01*
X32012818Y-91443580D01*
X32002029Y-91398561D01*
X32003922Y-88998922D01*
X32022875Y-88940746D01*
X32072404Y-88904821D01*
X32102922Y-88900000D01*
X33669605Y-88900000D01*
X33727796Y-88918907D01*
G37*
%TD.AperFunction*%
%TD*%
M02*
