%TF.GenerationSoftware,KiCad,Pcbnew,8.0.5*%
%TF.CreationDate,2024-12-21T15:11:58+00:00*%
%TF.ProjectId,EuroRackDaisy,4575726f-5261-4636-9b44-616973792e6b,rev?*%
%TF.SameCoordinates,Original*%
%TF.FileFunction,Soldermask,Top*%
%TF.FilePolarity,Negative*%
%FSLAX46Y46*%
G04 Gerber Fmt 4.6, Leading zero omitted, Abs format (unit mm)*
G04 Created by KiCad (PCBNEW 8.0.5) date 2024-12-21 15:11:58*
%MOMM*%
%LPD*%
G01*
G04 APERTURE LIST*
G04 Aperture macros list*
%AMRoundRect*
0 Rectangle with rounded corners*
0 $1 Rounding radius*
0 $2 $3 $4 $5 $6 $7 $8 $9 X,Y pos of 4 corners*
0 Add a 4 corners polygon primitive as box body*
4,1,4,$2,$3,$4,$5,$6,$7,$8,$9,$2,$3,0*
0 Add four circle primitives for the rounded corners*
1,1,$1+$1,$2,$3*
1,1,$1+$1,$4,$5*
1,1,$1+$1,$6,$7*
1,1,$1+$1,$8,$9*
0 Add four rect primitives between the rounded corners*
20,1,$1+$1,$2,$3,$4,$5,0*
20,1,$1+$1,$4,$5,$6,$7,0*
20,1,$1+$1,$6,$7,$8,$9,0*
20,1,$1+$1,$8,$9,$2,$3,0*%
G04 Aperture macros list end*
%ADD10R,1.700000X1.700000*%
%ADD11O,1.700000X1.700000*%
%ADD12C,1.700000*%
%ADD13C,1.400000*%
%ADD14O,1.400000X1.400000*%
%ADD15C,2.200000*%
%ADD16R,2.200000X2.200000*%
%ADD17O,2.200000X2.200000*%
%ADD18C,1.600000*%
%ADD19O,1.600000X1.600000*%
%ADD20RoundRect,0.250000X0.600000X-0.600000X0.600000X0.600000X-0.600000X0.600000X-0.600000X-0.600000X0*%
%ADD21R,1.600000X1.600000*%
G04 APERTURE END LIST*
D10*
%TO.C,J9*%
X43180000Y-100833000D03*
D11*
X43180000Y-98293000D03*
X43180000Y-95753000D03*
X43180000Y-93213000D03*
X43180000Y-90673000D03*
%TD*%
%TO.C,J1*%
X40100000Y-90170000D03*
X37560000Y-90170000D03*
%TD*%
D10*
%TO.C,J8*%
X42570000Y-105000000D03*
D11*
X42570000Y-107540000D03*
X42570000Y-110080000D03*
%TD*%
%TO.C,J7*%
X38600000Y-73914000D03*
X38600000Y-76454000D03*
X38600000Y-78994000D03*
X38600000Y-81534000D03*
X38600000Y-84074000D03*
%TD*%
%TO.C,J4*%
X38600000Y-59944000D03*
X38600000Y-62484000D03*
X38600000Y-65024000D03*
X38600000Y-67564000D03*
X38600000Y-70104000D03*
%TD*%
D10*
%TO.C,A1*%
X34000000Y-52000000D03*
D12*
X34000000Y-54540000D03*
X34000000Y-57080000D03*
X34000000Y-59620000D03*
X34000000Y-62160000D03*
X34000000Y-64700000D03*
X34000000Y-67240000D03*
X34000000Y-69780000D03*
X34000000Y-72320000D03*
X34000000Y-74860000D03*
X34000000Y-77400000D03*
X34000000Y-79940000D03*
X34000000Y-82480000D03*
X34000000Y-85020000D03*
X34000000Y-87560000D03*
X34000000Y-90100000D03*
X34000000Y-92640000D03*
X34000000Y-95180000D03*
X34000000Y-97720000D03*
X34000000Y-100260000D03*
X18760000Y-100260000D03*
X18760000Y-97720000D03*
X18760000Y-95180000D03*
X18760000Y-92640000D03*
X18760000Y-90100000D03*
X18760000Y-87560000D03*
X18760000Y-85020000D03*
X18760000Y-82480000D03*
X18760000Y-79940000D03*
X18760000Y-77400000D03*
X18760000Y-74860000D03*
X18760000Y-72320000D03*
X18760000Y-69780000D03*
X18760000Y-67240000D03*
X18760000Y-64700000D03*
X18760000Y-62160000D03*
X18760000Y-59620000D03*
X18760000Y-57080000D03*
X18760000Y-54540000D03*
X18760000Y-52000000D03*
%TD*%
D13*
%TO.C,R3*%
X37592000Y-100838000D03*
D14*
X37592000Y-93218000D03*
%TD*%
D10*
%TO.C,J3*%
X22510000Y-60000000D03*
D11*
X22510000Y-62540000D03*
X22510000Y-65080000D03*
X22510000Y-67620000D03*
X22510000Y-70160000D03*
X22510000Y-72700000D03*
X22510000Y-75240000D03*
X22510000Y-77780000D03*
X22510000Y-80320000D03*
X22510000Y-82860000D03*
X22510000Y-85400000D03*
X22510000Y-87940000D03*
X22510000Y-90480000D03*
X22510000Y-93020000D03*
%TD*%
D15*
%TO.C,MK3*%
X38500000Y-53000000D03*
%TD*%
D13*
%TO.C,R2*%
X40132000Y-100838000D03*
D14*
X40132000Y-93218000D03*
%TD*%
D10*
%TO.C,J2*%
X30130000Y-60000000D03*
D11*
X30130000Y-62540000D03*
X30130000Y-65080000D03*
X30130000Y-67620000D03*
X30130000Y-70160000D03*
X30130000Y-72700000D03*
X30130000Y-75240000D03*
X30130000Y-77780000D03*
X30130000Y-80320000D03*
X30130000Y-82860000D03*
X30130000Y-85400000D03*
X30130000Y-87940000D03*
X30130000Y-90480000D03*
X30130000Y-93020000D03*
%TD*%
D15*
%TO.C,MK5*%
X30000000Y-144200000D03*
%TD*%
D16*
%TO.C,D1*%
X30010000Y-127040000D03*
D17*
X19850000Y-127040000D03*
%TD*%
D18*
%TO.C,R1*%
X33740000Y-127000000D03*
D19*
X41360000Y-127000000D03*
%TD*%
D10*
%TO.C,J6*%
X17430000Y-105000000D03*
D11*
X17430000Y-107540000D03*
X17430000Y-110080000D03*
%TD*%
D20*
%TO.C,J5*%
X38890000Y-136640000D03*
D12*
X38890000Y-134100000D03*
X36350000Y-136640000D03*
X36350000Y-134100000D03*
X33810000Y-136640000D03*
X33810000Y-134100000D03*
X31270000Y-136640000D03*
X31270000Y-134100000D03*
X28730000Y-136640000D03*
X28730000Y-134100000D03*
X26190000Y-136640000D03*
X26190000Y-134100000D03*
X23650000Y-136640000D03*
X23650000Y-134100000D03*
X21110000Y-136640000D03*
X21110000Y-134100000D03*
%TD*%
D21*
%TO.C,C1*%
X30970000Y-121560000D03*
D18*
X28470000Y-121560000D03*
%TD*%
M02*
