M48
; DRILL file {KiCad 8.0.5} date 2024-12-21T15:12:00+0000
; FORMAT={-:-/ absolute / inch / decimal}
; #@! TF.CreationDate,2024-12-21T15:12:00+00:00
; #@! TF.GenerationSoftware,Kicad,Pcbnew,8.0.5
; #@! TF.FileFunction,MixedPlating,1,2
FMAT,2
INCH
; #@! TA.AperFunction,Plated,PTH,ViaDrill
T1C0.0118
; #@! TA.AperFunction,Plated,PTH,ComponentDrill
T2C0.0276
; #@! TA.AperFunction,Plated,PTH,ComponentDrill
T3C0.0315
; #@! TA.AperFunction,Plated,PTH,ComponentDrill
T4C0.0394
; #@! TA.AperFunction,Plated,PTH,ComponentDrill
T5C0.0433
; #@! TA.AperFunction,NonPlated,NPTH,ComponentDrill
T6C0.0866
%
G90
G05
T1
X0.68Y-3.3
X0.68Y-3.6
X0.68Y-3.89
X0.7Y-2.8
X0.7Y-2.9
X0.7031Y-5.7626
X0.7106Y-5.1555
X0.8Y-2.5
X0.8Y-2.66
X0.83Y-4.52
X0.86Y-2.15
X0.94Y-2.67
X0.94Y-2.94
X0.94Y-3.51
X0.96Y-4.35
X0.97Y-5.15
X0.98Y-2.42
X0.98Y-2.54
X0.99Y-2.23
X1.0173Y-2.9406
X1.0177Y-3.2497
X1.018Y-3.4698
X1.0185Y-3.3603
X1.04Y-2.03
X1.04Y-4.05
X1.06Y-3.79
X1.08Y-2.33
X1.1Y-2.61
X1.1Y-2.71
X1.1Y-2.81
X1.1Y-2.94
X1.11Y-3.36
X1.11Y-3.47
X1.16Y-2.23
X1.18Y-5.83
X1.19Y-3.95
X1.21Y-2.15
X1.27Y-2.25
X1.28Y-3.54
X1.2984Y-5.1512
X1.3Y-3.7
X1.35Y-4.35
X1.38Y-2.5
X1.38Y-2.7
X1.4Y-3.54
X1.43Y-3.61
X1.43Y-3.7
X1.47Y-2.27
X1.47Y-2.41
X1.47Y-2.5
X1.48Y-3.77
X1.52Y-2.83
X1.52Y-4.49
X1.53Y-3.7
X1.53Y-3.91
X1.62Y-4.73
X1.6295Y-5.1476
X1.6327Y-5.7732
X1.64Y-3.52
X1.64Y-3.67
X1.64Y-3.8
X1.68Y-3.2
X1.69Y-2.07
X1.69Y-2.67
T2
X1.48Y-3.67
X1.48Y-3.97
X1.58Y-3.67
X1.58Y-3.97
T3
X1.1209Y-4.7858
X1.2193Y-4.7858
X1.3283Y-5.0
X1.6283Y-5.0
T4
X0.6862Y-4.1339
X0.6862Y-4.2339
X0.6862Y-4.3339
X0.8311Y-5.2795
X0.8311Y-5.3795
X0.8862Y-2.3622
X0.8862Y-2.4622
X0.8862Y-2.5622
X0.8862Y-2.6622
X0.8862Y-2.7622
X0.8862Y-2.8622
X0.8862Y-2.9622
X0.8862Y-3.0622
X0.8862Y-3.1622
X0.8862Y-3.2622
X0.8862Y-3.3622
X0.8862Y-3.4622
X0.8862Y-3.5622
X0.8862Y-3.6622
X0.9311Y-5.2795
X0.9311Y-5.3795
X1.0311Y-5.2795
X1.0311Y-5.3795
X1.1311Y-5.2795
X1.1311Y-5.3795
X1.1862Y-2.3622
X1.1862Y-2.4622
X1.1862Y-2.5622
X1.1862Y-2.6622
X1.1862Y-2.7622
X1.1862Y-2.8622
X1.1862Y-2.9622
X1.1862Y-3.0622
X1.1862Y-3.1622
X1.1862Y-3.2622
X1.1862Y-3.3622
X1.1862Y-3.4622
X1.1862Y-3.5622
X1.1862Y-3.6622
X1.2311Y-5.2795
X1.2311Y-5.3795
X1.3311Y-5.2795
X1.3311Y-5.3795
X1.4311Y-5.2795
X1.4311Y-5.3795
X1.4787Y-3.55
X1.5197Y-2.36
X1.5197Y-2.46
X1.5197Y-2.56
X1.5197Y-2.66
X1.5197Y-2.76
X1.5197Y-2.91
X1.5197Y-3.01
X1.5197Y-3.11
X1.5197Y-3.21
X1.5197Y-3.31
X1.5311Y-5.2795
X1.5311Y-5.3795
X1.5787Y-3.55
X1.676Y-4.1339
X1.676Y-4.2339
X1.676Y-4.3339
X1.7Y-3.5698
X1.7Y-3.6698
X1.7Y-3.7698
X1.7Y-3.8698
X1.7Y-3.9698
T5
X0.7386Y-2.0472
X0.7386Y-2.1472
X0.7386Y-2.2472
X0.7386Y-2.3472
X0.7386Y-2.4472
X0.7386Y-2.5472
X0.7386Y-2.6472
X0.7386Y-2.7472
X0.7386Y-2.8472
X0.7386Y-2.9472
X0.7386Y-3.0472
X0.7386Y-3.1472
X0.7386Y-3.2472
X0.7386Y-3.3472
X0.7386Y-3.4472
X0.7386Y-3.5472
X0.7386Y-3.6472
X0.7386Y-3.7472
X0.7386Y-3.8472
X0.7386Y-3.9472
X0.7815Y-5.0016
X1.1815Y-5.0016
X1.3386Y-2.0472
X1.3386Y-2.1472
X1.3386Y-2.2472
X1.3386Y-2.3472
X1.3386Y-2.4472
X1.3386Y-2.5472
X1.3386Y-2.6472
X1.3386Y-2.7472
X1.3386Y-2.8472
X1.3386Y-2.9472
X1.3386Y-3.0472
X1.3386Y-3.1472
X1.3386Y-3.2472
X1.3386Y-3.3472
X1.3386Y-3.4472
X1.3386Y-3.5472
X1.3386Y-3.6472
X1.3386Y-3.7472
X1.3386Y-3.8472
X1.3386Y-3.9472
T6
X1.1811Y-5.6772
X1.5157Y-2.0866
M30
